# MagicaVoxel @ Ephtracy

# group
o 

# material
mtllib VR Токарев стол.mtl
usemtl palette

# normals
vn -1 0 0
vn 1 0 0
vn 0 0 1
vn 0 0 -1
vn 0 -1 0
vn 0 1 0

# texcoords
vt 0.369141 0.5
vt 0.373047 0.5
vt 0.537109 0.5

# verts
v -1.9 0.9 1.3
v -1.9 0.9 -1.3
v -1.9 1.1 1.3
v -1.9 1.1 -1.3
v -1.8 0.8 1
v -1.8 0.8 0.7
v -1.8 0.8 -0.7
v -1.8 0.8 -1
v -1.8 0.9 1
v -1.8 0.9 0.7
v -1.8 0.9 -0.7
v -1.8 0.9 -1
v -1.7 0.1 1
v -1.7 0.1 0.7
v -1.7 0.1 -0.7
v -1.7 0.1 -1
v -1.7 0.8 1.1
v -1.7 0.8 1
v -1.7 0.8 0.7
v -1.7 0.8 0.6
v -1.7 0.8 -0.6
v -1.7 0.8 -0.7
v -1.7 0.8 -1
v -1.7 0.8 -1.1
v -1.7 0.9 1.1
v -1.7 0.9 1
v -1.7 0.9 0.7
v -1.7 0.9 0.6
v -1.7 0.9 -0.6
v -1.7 0.9 -0.7
v -1.7 0.9 -1
v -1.7 0.9 -1.1
v 1.3 0.8 1
v 1.3 0.8 0.7
v 1.3 0.8 -0.7
v 1.3 0.8 -1
v 1.3 0.9 1
v 1.3 0.9 0.7
v 1.3 0.9 -0.7
v 1.3 0.9 -1
v 1.4 0.1 1
v 1.4 0.1 0.7
v 1.4 0.1 -0.7
v 1.4 0.1 -1
v 1.4 0.8 1.1
v 1.4 0.8 1
v 1.4 0.8 0.7
v 1.4 0.8 0.6
v 1.4 0.8 -0.6
v 1.4 0.8 -0.7
v 1.4 0.8 -1
v 1.4 0.8 -1.1
v 1.4 0.9 1.1
v 1.4 0.9 1
v 1.4 0.9 0.7
v 1.4 0.9 0.6
v 1.4 0.9 -0.6
v 1.4 0.9 -0.7
v 1.4 0.9 -1
v 1.4 0.9 -1.1
v -1.4 0.1 1
v -1.4 0.1 0.7
v -1.4 0.1 -0.7
v -1.4 0.1 -1
v -1.4 0.8 1.1
v -1.4 0.8 1
v -1.4 0.8 0.7
v -1.4 0.8 0.6
v -1.4 0.8 -0.6
v -1.4 0.8 -0.7
v -1.4 0.8 -1
v -1.4 0.8 -1.1
v -1.4 0.9 1.1
v -1.4 0.9 1
v -1.4 0.9 0.7
v -1.4 0.9 0.6
v -1.4 0.9 -0.6
v -1.4 0.9 -0.7
v -1.4 0.9 -1
v -1.4 0.9 -1.1
v -1.3 0.8 1
v -1.3 0.8 0.7
v -1.3 0.8 -0.7
v -1.3 0.8 -1
v -1.3 0.9 1
v -1.3 0.9 0.7
v -1.3 0.9 -0.7
v -1.3 0.9 -1
v 1.7 0.1 1
v 1.7 0.1 0.7
v 1.7 0.1 -0.7
v 1.7 0.1 -1
v 1.7 0.8 1.1
v 1.7 0.8 1
v 1.7 0.8 0.7
v 1.7 0.8 0.6
v 1.7 0.8 -0.6
v 1.7 0.8 -0.7
v 1.7 0.8 -1
v 1.7 0.8 -1.1
v 1.7 0.9 1.1
v 1.7 0.9 1
v 1.7 0.9 0.7
v 1.7 0.9 0.6
v 1.7 0.9 -0.6
v 1.7 0.9 -0.7
v 1.7 0.9 -1
v 1.7 0.9 -1.1
v 1.8 0.8 1
v 1.8 0.8 0.7
v 1.8 0.8 -0.7
v 1.8 0.8 -1
v 1.8 0.9 1
v 1.8 0.9 0.7
v 1.8 0.9 -0.7
v 1.8 0.9 -1
v 1.9 0.9 1.3
v 1.9 0.9 -1.3
v 1.9 1.1 1.3
v 1.9 1.1 -1.3
v -1.9 0.9 1.3
v -1.9 1.1 1.3
v 1.9 0.9 1.3
v 1.9 1.1 1.3
v -1.7 0.8 1.1
v -1.7 0.9 1.1
v -1.4 0.8 1.1
v -1.4 0.9 1.1
v 1.4 0.8 1.1
v 1.4 0.9 1.1
v 1.7 0.8 1.1
v 1.7 0.9 1.1
v -1.8 0.8 1
v -1.8 0.9 1
v -1.7 0.1 1
v -1.7 0.8 1
v -1.7 0.9 1
v -1.4 0.1 1
v -1.4 0.8 1
v -1.4 0.9 1
v -1.3 0.8 1
v -1.3 0.9 1
v 1.3 0.8 1
v 1.3 0.9 1
v 1.4 0.1 1
v 1.4 0.8 1
v 1.4 0.9 1
v 1.7 0.1 1
v 1.7 0.8 1
v 1.7 0.9 1
v 1.8 0.8 1
v 1.8 0.9 1
v -1.7 0.8 -0.6
v -1.7 0.9 -0.6
v -1.4 0.8 -0.6
v -1.4 0.9 -0.6
v 1.4 0.8 -0.6
v 1.4 0.9 -0.6
v 1.7 0.8 -0.6
v 1.7 0.9 -0.6
v -1.8 0.8 -0.7
v -1.8 0.9 -0.7
v -1.7 0.1 -0.7
v -1.7 0.8 -0.7
v -1.7 0.9 -0.7
v -1.4 0.1 -0.7
v -1.4 0.8 -0.7
v -1.4 0.9 -0.7
v -1.3 0.8 -0.7
v -1.3 0.9 -0.7
v 1.3 0.8 -0.7
v 1.3 0.9 -0.7
v 1.4 0.1 -0.7
v 1.4 0.8 -0.7
v 1.4 0.9 -0.7
v 1.7 0.1 -0.7
v 1.7 0.8 -0.7
v 1.7 0.9 -0.7
v 1.8 0.8 -0.7
v 1.8 0.9 -0.7
v -1.8 0.8 0.7
v -1.8 0.9 0.7
v -1.7 0.1 0.7
v -1.7 0.8 0.7
v -1.7 0.9 0.7
v -1.4 0.1 0.7
v -1.4 0.8 0.7
v -1.4 0.9 0.7
v -1.3 0.8 0.7
v -1.3 0.9 0.7
v 1.3 0.8 0.7
v 1.3 0.9 0.7
v 1.4 0.1 0.7
v 1.4 0.8 0.7
v 1.4 0.9 0.7
v 1.7 0.1 0.7
v 1.7 0.8 0.7
v 1.7 0.9 0.7
v 1.8 0.8 0.7
v 1.8 0.9 0.7
v -1.7 0.8 0.6
v -1.7 0.9 0.6
v -1.4 0.8 0.6
v -1.4 0.9 0.6
v 1.4 0.8 0.6
v 1.4 0.9 0.6
v 1.7 0.8 0.6
v 1.7 0.9 0.6
v -1.8 0.8 -1
v -1.8 0.9 -1
v -1.7 0.1 -1
v -1.7 0.8 -1
v -1.7 0.9 -1
v -1.4 0.1 -1
v -1.4 0.8 -1
v -1.4 0.9 -1
v -1.3 0.8 -1
v -1.3 0.9 -1
v 1.3 0.8 -1
v 1.3 0.9 -1
v 1.4 0.1 -1
v 1.4 0.8 -1
v 1.4 0.9 -1
v 1.7 0.1 -1
v 1.7 0.8 -1
v 1.7 0.9 -1
v 1.8 0.8 -1
v 1.8 0.9 -1
v -1.7 0.8 -1.1
v -1.7 0.9 -1.1
v -1.4 0.8 -1.1
v -1.4 0.9 -1.1
v 1.4 0.8 -1.1
v 1.4 0.9 -1.1
v 1.7 0.8 -1.1
v 1.7 0.9 -1.1
v -1.9 0.9 -1.3
v -1.9 1.1 -1.3
v 1.9 0.9 -1.3
v 1.9 1.1 -1.3
v -1.7 0.1 1
v -1.4 0.1 1
v 1.4 0.1 1
v 1.7 0.1 1
v -1.7 0.1 0.7
v -1.4 0.1 0.7
v 1.4 0.1 0.7
v 1.7 0.1 0.7
v -1.7 0.1 -0.7
v -1.4 0.1 -0.7
v 1.4 0.1 -0.7
v 1.7 0.1 -0.7
v -1.7 0.1 -1
v -1.4 0.1 -1
v 1.4 0.1 -1
v 1.7 0.1 -1
v -1.7 0.8 1.1
v -1.4 0.8 1.1
v 1.4 0.8 1.1
v 1.7 0.8 1.1
v -1.8 0.8 1
v -1.7 0.8 1
v -1.4 0.8 1
v -1.3 0.8 1
v 1.3 0.8 1
v 1.4 0.8 1
v 1.7 0.8 1
v 1.8 0.8 1
v -1.8 0.8 0.7
v -1.7 0.8 0.7
v -1.4 0.8 0.7
v -1.3 0.8 0.7
v 1.3 0.8 0.7
v 1.4 0.8 0.7
v 1.7 0.8 0.7
v 1.8 0.8 0.7
v -1.7 0.8 0.6
v -1.4 0.8 0.6
v 1.4 0.8 0.6
v 1.7 0.8 0.6
v -1.7 0.8 -0.6
v -1.4 0.8 -0.6
v 1.4 0.8 -0.6
v 1.7 0.8 -0.6
v -1.8 0.8 -0.7
v -1.7 0.8 -0.7
v -1.4 0.8 -0.7
v -1.3 0.8 -0.7
v 1.3 0.8 -0.7
v 1.4 0.8 -0.7
v 1.7 0.8 -0.7
v 1.8 0.8 -0.7
v -1.8 0.8 -1
v -1.7 0.8 -1
v -1.4 0.8 -1
v -1.3 0.8 -1
v 1.3 0.8 -1
v 1.4 0.8 -1
v 1.7 0.8 -1
v 1.8 0.8 -1
v -1.7 0.8 -1.1
v -1.4 0.8 -1.1
v 1.4 0.8 -1.1
v 1.7 0.8 -1.1
v -1.9 0.9 1.3
v 1.9 0.9 1.3
v -1.8 0.9 1.2
v 1.8 0.9 1.2
v -1.7 0.9 1.1
v -1.4 0.9 1.1
v 1.4 0.9 1.1
v 1.7 0.9 1.1
v -1.8 0.9 1
v -1.7 0.9 1
v -1.4 0.9 1
v -1.3 0.9 1
v 1.3 0.9 1
v 1.4 0.9 1
v 1.7 0.9 1
v 1.8 0.9 1
v -1.8 0.9 0.7
v -1.7 0.9 0.7
v -1.4 0.9 0.7
v -1.3 0.9 0.7
v 1.3 0.9 0.7
v 1.4 0.9 0.7
v 1.7 0.9 0.7
v 1.8 0.9 0.7
v -1.7 0.9 0.6
v -1.4 0.9 0.6
v 1.4 0.9 0.6
v 1.7 0.9 0.6
v -1.7 0.9 -0.6
v -1.4 0.9 -0.6
v 1.4 0.9 -0.6
v 1.7 0.9 -0.6
v -1.8 0.9 -0.7
v -1.7 0.9 -0.7
v -1.4 0.9 -0.7
v -1.3 0.9 -0.7
v 1.3 0.9 -0.7
v 1.4 0.9 -0.7
v 1.7 0.9 -0.7
v 1.8 0.9 -0.7
v -1.8 0.9 -1
v -1.7 0.9 -1
v -1.4 0.9 -1
v -1.3 0.9 -1
v 1.3 0.9 -1
v 1.4 0.9 -1
v 1.7 0.9 -1
v 1.8 0.9 -1
v -1.7 0.9 -1.1
v -1.4 0.9 -1.1
v 1.4 0.9 -1.1
v 1.7 0.9 -1.1
v -1.8 0.9 -1.2
v 1.8 0.9 -1.2
v -1.9 0.9 -1.3
v 1.9 0.9 -1.3
v -1.9 1.1 1.3
v 1.9 1.1 1.3
v -1.8 1.1 1.2
v 1.8 1.1 1.2
v -1.7 1.1 1.1
v 1.7 1.1 1.1
v -1.6 1.1 1
v 1.6 1.1 1
v -1.6 1.1 -1
v 1.6 1.1 -1
v -1.7 1.1 -1.1
v 1.7 1.1 -1.1
v -1.8 1.1 -1.2
v 1.8 1.1 -1.2
v -1.9 1.1 -1.3
v 1.9 1.1 -1.3

# faces
f 3/1/1 2/1/1 1/1/1
f 4/1/1 2/1/1 3/1/1
f 9/3/1 6/3/1 5/3/1
f 10/3/1 6/3/1 9/3/1
f 11/3/1 8/3/1 7/3/1
f 12/3/1 8/3/1 11/3/1
f 18/1/1 14/1/1 13/1/1
f 19/1/1 14/1/1 18/1/1
f 22/1/1 16/1/1 15/1/1
f 23/1/1 16/1/1 22/1/1
f 25/3/1 18/3/1 17/3/1
f 26/3/1 18/3/1 25/3/1
f 27/3/1 20/3/1 19/3/1
f 28/3/1 20/3/1 27/3/1
f 29/3/1 22/3/1 21/3/1
f 30/3/1 22/3/1 29/3/1
f 31/3/1 24/3/1 23/3/1
f 32/3/1 24/3/1 31/3/1
f 37/3/1 34/3/1 33/3/1
f 38/3/1 34/3/1 37/3/1
f 39/3/1 36/3/1 35/3/1
f 40/3/1 36/3/1 39/3/1
f 46/1/1 42/1/1 41/1/1
f 47/1/1 42/1/1 46/1/1
f 50/1/1 44/1/1 43/1/1
f 51/1/1 44/1/1 50/1/1
f 53/3/1 46/3/1 45/3/1
f 54/3/1 46/3/1 53/3/1
f 55/3/1 48/3/1 47/3/1
f 56/3/1 48/3/1 55/3/1
f 57/3/1 50/3/1 49/3/1
f 58/3/1 50/3/1 57/3/1
f 59/3/1 52/3/1 51/3/1
f 60/3/1 52/3/1 59/3/1
f 61/1/2 62/1/2 66/1/2
f 66/1/2 62/1/2 67/1/2
f 63/1/2 64/1/2 70/1/2
f 70/1/2 64/1/2 71/1/2
f 65/3/2 66/3/2 73/3/2
f 73/3/2 66/3/2 74/3/2
f 67/3/2 68/3/2 75/3/2
f 75/3/2 68/3/2 76/3/2
f 69/3/2 70/3/2 77/3/2
f 77/3/2 70/3/2 78/3/2
f 71/3/2 72/3/2 79/3/2
f 79/3/2 72/3/2 80/3/2
f 81/3/2 82/3/2 85/3/2
f 85/3/2 82/3/2 86/3/2
f 83/3/2 84/3/2 87/3/2
f 87/3/2 84/3/2 88/3/2
f 89/1/2 90/1/2 94/1/2
f 94/1/2 90/1/2 95/1/2
f 91/1/2 92/1/2 98/1/2
f 98/1/2 92/1/2 99/1/2
f 93/3/2 94/3/2 101/3/2
f 101/3/2 94/3/2 102/3/2
f 95/3/2 96/3/2 103/3/2
f 103/3/2 96/3/2 104/3/2
f 97/3/2 98/3/2 105/3/2
f 105/3/2 98/3/2 106/3/2
f 99/3/2 100/3/2 107/3/2
f 107/3/2 100/3/2 108/3/2
f 109/3/2 110/3/2 113/3/2
f 113/3/2 110/3/2 114/3/2
f 111/3/2 112/3/2 115/3/2
f 115/3/2 112/3/2 116/3/2
f 117/1/2 118/1/2 119/1/2
f 119/1/2 118/1/2 120/1/2
f 123/1/3 122/1/3 121/1/3
f 124/1/3 122/1/3 123/1/3
f 127/3/3 126/3/3 125/3/3
f 128/3/3 126/3/3 127/3/3
f 131/3/3 130/3/3 129/3/3
f 132/3/3 130/3/3 131/3/3
f 136/3/3 134/3/3 133/3/3
f 137/3/3 134/3/3 136/3/3
f 138/1/3 136/1/3 135/1/3
f 139/1/3 136/1/3 138/1/3
f 141/3/3 140/3/3 139/3/3
f 142/3/3 140/3/3 141/3/3
f 146/3/3 144/3/3 143/3/3
f 147/3/3 144/3/3 146/3/3
f 148/1/3 146/1/3 145/1/3
f 149/1/3 146/1/3 148/1/3
f 151/3/3 150/3/3 149/3/3
f 152/3/3 150/3/3 151/3/3
f 155/3/3 154/3/3 153/3/3
f 156/3/3 154/3/3 155/3/3
f 159/3/3 158/3/3 157/3/3
f 160/3/3 158/3/3 159/3/3
f 164/3/3 162/3/3 161/3/3
f 165/3/3 162/3/3 164/3/3
f 166/1/3 164/1/3 163/1/3
f 167/1/3 164/1/3 166/1/3
f 169/3/3 168/3/3 167/3/3
f 170/3/3 168/3/3 169/3/3
f 174/3/3 172/3/3 171/3/3
f 175/3/3 172/3/3 174/3/3
f 176/1/3 174/1/3 173/1/3
f 177/1/3 174/1/3 176/1/3
f 179/3/3 178/3/3 177/3/3
f 180/3/3 178/3/3 179/3/3
f 181/3/4 182/3/4 184/3/4
f 184/3/4 182/3/4 185/3/4
f 183/1/4 184/1/4 186/1/4
f 186/1/4 184/1/4 187/1/4
f 187/3/4 188/3/4 189/3/4
f 189/3/4 188/3/4 190/3/4
f 191/3/4 192/3/4 194/3/4
f 194/3/4 192/3/4 195/3/4
f 193/1/4 194/1/4 196/1/4
f 196/1/4 194/1/4 197/1/4
f 197/3/4 198/3/4 199/3/4
f 199/3/4 198/3/4 200/3/4
f 201/3/4 202/3/4 203/3/4
f 203/3/4 202/3/4 204/3/4
f 205/3/4 206/3/4 207/3/4
f 207/3/4 206/3/4 208/3/4
f 209/3/4 210/3/4 212/3/4
f 212/3/4 210/3/4 213/3/4
f 211/1/4 212/1/4 214/1/4
f 214/1/4 212/1/4 215/1/4
f 215/3/4 216/3/4 217/3/4
f 217/3/4 216/3/4 218/3/4
f 219/3/4 220/3/4 222/3/4
f 222/3/4 220/3/4 223/3/4
f 221/1/4 222/1/4 224/1/4
f 224/1/4 222/1/4 225/1/4
f 225/3/4 226/3/4 227/3/4
f 227/3/4 226/3/4 228/3/4
f 229/3/4 230/3/4 231/3/4
f 231/3/4 230/3/4 232/3/4
f 233/3/4 234/3/4 235/3/4
f 235/3/4 234/3/4 236/3/4
f 237/1/4 238/1/4 239/1/4
f 239/1/4 238/1/4 240/1/4
f 245/1/5 242/1/5 241/1/5
f 246/1/5 242/1/5 245/1/5
f 247/1/5 244/1/5 243/1/5
f 248/1/5 244/1/5 247/1/5
f 253/1/5 250/1/5 249/1/5
f 254/1/5 250/1/5 253/1/5
f 255/1/5 252/1/5 251/1/5
f 256/1/5 252/1/5 255/1/5
f 262/3/5 258/3/5 257/3/5
f 263/3/5 258/3/5 262/3/5
f 266/3/5 260/3/5 259/3/5
f 267/3/5 260/3/5 266/3/5
f 269/3/5 262/3/5 261/3/5
f 270/3/5 262/3/5 269/3/5
f 271/3/5 264/3/5 263/3/5
f 272/3/5 264/3/5 271/3/5
f 273/3/5 266/3/5 265/3/5
f 274/3/5 266/3/5 273/3/5
f 275/3/5 268/3/5 267/3/5
f 276/3/5 268/3/5 275/3/5
f 277/3/5 271/3/5 270/3/5
f 278/3/5 271/3/5 277/3/5
f 279/3/5 275/3/5 274/3/5
f 280/3/5 275/3/5 279/3/5
f 286/3/5 282/3/5 281/3/5
f 287/3/5 282/3/5 286/3/5
f 290/3/5 284/3/5 283/3/5
f 291/3/5 284/3/5 290/3/5
f 293/3/5 286/3/5 285/3/5
f 294/3/5 286/3/5 293/3/5
f 295/3/5 288/3/5 287/3/5
f 296/3/5 288/3/5 295/3/5
f 297/3/5 290/3/5 289/3/5
f 298/3/5 290/3/5 297/3/5
f 299/3/5 292/3/5 291/3/5
f 300/3/5 292/3/5 299/3/5
f 301/3/5 295/3/5 294/3/5
f 302/3/5 295/3/5 301/3/5
f 303/3/5 299/3/5 298/3/5
f 304/3/5 299/3/5 303/3/5
f 307/1/5 306/1/5 305/1/5
f 308/1/5 306/1/5 307/1/5
f 309/3/5 308/3/5 307/3/5
f 310/3/5 308/3/5 309/3/5
f 311/3/5 308/3/5 310/3/5
f 312/3/5 308/3/5 311/3/5
f 313/1/5 307/1/5 305/1/5
f 313/3/5 309/3/5 307/3/5
f 314/3/5 309/3/5 313/3/5
f 315/3/5 311/3/5 310/3/5
f 316/3/5 311/3/5 315/3/5
f 317/3/5 311/3/5 316/3/5
f 318/3/5 311/3/5 317/3/5
f 319/3/5 308/3/5 312/3/5
f 320/1/5 306/1/5 308/1/5
f 320/3/5 308/3/5 319/3/5
f 321/1/5 313/1/5 305/1/5
f 324/3/5 317/3/5 316/3/5
f 325/3/5 317/3/5 324/3/5
f 328/1/5 306/1/5 320/1/5
f 329/3/5 322/3/5 321/3/5
f 330/3/5 326/3/5 325/3/5
f 330/3/5 324/3/5 323/3/5
f 330/3/5 325/3/5 324/3/5
f 331/3/5 326/3/5 330/3/5
f 332/3/5 328/3/5 327/3/5
f 333/3/5 329/3/5 321/3/5
f 333/3/5 332/3/5 331/3/5
f 333/3/5 331/3/5 330/3/5
f 333/3/5 330/3/5 329/3/5
f 334/3/5 332/3/5 333/3/5
f 335/3/5 332/3/5 334/3/5
f 336/3/5 328/3/5 332/3/5
f 336/3/5 332/3/5 335/3/5
f 337/1/5 321/1/5 305/1/5
f 337/3/5 333/3/5 321/3/5
f 338/3/5 333/3/5 337/3/5
f 339/3/5 335/3/5 334/3/5
f 340/3/5 335/3/5 339/3/5
f 341/3/5 335/3/5 340/3/5
f 342/3/5 335/3/5 341/3/5
f 343/3/5 328/3/5 336/3/5
f 344/1/5 306/1/5 328/1/5
f 344/3/5 328/3/5 343/3/5
f 345/1/5 337/1/5 305/1/5
f 348/3/5 341/3/5 340/3/5
f 349/3/5 341/3/5 348/3/5
f 352/1/5 306/1/5 344/1/5
f 353/3/5 346/3/5 345/3/5
f 354/3/5 350/3/5 349/3/5
f 354/3/5 348/3/5 347/3/5
f 354/3/5 349/3/5 348/3/5
f 355/3/5 350/3/5 354/3/5
f 356/3/5 352/3/5 351/3/5
f 357/3/5 353/3/5 345/3/5
f 357/3/5 356/3/5 355/3/5
f 357/3/5 355/3/5 354/3/5
f 357/1/5 345/1/5 305/1/5
f 357/3/5 354/3/5 353/3/5
f 358/3/5 352/3/5 356/3/5
f 358/3/5 356/3/5 357/3/5
f 358/1/5 306/1/5 352/1/5
f 359/1/5 357/1/5 305/1/5
f 359/1/5 358/1/5 357/1/5
f 360/1/5 306/1/5 358/1/5
f 360/1/5 358/1/5 359/1/5
f 361/1/6 362/1/6 363/1/6
f 363/1/6 362/1/6 364/1/6
f 363/3/6 364/3/6 365/3/6
f 365/3/6 364/3/6 366/3/6
f 365/1/6 366/1/6 367/1/6
f 367/1/6 366/1/6 368/1/6
f 365/1/6 367/1/6 369/1/6
f 367/3/6 368/3/6 369/3/6
f 368/1/6 366/1/6 370/1/6
f 369/3/6 368/3/6 370/3/6
f 363/3/6 365/3/6 371/3/6
f 365/1/6 369/1/6 371/1/6
f 369/1/6 370/1/6 371/1/6
f 370/1/6 366/1/6 372/1/6
f 371/1/6 370/1/6 372/1/6
f 366/3/6 364/3/6 372/3/6
f 361/1/6 363/1/6 373/1/6
f 363/3/6 371/3/6 373/3/6
f 371/3/6 372/3/6 373/3/6
f 372/3/6 364/3/6 374/3/6
f 373/3/6 372/3/6 374/3/6
f 364/1/6 362/1/6 374/1/6
f 361/1/6 373/1/6 375/1/6
f 373/1/6 374/1/6 375/1/6
f 374/1/6 362/1/6 376/1/6
f 375/1/6 374/1/6 376/1/6
