# MagicaVoxel @ Ephtracy

# group
o 

# material
mtllib VR Токарев зелье желтое.mtl
usemtl palette

# normals
vn -1 0 0
vn 1 0 0
vn 0 0 1
vn 0 0 -1
vn 0 -1 0
vn 0 1 0

# texcoords
vt 0.0136719 0.5
vt 0.0410156 0.5
vt 0.158203 0.5
vt 0.208984 0.5
vt 0.310547 0.5

# verts
v -0.5 0.2 0.2
v -0.5 0.2 0.1
v -0.5 0.2 -0.1
v -0.5 0.2 -0.2
v -0.5 0.3 0.1
v -0.5 0.3 0
v -0.5 0.4 0.2
v -0.5 0.4 0.1
v -0.5 0.4 0
v -0.5 0.4 -0.1
v -0.5 0.5 0.1
v -0.5 0.5 0
v -0.5 0.5 -0.1
v -0.5 0.5 -0.2
v -0.5 0.6 0.2
v -0.5 0.6 0
v -0.5 0.6 -0.2
v -0.4 0.1 0.3
v -0.4 0.1 -0.3
v -0.4 0.2 0.2
v -0.4 0.2 0.1
v -0.4 0.2 -0.1
v -0.4 0.2 -0.2
v -0.4 0.2 -0.3
v -0.4 0.4 0.2
v -0.4 0.4 -0.2
v -0.4 0.4 -0.3
v -0.4 0.5 -0.2
v -0.4 0.6 0.2
v -0.4 0.6 0
v -0.4 0.6 -0.1
v -0.4 0.6 -0.2
v -0.4 0.6 -0.3
v -0.4 0.7 0.3
v -0.4 0.7 -0.1
v -0.4 0.7 -0.3
v -0.3 0 0.3
v -0.3 0 0.1
v -0.3 0 -0.1
v -0.3 0 -0.3
v -0.3 0.1 0.4
v -0.3 0.1 0.3
v -0.3 0.1 0.1
v -0.3 0.1 -0.1
v -0.3 0.1 -0.3
v -0.3 0.1 -0.4
v -0.3 0.2 0.4
v -0.3 0.2 0.3
v -0.3 0.2 -0.3
v -0.3 0.2 -0.4
v -0.3 0.3 0.4
v -0.3 0.3 0.3
v -0.3 0.4 0.4
v -0.3 0.4 0.3
v -0.3 0.4 -0.3
v -0.3 0.6 -0.3
v -0.3 0.7 0.4
v -0.3 0.7 0.3
v -0.3 0.7 0.2
v -0.3 0.7 0.1
v -0.3 0.7 -0.1
v -0.3 0.7 -0.2
v -0.3 0.7 -0.3
v -0.3 0.7 -0.4
v -0.3 0.8 0.3
v -0.3 0.8 0.2
v -0.3 0.8 0.1
v -0.3 0.8 -0.1
v -0.3 0.8 -0.2
v -0.3 0.8 -0.3
v -0.3 1.1 0.1
v -0.3 1.1 -0.1
v -0.3 1.2 0.1
v -0.3 1.2 -0.1
v -0.2 0.2 0.5
v -0.2 0.2 0.4
v -0.2 0.2 -0.4
v -0.2 0.2 -0.5
v -0.2 0.3 0.4
v -0.2 0.4 0.5
v -0.2 0.4 0.4
v -0.2 0.6 0.5
v -0.2 0.6 0.4
v -0.2 0.6 -0.4
v -0.2 0.6 -0.5
v -0.2 0.8 0.2
v -0.2 0.8 0.1
v -0.2 0.8 0
v -0.2 0.8 -0.1
v -0.2 0.8 -0.2
v -0.2 0.9 0.2
v -0.2 0.9 0.1
v -0.2 0.9 -0.1
v -0.2 0.9 -0.2
v -0.2 1.1 0.2
v -0.2 1.1 0.1
v -0.2 1.1 0
v -0.2 1.1 -0.1
v -0.2 1.1 -0.2
v -0.2 1.2 0.2
v -0.2 1.2 0.1
v -0.2 1.2 -0.1
v -0.2 1.2 -0.2
v -0.1 0.9 0.2
v -0.1 0.9 0.1
v -0.1 0.9 -0.1
v -0.1 0.9 -0.2
v -0.1 1 0.2
v -0.1 1 0.1
v -0.1 1 -0.1
v -0.1 1 -0.2
v -0.1 1.1 0.3
v -0.1 1.1 0.2
v -0.1 1.1 0.1
v -0.1 1.1 -0.1
v -0.1 1.1 -0.2
v -0.1 1.1 -0.3
v -0.1 1.2 0.3
v -0.1 1.2 0.2
v -0.1 1.2 -0.2
v -0.1 1.2 -0.3
v 0.1 0.9 0.2
v 0.1 0.9 0.1
v 0.1 0.9 -0.1
v 0.1 0.9 -0.2
v 0.1 1 0.2
v 0.1 1 0.1
v 0.1 1 -0.1
v 0.1 1 -0.2
v 0.1 1.1 0.3
v 0.1 1.1 0.2
v 0.1 1.1 0.1
v 0.1 1.1 -0.1
v 0.1 1.1 -0.2
v 0.1 1.1 -0.3
v 0.1 1.2 0.3
v 0.1 1.2 0.2
v 0.1 1.2 -0.2
v 0.1 1.2 -0.3
v 0.2 0.2 0.5
v 0.2 0.2 0.4
v 0.2 0.2 -0.4
v 0.2 0.2 -0.5
v 0.2 0.4 0.5
v 0.2 0.4 0.4
v 0.2 0.5 0.4
v 0.2 0.6 0.5
v 0.2 0.6 0.4
v 0.2 0.6 -0.4
v 0.2 0.6 -0.5
v 0.2 0.8 0.2
v 0.2 0.8 0
v 0.2 0.8 -0.1
v 0.2 0.8 -0.2
v 0.2 0.9 0.2
v 0.2 0.9 0.1
v 0.2 0.9 -0.1
v 0.2 0.9 -0.2
v 0.2 1 0.1
v 0.2 1 0
v 0.2 1.1 0.2
v 0.2 1.1 0.1
v 0.2 1.1 0
v 0.2 1.1 -0.1
v 0.2 1.1 -0.2
v 0.2 1.2 0.2
v 0.2 1.2 0.1
v 0.2 1.2 -0.1
v 0.2 1.2 -0.2
v 0.3 0 0.3
v 0.3 0 0.1
v 0.3 0 -0.1
v 0.3 0 -0.3
v 0.3 0.1 0.4
v 0.3 0.1 0.3
v 0.3 0.1 0.1
v 0.3 0.1 0
v 0.3 0.1 -0.1
v 0.3 0.1 -0.3
v 0.3 0.1 -0.4
v 0.3 0.2 0.3
v 0.3 0.2 -0.3
v 0.3 0.2 -0.4
v 0.3 0.3 -0.3
v 0.3 0.4 0.4
v 0.3 0.4 0.3
v 0.3 0.5 0.4
v 0.3 0.5 0.3
v 0.3 0.6 0.4
v 0.3 0.6 0.3
v 0.3 0.7 0.4
v 0.3 0.7 0.3
v 0.3 0.7 0.2
v 0.3 0.7 0
v 0.3 0.7 -0.1
v 0.3 0.7 -0.2
v 0.3 0.7 -0.3
v 0.3 0.7 -0.4
v 0.3 0.8 0.3
v 0.3 0.8 0.2
v 0.3 0.8 0
v 0.3 0.8 -0.1
v 0.3 0.8 -0.2
v 0.3 0.8 -0.3
v 0.3 1.1 0.1
v 0.3 1.1 -0.1
v 0.3 1.2 0.1
v 0.3 1.2 -0.1
v 0.4 0.1 0.3
v 0.4 0.1 0
v 0.4 0.1 -0.3
v 0.4 0.2 0.3
v 0.4 0.2 0.2
v 0.4 0.2 0
v 0.4 0.2 -0.2
v 0.4 0.3 -0.2
v 0.4 0.3 -0.3
v 0.4 0.4 -0.2
v 0.4 0.6 0.2
v 0.4 0.6 0
v 0.4 0.6 -0.1
v 0.4 0.6 -0.2
v 0.4 0.7 0.3
v 0.4 0.7 0.2
v 0.4 0.7 0
v 0.4 0.7 -0.1
v 0.4 0.7 -0.2
v 0.4 0.7 -0.3
v 0.5 0.2 0.2
v 0.5 0.2 -0.2
v 0.5 0.3 0.1
v 0.5 0.3 0
v 0.5 0.4 -0.1
v 0.5 0.4 -0.2
v 0.5 0.5 0.1
v 0.5 0.5 0
v 0.5 0.5 -0.1
v 0.5 0.6 0.2
v 0.5 0.6 0
v 0.5 0.6 -0.1
v 0.5 0.6 -0.2
v -0.2 0.2 0.5
v -0.2 0.4 0.5
v -0.2 0.6 0.5
v -0.1 0.2 0.5
v -0.1 0.3 0.5
v 0 0.2 0.5
v 0 0.3 0.5
v 0 0.4 0.5
v 0 0.5 0.5
v 0.1 0.2 0.5
v 0.1 0.4 0.5
v 0.1 0.5 0.5
v 0.1 0.6 0.5
v 0.2 0.2 0.5
v 0.2 0.4 0.5
v 0.2 0.6 0.5
v -0.3 0.1 0.4
v -0.3 0.2 0.4
v -0.3 0.3 0.4
v -0.3 0.4 0.4
v -0.3 0.7 0.4
v -0.2 0.2 0.4
v -0.2 0.3 0.4
v -0.2 0.4 0.4
v -0.2 0.6 0.4
v -0.2 0.7 0.4
v -0.1 0.1 0.4
v -0.1 0.2 0.4
v 0 0.1 0.4
v 0 0.2 0.4
v 0.1 0.2 0.4
v 0.1 0.6 0.4
v 0.2 0.2 0.4
v 0.2 0.4 0.4
v 0.2 0.5 0.4
v 0.2 0.6 0.4
v 0.2 0.7 0.4
v 0.3 0.1 0.4
v 0.3 0.4 0.4
v 0.3 0.5 0.4
v 0.3 0.6 0.4
v 0.3 0.7 0.4
v -0.4 0.1 0.3
v -0.4 0.7 0.3
v -0.3 0 0.3
v -0.3 0.1 0.3
v -0.3 0.2 0.3
v -0.3 0.3 0.3
v -0.3 0.4 0.3
v -0.3 0.7 0.3
v -0.3 0.8 0.3
v -0.2 0.7 0.3
v -0.1 0.1 0.3
v -0.1 0.7 0.3
v -0.1 0.8 0.3
v -0.1 1.1 0.3
v -0.1 1.2 0.3
v 0 0.1 0.3
v 0.1 0.7 0.3
v 0.1 0.8 0.3
v 0.1 1.1 0.3
v 0.1 1.2 0.3
v 0.2 0.7 0.3
v 0.3 0 0.3
v 0.3 0.1 0.3
v 0.3 0.2 0.3
v 0.3 0.4 0.3
v 0.3 0.5 0.3
v 0.3 0.6 0.3
v 0.3 0.7 0.3
v 0.3 0.8 0.3
v 0.4 0.1 0.3
v 0.4 0.2 0.3
v 0.4 0.7 0.3
v -0.5 0.2 0.2
v -0.5 0.4 0.2
v -0.5 0.6 0.2
v -0.4 0.2 0.2
v -0.4 0.4 0.2
v -0.4 0.6 0.2
v -0.2 0.8 0.2
v -0.2 0.9 0.2
v -0.2 1.1 0.2
v -0.2 1.2 0.2
v -0.1 0.8 0.2
v -0.1 0.9 0.2
v -0.1 1 0.2
v -0.1 1.1 0.2
v -0.1 1.2 0.2
v 0 1 0.2
v 0 1.1 0.2
v 0.1 0.8 0.2
v 0.1 0.9 0.2
v 0.1 1 0.2
v 0.1 1.1 0.2
v 0.1 1.2 0.2
v 0.2 0.8 0.2
v 0.2 0.9 0.2
v 0.2 1.1 0.2
v 0.2 1.2 0.2
v 0.4 0.2 0.2
v 0.4 0.6 0.2
v 0.5 0.2 0.2
v 0.5 0.6 0.2
v -0.3 1.1 0.1
v -0.3 1.2 0.1
v -0.2 0.9 0.1
v -0.2 1.1 0.1
v -0.2 1.2 0.1
v -0.1 0.9 0.1
v -0.1 1 0.1
v -0.1 1.1 0.1
v 0.1 0.9 0.1
v 0.1 1 0.1
v 0.1 1.1 0.1
v 0.2 0.9 0.1
v 0.2 1 0.1
v 0.2 1.1 0.1
v 0.2 1.2 0.1
v 0.3 1.1 0.1
v 0.3 1.2 0.1
v -0.3 1.1 -0.1
v -0.3 1.2 -0.1
v -0.2 0.9 -0.1
v -0.2 1.1 -0.1
v -0.2 1.2 -0.1
v -0.1 0.9 -0.1
v -0.1 1 -0.1
v -0.1 1.1 -0.1
v 0.1 0.9 -0.1
v 0.1 1 -0.1
v 0.1 1.1 -0.1
v 0.2 0.9 -0.1
v 0.2 1.1 -0.1
v 0.2 1.2 -0.1
v 0.3 1.1 -0.1
v 0.3 1.2 -0.1
v -0.5 0.2 -0.2
v -0.5 0.5 -0.2
v -0.5 0.6 -0.2
v -0.4 0.2 -0.2
v -0.4 0.4 -0.2
v -0.4 0.5 -0.2
v -0.4 0.6 -0.2
v -0.2 0.8 -0.2
v -0.2 0.9 -0.2
v -0.2 1.1 -0.2
v -0.2 1.2 -0.2
v -0.1 0.8 -0.2
v -0.1 0.9 -0.2
v -0.1 1 -0.2
v -0.1 1.1 -0.2
v -0.1 1.2 -0.2
v 0 0.8 -0.2
v 0 0.9 -0.2
v 0 1 -0.2
v 0 1.1 -0.2
v 0.1 0.9 -0.2
v 0.1 1 -0.2
v 0.1 1.1 -0.2
v 0.1 1.2 -0.2
v 0.2 0.8 -0.2
v 0.2 0.9 -0.2
v 0.2 1.1 -0.2
v 0.2 1.2 -0.2
v 0.4 0.2 -0.2
v 0.4 0.3 -0.2
v 0.4 0.4 -0.2
v 0.4 0.6 -0.2
v 0.5 0.2 -0.2
v 0.5 0.4 -0.2
v 0.5 0.6 -0.2
v -0.4 0.1 -0.3
v -0.4 0.2 -0.3
v -0.4 0.4 -0.3
v -0.4 0.6 -0.3
v -0.4 0.7 -0.3
v -0.3 0 -0.3
v -0.3 0.1 -0.3
v -0.3 0.2 -0.3
v -0.3 0.4 -0.3
v -0.3 0.6 -0.3
v -0.3 0.7 -0.3
v -0.3 0.8 -0.3
v -0.1 0.7 -0.3
v -0.1 0.8 -0.3
v -0.1 1.1 -0.3
v -0.1 1.2 -0.3
v 0 0.1 -0.3
v 0 0.7 -0.3
v 0 0.8 -0.3
v 0 1.1 -0.3
v 0 1.2 -0.3
v 0.1 1.1 -0.3
v 0.1 1.2 -0.3
v 0.2 0.7 -0.3
v 0.2 0.8 -0.3
v 0.3 0 -0.3
v 0.3 0.1 -0.3
v 0.3 0.2 -0.3
v 0.3 0.3 -0.3
v 0.3 0.7 -0.3
v 0.3 0.8 -0.3
v 0.4 0.1 -0.3
v 0.4 0.3 -0.3
v 0.4 0.7 -0.3
v -0.3 0.1 -0.4
v -0.3 0.2 -0.4
v -0.3 0.7 -0.4
v -0.2 0.2 -0.4
v -0.2 0.6 -0.4
v -0.1 0.2 -0.4
v 0 0.1 -0.4
v 0 0.2 -0.4
v 0 0.6 -0.4
v 0.1 0.2 -0.4
v 0.1 0.6 -0.4
v 0.2 0.2 -0.4
v 0.2 0.6 -0.4
v 0.2 0.7 -0.4
v 0.3 0.1 -0.4
v 0.3 0.2 -0.4
v 0.3 0.7 -0.4
v -0.2 0.2 -0.5
v -0.2 0.6 -0.5
v -0.1 0.2 -0.5
v -0.1 0.3 -0.5
v 0 0.3 -0.5
v 0 0.6 -0.5
v 0.1 0.2 -0.5
v 0.1 0.6 -0.5
v 0.2 0.2 -0.5
v 0.2 0.6 -0.5
v -0.3 0 0.3
v 0.3 0 0.3
v -0.2 0 0.2
v 0 0 0.2
v -0.3 0 0.1
v -0.2 0 0.1
v 0 0 0.1
v 0.3 0 0.1
v -0.2 0 0
v -0.1 0 0
v 0 0 0
v 0.1 0 0
v -0.3 0 -0.1
v -0.1 0 -0.1
v 0 0 -0.1
v 0.2 0 -0.1
v 0.3 0 -0.1
v -0.1 0 -0.2
v 0 0 -0.2
v 0.1 0 -0.2
v 0.2 0 -0.2
v -0.3 0 -0.3
v 0.3 0 -0.3
v -0.3 0.1 0.4
v -0.1 0.1 0.4
v 0 0.1 0.4
v 0.3 0.1 0.4
v -0.4 0.1 0.3
v -0.3 0.1 0.3
v -0.1 0.1 0.3
v 0 0.1 0.3
v 0.3 0.1 0.3
v 0.4 0.1 0.3
v -0.3 0.1 0.1
v 0.3 0.1 0.1
v 0.3 0.1 0
v 0.4 0.1 0
v -0.3 0.1 -0.1
v 0.3 0.1 -0.1
v -0.4 0.1 -0.3
v -0.3 0.1 -0.3
v 0 0.1 -0.3
v 0.3 0.1 -0.3
v 0.4 0.1 -0.3
v -0.3 0.1 -0.4
v 0 0.1 -0.4
v 0.3 0.1 -0.4
v -0.2 0.2 0.5
v -0.1 0.2 0.5
v 0 0.2 0.5
v 0.1 0.2 0.5
v 0.2 0.2 0.5
v -0.2 0.2 0.4
v -0.1 0.2 0.4
v 0 0.2 0.4
v 0.1 0.2 0.4
v 0.2 0.2 0.4
v -0.5 0.2 0.2
v -0.4 0.2 0.2
v 0.4 0.2 0.2
v 0.5 0.2 0.2
v -0.5 0.2 0.1
v -0.4 0.2 0.1
v 0.4 0.2 0
v -0.5 0.2 -0.1
v -0.4 0.2 -0.1
v -0.5 0.2 -0.2
v -0.4 0.2 -0.2
v 0.4 0.2 -0.2
v 0.5 0.2 -0.2
v -0.2 0.2 -0.4
v -0.1 0.2 -0.4
v 0 0.2 -0.4
v 0.1 0.2 -0.4
v 0.2 0.2 -0.4
v -0.2 0.2 -0.5
v -0.1 0.2 -0.5
v 0.1 0.2 -0.5
v 0.2 0.2 -0.5
v -0.1 1.1 0.3
v 0.1 1.1 0.3
v -0.2 1.1 0.2
v -0.1 1.1 0.2
v 0 1.1 0.2
v 0.1 1.1 0.2
v 0.2 1.1 0.2
v -0.3 1.1 0.1
v -0.2 1.1 0.1
v -0.1 1.1 0.1
v 0.1 1.1 0.1
v 0.2 1.1 0.1
v 0.3 1.1 0.1
v -0.2 1.1 0
v 0.2 1.1 0
v -0.3 1.1 -0.1
v -0.2 1.1 -0.1
v -0.1 1.1 -0.1
v 0.1 1.1 -0.1
v 0.2 1.1 -0.1
v 0.3 1.1 -0.1
v -0.2 1.1 -0.2
v -0.1 1.1 -0.2
v 0 1.1 -0.2
v 0.1 1.1 -0.2
v 0.2 1.1 -0.2
v -0.1 1.1 -0.3
v 0 1.1 -0.3
v 0.1 1.1 -0.3
v -0.2 0.6 0.5
v 0.1 0.6 0.5
v 0.2 0.6 0.5
v -0.2 0.6 0.4
v 0.1 0.6 0.4
v 0.2 0.6 0.4
v -0.5 0.6 0.2
v -0.4 0.6 0.2
v 0.4 0.6 0.2
v 0.5 0.6 0.2
v -0.5 0.6 0
v -0.4 0.6 0
v 0.4 0.6 0
v 0.5 0.6 0
v -0.4 0.6 -0.1
v 0.4 0.6 -0.1
v 0.5 0.6 -0.1
v -0.5 0.6 -0.2
v -0.4 0.6 -0.2
v 0.4 0.6 -0.2
v 0.5 0.6 -0.2
v -0.2 0.6 -0.4
v 0 0.6 -0.4
v 0.1 0.6 -0.4
v 0.2 0.6 -0.4
v -0.2 0.6 -0.5
v 0 0.6 -0.5
v 0.1 0.6 -0.5
v 0.2 0.6 -0.5
v -0.3 0.7 0.4
v -0.2 0.7 0.4
v 0.2 0.7 0.4
v 0.3 0.7 0.4
v -0.4 0.7 0.3
v -0.3 0.7 0.3
v -0.2 0.7 0.3
v -0.1 0.7 0.3
v 0.1 0.7 0.3
v 0.2 0.7 0.3
v 0.3 0.7 0.3
v 0.4 0.7 0.3
v -0.3 0.7 0.2
v 0.3 0.7 0.2
v 0.4 0.7 0.2
v -0.3 0.7 0.1
v 0.3 0.7 0
v 0.4 0.7 0
v -0.4 0.7 -0.1
v -0.3 0.7 -0.1
v 0.3 0.7 -0.1
v 0.4 0.7 -0.1
v -0.3 0.7 -0.2
v 0.3 0.7 -0.2
v 0.4 0.7 -0.2
v -0.4 0.7 -0.3
v -0.3 0.7 -0.3
v -0.1 0.7 -0.3
v 0 0.7 -0.3
v 0.2 0.7 -0.3
v 0.3 0.7 -0.3
v 0.4 0.7 -0.3
v -0.3 0.7 -0.4
v 0.2 0.7 -0.4
v 0.3 0.7 -0.4
v -0.3 0.8 0.3
v -0.1 0.8 0.3
v 0.1 0.8 0.3
v 0.3 0.8 0.3
v -0.3 0.8 0.2
v -0.2 0.8 0.2
v -0.1 0.8 0.2
v 0.1 0.8 0.2
v 0.2 0.8 0.2
v 0.3 0.8 0.2
v -0.3 0.8 0.1
v -0.2 0.8 0.1
v -0.2 0.8 0
v 0.2 0.8 0
v 0.3 0.8 0
v -0.3 0.8 -0.1
v -0.2 0.8 -0.1
v 0.2 0.8 -0.1
v 0.3 0.8 -0.1
v -0.3 0.8 -0.2
v -0.2 0.8 -0.2
v -0.1 0.8 -0.2
v 0 0.8 -0.2
v 0.2 0.8 -0.2
v 0.3 0.8 -0.2
v -0.3 0.8 -0.3
v -0.1 0.8 -0.3
v 0 0.8 -0.3
v 0.2 0.8 -0.3
v 0.3 0.8 -0.3
v -0.2 0.9 0.2
v -0.1 0.9 0.2
v 0.1 0.9 0.2
v 0.2 0.9 0.2
v -0.2 0.9 0.1
v -0.1 0.9 0.1
v 0.1 0.9 0.1
v 0.2 0.9 0.1
v -0.2 0.9 -0.1
v -0.1 0.9 -0.1
v 0.1 0.9 -0.1
v 0.2 0.9 -0.1
v -0.2 0.9 -0.2
v -0.1 0.9 -0.2
v 0.1 0.9 -0.2
v 0.2 0.9 -0.2
v -0.1 1.2 0.3
v 0.1 1.2 0.3
v -0.2 1.2 0.2
v -0.1 1.2 0.2
v 0 1.2 0.2
v 0.1 1.2 0.2
v 0.2 1.2 0.2
v -0.3 1.2 0.1
v -0.2 1.2 0.1
v -0.1 1.2 0.1
v 0.1 1.2 0.1
v 0.2 1.2 0.1
v 0.3 1.2 0.1
v 0 1.2 0
v 0.1 1.2 0
v -0.3 1.2 -0.1
v -0.2 1.2 -0.1
v -0.1 1.2 -0.1
v 0.1 1.2 -0.1
v 0.2 1.2 -0.1
v 0.3 1.2 -0.1
v -0.2 1.2 -0.2
v -0.1 1.2 -0.2
v 0 1.2 -0.2
v 0.1 1.2 -0.2
v 0.2 1.2 -0.2
v -0.1 1.2 -0.3
v 0 1.2 -0.3
v 0.1 1.2 -0.3

# faces
f 5/3/1 2/3/1 1/3/1
f 5/1/1 3/1/1 2/1/1
f 6/1/1 3/1/1 5/1/1
f 7/3/1 5/3/1 1/3/1
f 7/3/1 6/3/1 5/3/1
f 8/3/1 6/3/1 7/3/1
f 9/1/1 3/1/1 6/1/1
f 9/3/1 6/3/1 8/3/1
f 10/5/1 4/5/1 3/5/1
f 10/1/1 3/1/1 9/1/1
f 11/3/1 9/3/1 8/3/1
f 11/5/1 8/5/1 7/5/1
f 11/3/1 10/3/1 9/3/1
f 12/3/1 10/3/1 11/3/1
f 13/5/1 4/5/1 10/5/1
f 13/3/1 10/3/1 12/3/1
f 14/5/1 4/5/1 13/5/1
f 15/5/1 12/5/1 11/5/1
f 15/5/1 11/5/1 7/5/1
f 16/3/1 14/3/1 13/3/1
f 16/5/1 12/5/1 15/5/1
f 16/3/1 13/3/1 12/3/1
f 17/3/1 14/3/1 16/3/1
f 20/5/1 19/5/1 18/5/1
f 21/5/1 19/5/1 20/5/1
f 22/5/1 19/5/1 21/5/1
f 23/5/1 19/5/1 22/5/1
f 24/5/1 19/5/1 23/5/1
f 25/5/1 20/5/1 18/5/1
f 26/3/1 24/3/1 23/3/1
f 27/3/1 24/3/1 26/3/1
f 28/5/1 27/5/1 26/5/1
f 29/5/1 25/5/1 18/5/1
f 32/5/1 27/5/1 28/5/1
f 33/5/1 27/5/1 32/5/1
f 34/5/1 31/5/1 30/5/1
f 34/5/1 29/5/1 18/5/1
f 34/5/1 30/5/1 29/5/1
f 35/3/1 33/3/1 32/3/1
f 35/5/1 31/5/1 34/5/1
f 35/3/1 32/3/1 31/3/1
f 36/3/1 33/3/1 35/3/1
f 42/5/1 38/5/1 37/5/1
f 43/1/1 39/1/1 38/1/1
f 43/5/1 38/5/1 42/5/1
f 44/5/1 40/5/1 39/5/1
f 44/1/1 39/1/1 43/1/1
f 45/5/1 40/5/1 44/5/1
f 47/5/1 42/5/1 41/5/1
f 48/5/1 42/5/1 47/5/1
f 49/3/1 46/3/1 45/3/1
f 50/3/1 46/3/1 49/3/1
f 51/1/1 48/1/1 47/1/1
f 52/1/1 48/1/1 51/1/1
f 53/5/1 52/5/1 51/5/1
f 54/5/1 52/5/1 53/5/1
f 55/5/1 50/5/1 49/5/1
f 56/5/1 50/5/1 55/5/1
f 57/3/1 54/3/1 53/3/1
f 58/3/1 54/3/1 57/3/1
f 63/5/1 50/5/1 56/5/1
f 64/5/1 50/5/1 63/5/1
f 65/3/1 59/3/1 58/3/1
f 66/5/1 60/5/1 59/5/1
f 66/3/1 59/3/1 65/3/1
f 67/3/1 61/3/1 60/3/1
f 67/5/1 60/5/1 66/5/1
f 68/5/1 62/5/1 61/5/1
f 68/3/1 61/3/1 67/3/1
f 69/1/1 63/1/1 62/1/1
f 69/5/1 62/5/1 68/5/1
f 70/1/1 63/1/1 69/1/1
f 73/5/1 72/5/1 71/5/1
f 74/5/1 72/5/1 73/5/1
f 79/1/1 76/1/1 75/1/1
f 80/1/1 79/1/1 75/1/1
f 81/1/1 79/1/1 80/1/1
f 82/5/1 81/5/1 80/5/1
f 83/5/1 81/5/1 82/5/1
f 84/5/1 78/5/1 77/5/1
f 85/5/1 78/5/1 84/5/1
f 91/5/1 87/5/1 86/5/1
f 91/5/1 88/5/1 87/5/1
f 92/5/1 88/5/1 91/5/1
f 93/1/1 90/1/1 89/1/1
f 93/3/1 89/3/1 88/3/1
f 94/1/1 90/1/1 93/1/1
f 96/5/1 88/5/1 92/5/1
f 97/3/1 93/3/1 88/3/1
f 97/5/1 88/5/1 96/5/1
f 98/3/1 93/3/1 97/3/1
f 100/5/1 96/5/1 95/5/1
f 101/5/1 96/5/1 100/5/1
f 102/5/1 99/5/1 98/5/1
f 103/5/1 99/5/1 102/5/1
f 108/3/1 105/3/1 104/3/1
f 109/3/1 105/3/1 108/3/1
f 110/1/1 107/1/1 106/1/1
f 111/1/1 107/1/1 110/1/1
f 113/5/1 109/5/1 108/5/1
f 114/5/1 109/5/1 113/5/1
f 115/5/1 111/5/1 110/5/1
f 116/5/1 111/5/1 115/5/1
f 118/1/1 113/1/1 112/1/1
f 119/1/1 113/1/1 118/1/1
f 120/5/1 117/5/1 116/5/1
f 121/5/1 117/5/1 120/5/1
f 122/3/2 123/3/2 126/3/2
f 126/3/2 123/3/2 127/3/2
f 124/5/2 125/5/2 128/5/2
f 128/5/2 125/5/2 129/5/2
f 126/1/2 127/1/2 131/1/2
f 131/1/2 127/1/2 132/1/2
f 128/3/2 129/3/2 133/3/2
f 133/3/2 129/3/2 134/3/2
f 130/1/2 131/1/2 136/1/2
f 136/1/2 131/1/2 137/1/2
f 134/3/2 135/3/2 138/3/2
f 138/3/2 135/3/2 139/3/2
f 140/5/2 141/5/2 144/5/2
f 144/5/2 141/5/2 145/5/2
f 144/3/2 145/3/2 146/3/2
f 144/3/2 146/3/2 147/3/2
f 147/3/2 146/3/2 148/3/2
f 142/5/2 143/5/2 149/5/2
f 149/5/2 143/5/2 150/5/2
f 151/5/2 152/5/2 155/5/2
f 153/5/2 154/5/2 155/5/2
f 152/5/2 153/5/2 155/5/2
f 155/5/2 154/5/2 156/5/2
f 156/5/2 154/5/2 157/5/2
f 157/5/2 154/5/2 158/5/2
f 156/3/2 157/3/2 159/3/2
f 159/3/2 157/3/2 160/3/2
f 159/5/2 160/5/2 162/5/2
f 160/3/2 157/3/2 163/3/2
f 162/5/2 160/5/2 163/5/2
f 163/3/2 157/3/2 164/3/2
f 161/5/2 162/5/2 166/5/2
f 166/5/2 162/5/2 167/5/2
f 164/5/2 165/5/2 168/5/2
f 168/5/2 165/5/2 169/5/2
f 170/5/2 171/5/2 175/5/2
f 171/3/2 172/3/2 176/3/2
f 175/5/2 171/5/2 176/5/2
f 176/3/2 172/3/2 177/3/2
f 172/5/2 173/5/2 178/5/2
f 177/3/2 172/3/2 178/3/2
f 178/5/2 173/5/2 179/5/2
f 174/5/2 175/5/2 181/5/2
f 179/5/2 180/5/2 182/5/2
f 182/5/2 180/5/2 183/5/2
f 182/3/2 183/3/2 184/3/2
f 174/5/2 181/5/2 185/5/2
f 185/5/2 181/5/2 186/5/2
f 185/1/2 186/1/2 187/1/2
f 187/1/2 186/1/2 188/1/2
f 187/5/2 188/5/2 189/5/2
f 189/5/2 188/5/2 190/5/2
f 189/3/2 190/3/2 191/3/2
f 191/3/2 190/3/2 192/3/2
f 184/3/2 183/3/2 197/3/2
f 197/3/2 183/3/2 198/3/2
f 192/3/2 193/3/2 199/3/2
f 193/5/2 194/5/2 200/5/2
f 199/3/2 193/3/2 200/3/2
f 194/3/2 195/3/2 201/3/2
f 200/5/2 194/5/2 201/5/2
f 195/5/2 196/5/2 202/5/2
f 201/3/2 195/3/2 202/3/2
f 196/1/2 197/1/2 203/1/2
f 202/5/2 196/5/2 203/5/2
f 203/1/2 197/1/2 204/1/2
f 205/5/2 206/5/2 207/5/2
f 207/5/2 206/5/2 208/5/2
f 209/5/2 210/5/2 212/5/2
f 212/5/2 210/5/2 213/5/2
f 210/3/2 211/3/2 214/3/2
f 213/5/2 210/5/2 214/5/2
f 214/3/2 211/3/2 215/3/2
f 215/3/2 211/3/2 216/3/2
f 216/3/2 211/3/2 217/3/2
f 216/1/2 217/1/2 218/1/2
f 212/1/2 213/1/2 219/1/2
f 218/1/2 217/1/2 222/1/2
f 212/1/2 219/1/2 223/1/2
f 219/5/2 220/5/2 224/5/2
f 223/1/2 219/1/2 224/1/2
f 220/3/2 221/3/2 225/3/2
f 224/5/2 220/5/2 225/5/2
f 221/5/2 222/5/2 226/5/2
f 225/3/2 221/3/2 226/3/2
f 222/1/2 217/1/2 227/1/2
f 226/5/2 222/5/2 227/5/2
f 227/1/2 217/1/2 228/1/2
f 229/5/2 230/5/2 231/5/2
f 231/5/2 230/5/2 232/5/2
f 232/5/2 230/5/2 233/5/2
f 233/5/2 230/5/2 234/5/2
f 229/5/2 231/5/2 235/5/2
f 231/3/2 232/3/2 235/3/2
f 232/5/2 233/5/2 236/5/2
f 235/3/2 232/3/2 236/3/2
f 233/1/2 234/1/2 237/1/2
f 236/5/2 233/5/2 237/5/2
f 235/5/2 236/5/2 238/5/2
f 229/5/2 235/5/2 238/5/2
f 236/3/2 237/3/2 239/3/2
f 238/5/2 236/5/2 239/5/2
f 237/1/2 234/1/2 240/1/2
f 239/3/2 237/3/2 240/3/2
f 240/1/2 234/1/2 241/1/2
f 245/1/3 243/1/3 242/1/3
f 246/1/3 243/1/3 245/1/3
f 247/5/3 246/5/3 245/5/3
f 248/1/3 243/1/3 246/1/3
f 248/5/3 246/5/3 247/5/3
f 249/5/3 244/5/3 243/5/3
f 249/1/3 243/1/3 248/1/3
f 250/5/3 244/5/3 249/5/3
f 251/3/3 248/3/3 247/3/3
f 251/3/3 249/3/3 248/3/3
f 252/1/3 250/1/3 249/1/3
f 252/3/3 249/3/3 251/3/3
f 253/5/3 244/5/3 250/5/3
f 253/1/3 250/1/3 252/1/3
f 254/5/3 244/5/3 253/5/3
f 255/5/3 252/5/3 251/5/3
f 256/3/3 253/3/3 252/3/3
f 256/5/3 252/5/3 255/5/3
f 256/3/3 254/3/3 253/3/3
f 257/3/3 254/3/3 256/3/3
f 263/5/3 259/5/3 258/5/3
f 263/1/3 260/1/3 259/1/3
f 264/5/3 261/5/3 260/5/3
f 264/1/3 260/1/3 263/1/3
f 265/3/3 262/3/3 261/3/3
f 265/5/3 261/5/3 264/5/3
f 266/3/3 262/3/3 265/3/3
f 267/3/3 262/3/3 266/3/3
f 268/5/3 263/5/3 258/5/3
f 269/5/3 263/5/3 268/5/3
f 270/3/3 269/3/3 268/3/3
f 271/3/3 269/3/3 270/3/3
f 272/5/3 271/5/3 270/5/3
f 273/5/3 267/5/3 266/5/3
f 274/5/3 272/5/3 270/5/3
f 277/5/3 267/5/3 273/5/3
f 278/5/3 267/5/3 277/5/3
f 279/5/3 274/5/3 270/5/3
f 279/5/3 275/5/3 274/5/3
f 280/1/3 276/1/3 275/1/3
f 280/5/3 275/5/3 279/5/3
f 281/5/3 277/5/3 276/5/3
f 281/1/3 276/1/3 280/1/3
f 282/3/3 278/3/3 277/3/3
f 282/5/3 277/5/3 281/5/3
f 283/3/3 278/3/3 282/3/3
f 287/5/3 285/5/3 284/5/3
f 288/5/3 285/5/3 287/5/3
f 289/5/3 285/5/3 288/5/3
f 290/5/3 285/5/3 289/5/3
f 291/5/3 285/5/3 290/5/3
f 293/3/3 292/3/3 291/3/3
f 294/5/3 287/5/3 286/5/3
f 295/3/3 292/3/3 293/3/3
f 296/3/3 292/3/3 295/3/3
f 299/5/3 294/5/3 286/5/3
f 300/5/3 296/5/3 295/5/3
f 301/5/3 296/5/3 300/5/3
f 302/1/3 298/1/3 297/1/3
f 303/1/3 298/1/3 302/1/3
f 304/3/3 301/3/3 300/3/3
f 305/5/3 299/5/3 286/5/3
f 306/5/3 299/5/3 305/5/3
f 311/3/3 301/3/3 304/3/3
f 312/3/3 301/3/3 311/3/3
f 313/5/3 307/5/3 306/5/3
f 314/1/3 310/1/3 309/1/3
f 314/5/3 307/5/3 313/5/3
f 314/1/3 311/1/3 310/1/3
f 314/1/3 308/1/3 307/1/3
f 314/1/3 309/1/3 308/1/3
f 315/1/3 311/1/3 314/1/3
f 319/3/3 317/3/3 316/3/3
f 320/5/3 318/5/3 317/5/3
f 320/3/3 317/3/3 319/3/3
f 321/5/3 318/5/3 320/5/3
f 326/5/3 323/5/3 322/5/3
f 327/5/3 323/5/3 326/5/3
f 329/5/3 325/5/3 324/5/3
f 330/5/3 325/5/3 329/5/3
f 331/3/3 328/3/3 327/3/3
f 331/5/3 329/5/3 328/5/3
f 332/5/3 329/5/3 331/5/3
f 333/5/3 327/5/3 326/5/3
f 334/3/3 331/3/3 327/3/3
f 334/5/3 327/5/3 333/5/3
f 335/1/3 332/1/3 331/1/3
f 335/3/3 331/3/3 334/3/3
f 336/1/3 332/1/3 335/1/3
f 338/5/3 334/5/3 333/5/3
f 339/5/3 334/5/3 338/5/3
f 340/5/3 337/5/3 336/5/3
f 341/5/3 337/5/3 340/5/3
f 344/5/3 343/5/3 342/5/3
f 345/5/3 343/5/3 344/5/3
f 349/5/3 347/5/3 346/5/3
f 350/5/3 347/5/3 349/5/3
f 351/5/3 349/5/3 348/5/3
f 352/5/3 349/5/3 351/5/3
f 353/5/3 349/5/3 352/5/3
f 357/3/3 355/3/3 354/3/3
f 358/5/3 356/5/3 355/5/3
f 358/3/3 355/3/3 357/3/3
f 359/5/3 356/5/3 358/5/3
f 361/5/3 360/5/3 359/5/3
f 362/5/3 360/5/3 361/5/3
f 363/5/4 364/5/4 366/5/4
f 366/5/4 364/5/4 367/5/4
f 365/3/4 366/3/4 368/3/4
f 368/3/4 366/3/4 369/3/4
f 369/3/4 366/3/4 370/3/4
f 371/3/4 372/3/4 374/3/4
f 372/3/4 373/3/4 374/3/4
f 374/3/4 373/3/4 375/3/4
f 375/5/4 376/5/4 377/5/4
f 377/5/4 376/5/4 378/5/4
f 379/5/4 380/5/4 382/5/4
f 382/5/4 380/5/4 383/5/4
f 380/3/4 381/3/4 384/3/4
f 383/5/4 380/5/4 384/5/4
f 384/3/4 381/3/4 385/3/4
f 386/1/4 387/1/4 390/1/4
f 390/1/4 387/1/4 391/1/4
f 388/5/4 389/5/4 393/5/4
f 393/5/4 389/5/4 394/5/4
f 390/5/4 391/5/4 395/5/4
f 391/1/4 392/1/4 396/1/4
f 395/5/4 391/5/4 396/5/4
f 392/5/4 393/5/4 397/5/4
f 396/1/4 392/1/4 397/1/4
f 397/5/4 393/5/4 398/5/4
f 395/5/4 396/5/4 399/5/4
f 396/5/4 397/5/4 399/5/4
f 397/3/4 398/3/4 400/3/4
f 399/5/4 397/5/4 400/5/4
f 400/3/4 398/3/4 401/3/4
f 395/5/4 399/5/4 403/5/4
f 403/5/4 399/5/4 404/5/4
f 401/5/4 402/5/4 405/5/4
f 405/5/4 402/5/4 406/5/4
f 407/5/4 408/5/4 411/5/4
f 408/5/4 409/5/4 411/5/4
f 409/1/4 410/1/4 412/1/4
f 411/5/4 409/5/4 412/5/4
f 412/1/4 410/1/4 413/1/4
f 414/5/4 415/5/4 420/5/4
f 415/3/4 416/3/4 421/3/4
f 420/5/4 415/5/4 421/5/4
f 416/5/4 417/5/4 422/5/4
f 421/3/4 416/3/4 422/3/4
f 417/3/4 418/3/4 423/3/4
f 422/5/4 417/5/4 423/5/4
f 423/3/4 418/3/4 424/3/4
f 424/1/4 425/1/4 426/1/4
f 426/1/4 425/1/4 427/1/4
f 419/5/4 420/5/4 430/5/4
f 426/5/4 427/5/4 431/5/4
f 431/5/4 427/5/4 432/5/4
f 428/5/4 429/5/4 433/5/4
f 433/5/4 429/5/4 434/5/4
f 433/3/4 434/3/4 435/3/4
f 435/3/4 434/3/4 436/3/4
f 431/3/4 432/3/4 437/3/4
f 437/3/4 432/3/4 438/3/4
f 419/5/4 430/5/4 439/5/4
f 439/5/4 430/5/4 440/5/4
f 437/1/4 438/1/4 443/1/4
f 443/1/4 438/1/4 444/1/4
f 441/3/4 442/3/4 445/3/4
f 440/3/4 441/3/4 445/3/4
f 442/1/4 443/1/4 446/1/4
f 445/3/4 442/3/4 446/3/4
f 446/1/4 443/1/4 447/1/4
f 448/3/4 449/3/4 451/3/4
f 449/5/4 450/5/4 451/5/4
f 451/5/4 450/5/4 452/5/4
f 448/3/4 451/3/4 453/3/4
f 448/3/4 453/3/4 454/3/4
f 454/3/4 453/3/4 455/3/4
f 452/5/4 450/5/4 456/5/4
f 454/5/4 455/5/4 457/5/4
f 456/5/4 450/5/4 458/5/4
f 454/5/4 457/5/4 459/5/4
f 458/5/4 450/5/4 460/5/4
f 460/5/4 450/5/4 461/5/4
f 454/5/4 459/5/4 462/5/4
f 459/3/4 460/3/4 463/3/4
f 462/5/4 459/5/4 463/5/4
f 460/3/4 461/3/4 463/3/4
f 463/3/4 461/3/4 464/3/4
f 465/5/4 466/5/4 467/5/4
f 467/5/4 466/5/4 468/5/4
f 467/1/4 468/1/4 469/1/4
f 468/5/4 466/5/4 469/5/4
f 469/5/4 466/5/4 470/5/4
f 467/1/4 469/1/4 471/1/4
f 469/1/4 470/1/4 471/1/4
f 471/1/4 470/1/4 472/1/4
f 471/5/4 472/5/4 473/5/4
f 473/5/4 472/5/4 474/5/4
f 477/5/5 476/5/5 475/5/5
f 478/5/5 476/5/5 477/5/5
f 479/5/5 477/5/5 475/5/5
f 480/3/5 478/3/5 477/3/5
f 480/5/5 477/5/5 479/5/5
f 481/5/5 476/5/5 478/5/5
f 481/3/5 478/3/5 480/3/5
f 482/5/5 476/5/5 481/5/5
f 483/1/5 480/1/5 479/1/5
f 483/5/5 481/5/5 480/5/5
f 484/5/5 481/5/5 483/5/5
f 485/3/5 482/3/5 481/3/5
f 485/5/5 481/5/5 484/5/5
f 486/3/5 482/3/5 485/3/5
f 487/1/5 484/1/5 483/1/5
f 487/1/5 483/1/5 479/1/5
f 488/5/5 486/5/5 485/5/5
f 488/1/5 484/1/5 487/1/5
f 488/5/5 485/5/5 484/5/5
f 489/5/5 486/5/5 488/5/5
f 490/3/5 482/3/5 486/3/5
f 491/3/5 482/3/5 490/3/5
f 492/5/5 488/5/5 487/5/5
f 492/1/5 489/1/5 488/1/5
f 493/5/5 486/5/5 489/5/5
f 493/1/5 489/1/5 492/1/5
f 494/3/5 490/3/5 486/3/5
f 494/5/5 486/5/5 493/5/5
f 495/5/5 491/5/5 490/5/5
f 495/3/5 490/3/5 494/3/5
f 496/5/5 492/5/5 487/5/5
f 496/5/5 494/5/5 493/5/5
f 496/5/5 495/5/5 494/5/5
f 496/5/5 493/5/5 492/5/5
f 497/5/5 491/5/5 495/5/5
f 497/5/5 495/5/5 496/5/5
f 503/5/5 499/5/5 498/5/5
f 504/3/5 500/3/5 499/3/5
f 504/5/5 499/5/5 503/5/5
f 505/5/5 501/5/5 500/5/5
f 505/3/5 500/3/5 504/3/5
f 506/5/5 501/5/5 505/5/5
f 508/5/5 503/5/5 502/5/5
f 509/5/5 507/5/5 506/5/5
f 510/5/5 507/5/5 509/5/5
f 511/5/5 507/5/5 510/5/5
f 512/5/5 508/5/5 502/5/5
f 513/3/5 511/3/5 510/3/5
f 514/5/5 512/5/5 502/5/5
f 515/5/5 512/5/5 514/5/5
f 517/3/5 511/3/5 513/3/5
f 518/3/5 511/3/5 517/3/5
f 519/3/5 516/3/5 515/3/5
f 520/5/5 517/5/5 516/5/5
f 520/3/5 516/3/5 519/3/5
f 521/5/5 517/5/5 520/5/5
f 527/1/5 523/1/5 522/1/5
f 528/5/5 524/5/5 523/5/5
f 528/1/5 523/1/5 527/1/5
f 529/3/5 525/3/5 524/3/5
f 529/5/5 524/5/5 528/5/5
f 530/5/5 526/5/5 525/5/5
f 530/3/5 525/3/5 529/3/5
f 531/5/5 526/5/5 530/5/5
f 536/3/5 533/3/5 532/3/5
f 537/3/5 533/3/5 536/3/5
f 538/5/5 535/5/5 534/5/5
f 539/1/5 537/1/5 536/1/5
f 540/1/5 537/1/5 539/1/5
f 541/5/5 540/5/5 539/5/5
f 542/5/5 540/5/5 541/5/5
f 543/5/5 535/5/5 538/5/5
f 544/5/5 535/5/5 543/5/5
f 550/5/5 546/5/5 545/5/5
f 551/1/5 547/1/5 546/1/5
f 551/5/5 546/5/5 550/5/5
f 551/1/5 548/1/5 547/1/5
f 552/5/5 549/5/5 548/5/5
f 552/1/5 548/1/5 551/1/5
f 553/5/5 549/5/5 552/5/5
f 557/1/5 555/1/5 554/1/5
f 558/1/5 555/1/5 557/1/5
f 559/1/5 555/1/5 558/1/5
f 562/5/5 557/5/5 556/5/5
f 563/5/5 557/5/5 562/5/5
f 564/5/5 560/5/5 559/5/5
f 565/5/5 560/5/5 564/5/5
f 567/5/5 562/5/5 561/5/5
f 568/5/5 566/5/5 565/5/5
f 569/5/5 567/5/5 561/5/5
f 570/5/5 567/5/5 569/5/5
f 573/5/5 566/5/5 568/5/5
f 574/5/5 566/5/5 573/5/5
f 575/5/5 571/5/5 570/5/5
f 576/5/5 571/5/5 575/5/5
f 578/5/5 573/5/5 572/5/5
f 579/5/5 573/5/5 578/5/5
f 580/5/5 577/5/5 576/5/5
f 581/3/5 578/3/5 577/3/5
f 581/5/5 577/5/5 580/5/5
f 582/3/5 578/3/5 581/3/5
f 583/5/6 584/5/6 586/5/6
f 584/3/6 585/3/6 587/3/6
f 586/5/6 584/5/6 587/5/6
f 587/3/6 585/3/6 588/3/6
f 589/5/6 590/5/6 593/5/6
f 593/5/6 590/5/6 594/5/6
f 591/5/6 592/5/6 595/5/6
f 595/5/6 592/5/6 596/5/6
f 593/3/6 594/3/6 597/3/6
f 595/3/6 596/3/6 598/3/6
f 598/3/6 596/3/6 599/3/6
f 593/3/6 597/3/6 600/3/6
f 600/3/6 597/3/6 601/3/6
f 598/1/6 599/1/6 602/1/6
f 602/1/6 599/1/6 603/1/6
f 604/5/6 605/5/6 608/5/6
f 605/1/6 606/1/6 609/1/6
f 608/5/6 605/5/6 609/5/6
f 606/5/6 607/5/6 610/5/6
f 609/1/6 606/1/6 610/1/6
f 610/5/6 607/5/6 611/5/6
f 612/3/6 613/3/6 617/3/6
f 613/5/6 614/5/6 618/5/6
f 617/3/6 613/3/6 618/3/6
f 618/5/6 614/5/6 619/5/6
f 619/5/6 614/5/6 620/5/6
f 614/3/6 615/3/6 621/3/6
f 620/5/6 614/5/6 621/5/6
f 621/3/6 615/3/6 622/3/6
f 616/5/6 617/5/6 624/5/6
f 622/1/6 623/1/6 625/1/6
f 625/1/6 623/1/6 626/1/6
f 616/5/6 624/5/6 627/5/6
f 625/5/6 626/5/6 628/5/6
f 628/5/6 626/5/6 629/5/6
f 616/5/6 627/5/6 630/5/6
f 630/5/6 627/5/6 631/5/6
f 628/3/6 629/3/6 632/3/6
f 632/3/6 629/3/6 633/3/6
f 630/3/6 631/3/6 634/3/6
f 632/5/6 633/5/6 635/5/6
f 635/5/6 633/5/6 636/5/6
f 630/3/6 634/3/6 637/3/6
f 637/3/6 634/3/6 638/3/6
f 635/1/6 636/1/6 642/1/6
f 642/1/6 636/1/6 643/1/6
f 640/5/6 641/5/6 644/5/6
f 638/5/6 639/5/6 644/5/6
f 639/5/6 640/5/6 644/5/6
f 641/3/6 642/3/6 645/3/6
f 644/5/6 641/5/6 645/5/6
f 645/3/6 642/3/6 646/3/6
f 647/3/6 648/3/6 651/3/6
f 651/3/6 648/3/6 652/3/6
f 648/5/6 649/5/6 653/5/6
f 652/3/6 648/3/6 653/3/6
f 649/3/6 650/3/6 654/3/6
f 653/5/6 649/5/6 654/5/6
f 654/3/6 650/3/6 655/3/6
f 655/3/6 650/3/6 656/3/6
f 651/5/6 652/5/6 657/5/6
f 657/5/6 652/5/6 658/5/6
f 657/3/6 658/3/6 659/3/6
f 655/5/6 656/5/6 660/5/6
f 660/5/6 656/5/6 661/5/6
f 657/3/6 659/3/6 662/3/6
f 662/3/6 659/3/6 663/3/6
f 660/3/6 661/3/6 664/3/6
f 664/3/6 661/3/6 665/3/6
f 662/5/6 663/5/6 666/5/6
f 666/5/6 663/5/6 667/5/6
f 664/5/6 665/5/6 670/5/6
f 670/5/6 665/5/6 671/5/6
f 666/1/6 667/1/6 672/1/6
f 667/1/6 668/1/6 672/1/6
f 668/5/6 669/5/6 673/5/6
f 672/1/6 668/1/6 673/1/6
f 669/3/6 670/3/6 674/3/6
f 673/5/6 669/5/6 674/5/6
f 670/1/6 671/1/6 675/1/6
f 674/3/6 670/3/6 675/3/6
f 675/1/6 671/1/6 676/1/6
f 677/5/6 678/5/6 681/5/6
f 681/5/6 678/5/6 682/5/6
f 679/5/6 680/5/6 683/5/6
f 683/5/6 680/5/6 684/5/6
f 685/1/6 686/1/6 689/1/6
f 689/1/6 686/1/6 690/1/6
f 687/5/6 688/5/6 691/5/6
f 691/5/6 688/5/6 692/5/6
f 693/1/6 694/1/6 696/1/6
f 696/1/6 694/1/6 697/1/6
f 697/1/6 694/1/6 698/1/6
f 695/5/6 696/5/6 701/5/6
f 696/4/6 697/4/6 702/4/6
f 701/5/6 696/5/6 702/5/6
f 698/5/6 699/5/6 703/5/6
f 697/2/6 698/2/6 703/2/6
f 703/5/6 699/5/6 704/5/6
f 702/4/6 697/4/6 706/4/6
f 697/2/6 703/2/6 706/2/6
f 703/2/6 704/2/6 706/2/6
f 706/2/6 704/2/6 707/2/6
f 700/5/6 701/5/6 708/5/6
f 701/2/6 702/2/6 709/2/6
f 708/5/6 701/5/6 709/5/6
f 702/4/6 706/4/6 710/4/6
f 709/2/6 702/2/6 710/2/6
f 706/4/6 707/4/6 710/4/6
f 707/2/6 704/2/6 711/2/6
f 710/4/6 707/4/6 711/4/6
f 704/5/6 705/5/6 712/5/6
f 711/2/6 704/2/6 712/2/6
f 712/5/6 705/5/6 713/5/6
f 709/5/6 710/5/6 714/5/6
f 710/2/6 711/2/6 715/2/6
f 714/5/6 710/5/6 715/5/6
f 715/2/6 711/2/6 716/2/6
f 711/5/6 712/5/6 717/5/6
f 716/2/6 711/2/6 717/2/6
f 717/5/6 712/5/6 718/5/6
f 715/5/6 716/5/6 719/5/6
f 716/3/6 717/3/6 720/3/6
f 719/5/6 716/5/6 720/5/6
f 720/3/6 717/3/6 721/3/6
