# MagicaVoxel @ Ephtracy

# group
o 

# material
mtllib VR Токарев арбуз.mtl
usemtl palette

# normals
vn -1 0 0
vn 1 0 0
vn 0 0 1
vn 0 0 -1
vn 0 -1 0
vn 0 1 0

# texcoords
vt 0.134766 0.5
vt 0.626953 0.5
vt 0.650391 0.5
vt 0.869141 0.5
vt 0.873047 0.5

# verts
v -1.1 0.1 0.1
v -1.1 0.1 -0.1
v -1.1 0.3 0.1
v -1.1 0.3 -0.1
v -1 0.1 0.2
v -1 0.1 0.1
v -1 0.1 -0.1
v -1 0.1 -0.2
v -1 0.3 0.2
v -1 0.3 0.1
v -1 0.3 -0.1
v -1 0.3 -0.2
v -0.9 0.1 0.3
v -0.9 0.1 0.2
v -0.9 0.1 -0.2
v -0.9 0.1 -0.3
v -0.9 0.3 0.3
v -0.9 0.3 0.2
v -0.9 0.3 -0.2
v -0.9 0.3 -0.3
v -0.8 0.1 0.4
v -0.8 0.1 0.3
v -0.8 0.1 -0.3
v -0.8 0.1 -0.4
v -0.8 0.3 0.4
v -0.8 0.3 0.3
v -0.8 0.3 -0.3
v -0.8 0.3 -0.4
v -0.7 0.1 0.5
v -0.7 0.1 0.4
v -0.7 0.1 -0.4
v -0.7 0.1 -0.5
v -0.7 0.3 0.5
v -0.7 0.3 0.4
v -0.7 0.3 -0.4
v -0.7 0.3 -0.5
v -0.6 0.1 0.6
v -0.6 0.1 0.5
v -0.6 0.1 -0.5
v -0.6 0.1 -0.6
v -0.6 0.3 0.6
v -0.6 0.3 0.5
v -0.6 0.3 -0.5
v -0.6 0.3 -0.6
v -0.5 0.1 0.7
v -0.5 0.1 0.6
v -0.5 0.1 -0.6
v -0.5 0.1 -0.7
v -0.5 0.3 0.7
v -0.5 0.3 0.6
v -0.5 0.3 -0.6
v -0.5 0.3 -0.7
v -0.4 0.1 0.8
v -0.4 0.1 0.7
v -0.4 0.1 -0.7
v -0.4 0.1 -0.8
v -0.4 0.3 0.8
v -0.4 0.3 0.7
v -0.4 0.3 -0.7
v -0.4 0.3 -0.8
v -0.3 0.1 0.9
v -0.3 0.1 0.8
v -0.3 0.1 -0.8
v -0.3 0.1 -0.9
v -0.3 0.3 0.9
v -0.3 0.3 0.8
v -0.3 0.3 -0.8
v -0.3 0.3 -0.9
v -0.2 0.1 1
v -0.2 0.1 0.9
v -0.2 0.1 -0.9
v -0.2 0.1 -1
v -0.2 0.3 1
v -0.2 0.3 0.9
v -0.2 0.3 -0.9
v -0.2 0.3 -1
v 0 0.1 1.1
v 0 0.1 1
v 0 0.1 -1
v 0 0.1 -1.1
v 0 0.3 1.1
v 0 0.3 1
v 0 0.3 -1
v 0 0.3 -1.1
v 0.3 0.1 1.2
v 0.3 0.1 1.1
v 0.3 0.1 -1.1
v 0.3 0.1 -1.2
v 0.3 0.3 1.2
v 0.3 0.3 1.1
v 0.3 0.3 -1.1
v 0.3 0.3 -1.2
v 0.5 0.1 1.3
v 0.5 0.1 1.2
v 0.5 0.1 -1.2
v 0.5 0.1 -1.3
v 0.5 0.3 1.3
v 0.5 0.3 1.2
v 0.5 0.3 -1.2
v 0.5 0.3 -1.3
v 0.7 0.1 1.4
v 0.7 0.1 1.3
v 0.7 0.1 -1.3
v 0.7 0.1 -1.4
v 0.7 0.3 1.4
v 0.7 0.3 1.3
v 0.7 0.3 -1.3
v 0.7 0.3 -1.4
v 1.3 0.1 1.4
v 1.3 0.1 1.3
v 1.3 0.1 -1.3
v 1.3 0.1 -1.4
v 1.3 0.3 1.4
v 1.3 0.3 1.3
v 1.3 0.3 -1.3
v 1.3 0.3 -1.4
v 1.4 0.1 1.3
v 1.4 0.1 1
v 1.4 0.1 -1
v 1.4 0.1 -1.3
v 1.4 0.3 1.3
v 1.4 0.3 1
v 1.4 0.3 -1
v 1.4 0.3 -1.3
v 1.5 0.1 1
v 1.5 0.1 0.7
v 1.5 0.1 -0.7
v 1.5 0.1 -1
v 1.5 0.3 1
v 1.5 0.3 0.7
v 1.5 0.3 -0.7
v 1.5 0.3 -1
v 1.6 0.1 0.7
v 1.6 0.1 -0.7
v 1.6 0.3 0.7
v 1.6 0.3 -0.7
v 0.7 0.1 1.4
v 0.7 0.3 1.4
v 1.3 0.1 1.4
v 1.3 0.3 1.4
v 0.5 0.1 1.3
v 0.5 0.3 1.3
v 0.7 0.1 1.3
v 0.7 0.3 1.3
v 1.3 0.1 1.3
v 1.3 0.3 1.3
v 1.4 0.1 1.3
v 1.4 0.3 1.3
v 0.3 0.1 1.2
v 0.3 0.3 1.2
v 0.5 0.1 1.2
v 0.5 0.3 1.2
v 0 0.1 1.1
v 0 0.3 1.1
v 0.3 0.1 1.1
v 0.3 0.3 1.1
v -0.2 0.1 1
v -0.2 0.3 1
v 0 0.1 1
v 0 0.3 1
v 1.4 0.1 1
v 1.4 0.3 1
v 1.5 0.1 1
v 1.5 0.3 1
v -0.3 0.1 0.9
v -0.3 0.3 0.9
v -0.2 0.1 0.9
v -0.2 0.3 0.9
v -0.4 0.1 0.8
v -0.4 0.3 0.8
v -0.3 0.1 0.8
v -0.3 0.3 0.8
v -0.5 0.1 0.7
v -0.5 0.3 0.7
v -0.4 0.1 0.7
v -0.4 0.3 0.7
v 1.5 0.1 0.7
v 1.5 0.3 0.7
v 1.6 0.1 0.7
v 1.6 0.3 0.7
v -0.6 0.1 0.6
v -0.6 0.3 0.6
v -0.5 0.1 0.6
v -0.5 0.3 0.6
v -0.7 0.1 0.5
v -0.7 0.3 0.5
v -0.6 0.1 0.5
v -0.6 0.3 0.5
v -0.8 0.1 0.4
v -0.8 0.3 0.4
v -0.7 0.1 0.4
v -0.7 0.3 0.4
v -0.9 0.1 0.3
v -0.9 0.3 0.3
v -0.8 0.1 0.3
v -0.8 0.3 0.3
v -1 0.1 0.2
v -1 0.3 0.2
v -0.9 0.1 0.2
v -0.9 0.3 0.2
v -1.1 0.1 0.1
v -1.1 0.3 0.1
v -1 0.1 0.1
v -1 0.3 0.1
v -1.1 0.1 -0.1
v -1.1 0.3 -0.1
v -1 0.1 -0.1
v -1 0.3 -0.1
v -1 0.1 -0.2
v -1 0.3 -0.2
v -0.9 0.1 -0.2
v -0.9 0.3 -0.2
v -0.9 0.1 -0.3
v -0.9 0.3 -0.3
v -0.8 0.1 -0.3
v -0.8 0.3 -0.3
v -0.8 0.1 -0.4
v -0.8 0.3 -0.4
v -0.7 0.1 -0.4
v -0.7 0.3 -0.4
v -0.7 0.1 -0.5
v -0.7 0.3 -0.5
v -0.6 0.1 -0.5
v -0.6 0.3 -0.5
v -0.6 0.1 -0.6
v -0.6 0.3 -0.6
v -0.5 0.1 -0.6
v -0.5 0.3 -0.6
v -0.5 0.1 -0.7
v -0.5 0.3 -0.7
v -0.4 0.1 -0.7
v -0.4 0.3 -0.7
v 1.5 0.1 -0.7
v 1.5 0.3 -0.7
v 1.6 0.1 -0.7
v 1.6 0.3 -0.7
v -0.4 0.1 -0.8
v -0.4 0.3 -0.8
v -0.3 0.1 -0.8
v -0.3 0.3 -0.8
v -0.3 0.1 -0.9
v -0.3 0.3 -0.9
v -0.2 0.1 -0.9
v -0.2 0.3 -0.9
v -0.2 0.1 -1
v -0.2 0.3 -1
v 0 0.1 -1
v 0 0.3 -1
v 1.4 0.1 -1
v 1.4 0.3 -1
v 1.5 0.1 -1
v 1.5 0.3 -1
v 0 0.1 -1.1
v 0 0.3 -1.1
v 0.3 0.1 -1.1
v 0.3 0.3 -1.1
v 0.3 0.1 -1.2
v 0.3 0.3 -1.2
v 0.5 0.1 -1.2
v 0.5 0.3 -1.2
v 0.5 0.1 -1.3
v 0.5 0.3 -1.3
v 0.7 0.1 -1.3
v 0.7 0.3 -1.3
v 1.3 0.1 -1.3
v 1.3 0.3 -1.3
v 1.4 0.1 -1.3
v 1.4 0.3 -1.3
v 0.7 0.1 -1.4
v 0.7 0.3 -1.4
v 1.3 0.1 -1.4
v 1.3 0.3 -1.4
v 0.7 0.1 1.4
v 1.3 0.1 1.4
v 0.5 0.1 1.3
v 0.7 0.1 1.3
v 1 0.1 1.3
v 1.1 0.1 1.3
v 1.3 0.1 1.3
v 1.4 0.1 1.3
v 0.3 0.1 1.2
v 0.5 0.1 1.2
v 0.7 0.1 1.2
v 0 0.1 1.1
v 0.3 0.1 1.1
v 0.5 0.1 1.1
v -0.2 0.1 1
v 0 0.1 1
v 0.3 0.1 1
v 1 0.1 1
v 1.1 0.1 1
v 1.2 0.1 1
v 1.3 0.1 1
v 1.4 0.1 1
v 1.5 0.1 1
v -0.3 0.1 0.9
v -0.2 0.1 0.9
v 0 0.1 0.9
v 0.7 0.1 0.9
v 0.9 0.1 0.9
v -0.4 0.1 0.8
v -0.3 0.1 0.8
v -0.2 0.1 0.8
v -0.5 0.1 0.7
v -0.4 0.1 0.7
v -0.3 0.1 0.7
v 0.7 0.1 0.7
v 0.9 0.1 0.7
v 1.1 0.1 0.7
v 1.2 0.1 0.7
v 1.3 0.1 0.7
v 1.4 0.1 0.7
v 1.5 0.1 0.7
v 1.6 0.1 0.7
v -0.6 0.1 0.6
v -0.5 0.1 0.6
v -0.4 0.1 0.6
v 0.2 0.1 0.6
v 0.4 0.1 0.6
v -0.7 0.1 0.5
v -0.6 0.1 0.5
v -0.5 0.1 0.5
v -0.4 0.1 0.5
v -0.2 0.1 0.5
v -0.8 0.1 0.4
v -0.7 0.1 0.4
v -0.6 0.1 0.4
v 0.2 0.1 0.4
v 0.4 0.1 0.4
v -0.9 0.1 0.3
v -0.8 0.1 0.3
v -0.7 0.1 0.3
v -0.4 0.1 0.3
v -0.2 0.1 0.3
v -1 0.1 0.2
v -0.9 0.1 0.2
v -0.8 0.1 0.2
v 0.3 0.1 0.2
v 0.5 0.1 0.2
v -1.1 0.1 0.1
v -1 0.1 0.1
v -0.9 0.1 0.1
v -0.6 0.1 0.1
v -0.4 0.1 0.1
v 0.3 0.1 0
v 0.5 0.1 0
v 0.7 0.1 0
v 0.9 0.1 0
v -1.1 0.1 -0.1
v -1 0.1 -0.1
v -0.9 0.1 -0.1
v -0.6 0.1 -0.1
v -0.4 0.1 -0.1
v -0.3 0.1 -0.1
v -0.1 0.1 -0.1
v -1 0.1 -0.2
v -0.9 0.1 -0.2
v -0.8 0.1 -0.2
v 0.7 0.1 -0.2
v 0.9 0.1 -0.2
v -0.9 0.1 -0.3
v -0.8 0.1 -0.3
v -0.7 0.1 -0.3
v -0.3 0.1 -0.3
v -0.1 0.1 -0.3
v 0.4 0.1 -0.3
v 0.6 0.1 -0.3
v -0.8 0.1 -0.4
v -0.7 0.1 -0.4
v -0.6 0.1 -0.4
v 0 0.1 -0.4
v 0.2 0.1 -0.4
v -0.7 0.1 -0.5
v -0.6 0.1 -0.5
v -0.5 0.1 -0.5
v 0.4 0.1 -0.5
v 0.6 0.1 -0.5
v -0.6 0.1 -0.6
v -0.5 0.1 -0.6
v -0.4 0.1 -0.6
v 0 0.1 -0.6
v 0.2 0.1 -0.6
v -0.5 0.1 -0.7
v -0.4 0.1 -0.7
v -0.3 0.1 -0.7
v 0.6 0.1 -0.7
v 0.8 0.1 -0.7
v 1.1 0.1 -0.7
v 1.2 0.1 -0.7
v 1.3 0.1 -0.7
v 1.4 0.1 -0.7
v 1.5 0.1 -0.7
v 1.6 0.1 -0.7
v -0.4 0.1 -0.8
v -0.3 0.1 -0.8
v -0.2 0.1 -0.8
v -0.3 0.1 -0.9
v -0.2 0.1 -0.9
v 0 0.1 -0.9
v 0.6 0.1 -0.9
v 0.8 0.1 -0.9
v -0.2 0.1 -1
v 0 0.1 -1
v 0.3 0.1 -1
v 1 0.1 -1
v 1.1 0.1 -1
v 1.2 0.1 -1
v 1.3 0.1 -1
v 1.4 0.1 -1
v 1.5 0.1 -1
v 0 0.1 -1.1
v 0.3 0.1 -1.1
v 0.5 0.1 -1.1
v 0.3 0.1 -1.2
v 0.5 0.1 -1.2
v 0.7 0.1 -1.2
v 0.5 0.1 -1.3
v 0.7 0.1 -1.3
v 1 0.1 -1.3
v 1.1 0.1 -1.3
v 1.3 0.1 -1.3
v 1.4 0.1 -1.3
v 0.7 0.1 -1.4
v 1.3 0.1 -1.4
v 0.7 0.3 1.4
v 1.3 0.3 1.4
v 0.5 0.3 1.3
v 0.7 0.3 1.3
v 1 0.3 1.3
v 1.1 0.3 1.3
v 1.2 0.3 1.3
v 1.3 0.3 1.3
v 1.4 0.3 1.3
v 0.3 0.3 1.2
v 0.5 0.3 1.2
v 0.7 0.3 1.2
v 1.2 0.3 1.2
v 1.3 0.3 1.2
v 0 0.3 1.1
v 0.3 0.3 1.1
v 0.5 0.3 1.1
v -0.2 0.3 1
v 0 0.3 1
v 0.3 0.3 1
v 1 0.3 1
v 1.1 0.3 1
v 1.2 0.3 1
v 1.3 0.3 1
v 1.4 0.3 1
v 1.5 0.3 1
v -0.3 0.3 0.9
v -0.2 0.3 0.9
v 0 0.3 0.9
v 0.7 0.3 0.9
v 0.9 0.3 0.9
v -0.4 0.3 0.8
v -0.3 0.3 0.8
v -0.2 0.3 0.8
v -0.5 0.3 0.7
v -0.4 0.3 0.7
v -0.3 0.3 0.7
v 0.7 0.3 0.7
v 0.9 0.3 0.7
v 1.1 0.3 0.7
v 1.2 0.3 0.7
v 1.3 0.3 0.7
v 1.4 0.3 0.7
v 1.5 0.3 0.7
v 1.6 0.3 0.7
v -0.6 0.3 0.6
v -0.5 0.3 0.6
v -0.4 0.3 0.6
v 0.2 0.3 0.6
v 0.4 0.3 0.6
v -0.7 0.3 0.5
v -0.6 0.3 0.5
v -0.5 0.3 0.5
v -0.4 0.3 0.5
v -0.2 0.3 0.5
v -0.8 0.3 0.4
v -0.7 0.3 0.4
v -0.6 0.3 0.4
v 0.2 0.3 0.4
v 0.4 0.3 0.4
v -0.9 0.3 0.3
v -0.8 0.3 0.3
v -0.7 0.3 0.3
v -0.4 0.3 0.3
v -0.2 0.3 0.3
v -1 0.3 0.2
v -0.9 0.3 0.2
v -0.8 0.3 0.2
v 0.3 0.3 0.2
v 0.5 0.3 0.2
v -1.1 0.3 0.1
v -1 0.3 0.1
v -0.9 0.3 0.1
v -0.6 0.3 0.1
v -0.4 0.3 0.1
v 0.3 0.3 0
v 0.5 0.3 0
v 0.7 0.3 0
v 0.9 0.3 0
v -1.1 0.3 -0.1
v -1 0.3 -0.1
v -0.9 0.3 -0.1
v -0.6 0.3 -0.1
v -0.4 0.3 -0.1
v -0.3 0.3 -0.1
v -0.1 0.3 -0.1
v -1 0.3 -0.2
v -0.9 0.3 -0.2
v -0.8 0.3 -0.2
v 0.7 0.3 -0.2
v 0.9 0.3 -0.2
v -0.9 0.3 -0.3
v -0.8 0.3 -0.3
v -0.7 0.3 -0.3
v -0.3 0.3 -0.3
v -0.1 0.3 -0.3
v 0.4 0.3 -0.3
v 0.6 0.3 -0.3
v -0.8 0.3 -0.4
v -0.7 0.3 -0.4
v -0.6 0.3 -0.4
v 0 0.3 -0.4
v 0.2 0.3 -0.4
v -0.7 0.3 -0.5
v -0.6 0.3 -0.5
v -0.5 0.3 -0.5
v 0.4 0.3 -0.5
v 0.6 0.3 -0.5
v -0.6 0.3 -0.6
v -0.5 0.3 -0.6
v -0.4 0.3 -0.6
v 0 0.3 -0.6
v 0.2 0.3 -0.6
v -0.5 0.3 -0.7
v -0.4 0.3 -0.7
v -0.3 0.3 -0.7
v 0.6 0.3 -0.7
v 0.8 0.3 -0.7
v 1.1 0.3 -0.7
v 1.2 0.3 -0.7
v 1.3 0.3 -0.7
v 1.4 0.3 -0.7
v 1.5 0.3 -0.7
v 1.6 0.3 -0.7
v -0.4 0.3 -0.8
v -0.3 0.3 -0.8
v -0.2 0.3 -0.8
v -0.3 0.3 -0.9
v -0.2 0.3 -0.9
v 0 0.3 -0.9
v 0.6 0.3 -0.9
v 0.8 0.3 -0.9
v -0.2 0.3 -1
v 0 0.3 -1
v 0.3 0.3 -1
v 1 0.3 -1
v 1.1 0.3 -1
v 1.2 0.3 -1
v 1.3 0.3 -1
v 1.4 0.3 -1
v 1.5 0.3 -1
v 0 0.3 -1.1
v 0.3 0.3 -1.1
v 0.5 0.3 -1.1
v 0.3 0.3 -1.2
v 0.5 0.3 -1.2
v 0.7 0.3 -1.2
v 0.5 0.3 -1.3
v 0.7 0.3 -1.3
v 1 0.3 -1.3
v 1.1 0.3 -1.3
v 1.3 0.3 -1.3
v 1.4 0.3 -1.3
v 0.7 0.3 -1.4
v 1.3 0.3 -1.4

# faces
f 3/5/1 2/5/1 1/5/1
f 4/5/1 2/5/1 3/5/1
f 9/5/1 6/5/1 5/5/1
f 10/5/1 6/5/1 9/5/1
f 11/5/1 8/5/1 7/5/1
f 12/5/1 8/5/1 11/5/1
f 17/5/1 14/5/1 13/5/1
f 18/5/1 14/5/1 17/5/1
f 19/5/1 16/5/1 15/5/1
f 20/5/1 16/5/1 19/5/1
f 25/5/1 22/5/1 21/5/1
f 26/5/1 22/5/1 25/5/1
f 27/5/1 24/5/1 23/5/1
f 28/5/1 24/5/1 27/5/1
f 33/5/1 30/5/1 29/5/1
f 34/5/1 30/5/1 33/5/1
f 35/5/1 32/5/1 31/5/1
f 36/5/1 32/5/1 35/5/1
f 41/5/1 38/5/1 37/5/1
f 42/5/1 38/5/1 41/5/1
f 43/5/1 40/5/1 39/5/1
f 44/5/1 40/5/1 43/5/1
f 49/5/1 46/5/1 45/5/1
f 50/5/1 46/5/1 49/5/1
f 51/5/1 48/5/1 47/5/1
f 52/5/1 48/5/1 51/5/1
f 57/5/1 54/5/1 53/5/1
f 58/5/1 54/5/1 57/5/1
f 59/5/1 56/5/1 55/5/1
f 60/5/1 56/5/1 59/5/1
f 65/5/1 62/5/1 61/5/1
f 66/5/1 62/5/1 65/5/1
f 67/5/1 64/5/1 63/5/1
f 68/5/1 64/5/1 67/5/1
f 73/5/1 70/5/1 69/5/1
f 74/5/1 70/5/1 73/5/1
f 75/5/1 72/5/1 71/5/1
f 76/5/1 72/5/1 75/5/1
f 81/5/1 78/5/1 77/5/1
f 82/5/1 78/5/1 81/5/1
f 83/5/1 80/5/1 79/5/1
f 84/5/1 80/5/1 83/5/1
f 89/5/1 86/5/1 85/5/1
f 90/5/1 86/5/1 89/5/1
f 91/5/1 88/5/1 87/5/1
f 92/5/1 88/5/1 91/5/1
f 97/5/1 94/5/1 93/5/1
f 98/5/1 94/5/1 97/5/1
f 99/5/1 96/5/1 95/5/1
f 100/5/1 96/5/1 99/5/1
f 105/5/1 102/5/1 101/5/1
f 106/5/1 102/5/1 105/5/1
f 107/5/1 104/5/1 103/5/1
f 108/5/1 104/5/1 107/5/1
f 109/5/2 110/5/2 113/5/2
f 113/5/2 110/5/2 114/5/2
f 111/5/2 112/5/2 115/5/2
f 115/5/2 112/5/2 116/5/2
f 117/5/2 118/5/2 121/5/2
f 121/5/2 118/5/2 122/5/2
f 119/5/2 120/5/2 123/5/2
f 123/5/2 120/5/2 124/5/2
f 125/5/2 126/5/2 129/5/2
f 129/5/2 126/5/2 130/5/2
f 127/5/2 128/5/2 131/5/2
f 131/5/2 128/5/2 132/5/2
f 133/5/2 134/5/2 135/5/2
f 135/5/2 134/5/2 136/5/2
f 139/5/3 138/5/3 137/5/3
f 140/5/3 138/5/3 139/5/3
f 143/5/3 142/5/3 141/5/3
f 144/5/3 142/5/3 143/5/3
f 147/5/3 146/5/3 145/5/3
f 148/5/3 146/5/3 147/5/3
f 151/5/3 150/5/3 149/5/3
f 152/5/3 150/5/3 151/5/3
f 155/5/3 154/5/3 153/5/3
f 156/5/3 154/5/3 155/5/3
f 159/5/3 158/5/3 157/5/3
f 160/5/3 158/5/3 159/5/3
f 163/5/3 162/5/3 161/5/3
f 164/5/3 162/5/3 163/5/3
f 167/5/3 166/5/3 165/5/3
f 168/5/3 166/5/3 167/5/3
f 171/5/3 170/5/3 169/5/3
f 172/5/3 170/5/3 171/5/3
f 175/5/3 174/5/3 173/5/3
f 176/5/3 174/5/3 175/5/3
f 179/5/3 178/5/3 177/5/3
f 180/5/3 178/5/3 179/5/3
f 183/5/3 182/5/3 181/5/3
f 184/5/3 182/5/3 183/5/3
f 187/5/3 186/5/3 185/5/3
f 188/5/3 186/5/3 187/5/3
f 191/5/3 190/5/3 189/5/3
f 192/5/3 190/5/3 191/5/3
f 195/5/3 194/5/3 193/5/3
f 196/5/3 194/5/3 195/5/3
f 199/5/3 198/5/3 197/5/3
f 200/5/3 198/5/3 199/5/3
f 203/5/3 202/5/3 201/5/3
f 204/5/3 202/5/3 203/5/3
f 205/5/4 206/5/4 207/5/4
f 207/5/4 206/5/4 208/5/4
f 209/5/4 210/5/4 211/5/4
f 211/5/4 210/5/4 212/5/4
f 213/5/4 214/5/4 215/5/4
f 215/5/4 214/5/4 216/5/4
f 217/5/4 218/5/4 219/5/4
f 219/5/4 218/5/4 220/5/4
f 221/5/4 222/5/4 223/5/4
f 223/5/4 222/5/4 224/5/4
f 225/5/4 226/5/4 227/5/4
f 227/5/4 226/5/4 228/5/4
f 229/5/4 230/5/4 231/5/4
f 231/5/4 230/5/4 232/5/4
f 233/5/4 234/5/4 235/5/4
f 235/5/4 234/5/4 236/5/4
f 237/5/4 238/5/4 239/5/4
f 239/5/4 238/5/4 240/5/4
f 241/5/4 242/5/4 243/5/4
f 243/5/4 242/5/4 244/5/4
f 245/5/4 246/5/4 247/5/4
f 247/5/4 246/5/4 248/5/4
f 249/5/4 250/5/4 251/5/4
f 251/5/4 250/5/4 252/5/4
f 253/5/4 254/5/4 255/5/4
f 255/5/4 254/5/4 256/5/4
f 257/5/4 258/5/4 259/5/4
f 259/5/4 258/5/4 260/5/4
f 261/5/4 262/5/4 263/5/4
f 263/5/4 262/5/4 264/5/4
f 265/5/4 266/5/4 267/5/4
f 267/5/4 266/5/4 268/5/4
f 269/5/4 270/5/4 271/5/4
f 271/5/4 270/5/4 272/5/4
f 276/5/5 274/5/5 273/5/5
f 277/5/5 274/5/5 276/5/5
f 278/5/5 274/5/5 277/5/5
f 279/5/5 274/5/5 278/5/5
f 282/5/5 276/5/5 275/5/5
f 283/1/5 277/1/5 276/1/5
f 283/5/5 276/5/5 282/5/5
f 285/5/5 282/5/5 281/5/5
f 286/1/5 283/1/5 282/1/5
f 286/5/5 282/5/5 285/5/5
f 288/5/5 285/5/5 284/5/5
f 289/1/5 286/1/5 285/1/5
f 289/5/5 285/5/5 288/5/5
f 290/1/5 277/1/5 283/1/5
f 290/1/5 286/1/5 289/1/5
f 290/2/5 278/2/5 277/2/5
f 290/1/5 283/1/5 286/1/5
f 291/3/5 279/3/5 278/3/5
f 291/2/5 278/2/5 290/2/5
f 292/3/5 279/3/5 291/3/5
f 293/5/5 280/5/5 279/5/5
f 293/3/5 279/3/5 292/3/5
f 294/5/5 280/5/5 293/5/5
f 297/5/5 288/5/5 287/5/5
f 298/1/5 289/1/5 288/1/5
f 298/1/5 290/1/5 289/1/5
f 298/5/5 288/5/5 297/5/5
f 298/1/5 291/1/5 290/1/5
f 299/1/5 291/1/5 298/1/5
f 300/1/5 291/1/5 299/1/5
f 302/5/5 297/5/5 296/5/5
f 303/1/5 298/1/5 297/1/5
f 303/1/5 299/1/5 298/1/5
f 303/5/5 297/5/5 302/5/5
f 305/5/5 302/5/5 301/5/5
f 306/1/5 303/1/5 302/1/5
f 306/5/5 302/5/5 305/5/5
f 307/1/5 299/1/5 303/1/5
f 307/1/5 303/1/5 306/1/5
f 307/4/5 300/4/5 299/4/5
f 308/1/5 291/1/5 300/1/5
f 308/4/5 300/4/5 307/4/5
f 309/2/5 292/2/5 291/2/5
f 309/1/5 291/1/5 308/1/5
f 310/3/5 294/3/5 293/3/5
f 310/2/5 292/2/5 309/2/5
f 310/3/5 293/3/5 292/3/5
f 311/3/5 294/3/5 310/3/5
f 312/5/5 295/5/5 294/5/5
f 312/3/5 294/3/5 311/3/5
f 313/5/5 295/5/5 312/5/5
f 316/5/5 305/5/5 304/5/5
f 317/1/5 308/1/5 307/1/5
f 317/1/5 307/1/5 306/1/5
f 317/5/5 305/5/5 316/5/5
f 317/1/5 309/1/5 308/1/5
f 317/1/5 306/1/5 305/1/5
f 317/1/5 310/1/5 309/1/5
f 318/1/5 310/1/5 317/1/5
f 319/1/5 310/1/5 318/1/5
f 321/5/5 316/5/5 315/5/5
f 322/1/5 317/1/5 316/1/5
f 322/1/5 318/1/5 317/1/5
f 322/5/5 316/5/5 321/5/5
f 323/1/5 318/1/5 322/1/5
f 324/1/5 318/1/5 323/1/5
f 326/5/5 321/5/5 320/5/5
f 327/1/5 322/1/5 321/1/5
f 327/1/5 323/1/5 322/1/5
f 327/5/5 321/5/5 326/5/5
f 328/1/5 318/1/5 324/1/5
f 328/4/5 319/4/5 318/4/5
f 329/1/5 310/1/5 319/1/5
f 329/4/5 319/4/5 328/4/5
f 331/5/5 326/5/5 325/5/5
f 332/1/5 327/1/5 326/1/5
f 332/5/5 326/5/5 331/5/5
f 333/1/5 323/1/5 327/1/5
f 333/1/5 327/1/5 332/1/5
f 333/4/5 324/4/5 323/4/5
f 334/1/5 328/1/5 324/1/5
f 334/4/5 324/4/5 333/4/5
f 334/1/5 329/1/5 328/1/5
f 336/5/5 331/5/5 330/5/5
f 337/1/5 333/1/5 332/1/5
f 337/1/5 332/1/5 331/1/5
f 337/5/5 331/5/5 336/5/5
f 337/1/5 334/1/5 333/1/5
f 338/1/5 329/1/5 334/1/5
f 338/1/5 334/1/5 337/1/5
f 339/1/5 310/1/5 329/1/5
f 339/1/5 329/1/5 338/1/5
f 341/5/5 336/5/5 335/5/5
f 342/1/5 337/1/5 336/1/5
f 342/1/5 338/1/5 337/1/5
f 342/5/5 336/5/5 341/5/5
f 343/1/5 338/1/5 342/1/5
f 344/1/5 338/1/5 343/1/5
f 345/4/5 339/4/5 338/4/5
f 345/1/5 338/1/5 344/1/5
f 346/1/5 310/1/5 339/1/5
f 346/4/5 339/4/5 345/4/5
f 347/1/5 310/1/5 346/1/5
f 348/1/5 310/1/5 347/1/5
f 349/5/5 341/5/5 340/5/5
f 350/1/5 342/1/5 341/1/5
f 350/5/5 341/5/5 349/5/5
f 350/1/5 343/1/5 342/1/5
f 351/1/5 343/1/5 350/1/5
f 352/4/5 344/4/5 343/4/5
f 352/1/5 343/1/5 351/1/5
f 353/1/5 345/1/5 344/1/5
f 353/4/5 344/4/5 352/4/5
f 353/1/5 346/1/5 345/1/5
f 353/1/5 347/1/5 346/1/5
f 354/1/5 347/1/5 353/1/5
f 355/1/5 347/1/5 354/1/5
f 356/5/5 351/5/5 350/5/5
f 357/1/5 352/1/5 351/1/5
f 357/5/5 351/5/5 356/5/5
f 357/1/5 353/1/5 352/1/5
f 357/1/5 354/1/5 353/1/5
f 358/1/5 354/1/5 357/1/5
f 359/1/5 347/1/5 355/1/5
f 359/4/5 348/4/5 347/4/5
f 360/1/5 310/1/5 348/1/5
f 360/4/5 348/4/5 359/4/5
f 361/5/5 358/5/5 357/5/5
f 362/1/5 354/1/5 358/1/5
f 362/5/5 358/5/5 361/5/5
f 363/1/5 354/1/5 362/1/5
f 364/4/5 355/4/5 354/4/5
f 364/1/5 354/1/5 363/1/5
f 365/1/5 359/1/5 355/1/5
f 365/4/5 355/4/5 364/4/5
f 365/1/5 360/1/5 359/1/5
f 366/1/5 360/1/5 365/1/5
f 367/1/5 360/1/5 366/1/5
f 368/5/5 363/5/5 362/5/5
f 369/1/5 364/1/5 363/1/5
f 369/5/5 363/5/5 368/5/5
f 369/1/5 365/1/5 364/1/5
f 369/1/5 366/1/5 365/1/5
f 370/1/5 366/1/5 369/1/5
f 371/1/5 366/1/5 370/1/5
f 372/1/5 366/1/5 371/1/5
f 373/5/5 370/5/5 369/5/5
f 374/1/5 371/1/5 370/1/5
f 374/5/5 370/5/5 373/5/5
f 375/1/5 371/1/5 374/1/5
f 376/4/5 367/4/5 366/4/5
f 376/1/5 366/1/5 372/1/5
f 377/1/5 360/1/5 367/1/5
f 377/4/5 367/4/5 376/4/5
f 378/5/5 375/5/5 374/5/5
f 379/1/5 371/1/5 375/1/5
f 379/5/5 375/5/5 378/5/5
f 380/1/5 371/1/5 379/1/5
f 381/4/5 372/4/5 371/4/5
f 381/1/5 371/1/5 380/1/5
f 382/1/5 376/1/5 372/1/5
f 382/4/5 372/4/5 381/4/5
f 382/1/5 377/1/5 376/1/5
f 383/5/5 380/5/5 379/5/5
f 384/1/5 381/1/5 380/1/5
f 384/5/5 380/5/5 383/5/5
f 384/1/5 382/1/5 381/1/5
f 385/1/5 382/1/5 384/1/5
f 386/1/5 360/1/5 377/1/5
f 386/1/5 382/1/5 385/1/5
f 386/1/5 377/1/5 382/1/5
f 387/1/5 360/1/5 386/1/5
f 388/1/5 310/1/5 360/1/5
f 388/1/5 360/1/5 387/1/5
f 389/2/5 311/2/5 310/2/5
f 389/1/5 310/1/5 388/1/5
f 390/3/5 313/3/5 312/3/5
f 390/2/5 311/2/5 389/2/5
f 390/3/5 312/3/5 311/3/5
f 391/3/5 313/3/5 390/3/5
f 392/5/5 314/5/5 313/5/5
f 392/3/5 313/3/5 391/3/5
f 393/5/5 314/5/5 392/5/5
f 394/5/5 385/5/5 384/5/5
f 395/1/5 386/1/5 385/1/5
f 395/5/5 385/5/5 394/5/5
f 396/1/5 386/1/5 395/1/5
f 397/5/5 396/5/5 395/5/5
f 398/1/5 386/1/5 396/1/5
f 398/5/5 396/5/5 397/5/5
f 399/1/5 386/1/5 398/1/5
f 400/4/5 387/4/5 386/4/5
f 400/1/5 386/1/5 399/1/5
f 401/1/5 388/1/5 387/1/5
f 401/4/5 387/4/5 400/4/5
f 402/5/5 399/5/5 398/5/5
f 403/1/5 400/1/5 399/1/5
f 403/5/5 399/5/5 402/5/5
f 403/1/5 401/1/5 400/1/5
f 404/1/5 401/1/5 403/1/5
f 405/1/5 388/1/5 401/1/5
f 405/1/5 401/1/5 404/1/5
f 406/2/5 389/2/5 388/2/5
f 406/1/5 388/1/5 405/1/5
f 407/3/5 391/3/5 390/3/5
f 407/2/5 389/2/5 406/2/5
f 407/3/5 390/3/5 389/3/5
f 408/3/5 391/3/5 407/3/5
f 409/5/5 392/5/5 391/5/5
f 409/3/5 391/3/5 408/3/5
f 410/5/5 392/5/5 409/5/5
f 411/5/5 404/5/5 403/5/5
f 412/1/5 405/1/5 404/1/5
f 412/5/5 404/5/5 411/5/5
f 413/1/5 405/1/5 412/1/5
f 414/5/5 413/5/5 412/5/5
f 415/1/5 405/1/5 413/1/5
f 415/5/5 413/5/5 414/5/5
f 416/1/5 405/1/5 415/1/5
f 417/5/5 416/5/5 415/5/5
f 418/1/5 405/1/5 416/1/5
f 418/5/5 416/5/5 417/5/5
f 419/2/5 406/2/5 405/2/5
f 419/1/5 405/1/5 418/1/5
f 420/3/5 408/3/5 407/3/5
f 420/2/5 406/2/5 419/2/5
f 420/3/5 407/3/5 406/3/5
f 421/5/5 409/5/5 408/5/5
f 421/3/5 408/3/5 420/3/5
f 422/5/5 409/5/5 421/5/5
f 423/5/5 419/5/5 418/5/5
f 423/5/5 421/5/5 420/5/5
f 423/5/5 420/5/5 419/5/5
f 424/5/5 421/5/5 423/5/5
f 425/5/6 426/5/6 428/5/6
f 428/5/6 426/5/6 429/5/6
f 429/5/6 426/5/6 430/5/6
f 430/5/6 426/5/6 431/5/6
f 431/5/6 426/5/6 432/5/6
f 427/5/6 428/5/6 435/5/6
f 428/1/6 429/1/6 436/1/6
f 435/5/6 428/5/6 436/5/6
f 432/5/6 433/5/6 437/5/6
f 430/3/6 431/3/6 437/3/6
f 431/5/6 432/5/6 437/5/6
f 437/5/6 433/5/6 438/5/6
f 434/5/6 435/5/6 440/5/6
f 435/1/6 436/1/6 441/1/6
f 440/5/6 435/5/6 441/5/6
f 439/5/6 440/5/6 443/5/6
f 440/1/6 441/1/6 444/1/6
f 443/5/6 440/5/6 444/5/6
f 436/1/6 429/1/6 445/1/6
f 444/1/6 441/1/6 445/1/6
f 429/2/6 430/2/6 445/2/6
f 441/1/6 436/1/6 445/1/6
f 430/3/6 437/3/6 446/3/6
f 445/2/6 430/2/6 446/2/6
f 437/3/6 438/3/6 446/3/6
f 446/3/6 438/3/6 447/3/6
f 438/5/6 433/5/6 448/5/6
f 447/3/6 438/3/6 448/3/6
f 448/5/6 433/5/6 449/5/6
f 442/5/6 443/5/6 452/5/6
f 443/1/6 444/1/6 453/1/6
f 444/1/6 445/1/6 453/1/6
f 452/5/6 443/5/6 453/5/6
f 445/1/6 446/1/6 453/1/6
f 453/1/6 446/1/6 454/1/6
f 454/1/6 446/1/6 455/1/6
f 451/5/6 452/5/6 457/5/6
f 452/1/6 453/1/6 458/1/6
f 453/1/6 454/1/6 458/1/6
f 457/5/6 452/5/6 458/5/6
f 456/5/6 457/5/6 460/5/6
f 457/1/6 458/1/6 461/1/6
f 460/5/6 457/5/6 461/5/6
f 458/1/6 454/1/6 462/1/6
f 461/1/6 458/1/6 462/1/6
f 454/4/6 455/4/6 462/4/6
f 455/1/6 446/1/6 463/1/6
f 462/4/6 455/4/6 463/4/6
f 446/2/6 447/2/6 464/2/6
f 463/1/6 446/1/6 464/1/6
f 448/3/6 449/3/6 465/3/6
f 464/2/6 447/2/6 465/2/6
f 447/3/6 448/3/6 465/3/6
f 465/3/6 449/3/6 466/3/6
f 449/5/6 450/5/6 467/5/6
f 466/3/6 449/3/6 467/3/6
f 467/5/6 450/5/6 468/5/6
f 459/5/6 460/5/6 471/5/6
f 461/1/6 462/1/6 472/1/6
f 462/1/6 463/1/6 472/1/6
f 471/5/6 460/5/6 472/5/6
f 463/1/6 464/1/6 472/1/6
f 460/1/6 461/1/6 472/1/6
f 464/1/6 465/1/6 472/1/6
f 472/1/6 465/1/6 473/1/6
f 473/1/6 465/1/6 474/1/6
f 470/5/6 471/5/6 476/5/6
f 471/1/6 472/1/6 477/1/6
f 472/1/6 473/1/6 477/1/6
f 476/5/6 471/5/6 477/5/6
f 477/1/6 473/1/6 478/1/6
f 478/1/6 473/1/6 479/1/6
f 475/5/6 476/5/6 481/5/6
f 476/1/6 477/1/6 482/1/6
f 477/1/6 478/1/6 482/1/6
f 481/5/6 476/5/6 482/5/6
f 479/1/6 473/1/6 483/1/6
f 473/4/6 474/4/6 483/4/6
f 474/1/6 465/1/6 484/1/6
f 483/4/6 474/4/6 484/4/6
f 480/5/6 481/5/6 486/5/6
f 481/1/6 482/1/6 487/1/6
f 486/5/6 481/5/6 487/5/6
f 482/1/6 478/1/6 488/1/6
f 487/1/6 482/1/6 488/1/6
f 478/4/6 479/4/6 488/4/6
f 479/1/6 483/1/6 489/1/6
f 488/4/6 479/4/6 489/4/6
f 483/1/6 484/1/6 489/1/6
f 485/5/6 486/5/6 491/5/6
f 487/1/6 488/1/6 492/1/6
f 486/1/6 487/1/6 492/1/6
f 491/5/6 486/5/6 492/5/6
f 488/1/6 489/1/6 492/1/6
f 489/1/6 484/1/6 493/1/6
f 492/1/6 489/1/6 493/1/6
f 484/1/6 465/1/6 494/1/6
f 493/1/6 484/1/6 494/1/6
f 490/5/6 491/5/6 496/5/6
f 491/1/6 492/1/6 497/1/6
f 492/1/6 493/1/6 497/1/6
f 496/5/6 491/5/6 497/5/6
f 497/1/6 493/1/6 498/1/6
f 498/1/6 493/1/6 499/1/6
f 493/4/6 494/4/6 500/4/6
f 499/1/6 493/1/6 500/1/6
f 494/1/6 465/1/6 501/1/6
f 500/4/6 494/4/6 501/4/6
f 501/1/6 465/1/6 502/1/6
f 502/1/6 465/1/6 503/1/6
f 495/5/6 496/5/6 504/5/6
f 496/1/6 497/1/6 505/1/6
f 504/5/6 496/5/6 505/5/6
f 497/1/6 498/1/6 505/1/6
f 505/1/6 498/1/6 506/1/6
f 498/4/6 499/4/6 507/4/6
f 506/1/6 498/1/6 507/1/6
f 499/1/6 500/1/6 508/1/6
f 507/4/6 499/4/6 508/4/6
f 500/1/6 501/1/6 508/1/6
f 501/1/6 502/1/6 508/1/6
f 508/1/6 502/1/6 509/1/6
f 509/1/6 502/1/6 510/1/6
f 505/5/6 506/5/6 511/5/6
f 506/1/6 507/1/6 512/1/6
f 511/5/6 506/5/6 512/5/6
f 507/1/6 508/1/6 512/1/6
f 508/1/6 509/1/6 512/1/6
f 512/1/6 509/1/6 513/1/6
f 510/1/6 502/1/6 514/1/6
f 502/4/6 503/4/6 514/4/6
f 503/1/6 465/1/6 515/1/6
f 514/4/6 503/4/6 515/4/6
f 512/5/6 513/5/6 516/5/6
f 513/1/6 509/1/6 517/1/6
f 516/5/6 513/5/6 517/5/6
f 517/1/6 509/1/6 518/1/6
f 509/4/6 510/4/6 519/4/6
f 518/1/6 509/1/6 519/1/6
f 510/1/6 514/1/6 520/1/6
f 519/4/6 510/4/6 520/4/6
f 514/1/6 515/1/6 520/1/6
f 520/1/6 515/1/6 521/1/6
f 521/1/6 515/1/6 522/1/6
f 517/5/6 518/5/6 523/5/6
f 518/1/6 519/1/6 524/1/6
f 523/5/6 518/5/6 524/5/6
f 519/1/6 520/1/6 524/1/6
f 520/1/6 521/1/6 524/1/6
f 524/1/6 521/1/6 525/1/6
f 525/1/6 521/1/6 526/1/6
f 526/1/6 521/1/6 527/1/6
f 524/5/6 525/5/6 528/5/6
f 525/1/6 526/1/6 529/1/6
f 528/5/6 525/5/6 529/5/6
f 529/1/6 526/1/6 530/1/6
f 521/4/6 522/4/6 531/4/6
f 527/1/6 521/1/6 531/1/6
f 522/1/6 515/1/6 532/1/6
f 531/4/6 522/4/6 532/4/6
f 529/5/6 530/5/6 533/5/6
f 530/1/6 526/1/6 534/1/6
f 533/5/6 530/5/6 534/5/6
f 534/1/6 526/1/6 535/1/6
f 526/4/6 527/4/6 536/4/6
f 535/1/6 526/1/6 536/1/6
f 527/1/6 531/1/6 537/1/6
f 536/4/6 527/4/6 537/4/6
f 531/1/6 532/1/6 537/1/6
f 534/5/6 535/5/6 538/5/6
f 535/1/6 536/1/6 539/1/6
f 538/5/6 535/5/6 539/5/6
f 536/1/6 537/1/6 539/1/6
f 539/1/6 537/1/6 540/1/6
f 532/1/6 515/1/6 541/1/6
f 540/1/6 537/1/6 541/1/6
f 537/1/6 532/1/6 541/1/6
f 541/1/6 515/1/6 542/1/6
f 515/1/6 465/1/6 543/1/6
f 542/1/6 515/1/6 543/1/6
f 465/2/6 466/2/6 544/2/6
f 543/1/6 465/1/6 544/1/6
f 467/3/6 468/3/6 545/3/6
f 544/2/6 466/2/6 545/2/6
f 466/3/6 467/3/6 545/3/6
f 545/3/6 468/3/6 546/3/6
f 468/5/6 469/5/6 547/5/6
f 546/3/6 468/3/6 547/3/6
f 547/5/6 469/5/6 548/5/6
f 539/5/6 540/5/6 549/5/6
f 540/1/6 541/1/6 550/1/6
f 549/5/6 540/5/6 550/5/6
f 550/1/6 541/1/6 551/1/6
f 550/5/6 551/5/6 552/5/6
f 551/1/6 541/1/6 553/1/6
f 552/5/6 551/5/6 553/5/6
f 553/1/6 541/1/6 554/1/6
f 541/4/6 542/4/6 555/4/6
f 554/1/6 541/1/6 555/1/6
f 542/1/6 543/1/6 556/1/6
f 555/4/6 542/4/6 556/4/6
f 553/5/6 554/5/6 557/5/6
f 554/1/6 555/1/6 558/1/6
f 557/5/6 554/5/6 558/5/6
f 555/1/6 556/1/6 558/1/6
f 558/1/6 556/1/6 559/1/6
f 556/1/6 543/1/6 560/1/6
f 559/1/6 556/1/6 560/1/6
f 543/2/6 544/2/6 561/2/6
f 560/1/6 543/1/6 561/1/6
f 545/3/6 546/3/6 562/3/6
f 561/2/6 544/2/6 562/2/6
f 544/3/6 545/3/6 562/3/6
f 562/3/6 546/3/6 563/3/6
f 546/5/6 547/5/6 564/5/6
f 563/3/6 546/3/6 564/3/6
f 564/5/6 547/5/6 565/5/6
f 558/5/6 559/5/6 566/5/6
f 559/1/6 560/1/6 567/1/6
f 566/5/6 559/5/6 567/5/6
f 567/1/6 560/1/6 568/1/6
f 567/5/6 568/5/6 569/5/6
f 568/1/6 560/1/6 570/1/6
f 569/5/6 568/5/6 570/5/6
f 570/1/6 560/1/6 571/1/6
f 570/5/6 571/5/6 572/5/6
f 571/1/6 560/1/6 573/1/6
f 572/5/6 571/5/6 573/5/6
f 560/2/6 561/2/6 574/2/6
f 573/1/6 560/1/6 574/1/6
f 562/3/6 563/3/6 575/3/6
f 574/2/6 561/2/6 575/2/6
f 561/3/6 562/3/6 575/3/6
f 563/5/6 564/5/6 576/5/6
f 575/3/6 563/3/6 576/3/6
f 576/5/6 564/5/6 577/5/6
f 573/5/6 574/5/6 578/5/6
f 575/5/6 576/5/6 578/5/6
f 574/5/6 575/5/6 578/5/6
f 578/5/6 576/5/6 579/5/6
