# MagicaVoxel @ Ephtracy

# group
o 

# material
mtllib VR Токарев картина.mtl
usemtl palette

# normals
vn -1 0 0
vn 1 0 0
vn 0 0 1
vn 0 0 -1
vn 0 -1 0
vn 0 1 0

# texcoords
vt 0.0449219 0.5
vt 0.228516 0.5
vt 0.267578 0.5
vt 0.279297 0.5
vt 0.369141 0.5
vt 0.373047 0.5
vt 0.564453 0.5
vt 0.568359 0.5
vt 0.662109 0.5
vt 0.751953 0.5
vt 0.755859 0.5
vt 0.771484 0.5
vt 0.845703 0.5
vt 0.849609 0.5
vt 0.900391 0.5
vt 0.904297 0.5
vt 0.958984 0.5
vt 0.962891 0.5
vt 0.966797 0.5
vt 0.990234 0.5

# verts
v -1.1 0.9 -1.8
v -1.1 0.9 -2
v -1.1 3.1 -1.8
v -1.1 3.1 -2
v 1.1 0.9 -1.8
v 1.1 0.9 -2
v 1.1 3.1 -1.8
v 1.1 3.1 -2
v -1.1 0.9 -1.8
v -1.1 3.1 -1.8
v -1 1 -1.8
v -1 1.2 -1.8
v -1 1.3 -1.8
v -1 1.4 -1.8
v -1 2.7 -1.8
v -1 2.8 -1.8
v -1 3 -1.8
v -0.9 1.3 -1.8
v -0.9 1.4 -1.8
v -0.9 1.6 -1.8
v -0.9 1.7 -1.8
v -0.9 2 -1.8
v -0.9 2.2 -1.8
v -0.9 2.4 -1.8
v -0.9 2.5 -1.8
v -0.9 2.8 -1.8
v -0.9 2.9 -1.8
v -0.8 1 -1.8
v -0.8 1.1 -1.8
v -0.8 1.2 -1.8
v -0.8 1.3 -1.8
v -0.8 1.4 -1.8
v -0.8 1.5 -1.8
v -0.8 1.6 -1.8
v -0.8 1.7 -1.8
v -0.8 1.8 -1.8
v -0.8 2 -1.8
v -0.8 2.1 -1.8
v -0.8 2.3 -1.8
v -0.8 2.4 -1.8
v -0.8 2.5 -1.8
v -0.8 2.7 -1.8
v -0.8 2.8 -1.8
v -0.8 2.9 -1.8
v -0.7 1.2 -1.8
v -0.7 1.3 -1.8
v -0.7 1.4 -1.8
v -0.7 1.5 -1.8
v -0.7 1.7 -1.8
v -0.7 1.8 -1.8
v -0.7 1.9 -1.8
v -0.7 2 -1.8
v -0.7 2.3 -1.8
v -0.7 2.4 -1.8
v -0.7 2.5 -1.8
v -0.7 2.7 -1.8
v -0.6 1.3 -1.8
v -0.6 1.4 -1.8
v -0.6 1.8 -1.8
v -0.6 1.9 -1.8
v -0.6 2 -1.8
v -0.6 2.2 -1.8
v -0.6 2.3 -1.8
v -0.6 2.4 -1.8
v -0.6 2.5 -1.8
v -0.6 2.6 -1.8
v -0.6 2.7 -1.8
v -0.6 2.8 -1.8
v -0.6 2.9 -1.8
v -0.5 1.2 -1.8
v -0.5 1.3 -1.8
v -0.5 1.4 -1.8
v -0.5 1.5 -1.8
v -0.5 1.8 -1.8
v -0.5 1.9 -1.8
v -0.5 2 -1.8
v -0.5 2.1 -1.8
v -0.5 2.2 -1.8
v -0.5 2.3 -1.8
v -0.5 2.7 -1.8
v -0.5 2.8 -1.8
v -0.5 2.9 -1.8
v -0.4 1 -1.8
v -0.4 1.1 -1.8
v -0.4 1.2 -1.8
v -0.4 1.3 -1.8
v -0.4 1.4 -1.8
v -0.4 1.5 -1.8
v -0.4 1.9 -1.8
v -0.4 2 -1.8
v -0.4 2.1 -1.8
v -0.4 2.2 -1.8
v -0.4 2.3 -1.8
v -0.4 2.6 -1.8
v -0.4 2.7 -1.8
v -0.4 2.8 -1.8
v -0.4 2.9 -1.8
v -0.3 1.3 -1.8
v -0.3 1.4 -1.8
v -0.3 1.5 -1.8
v -0.3 1.6 -1.8
v -0.3 1.7 -1.8
v -0.3 1.8 -1.8
v -0.3 2.2 -1.8
v -0.3 2.3 -1.8
v -0.3 2.5 -1.8
v -0.3 2.6 -1.8
v -0.3 2.7 -1.8
v -0.3 2.8 -1.8
v -0.3 2.9 -1.8
v -0.2 1.3 -1.8
v -0.2 1.4 -1.8
v -0.2 1.5 -1.8
v -0.2 1.6 -1.8
v -0.2 1.7 -1.8
v -0.2 1.8 -1.8
v -0.2 1.9 -1.8
v -0.2 2.1 -1.8
v -0.2 2.2 -1.8
v -0.2 2.3 -1.8
v -0.2 2.6 -1.8
v -0.2 2.7 -1.8
v -0.2 2.8 -1.8
v -0.2 2.9 -1.8
v -0.1 1.1 -1.8
v -0.1 1.3 -1.8
v -0.1 1.4 -1.8
v -0.1 1.5 -1.8
v -0.1 1.9 -1.8
v -0.1 2 -1.8
v -0.1 2.1 -1.8
v -0.1 2.2 -1.8
v -0.1 2.5 -1.8
v -0.1 2.6 -1.8
v -0.1 2.7 -1.8
v 0 1.8 -1.8
v 0 1.9 -1.8
v 0 2 -1.8
v 0 2.1 -1.8
v 0 2.2 -1.8
v 0 2.3 -1.8
v 0 2.7 -1.8
v 0 2.8 -1.8
v 0.1 1 -1.8
v 0.1 1.1 -1.8
v 0.1 1.3 -1.8
v 0.1 1.4 -1.8
v 0.1 1.9 -1.8
v 0.1 2 -1.8
v 0.1 2.1 -1.8
v 0.1 2.3 -1.8
v 0.1 2.4 -1.8
v 0.1 2.5 -1.8
v 0.1 2.6 -1.8
v 0.1 2.7 -1.8
v 0.1 2.8 -1.8
v 0.1 2.9 -1.8
v 0.2 1.3 -1.8
v 0.2 1.4 -1.8
v 0.2 1.5 -1.8
v 0.2 1.7 -1.8
v 0.2 1.8 -1.8
v 0.2 2 -1.8
v 0.2 2.1 -1.8
v 0.2 2.2 -1.8
v 0.2 2.3 -1.8
v 0.2 2.5 -1.8
v 0.2 2.6 -1.8
v 0.2 2.7 -1.8
v 0.2 2.8 -1.8
v 0.3 1.6 -1.8
v 0.3 1.7 -1.8
v 0.3 1.8 -1.8
v 0.3 1.9 -1.8
v 0.3 2.1 -1.8
v 0.3 2.2 -1.8
v 0.3 2.3 -1.8
v 0.3 2.4 -1.8
v 0.3 2.8 -1.8
v 0.3 2.9 -1.8
v 0.4 1 -1.8
v 0.4 1.1 -1.8
v 0.4 1.2 -1.8
v 0.4 1.4 -1.8
v 0.4 1.5 -1.8
v 0.4 1.6 -1.8
v 0.4 1.7 -1.8
v 0.4 1.8 -1.8
v 0.4 1.9 -1.8
v 0.4 2 -1.8
v 0.4 2.1 -1.8
v 0.4 2.2 -1.8
v 0.4 2.3 -1.8
v 0.4 2.5 -1.8
v 0.4 2.6 -1.8
v 0.4 2.8 -1.8
v 0.4 2.9 -1.8
v 0.5 1.3 -1.8
v 0.5 1.5 -1.8
v 0.5 1.7 -1.8
v 0.5 1.8 -1.8
v 0.5 1.9 -1.8
v 0.5 2 -1.8
v 0.5 2.1 -1.8
v 0.5 2.2 -1.8
v 0.5 2.9 -1.8
v 0.5 3 -1.8
v 0.6 1.3 -1.8
v 0.6 1.7 -1.8
v 0.6 1.8 -1.8
v 0.6 1.9 -1.8
v 0.6 2 -1.8
v 0.6 2.1 -1.8
v 0.6 2.2 -1.8
v 0.6 2.3 -1.8
v 0.6 2.6 -1.8
v 0.6 2.7 -1.8
v 0.6 2.8 -1.8
v 0.6 2.9 -1.8
v 0.6 3 -1.8
v 0.7 1.1 -1.8
v 0.7 1.2 -1.8
v 0.7 1.7 -1.8
v 0.7 1.8 -1.8
v 0.7 1.9 -1.8
v 0.7 2 -1.8
v 0.7 2.1 -1.8
v 0.7 2.2 -1.8
v 0.7 2.5 -1.8
v 0.7 2.6 -1.8
v 0.8 1.2 -1.8
v 0.8 1.3 -1.8
v 0.8 1.7 -1.8
v 0.8 1.8 -1.8
v 0.8 1.9 -1.8
v 0.8 2 -1.8
v 0.8 2.1 -1.8
v 0.8 2.8 -1.8
v 0.8 2.9 -1.8
v 0.8 3 -1.8
v 0.9 1.2 -1.8
v 0.9 1.3 -1.8
v 0.9 1.4 -1.8
v 0.9 1.9 -1.8
v 0.9 2 -1.8
v 0.9 2.6 -1.8
v 0.9 2.7 -1.8
v 0.9 2.8 -1.8
v 0.9 2.9 -1.8
v 1 1 -1.8
v 1 1.4 -1.8
v 1 3 -1.8
v 1.1 0.9 -1.8
v 1.1 3.1 -1.8
v -1.1 0.9 -2
v -1.1 3.1 -2
v 1.1 0.9 -2
v 1.1 3.1 -2
v -1.1 0.9 -1.8
v 1.1 0.9 -1.8
v -1.1 0.9 -2
v 1.1 0.9 -2
v -1.1 3.1 -1.8
v 1.1 3.1 -1.8
v -1.1 3.1 -2
v 1.1 3.1 -2

# faces
f 3/5/1 2/5/1 1/5/1
f 4/5/1 2/5/1 3/5/1
f 5/5/2 6/5/2 7/5/2
f 7/5/2 6/5/2 8/5/2
f 11/5/3 10/5/3 9/5/3
f 12/5/3 10/5/3 11/5/3
f 13/5/3 10/5/3 12/5/3
f 14/5/3 10/5/3 13/5/3
f 15/5/3 10/5/3 14/5/3
f 16/5/3 10/5/3 15/5/3
f 17/5/3 10/5/3 16/5/3
f 18/15/3 13/15/3 12/15/3
f 18/12/3 14/12/3 13/12/3
f 19/10/3 15/10/3 14/10/3
f 19/12/3 14/12/3 18/12/3
f 20/10/3 15/10/3 19/10/3
f 21/10/3 15/10/3 20/10/3
f 22/10/3 15/10/3 21/10/3
f 23/10/3 15/10/3 22/10/3
f 24/10/3 15/10/3 23/10/3
f 25/10/3 15/10/3 24/10/3
f 26/10/3 17/10/3 16/10/3
f 26/17/3 16/17/3 15/17/3
f 27/10/3 17/10/3 26/10/3
f 28/5/3 11/5/3 9/5/3
f 28/12/3 12/12/3 11/12/3
f 29/12/3 12/12/3 28/12/3
f 30/15/3 18/15/3 12/15/3
f 30/12/3 12/12/3 29/12/3
f 31/4/3 19/4/3 18/4/3
f 31/15/3 18/15/3 30/15/3
f 32/10/3 20/10/3 19/10/3
f 32/4/3 19/4/3 31/4/3
f 33/10/3 20/10/3 32/10/3
f 34/11/3 21/11/3 20/11/3
f 34/10/3 20/10/3 33/10/3
f 35/10/3 22/10/3 21/10/3
f 35/11/3 21/11/3 34/11/3
f 36/10/3 22/10/3 35/10/3
f 37/11/3 23/11/3 22/11/3
f 37/10/3 22/10/3 36/10/3
f 38/11/3 23/11/3 37/11/3
f 39/10/3 24/10/3 23/10/3
f 40/20/3 25/20/3 24/20/3
f 40/10/3 24/10/3 39/10/3
f 41/10/3 15/10/3 25/10/3
f 41/20/3 25/20/3 40/20/3
f 42/17/3 26/17/3 15/17/3
f 42/10/3 15/10/3 41/10/3
f 43/18/3 27/18/3 26/18/3
f 43/17/3 26/17/3 42/17/3
f 44/10/3 17/10/3 27/10/3
f 44/18/3 27/18/3 43/18/3
f 45/12/3 30/12/3 29/12/3
f 45/16/3 31/16/3 30/16/3
f 46/1/3 32/1/3 31/1/3
f 46/16/3 31/16/3 45/16/3
f 47/4/3 33/4/3 32/4/3
f 47/1/3 32/1/3 46/1/3
f 48/10/3 34/10/3 33/10/3
f 48/4/3 33/4/3 47/4/3
f 48/10/3 35/10/3 34/10/3
f 49/11/3 36/11/3 35/11/3
f 49/10/3 35/10/3 48/10/3
f 50/10/3 38/10/3 37/10/3
f 50/11/3 36/11/3 49/11/3
f 50/10/3 37/10/3 36/10/3
f 51/10/3 38/10/3 50/10/3
f 52/10/3 38/10/3 51/10/3
f 53/20/3 40/20/3 39/20/3
f 53/10/3 39/10/3 23/10/3
f 54/10/3 42/10/3 41/10/3
f 54/20/3 40/20/3 53/20/3
f 54/10/3 41/10/3 40/10/3
f 55/10/3 42/10/3 54/10/3
f 56/18/3 43/18/3 42/18/3
f 56/10/3 42/10/3 55/10/3
f 57/12/3 46/12/3 45/12/3
f 57/4/3 47/4/3 46/4/3
f 58/10/3 48/10/3 47/10/3
f 58/4/3 47/4/3 57/4/3
f 58/10/3 51/10/3 50/10/3
f 58/10/3 49/10/3 48/10/3
f 58/10/3 50/10/3 49/10/3
f 59/10/3 51/10/3 58/10/3
f 60/20/3 52/20/3 51/20/3
f 60/10/3 51/10/3 59/10/3
f 61/10/3 38/10/3 52/10/3
f 61/20/3 52/20/3 60/20/3
f 62/10/3 53/10/3 23/10/3
f 62/11/3 23/11/3 38/11/3
f 62/10/3 54/10/3 53/10/3
f 63/10/3 54/10/3 62/10/3
f 64/20/3 55/20/3 54/20/3
f 64/10/3 54/10/3 63/10/3
f 65/11/3 56/11/3 55/11/3
f 65/20/3 55/20/3 64/20/3
f 66/11/3 56/11/3 65/11/3
f 67/18/3 43/18/3 56/18/3
f 67/11/3 56/11/3 66/11/3
f 68/19/3 44/19/3 43/19/3
f 68/18/3 43/18/3 67/18/3
f 69/10/3 17/10/3 44/10/3
f 69/19/3 44/19/3 68/19/3
f 70/12/3 57/12/3 45/12/3
f 70/12/3 45/12/3 29/12/3
f 71/3/3 58/3/3 57/3/3
f 71/12/3 57/12/3 70/12/3
f 72/10/3 59/10/3 58/10/3
f 72/3/3 58/3/3 71/3/3
f 73/10/3 59/10/3 72/10/3
f 74/20/3 60/20/3 59/20/3
f 74/10/3 59/10/3 73/10/3
f 75/10/3 61/10/3 60/10/3
f 75/20/3 60/20/3 74/20/3
f 76/10/3 38/10/3 61/10/3
f 76/10/3 61/10/3 75/10/3
f 77/11/3 63/11/3 62/11/3
f 77/10/3 38/10/3 76/10/3
f 77/11/3 62/11/3 38/11/3
f 78/11/3 63/11/3 77/11/3
f 79/10/3 66/10/3 65/10/3
f 79/11/3 63/11/3 78/11/3
f 79/10/3 64/10/3 63/10/3
f 79/10/3 65/10/3 64/10/3
f 80/19/3 68/19/3 67/19/3
f 80/11/3 67/11/3 66/11/3
f 81/10/3 69/10/3 68/10/3
f 81/19/3 68/19/3 80/19/3
f 82/10/3 17/10/3 69/10/3
f 82/10/3 69/10/3 81/10/3
f 83/15/3 29/15/3 28/15/3
f 83/5/3 28/5/3 9/5/3
f 84/12/3 70/12/3 29/12/3
f 84/15/3 29/15/3 83/15/3
f 85/16/3 71/16/3 70/16/3
f 85/12/3 70/12/3 84/12/3
f 86/1/3 72/1/3 71/1/3
f 86/16/3 71/16/3 85/16/3
f 87/3/3 73/3/3 72/3/3
f 87/1/3 72/1/3 86/1/3
f 88/10/3 75/10/3 74/10/3
f 88/3/3 73/3/3 87/3/3
f 88/10/3 74/10/3 73/10/3
f 89/20/3 76/20/3 75/20/3
f 89/10/3 75/10/3 88/10/3
f 90/10/3 77/10/3 76/10/3
f 90/20/3 76/20/3 89/20/3
f 91/17/3 78/17/3 77/17/3
f 91/10/3 77/10/3 90/10/3
f 92/10/3 79/10/3 78/10/3
f 92/17/3 78/17/3 91/17/3
f 93/10/3 66/10/3 79/10/3
f 93/10/3 79/10/3 92/10/3
f 94/11/3 80/11/3 66/11/3
f 94/10/3 66/10/3 93/10/3
f 95/10/3 81/10/3 80/10/3
f 95/11/3 80/11/3 94/11/3
f 96/20/3 82/20/3 81/20/3
f 96/10/3 81/10/3 95/10/3
f 97/10/3 17/10/3 82/10/3
f 97/20/3 82/20/3 96/20/3
f 98/3/3 87/3/3 86/3/3
f 98/12/3 86/12/3 85/12/3
f 98/12/3 84/12/3 83/12/3
f 98/12/3 85/12/3 84/12/3
f 99/9/3 88/9/3 87/9/3
f 99/3/3 87/3/3 98/3/3
f 100/10/3 91/10/3 90/10/3
f 100/9/3 88/9/3 99/9/3
f 100/10/3 90/10/3 89/10/3
f 100/10/3 89/10/3 88/10/3
f 101/10/3 91/10/3 100/10/3
f 102/10/3 91/10/3 101/10/3
f 103/10/3 91/10/3 102/10/3
f 104/18/3 93/18/3 92/18/3
f 104/18/3 92/18/3 91/18/3
f 105/10/3 95/10/3 94/10/3
f 105/18/3 93/18/3 104/18/3
f 105/10/3 94/10/3 93/10/3
f 106/10/3 95/10/3 105/10/3
f 107/10/3 95/10/3 106/10/3
f 108/20/3 96/20/3 95/20/3
f 108/10/3 95/10/3 107/10/3
f 109/10/3 97/10/3 96/10/3
f 109/20/3 96/20/3 108/20/3
f 110/10/3 17/10/3 97/10/3
f 110/10/3 97/10/3 109/10/3
f 111/12/3 98/12/3 83/12/3
f 111/16/3 99/16/3 98/16/3
f 112/1/3 100/1/3 99/1/3
f 112/16/3 99/16/3 111/16/3
f 113/9/3 101/9/3 100/9/3
f 113/1/3 100/1/3 112/1/3
f 114/10/3 102/10/3 101/10/3
f 114/9/3 101/9/3 113/9/3
f 115/11/3 103/11/3 102/11/3
f 115/10/3 102/10/3 114/10/3
f 116/10/3 91/10/3 103/10/3
f 116/11/3 103/11/3 115/11/3
f 117/10/3 91/10/3 116/10/3
f 118/18/3 104/18/3 91/18/3
f 118/10/3 91/10/3 117/10/3
f 119/19/3 105/19/3 104/19/3
f 119/18/3 104/18/3 118/18/3
f 120/10/3 106/10/3 105/10/3
f 120/19/3 105/19/3 119/19/3
f 121/10/3 109/10/3 108/10/3
f 121/10/3 108/10/3 107/10/3
f 121/17/3 107/17/3 106/17/3
f 122/10/3 109/10/3 121/10/3
f 123/20/3 110/20/3 109/20/3
f 123/10/3 109/10/3 122/10/3
f 124/10/3 17/10/3 110/10/3
f 124/20/3 110/20/3 123/20/3
f 125/12/3 111/12/3 83/12/3
f 125/12/3 112/12/3 111/12/3
f 126/12/3 112/12/3 125/12/3
f 127/9/3 113/9/3 112/9/3
f 127/12/3 112/12/3 126/12/3
f 128/10/3 116/10/3 115/10/3
f 128/9/3 113/9/3 127/9/3
f 128/10/3 115/10/3 114/10/3
f 128/10/3 114/10/3 113/10/3
f 129/11/3 117/11/3 116/11/3
f 129/10/3 118/10/3 117/10/3
f 130/10/3 118/10/3 129/10/3
f 131/19/3 119/19/3 118/19/3
f 131/10/3 118/10/3 130/10/3
f 132/10/3 120/10/3 119/10/3
f 132/19/3 119/19/3 131/19/3
f 133/10/3 106/10/3 120/10/3
f 133/10/3 120/10/3 132/10/3
f 133/17/3 121/17/3 106/17/3
f 134/18/3 122/18/3 121/18/3
f 134/17/3 121/17/3 133/17/3
f 135/10/3 123/10/3 122/10/3
f 135/18/3 122/18/3 134/18/3
f 135/10/3 124/10/3 123/10/3
f 136/11/3 129/11/3 116/11/3
f 136/10/3 116/10/3 128/10/3
f 136/11/3 130/11/3 129/11/3
f 136/10/3 128/10/3 127/10/3
f 137/11/3 130/11/3 136/11/3
f 138/10/3 132/10/3 131/10/3
f 138/11/3 130/11/3 137/11/3
f 138/10/3 131/10/3 130/10/3
f 138/10/3 133/10/3 132/10/3
f 139/10/3 133/10/3 138/10/3
f 140/10/3 133/10/3 139/10/3
f 141/10/3 133/10/3 140/10/3
f 142/10/3 124/10/3 135/10/3
f 142/19/3 135/19/3 134/19/3
f 143/10/3 124/10/3 142/10/3
f 144/12/3 125/12/3 83/12/3
f 144/5/3 83/5/3 9/5/3
f 145/15/3 126/15/3 125/15/3
f 145/12/3 125/12/3 144/12/3
f 146/12/3 127/12/3 126/12/3
f 146/15/3 126/15/3 145/15/3
f 147/10/3 137/10/3 136/10/3
f 147/12/3 127/12/3 146/12/3
f 147/10/3 136/10/3 127/10/3
f 148/11/3 138/11/3 137/11/3
f 148/10/3 137/10/3 147/10/3
f 148/11/3 139/11/3 138/11/3
f 149/11/3 139/11/3 148/11/3
f 150/10/3 140/10/3 139/10/3
f 150/11/3 139/11/3 149/11/3
f 151/10/3 133/10/3 141/10/3
f 151/11/3 141/11/3 140/11/3
f 152/10/3 133/10/3 151/10/3
f 153/18/3 134/18/3 133/18/3
f 153/10/3 133/10/3 152/10/3
f 154/19/3 142/19/3 134/19/3
f 154/18/3 134/18/3 153/18/3
f 155/11/3 143/11/3 142/11/3
f 155/19/3 142/19/3 154/19/3
f 156/10/3 124/10/3 143/10/3
f 156/11/3 143/11/3 155/11/3
f 157/10/3 17/10/3 124/10/3
f 157/10/3 124/10/3 156/10/3
f 158/12/3 146/12/3 145/12/3
f 158/6/3 147/6/3 146/6/3
f 158/6/3 148/6/3 147/6/3
f 159/6/3 148/6/3 158/6/3
f 160/6/3 148/6/3 159/6/3
f 161/6/3 148/6/3 160/6/3
f 162/6/3 148/6/3 161/6/3
f 163/10/3 150/10/3 149/10/3
f 163/14/3 149/14/3 148/14/3
f 164/10/3 140/10/3 150/10/3
f 164/10/3 150/10/3 163/10/3
f 165/11/3 152/11/3 151/11/3
f 165/10/3 140/10/3 164/10/3
f 165/11/3 151/11/3 140/11/3
f 166/11/3 152/11/3 165/11/3
f 167/10/3 153/10/3 152/10/3
f 167/19/3 154/19/3 153/19/3
f 168/10/3 155/10/3 154/10/3
f 168/19/3 154/19/3 167/19/3
f 169/11/3 156/11/3 155/11/3
f 169/10/3 155/10/3 168/10/3
f 169/11/3 157/11/3 156/11/3
f 170/11/3 157/11/3 169/11/3
f 171/7/3 161/7/3 160/7/3
f 172/5/3 162/5/3 161/5/3
f 172/7/3 161/7/3 171/7/3
f 173/6/3 148/6/3 162/6/3
f 173/5/3 162/5/3 172/5/3
f 174/14/3 163/14/3 148/14/3
f 174/6/3 148/6/3 173/6/3
f 175/13/3 164/13/3 163/13/3
f 175/10/3 166/10/3 165/10/3
f 175/10/3 165/10/3 164/10/3
f 176/10/3 166/10/3 175/10/3
f 177/11/3 152/11/3 166/11/3
f 177/10/3 166/10/3 176/10/3
f 178/10/3 167/10/3 152/10/3
f 178/11/3 152/11/3 177/11/3
f 178/10/3 168/10/3 167/10/3
f 178/10/3 170/10/3 169/10/3
f 178/10/3 169/10/3 168/10/3
f 179/11/3 157/11/3 170/11/3
f 179/10/3 170/10/3 178/10/3
f 180/10/3 17/10/3 157/10/3
f 180/11/3 157/11/3 179/11/3
f 181/15/3 145/15/3 144/15/3
f 181/5/3 144/5/3 9/5/3
f 182/12/3 158/12/3 145/12/3
f 182/15/3 145/15/3 181/15/3
f 183/12/3 158/12/3 182/12/3
f 184/6/3 160/6/3 159/6/3
f 184/5/3 159/5/3 158/5/3
f 185/7/3 171/7/3 160/7/3
f 185/6/3 160/6/3 184/6/3
f 186/8/3 172/8/3 171/8/3
f 186/7/3 171/7/3 185/7/3
f 187/5/3 173/5/3 172/5/3
f 187/8/3 172/8/3 186/8/3
f 187/5/3 174/5/3 173/5/3
f 188/5/3 174/5/3 187/5/3
f 189/14/3 163/14/3 174/14/3
f 189/5/3 174/5/3 188/5/3
f 190/13/3 176/13/3 175/13/3
f 190/14/3 163/14/3 189/14/3
f 190/13/3 175/13/3 163/13/3
f 191/13/3 176/13/3 190/13/3
f 192/10/3 179/10/3 178/10/3
f 192/13/3 176/13/3 191/13/3
f 192/10/3 177/10/3 176/10/3
f 192/10/3 180/10/3 179/10/3
f 192/10/3 178/10/3 177/10/3
f 193/10/3 180/10/3 192/10/3
f 194/10/3 180/10/3 193/10/3
f 195/10/3 180/10/3 194/10/3
f 196/10/3 180/10/3 195/10/3
f 197/10/3 17/10/3 180/10/3
f 197/10/3 180/10/3 196/10/3
f 198/5/3 185/5/3 184/5/3
f 198/12/3 158/12/3 183/12/3
f 198/5/3 184/5/3 158/5/3
f 199/8/3 186/8/3 185/8/3
f 199/5/3 185/5/3 198/5/3
f 199/8/3 187/8/3 186/8/3
f 200/6/3 188/6/3 187/6/3
f 200/8/3 187/8/3 199/8/3
f 201/5/3 189/5/3 188/5/3
f 201/6/3 188/6/3 200/6/3
f 202/13/3 190/13/3 189/13/3
f 202/5/3 189/5/3 201/5/3
f 203/7/3 191/7/3 190/7/3
f 203/13/3 190/13/3 202/13/3
f 204/13/3 192/13/3 191/13/3
f 204/7/3 191/7/3 203/7/3
f 204/13/3 193/13/3 192/13/3
f 205/13/3 193/13/3 204/13/3
f 206/10/3 17/10/3 197/10/3
f 206/17/3 197/17/3 196/17/3
f 207/5/3 10/5/3 17/5/3
f 207/10/3 17/10/3 206/10/3
f 208/6/3 199/6/3 198/6/3
f 208/6/3 202/6/3 201/6/3
f 208/6/3 200/6/3 199/6/3
f 208/6/3 201/6/3 200/6/3
f 208/12/3 198/12/3 183/12/3
f 209/6/3 202/6/3 208/6/3
f 210/6/3 202/6/3 209/6/3
f 211/13/3 203/13/3 202/13/3
f 211/6/3 202/6/3 210/6/3
f 212/8/3 204/8/3 203/8/3
f 212/13/3 203/13/3 211/13/3
f 213/14/3 205/14/3 204/14/3
f 213/8/3 204/8/3 212/8/3
f 214/13/3 193/13/3 205/13/3
f 214/14/3 205/14/3 213/14/3
f 215/10/3 194/10/3 193/10/3
f 215/13/3 193/13/3 214/13/3
f 216/10/3 196/10/3 195/10/3
f 216/11/3 195/11/3 194/11/3
f 217/10/3 196/10/3 216/10/3
f 218/17/3 206/17/3 196/17/3
f 218/10/3 196/10/3 217/10/3
f 219/18/3 207/18/3 206/18/3
f 219/17/3 206/17/3 218/17/3
f 220/5/3 10/5/3 207/5/3
f 220/18/3 207/18/3 219/18/3
f 221/12/3 182/12/3 181/12/3
f 221/15/3 183/15/3 182/15/3
f 222/12/3 208/12/3 183/12/3
f 222/15/3 183/15/3 221/15/3
f 223/6/3 210/6/3 209/6/3
f 223/2/3 209/2/3 208/2/3
f 224/5/3 211/5/3 210/5/3
f 224/6/3 210/6/3 223/6/3
f 225/13/3 212/13/3 211/13/3
f 225/5/3 211/5/3 224/5/3
f 226/14/3 214/14/3 213/14/3
f 226/13/3 212/13/3 225/13/3
f 226/14/3 213/14/3 212/14/3
f 227/14/3 214/14/3 226/14/3
f 228/10/3 215/10/3 214/10/3
f 228/14/3 214/14/3 227/14/3
f 229/11/3 217/11/3 216/11/3
f 229/10/3 215/10/3 228/10/3
f 229/10/3 194/10/3 215/10/3
f 229/11/3 216/11/3 194/11/3
f 230/11/3 217/11/3 229/11/3
f 231/12/3 208/12/3 222/12/3
f 231/12/3 222/12/3 221/12/3
f 232/2/3 223/2/3 208/2/3
f 232/12/3 208/12/3 231/12/3
f 233/5/3 224/5/3 223/5/3
f 233/2/3 223/2/3 232/2/3
f 234/6/3 225/6/3 224/6/3
f 234/5/3 224/5/3 233/5/3
f 235/14/3 226/14/3 225/14/3
f 235/6/3 225/6/3 234/6/3
f 235/14/3 227/14/3 226/14/3
f 236/14/3 227/14/3 235/14/3
f 237/10/3 228/10/3 227/10/3
f 237/14/3 227/14/3 236/14/3
f 237/10/3 230/10/3 229/10/3
f 237/10/3 229/10/3 228/10/3
f 238/18/3 219/18/3 218/18/3
f 238/10/3 218/10/3 217/10/3
f 239/19/3 220/19/3 219/19/3
f 239/18/3 219/18/3 238/18/3
f 240/5/3 10/5/3 220/5/3
f 240/19/3 220/19/3 239/19/3
f 241/12/3 231/12/3 221/12/3
f 241/15/3 232/15/3 231/15/3
f 242/6/3 234/6/3 233/6/3
f 242/15/3 232/15/3 241/15/3
f 242/6/3 233/6/3 232/6/3
f 242/6/3 235/6/3 234/6/3
f 243/6/3 235/6/3 242/6/3
f 244/13/3 236/13/3 235/13/3
f 244/6/3 235/6/3 243/6/3
f 245/10/3 237/10/3 236/10/3
f 245/13/3 236/13/3 244/13/3
f 246/10/3 230/10/3 237/10/3
f 246/10/3 237/10/3 245/10/3
f 246/11/3 217/11/3 230/11/3
f 247/10/3 238/10/3 217/10/3
f 247/11/3 217/11/3 246/11/3
f 248/19/3 239/19/3 238/19/3
f 248/10/3 238/10/3 247/10/3
f 249/10/3 240/10/3 239/10/3
f 249/19/3 239/19/3 248/19/3
f 250/12/3 243/12/3 242/12/3
f 250/12/3 241/12/3 221/12/3
f 250/12/3 242/12/3 241/12/3
f 250/5/3 181/5/3 9/5/3
f 250/12/3 221/12/3 181/12/3
f 251/10/3 245/10/3 244/10/3
f 251/12/3 243/12/3 250/12/3
f 251/10/3 244/10/3 243/10/3
f 251/10/3 247/10/3 246/10/3
f 251/10/3 248/10/3 247/10/3
f 251/10/3 246/10/3 245/10/3
f 251/10/3 249/10/3 248/10/3
f 252/5/3 10/5/3 240/5/3
f 252/10/3 249/10/3 251/10/3
f 252/10/3 240/10/3 249/10/3
f 253/5/3 250/5/3 9/5/3
f 253/5/3 251/5/3 250/5/3
f 253/5/3 252/5/3 251/5/3
f 254/5/3 10/5/3 252/5/3
f 254/5/3 252/5/3 253/5/3
f 255/5/4 256/5/4 257/5/4
f 257/5/4 256/5/4 258/5/4
f 261/5/5 260/5/5 259/5/5
f 262/5/5 260/5/5 261/5/5
f 263/5/6 264/5/6 265/5/6
f 265/5/6 264/5/6 266/5/6
