# MagicaVoxel @ Ephtracy

# group
o 

# material
mtllib VR Токарев книга.mtl
usemtl palette

# normals
vn -1 0 0
vn 1 0 0
vn 0 0 1
vn 0 0 -1
vn 0 -1 0
vn 0 1 0

# texcoords
vt 0.0332031 0.5
vt 0.0371094 0.5
vt 0.373047 0.5
vt 0.537109 0.5

# verts
v -1 0.1 1
v -1 0.1 0.8
v -1 0.1 0.4
v -1 0.1 -0.6
v -1 0.1 -0.7
v -1 0.1 -1
v -1 0.2 0.8
v -1 0.2 0.4
v -1 0.2 0.2
v -1 0.2 -0.3
v -1 0.2 -0.6
v -1 0.3 1
v -1 0.3 0.4
v -1 0.3 0.2
v -1 0.3 -0.3
v -1 0.3 -0.7
v -1 0.3 -1
v 1.19209e-07 0 1
v 1.19209e-07 0 0.7
v 1.19209e-07 0 0.6
v 1.19209e-07 0 0.4
v 1.19209e-07 0 -0.9
v 1.19209e-07 0 -1
v 1.19209e-07 0.1 1
v 1.19209e-07 0.1 0.7
v 1.19209e-07 0.1 0.6
v 1.19209e-07 0.1 0.4
v 1.19209e-07 0.1 -0.9
v 1.19209e-07 0.1 -1
v 0.1 0.2 1
v 0.1 0.2 0.9
v 0.1 0.2 0.5
v 0.1 0.2 -1.19209e-07
v 0.1 0.2 -0.1
v 0.1 0.2 -0.7
v 0.1 0.2 -0.9
v 0.1 0.2 -1
v 0.1 0.3 1
v 0.1 0.3 0.9
v 0.1 0.3 0.5
v 0.1 0.3 -0.1
v 0.1 0.3 -0.9
v 0.1 0.3 -1
v 1.19209e-07 0.2 1
v 1.19209e-07 0.2 0.9
v 1.19209e-07 0.2 0.8
v 1.19209e-07 0.2 -1.19209e-07
v 1.19209e-07 0.2 -0.7
v 1.19209e-07 0.2 -0.9
v 1.19209e-07 0.2 -1
v 1.19209e-07 0.3 1
v 1.19209e-07 0.3 0.9
v 1.19209e-07 0.3 0.8
v 1.19209e-07 0.3 -0.9
v 1.19209e-07 0.3 -1
v 0.1 0 1
v 0.1 0 0.7
v 0.1 0 0.6
v 0.1 0 0.4
v 0.1 0 -0.9
v 0.1 0 -1
v 0.1 0.1 1
v 0.1 0.1 0.7
v 0.1 0.1 0.6
v 0.1 0.1 0.5
v 0.1 0.1 0.4
v 0.1 0.1 0.3
v 0.1 0.1 0.0999999
v 0.1 0.1 -1.19209e-07
v 0.1 0.1 -0.9
v 0.1 0.1 -1
v 1.1 0.1 1
v 1.1 0.1 0.7
v 1.1 0.1 -0.3
v 1.1 0.1 -1
v 1.1 0.2 0.7
v 1.1 0.2 -0.3
v 1.1 0.2 -0.4
v 1.1 0.2 -0.8
v 1.1 0.3 1
v 1.1 0.3 -0.4
v 1.1 0.3 -0.8
v 1.1 0.3 -1
v -1 0.1 1
v -1 0.3 1
v -0.8 0.1 1
v -0.8 0.2 1
v -0.7 0.2 1
v -0.7 0.3 1
v -0.6 0.1 1
v -0.6 0.2 1
v -0.3 0.2 1
v -0.3 0.3 1
v 1.19209e-07 0 1
v 1.19209e-07 0.1 1
v 1.19209e-07 0.2 1
v 1.19209e-07 0.3 1
v 0.1 0 1
v 0.1 0.1 1
v 0.1 0.2 1
v 0.1 0.3 1
v 0.2 0.1 1
v 0.2 0.2 1
v 0.4 0.1 1
v 0.4 0.2 1
v 0.6 0.1 1
v 0.6 0.2 1
v 0.7 0.2 1
v 0.7 0.3 1
v 0.8 0.1 1
v 0.8 0.2 1
v 1 0.2 1
v 1 0.3 1
v 1.1 0.1 1
v 1.1 0.3 1
v -1 0.1 -1
v -1 0.3 -1
v -0.9 0.2 -1
v -0.9 0.3 -1
v -0.4 0.1 -1
v -0.4 0.2 -1
v -0.3 0.2 -1
v -0.3 0.3 -1
v -0.2 0.1 -1
v -0.2 0.2 -1
v 1.19209e-07 0 -1
v 1.19209e-07 0.1 -1
v 1.19209e-07 0.2 -1
v 1.19209e-07 0.3 -1
v 0.1 0 -1
v 0.1 0.1 -1
v 0.1 0.2 -1
v 0.1 0.3 -1
v 0.2 0.1 -1
v 0.2 0.2 -1
v 0.4 0.2 -1
v 0.4 0.3 -1
v 0.7 0.1 -1
v 0.7 0.2 -1
v 0.8 0.2 -1
v 0.8 0.3 -1
v 0.9 0.1 -1
v 0.9 0.2 -1
v 1.1 0.1 -1
v 1.1 0.3 -1
v 1.19209e-07 0 1
v 0.1 0 1
v 1.19209e-07 0 0.7
v 0.1 0 0.7
v 1.19209e-07 0 0.6
v 0.1 0 0.6
v 1.19209e-07 0 0.4
v 0.1 0 0.4
v 1.19209e-07 0 -0.9
v 0.1 0 -0.9
v 1.19209e-07 0 -1
v 0.1 0 -1
v -1 0.1 1
v -0.8 0.1 1
v -0.6 0.1 1
v 1.19209e-07 0.1 1
v 0.1 0.1 1
v 0.2 0.1 1
v 0.4 0.1 1
v 0.6 0.1 1
v 0.8 0.1 1
v 1.1 0.1 1
v -0.8 0.1 0.9
v -0.6 0.1 0.9
v 0.2 0.1 0.9
v 0.4 0.1 0.9
v 0.6 0.1 0.9
v 0.8 0.1 0.9
v -1 0.1 0.8
v -0.9 0.1 0.8
v 0.2 0.1 0.8
v 0.5 0.1 0.8
v -0.7 0.1 0.7
v -0.4 0.1 0.7
v 1.19209e-07 0.1 0.7
v 0.1 0.1 0.7
v 0.2 0.1 0.7
v 0.4 0.1 0.7
v 0.5 0.1 0.7
v 0.6 0.1 0.7
v 1 0.1 0.7
v 1.1 0.1 0.7
v -0.7 0.1 0.6
v -0.5 0.1 0.6
v -0.4 0.1 0.6
v -0.3 0.1 0.6
v 1.19209e-07 0.1 0.6
v 0.1 0.1 0.6
v 0.4 0.1 0.6
v 0.6 0.1 0.6
v 0.7 0.1 0.6
v -0.9 0.1 0.5
v -0.8 0.1 0.5
v -0.5 0.1 0.5
v -0.4 0.1 0.5
v 0.1 0.1 0.5
v 0.2 0.1 0.5
v 0.6 0.1 0.5
v 0.7 0.1 0.5
v 0.9 0.1 0.5
v -1 0.1 0.4
v -0.9 0.1 0.4
v -0.6 0.1 0.4
v -0.5 0.1 0.4
v -0.4 0.1 0.4
v -0.3 0.1 0.4
v 1.19209e-07 0.1 0.4
v 0.1 0.1 0.4
v 0.2 0.1 0.4
v 0.3 0.1 0.4
v 0.7 0.1 0.4
v 0.8 0.1 0.4
v 0.9 0.1 0.4
v 1 0.1 0.4
v 0.1 0.1 0.3
v 0.2 0.1 0.3
v 0.3 0.1 0.3
v 0.4 0.1 0.3
v 0.6 0.1 0.3
v 0.7 0.1 0.3
v 0.8 0.1 0.3
v 0.9 0.1 0.3
v -0.7 0.1 0.2
v -0.6 0.1 0.2
v -0.5 0.1 0.2
v 0.2 0.1 0.2
v 0.3 0.1 0.2
v 0.4 0.1 0.2
v 0.5 0.1 0.2
v 0.9 0.1 0.2
v 1 0.1 0.2
v 0.1 0.1 0.0999999
v 0.3 0.1 0.0999999
v 0.4 0.1 0.0999999
v -0.2 0.1 -1.19209e-07
v -0.0999999 0.1 -1.19209e-07
v 0.1 0.1 -1.19209e-07
v 0.2 0.1 -1.19209e-07
v 0.4 0.1 -1.19209e-07
v 0.5 0.1 -1.19209e-07
v 0.2 0.1 -0.1
v 0.3 0.1 -0.1
v 0.4 0.1 -0.1
v 0.7 0.1 -0.2
v 0.8 0.1 -0.2
v 0.6 0.1 -0.3
v 0.7 0.1 -0.3
v 1 0.1 -0.3
v 1.1 0.1 -0.3
v -0.8 0.1 -0.4
v -0.7 0.1 -0.4
v -0.6 0.1 -0.4
v -0.9 0.1 -0.5
v -0.8 0.1 -0.5
v -0.4 0.1 -0.5
v -0.2 0.1 -0.5
v -0.0999999 0.1 -0.5
v -1 0.1 -0.6
v -0.9 0.1 -0.6
v -0.8 0.1 -0.6
v -0.7 0.1 -0.6
v -0.5 0.1 -0.6
v -0.4 0.1 -0.6
v -0.3 0.1 -0.6
v -0.2 0.1 -0.6
v 0.3 0.1 -0.6
v 0.4 0.1 -0.6
v 0.6 0.1 -0.6
v 0.7 0.1 -0.6
v 0.8 0.1 -0.6
v -1 0.1 -0.7
v -0.9 0.1 -0.7
v -0.5 0.1 -0.7
v -0.3 0.1 -0.7
v -0.4 0.1 -0.9
v -0.2 0.1 -0.9
v 1.19209e-07 0.1 -0.9
v 0.1 0.1 -0.9
v 0.2 0.1 -0.9
v 0.6 0.1 -0.9
v 0.7 0.1 -0.9
v 0.9 0.1 -0.9
v -1 0.1 -1
v -0.4 0.1 -1
v -0.2 0.1 -1
v 1.19209e-07 0.1 -1
v 0.1 0.1 -1
v 0.2 0.1 -1
v 0.7 0.1 -1
v 0.9 0.1 -1
v 1.1 0.1 -1
v 1.19209e-07 0.2 1
v 0.1 0.2 1
v 1.19209e-07 0.2 0.9
v 0.1 0.2 0.9
v 1.19209e-07 0.2 0.8
v 0.1 0.2 0.5
v 1.19209e-07 0.2 -1.19209e-07
v 0.1 0.2 -1.19209e-07
v 0.1 0.2 -0.1
v 1.19209e-07 0.2 -0.7
v 0.1 0.2 -0.7
v 1.19209e-07 0.2 -0.9
v 0.1 0.2 -0.9
v 1.19209e-07 0.2 -1
v 0.1 0.2 -1
v -1 0.3 1
v -0.7 0.3 1
v -0.3 0.3 1
v 1.19209e-07 0.3 1
v 0.1 0.3 1
v 0.7 0.3 1
v 1 0.3 1
v 1.1 0.3 1
v -0.9 0.3 0.9
v -0.7 0.3 0.9
v -0.3 0.3 0.9
v -0.2 0.3 0.9
v 1.19209e-07 0.3 0.9
v 0.1 0.3 0.9
v 0.7 0.3 0.9
v 1 0.3 0.9
v -0.7 0.3 0.8
v -0.5 0.3 0.8
v -0.3 0.3 0.8
v -0.2 0.3 0.8
v -0.0999999 0.3 0.8
v 1.19209e-07 0.3 0.8
v 0.3 0.3 0.8
v 0.4 0.3 0.8
v -0.7 0.3 0.7
v -0.5 0.3 0.7
v 0.4 0.3 0.7
v 0.5 0.3 0.7
v -0.7 0.3 0.6
v -0.5 0.3 0.6
v -0.3 0.3 0.6
v -0.0999999 0.3 0.6
v 0.3 0.3 0.6
v 0.5 0.3 0.6
v 0.6 0.3 0.6
v -0.7 0.3 0.5
v -0.6 0.3 0.5
v 0.1 0.3 0.5
v 0.2 0.3 0.5
v 0.5 0.3 0.5
v 0.6 0.3 0.5
v 0.7 0.3 0.5
v -1 0.3 0.4
v -0.9 0.3 0.4
v -0.5 0.3 0.4
v -0.4 0.3 0.4
v -0.6 0.3 0.3
v -0.5 0.3 0.3
v -0.4 0.3 0.3
v -0.3 0.3 0.3
v 0.6 0.3 0.3
v 0.7 0.3 0.3
v -1 0.3 0.2
v -0.9 0.3 0.2
v -0.8 0.3 0.2
v -0.7 0.3 0.2
v -0.5 0.3 0.2
v -0.4 0.3 0.2
v 0.5 0.3 0.2
v 0.6 0.3 0.2
v -0.7 0.3 0.0999999
v -0.6 0.3 0.0999999
v -0.4 0.3 0.0999999
v -0.3 0.3 0.0999999
v -0.2 0.3 0.0999999
v -0.8 0.3 -1.19209e-07
v -0.7 0.3 -1.19209e-07
v -0.6 0.3 -1.19209e-07
v -0.5 0.3 -1.19209e-07
v -0.4 0.3 -1.19209e-07
v -0.3 0.3 -1.19209e-07
v -0.2 0.3 -1.19209e-07
v -0.7 0.3 -0.1
v -0.6 0.3 -0.1
v -0.3 0.3 -0.1
v -0.2 0.3 -0.1
v 0.1 0.3 -0.1
v 0.2 0.3 -0.1
v 0.4 0.3 -0.1
v 0.5 0.3 -0.1
v 0.8 0.3 -0.1
v 0.9 0.3 -0.1
v -0.6 0.3 -0.2
v -0.5 0.3 -0.2
v -0.4 0.3 -0.2
v -0.3 0.3 -0.2
v -0.2 0.3 -0.2
v -0.0999999 0.3 -0.2
v 0.5 0.3 -0.2
v 0.6 0.3 -0.2
v -1 0.3 -0.3
v -0.9 0.3 -0.3
v -0.7 0.3 -0.3
v -0.6 0.3 -0.3
v -0.3 0.3 -0.3
v -0.0999999 0.3 -0.3
v 0.3 0.3 -0.4
v 0.4 0.3 -0.4
v 0.7 0.3 -0.4
v 0.8 0.3 -0.4
v 1 0.3 -0.4
v 1.1 0.3 -0.4
v -0.6 0.3 -0.5
v -0.5 0.3 -0.5
v 0.2 0.3 -0.5
v 0.3 0.3 -0.5
v 0.4 0.3 -0.5
v 0.5 0.3 -0.5
v 0.8 0.3 -0.5
v 0.9 0.3 -0.5
v -0.7 0.3 -0.6
v -0.6 0.3 -0.6
v -0.5 0.3 -0.6
v -0.4 0.3 -0.6
v 0.3 0.3 -0.6
v 0.4 0.3 -0.6
v 0.6 0.3 -0.6
v 0.7 0.3 -0.6
v -1 0.3 -0.7
v -0.9 0.3 -0.7
v -0.6 0.3 -0.7
v -0.4 0.3 -0.7
v -0.2 0.3 -0.7
v 0.2 0.3 -0.7
v 0.3 0.3 -0.7
v 0.6 0.3 -0.7
v 0.8 0.3 -0.7
v -0.4 0.3 -0.8
v -0.2 0.3 -0.8
v 1 0.3 -0.8
v 1.1 0.3 -0.8
v -0.9 0.3 -0.9
v -0.3 0.3 -0.9
v 1.19209e-07 0.3 -0.9
v 0.1 0.3 -0.9
v 0.4 0.3 -0.9
v 0.8 0.3 -0.9
v 1 0.3 -0.9
v -1 0.3 -1
v -0.9 0.3 -1
v -0.3 0.3 -1
v 1.19209e-07 0.3 -1
v 0.1 0.3 -1
v 0.4 0.3 -1
v 0.8 0.3 -1
v 1.1 0.3 -1

# faces
f 7/3/1 2/3/1 1/3/1
f 7/4/1 3/4/1 2/4/1
f 8/3/1 4/3/1 3/3/1
f 8/4/1 3/4/1 7/4/1
f 9/3/1 4/3/1 8/3/1
f 10/3/1 4/3/1 9/3/1
f 11/4/1 5/4/1 4/4/1
f 11/3/1 4/3/1 10/3/1
f 12/3/1 7/3/1 1/3/1
f 12/3/1 8/3/1 7/3/1
f 13/4/1 9/4/1 8/4/1
f 13/3/1 8/3/1 12/3/1
f 14/3/1 10/3/1 9/3/1
f 14/4/1 9/4/1 13/4/1
f 15/4/1 11/4/1 10/4/1
f 15/3/1 10/3/1 14/3/1
f 16/3/1 6/3/1 5/3/1
f 16/4/1 11/4/1 15/4/1
f 16/4/1 5/4/1 11/4/1
f 17/3/1 6/3/1 16/3/1
f 24/4/1 19/4/1 18/4/1
f 25/3/1 20/3/1 19/3/1
f 25/4/1 19/4/1 24/4/1
f 26/4/1 21/4/1 20/4/1
f 26/3/1 20/3/1 25/3/1
f 27/3/1 22/3/1 21/3/1
f 27/4/1 21/4/1 26/4/1
f 28/4/1 23/4/1 22/4/1
f 28/3/1 22/3/1 27/3/1
f 29/4/1 23/4/1 28/4/1
f 38/3/1 31/3/1 30/3/1
f 39/1/1 32/1/1 31/1/1
f 39/3/1 31/3/1 38/3/1
f 40/2/1 33/2/1 32/2/1
f 40/1/1 32/1/1 39/1/1
f 40/2/1 34/2/1 33/2/1
f 41/1/1 36/1/1 35/1/1
f 41/2/1 34/2/1 40/2/1
f 41/1/1 35/1/1 34/1/1
f 42/3/1 37/3/1 36/3/1
f 42/1/1 36/1/1 41/1/1
f 43/3/1 37/3/1 42/3/1
f 44/3/2 45/3/2 51/3/2
f 45/2/2 46/2/2 52/2/2
f 51/3/2 45/3/2 52/3/2
f 46/1/2 47/1/2 53/1/2
f 52/2/2 46/2/2 53/2/2
f 47/1/2 48/1/2 53/1/2
f 48/1/2 49/1/2 53/1/2
f 49/3/2 50/3/2 54/3/2
f 53/1/2 49/1/2 54/1/2
f 54/3/2 50/3/2 55/3/2
f 56/4/2 57/4/2 62/4/2
f 57/3/2 58/3/2 63/3/2
f 62/4/2 57/4/2 63/4/2
f 58/4/2 59/4/2 64/4/2
f 63/3/2 58/3/2 64/3/2
f 64/4/2 59/4/2 65/4/2
f 59/3/2 60/3/2 66/3/2
f 65/4/2 59/4/2 66/4/2
f 66/3/2 60/3/2 67/3/2
f 67/3/2 60/3/2 68/3/2
f 68/3/2 60/3/2 69/3/2
f 60/4/2 61/4/2 70/4/2
f 69/3/2 60/3/2 70/3/2
f 70/4/2 61/4/2 71/4/2
f 72/3/2 73/3/2 76/3/2
f 73/4/2 74/4/2 76/4/2
f 74/3/2 75/3/2 77/3/2
f 76/4/2 74/4/2 77/4/2
f 77/3/2 75/3/2 78/3/2
f 78/3/2 75/3/2 79/3/2
f 72/3/2 76/3/2 80/3/2
f 76/3/2 77/3/2 80/3/2
f 77/3/2 78/3/2 80/3/2
f 78/4/2 79/4/2 81/4/2
f 80/3/2 78/3/2 81/3/2
f 79/3/2 75/3/2 82/3/2
f 81/4/2 79/4/2 82/4/2
f 82/3/2 75/3/2 83/3/2
f 86/3/3 85/3/3 84/3/3
f 87/3/3 85/3/3 86/3/3
f 88/4/3 87/4/3 86/4/3
f 88/3/3 85/3/3 87/3/3
f 89/3/3 85/3/3 88/3/3
f 90/4/3 88/4/3 86/4/3
f 90/4/3 89/4/3 88/4/3
f 91/4/3 89/4/3 90/4/3
f 92/3/3 91/3/3 90/3/3
f 92/4/3 89/4/3 91/4/3
f 93/4/3 89/4/3 92/4/3
f 95/3/3 92/3/3 90/3/3
f 95/3/3 93/3/3 92/3/3
f 96/3/3 93/3/3 95/3/3
f 97/3/3 93/3/3 96/3/3
f 98/4/3 95/4/3 94/4/3
f 98/4/3 96/4/3 95/4/3
f 99/4/3 96/4/3 98/4/3
f 100/4/3 96/4/3 99/4/3
f 102/3/3 101/3/3 100/3/3
f 102/3/3 100/3/3 99/3/3
f 103/3/3 101/3/3 102/3/3
f 104/4/3 103/4/3 102/4/3
f 105/3/3 101/3/3 103/3/3
f 105/4/3 103/4/3 104/4/3
f 106/3/3 105/3/3 104/3/3
f 107/3/3 101/3/3 105/3/3
f 107/3/3 105/3/3 106/3/3
f 108/4/3 107/4/3 106/4/3
f 108/3/3 101/3/3 107/3/3
f 109/3/3 101/3/3 108/3/3
f 110/4/3 108/4/3 106/4/3
f 110/4/3 109/4/3 108/4/3
f 111/4/3 109/4/3 110/4/3
f 112/3/3 111/3/3 110/3/3
f 112/4/3 109/4/3 111/4/3
f 113/4/3 109/4/3 112/4/3
f 114/3/3 112/3/3 110/3/3
f 114/3/3 113/3/3 112/3/3
f 115/3/3 113/3/3 114/3/3
f 116/3/4 117/3/4 118/3/4
f 118/3/4 117/3/4 119/3/4
f 116/3/4 118/3/4 120/3/4
f 118/4/4 119/4/4 121/4/4
f 120/3/4 118/3/4 121/3/4
f 120/4/4 121/4/4 122/4/4
f 121/4/4 119/4/4 122/4/4
f 122/4/4 119/4/4 123/4/4
f 120/4/4 122/4/4 124/4/4
f 122/3/4 123/3/4 125/3/4
f 124/4/4 122/4/4 125/4/4
f 124/3/4 125/3/4 127/3/4
f 125/3/4 123/3/4 128/3/4
f 127/3/4 125/3/4 128/3/4
f 128/3/4 123/3/4 129/3/4
f 126/4/4 127/4/4 130/4/4
f 127/3/4 128/3/4 131/3/4
f 130/4/4 127/4/4 131/4/4
f 131/3/4 128/3/4 132/3/4
f 131/4/4 132/4/4 134/4/4
f 132/3/4 133/3/4 135/3/4
f 134/4/4 132/4/4 135/4/4
f 134/3/4 135/3/4 136/3/4
f 135/3/4 133/3/4 136/3/4
f 136/3/4 133/3/4 137/3/4
f 134/3/4 136/3/4 138/3/4
f 136/4/4 137/4/4 139/4/4
f 138/3/4 136/3/4 139/3/4
f 138/4/4 139/4/4 140/4/4
f 139/4/4 137/4/4 140/4/4
f 140/4/4 137/4/4 141/4/4
f 138/4/4 140/4/4 142/4/4
f 140/3/4 141/3/4 143/3/4
f 142/4/4 140/4/4 143/4/4
f 142/3/4 143/3/4 144/3/4
f 143/3/4 141/3/4 145/3/4
f 144/3/4 143/3/4 145/3/4
f 148/4/5 147/4/5 146/4/5
f 149/4/5 147/4/5 148/4/5
f 150/3/5 149/3/5 148/3/5
f 151/3/5 149/3/5 150/3/5
f 152/4/5 151/4/5 150/4/5
f 153/4/5 151/4/5 152/4/5
f 154/3/5 153/3/5 152/3/5
f 155/3/5 153/3/5 154/3/5
f 156/4/5 155/4/5 154/4/5
f 157/4/5 155/4/5 156/4/5
f 168/3/5 159/3/5 158/3/5
f 168/4/5 160/4/5 159/4/5
f 169/3/5 161/3/5 160/3/5
f 169/4/5 160/4/5 168/4/5
f 170/3/5 163/3/5 162/3/5
f 170/4/5 164/4/5 163/4/5
f 171/3/5 165/3/5 164/3/5
f 171/4/5 164/4/5 170/4/5
f 172/4/5 166/4/5 165/4/5
f 172/3/5 165/3/5 171/3/5
f 173/3/5 167/3/5 166/3/5
f 173/4/5 166/4/5 172/4/5
f 174/3/5 168/3/5 158/3/5
f 174/3/5 169/3/5 168/3/5
f 175/3/5 169/3/5 174/3/5
f 176/3/5 172/3/5 171/3/5
f 176/3/5 171/3/5 170/3/5
f 176/3/5 173/3/5 172/3/5
f 176/3/5 170/3/5 162/3/5
f 177/3/5 173/3/5 176/3/5
f 178/3/5 169/3/5 175/3/5
f 179/3/5 161/3/5 169/3/5
f 179/3/5 169/3/5 178/3/5
f 180/3/5 161/3/5 179/3/5
f 181/3/5 176/3/5 162/3/5
f 182/4/5 177/4/5 176/4/5
f 182/3/5 176/3/5 181/3/5
f 183/4/5 177/4/5 182/4/5
f 184/3/5 173/3/5 177/3/5
f 184/4/5 177/4/5 183/4/5
f 185/3/5 173/3/5 184/3/5
f 186/3/5 167/3/5 173/3/5
f 186/3/5 173/3/5 185/3/5
f 187/3/5 167/3/5 186/3/5
f 188/3/5 178/3/5 175/3/5
f 188/4/5 179/4/5 178/4/5
f 189/4/5 179/4/5 188/4/5
f 190/3/5 180/3/5 179/3/5
f 190/4/5 179/4/5 189/4/5
f 191/3/5 180/3/5 190/3/5
f 192/3/5 180/3/5 191/3/5
f 193/3/5 183/3/5 182/3/5
f 193/3/5 182/3/5 181/3/5
f 194/4/5 185/4/5 184/4/5
f 194/3/5 183/3/5 193/3/5
f 194/4/5 184/4/5 183/4/5
f 195/3/5 186/3/5 185/3/5
f 195/4/5 185/4/5 194/4/5
f 196/3/5 186/3/5 195/3/5
f 197/4/5 175/4/5 174/4/5
f 197/3/5 189/3/5 188/3/5
f 197/3/5 188/3/5 175/3/5
f 198/3/5 189/3/5 197/3/5
f 199/4/5 191/4/5 190/4/5
f 199/3/5 189/3/5 198/3/5
f 199/4/5 190/4/5 189/4/5
f 200/4/5 191/4/5 199/4/5
f 201/3/5 194/3/5 193/3/5
f 201/3/5 195/3/5 194/3/5
f 202/3/5 195/3/5 201/3/5
f 203/4/5 196/4/5 195/4/5
f 203/3/5 195/3/5 202/3/5
f 204/3/5 186/3/5 196/3/5
f 204/4/5 196/4/5 203/4/5
f 205/3/5 186/3/5 204/3/5
f 206/4/5 198/4/5 197/4/5
f 206/4/5 197/4/5 174/4/5
f 207/4/5 198/4/5 206/4/5
f 208/3/5 200/3/5 199/3/5
f 208/3/5 199/3/5 198/3/5
f 209/3/5 200/3/5 208/3/5
f 210/4/5 191/4/5 200/4/5
f 210/3/5 200/3/5 209/3/5
f 211/3/5 192/3/5 191/3/5
f 211/4/5 191/4/5 210/4/5
f 212/3/5 192/3/5 211/3/5
f 213/4/5 202/4/5 201/4/5
f 214/3/5 203/3/5 202/3/5
f 214/4/5 202/4/5 213/4/5
f 214/3/5 204/3/5 203/3/5
f 215/3/5 204/3/5 214/3/5
f 216/4/5 205/4/5 204/4/5
f 216/3/5 204/3/5 215/3/5
f 217/4/5 205/4/5 216/4/5
f 218/3/5 186/3/5 205/3/5
f 218/4/5 205/4/5 217/4/5
f 219/4/5 187/4/5 186/4/5
f 219/3/5 186/3/5 218/3/5
f 220/4/5 215/4/5 214/4/5
f 220/4/5 214/4/5 213/4/5
f 221/4/5 215/4/5 220/4/5
f 222/3/5 217/3/5 216/3/5
f 222/4/5 215/4/5 221/4/5
f 222/3/5 216/3/5 215/3/5
f 223/3/5 217/3/5 222/3/5
f 224/3/5 217/3/5 223/3/5
f 225/3/5 217/3/5 224/3/5
f 226/4/5 218/4/5 217/4/5
f 226/3/5 217/3/5 225/3/5
f 226/4/5 219/4/5 218/4/5
f 227/4/5 219/4/5 226/4/5
f 228/3/5 208/3/5 198/3/5
f 229/4/5 209/4/5 208/4/5
f 229/3/5 208/3/5 228/3/5
f 230/3/5 210/3/5 209/3/5
f 230/4/5 209/4/5 229/4/5
f 230/3/5 212/3/5 211/3/5
f 230/3/5 211/3/5 210/3/5
f 231/3/5 221/3/5 220/3/5
f 231/4/5 222/4/5 221/4/5
f 231/4/5 223/4/5 222/4/5
f 232/4/5 223/4/5 231/4/5
f 233/3/5 224/3/5 223/3/5
f 233/4/5 223/4/5 232/4/5
f 234/3/5 224/3/5 233/3/5
f 235/3/5 227/3/5 226/3/5
f 235/3/5 226/3/5 225/3/5
f 235/4/5 219/4/5 227/4/5
f 236/4/5 187/4/5 219/4/5
f 236/4/5 219/4/5 235/4/5
f 237/3/5 232/3/5 231/3/5
f 237/3/5 231/3/5 220/3/5
f 238/4/5 234/4/5 233/4/5
f 238/3/5 232/3/5 237/3/5
f 238/4/5 233/4/5 232/4/5
f 239/4/5 234/4/5 238/4/5
f 240/3/5 212/3/5 230/3/5
f 240/3/5 230/3/5 229/3/5
f 241/3/5 212/3/5 240/3/5
f 242/4/5 238/4/5 237/4/5
f 243/4/5 238/4/5 242/4/5
f 244/4/5 234/4/5 239/4/5
f 244/3/5 239/3/5 238/3/5
f 245/3/5 224/3/5 234/3/5
f 245/4/5 234/4/5 244/4/5
f 246/4/5 238/4/5 243/4/5
f 246/3/5 243/3/5 242/3/5
f 247/3/5 244/3/5 238/3/5
f 247/4/5 238/4/5 246/4/5
f 247/3/5 245/3/5 244/3/5
f 248/3/5 245/3/5 247/3/5
f 249/4/5 225/4/5 224/4/5
f 249/3/5 235/3/5 225/3/5
f 249/3/5 236/3/5 235/3/5
f 250/3/5 236/3/5 249/3/5
f 251/3/5 245/3/5 248/3/5
f 251/3/5 224/3/5 245/3/5
f 251/4/5 250/4/5 249/4/5
f 251/4/5 249/4/5 224/4/5
f 252/4/5 250/4/5 251/4/5
f 253/3/5 236/3/5 250/3/5
f 253/4/5 187/4/5 236/4/5
f 254/4/5 187/4/5 253/4/5
f 255/3/5 228/3/5 198/3/5
f 255/4/5 198/4/5 207/4/5
f 256/4/5 229/4/5 228/4/5
f 256/3/5 228/3/5 255/3/5
f 257/3/5 240/3/5 229/3/5
f 257/4/5 229/4/5 256/4/5
f 258/4/5 255/4/5 207/4/5
f 258/3/5 207/3/5 206/3/5
f 258/4/5 256/4/5 255/4/5
f 259/4/5 256/4/5 258/4/5
f 260/3/5 240/3/5 257/3/5
f 260/3/5 257/3/5 256/3/5
f 261/4/5 241/4/5 240/4/5
f 261/3/5 240/3/5 260/3/5
f 262/3/5 212/3/5 241/3/5
f 262/4/5 241/4/5 261/4/5
f 263/3/5 259/3/5 258/3/5
f 263/3/5 258/3/5 206/3/5
f 264/3/5 259/3/5 263/3/5
f 265/4/5 256/4/5 259/4/5
f 265/3/5 259/3/5 264/3/5
f 266/3/5 260/3/5 256/3/5
f 266/4/5 256/4/5 265/4/5
f 267/3/5 260/3/5 266/3/5
f 268/4/5 261/4/5 260/4/5
f 268/3/5 260/3/5 267/3/5
f 269/4/5 261/4/5 268/4/5
f 270/3/5 262/3/5 261/3/5
f 270/4/5 261/4/5 269/4/5
f 271/4/5 248/4/5 247/4/5
f 271/3/5 247/3/5 246/3/5
f 272/3/5 252/3/5 251/3/5
f 272/4/5 248/4/5 271/4/5
f 272/3/5 251/3/5 248/3/5
f 273/3/5 252/3/5 272/3/5
f 274/4/5 250/4/5 252/4/5
f 274/3/5 252/3/5 273/3/5
f 275/3/5 254/3/5 253/3/5
f 275/4/5 250/4/5 274/4/5
f 275/3/5 253/3/5 250/3/5
f 276/4/5 264/4/5 263/4/5
f 277/3/5 265/3/5 264/3/5
f 277/4/5 264/4/5 276/4/5
f 277/3/5 267/3/5 266/3/5
f 277/3/5 266/3/5 265/3/5
f 278/4/5 268/4/5 267/4/5
f 278/3/5 267/3/5 277/3/5
f 278/4/5 269/4/5 268/4/5
f 279/3/5 270/3/5 269/3/5
f 279/4/5 269/4/5 278/4/5
f 280/3/5 278/3/5 277/3/5
f 280/3/5 277/3/5 276/3/5
f 280/3/5 279/3/5 278/3/5
f 281/3/5 262/3/5 270/3/5
f 281/3/5 279/3/5 280/3/5
f 281/3/5 270/3/5 279/3/5
f 282/3/5 212/3/5 262/3/5
f 282/3/5 262/3/5 281/3/5
f 283/3/5 246/3/5 242/3/5
f 283/3/5 273/3/5 272/3/5
f 283/3/5 272/3/5 271/3/5
f 283/3/5 271/3/5 246/3/5
f 284/3/5 273/3/5 283/3/5
f 285/4/5 274/4/5 273/4/5
f 285/3/5 273/3/5 284/3/5
f 286/3/5 275/3/5 274/3/5
f 286/4/5 274/4/5 285/4/5
f 287/3/5 254/3/5 275/3/5
f 287/3/5 275/3/5 286/3/5
f 288/3/5 280/3/5 276/3/5
f 289/4/5 281/4/5 280/4/5
f 289/3/5 280/3/5 288/3/5
f 290/3/5 282/3/5 281/3/5
f 290/4/5 281/4/5 289/4/5
f 291/3/5 282/3/5 290/3/5
f 292/4/5 284/4/5 283/4/5
f 293/3/5 286/3/5 285/3/5
f 293/4/5 284/4/5 292/4/5
f 293/3/5 285/3/5 284/3/5
f 294/4/5 287/4/5 286/4/5
f 294/3/5 286/3/5 293/3/5
f 295/3/5 254/3/5 287/3/5
f 295/4/5 287/4/5 294/4/5
f 296/3/5 254/3/5 295/3/5
f 297/4/6 298/4/6 299/4/6
f 299/4/6 298/4/6 300/4/6
f 299/1/6 300/1/6 301/1/6
f 301/1/6 300/1/6 302/1/6
f 301/1/6 302/1/6 303/1/6
f 303/1/6 302/1/6 304/1/6
f 303/2/6 304/2/6 305/2/6
f 303/2/6 305/2/6 306/2/6
f 306/2/6 305/2/6 307/2/6
f 306/1/6 307/1/6 308/1/6
f 308/1/6 307/1/6 309/1/6
f 308/3/6 309/3/6 310/3/6
f 310/3/6 309/3/6 311/3/6
f 312/3/6 313/3/6 320/3/6
f 313/4/6 314/4/6 321/4/6
f 320/3/6 313/3/6 321/3/6
f 314/3/6 315/3/6 322/3/6
f 321/4/6 314/4/6 322/4/6
f 322/3/6 315/3/6 323/3/6
f 323/3/6 315/3/6 324/3/6
f 316/3/6 317/3/6 325/3/6
f 317/4/6 318/4/6 326/4/6
f 325/3/6 317/3/6 326/3/6
f 318/3/6 319/3/6 327/3/6
f 326/4/6 318/4/6 327/4/6
f 320/1/6 321/1/6 328/1/6
f 321/1/6 322/1/6 328/1/6
f 322/1/6 323/1/6 328/1/6
f 328/1/6 323/1/6 329/1/6
f 329/1/6 323/1/6 330/1/6
f 323/2/6 324/2/6 331/2/6
f 330/1/6 323/1/6 331/1/6
f 331/2/6 324/2/6 332/2/6
f 332/2/6 324/2/6 333/2/6
f 325/1/6 326/1/6 334/1/6
f 326/1/6 327/1/6 334/1/6
f 334/1/6 327/1/6 335/1/6
f 320/1/6 328/1/6 336/1/6
f 328/2/6 329/2/6 336/2/6
f 329/1/6 330/1/6 337/1/6
f 336/2/6 329/2/6 337/2/6
f 335/1/6 327/1/6 338/1/6
f 334/2/6 335/2/6 338/2/6
f 338/1/6 327/1/6 339/1/6
f 320/1/6 336/1/6 340/1/6
f 336/1/6 337/1/6 340/1/6
f 337/1/6 330/1/6 341/1/6
f 340/1/6 337/1/6 341/1/6
f 331/2/6 332/2/6 342/2/6
f 341/1/6 330/1/6 342/1/6
f 330/2/6 331/2/6 342/2/6
f 332/1/6 333/1/6 343/1/6
f 342/2/6 332/2/6 343/2/6
f 338/2/6 339/2/6 344/2/6
f 334/2/6 338/2/6 344/2/6
f 325/1/6 334/1/6 344/1/6
f 339/1/6 327/1/6 345/1/6
f 344/2/6 339/2/6 345/2/6
f 345/1/6 327/1/6 346/1/6
f 340/2/6 341/2/6 347/2/6
f 320/1/6 340/1/6 347/1/6
f 347/2/6 341/2/6 348/2/6
f 325/1/6 344/1/6 349/1/6
f 344/1/6 345/1/6 349/1/6
f 349/1/6 345/1/6 350/1/6
f 345/2/6 346/2/6 351/2/6
f 350/1/6 345/1/6 351/1/6
f 346/1/6 327/1/6 352/1/6
f 351/2/6 346/2/6 352/2/6
f 352/1/6 327/1/6 353/1/6
f 312/3/6 320/3/6 354/3/6
f 347/1/6 348/1/6 355/1/6
f 354/3/6 320/3/6 355/3/6
f 320/1/6 347/1/6 355/1/6
f 341/1/6 342/1/6 356/1/6
f 348/2/6 341/2/6 356/2/6
f 342/1/6 343/1/6 356/1/6
f 356/1/6 343/1/6 357/1/6
f 355/1/6 348/1/6 358/1/6
f 348/2/6 356/2/6 358/2/6
f 356/2/6 357/2/6 358/2/6
f 358/2/6 357/2/6 359/2/6
f 357/1/6 343/1/6 360/1/6
f 359/2/6 357/2/6 360/2/6
f 360/1/6 343/1/6 361/1/6
f 350/1/6 351/1/6 362/1/6
f 351/1/6 352/1/6 362/1/6
f 352/2/6 353/2/6 362/2/6
f 353/1/6 327/1/6 363/1/6
f 362/2/6 353/2/6 363/2/6
f 354/4/6 355/4/6 364/4/6
f 358/1/6 359/1/6 365/1/6
f 364/4/6 355/4/6 365/4/6
f 355/1/6 358/1/6 365/1/6
f 365/1/6 359/1/6 366/1/6
f 366/1/6 359/1/6 367/1/6
f 360/2/6 361/2/6 368/2/6
f 367/1/6 359/1/6 368/1/6
f 359/2/6 360/2/6 368/2/6
f 368/2/6 361/2/6 369/2/6
f 350/1/6 362/1/6 370/1/6
f 362/1/6 363/1/6 370/1/6
f 370/1/6 363/1/6 371/1/6
f 366/2/6 367/2/6 372/2/6
f 368/1/6 369/1/6 372/1/6
f 367/1/6 368/1/6 372/1/6
f 372/1/6 369/1/6 373/1/6
f 369/2/6 361/2/6 374/2/6
f 373/1/6 369/1/6 374/1/6
f 361/1/6 343/1/6 375/1/6
f 374/2/6 361/2/6 375/2/6
f 375/1/6 343/1/6 376/1/6
f 372/2/6 373/2/6 377/2/6
f 365/1/6 366/1/6 377/1/6
f 366/2/6 372/2/6 377/2/6
f 377/2/6 373/2/6 378/2/6
f 373/1/6 374/1/6 379/1/6
f 378/2/6 373/2/6 379/2/6
f 374/1/6 375/1/6 379/1/6
f 379/1/6 375/1/6 380/1/6
f 380/1/6 375/1/6 381/1/6
f 375/2/6 376/2/6 382/2/6
f 381/1/6 375/1/6 382/1/6
f 376/1/6 343/1/6 383/1/6
f 382/2/6 376/2/6 383/2/6
f 377/1/6 378/1/6 384/1/6
f 378/2/6 379/2/6 384/2/6
f 379/2/6 380/2/6 384/2/6
f 384/2/6 380/2/6 385/2/6
f 381/2/6 382/2/6 386/2/6
f 382/1/6 383/1/6 386/1/6
f 383/1/6 343/1/6 387/1/6
f 386/1/6 383/1/6 387/1/6
f 349/2/6 350/2/6 388/2/6
f 350/1/6 370/1/6 389/1/6
f 388/2/6 350/2/6 389/2/6
f 389/1/6 370/1/6 390/1/6
f 370/2/6 371/2/6 391/2/6
f 390/1/6 370/1/6 391/1/6
f 363/1/6 327/1/6 392/1/6
f 371/1/6 363/1/6 392/1/6
f 392/1/6 327/1/6 393/1/6
f 385/2/6 380/2/6 394/2/6
f 384/1/6 385/1/6 394/1/6
f 380/1/6 381/1/6 395/1/6
f 394/2/6 380/2/6 395/2/6
f 381/2/6 386/2/6 396/2/6
f 395/1/6 381/1/6 396/1/6
f 386/2/6 387/2/6 396/2/6
f 396/2/6 387/2/6 397/2/6
f 387/1/6 343/1/6 398/1/6
f 397/2/6 387/2/6 398/2/6
f 343/1/6 333/1/6 399/1/6
f 398/1/6 343/1/6 399/1/6
f 391/2/6 371/2/6 400/2/6
f 390/2/6 391/2/6 400/2/6
f 371/1/6 392/1/6 401/1/6
f 400/2/6 371/2/6 401/2/6
f 364/3/6 365/3/6 402/3/6
f 394/1/6 395/1/6 403/1/6
f 402/3/6 365/3/6 403/3/6
f 396/1/6 397/1/6 403/1/6
f 384/1/6 394/1/6 403/1/6
f 395/1/6 396/1/6 403/1/6
f 365/1/6 377/1/6 403/1/6
f 377/1/6 384/1/6 403/1/6
f 403/1/6 397/1/6 404/1/6
f 404/1/6 397/1/6 405/1/6
f 397/2/6 398/2/6 406/2/6
f 405/1/6 397/1/6 406/1/6
f 398/2/6 399/2/6 406/2/6
f 399/1/6 333/1/6 407/1/6
f 406/2/6 399/2/6 407/2/6
f 388/1/6 389/1/6 408/1/6
f 389/1/6 390/1/6 408/1/6
f 390/2/6 400/2/6 409/2/6
f 408/1/6 390/1/6 409/1/6
f 400/1/6 401/1/6 410/1/6
f 401/1/6 392/1/6 410/1/6
f 392/2/6 393/2/6 411/2/6
f 410/1/6 392/1/6 411/1/6
f 393/1/6 327/1/6 412/1/6
f 327/3/6 319/3/6 412/3/6
f 412/3/6 319/3/6 413/3/6
f 405/1/6 406/1/6 414/1/6
f 404/2/6 405/2/6 414/2/6
f 406/1/6 407/1/6 414/1/6
f 414/1/6 407/1/6 415/1/6
f 388/1/6 408/1/6 416/1/6
f 408/2/6 409/2/6 417/2/6
f 416/1/6 408/1/6 417/1/6
f 409/2/6 400/2/6 418/2/6
f 417/2/6 409/2/6 418/2/6
f 400/1/6 410/1/6 419/1/6
f 418/2/6 400/2/6 419/2/6
f 411/2/6 393/2/6 420/2/6
f 410/2/6 411/2/6 420/2/6
f 393/1/6 412/1/6 421/1/6
f 420/2/6 393/2/6 421/2/6
f 403/1/6 404/1/6 422/1/6
f 404/2/6 414/2/6 422/2/6
f 414/2/6 415/2/6 422/2/6
f 422/2/6 415/2/6 423/2/6
f 415/1/6 407/1/6 424/1/6
f 423/2/6 415/2/6 424/2/6
f 424/1/6 407/1/6 425/1/6
f 416/2/6 417/2/6 426/2/6
f 417/2/6 418/2/6 426/2/6
f 418/1/6 419/1/6 427/1/6
f 426/2/6 418/2/6 427/2/6
f 419/1/6 410/1/6 428/1/6
f 427/1/6 419/1/6 428/1/6
f 410/2/6 420/2/6 429/2/6
f 428/1/6 410/1/6 429/1/6
f 402/4/6 403/4/6 430/4/6
f 422/1/6 423/1/6 431/1/6
f 430/4/6 403/4/6 431/4/6
f 403/1/6 422/1/6 431/1/6
f 424/2/6 425/2/6 432/2/6
f 431/1/6 423/1/6 432/1/6
f 423/2/6 424/2/6 432/2/6
f 425/1/6 407/1/6 433/1/6
f 432/2/6 425/2/6 433/2/6
f 433/1/6 407/1/6 434/1/6
f 416/2/6 426/2/6 435/2/6
f 388/1/6 416/1/6 435/1/6
f 426/1/6 427/1/6 436/1/6
f 435/2/6 426/2/6 436/2/6
f 427/1/6 428/1/6 436/1/6
f 428/2/6 429/2/6 437/2/6
f 436/1/6 428/1/6 437/1/6
f 429/2/6 420/2/6 438/2/6
f 437/2/6 429/2/6 438/2/6
f 420/1/6 421/1/6 438/1/6
f 431/1/6 432/1/6 439/1/6
f 432/1/6 433/1/6 439/1/6
f 433/2/6 434/2/6 439/2/6
f 434/1/6 407/1/6 440/1/6
f 439/2/6 434/2/6 440/2/6
f 438/1/6 421/1/6 441/1/6
f 412/4/6 413/4/6 441/4/6
f 421/1/6 412/1/6 441/1/6
f 436/1/6 437/1/6 441/1/6
f 437/1/6 438/1/6 441/1/6
f 435/1/6 436/1/6 441/1/6
f 441/4/6 413/4/6 442/4/6
f 431/1/6 439/1/6 443/1/6
f 439/1/6 440/1/6 443/1/6
f 430/3/6 431/3/6 443/3/6
f 443/1/6 440/1/6 444/1/6
f 440/1/6 407/1/6 445/1/6
f 444/1/6 440/1/6 445/1/6
f 407/1/6 333/1/6 445/1/6
f 388/1/6 435/1/6 446/1/6
f 435/1/6 441/1/6 446/1/6
f 446/1/6 441/1/6 447/1/6
f 447/1/6 441/1/6 448/1/6
f 441/3/6 442/3/6 449/3/6
f 448/1/6 441/1/6 449/1/6
f 430/3/6 443/3/6 450/3/6
f 443/4/6 444/4/6 451/4/6
f 450/3/6 443/3/6 451/3/6
f 444/3/6 445/3/6 452/3/6
f 451/4/6 444/4/6 452/4/6
f 452/3/6 445/3/6 453/3/6
f 446/3/6 447/3/6 454/3/6
f 447/4/6 448/4/6 455/4/6
f 454/3/6 447/3/6 455/3/6
f 448/3/6 449/3/6 456/3/6
f 455/4/6 448/4/6 456/4/6
f 449/3/6 442/3/6 457/3/6
f 456/3/6 449/3/6 457/3/6
