# MagicaVoxel @ Ephtracy

# group
o 

# material
mtllib VR Токарев лампа.mtl
usemtl palette

# normals
vn -1 0 0
vn 1 0 0
vn 0 0 1
vn 0 0 -1
vn 0 -1 0
vn 0 1 0

# texcoords
vt 0.0449219 0.5
vt 0.0683594 0.5
vt 0.0878906 0.5
vt 0.369141 0.5
vt 0.396484 0.5
vt 0.986328 0.5

# verts
v -0.4 0.1 0.4
v -0.4 0.1 -0.4
v -0.4 0.2 0.3
v -0.4 0.2 -0.3
v -0.4 1.3 0.3
v -0.4 1.3 -0.3
v -0.4 1.4 0.4
v -0.4 1.4 -0.4
v -0.3 0.2 0.3
v -0.3 0.2 -0.3
v -0.3 0.3 0.3
v -0.3 0.3 -0.3
v -0.3 0.4 0.2
v -0.3 0.4 -0.2
v -0.3 0.5 0.1
v -0.3 0.5 -0.1
v -0.3 1 0.1
v -0.3 1 -0.1
v -0.3 1.1 0.2
v -0.3 1.1 -0.2
v -0.3 1.2 0.3
v -0.3 1.2 -0.3
v -0.3 1.3 0.3
v -0.3 1.3 -0.3
v -0.2 1.4 0.2
v -0.2 1.4 -0.2
v -0.2 1.5 0.2
v -0.2 1.5 -0.2
v -0.1 1.5 0.1
v -0.1 1.5 -0.1
v -0.1 4 0.1
v -0.1 4 -0.1
v 0.3 0.2 0.4
v 0.3 0.2 0.3
v 0.3 0.2 -0.3
v 0.3 0.2 -0.4
v 0.3 0.3 0.3
v 0.3 0.3 -0.3
v 0.3 1.2 0.3
v 0.3 1.2 -0.3
v 0.3 1.3 0.4
v 0.3 1.3 0.3
v 0.3 1.3 -0.3
v 0.3 1.3 -0.4
v -0.3 0.2 0.4
v -0.3 0.2 0.3
v -0.3 0.2 -0.3
v -0.3 0.2 -0.4
v -0.3 0.3 0.3
v -0.3 0.3 -0.3
v -0.3 1.2 0.3
v -0.3 1.2 -0.3
v -0.3 1.3 0.4
v -0.3 1.3 0.3
v -0.3 1.3 -0.3
v -0.3 1.3 -0.4
v 0.1 1.5 0.1
v 0.1 1.5 -0.1
v 0.1 4 0.1
v 0.1 4 -0.1
v 0.2 1.4 0.2
v 0.2 1.4 -0.2
v 0.2 1.5 0.2
v 0.2 1.5 -0.2
v 0.3 0.2 0.3
v 0.3 0.2 -0.3
v 0.3 0.3 0.3
v 0.3 0.3 -0.3
v 0.3 0.4 0.2
v 0.3 0.4 -0.2
v 0.3 0.5 0.1
v 0.3 0.5 -0.1
v 0.3 1 0.1
v 0.3 1 -0.1
v 0.3 1.1 0.2
v 0.3 1.1 -0.2
v 0.3 1.2 0.3
v 0.3 1.2 -0.3
v 0.3 1.3 0.3
v 0.3 1.3 -0.3
v 0.4 0.1 0.4
v 0.4 0.1 -0.4
v 0.4 0.2 0.3
v 0.4 0.2 -0.3
v 0.4 1.3 0.3
v 0.4 1.3 -0.3
v 0.4 1.4 0.4
v 0.4 1.4 -0.4
v -0.4 0.1 0.4
v -0.4 1.4 0.4
v -0.3 0.2 0.4
v -0.3 1.3 0.4
v 0.3 0.2 0.4
v 0.3 1.3 0.4
v 0.4 0.1 0.4
v 0.4 1.4 0.4
v -0.3 0.2 0.3
v -0.3 0.3 0.3
v -0.3 1.2 0.3
v -0.3 1.3 0.3
v -0.2 0.4 0.3
v -0.2 1.1 0.3
v -0.1 0.5 0.3
v -0.1 1 0.3
v 0.1 0.5 0.3
v 0.1 1 0.3
v 0.2 0.4 0.3
v 0.2 1.1 0.3
v 0.3 0.2 0.3
v 0.3 0.3 0.3
v 0.3 1.2 0.3
v 0.3 1.3 0.3
v -0.2 1.4 0.2
v -0.2 1.5 0.2
v 0.2 1.4 0.2
v 0.2 1.5 0.2
v -0.1 1.5 0.1
v -0.1 4 0.1
v 0.1 1.5 0.1
v 0.1 4 0.1
v -0.4 0.2 -0.3
v -0.4 1.3 -0.3
v -0.3 0.2 -0.3
v -0.3 0.3 -0.3
v -0.3 1.2 -0.3
v -0.3 1.3 -0.3
v 0.3 0.2 -0.3
v 0.3 0.3 -0.3
v 0.3 1.2 -0.3
v 0.3 1.3 -0.3
v 0.4 0.2 -0.3
v 0.4 1.3 -0.3
v -0.4 0.2 0.3
v -0.4 1.3 0.3
v -0.3 0.2 0.3
v -0.3 0.3 0.3
v -0.3 1.2 0.3
v -0.3 1.3 0.3
v 0.3 0.2 0.3
v 0.3 0.3 0.3
v 0.3 1.2 0.3
v 0.3 1.3 0.3
v 0.4 0.2 0.3
v 0.4 1.3 0.3
v -0.1 1.5 -0.1
v -0.1 4 -0.1
v 0.1 1.5 -0.1
v 0.1 4 -0.1
v -0.2 1.4 -0.2
v -0.2 1.5 -0.2
v 0.2 1.4 -0.2
v 0.2 1.5 -0.2
v -0.3 0.2 -0.3
v -0.3 0.3 -0.3
v -0.3 1.2 -0.3
v -0.3 1.3 -0.3
v -0.2 0.4 -0.3
v -0.2 1.1 -0.3
v -0.1 0.5 -0.3
v -0.1 1 -0.3
v 0.1 0.5 -0.3
v 0.1 1 -0.3
v 0.2 0.4 -0.3
v 0.2 1.1 -0.3
v 0.3 0.2 -0.3
v 0.3 0.3 -0.3
v 0.3 1.2 -0.3
v 0.3 1.3 -0.3
v -0.4 0.1 -0.4
v -0.4 1.4 -0.4
v -0.3 0.2 -0.4
v -0.3 1.3 -0.4
v 0.3 0.2 -0.4
v 0.3 1.3 -0.4
v 0.4 0.1 -0.4
v 0.4 1.4 -0.4
v -0.4 0.1 0.4
v 0.4 0.1 0.4
v -0.4 0.1 -0.4
v 0.4 0.1 -0.4
v -0.3 1.3 0.4
v 0.3 1.3 0.4
v -0.4 1.3 0.3
v -0.3 1.3 0.3
v 0.3 1.3 0.3
v 0.4 1.3 0.3
v -0.4 1.3 -0.3
v -0.3 1.3 -0.3
v 0.3 1.3 -0.3
v 0.4 1.3 -0.3
v -0.3 1.3 -0.4
v 0.3 1.3 -0.4
v -0.3 0.2 0.4
v 0.3 0.2 0.4
v -0.4 0.2 0.3
v -0.3 0.2 0.3
v 0.3 0.2 0.3
v 0.4 0.2 0.3
v -0.4 0.2 -0.3
v -0.3 0.2 -0.3
v 0.3 0.2 -0.3
v 0.4 0.2 -0.3
v -0.3 0.2 -0.4
v 0.3 0.2 -0.4
v -0.4 1.4 0.4
v 0.4 1.4 0.4
v -0.2 1.4 0.2
v 0.2 1.4 0.2
v -0.2 1.4 -0.2
v 0.2 1.4 -0.2
v -0.4 1.4 -0.4
v 0.4 1.4 -0.4
v -0.2 1.5 0.2
v 0.2 1.5 0.2
v -0.1 1.5 0.1
v 0.1 1.5 0.1
v -0.1 1.5 -0.1
v 0.1 1.5 -0.1
v -0.2 1.5 -0.2
v 0.2 1.5 -0.2
v -0.1 4 0.1
v 0.1 4 0.1
v -0.1 4 -0.1
v 0.1 4 -0.1

# faces
f 3/6/1 2/6/1 1/6/1
f 4/6/1 2/6/1 3/6/1
f 5/6/1 3/6/1 1/6/1
f 6/6/1 2/6/1 4/6/1
f 7/6/1 5/6/1 1/6/1
f 7/6/1 6/6/1 5/6/1
f 8/6/1 2/6/1 6/6/1
f 8/6/1 6/6/1 7/6/1
f 11/5/1 10/5/1 9/5/1
f 12/5/1 10/5/1 11/5/1
f 13/3/1 12/3/1 11/3/1
f 14/3/1 12/3/1 13/3/1
f 15/2/1 14/2/1 13/2/1
f 16/2/1 14/2/1 15/2/1
f 17/2/1 15/2/1 13/2/1
f 17/1/1 16/1/1 15/1/1
f 18/2/1 14/2/1 16/2/1
f 18/1/1 16/1/1 17/1/1
f 19/3/1 13/3/1 11/3/1
f 19/2/1 17/2/1 13/2/1
f 19/2/1 18/2/1 17/2/1
f 20/2/1 14/2/1 18/2/1
f 20/2/1 18/2/1 19/2/1
f 20/3/1 12/3/1 14/3/1
f 21/3/1 19/3/1 11/3/1
f 21/3/1 20/3/1 19/3/1
f 22/3/1 12/3/1 20/3/1
f 22/3/1 20/3/1 21/3/1
f 23/5/1 22/5/1 21/5/1
f 24/5/1 22/5/1 23/5/1
f 27/6/1 26/6/1 25/6/1
f 28/6/1 26/6/1 27/6/1
f 31/4/1 30/4/1 29/4/1
f 32/4/1 30/4/1 31/4/1
f 37/6/1 34/6/1 33/6/1
f 38/6/1 36/6/1 35/6/1
f 39/6/1 37/6/1 33/6/1
f 40/6/1 36/6/1 38/6/1
f 41/6/1 39/6/1 33/6/1
f 42/6/1 39/6/1 41/6/1
f 43/6/1 36/6/1 40/6/1
f 44/6/1 36/6/1 43/6/1
f 45/6/2 46/6/2 49/6/2
f 47/6/2 48/6/2 50/6/2
f 45/6/2 49/6/2 51/6/2
f 50/6/2 48/6/2 52/6/2
f 45/6/2 51/6/2 53/6/2
f 53/6/2 51/6/2 54/6/2
f 52/6/2 48/6/2 55/6/2
f 55/6/2 48/6/2 56/6/2
f 57/4/2 58/4/2 59/4/2
f 59/4/2 58/4/2 60/4/2
f 61/6/2 62/6/2 63/6/2
f 63/6/2 62/6/2 64/6/2
f 65/5/2 66/5/2 67/5/2
f 67/5/2 66/5/2 68/5/2
f 67/3/2 68/3/2 69/3/2
f 69/3/2 68/3/2 70/3/2
f 69/2/2 70/2/2 71/2/2
f 71/2/2 70/2/2 72/2/2
f 69/2/2 71/2/2 73/2/2
f 71/1/2 72/1/2 73/1/2
f 72/2/2 70/2/2 74/2/2
f 73/1/2 72/1/2 74/1/2
f 67/3/2 69/3/2 75/3/2
f 69/2/2 73/2/2 75/2/2
f 73/2/2 74/2/2 75/2/2
f 74/2/2 70/2/2 76/2/2
f 75/2/2 74/2/2 76/2/2
f 70/3/2 68/3/2 76/3/2
f 67/3/2 75/3/2 77/3/2
f 75/3/2 76/3/2 77/3/2
f 76/3/2 68/3/2 78/3/2
f 77/3/2 76/3/2 78/3/2
f 77/5/2 78/5/2 79/5/2
f 79/5/2 78/5/2 80/5/2
f 81/6/2 82/6/2 83/6/2
f 83/6/2 82/6/2 84/6/2
f 81/6/2 83/6/2 85/6/2
f 84/6/2 82/6/2 86/6/2
f 81/6/2 85/6/2 87/6/2
f 85/6/2 86/6/2 87/6/2
f 86/6/2 82/6/2 88/6/2
f 87/6/2 86/6/2 88/6/2
f 91/6/3 90/6/3 89/6/3
f 92/6/3 90/6/3 91/6/3
f 93/6/3 91/6/3 89/6/3
f 94/6/3 90/6/3 92/6/3
f 95/6/3 93/6/3 89/6/3
f 95/6/3 94/6/3 93/6/3
f 96/6/3 90/6/3 94/6/3
f 96/6/3 94/6/3 95/6/3
f 101/3/3 99/3/3 98/3/3
f 102/3/3 99/3/3 101/3/3
f 103/2/3 102/2/3 101/2/3
f 104/2/3 102/2/3 103/2/3
f 105/2/3 103/2/3 101/2/3
f 105/1/3 104/1/3 103/1/3
f 106/2/3 102/2/3 104/2/3
f 106/1/3 104/1/3 105/1/3
f 107/3/3 101/3/3 98/3/3
f 107/2/3 105/2/3 101/2/3
f 107/2/3 106/2/3 105/2/3
f 108/2/3 102/2/3 106/2/3
f 108/2/3 106/2/3 107/2/3
f 108/3/3 99/3/3 102/3/3
f 109/5/3 98/5/3 97/5/3
f 110/3/3 107/3/3 98/3/3
f 110/5/3 98/5/3 109/5/3
f 110/3/3 108/3/3 107/3/3
f 111/3/3 99/3/3 108/3/3
f 111/3/3 108/3/3 110/3/3
f 111/5/3 100/5/3 99/5/3
f 112/5/3 100/5/3 111/5/3
f 115/6/3 114/6/3 113/6/3
f 116/6/3 114/6/3 115/6/3
f 119/4/3 118/4/3 117/4/3
f 120/4/3 118/4/3 119/4/3
f 123/6/3 122/6/3 121/6/3
f 124/6/3 122/6/3 123/6/3
f 125/6/3 122/6/3 124/6/3
f 126/6/3 122/6/3 125/6/3
f 131/6/3 128/6/3 127/6/3
f 131/6/3 130/6/3 129/6/3
f 131/6/3 129/6/3 128/6/3
f 132/6/3 130/6/3 131/6/3
f 133/6/4 134/6/4 135/6/4
f 135/6/4 134/6/4 136/6/4
f 136/6/4 134/6/4 137/6/4
f 137/6/4 134/6/4 138/6/4
f 139/6/4 140/6/4 143/6/4
f 141/6/4 142/6/4 143/6/4
f 140/6/4 141/6/4 143/6/4
f 143/6/4 142/6/4 144/6/4
f 145/4/4 146/4/4 147/4/4
f 147/4/4 146/4/4 148/4/4
f 149/6/4 150/6/4 151/6/4
f 151/6/4 150/6/4 152/6/4
f 154/3/4 155/3/4 157/3/4
f 157/3/4 155/3/4 158/3/4
f 157/2/4 158/2/4 159/2/4
f 159/2/4 158/2/4 160/2/4
f 157/2/4 159/2/4 161/2/4
f 159/1/4 160/1/4 161/1/4
f 160/2/4 158/2/4 162/2/4
f 161/1/4 160/1/4 162/1/4
f 154/3/4 157/3/4 163/3/4
f 157/2/4 161/2/4 163/2/4
f 161/2/4 162/2/4 163/2/4
f 162/2/4 158/2/4 164/2/4
f 163/2/4 162/2/4 164/2/4
f 158/3/4 155/3/4 164/3/4
f 153/5/4 154/5/4 165/5/4
f 154/3/4 163/3/4 166/3/4
f 165/5/4 154/5/4 166/5/4
f 163/3/4 164/3/4 166/3/4
f 164/3/4 155/3/4 167/3/4
f 166/3/4 164/3/4 167/3/4
f 155/5/4 156/5/4 167/5/4
f 167/5/4 156/5/4 168/5/4
f 169/6/4 170/6/4 171/6/4
f 171/6/4 170/6/4 172/6/4
f 169/6/4 171/6/4 173/6/4
f 172/6/4 170/6/4 174/6/4
f 169/6/4 173/6/4 175/6/4
f 173/6/4 174/6/4 175/6/4
f 174/6/4 170/6/4 176/6/4
f 175/6/4 174/6/4 176/6/4
f 179/6/5 178/6/5 177/6/5
f 180/6/5 178/6/5 179/6/5
f 184/6/5 182/6/5 181/6/5
f 185/6/5 182/6/5 184/6/5
f 187/6/5 184/6/5 183/6/5
f 188/6/5 184/6/5 187/6/5
f 189/6/5 186/6/5 185/6/5
f 190/6/5 186/6/5 189/6/5
f 191/6/5 189/6/5 188/6/5
f 192/6/5 189/6/5 191/6/5
f 193/6/6 194/6/6 196/6/6
f 196/6/6 194/6/6 197/6/6
f 195/6/6 196/6/6 199/6/6
f 199/6/6 196/6/6 200/6/6
f 197/6/6 198/6/6 201/6/6
f 201/6/6 198/6/6 202/6/6
f 200/6/6 201/6/6 203/6/6
f 203/6/6 201/6/6 204/6/6
f 205/6/6 206/6/6 207/6/6
f 207/6/6 206/6/6 208/6/6
f 205/6/6 207/6/6 209/6/6
f 208/6/6 206/6/6 210/6/6
f 205/6/6 209/6/6 211/6/6
f 209/6/6 210/6/6 211/6/6
f 210/6/6 206/6/6 212/6/6
f 211/6/6 210/6/6 212/6/6
f 213/6/6 214/6/6 215/6/6
f 215/6/6 214/6/6 216/6/6
f 213/6/6 215/6/6 217/6/6
f 216/6/6 214/6/6 218/6/6
f 213/6/6 217/6/6 219/6/6
f 217/6/6 218/6/6 219/6/6
f 218/6/6 214/6/6 220/6/6
f 219/6/6 218/6/6 220/6/6
f 221/4/6 222/4/6 223/4/6
f 223/4/6 222/4/6 224/4/6
