# MagicaVoxel @ Ephtracy

# group
o 

# material
mtllib VR Токарев картина 3.mtl
usemtl palette

# normals
vn -1 0 0
vn 1 0 0
vn 0 0 1
vn 0 0 -1
vn 0 -1 0
vn 0 1 0

# texcoords
vt 0.0214844 0.5
vt 0.0410156 0.5
vt 0.0449219 0.5
vt 0.0683594 0.5
vt 0.138672 0.5
vt 0.373047 0.5
vt 0.392578 0.5
vt 0.396484 0.5
vt 0.416016 0.5
vt 0.419922 0.5
vt 0.533203 0.5
vt 0.537109 0.5
vt 0.541016 0.5
vt 0.607422 0.5

# verts
v -1.1 0.9 -1.8
v -1.1 0.9 -2
v -1.1 3.1 -1.8
v -1.1 3.1 -2
v 1.1 0.9 -1.8
v 1.1 0.9 -2
v 1.1 3.1 -1.8
v 1.1 3.1 -2
v -1.1 0.9 -1.8
v -1.1 3.1 -1.8
v -1 1 -1.8
v -1 3 -1.8
v -0.9 1.4 -1.8
v -0.9 1.6 -1.8
v -0.9 1.8 -1.8
v -0.9 1.9 -1.8
v -0.9 2.1 -1.8
v -0.9 2.2 -1.8
v -0.9 2.5 -1.8
v -0.9 2.7 -1.8
v -0.8 1.2 -1.8
v -0.8 1.4 -1.8
v -0.8 1.5 -1.8
v -0.8 1.6 -1.8
v -0.8 1.7 -1.8
v -0.8 1.8 -1.8
v -0.8 2 -1.8
v -0.8 2.1 -1.8
v -0.8 2.5 -1.8
v -0.8 2.6 -1.8
v -0.7 1.1 -1.8
v -0.7 1.2 -1.8
v -0.7 1.3 -1.8
v -0.7 1.5 -1.8
v -0.7 1.6 -1.8
v -0.7 1.7 -1.8
v -0.7 1.8 -1.8
v -0.7 1.9 -1.8
v -0.7 2.1 -1.8
v -0.7 2.2 -1.8
v -0.7 2.4 -1.8
v -0.6 1.1 -1.8
v -0.6 1.3 -1.8
v -0.6 1.5 -1.8
v -0.6 1.6 -1.8
v -0.6 1.7 -1.8
v -0.6 1.8 -1.8
v -0.6 2 -1.8
v -0.6 2.1 -1.8
v -0.6 2.2 -1.8
v -0.6 2.3 -1.8
v -0.6 2.4 -1.8
v -0.6 2.6 -1.8
v -0.6 2.7 -1.8
v -0.6 2.8 -1.8
v -0.5 1.5 -1.8
v -0.5 1.7 -1.8
v -0.5 2 -1.8
v -0.5 2.1 -1.8
v -0.5 2.2 -1.8
v -0.5 2.3 -1.8
v -0.4 1 -1.8
v -0.4 1.4 -1.8
v -0.4 1.5 -1.8
v -0.4 1.8 -1.8
v -0.4 2 -1.8
v -0.4 2.2 -1.8
v -0.4 2.7 -1.8
v -0.4 2.8 -1.8
v -0.3 1 -1.8
v -0.3 1.2 -1.8
v -0.3 1.5 -1.8
v -0.3 1.6 -1.8
v -0.3 1.8 -1.8
v -0.3 1.9 -1.8
v -0.3 2.8 -1.8
v -0.3 2.9 -1.8
v -0.2 1 -1.8
v -0.2 1.1 -1.8
v -0.2 1.5 -1.8
v -0.2 1.6 -1.8
v -0.2 1.7 -1.8
v -0.2 1.8 -1.8
v -0.2 1.9 -1.8
v -0.2 2 -1.8
v -0.2 2.6 -1.8
v -0.2 2.8 -1.8
v -0.1 1.3 -1.8
v -0.1 1.4 -1.8
v -0.1 1.5 -1.8
v -0.1 1.6 -1.8
v -0.1 1.7 -1.8
v -0.1 1.8 -1.8
v -0.1 1.9 -1.8
v -0.1 2.1 -1.8
v -0.1 2.2 -1.8
v -0.1 2.4 -1.8
v -0.1 2.6 -1.8
v -0.1 2.9 -1.8
v 0 1.1 -1.8
v 0 1.2 -1.8
v 0 1.5 -1.8
v 0 1.6 -1.8
v 0 1.7 -1.8
v 0 2.1 -1.8
v 0 2.2 -1.8
v 0 2.3 -1.8
v 0 2.4 -1.8
v 0 2.5 -1.8
v 0.1 1.3 -1.8
v 0.1 1.4 -1.8
v 0.1 1.5 -1.8
v 0.1 1.6 -1.8
v 0.1 1.7 -1.8
v 0.1 1.8 -1.8
v 0.1 2.3 -1.8
v 0.1 2.5 -1.8
v 0.1 2.6 -1.8
v 0.1 2.7 -1.8
v 0.2 1.2 -1.8
v 0.2 1.4 -1.8
v 0.2 1.5 -1.8
v 0.2 1.6 -1.8
v 0.2 1.7 -1.8
v 0.2 1.9 -1.8
v 0.2 2.1 -1.8
v 0.2 2.3 -1.8
v 0.2 2.7 -1.8
v 0.2 2.8 -1.8
v 0.3 1.2 -1.8
v 0.3 1.3 -1.8
v 0.3 1.5 -1.8
v 0.3 1.6 -1.8
v 0.3 1.9 -1.8
v 0.3 2 -1.8
v 0.3 2.1 -1.8
v 0.3 2.2 -1.8
v 0.3 2.3 -1.8
v 0.3 2.4 -1.8
v 0.3 2.6 -1.8
v 0.3 2.7 -1.8
v 0.4 1 -1.8
v 0.4 1.3 -1.8
v 0.4 1.4 -1.8
v 0.4 1.5 -1.8
v 0.4 1.6 -1.8
v 0.4 2 -1.8
v 0.4 2.2 -1.8
v 0.4 2.3 -1.8
v 0.4 2.8 -1.8
v 0.4 2.9 -1.8
v 0.5 1.6 -1.8
v 0.5 1.7 -1.8
v 0.5 1.9 -1.8
v 0.5 2.1 -1.8
v 0.5 2.3 -1.8
v 0.5 2.4 -1.8
v 0.5 2.7 -1.8
v 0.5 2.8 -1.8
v 0.6 1.1 -1.8
v 0.6 1.4 -1.8
v 0.6 1.6 -1.8
v 0.6 1.7 -1.8
v 0.6 1.8 -1.8
v 0.6 1.9 -1.8
v 0.6 2 -1.8
v 0.6 2.1 -1.8
v 0.6 2.2 -1.8
v 0.6 2.5 -1.8
v 0.6 2.8 -1.8
v 0.6 2.9 -1.8
v 0.7 1.1 -1.8
v 0.7 1.3 -1.8
v 0.7 1.4 -1.8
v 0.7 1.5 -1.8
v 0.7 1.6 -1.8
v 0.7 1.7 -1.8
v 0.7 2 -1.8
v 0.7 2.1 -1.8
v 0.7 2.2 -1.8
v 0.7 2.4 -1.8
v 0.7 2.5 -1.8
v 0.7 2.6 -1.8
v 0.7 2.8 -1.8
v 0.7 3 -1.8
v 0.8 1.3 -1.8
v 0.8 1.4 -1.8
v 0.8 1.7 -1.8
v 0.8 1.8 -1.8
v 0.8 2.1 -1.8
v 0.8 2.2 -1.8
v 0.8 2.6 -1.8
v 0.8 2.8 -1.8
v 0.8 2.9 -1.8
v 0.8 3 -1.8
v 0.9 1.4 -1.8
v 0.9 1.5 -1.8
v 0.9 1.7 -1.8
v 0.9 1.8 -1.8
v 0.9 2.4 -1.8
v 0.9 2.9 -1.8
v 1 1 -1.8
v 1 3 -1.8
v 1.1 0.9 -1.8
v 1.1 3.1 -1.8
v -1.1 0.9 -2
v -1.1 3.1 -2
v 1.1 0.9 -2
v 1.1 3.1 -2
v -1.1 0.9 -1.8
v 1.1 0.9 -1.8
v -1.1 0.9 -2
v 1.1 0.9 -2
v -1.1 3.1 -1.8
v 1.1 3.1 -1.8
v -1.1 3.1 -2
v 1.1 3.1 -2

# faces
f 3/6/1 2/6/1 1/6/1
f 4/6/1 2/6/1 3/6/1
f 5/6/2 6/6/2 7/6/2
f 7/6/2 6/6/2 8/6/2
f 11/6/3 10/6/3 9/6/3
f 12/6/3 10/6/3 11/6/3
f 13/12/3 12/12/3 11/12/3
f 14/12/3 12/12/3 13/12/3
f 15/12/3 12/12/3 14/12/3
f 16/12/3 12/12/3 15/12/3
f 17/12/3 12/12/3 16/12/3
f 18/12/3 12/12/3 17/12/3
f 19/12/3 12/12/3 18/12/3
f 20/12/3 12/12/3 19/12/3
f 21/12/3 13/12/3 11/12/3
f 22/11/3 14/11/3 13/11/3
f 22/12/3 13/12/3 21/12/3
f 23/11/3 14/11/3 22/11/3
f 24/12/3 15/12/3 14/12/3
f 24/11/3 14/11/3 23/11/3
f 25/12/3 15/12/3 24/12/3
f 26/1/3 16/1/3 15/1/3
f 26/12/3 15/12/3 25/12/3
f 27/12/3 17/12/3 16/12/3
f 28/11/3 18/11/3 17/11/3
f 28/12/3 17/12/3 27/12/3
f 29/12/3 19/12/3 18/12/3
f 29/11/3 20/11/3 19/11/3
f 30/11/3 20/11/3 29/11/3
f 31/12/3 21/12/3 11/12/3
f 32/11/3 23/11/3 22/11/3
f 32/12/3 21/12/3 31/12/3
f 32/11/3 22/11/3 21/11/3
f 33/11/3 23/11/3 32/11/3
f 34/12/3 25/12/3 24/12/3
f 34/11/3 23/11/3 33/11/3
f 34/12/3 24/12/3 23/12/3
f 35/12/3 25/12/3 34/12/3
f 36/2/3 26/2/3 25/2/3
f 36/12/3 25/12/3 35/12/3
f 37/1/3 16/1/3 26/1/3
f 37/2/3 26/2/3 36/2/3
f 38/12/3 27/12/3 16/12/3
f 38/1/3 16/1/3 37/1/3
f 39/11/3 18/11/3 28/11/3
f 39/11/3 28/11/3 27/11/3
f 40/12/3 30/12/3 29/12/3
f 40/11/3 18/11/3 39/11/3
f 40/12/3 29/12/3 18/12/3
f 41/12/3 30/12/3 40/12/3
f 42/12/3 31/12/3 11/12/3
f 42/11/3 33/11/3 32/11/3
f 42/11/3 32/11/3 31/11/3
f 43/12/3 35/12/3 34/12/3
f 43/11/3 33/11/3 42/11/3
f 43/12/3 34/12/3 33/12/3
f 44/12/3 35/12/3 43/12/3
f 45/2/3 36/2/3 35/2/3
f 45/12/3 35/12/3 44/12/3
f 45/2/3 37/2/3 36/2/3
f 46/2/3 37/2/3 45/2/3
f 47/12/3 38/12/3 37/12/3
f 47/2/3 37/2/3 46/2/3
f 48/12/3 27/12/3 38/12/3
f 48/12/3 38/12/3 47/12/3
f 48/11/3 39/11/3 27/11/3
f 49/12/3 40/12/3 39/12/3
f 49/11/3 39/11/3 48/11/3
f 50/1/3 41/1/3 40/1/3
f 50/12/3 40/12/3 49/12/3
f 51/1/3 41/1/3 50/1/3
f 52/12/3 30/12/3 41/12/3
f 52/1/3 41/1/3 51/1/3
f 53/11/3 20/11/3 30/11/3
f 53/12/3 30/12/3 52/12/3
f 54/12/3 12/12/3 20/12/3
f 54/11/3 20/11/3 53/11/3
f 55/12/3 12/12/3 54/12/3
f 56/12/3 44/12/3 43/12/3
f 56/12/3 43/12/3 42/12/3
f 56/1/3 46/1/3 45/1/3
f 56/1/3 45/1/3 44/1/3
f 57/12/3 49/12/3 48/12/3
f 57/1/3 46/1/3 56/1/3
f 57/12/3 47/12/3 46/12/3
f 57/12/3 48/12/3 47/12/3
f 58/12/3 49/12/3 57/12/3
f 59/2/3 50/2/3 49/2/3
f 59/12/3 49/12/3 58/12/3
f 60/1/3 51/1/3 50/1/3
f 60/2/3 50/2/3 59/2/3
f 61/12/3 53/12/3 52/12/3
f 61/1/3 51/1/3 60/1/3
f 61/12/3 52/12/3 51/12/3
f 61/12/3 54/12/3 53/12/3
f 62/6/3 11/6/3 9/6/3
f 62/12/3 57/12/3 56/12/3
f 62/12/3 56/12/3 42/12/3
f 62/12/3 58/12/3 57/12/3
f 62/12/3 42/12/3 11/12/3
f 63/12/3 58/12/3 62/12/3
f 64/12/3 58/12/3 63/12/3
f 65/12/3 58/12/3 64/12/3
f 66/2/3 60/2/3 59/2/3
f 66/12/3 58/12/3 65/12/3
f 66/2/3 59/2/3 58/2/3
f 67/12/3 61/12/3 60/12/3
f 67/2/3 60/2/3 66/2/3
f 68/12/3 54/12/3 61/12/3
f 68/12/3 61/12/3 67/12/3
f 68/11/3 55/11/3 54/11/3
f 69/12/3 12/12/3 55/12/3
f 69/11/3 55/11/3 68/11/3
f 70/8/3 63/8/3 62/8/3
f 70/6/3 62/6/3 9/6/3
f 71/8/3 63/8/3 70/8/3
f 72/8/3 65/8/3 64/8/3
f 72/3/3 64/3/3 63/3/3
f 73/8/3 65/8/3 72/8/3
f 74/7/3 66/7/3 65/7/3
f 74/8/3 65/8/3 73/8/3
f 75/7/3 66/7/3 74/7/3
f 76/12/3 67/12/3 66/12/3
f 76/12/3 12/12/3 69/12/3
f 76/12/3 68/12/3 67/12/3
f 76/12/3 69/12/3 68/12/3
f 77/12/3 12/12/3 76/12/3
f 78/7/3 71/7/3 70/7/3
f 78/6/3 70/6/3 9/6/3
f 79/7/3 71/7/3 78/7/3
f 80/14/3 73/14/3 72/14/3
f 80/3/3 72/3/3 63/3/3
f 81/9/3 74/9/3 73/9/3
f 81/14/3 73/14/3 80/14/3
f 82/9/3 74/9/3 81/9/3
f 83/10/3 75/10/3 74/10/3
f 83/9/3 74/9/3 82/9/3
f 84/7/3 66/7/3 75/7/3
f 84/10/3 75/10/3 83/10/3
f 85/12/3 76/12/3 66/12/3
f 85/7/3 66/7/3 84/7/3
f 86/12/3 76/12/3 85/12/3
f 87/11/3 77/11/3 76/11/3
f 87/12/3 76/12/3 86/12/3
f 88/8/3 63/8/3 71/8/3
f 89/3/3 80/3/3 63/3/3
f 89/8/3 63/8/3 88/8/3
f 90/4/3 81/4/3 80/4/3
f 90/3/3 80/3/3 89/3/3
f 91/5/3 82/5/3 81/5/3
f 91/4/3 81/4/3 90/4/3
f 92/10/3 83/10/3 82/10/3
f 92/5/3 82/5/3 91/5/3
f 92/10/3 84/10/3 83/10/3
f 93/10/3 84/10/3 92/10/3
f 94/8/3 85/8/3 84/8/3
f 94/10/3 84/10/3 93/10/3
f 95/12/3 86/12/3 85/12/3
f 96/12/3 86/12/3 95/12/3
f 97/12/3 86/12/3 96/12/3
f 98/11/3 87/11/3 86/11/3
f 98/12/3 86/12/3 97/12/3
f 99/11/3 77/11/3 87/11/3
f 99/11/3 87/11/3 98/11/3
f 99/12/3 12/12/3 77/12/3
f 100/7/3 71/7/3 79/7/3
f 100/8/3 79/8/3 78/8/3
f 101/8/3 88/8/3 71/8/3
f 101/7/3 71/7/3 100/7/3
f 102/1/3 91/1/3 90/1/3
f 102/3/3 90/3/3 89/3/3
f 102/3/3 89/3/3 88/3/3
f 102/1/3 92/1/3 91/1/3
f 103/1/3 92/1/3 102/1/3
f 104/10/3 93/10/3 92/10/3
f 104/1/3 92/1/3 103/1/3
f 105/1/3 96/1/3 95/1/3
f 105/12/3 95/12/3 85/12/3
f 106/2/3 97/2/3 96/2/3
f 106/1/3 96/1/3 105/1/3
f 107/2/3 97/2/3 106/2/3
f 108/12/3 98/12/3 97/12/3
f 108/2/3 97/2/3 107/2/3
f 108/12/3 99/12/3 98/12/3
f 109/12/3 99/12/3 108/12/3
f 110/8/3 88/8/3 101/8/3
f 110/8/3 101/8/3 100/8/3
f 110/3/3 102/3/3 88/3/3
f 111/3/3 102/3/3 110/3/3
f 112/13/3 103/13/3 102/13/3
f 112/3/3 102/3/3 111/3/3
f 113/4/3 104/4/3 103/4/3
f 113/13/3 103/13/3 112/13/3
f 114/10/3 93/10/3 104/10/3
f 114/4/3 104/4/3 113/4/3
f 115/9/3 94/9/3 93/9/3
f 115/10/3 93/10/3 114/10/3
f 116/12/3 107/12/3 106/12/3
f 116/1/3 109/1/3 108/1/3
f 116/12/3 106/12/3 105/12/3
f 116/1/3 108/1/3 107/1/3
f 117/12/3 99/12/3 109/12/3
f 117/1/3 109/1/3 116/1/3
f 118/12/3 99/12/3 117/12/3
f 119/12/3 99/12/3 118/12/3
f 120/8/3 110/8/3 100/8/3
f 120/8/3 111/8/3 110/8/3
f 121/3/3 112/3/3 111/3/3
f 121/8/3 111/8/3 120/8/3
f 122/4/3 113/4/3 112/4/3
f 122/3/3 112/3/3 121/3/3
f 123/10/3 114/10/3 113/10/3
f 123/4/3 113/4/3 122/4/3
f 124/9/3 115/9/3 114/9/3
f 124/10/3 114/10/3 123/10/3
f 125/9/3 94/9/3 115/9/3
f 125/9/3 115/9/3 124/9/3
f 125/8/3 85/8/3 94/8/3
f 126/12/3 116/12/3 105/12/3
f 126/12/3 118/12/3 117/12/3
f 126/12/3 105/12/3 85/12/3
f 126/12/3 117/12/3 116/12/3
f 127/12/3 118/12/3 126/12/3
f 128/12/3 99/12/3 119/12/3
f 128/11/3 119/11/3 118/11/3
f 129/12/3 99/12/3 128/12/3
f 130/7/3 121/7/3 120/7/3
f 130/8/3 120/8/3 100/8/3
f 131/7/3 121/7/3 130/7/3
f 132/5/3 123/5/3 122/5/3
f 132/3/3 122/3/3 121/3/3
f 133/10/3 124/10/3 123/10/3
f 133/5/3 123/5/3 132/5/3
f 133/10/3 125/10/3 124/10/3
f 134/8/3 85/8/3 125/8/3
f 134/10/3 125/10/3 133/10/3
f 135/12/3 126/12/3 85/12/3
f 135/8/3 85/8/3 134/8/3
f 136/1/3 127/1/3 126/1/3
f 136/12/3 126/12/3 135/12/3
f 137/1/3 127/1/3 136/1/3
f 138/12/3 118/12/3 127/12/3
f 138/1/3 127/1/3 137/1/3
f 139/12/3 118/12/3 138/12/3
f 140/11/3 129/11/3 128/11/3
f 140/12/3 118/12/3 139/12/3
f 140/11/3 128/11/3 118/11/3
f 141/11/3 129/11/3 140/11/3
f 142/8/3 100/8/3 78/8/3
f 142/8/3 130/8/3 100/8/3
f 142/8/3 131/8/3 130/8/3
f 142/6/3 78/6/3 9/6/3
f 143/7/3 121/7/3 131/7/3
f 143/8/3 131/8/3 142/8/3
f 144/3/3 132/3/3 121/3/3
f 144/7/3 121/7/3 143/7/3
f 145/8/3 133/8/3 132/8/3
f 145/3/3 132/3/3 144/3/3
f 146/7/3 135/7/3 134/7/3
f 146/8/3 133/8/3 145/8/3
f 146/7/3 134/7/3 133/7/3
f 147/12/3 137/12/3 136/12/3
f 147/7/3 135/7/3 146/7/3
f 147/12/3 136/12/3 135/12/3
f 148/2/3 138/2/3 137/2/3
f 148/12/3 137/12/3 147/12/3
f 148/2/3 139/2/3 138/2/3
f 149/2/3 139/2/3 148/2/3
f 150/12/3 99/12/3 129/12/3
f 150/11/3 129/11/3 141/11/3
f 151/12/3 12/12/3 99/12/3
f 151/12/3 99/12/3 150/12/3
f 152/12/3 144/12/3 143/12/3
f 152/12/3 143/12/3 142/12/3
f 152/12/3 149/12/3 148/12/3
f 152/12/3 148/12/3 147/12/3
f 152/12/3 145/12/3 144/12/3
f 152/12/3 147/12/3 146/12/3
f 152/12/3 146/12/3 145/12/3
f 153/12/3 149/12/3 152/12/3
f 154/12/3 149/12/3 153/12/3
f 155/12/3 149/12/3 154/12/3
f 156/2/3 139/2/3 149/2/3
f 156/12/3 149/12/3 155/12/3
f 157/12/3 140/12/3 139/12/3
f 157/2/3 139/2/3 156/2/3
f 157/12/3 141/12/3 140/12/3
f 158/11/3 151/11/3 150/11/3
f 158/12/3 141/12/3 157/12/3
f 158/11/3 150/11/3 141/11/3
f 159/11/3 151/11/3 158/11/3
f 160/12/3 152/12/3 142/12/3
f 161/12/3 152/12/3 160/12/3
f 162/1/3 153/1/3 152/1/3
f 162/12/3 152/12/3 161/12/3
f 163/12/3 154/12/3 153/12/3
f 163/1/3 153/1/3 162/1/3
f 164/12/3 154/12/3 163/12/3
f 165/2/3 155/2/3 154/2/3
f 165/12/3 154/12/3 164/12/3
f 166/2/3 155/2/3 165/2/3
f 167/12/3 157/12/3 156/12/3
f 167/2/3 155/2/3 166/2/3
f 167/12/3 156/12/3 155/12/3
f 167/12/3 158/12/3 157/12/3
f 167/12/3 159/12/3 158/12/3
f 168/12/3 159/12/3 167/12/3
f 169/12/3 159/12/3 168/12/3
f 170/11/3 151/11/3 159/11/3
f 170/12/3 159/12/3 169/12/3
f 171/12/3 12/12/3 151/12/3
f 171/11/3 151/11/3 170/11/3
f 172/11/3 161/11/3 160/11/3
f 172/12/3 160/12/3 142/12/3
f 173/11/3 161/11/3 172/11/3
f 174/12/3 162/12/3 161/12/3
f 174/11/3 161/11/3 173/11/3
f 175/12/3 162/12/3 174/12/3
f 176/2/3 164/2/3 163/2/3
f 176/12/3 162/12/3 175/12/3
f 176/2/3 163/2/3 162/2/3
f 177/2/3 164/2/3 176/2/3
f 178/12/3 166/12/3 165/12/3
f 178/12/3 165/12/3 164/12/3
f 178/1/3 167/1/3 166/1/3
f 178/1/3 168/1/3 167/1/3
f 179/1/3 168/1/3 178/1/3
f 180/11/3 169/11/3 168/11/3
f 180/1/3 168/1/3 179/1/3
f 181/11/3 169/11/3 180/11/3
f 182/12/3 170/12/3 169/12/3
f 182/11/3 169/11/3 181/11/3
f 182/12/3 171/12/3 170/12/3
f 183/12/3 171/12/3 182/12/3
f 184/12/3 171/12/3 183/12/3
f 185/6/3 10/6/3 12/6/3
f 185/12/3 171/12/3 184/12/3
f 185/12/3 12/12/3 171/12/3
f 186/11/3 175/11/3 174/11/3
f 186/12/3 173/12/3 172/12/3
f 186/11/3 174/11/3 173/11/3
f 187/11/3 175/11/3 186/11/3
f 188/2/3 164/2/3 177/2/3
f 188/12/3 177/12/3 176/12/3
f 188/12/3 176/12/3 175/12/3
f 189/12/3 179/12/3 178/12/3
f 189/2/3 164/2/3 188/2/3
f 189/12/3 178/12/3 164/12/3
f 190/1/3 180/1/3 179/1/3
f 190/12/3 179/12/3 189/12/3
f 191/12/3 181/12/3 180/12/3
f 191/1/3 180/1/3 190/1/3
f 192/12/3 184/12/3 183/12/3
f 192/11/3 183/11/3 182/11/3
f 192/11/3 182/11/3 181/11/3
f 193/11/3 185/11/3 184/11/3
f 193/12/3 184/12/3 192/12/3
f 194/11/3 185/11/3 193/11/3
f 195/6/3 10/6/3 185/6/3
f 195/11/3 185/11/3 194/11/3
f 196/11/3 175/11/3 187/11/3
f 196/12/3 187/12/3 186/12/3
f 197/12/3 188/12/3 175/12/3
f 197/11/3 175/11/3 196/11/3
f 198/1/3 189/1/3 188/1/3
f 198/12/3 188/12/3 197/12/3
f 199/12/3 190/12/3 189/12/3
f 199/1/3 189/1/3 198/1/3
f 199/12/3 191/12/3 190/12/3
f 200/12/3 181/12/3 191/12/3
f 200/12/3 191/12/3 199/12/3
f 200/11/3 193/11/3 192/11/3
f 200/11/3 194/11/3 193/11/3
f 200/11/3 192/11/3 181/11/3
f 201/12/3 195/12/3 194/12/3
f 201/11/3 194/11/3 200/11/3
f 202/12/3 198/12/3 197/12/3
f 202/12/3 199/12/3 198/12/3
f 202/12/3 201/12/3 200/12/3
f 202/12/3 196/12/3 186/12/3
f 202/12/3 172/12/3 142/12/3
f 202/12/3 200/12/3 199/12/3
f 202/6/3 142/6/3 9/6/3
f 202/12/3 197/12/3 196/12/3
f 202/12/3 186/12/3 172/12/3
f 203/12/3 195/12/3 201/12/3
f 203/12/3 201/12/3 202/12/3
f 203/6/3 10/6/3 195/6/3
f 204/6/3 202/6/3 9/6/3
f 204/6/3 203/6/3 202/6/3
f 205/6/3 10/6/3 203/6/3
f 205/6/3 203/6/3 204/6/3
f 206/6/4 207/6/4 208/6/4
f 208/6/4 207/6/4 209/6/4
f 212/6/5 211/6/5 210/6/5
f 213/6/5 211/6/5 212/6/5
f 214/6/6 215/6/6 216/6/6
f 216/6/6 215/6/6 217/6/6
