# MagicaVoxel @ Ephtracy

# group
o 

# material
mtllib VR Токарев гриб.mtl
usemtl palette

# normals
vn -1 0 0
vn 1 0 0
vn 0 0 1
vn 0 0 -1
vn 0 -1 0
vn 0 1 0

# texcoords
vt 0.0332031 0.5
vt 0.0371094 0.5
vt 0.0605469 0.5
vt 0.802734 0.5
vt 0.806641 0.5
vt 0.962891 0.5

# verts
v -1 1.3 0.8
v -1 1.3 0.4
v -1 1.3 0.0999999
v -1 1.3 -0.8
v -1 1.4 0.8
v -1 1.4 0.7
v -1 1.4 0.4
v -1 1.4 0.2
v -1 1.4 -0.2
v -1 1.4 -0.4
v -1 1.4 -0.7
v -1 1.4 -0.8
v -1 1.5 0.7
v -1 1.5 0.2
v -1 1.5 0.0999999
v -1 1.5 -0.2
v -1 1.5 -0.4
v -1 1.5 -0.7
v -0.9 1.3 0.9
v -0.9 1.3 0.8
v -0.9 1.3 -0.8
v -0.9 1.3 -0.9
v -0.9 1.4 0.9
v -0.9 1.4 0.8
v -0.9 1.4 0.7
v -0.9 1.4 -0.7
v -0.9 1.4 -0.8
v -0.9 1.4 -0.9
v -0.9 1.5 0.8
v -0.9 1.5 0.7
v -0.9 1.5 0.6
v -0.9 1.5 0.3
v -0.9 1.5 0.2
v -0.9 1.5 0.0999999
v -0.9 1.5 -0.2
v -0.9 1.5 -0.4
v -0.9 1.5 -0.6
v -0.9 1.5 -0.7
v -0.9 1.5 -0.8
v -0.9 1.6 0.7
v -0.9 1.6 0.6
v -0.9 1.6 0.3
v -0.9 1.6 0.0999999
v -0.9 1.6 -0.2
v -0.9 1.6 -0.4
v -0.9 1.6 -0.6
v -0.9 1.6 -0.7
v -0.8 1.3 1
v -0.8 1.3 0.9
v -0.8 1.3 -0.9
v -0.8 1.3 -1
v -0.8 1.4 1
v -0.8 1.4 0.9
v -0.8 1.4 0.8
v -0.8 1.4 -0.8
v -0.8 1.4 -0.9
v -0.8 1.4 -1
v -0.8 1.5 0.9
v -0.8 1.5 0.8
v -0.8 1.5 0.7
v -0.8 1.5 -0.7
v -0.8 1.5 -0.8
v -0.8 1.5 -0.9
v -0.8 1.6 0.8
v -0.8 1.6 0.7
v -0.8 1.6 0.6
v -0.8 1.6 0.5
v -0.8 1.6 0.3
v -0.8 1.6 0.2
v -0.8 1.6 0.0999999
v -0.8 1.6 -0.2
v -0.8 1.6 -0.3
v -0.8 1.6 -0.4
v -0.8 1.6 -0.6
v -0.8 1.6 -0.7
v -0.8 1.6 -0.8
v -0.8 1.7 0.6
v -0.8 1.7 0.5
v -0.8 1.7 0.2
v -0.8 1.7 -0.3
v -0.8 1.7 -0.6
v -0.7 1.4 1
v -0.7 1.4 0.9
v -0.7 1.4 -0.9
v -0.7 1.4 -1
v -0.7 1.5 1
v -0.7 1.5 0.9
v -0.7 1.5 0.8
v -0.7 1.5 -0.8
v -0.7 1.5 -0.9
v -0.7 1.5 -1
v -0.7 1.6 0.9
v -0.7 1.6 0.8
v -0.7 1.6 0.7
v -0.7 1.6 0.6
v -0.7 1.6 -0.6
v -0.7 1.6 -0.7
v -0.7 1.6 -0.8
v -0.7 1.6 -0.9
v -0.7 1.7 0.7
v -0.7 1.7 0.6
v -0.7 1.7 0.5
v -0.7 1.7 0.2
v -0.7 1.7 -1.19209e-07
v -0.7 1.7 -0.1
v -0.7 1.7 -0.3
v -0.7 1.7 -0.4
v -0.7 1.7 -0.5
v -0.7 1.7 -0.6
v -0.7 1.7 -0.7
v -0.7 1.8 0.5
v -0.7 1.8 0.2
v -0.7 1.8 -1.19209e-07
v -0.7 1.8 -0.1
v -0.7 1.8 -0.4
v -0.7 1.8 -0.5
v -0.6 0.4 0.2
v -0.6 0.4 0.0999999
v -0.6 0.4 -0.1
v -0.6 0.4 -0.3
v -0.6 0.5 -0.2
v -0.6 0.5 -0.3
v -0.6 0.6 -0.2
v -0.6 0.6 -0.3
v -0.6 0.8 0.0999999
v -0.6 0.8 -0.1
v -0.6 0.9 -0.1
v -0.6 0.9 -0.2
v -0.6 1 0.2
v -0.6 1 -0.1
v -0.6 1.1 0.2
v -0.6 1.1 -0.2
v -0.6 1.2 0.2
v -0.6 1.2 -0.3
v -0.6 1.6 0.8
v -0.6 1.6 0.7
v -0.6 1.6 -0.7
v -0.6 1.6 -0.8
v -0.6 1.7 0.8
v -0.6 1.7 0.7
v -0.6 1.7 0.6
v -0.6 1.7 0.5
v -0.6 1.7 -0.5
v -0.6 1.7 -0.6
v -0.6 1.7 -0.7
v -0.6 1.7 -0.8
v -0.6 1.8 0.6
v -0.6 1.8 0.5
v -0.6 1.8 0.4
v -0.6 1.8 0.3
v -0.6 1.8 0.2
v -0.6 1.8 -1.19209e-07
v -0.6 1.8 -0.1
v -0.6 1.8 -0.4
v -0.6 1.8 -0.5
v -0.6 1.8 -0.6
v -0.6 1.9 0.4
v -0.6 1.9 0.3
v -0.6 1.9 -1.19209e-07
v -0.6 1.9 -0.4
v -0.5 0.2 0.3
v -0.5 0.2 0.0999999
v -0.5 0.2 -0.2
v -0.5 0.2 -0.3
v -0.5 0.3 -0.1
v -0.5 0.3 -0.2
v -0.5 0.4 0.2
v -0.5 0.4 0.0999999
v -0.5 0.4 -0.1
v -0.5 0.4 -0.3
v -0.5 0.6 -0.3
v -0.5 0.6 -0.4
v -0.5 1 0.3
v -0.5 1 0.2
v -0.5 1 -0.3
v -0.5 1 -0.4
v -0.5 1.1 0.3
v -0.5 1.1 0.2
v -0.5 1.2 0.2
v -0.5 1.2 -0.3
v -0.5 1.5 0.3
v -0.5 1.5 0.2
v -0.5 1.5 -0.3
v -0.5 1.7 0.7
v -0.5 1.7 0.6
v -0.5 1.7 -0.6
v -0.5 1.7 -0.7
v -0.5 1.8 0.7
v -0.5 1.8 0.6
v -0.5 1.8 0.5
v -0.5 1.8 0.4
v -0.5 1.8 -0.4
v -0.5 1.8 -0.5
v -0.5 1.8 -0.6
v -0.5 1.8 -0.7
v -0.5 1.9 0.5
v -0.5 1.9 0.4
v -0.5 1.9 -0.4
v -0.5 1.9 -0.5
v -0.4 0.2 0.4
v -0.4 0.2 0.3
v -0.4 0.5 0.4
v -0.4 0.5 0.3
v -0.4 0.7 0.4
v -0.4 0.7 0.3
v -0.4 1 0.4
v -0.4 1 0.3
v -0.4 1.1 0.3
v -0.4 1.5 0.4
v -0.4 1.5 0.3
v -0.4 1.8 0.6
v -0.4 1.8 0.5
v -0.4 1.8 -0.5
v -0.4 1.8 -0.6
v -0.4 1.9 0.6
v -0.4 1.9 0.5
v -0.4 1.9 0.3
v -0.4 1.9 -0.2
v -0.4 1.9 -0.5
v -0.4 1.9 -0.6
v -0.4 2 0.3
v -0.4 2 -0.2
v -0.3 0.1 0.3
v -0.3 0.1 0.0999999
v -0.3 0.1 -0.3
v -0.3 0.2 0.5
v -0.3 0.2 0.4
v -0.3 0.2 0.3
v -0.3 0.2 0.0999999
v -0.3 0.2 -0.2
v -0.3 0.2 -0.3
v -0.3 0.2 -0.5
v -0.3 0.3 0.6
v -0.3 0.3 0.5
v -0.3 0.3 -0.4
v -0.3 0.3 -0.5
v -0.3 0.4 0.5
v -0.3 0.4 0.4
v -0.3 0.4 -0.3
v -0.3 0.5 0.4
v -0.3 0.5 -0.3
v -0.3 0.5 -0.4
v -0.3 0.6 0.5
v -0.3 0.6 0.4
v -0.3 0.6 -0.3
v -0.3 0.6 -0.4
v -0.3 0.7 0.4
v -0.3 0.8 0.6
v -0.3 0.8 0.5
v -0.3 0.9 0.5
v -0.3 0.9 0.4
v -0.3 1 0.6
v -0.3 1 0.4
v -0.3 1 -0.3
v -0.3 1 -0.4
v -0.3 1.1 0.6
v -0.3 1.1 0.5
v -0.3 1.1 -0.3
v -0.3 1.4 -0.4
v -0.3 1.4 -0.5
v -0.3 1.5 0.5
v -0.3 1.5 0.4
v -0.3 1.5 -0.3
v -0.3 1.5 -0.4
v -0.3 2 0.2
v -0.3 2 -1.19209e-07
v -0.3 2 -0.1
v -0.3 2.1 0.2
v -0.3 2.1 -1.19209e-07
v -0.3 2.1 -0.1
v -0.2 0.6 -0.5
v -0.2 0.6 -0.6
v -0.2 1.1 -0.5
v -0.2 1.1 -0.6
v -0.2 1.9 0.4
v -0.2 1.9 0.3
v -0.2 1.9 -0.2
v -0.2 1.9 -0.4
v -0.2 2 0.4
v -0.2 2 0.3
v -0.2 2 0.2
v -0.2 2 -0.2
v -0.2 2 -0.4
v -0.2 2.1 0.3
v -0.2 2.1 0.2
v -0.2 2.1 0.0999999
v -0.2 2.1 -1.19209e-07
v -0.2 2.2 0.0999999
v -0.2 2.2 -1.19209e-07
v -0.0999999 2 -0.1
v -0.0999999 2 -0.3
v -0.0999999 2.1 0.2
v -0.0999999 2.1 0.0999999
v -0.0999999 2.1 -1.19209e-07
v -0.0999999 2.1 -0.1
v -0.0999999 2.1 -0.3
v -0.0999999 2.2 0.2
v -0.0999999 2.2 0.0999999
v -0.0999999 2.2 -1.19209e-07
v -0.0999999 2.2 -0.1
v -0.0999999 2.3 0.0999999
v -0.0999999 2.3 -1.19209e-07
v 0.7 1.4 0.7
v 0.7 1.4 0.4
v 0.7 1.4 -1.19209e-07
v 0.7 1.4 -0.5
v 0.7 1.4 -0.7
v 0.7 1.5 0.7
v 0.7 1.5 0.5
v 0.7 1.5 0.4
v 0.7 1.5 0.3
v 0.7 1.5 -1.19209e-07
v 0.7 1.5 -0.3
v 0.7 1.5 -0.5
v 0.7 1.5 -0.6
v 0.7 1.5 -0.7
v 0.8 1.3 0.8
v 0.8 1.3 0.6
v 0.8 1.3 0.5
v 0.8 1.3 0.0999999
v 0.8 1.3 -0.2
v 0.8 1.3 -0.8
v 0.8 1.4 0.8
v 0.8 1.4 0.6
v 0.8 1.4 0.5
v 0.8 1.4 0.4
v 0.8 1.4 0.0999999
v 0.8 1.4 -1.19209e-07
v 0.8 1.4 -0.2
v 0.8 1.4 -0.5
v 0.8 1.4 -0.7
v 0.8 1.4 -0.8
v -0.8 1.3 0.8
v -0.8 1.3 0.5
v -0.8 1.3 0.3
v -0.8 1.3 0.2
v -0.8 1.3 -1.19209e-07
v -0.8 1.3 -0.3
v -0.8 1.3 -0.5
v -0.8 1.3 -0.8
v -0.8 1.4 0.8
v -0.8 1.4 0.5
v -0.8 1.4 0.3
v -0.8 1.4 0.2
v -0.8 1.4 -1.19209e-07
v -0.8 1.4 -0.3
v -0.8 1.4 -0.4
v -0.8 1.4 -0.5
v -0.8 1.4 -0.8
v -0.7 1.4 0.7
v -0.7 1.4 -0.4
v -0.7 1.4 -0.5
v -0.7 1.4 -0.7
v -0.7 1.5 0.7
v -0.7 1.5 0.6
v -0.7 1.5 0.2
v -0.7 1.5 -0.4
v -0.7 1.5 -0.5
v -0.7 1.5 -0.7
v 1.19209e-07 2.2 0.0999999
v 1.19209e-07 2.2 -1.19209e-07
v 1.19209e-07 2.3 0.0999999
v 1.19209e-07 2.3 -1.19209e-07
v 0.1 0.3 0.6
v 0.1 0.3 0.5
v 0.1 0.6 0.5
v 0.1 0.7 0.6
v 0.1 0.7 0.5
v 0.1 0.9 0.5
v 0.1 1 0.6
v 0.1 1 0.5
v 0.1 1.1 0.6
v 0.1 1.1 0.5
v 0.1 2 0.3
v 0.1 2 0.2
v 0.1 2 -0.2
v 0.1 2 -0.3
v 0.1 2.1 0.3
v 0.1 2.1 0.2
v 0.1 2.1 -1.19209e-07
v 0.1 2.1 -0.1
v 0.1 2.1 -0.2
v 0.1 2.1 -0.3
v 0.1 2.2 0.2
v 0.1 2.2 -1.19209e-07
v 0.1 2.2 -0.1
v 0.2 1.9 0.4
v 0.2 1.9 0.3
v 0.2 1.9 -0.3
v 0.2 1.9 -0.4
v 0.2 2 0.4
v 0.2 2 0.3
v 0.2 2 0.2
v 0.2 2 0.0999999
v 0.2 2 -1.19209e-07
v 0.2 2 -0.2
v 0.2 2 -0.3
v 0.2 2 -0.4
v 0.2 2.1 0.2
v 0.2 2.1 0.0999999
v 0.2 2.1 -1.19209e-07
v 0.2 2.1 -0.2
v 0.3 0.1 0.3
v 0.3 0.1 0.2
v 0.3 0.1 -0.1
v 0.3 0.1 -0.3
v 0.3 0.2 0.5
v 0.3 0.2 0.3
v 0.3 0.2 0.2
v 0.3 0.2 0.0999999
v 0.3 0.2 -0.1
v 0.3 0.2 -0.3
v 0.3 0.2 -0.4
v 0.3 0.2 -0.5
v 0.3 0.3 -0.4
v 0.3 0.3 -0.5
v 0.3 0.4 0.5
v 0.3 0.4 0.3
v 0.3 0.4 -0.4
v 0.3 0.4 -0.5
v 0.3 0.5 0.4
v 0.3 0.5 0.3
v 0.3 0.5 -0.4
v 0.3 0.6 0.5
v 0.3 0.6 0.4
v 0.3 0.6 -0.5
v 0.3 0.6 -0.6
v 0.3 0.7 -0.4
v 0.3 0.7 -0.5
v 0.3 0.9 0.5
v 0.3 0.9 0.4
v 0.3 0.9 -0.4
v 0.3 1.1 -0.4
v 0.3 1.1 -0.5
v 0.3 1.1 -0.6
v 0.3 1.2 0.5
v 0.3 1.2 0.4
v 0.3 1.2 -0.4
v 0.3 1.2 -0.5
v 0.3 1.4 0.5
v 0.3 1.4 0.3
v 0.3 1.4 -0.4
v 0.3 1.4 -0.5
v 0.3 1.9 0.3
v 0.3 1.9 0.2
v 0.3 1.9 -0.1
v 0.3 1.9 -0.3
v 0.3 2 0.3
v 0.3 2 0.2
v 0.3 2 0.0999999
v 0.3 2 -1.19209e-07
v 0.3 2 -0.1
v 0.3 2 -0.3
v 0.3 2.1 0.0999999
v 0.3 2.1 -1.19209e-07
v 0.4 0.2 0.3
v 0.4 0.2 0.0999999
v 0.4 0.2 -0.1
v 0.4 0.2 -0.4
v 0.4 0.3 0.3
v 0.4 0.3 0.0999999
v 0.4 0.3 -0.1
v 0.4 0.3 -0.2
v 0.4 0.4 -0.3
v 0.4 0.4 -0.4
v 0.4 0.5 -0.3
v 0.4 0.5 -0.4
v 0.4 0.6 -0.2
v 0.4 0.6 -0.3
v 0.4 0.7 -0.2
v 0.4 0.7 -0.3
v 0.4 0.8 -0.3
v 0.4 0.9 -0.3
v 0.4 0.9 -0.4
v 0.4 1 -0.2
v 0.4 1 -0.3
v 0.4 1.1 -0.2
v 0.4 1.1 -0.3
v 0.4 1.1 -0.4
v 0.4 1.2 -0.2
v 0.4 1.3 -0.2
v 0.4 1.3 -0.3
v 0.4 1.4 0.5
v 0.4 1.4 0.3
v 0.4 1.4 -0.3
v 0.4 1.5 0.5
v 0.4 1.5 -0.4
v 0.4 1.8 -0.5
v 0.4 1.8 -0.6
v 0.4 1.9 0.2
v 0.4 1.9 -0.1
v 0.4 1.9 -0.5
v 0.4 1.9 -0.6
v 0.4 2 0.2
v 0.4 2 -0.1
v 0.5 0.3 0.3
v 0.5 0.3 0.0999999
v 0.5 0.3 -0.1
v 0.5 0.3 -0.2
v 0.5 0.7 0.2
v 0.5 0.7 0.0999999
v 0.5 0.7 -0.1
v 0.5 0.7 -0.2
v 0.5 1 0.2
v 0.5 1 -0.2
v 0.5 1.1 0.3
v 0.5 1.1 -0.2
v 0.5 1.2 0.3
v 0.5 1.2 -0.2
v 0.5 1.3 -0.2
v 0.5 1.3 -0.3
v 0.5 1.4 0.3
v 0.5 1.4 -0.3
v 0.5 1.7 -0.6
v 0.5 1.7 -0.7
v 0.5 1.8 0.6
v 0.5 1.8 0.5
v 0.5 1.8 -0.4
v 0.5 1.8 -0.5
v 0.5 1.8 -0.6
v 0.5 1.8 -0.7
v 0.5 1.9 0.6
v 0.5 1.9 0.5
v 0.5 1.9 -0.4
v 0.5 1.9 -0.5
v 0.6 0.7 0.2
v 0.6 0.7 0.0999999
v 0.6 0.7 -0.1
v 0.6 0.7 -0.2
v 0.6 0.7 -0.3
v 0.6 0.8 0.0999999
v 0.6 0.8 -1.19209e-07
v 0.6 0.9 -1.19209e-07
v 0.6 0.9 -0.1
v 0.6 0.9 -0.2
v 0.6 0.9 -0.3
v 0.6 1 0.2
v 0.6 1 -0.3
v 0.6 1.6 -0.7
v 0.6 1.6 -0.8
v 0.6 1.7 0.7
v 0.6 1.7 0.6
v 0.6 1.7 -0.5
v 0.6 1.7 -0.6
v 0.6 1.7 -0.7
v 0.6 1.7 -0.8
v 0.6 1.8 0.7
v 0.6 1.8 0.6
v 0.6 1.8 0.5
v 0.6 1.8 0.2
v 0.6 1.8 0.0999999
v 0.6 1.8 -0.1
v 0.6 1.8 -0.2
v 0.6 1.8 -0.4
v 0.6 1.8 -0.5
v 0.6 1.8 -0.6
v 0.6 1.9 0.5
v 0.6 1.9 0.2
v 0.6 1.9 -0.2
v 0.6 1.9 -0.4
v 0.7 1.4 1
v 0.7 1.4 0.9
v 0.7 1.4 -0.9
v 0.7 1.4 -1
v 0.7 1.5 1
v 0.7 1.5 0.9
v 0.7 1.5 0.8
v 0.7 1.5 -0.8
v 0.7 1.5 -0.9
v 0.7 1.5 -1
v 0.7 1.6 0.9
v 0.7 1.6 0.8
v 0.7 1.6 0.7
v 0.7 1.6 -0.6
v 0.7 1.6 -0.7
v 0.7 1.6 -0.8
v 0.7 1.6 -0.9
v 0.7 1.7 0.8
v 0.7 1.7 0.7
v 0.7 1.7 0.6
v 0.7 1.7 0.4
v 0.7 1.7 0.2
v 0.7 1.7 0.0999999
v 0.7 1.7 -1.19209e-07
v 0.7 1.7 -0.1
v 0.7 1.7 -0.5
v 0.7 1.7 -0.6
v 0.7 1.7 -0.7
v 0.7 1.8 0.6
v 0.7 1.8 0.0999999
v 0.7 1.8 -0.1
v 0.7 1.8 -0.5
v 0.8 1.3 1
v 0.8 1.3 0.9
v 0.8 1.3 -0.9
v 0.8 1.3 -1
v 0.8 1.4 1
v 0.8 1.4 0.9
v 0.8 1.4 0.8
v 0.8 1.4 -0.8
v 0.8 1.4 -0.9
v 0.8 1.4 -1
v 0.8 1.5 0.9
v 0.8 1.5 0.8
v 0.8 1.5 0.7
v 0.8 1.5 -0.7
v 0.8 1.5 -0.8
v 0.8 1.5 -0.9
v 0.8 1.6 0.8
v 0.8 1.6 0.7
v 0.8 1.6 0.4
v 0.8 1.6 0.2
v 0.8 1.6 0.0999999
v 0.8 1.6 -1.19209e-07
v 0.8 1.6 -0.1
v 0.8 1.6 -0.4
v 0.8 1.6 -0.6
v 0.8 1.6 -0.7
v 0.8 1.6 -0.8
v 0.8 1.7 0.7
v 0.8 1.7 0.4
v 0.8 1.7 0.2
v 0.8 1.7 0.0999999
v 0.8 1.7 -1.19209e-07
v 0.8 1.7 -0.6
v 0.9 1.3 0.9
v 0.9 1.3 0.8
v 0.9 1.3 -0.8
v 0.9 1.3 -0.9
v 0.9 1.4 0.9
v 0.9 1.4 0.8
v 0.9 1.4 0.7
v 0.9 1.4 -0.7
v 0.9 1.4 -0.8
v 0.9 1.4 -0.9
v 0.9 1.5 0.8
v 0.9 1.5 0.7
v 0.9 1.5 0.4
v 0.9 1.5 0.2
v 0.9 1.5 0.0999999
v 0.9 1.5 -1.19209e-07
v 0.9 1.5 -0.1
v 0.9 1.5 -0.2
v 0.9 1.5 -0.3
v 0.9 1.5 -0.4
v 0.9 1.5 -0.6
v 0.9 1.5 -0.7
v 0.9 1.5 -0.8
v 0.9 1.6 0.7
v 0.9 1.6 0.4
v 0.9 1.6 0.2
v 0.9 1.6 0.0999999
v 0.9 1.6 -0.1
v 0.9 1.6 -0.4
v 0.9 1.6 -0.6
v 0.9 1.6 -0.7
v 1 1.3 0.8
v 1 1.3 0.6
v 1 1.3 0.3
v 1 1.3 -0.8
v 1 1.4 0.8
v 1 1.4 0.7
v 1 1.4 0.6
v 1 1.4 0.3
v 1 1.4 -1.19209e-07
v 1 1.4 -0.1
v 1 1.4 -0.2
v 1 1.4 -0.3
v 1 1.4 -0.7
v 1 1.4 -0.8
v 1 1.5 0.7
v 1 1.5 -1.19209e-07
v 1 1.5 -0.1
v 1 1.5 -0.2
v 1 1.5 -0.3
v 1 1.5 -0.7
v -0.8 1.3 1
v -0.8 1.4 1
v -0.7 1.4 1
v -0.7 1.5 1
v -0.6 1.3 1
v -0.6 1.5 1
v -0.5 1.3 1
v -0.5 1.4 1
v -0.4 1.4 1
v -0.4 1.5 1
v -0.2 1.3 1
v -0.2 1.4 1
v -0.2 1.5 1
v 1.19209e-07 1.4 1
v 1.19209e-07 1.5 1
v 0.5 1.3 1
v 0.5 1.4 1
v 0.7 1.4 1
v 0.7 1.5 1
v 0.8 1.3 1
v 0.8 1.4 1
v -0.9 1.3 0.9
v -0.9 1.4 0.9
v -0.8 1.3 0.9
v -0.8 1.4 0.9
v -0.8 1.5 0.9
v -0.7 1.4 0.9
v -0.7 1.5 0.9
v -0.7 1.6 0.9
v -0.6 1.5 0.9
v -0.4 1.5 0.9
v -0.2 1.5 0.9
v 1.19209e-07 1.5 0.9
v 0.3 1.5 0.9
v 0.3 1.6 0.9
v 0.5 1.5 0.9
v 0.5 1.6 0.9
v 0.6 1.5 0.9
v 0.6 1.6 0.9
v 0.7 1.4 0.9
v 0.7 1.5 0.9
v 0.7 1.6 0.9
v 0.8 1.3 0.9
v 0.8 1.4 0.9
v 0.8 1.5 0.9
v 0.9 1.3 0.9
v 0.9 1.4 0.9
v -1 1.3 0.8
v -1 1.4 0.8
v -0.9 1.3 0.8
v -0.9 1.4 0.8
v -0.9 1.5 0.8
v -0.8 1.4 0.8
v -0.8 1.5 0.8
v -0.8 1.6 0.8
v -0.7 1.5 0.8
v -0.7 1.6 0.8
v -0.6 1.6 0.8
v -0.6 1.7 0.8
v -0.5 1.6 0.8
v -0.5 1.7 0.8
v 0.1 1.6 0.8
v 0.1 1.7 0.8
v 0.3 1.6 0.8
v 0.3 1.7 0.8
v 0.5 1.6 0.8
v 0.5 1.7 0.8
v 0.6 1.6 0.8
v 0.7 1.5 0.8
v 0.7 1.6 0.8
v 0.7 1.7 0.8
v 0.8 1.4 0.8
v 0.8 1.5 0.8
v 0.8 1.6 0.8
v 0.9 1.3 0.8
v 0.9 1.4 0.8
v 0.9 1.5 0.8
v 1 1.3 0.8
v 1 1.4 0.8
v -1 1.4 0.7
v -1 1.5 0.7
v -0.9 1.4 0.7
v -0.9 1.5 0.7
v -0.9 1.6 0.7
v -0.8 1.5 0.7
v -0.8 1.6 0.7
v -0.7 1.6 0.7
v -0.7 1.7 0.7
v -0.6 1.6 0.7
v -0.6 1.7 0.7
v -0.5 1.7 0.7
v -0.5 1.8 0.7
v -0.3 1.7 0.7
v -0.3 1.8 0.7
v -0.0999999 1.7 0.7
v -0.0999999 1.8 0.7
v 0.1 1.7 0.7
v 0.3 1.7 0.7
v 0.4 1.7 0.7
v 0.4 1.8 0.7
v 0.5 1.7 0.7
v 0.6 1.7 0.7
v 0.6 1.8 0.7
v 0.7 1.6 0.7
v 0.7 1.7 0.7
v 0.8 1.5 0.7
v 0.8 1.6 0.7
v 0.8 1.7 0.7
v 0.9 1.4 0.7
v 0.9 1.5 0.7
v 0.9 1.6 0.7
v 1 1.4 0.7
v 1 1.5 0.7
v -0.8 1.6 0.6
v -0.8 1.7 0.6
v -0.7 1.6 0.6
v -0.7 1.7 0.6
v -0.6 1.7 0.6
v -0.6 1.8 0.6
v -0.5 1.7 0.6
v -0.5 1.8 0.6
v -0.4 1.8 0.6
v -0.4 1.9 0.6
v -0.3 0.3 0.6
v -0.3 0.8 0.6
v -0.3 1 0.6
v -0.3 1.1 0.6
v -0.3 1.8 0.6
v -0.3 1.9 0.6
v -0.2 0.4 0.6
v -0.2 0.7 0.6
v -0.2 0.8 0.6
v -0.2 0.9 0.6
v -0.2 1 0.6
v -0.2 1.1 0.6
v -0.0999999 0.3 0.6
v -0.0999999 0.4 0.6
v -0.0999999 0.7 0.6
v -0.0999999 0.8 0.6
v -0.0999999 0.9 0.6
v -0.0999999 1 0.6
v -0.0999999 1.8 0.6
v -0.0999999 1.9 0.6
v 1.19209e-07 0.7 0.6
v 1.19209e-07 0.8 0.6
v 1.19209e-07 1.8 0.6
v 1.19209e-07 1.9 0.6
v 0.1 0.3 0.6
v 0.1 0.7 0.6
v 0.1 1 0.6
v 0.1 1.1 0.6
v 0.2 1.8 0.6
v 0.2 1.9 0.6
v 0.3 1.8 0.6
v 0.3 1.9 0.6
v 0.4 1.8 0.6
v 0.5 1.8 0.6
v 0.5 1.9 0.6
v 0.6 1.7 0.6
v 0.6 1.8 0.6
v 0.7 1.7 0.6
v 0.7 1.8 0.6
v -0.7 1.7 0.5
v -0.7 1.8 0.5
v -0.6 1.7 0.5
v -0.6 1.8 0.5
v -0.5 1.8 0.5
v -0.5 1.9 0.5
v -0.4 1.8 0.5
v -0.4 1.9 0.5
v -0.3 0.2 0.5
v -0.3 0.3 0.5
v -0.3 1.1 0.5
v -0.3 1.5 0.5
v -0.2 1.1 0.5
v -0.0999999 0.2 0.5
v -0.0999999 0.3 0.5
v 1.19209e-07 1.1 0.5
v 1.19209e-07 1.2 0.5
v 0.1 0.2 0.5
v 0.1 0.3 0.5
v 0.1 0.6 0.5
v 0.1 0.7 0.5
v 0.1 0.9 0.5
v 0.1 1 0.5
v 0.1 1.1 0.5
v 0.1 1.2 0.5
v 0.2 0.4 0.5
v 0.2 0.6 0.5
v 0.2 0.9 0.5
v 0.2 1.2 0.5
v 0.3 0.2 0.5
v 0.3 0.4 0.5
v 0.3 0.6 0.5
v 0.3 0.9 0.5
v 0.3 1.2 0.5
v 0.3 1.4 0.5
v 0.4 1.4 0.5
v 0.4 1.5 0.5
v 0.5 1.8 0.5
v 0.5 1.9 0.5
v 0.6 1.8 0.5
v 0.6 1.9 0.5
v -0.6 1.8 0.4
v -0.6 1.9 0.4
v -0.5 1.8 0.4
v -0.5 1.9 0.4
v -0.4 0.2 0.4
v -0.4 0.5 0.4
v -0.4 0.7 0.4
v -0.4 1 0.4
v -0.4 1.5 0.4
v -0.3 0.2 0.4
v -0.3 0.4 0.4
v -0.3 0.5 0.4
v -0.3 0.6 0.4
v -0.3 0.7 0.4
v -0.3 0.9 0.4
v -0.3 1 0.4
v -0.3 1.5 0.4
v -0.2 1.9 0.4
v -0.2 2 0.4
v -0.0999999 1.9 0.4
v -0.0999999 2 0.4
v 1.19209e-07 1.9 0.4
v 0.1 1.9 0.4
v 0.1 2 0.4
v 0.2 1.9 0.4
v 0.2 2 0.4
v -0.5 0.2 0.3
v -0.5 1 0.3
v -0.5 1.1 0.3
v -0.5 1.5 0.3
v -0.4 0.2 0.3
v -0.4 0.5 0.3
v -0.4 0.7 0.3
v -0.4 1 0.3
v -0.4 1.1 0.3
v -0.4 1.5 0.3
v -0.4 1.9 0.3
v -0.4 2 0.3
v -0.3 0.1 0.3
v -0.3 0.2 0.3
v -0.2 1.9 0.3
v -0.2 2 0.3
v -0.2 2.1 0.3
v -0.0999999 0.1 0.3
v -0.0999999 0.2 0.3
v -0.0999999 2 0.3
v 1.19209e-07 0.2 0.3
v 1.19209e-07 2 0.3
v 1.19209e-07 2.1 0.3
v 0.1 0.1 0.3
v 0.1 0.2 0.3
v 0.1 2 0.3
v 0.1 2.1 0.3
v 0.2 0.2 0.3
v 0.2 1.9 0.3
v 0.2 2 0.3
v 0.3 0.1 0.3
v 0.3 0.2 0.3
v 0.3 0.4 0.3
v 0.3 0.5 0.3
v 0.3 1.4 0.3
v 0.3 1.9 0.3
v 0.3 2 0.3
v 0.4 0.2 0.3
v 0.4 0.3 0.3
v 0.4 1.1 0.3
v 0.4 1.2 0.3
v 0.4 1.4 0.3
v 0.5 0.3 0.3
v 0.5 1.1 0.3
v 0.5 1.2 0.3
v 0.5 1.4 0.3
v -0.6 0.4 0.2
v -0.6 1 0.2
v -0.6 1.1 0.2
v -0.6 1.2 0.2
v -0.5 0.4 0.2
v -0.5 1 0.2
v -0.5 1.1 0.2
v -0.5 1.2 0.2
v -0.3 2 0.2
v -0.3 2.1 0.2
v -0.2 2 0.2
v -0.2 2.1 0.2
v -0.0999999 2.1 0.2
v -0.0999999 2.2 0.2
v 1.19209e-07 2.1 0.2
v 1.19209e-07 2.2 0.2
v 0.1 2 0.2
v 0.1 2.1 0.2
v 0.1 2.2 0.2
v 0.2 2 0.2
v 0.2 2.1 0.2
v 0.3 1.9 0.2
v 0.3 2 0.2
v 0.4 1.9 0.2
v 0.4 2 0.2
v 0.5 0.7 0.2
v 0.5 1 0.2
v 0.6 0.7 0.2
v 0.6 1 0.2
v -0.2 2.1 0.0999999
v -0.2 2.2 0.0999999
v -0.0999999 2.1 0.0999999
v -0.0999999 2.2 0.0999999
v -0.0999999 2.3 0.0999999
v 1.19209e-07 2.2 0.0999999
v 1.19209e-07 2.3 0.0999999
v 0.2 2 0.0999999
v 0.2 2.1 0.0999999
v 0.3 2 0.0999999
v 0.3 2.1 0.0999999
v -0.7 1.4 -0.7
v -0.7 1.5 -0.7
v -0.3 1.5 -0.7
v -0.2 1.4 -0.7
v -0.2 1.5 -0.7
v -0.0999999 1.5 -0.7
v 0.3 1.4 -0.7
v 0.3 1.5 -0.7
v 0.7 1.4 -0.7
v 0.7 1.5 -0.7
v -0.8 1.3 -0.8
v -0.8 1.4 -0.8
v -0.5 1.3 -0.8
v -0.5 1.4 -0.8
v -0.2 1.3 -0.8
v -0.2 1.4 -0.8
v 0.2 1.3 -0.8
v 0.2 1.4 -0.8
v 0.3 1.3 -0.8
v 0.3 1.4 -0.8
v 0.8 1.3 -0.8
v 0.8 1.4 -0.8
v -0.8 1.3 0.8
v -0.8 1.4 0.8
v -0.5 1.3 0.8
v -0.5 1.4 0.8
v -0.4 1.3 0.8
v -0.4 1.4 0.8
v 0.3 1.4 0.8
v 0.5 1.3 0.8
v 0.5 1.4 0.8
v 0.6 1.3 0.8
v 0.6 1.4 0.8
v 0.8 1.3 0.8
v 0.8 1.4 0.8
v -0.7 1.4 0.7
v -0.7 1.5 0.7
v -0.0999999 1.5 0.7
v 0.3 1.4 0.7
v 0.3 1.5 0.7
v 0.5 1.4 0.7
v 0.5 1.5 0.7
v 0.7 1.4 0.7
v 0.7 1.5 0.7
v -0.2 2.1 -1.19209e-07
v -0.2 2.2 -1.19209e-07
v -0.0999999 2.1 -1.19209e-07
v -0.0999999 2.2 -1.19209e-07
v -0.0999999 2.3 -1.19209e-07
v 1.19209e-07 2.2 -1.19209e-07
v 1.19209e-07 2.3 -1.19209e-07
v 0.2 2 -1.19209e-07
v 0.2 2.1 -1.19209e-07
v 0.3 2 -1.19209e-07
v 0.3 2.1 -1.19209e-07
v -0.3 2 -0.1
v -0.3 2.1 -0.1
v -0.0999999 2 -0.1
v -0.0999999 2.1 -0.1
v -0.0999999 2.2 -0.1
v 0.1 2.1 -0.1
v 0.1 2.2 -0.1
v 0.3 1.9 -0.1
v 0.3 2 -0.1
v 0.4 1.9 -0.1
v 0.4 2 -0.1
v -0.4 1.9 -0.2
v -0.4 2 -0.2
v -0.2 1.9 -0.2
v -0.2 2 -0.2
v 0.1 2 -0.2
v 0.1 2.1 -0.2
v 0.2 2 -0.2
v 0.2 2.1 -0.2
v 0.4 0.3 -0.2
v 0.4 0.6 -0.2
v 0.4 0.7 -0.2
v 0.4 1 -0.2
v 0.4 1.1 -0.2
v 0.4 1.2 -0.2
v 0.4 1.3 -0.2
v 0.5 0.3 -0.2
v 0.5 0.7 -0.2
v 0.5 1 -0.2
v 0.5 1.1 -0.2
v 0.5 1.2 -0.2
v 0.5 1.3 -0.2
v -0.6 0.4 -0.3
v -0.6 0.5 -0.3
v -0.6 0.6 -0.3
v -0.6 1.2 -0.3
v -0.5 0.2 -0.3
v -0.5 0.4 -0.3
v -0.5 0.5 -0.3
v -0.5 0.6 -0.3
v -0.5 1 -0.3
v -0.5 1.2 -0.3
v -0.5 1.5 -0.3
v -0.4 0.5 -0.3
v -0.4 0.6 -0.3
v -0.4 1 -0.3
v -0.4 1.1 -0.3
v -0.3 0.1 -0.3
v -0.3 0.2 -0.3
v -0.3 0.4 -0.3
v -0.3 0.5 -0.3
v -0.3 0.6 -0.3
v -0.3 1 -0.3
v -0.3 1.1 -0.3
v -0.3 1.5 -0.3
v -0.2 0.2 -0.3
v -0.0999999 0.2 -0.3
v -0.0999999 2 -0.3
v -0.0999999 2.1 -0.3
v 0.1 0.1 -0.3
v 0.1 0.2 -0.3
v 0.1 2 -0.3
v 0.1 2.1 -0.3
v 0.2 1.9 -0.3
v 0.2 2 -0.3
v 0.3 0.1 -0.3
v 0.3 0.2 -0.3
v 0.3 1.9 -0.3
v 0.3 2 -0.3
v 0.4 0.7 -0.3
v 0.4 0.8 -0.3
v 0.4 0.9 -0.3
v 0.4 1 -0.3
v 0.4 1.3 -0.3
v 0.4 1.4 -0.3
v 0.5 0.8 -0.3
v 0.5 0.9 -0.3
v 0.5 1.3 -0.3
v 0.5 1.4 -0.3
v 0.6 0.7 -0.3
v 0.6 0.9 -0.3
v 0.6 1 -0.3
v -0.6 1.8 -0.4
v -0.6 1.9 -0.4
v -0.5 0.6 -0.4
v -0.5 1 -0.4
v -0.5 1.8 -0.4
v -0.5 1.9 -0.4
v -0.4 0.6 -0.4
v -0.4 1 -0.4
v -0.3 0.6 -0.4
v -0.3 1 -0.4
v -0.3 1.4 -0.4
v -0.3 1.5 -0.4
v -0.2 1.9 -0.4
v -0.2 2 -0.4
v 0.2 1.9 -0.4
v 0.2 2 -0.4
v 0.3 0.2 -0.4
v 0.3 0.3 -0.4
v 0.3 0.4 -0.4
v 0.3 0.5 -0.4
v 0.3 0.7 -0.4
v 0.3 0.9 -0.4
v 0.3 1.1 -0.4
v 0.3 1.2 -0.4
v 0.3 1.4 -0.4
v 0.4 0.2 -0.4
v 0.4 0.4 -0.4
v 0.4 0.5 -0.4
v 0.4 0.9 -0.4
v 0.4 1.1 -0.4
v 0.4 1.5 -0.4
v 0.5 1.8 -0.4
v 0.5 1.9 -0.4
v 0.6 1.8 -0.4
v 0.6 1.9 -0.4
v -0.7 1.7 -0.5
v -0.7 1.8 -0.5
v -0.6 1.7 -0.5
v -0.6 1.8 -0.5
v -0.5 1.8 -0.5
v -0.5 1.9 -0.5
v -0.4 1.8 -0.5
v -0.4 1.9 -0.5
v -0.3 0.2 -0.5
v -0.3 0.3 -0.5
v -0.3 1.4 -0.5
v -0.2 0.2 -0.5
v -0.2 0.3 -0.5
v -0.2 0.6 -0.5
v -0.2 1.1 -0.5
v -0.0999999 0.2 -0.5
v -0.0999999 0.6 -0.5
v -0.0999999 1.1 -0.5
v -0.0999999 1.2 -0.5
v 0.1 0.2 -0.5
v 0.1 0.6 -0.5
v 0.2 0.2 -0.5
v 0.2 0.3 -0.5
v 0.2 0.4 -0.5
v 0.2 0.6 -0.5
v 0.3 0.2 -0.5
v 0.3 0.3 -0.5
v 0.3 0.4 -0.5
v 0.3 0.6 -0.5
v 0.3 1.1 -0.5
v 0.3 1.2 -0.5
v 0.3 1.4 -0.5
v 0.4 1.8 -0.5
v 0.4 1.9 -0.5
v 0.5 1.8 -0.5
v 0.5 1.9 -0.5
v 0.6 1.7 -0.5
v 0.6 1.8 -0.5
v 0.7 1.7 -0.5
v 0.7 1.8 -0.5
v -0.8 1.6 -0.6
v -0.8 1.7 -0.6
v -0.7 1.6 -0.6
v -0.7 1.7 -0.6
v -0.6 1.7 -0.6
v -0.6 1.8 -0.6
v -0.5 1.7 -0.6
v -0.5 1.8 -0.6
v -0.4 1.8 -0.6
v -0.4 1.9 -0.6
v -0.2 0.6 -0.6
v -0.2 1.1 -0.6
v -0.0999999 0.6 -0.6
v -0.0999999 0.8 -0.6
v -0.0999999 1.8 -0.6
v -0.0999999 1.9 -0.6
v 1.19209e-07 0.7 -0.6
v 1.19209e-07 0.8 -0.6
v 0.1 0.6 -0.6
v 0.1 0.7 -0.6
v 0.1 1.8 -0.6
v 0.1 1.9 -0.6
v 0.2 1.8 -0.6
v 0.3 0.6 -0.6
v 0.3 1.1 -0.6
v 0.4 1.8 -0.6
v 0.4 1.9 -0.6
v 0.5 1.7 -0.6
v 0.5 1.8 -0.6
v 0.6 1.7 -0.6
v 0.6 1.8 -0.6
v 0.7 1.6 -0.6
v 0.7 1.7 -0.6
v 0.8 1.6 -0.6
v 0.8 1.7 -0.6
v -1 1.4 -0.7
v -1 1.5 -0.7
v -0.9 1.4 -0.7
v -0.9 1.5 -0.7
v -0.9 1.6 -0.7
v -0.8 1.5 -0.7
v -0.8 1.6 -0.7
v -0.7 1.6 -0.7
v -0.7 1.7 -0.7
v -0.6 1.6 -0.7
v -0.6 1.7 -0.7
v -0.5 1.7 -0.7
v -0.5 1.8 -0.7
v -0.3 1.7 -0.7
v -0.0999999 1.7 -0.7
v -0.0999999 1.8 -0.7
v 0.2 1.7 -0.7
v 0.2 1.8 -0.7
v 0.4 1.7 -0.7
v 0.4 1.8 -0.7
v 0.5 1.7 -0.7
v 0.5 1.8 -0.7
v 0.6 1.6 -0.7
v 0.6 1.7 -0.7
v 0.7 1.6 -0.7
v 0.7 1.7 -0.7
v 0.8 1.5 -0.7
v 0.8 1.6 -0.7
v 0.9 1.4 -0.7
v 0.9 1.5 -0.7
v 0.9 1.6 -0.7
v 1 1.4 -0.7
v 1 1.5 -0.7
v -1 1.3 -0.8
v -1 1.4 -0.8
v -0.9 1.3 -0.8
v -0.9 1.4 -0.8
v -0.9 1.5 -0.8
v -0.8 1.4 -0.8
v -0.8 1.5 -0.8
v -0.8 1.6 -0.8
v -0.7 1.5 -0.8
v -0.7 1.6 -0.8
v -0.6 1.6 -0.8
v -0.6 1.7 -0.8
v -0.4 1.6 -0.8
v -0.3 1.6 -0.8
v -0.3 1.7 -0.8
v -0.2 1.6 -0.8
v -0.0999999 1.6 -0.8
v -0.0999999 1.7 -0.8
v 0.4 1.6 -0.8
v 0.6 1.6 -0.8
v 0.6 1.7 -0.8
v 0.7 1.5 -0.8
v 0.7 1.6 -0.8
v 0.8 1.4 -0.8
v 0.8 1.5 -0.8
v 0.8 1.6 -0.8
v 0.9 1.3 -0.8
v 0.9 1.4 -0.8
v 0.9 1.5 -0.8
v 1 1.3 -0.8
v 1 1.4 -0.8
v -0.9 1.3 -0.9
v -0.9 1.4 -0.9
v -0.8 1.3 -0.9
v -0.8 1.4 -0.9
v -0.8 1.5 -0.9
v -0.7 1.4 -0.9
v -0.7 1.5 -0.9
v -0.7 1.6 -0.9
v -0.4 1.5 -0.9
v -0.4 1.6 -0.9
v -0.2 1.5 -0.9
v -0.2 1.6 -0.9
v -0.0999999 1.5 -0.9
v -0.0999999 1.6 -0.9
v 0.4 1.5 -0.9
v 0.4 1.6 -0.9
v 0.6 1.5 -0.9
v 0.6 1.6 -0.9
v 0.7 1.4 -0.9
v 0.7 1.5 -0.9
v 0.7 1.6 -0.9
v 0.8 1.3 -0.9
v 0.8 1.4 -0.9
v 0.8 1.5 -0.9
v 0.9 1.3 -0.9
v 0.9 1.4 -0.9
v -0.8 1.3 -1
v -0.8 1.4 -1
v -0.7 1.4 -1
v -0.7 1.5 -1
v -0.4 1.4 -1
v -0.4 1.5 -1
v -0.2 1.4 -1
v -0.2 1.5 -1
v -0.0999999 1.4 -1
v -0.0999999 1.5 -1
v 0.1 1.3 -1
v 0.1 1.4 -1
v 0.4 1.4 -1
v 0.4 1.5 -1
v 0.6 1.4 -1
v 0.6 1.5 -1
v 0.7 1.4 -1
v 0.7 1.5 -1
v 0.8 1.3 -1
v 0.8 1.4 -1
v -0.3 0.1 0.3
v -0.0999999 0.1 0.3
v 0.1 0.1 0.3
v 0.3 0.1 0.3
v -0.0999999 0.1 0.2
v 1.19209e-07 0.1 0.2
v 0.1 0.1 0.2
v 0.3 0.1 0.2
v -0.3 0.1 0.0999999
v 1.19209e-07 0.1 0.0999999
v 0.1 0.1 -0.1
v 0.3 0.1 -0.1
v -0.3 0.1 -0.3
v 0.1 0.1 -0.3
v 0.3 0.1 -0.3
v -0.3 0.2 0.5
v -0.0999999 0.2 0.5
v 0.1 0.2 0.5
v 0.3 0.2 0.5
v -0.4 0.2 0.4
v -0.3 0.2 0.4
v -0.0999999 0.2 0.4
v 1.19209e-07 0.2 0.4
v 0.1 0.2 0.4
v 0.2 0.2 0.4
v -0.5 0.2 0.3
v -0.4 0.2 0.3
v -0.3 0.2 0.3
v -0.0999999 0.2 0.3
v 1.19209e-07 0.2 0.3
v 0.1 0.2 0.3
v 0.2 0.2 0.3
v 0.3 0.2 0.3
v 0.4 0.2 0.3
v 0.3 0.2 0.2
v -0.5 0.2 0.0999999
v -0.3 0.2 0.0999999
v 0.3 0.2 0.0999999
v 0.4 0.2 0.0999999
v 0.3 0.2 -0.1
v 0.4 0.2 -0.1
v -0.5 0.2 -0.2
v -0.3 0.2 -0.2
v -0.5 0.2 -0.3
v -0.3 0.2 -0.3
v -0.2 0.2 -0.3
v -0.0999999 0.2 -0.3
v 0.1 0.2 -0.3
v 0.3 0.2 -0.3
v 0.2 0.2 -0.4
v 0.3 0.2 -0.4
v 0.4 0.2 -0.4
v -0.3 0.2 -0.5
v -0.2 0.2 -0.5
v -0.0999999 0.2 -0.5
v 0.1 0.2 -0.5
v 0.2 0.2 -0.5
v 0.3 0.2 -0.5
v -0.3 0.3 0.6
v -0.0999999 0.3 0.6
v 0.1 0.3 0.6
v -0.3 0.3 0.5
v -0.0999999 0.3 0.5
v 0.1 0.3 0.5
v 0.4 0.3 0.3
v 0.5 0.3 0.3
v 0.4 0.3 0.0999999
v 0.5 0.3 0.0999999
v 0.4 0.3 -0.1
v 0.5 0.3 -0.1
v 0.4 0.3 -0.2
v 0.5 0.3 -0.2
v -0.6 0.4 0.2
v -0.5 0.4 0.2
v -0.6 0.4 0.0999999
v -0.5 0.4 0.0999999
v -0.6 0.4 -0.1
v -0.5 0.4 -0.1
v -0.6 0.4 -0.3
v -0.5 0.4 -0.3
v -0.5 0.6 -0.3
v -0.4 0.6 -0.3
v -0.3 0.6 -0.3
v -0.5 0.6 -0.4
v -0.4 0.6 -0.4
v -0.3 0.6 -0.4
v -0.2 0.6 -0.5
v -0.0999999 0.6 -0.5
v 0.1 0.6 -0.5
v 0.2 0.6 -0.5
v 0.3 0.6 -0.5
v -0.2 0.6 -0.6
v -0.0999999 0.6 -0.6
v 0.1 0.6 -0.6
v 0.3 0.6 -0.6
v 0.5 0.7 0.2
v 0.6 0.7 0.2
v 0.5 0.7 0.0999999
v 0.6 0.7 0.0999999
v 0.5 0.7 -0.1
v 0.6 0.7 -0.1
v 0.4 0.7 -0.2
v 0.5 0.7 -0.2
v 0.6 0.7 -0.2
v 0.4 0.7 -0.3
v 0.6 0.7 -0.3
v -0.8 1.3 1
v -0.6 1.3 1
v -0.5 1.3 1
v -0.2 1.3 1
v 0.5 1.3 1
v 0.8 1.3 1
v -0.9 1.3 0.9
v -0.8 1.3 0.9
v -0.6 1.3 0.9
v -0.5 1.3 0.9
v -0.4 1.3 0.9
v -0.2 1.3 0.9
v 0.5 1.3 0.9
v 0.6 1.3 0.9
v 0.8 1.3 0.9
v 0.9 1.3 0.9
v -1 1.3 0.8
v -0.9 1.3 0.8
v -0.8 1.3 0.8
v -0.5 1.3 0.8
v -0.4 1.3 0.8
v 0.5 1.3 0.8
v 0.6 1.3 0.8
v 0.8 1.3 0.8
v 0.9 1.3 0.8
v 1 1.3 0.8
v 0.8 1.3 0.6
v 1 1.3 0.6
v -0.9 1.3 0.5
v -0.8 1.3 0.5
v 0.8 1.3 0.5
v 0.9 1.3 0.5
v -1 1.3 0.4
v -0.9 1.3 0.4
v -0.9 1.3 0.3
v -0.8 1.3 0.3
v 0.9 1.3 0.3
v 1 1.3 0.3
v -0.9 1.3 0.2
v -0.8 1.3 0.2
v -1 1.3 0.0999999
v -0.9 1.3 0.0999999
v 0.8 1.3 0.0999999
v 0.9 1.3 0.0999999
v -0.9 1.3 -1.19209e-07
v -0.8 1.3 -1.19209e-07
v 0.4 1.3 -0.2
v 0.5 1.3 -0.2
v 0.8 1.3 -0.2
v 0.9 1.3 -0.2
v -0.9 1.3 -0.3
v -0.8 1.3 -0.3
v 0.4 1.3 -0.3
v 0.5 1.3 -0.3
v -0.9 1.3 -0.5
v -0.8 1.3 -0.5
v -1 1.3 -0.8
v -0.9 1.3 -0.8
v -0.8 1.3 -0.8
v -0.5 1.3 -0.8
v -0.2 1.3 -0.8
v 0.2 1.3 -0.8
v 0.3 1.3 -0.8
v 0.8 1.3 -0.8
v 0.9 1.3 -0.8
v 1 1.3 -0.8
v -0.9 1.3 -0.9
v -0.8 1.3 -0.9
v -0.5 1.3 -0.9
v -0.2 1.3 -0.9
v 0.1 1.3 -0.9
v 0.2 1.3 -0.9
v 0.3 1.3 -0.9
v 0.8 1.3 -0.9
v 0.9 1.3 -0.9
v -0.8 1.3 -1
v 0.1 1.3 -1
v 0.8 1.3 -1
v -0.8 1.4 0.8
v -0.5 1.4 0.8
v -0.4 1.4 0.8
v 0.3 1.4 0.8
v 0.5 1.4 0.8
v 0.6 1.4 0.8
v 0.8 1.4 0.8
v -0.7 1.4 0.7
v 0.3 1.4 0.7
v 0.5 1.4 0.7
v 0.7 1.4 0.7
v 0.8 1.4 0.6
v -0.8 1.4 0.5
v 0.3 1.4 0.5
v 0.4 1.4 0.5
v 0.8 1.4 0.5
v 0.7 1.4 0.4
v 0.8 1.4 0.4
v -0.8 1.4 0.3
v 0.3 1.4 0.3
v 0.4 1.4 0.3
v -0.8 1.4 0.2
v 0.8 1.4 0.0999999
v -0.8 1.4 -1.19209e-07
v 0.7 1.4 -1.19209e-07
v 0.8 1.4 -1.19209e-07
v 0.8 1.4 -0.2
v -0.8 1.4 -0.3
v -0.8 1.4 -0.4
v -0.7 1.4 -0.4
v -0.8 1.4 -0.5
v -0.7 1.4 -0.5
v 0.7 1.4 -0.5
v 0.8 1.4 -0.5
v -0.7 1.4 -0.7
v -0.2 1.4 -0.7
v 0.3 1.4 -0.7
v 0.7 1.4 -0.7
v 0.8 1.4 -0.7
v -0.8 1.4 -0.8
v -0.5 1.4 -0.8
v -0.2 1.4 -0.8
v 0.2 1.4 -0.8
v 0.3 1.4 -0.8
v 0.8 1.4 -0.8
v -0.7 1.5 0.7
v -0.0999999 1.5 0.7
v 0.3 1.5 0.7
v 0.5 1.5 0.7
v 0.7 1.5 0.7
v -0.7 1.5 0.6
v -0.5 1.5 0.6
v -0.0999999 1.5 0.6
v 0.5 1.5 0.6
v -0.6 1.5 0.5
v -0.5 1.5 0.5
v -0.3 1.5 0.5
v 0.4 1.5 0.5
v 0.6 1.5 0.5
v 0.7 1.5 0.5
v -0.4 1.5 0.4
v -0.3 1.5 0.4
v 0.7 1.5 0.4
v -0.6 1.5 0.3
v -0.5 1.5 0.3
v -0.4 1.5 0.3
v 0.6 1.5 0.3
v 0.7 1.5 0.3
v -0.7 1.5 0.2
v -0.5 1.5 0.2
v 0.7 1.5 -1.19209e-07
v 0.5 1.5 -0.2
v 0.6 1.5 -0.2
v -0.5 1.5 -0.3
v -0.3 1.5 -0.3
v 0.6 1.5 -0.3
v 0.7 1.5 -0.3
v -0.7 1.5 -0.4
v -0.5 1.5 -0.4
v -0.3 1.5 -0.4
v 0.4 1.5 -0.4
v 0.5 1.5 -0.4
v 0.6 1.5 -0.4
v -0.7 1.5 -0.5
v -0.5 1.5 -0.5
v -0.4 1.5 -0.5
v -0.3 1.5 -0.5
v 0.7 1.5 -0.5
v -0.4 1.5 -0.6
v -0.3 1.5 -0.6
v -0.0999999 1.5 -0.6
v 0.6 1.5 -0.6
v 0.7 1.5 -0.6
v -0.7 1.5 -0.7
v -0.3 1.5 -0.7
v -0.2 1.5 -0.7
v -0.0999999 1.5 -0.7
v 0.3 1.5 -0.7
v 0.7 1.5 -0.7
v 0.5 1 0.2
v 0.6 1 0.2
v 0.4 1 -0.2
v 0.5 1 -0.2
v -0.5 1 -0.3
v -0.4 1 -0.3
v -0.3 1 -0.3
v 0.4 1 -0.3
v 0.6 1 -0.3
v -0.5 1 -0.4
v -0.4 1 -0.4
v -0.3 1 -0.4
v -0.3 1.1 0.6
v -0.2 1.1 0.6
v 0.1 1.1 0.6
v -0.3 1.1 0.5
v -0.2 1.1 0.5
v 1.19209e-07 1.1 0.5
v 0.1 1.1 0.5
v -0.2 1.1 -0.5
v -0.0999999 1.1 -0.5
v 0.3 1.1 -0.5
v -0.2 1.1 -0.6
v 0.3 1.1 -0.6
v -0.6 1.2 0.2
v -0.5 1.2 0.2
v -0.6 1.2 -0.3
v -0.5 1.2 -0.3
v -0.8 1.4 1
v -0.7 1.4 1
v 0.7 1.4 1
v 0.8 1.4 1
v -0.9 1.4 0.9
v -0.8 1.4 0.9
v -0.7 1.4 0.9
v 0.7 1.4 0.9
v 0.8 1.4 0.9
v 0.9 1.4 0.9
v -1 1.4 0.8
v -0.9 1.4 0.8
v -0.8 1.4 0.8
v 0.8 1.4 0.8
v 0.9 1.4 0.8
v 1 1.4 0.8
v -1 1.4 0.7
v -0.9 1.4 0.7
v 0.9 1.4 0.7
v 1 1.4 0.7
v 0.4 1.4 0.3
v 0.5 1.4 0.3
v 0.4 1.4 -0.3
v 0.5 1.4 -0.3
v -0.3 1.4 -0.4
v 0.3 1.4 -0.4
v -0.3 1.4 -0.5
v 0.3 1.4 -0.5
v -1 1.4 -0.7
v -0.9 1.4 -0.7
v 0.9 1.4 -0.7
v 1 1.4 -0.7
v -1 1.4 -0.8
v -0.9 1.4 -0.8
v -0.8 1.4 -0.8
v 0.8 1.4 -0.8
v 0.9 1.4 -0.8
v 1 1.4 -0.8
v -0.9 1.4 -0.9
v -0.8 1.4 -0.9
v -0.7 1.4 -0.9
v 0.7 1.4 -0.9
v 0.8 1.4 -0.9
v 0.9 1.4 -0.9
v -0.8 1.4 -1
v -0.7 1.4 -1
v 0.7 1.4 -1
v 0.8 1.4 -1
v -0.7 1.5 1
v -0.6 1.5 1
v -0.4 1.5 1
v -0.2 1.5 1
v 1.19209e-07 1.5 1
v 0.7 1.5 1
v -0.8 1.5 0.9
v -0.7 1.5 0.9
v -0.6 1.5 0.9
v -0.4 1.5 0.9
v -0.2 1.5 0.9
v 1.19209e-07 1.5 0.9
v 0.3 1.5 0.9
v 0.5 1.5 0.9
v 0.6 1.5 0.9
v 0.7 1.5 0.9
v 0.8 1.5 0.9
v -0.9 1.5 0.8
v -0.8 1.5 0.8
v -0.7 1.5 0.8
v 0.7 1.5 0.8
v 0.8 1.5 0.8
v 0.9 1.5 0.8
v -1 1.5 0.7
v -0.9 1.5 0.7
v -0.8 1.5 0.7
v 0.8 1.5 0.7
v 0.9 1.5 0.7
v 1 1.5 0.7
v -0.9 1.5 0.6
v 0.9 1.5 0.4
v -0.9 1.5 0.3
v -1 1.5 0.2
v -0.9 1.5 0.2
v 0.9 1.5 0.2
v -1 1.5 0.0999999
v -0.9 1.5 0.0999999
v 0.9 1.5 0.0999999
v 0.9 1.5 -1.19209e-07
v 1 1.5 -1.19209e-07
v 0.9 1.5 -0.1
v 1 1.5 -0.1
v -1 1.5 -0.2
v -0.9 1.5 -0.2
v 0.9 1.5 -0.2
v 1 1.5 -0.2
v 0.9 1.5 -0.3
v 1 1.5 -0.3
v -1 1.5 -0.4
v -0.9 1.5 -0.4
v 0.9 1.5 -0.4
v -0.9 1.5 -0.6
v 0.9 1.5 -0.6
v -1 1.5 -0.7
v -0.9 1.5 -0.7
v -0.8 1.5 -0.7
v 0.8 1.5 -0.7
v 0.9 1.5 -0.7
v 1 1.5 -0.7
v -0.9 1.5 -0.8
v -0.8 1.5 -0.8
v -0.7 1.5 -0.8
v 0.7 1.5 -0.8
v 0.8 1.5 -0.8
v 0.9 1.5 -0.8
v -0.8 1.5 -0.9
v -0.7 1.5 -0.9
v -0.4 1.5 -0.9
v -0.2 1.5 -0.9
v -0.0999999 1.5 -0.9
v 0.4 1.5 -0.9
v 0.6 1.5 -0.9
v 0.7 1.5 -0.9
v 0.8 1.5 -0.9
v -0.7 1.5 -1
v -0.4 1.5 -1
v -0.2 1.5 -1
v -0.0999999 1.5 -1
v 0.4 1.5 -1
v 0.6 1.5 -1
v 0.7 1.5 -1
v -0.7 1.6 0.9
v 0.3 1.6 0.9
v 0.5 1.6 0.9
v 0.6 1.6 0.9
v 0.7 1.6 0.9
v -0.8 1.6 0.8
v -0.7 1.6 0.8
v -0.6 1.6 0.8
v -0.5 1.6 0.8
v 0.1 1.6 0.8
v 0.3 1.6 0.8
v 0.5 1.6 0.8
v 0.6 1.6 0.8
v 0.7 1.6 0.8
v 0.8 1.6 0.8
v -0.9 1.6 0.7
v -0.8 1.6 0.7
v -0.7 1.6 0.7
v -0.6 1.6 0.7
v 0.7 1.6 0.7
v 0.8 1.6 0.7
v 0.9 1.6 0.7
v -0.9 1.6 0.6
v -0.8 1.6 0.6
v -0.7 1.6 0.6
v -0.8 1.6 0.5
v 0.8 1.6 0.4
v 0.9 1.6 0.4
v -0.9 1.6 0.3
v -0.8 1.6 0.3
v -0.8 1.6 0.2
v 0.8 1.6 0.2
v 0.9 1.6 0.2
v -0.9 1.6 0.0999999
v -0.8 1.6 0.0999999
v 0.8 1.6 0.0999999
v 0.9 1.6 0.0999999
v 0.8 1.6 -1.19209e-07
v 0.8 1.6 -0.1
v 0.9 1.6 -0.1
v -0.9 1.6 -0.2
v -0.8 1.6 -0.2
v -0.8 1.6 -0.3
v -0.9 1.6 -0.4
v -0.8 1.6 -0.4
v 0.8 1.6 -0.4
v 0.9 1.6 -0.4
v -0.9 1.6 -0.6
v -0.8 1.6 -0.6
v -0.7 1.6 -0.6
v 0.7 1.6 -0.6
v 0.8 1.6 -0.6
v 0.9 1.6 -0.6
v -0.9 1.6 -0.7
v -0.8 1.6 -0.7
v -0.7 1.6 -0.7
v -0.6 1.6 -0.7
v 0.6 1.6 -0.7
v 0.7 1.6 -0.7
v 0.8 1.6 -0.7
v 0.9 1.6 -0.7
v -0.8 1.6 -0.8
v -0.7 1.6 -0.8
v -0.6 1.6 -0.8
v -0.4 1.6 -0.8
v -0.3 1.6 -0.8
v -0.2 1.6 -0.8
v -0.0999999 1.6 -0.8
v 0.4 1.6 -0.8
v 0.6 1.6 -0.8
v 0.7 1.6 -0.8
v 0.8 1.6 -0.8
v -0.7 1.6 -0.9
v -0.4 1.6 -0.9
v -0.2 1.6 -0.9
v -0.0999999 1.6 -0.9
v 0.4 1.6 -0.9
v 0.6 1.6 -0.9
v 0.7 1.6 -0.9
v -0.6 1.7 0.8
v -0.5 1.7 0.8
v 0.1 1.7 0.8
v 0.3 1.7 0.8
v 0.5 1.7 0.8
v 0.7 1.7 0.8
v -0.7 1.7 0.7
v -0.6 1.7 0.7
v -0.5 1.7 0.7
v -0.3 1.7 0.7
v -0.0999999 1.7 0.7
v 0.1 1.7 0.7
v 0.3 1.7 0.7
v 0.4 1.7 0.7
v 0.5 1.7 0.7
v 0.6 1.7 0.7
v 0.7 1.7 0.7
v 0.8 1.7 0.7
v -0.8 1.7 0.6
v -0.7 1.7 0.6
v -0.6 1.7 0.6
v -0.5 1.7 0.6
v 0.6 1.7 0.6
v 0.7 1.7 0.6
v -0.8 1.7 0.5
v -0.7 1.7 0.5
v -0.6 1.7 0.5
v 0.7 1.7 0.4
v 0.8 1.7 0.4
v -0.8 1.7 0.2
v -0.7 1.7 0.2
v 0.7 1.7 0.2
v 0.8 1.7 0.2
v 0.7 1.7 0.0999999
v 0.8 1.7 0.0999999
v -0.7 1.7 -1.19209e-07
v 0.7 1.7 -1.19209e-07
v 0.8 1.7 -1.19209e-07
v -0.7 1.7 -0.1
v 0.7 1.7 -0.1
v -0.8 1.7 -0.3
v -0.7 1.7 -0.3
v -0.7 1.7 -0.4
v -0.7 1.7 -0.5
v -0.6 1.7 -0.5
v 0.6 1.7 -0.5
v 0.7 1.7 -0.5
v -0.8 1.7 -0.6
v -0.7 1.7 -0.6
v -0.6 1.7 -0.6
v -0.5 1.7 -0.6
v 0.5 1.7 -0.6
v 0.6 1.7 -0.6
v 0.7 1.7 -0.6
v 0.8 1.7 -0.6
v -0.7 1.7 -0.7
v -0.6 1.7 -0.7
v -0.5 1.7 -0.7
v -0.3 1.7 -0.7
v -0.0999999 1.7 -0.7
v 0.2 1.7 -0.7
v 0.4 1.7 -0.7
v 0.5 1.7 -0.7
v 0.6 1.7 -0.7
v 0.7 1.7 -0.7
v -0.6 1.7 -0.8
v -0.3 1.7 -0.8
v -0.0999999 1.7 -0.8
v 0.6 1.7 -0.8
v -0.5 1.8 0.7
v -0.3 1.8 0.7
v -0.0999999 1.8 0.7
v 0.4 1.8 0.7
v 0.6 1.8 0.7
v -0.6 1.8 0.6
v -0.5 1.8 0.6
v -0.4 1.8 0.6
v -0.3 1.8 0.6
v -0.0999999 1.8 0.6
v 1.19209e-07 1.8 0.6
v 0.2 1.8 0.6
v 0.3 1.8 0.6
v 0.4 1.8 0.6
v 0.5 1.8 0.6
v 0.6 1.8 0.6
v 0.7 1.8 0.6
v -0.7 1.8 0.5
v -0.6 1.8 0.5
v -0.5 1.8 0.5
v -0.4 1.8 0.5
v 0.5 1.8 0.5
v 0.6 1.8 0.5
v -0.6 1.8 0.4
v -0.5 1.8 0.4
v -0.6 1.8 0.3
v -0.7 1.8 0.2
v -0.6 1.8 0.2
v 0.6 1.8 0.2
v 0.6 1.8 0.0999999
v 0.7 1.8 0.0999999
v -0.7 1.8 -1.19209e-07
v -0.6 1.8 -1.19209e-07
v -0.7 1.8 -0.1
v -0.6 1.8 -0.1
v 0.6 1.8 -0.1
v 0.7 1.8 -0.1
v 0.6 1.8 -0.2
v -0.7 1.8 -0.4
v -0.6 1.8 -0.4
v -0.5 1.8 -0.4
v 0.5 1.8 -0.4
v 0.6 1.8 -0.4
v -0.7 1.8 -0.5
v -0.6 1.8 -0.5
v -0.5 1.8 -0.5
v -0.4 1.8 -0.5
v 0.4 1.8 -0.5
v 0.5 1.8 -0.5
v 0.6 1.8 -0.5
v 0.7 1.8 -0.5
v -0.6 1.8 -0.6
v -0.5 1.8 -0.6
v -0.4 1.8 -0.6
v -0.0999999 1.8 -0.6
v 0.1 1.8 -0.6
v 0.2 1.8 -0.6
v 0.4 1.8 -0.6
v 0.5 1.8 -0.6
v 0.6 1.8 -0.6
v -0.5 1.8 -0.7
v -0.0999999 1.8 -0.7
v 0.2 1.8 -0.7
v 0.4 1.8 -0.7
v 0.5 1.8 -0.7
v -0.4 1.9 0.6
v -0.3 1.9 0.6
v -0.0999999 1.9 0.6
v 1.19209e-07 1.9 0.6
v 0.2 1.9 0.6
v 0.3 1.9 0.6
v 0.5 1.9 0.6
v -0.5 1.9 0.5
v -0.4 1.9 0.5
v -0.3 1.9 0.5
v -0.0999999 1.9 0.5
v 0.1 1.9 0.5
v 0.2 1.9 0.5
v 0.3 1.9 0.5
v 0.5 1.9 0.5
v 0.6 1.9 0.5
v -0.6 1.9 0.4
v -0.5 1.9 0.4
v -0.4 1.9 0.4
v -0.2 1.9 0.4
v -0.0999999 1.9 0.4
v 1.19209e-07 1.9 0.4
v 0.1 1.9 0.4
v 0.2 1.9 0.4
v 0.4 1.9 0.4
v -0.6 1.9 0.3
v -0.5 1.9 0.3
v -0.4 1.9 0.3
v -0.2 1.9 0.3
v 0.2 1.9 0.3
v 0.3 1.9 0.3
v 0.4 1.9 0.3
v 0.5 1.9 0.3
v 0.3 1.9 0.2
v 0.4 1.9 0.2
v 0.6 1.9 0.2
v -0.6 1.9 -1.19209e-07
v -0.5 1.9 -1.19209e-07
v 0.3 1.9 -0.1
v 0.4 1.9 -0.1
v 0.5 1.9 -0.1
v -0.4 1.9 -0.2
v -0.2 1.9 -0.2
v 0.5 1.9 -0.2
v 0.6 1.9 -0.2
v 0.2 1.9 -0.3
v 0.3 1.9 -0.3
v -0.6 1.9 -0.4
v -0.5 1.9 -0.4
v -0.4 1.9 -0.4
v -0.2 1.9 -0.4
v 0.2 1.9 -0.4
v 0.3 1.9 -0.4
v 0.5 1.9 -0.4
v 0.6 1.9 -0.4
v -0.5 1.9 -0.5
v -0.4 1.9 -0.5
v -0.0999999 1.9 -0.5
v 0.1 1.9 -0.5
v 0.4 1.9 -0.5
v 0.5 1.9 -0.5
v -0.4 1.9 -0.6
v -0.0999999 1.9 -0.6
v 0.1 1.9 -0.6
v 0.4 1.9 -0.6
v -0.2 2 0.4
v -0.0999999 2 0.4
v 0.1 2 0.4
v 0.2 2 0.4
v -0.4 2 0.3
v -0.2 2 0.3
v -0.0999999 2 0.3
v 1.19209e-07 2 0.3
v 0.1 2 0.3
v 0.2 2 0.3
v 0.3 2 0.3
v -0.3 2 0.2
v -0.2 2 0.2
v 0.1 2 0.2
v 0.2 2 0.2
v 0.3 2 0.2
v 0.4 2 0.2
v 0.2 2 0.0999999
v 0.3 2 0.0999999
v -0.3 2 -1.19209e-07
v 0.2 2 -1.19209e-07
v 0.3 2 -1.19209e-07
v -0.3 2 -0.1
v -0.0999999 2 -0.1
v 0.3 2 -0.1
v 0.4 2 -0.1
v -0.4 2 -0.2
v -0.2 2 -0.2
v 0.1 2 -0.2
v 0.2 2 -0.2
v -0.0999999 2 -0.3
v 0.1 2 -0.3
v 0.2 2 -0.3
v 0.3 2 -0.3
v -0.2 2 -0.4
v 0.2 2 -0.4
v -0.2 2.1 0.3
v 1.19209e-07 2.1 0.3
v 0.1 2.1 0.3
v -0.3 2.1 0.2
v -0.2 2.1 0.2
v -0.0999999 2.1 0.2
v 1.19209e-07 2.1 0.2
v 0.1 2.1 0.2
v 0.2 2.1 0.2
v -0.2 2.1 0.0999999
v -0.0999999 2.1 0.0999999
v 0.2 2.1 0.0999999
v 0.3 2.1 0.0999999
v -0.3 2.1 -1.19209e-07
v -0.2 2.1 -1.19209e-07
v -0.0999999 2.1 -1.19209e-07
v 0.1 2.1 -1.19209e-07
v 0.2 2.1 -1.19209e-07
v 0.3 2.1 -1.19209e-07
v -0.3 2.1 -0.1
v -0.0999999 2.1 -0.1
v 0.1 2.1 -0.1
v 0.1 2.1 -0.2
v 0.2 2.1 -0.2
v -0.0999999 2.1 -0.3
v 0.1 2.1 -0.3
v -0.0999999 2.2 0.2
v 1.19209e-07 2.2 0.2
v 0.1 2.2 0.2
v -0.2 2.2 0.0999999
v -0.0999999 2.2 0.0999999
v 1.19209e-07 2.2 0.0999999
v -0.2 2.2 -1.19209e-07
v -0.0999999 2.2 -1.19209e-07
v 1.19209e-07 2.2 -1.19209e-07
v 0.1 2.2 -1.19209e-07
v -0.0999999 2.2 -0.1
v 0.1 2.2 -0.1
v -0.0999999 2.3 0.0999999
v 1.19209e-07 2.3 0.0999999
v -0.0999999 2.3 -1.19209e-07
v 1.19209e-07 2.3 -1.19209e-07

# faces
f 5/4/1 2/4/1 1/4/1
f 6/4/1 2/4/1 5/4/1
f 7/5/1 3/5/1 2/5/1
f 7/4/1 2/4/1 6/4/1
f 8/5/1 3/5/1 7/5/1
f 9/4/1 4/4/1 3/4/1
f 10/4/1 4/4/1 9/4/1
f 11/4/1 4/4/1 10/4/1
f 12/4/1 4/4/1 11/4/1
f 13/4/1 7/4/1 6/4/1
f 13/4/1 8/4/1 7/4/1
f 14/5/1 3/5/1 8/5/1
f 14/4/1 8/4/1 13/4/1
f 15/4/1 9/4/1 3/4/1
f 15/5/1 3/5/1 14/5/1
f 16/6/1 10/6/1 9/6/1
f 16/4/1 9/4/1 15/4/1
f 17/4/1 11/4/1 10/4/1
f 17/6/1 10/6/1 16/6/1
f 18/4/1 11/4/1 17/4/1
f 23/4/1 20/4/1 19/4/1
f 24/4/1 20/4/1 23/4/1
f 27/4/1 22/4/1 21/4/1
f 28/4/1 22/4/1 27/4/1
f 29/6/1 25/6/1 24/6/1
f 30/6/1 25/6/1 29/6/1
f 38/4/1 27/4/1 26/4/1
f 39/4/1 27/4/1 38/4/1
f 40/6/1 31/6/1 30/6/1
f 41/4/1 32/4/1 31/4/1
f 41/6/1 31/6/1 40/6/1
f 42/5/1 33/5/1 32/5/1
f 42/4/1 32/4/1 41/4/1
f 42/5/1 34/5/1 33/5/1
f 43/4/1 35/4/1 34/4/1
f 43/5/1 34/5/1 42/5/1
f 44/6/1 36/6/1 35/6/1
f 44/4/1 35/4/1 43/4/1
f 45/4/1 37/4/1 36/4/1
f 45/6/1 36/6/1 44/6/1
f 46/5/1 38/5/1 37/5/1
f 46/4/1 37/4/1 45/4/1
f 47/5/1 38/5/1 46/5/1
f 52/4/1 49/4/1 48/4/1
f 53/4/1 49/4/1 52/4/1
f 56/4/1 51/4/1 50/4/1
f 57/4/1 51/4/1 56/4/1
f 58/6/1 54/6/1 53/6/1
f 59/6/1 54/6/1 58/6/1
f 62/4/1 56/4/1 55/4/1
f 63/4/1 56/4/1 62/4/1
f 64/6/1 60/6/1 59/6/1
f 65/6/1 60/6/1 64/6/1
f 75/4/1 62/4/1 61/4/1
f 76/4/1 62/4/1 75/4/1
f 77/4/1 67/4/1 66/4/1
f 78/5/1 68/5/1 67/5/1
f 78/4/1 67/4/1 77/4/1
f 78/5/1 69/5/1 68/5/1
f 79/4/1 70/4/1 69/4/1
f 79/5/1 69/5/1 78/5/1
f 79/4/1 71/4/1 70/4/1
f 79/4/1 72/4/1 71/4/1
f 80/5/1 74/5/1 73/5/1
f 80/4/1 72/4/1 79/4/1
f 80/5/1 73/5/1 72/5/1
f 81/5/1 74/5/1 80/5/1
f 86/4/1 83/4/1 82/4/1
f 87/4/1 83/4/1 86/4/1
f 90/6/1 85/6/1 84/6/1
f 91/6/1 85/6/1 90/6/1
f 92/4/1 88/4/1 87/4/1
f 93/4/1 88/4/1 92/4/1
f 98/6/1 90/6/1 89/6/1
f 99/6/1 90/6/1 98/6/1
f 100/4/1 95/4/1 94/4/1
f 101/4/1 95/4/1 100/4/1
f 109/4/1 97/4/1 96/4/1
f 110/4/1 97/4/1 109/4/1
f 111/4/1 103/4/1 102/4/1
f 112/6/1 104/6/1 103/6/1
f 112/4/1 103/4/1 111/4/1
f 113/4/1 105/4/1 104/4/1
f 113/6/1 104/6/1 112/6/1
f 114/5/1 106/5/1 105/5/1
f 114/4/1 105/4/1 113/4/1
f 114/5/1 107/5/1 106/5/1
f 115/4/1 108/4/1 107/4/1
f 115/5/1 107/5/1 114/5/1
f 116/4/1 108/4/1 115/4/1
f 121/1/1 120/1/1 119/1/1
f 122/1/1 120/1/1 121/1/1
f 123/1/1 121/1/1 119/1/1
f 123/2/1 122/2/1 121/2/1
f 124/2/1 122/2/1 123/2/1
f 125/1/1 118/1/1 117/1/1
f 125/3/1 119/3/1 118/3/1
f 126/1/1 124/1/1 123/1/1
f 126/3/1 119/3/1 125/3/1
f 126/1/1 123/1/1 119/1/1
f 127/1/1 126/1/1 125/1/1
f 127/1/1 124/1/1 126/1/1
f 128/1/1 124/1/1 127/1/1
f 129/1/1 125/1/1 117/1/1
f 129/1/1 127/1/1 125/1/1
f 130/2/1 128/2/1 127/2/1
f 130/1/1 127/1/1 129/1/1
f 131/2/1 130/2/1 129/2/1
f 132/1/1 124/1/1 128/1/1
f 132/2/1 130/2/1 131/2/1
f 132/2/1 128/2/1 130/2/1
f 133/1/1 132/1/1 131/1/1
f 134/1/1 124/1/1 132/1/1
f 134/1/1 132/1/1 133/1/1
f 139/4/1 136/4/1 135/4/1
f 140/4/1 136/4/1 139/4/1
f 145/4/1 138/4/1 137/4/1
f 146/4/1 138/4/1 145/4/1
f 147/5/1 142/5/1 141/5/1
f 148/5/1 142/5/1 147/5/1
f 155/6/1 144/6/1 143/6/1
f 156/6/1 144/6/1 155/6/1
f 157/4/1 150/4/1 149/4/1
f 158/6/1 151/6/1 150/6/1
f 158/4/1 150/4/1 157/4/1
f 158/6/1 152/6/1 151/6/1
f 159/4/1 154/4/1 153/4/1
f 159/6/1 152/6/1 158/6/1
f 159/4/1 153/4/1 152/4/1
f 160/4/1 154/4/1 159/4/1
f 165/3/1 163/3/1 162/3/1
f 166/1/1 164/1/1 163/1/1
f 166/3/1 163/3/1 165/3/1
f 167/1/1 162/1/1 161/1/1
f 168/3/1 165/3/1 162/3/1
f 168/1/1 162/1/1 167/1/1
f 169/1/1 166/1/1 165/1/1
f 169/3/1 165/3/1 168/3/1
f 170/1/1 164/1/1 166/1/1
f 170/1/1 166/1/1 169/1/1
f 173/1/1 167/1/1 161/1/1
f 174/1/1 167/1/1 173/1/1
f 175/2/1 172/2/1 171/2/1
f 176/2/1 172/2/1 175/2/1
f 177/2/1 174/2/1 173/2/1
f 178/2/1 174/2/1 177/2/1
f 179/1/1 178/1/1 177/1/1
f 181/1/1 179/1/1 177/1/1
f 181/1/1 180/1/1 179/1/1
f 182/1/1 180/1/1 181/1/1
f 183/1/1 180/1/1 182/1/1
f 188/4/1 185/4/1 184/4/1
f 189/4/1 185/4/1 188/4/1
f 194/4/1 187/4/1 186/4/1
f 195/4/1 187/4/1 194/4/1
f 196/5/1 191/5/1 190/5/1
f 197/5/1 191/5/1 196/5/1
f 198/6/1 193/6/1 192/6/1
f 199/6/1 193/6/1 198/6/1
f 202/2/1 201/2/1 200/2/1
f 203/2/1 201/2/1 202/2/1
f 204/1/1 203/1/1 202/1/1
f 205/1/1 203/1/1 204/1/1
f 206/2/1 205/2/1 204/2/1
f 207/2/1 205/2/1 206/2/1
f 208/1/1 207/1/1 206/1/1
f 209/1/1 208/1/1 206/1/1
f 210/1/1 208/1/1 209/1/1
f 215/4/1 212/4/1 211/4/1
f 216/4/1 212/4/1 215/4/1
f 219/4/1 214/4/1 213/4/1
f 220/4/1 214/4/1 219/4/1
f 221/4/1 218/4/1 217/4/1
f 222/4/1 218/4/1 221/4/1
f 228/1/1 224/1/1 223/1/1
f 229/3/1 225/3/1 224/3/1
f 229/1/1 224/1/1 228/1/1
f 230/3/1 225/3/1 229/3/1
f 231/3/1 225/3/1 230/3/1
f 234/1/1 227/1/1 226/1/1
f 235/2/1 232/2/1 231/2/1
f 236/2/1 232/2/1 235/2/1
f 237/1/1 234/1/1 233/1/1
f 237/1/1 227/1/1 234/1/1
f 238/1/1 227/1/1 237/1/1
f 239/2/1 235/2/1 231/2/1
f 240/2/1 238/2/1 237/2/1
f 241/2/1 235/2/1 239/2/1
f 242/1/1 236/1/1 235/1/1
f 242/2/1 235/2/1 241/2/1
f 243/2/1 240/2/1 237/2/1
f 243/1/1 237/1/1 233/1/1
f 244/2/1 240/2/1 243/2/1
f 245/1/1 242/1/1 241/1/1
f 246/1/1 236/1/1 242/1/1
f 246/1/1 242/1/1 245/1/1
f 247/1/1 244/1/1 243/1/1
f 248/1/1 243/1/1 233/1/1
f 248/1/1 247/1/1 243/1/1
f 249/1/1 247/1/1 248/1/1
f 250/2/1 249/2/1 248/2/1
f 250/1/1 247/1/1 249/1/1
f 251/1/1 247/1/1 250/1/1
f 252/2/1 250/2/1 248/2/1
f 252/2/1 251/2/1 250/2/1
f 253/2/1 251/2/1 252/2/1
f 255/1/1 236/1/1 246/1/1
f 256/1/1 253/1/1 252/1/1
f 257/1/1 253/1/1 256/1/1
f 258/1/1 255/1/1 254/1/1
f 259/1/1 236/1/1 255/1/1
f 259/1/1 255/1/1 258/1/1
f 260/1/1 236/1/1 259/1/1
f 261/1/1 253/1/1 257/1/1
f 262/1/1 253/1/1 261/1/1
f 263/1/1 259/1/1 258/1/1
f 264/1/1 259/1/1 263/1/1
f 268/6/1 266/6/1 265/6/1
f 269/4/1 267/4/1 266/4/1
f 269/6/1 266/6/1 268/6/1
f 270/4/1 267/4/1 269/4/1
f 273/1/1 272/1/1 271/1/1
f 274/1/1 272/1/1 273/1/1
f 279/4/1 276/4/1 275/4/1
f 280/4/1 276/4/1 279/4/1
f 282/4/1 278/4/1 277/4/1
f 283/4/1 278/4/1 282/4/1
f 284/4/1 281/4/1 280/4/1
f 285/4/1 281/4/1 284/4/1
f 288/6/1 287/6/1 286/6/1
f 289/6/1 287/6/1 288/6/1
f 295/4/1 291/4/1 290/4/1
f 296/4/1 291/4/1 295/4/1
f 297/4/1 293/4/1 292/4/1
f 298/4/1 293/4/1 297/4/1
f 299/4/1 295/4/1 294/4/1
f 300/4/1 295/4/1 299/4/1
f 301/4/1 299/4/1 298/4/1
f 302/4/1 299/4/1 301/4/1
f 308/4/1 304/4/1 303/4/1
f 309/4/1 304/4/1 308/4/1
f 310/5/1 305/5/1 304/5/1
f 310/4/1 304/4/1 309/4/1
f 311/5/1 305/5/1 310/5/1
f 312/4/1 306/4/1 305/4/1
f 312/5/1 305/5/1 311/5/1
f 313/4/1 306/4/1 312/4/1
f 314/5/1 307/5/1 306/5/1
f 314/4/1 306/4/1 313/4/1
f 315/5/1 307/5/1 314/5/1
f 316/5/1 307/5/1 315/5/1
f 323/4/1 318/4/1 317/4/1
f 324/5/1 319/5/1 318/5/1
f 324/4/1 318/4/1 323/4/1
f 325/4/1 320/4/1 319/4/1
f 325/5/1 319/5/1 324/5/1
f 326/4/1 320/4/1 325/4/1
f 327/5/1 321/5/1 320/5/1
f 327/4/1 320/4/1 326/4/1
f 328/5/1 321/5/1 327/5/1
f 329/4/1 322/4/1 321/4/1
f 329/5/1 321/5/1 328/5/1
f 330/4/1 322/4/1 329/4/1
f 331/4/1 322/4/1 330/4/1
f 332/4/1 322/4/1 331/4/1
f 333/4/2 334/4/2 341/4/2
f 334/5/2 335/5/2 342/5/2
f 341/4/2 334/4/2 342/4/2
f 335/4/2 336/4/2 343/4/2
f 342/5/2 335/5/2 343/5/2
f 336/5/2 337/5/2 344/5/2
f 343/4/2 336/4/2 344/4/2
f 337/4/2 338/4/2 345/4/2
f 344/5/2 337/5/2 345/5/2
f 338/5/2 339/5/2 346/5/2
f 345/4/2 338/4/2 346/4/2
f 346/5/2 339/5/2 347/5/2
f 339/4/2 340/4/2 348/4/2
f 347/5/2 339/5/2 348/5/2
f 348/4/2 340/4/2 349/4/2
f 350/4/2 351/4/2 354/4/2
f 354/4/2 351/4/2 355/4/2
f 355/4/2 351/4/2 356/4/2
f 351/5/2 352/5/2 357/5/2
f 356/4/2 351/4/2 357/4/2
f 352/4/2 353/4/2 358/4/2
f 357/5/2 352/5/2 358/5/2
f 358/4/2 353/4/2 359/4/2
f 360/4/2 361/4/2 362/4/2
f 362/4/2 361/4/2 363/4/2
f 364/3/2 365/3/2 366/3/2
f 364/3/2 366/3/2 367/3/2
f 367/3/2 366/3/2 368/3/2
f 367/1/2 368/1/2 369/1/2
f 367/1/2 369/1/2 370/1/2
f 370/1/2 369/1/2 371/1/2
f 370/2/2 371/2/2 372/2/2
f 372/2/2 371/2/2 373/2/2
f 374/5/2 375/5/2 378/5/2
f 378/5/2 375/5/2 379/5/2
f 376/4/2 377/4/2 382/4/2
f 382/4/2 377/4/2 383/4/2
f 379/5/2 380/5/2 384/5/2
f 380/4/2 381/4/2 385/4/2
f 384/5/2 380/5/2 385/5/2
f 385/4/2 381/4/2 386/4/2
f 387/4/2 388/4/2 391/4/2
f 391/4/2 388/4/2 392/4/2
f 389/4/2 390/4/2 397/4/2
f 397/4/2 390/4/2 398/4/2
f 393/4/2 394/4/2 399/4/2
f 399/4/2 394/4/2 400/4/2
f 395/4/2 396/4/2 401/4/2
f 401/4/2 396/4/2 402/4/2
f 403/1/2 404/1/2 408/1/2
f 404/3/2 405/3/2 409/3/2
f 408/1/2 404/1/2 409/1/2
f 409/3/2 405/3/2 410/3/2
f 405/1/2 406/1/2 411/1/2
f 410/3/2 405/3/2 411/3/2
f 411/1/2 406/1/2 412/1/2
f 413/2/2 414/2/2 415/2/2
f 415/2/2 414/2/2 416/2/2
f 407/1/2 408/1/2 417/1/2
f 417/1/2 408/1/2 418/1/2
f 415/1/2 416/1/2 419/1/2
f 419/1/2 416/1/2 420/1/2
f 417/2/2 418/2/2 421/2/2
f 421/2/2 418/2/2 422/2/2
f 419/2/2 420/2/2 423/2/2
f 417/2/2 421/2/2 424/2/2
f 421/1/2 422/1/2 425/1/2
f 424/2/2 421/2/2 425/2/2
f 423/2/2 420/2/2 426/2/2
f 423/2/2 426/2/2 428/2/2
f 426/1/2 427/1/2 429/1/2
f 428/2/2 426/2/2 429/2/2
f 424/1/2 425/1/2 430/1/2
f 425/1/2 422/1/2 431/1/2
f 430/1/2 425/1/2 431/1/2
f 428/1/2 429/1/2 432/1/2
f 432/1/2 429/1/2 433/1/2
f 429/1/2 427/1/2 434/1/2
f 433/1/2 429/1/2 434/1/2
f 434/1/2 427/1/2 435/1/2
f 430/2/2 431/2/2 436/2/2
f 431/1/2 422/1/2 437/1/2
f 436/2/2 431/2/2 437/2/2
f 433/2/2 434/2/2 438/2/2
f 438/2/2 434/2/2 439/2/2
f 436/1/2 437/1/2 440/1/2
f 437/1/2 422/1/2 441/1/2
f 440/1/2 437/1/2 441/1/2
f 438/1/2 439/1/2 442/1/2
f 442/1/2 439/1/2 443/1/2
f 444/6/2 445/6/2 448/6/2
f 448/6/2 445/6/2 449/6/2
f 446/4/2 447/4/2 452/4/2
f 452/4/2 447/4/2 453/4/2
f 450/4/2 451/4/2 454/4/2
f 454/4/2 451/4/2 455/4/2
f 456/1/2 457/1/2 460/1/2
f 457/3/2 458/3/2 461/3/2
f 460/1/2 457/1/2 461/1/2
f 458/1/2 459/1/2 462/1/2
f 461/3/2 458/3/2 462/3/2
f 462/1/2 459/1/2 463/1/2
f 463/1/2 459/1/2 464/1/2
f 464/1/2 459/1/2 465/1/2
f 463/1/2 464/1/2 466/1/2
f 464/2/2 465/2/2 466/2/2
f 466/2/2 465/2/2 467/2/2
f 463/1/2 466/1/2 468/1/2
f 466/1/2 467/1/2 468/1/2
f 468/1/2 467/1/2 469/1/2
f 468/2/2 469/2/2 470/2/2
f 469/1/2 467/1/2 471/1/2
f 470/2/2 469/2/2 471/2/2
f 471/1/2 467/1/2 472/1/2
f 472/1/2 467/1/2 473/1/2
f 473/1/2 467/1/2 474/1/2
f 473/2/2 474/2/2 476/2/2
f 475/1/2 476/1/2 477/1/2
f 476/2/2 474/2/2 478/2/2
f 477/1/2 476/1/2 478/1/2
f 478/2/2 474/2/2 479/2/2
f 477/1/2 478/1/2 480/1/2
f 478/1/2 479/1/2 480/1/2
f 480/1/2 479/1/2 481/1/2
f 481/1/2 479/1/2 482/1/2
f 482/1/2 479/1/2 485/1/2
f 483/1/2 484/1/2 486/1/2
f 484/1/2 485/1/2 486/1/2
f 485/1/2 479/1/2 487/1/2
f 486/1/2 485/1/2 487/1/2
f 488/4/2 489/4/2 492/4/2
f 492/4/2 489/4/2 493/4/2
f 490/4/2 491/4/2 494/4/2
f 494/4/2 491/4/2 495/4/2
f 496/1/2 497/1/2 500/1/2
f 497/3/2 498/3/2 501/3/2
f 500/1/2 497/1/2 501/1/2
f 498/1/2 499/1/2 502/1/2
f 501/3/2 498/3/2 502/3/2
f 502/1/2 499/1/2 503/1/2
f 496/1/2 500/1/2 504/1/2
f 496/1/2 504/1/2 506/1/2
f 504/1/2 505/1/2 506/1/2
f 506/1/2 505/1/2 507/1/2
f 506/2/2 507/2/2 508/2/2
f 508/2/2 507/2/2 509/2/2
f 508/1/2 509/1/2 510/1/2
f 508/1/2 510/1/2 512/1/2
f 510/1/2 511/1/2 512/1/2
f 512/1/2 511/1/2 513/1/2
f 514/5/2 515/5/2 520/5/2
f 520/5/2 515/5/2 521/5/2
f 516/5/2 517/5/2 522/5/2
f 522/5/2 517/5/2 523/5/2
f 518/4/2 519/4/2 524/4/2
f 524/4/2 519/4/2 525/4/2
f 526/1/2 527/1/2 531/1/2
f 527/3/2 528/3/2 531/3/2
f 531/3/2 528/3/2 532/3/2
f 531/1/2 532/1/2 533/1/2
f 532/3/2 528/3/2 533/3/2
f 528/1/2 529/1/2 534/1/2
f 533/3/2 528/3/2 534/3/2
f 529/2/2 530/2/2 535/2/2
f 534/1/2 529/1/2 535/1/2
f 535/2/2 530/2/2 536/2/2
f 533/1/2 534/1/2 537/1/2
f 531/1/2 533/1/2 537/1/2
f 535/1/2 536/1/2 537/1/2
f 534/1/2 535/1/2 537/1/2
f 526/1/2 531/1/2 537/1/2
f 537/1/2 536/1/2 538/1/2
f 539/4/2 540/4/2 545/4/2
f 545/4/2 540/4/2 546/4/2
f 541/5/2 542/5/2 547/5/2
f 547/5/2 542/5/2 548/5/2
f 543/4/2 544/4/2 555/4/2
f 555/4/2 544/4/2 556/4/2
f 549/5/2 550/5/2 557/5/2
f 550/4/2 551/4/2 558/4/2
f 557/5/2 550/5/2 558/5/2
f 551/4/2 552/4/2 558/4/2
f 552/4/2 553/4/2 558/4/2
f 553/6/2 554/6/2 559/6/2
f 558/4/2 553/4/2 559/4/2
f 559/6/2 554/6/2 560/6/2
f 561/4/2 562/4/2 565/4/2
f 565/4/2 562/4/2 566/4/2
f 563/4/2 564/4/2 569/4/2
f 569/4/2 564/4/2 570/4/2
f 566/5/2 567/5/2 571/5/2
f 571/5/2 567/5/2 572/5/2
f 568/4/2 569/4/2 576/4/2
f 576/4/2 569/4/2 577/4/2
f 572/5/2 573/5/2 578/5/2
f 578/5/2 573/5/2 579/5/2
f 574/5/2 575/5/2 587/5/2
f 587/5/2 575/5/2 588/5/2
f 580/4/2 581/4/2 589/4/2
f 581/4/2 582/4/2 589/4/2
f 582/4/2 583/4/2 589/4/2
f 584/5/2 585/5/2 590/5/2
f 589/4/2 583/4/2 590/4/2
f 583/5/2 584/5/2 590/5/2
f 585/4/2 586/4/2 591/4/2
f 590/5/2 585/5/2 591/5/2
f 591/4/2 586/4/2 592/4/2
f 593/4/2 594/4/2 597/4/2
f 597/4/2 594/4/2 598/4/2
f 595/5/2 596/5/2 601/5/2
f 601/5/2 596/5/2 602/5/2
f 598/4/2 599/4/2 603/4/2
f 603/4/2 599/4/2 604/4/2
f 600/4/2 601/4/2 607/4/2
f 607/4/2 601/4/2 608/4/2
f 604/4/2 605/4/2 609/4/2
f 609/4/2 605/4/2 610/4/2
f 606/4/2 607/4/2 618/4/2
f 618/4/2 607/4/2 619/4/2
f 610/4/2 611/4/2 620/4/2
f 611/6/2 612/6/2 621/6/2
f 620/4/2 611/4/2 621/4/2
f 612/4/2 613/4/2 622/4/2
f 621/6/2 612/6/2 622/6/2
f 613/5/2 614/5/2 623/5/2
f 622/4/2 613/4/2 623/4/2
f 616/4/2 617/4/2 624/4/2
f 623/5/2 614/5/2 624/5/2
f 614/4/2 615/4/2 624/4/2
f 615/4/2 616/4/2 624/4/2
f 624/4/2 617/4/2 625/4/2
f 626/4/2 627/4/2 630/4/2
f 630/4/2 627/4/2 631/4/2
f 628/4/2 629/4/2 634/4/2
f 634/4/2 629/4/2 635/4/2
f 631/4/2 632/4/2 636/4/2
f 636/4/2 632/4/2 637/4/2
f 633/5/2 634/5/2 647/5/2
f 647/5/2 634/5/2 648/5/2
f 637/4/2 638/4/2 649/4/2
f 638/6/2 639/6/2 650/6/2
f 649/4/2 638/4/2 650/4/2
f 639/4/2 640/4/2 651/4/2
f 650/6/2 639/6/2 651/6/2
f 640/5/2 641/5/2 652/5/2
f 651/4/2 640/4/2 652/4/2
f 641/5/2 642/5/2 652/5/2
f 642/6/2 643/6/2 653/6/2
f 652/5/2 642/5/2 653/5/2
f 643/6/2 644/6/2 653/6/2
f 644/6/2 645/6/2 653/6/2
f 645/4/2 646/4/2 654/4/2
f 653/6/2 645/6/2 654/6/2
f 646/5/2 647/5/2 655/5/2
f 654/4/2 646/4/2 655/4/2
f 655/5/2 647/5/2 656/5/2
f 657/4/2 658/4/2 661/4/2
f 661/4/2 658/4/2 662/4/2
f 658/5/2 659/5/2 663/5/2
f 662/4/2 658/4/2 663/4/2
f 659/4/2 660/4/2 664/4/2
f 663/5/2 659/5/2 664/5/2
f 664/4/2 660/4/2 665/4/2
f 665/4/2 660/4/2 666/4/2
f 666/4/2 660/4/2 667/4/2
f 667/4/2 660/4/2 668/4/2
f 668/4/2 660/4/2 669/4/2
f 669/4/2 660/4/2 670/4/2
f 662/4/2 663/4/2 671/4/2
f 663/4/2 664/4/2 671/4/2
f 664/4/2 665/4/2 671/4/2
f 665/5/2 666/5/2 672/5/2
f 671/4/2 665/4/2 672/4/2
f 666/4/2 667/4/2 673/4/2
f 672/5/2 666/5/2 673/5/2
f 667/6/2 668/6/2 674/6/2
f 673/4/2 667/4/2 674/4/2
f 668/4/2 669/4/2 675/4/2
f 674/6/2 668/6/2 675/6/2
f 675/4/2 669/4/2 676/4/2
f 679/4/3 678/4/3 677/4/3
f 681/4/3 679/4/3 677/4/3
f 681/4/3 680/4/3 679/4/3
f 682/4/3 680/4/3 681/4/3
f 683/5/3 682/5/3 681/5/3
f 684/5/3 682/5/3 683/5/3
f 685/4/3 684/4/3 683/4/3
f 685/5/3 682/5/3 684/5/3
f 686/5/3 682/5/3 685/5/3
f 687/4/3 685/4/3 683/4/3
f 687/4/3 686/4/3 685/4/3
f 688/4/3 686/4/3 687/4/3
f 689/4/3 686/4/3 688/4/3
f 690/5/3 688/5/3 687/5/3
f 690/6/3 689/6/3 688/6/3
f 691/6/3 689/6/3 690/6/3
f 692/5/3 690/5/3 687/5/3
f 693/4/3 691/4/3 690/4/3
f 693/5/3 690/5/3 692/5/3
f 694/4/3 693/4/3 692/4/3
f 694/4/3 691/4/3 693/4/3
f 695/4/3 691/4/3 694/4/3
f 696/4/3 694/4/3 692/4/3
f 697/4/3 694/4/3 696/4/3
f 700/4/3 699/4/3 698/4/3
f 701/4/3 699/4/3 700/4/3
f 703/6/3 702/6/3 701/6/3
f 704/6/3 702/6/3 703/6/3
f 706/4/3 705/4/3 704/4/3
f 707/4/3 705/4/3 706/4/3
f 708/4/3 705/4/3 707/4/3
f 709/4/3 705/4/3 708/4/3
f 710/4/3 705/4/3 709/4/3
f 711/4/3 705/4/3 710/4/3
f 712/6/3 711/6/3 710/6/3
f 713/6/3 711/6/3 712/6/3
f 714/4/3 713/4/3 712/4/3
f 715/4/3 713/4/3 714/4/3
f 717/5/3 715/5/3 714/5/3
f 718/5/3 715/5/3 717/5/3
f 720/4/3 717/4/3 716/4/3
f 721/4/3 717/4/3 720/4/3
f 722/4/3 720/4/3 719/4/3
f 723/4/3 720/4/3 722/4/3
f 726/4/3 725/4/3 724/4/3
f 727/4/3 725/4/3 726/4/3
f 729/6/3 728/6/3 727/6/3
f 730/6/3 728/6/3 729/6/3
f 732/6/3 731/6/3 730/6/3
f 733/6/3 731/6/3 732/6/3
f 736/4/3 735/4/3 734/4/3
f 737/4/3 735/4/3 736/4/3
f 738/5/3 737/5/3 736/5/3
f 739/5/3 737/5/3 738/5/3
f 740/4/3 739/4/3 738/4/3
f 741/4/3 739/4/3 740/4/3
f 742/6/3 741/6/3 740/6/3
f 743/6/3 741/6/3 742/6/3
f 744/5/3 743/5/3 742/5/3
f 746/5/3 743/5/3 744/5/3
f 747/5/3 743/5/3 746/5/3
f 749/4/3 746/4/3 745/4/3
f 750/4/3 746/4/3 749/4/3
f 752/4/3 749/4/3 748/4/3
f 753/4/3 749/4/3 752/4/3
f 754/4/3 752/4/3 751/4/3
f 755/4/3 752/4/3 754/4/3
f 758/4/3 757/4/3 756/4/3
f 759/4/3 757/4/3 758/4/3
f 761/6/3 760/6/3 759/6/3
f 762/6/3 760/6/3 761/6/3
f 765/4/3 764/4/3 763/4/3
f 766/4/3 764/4/3 765/4/3
f 769/4/3 768/4/3 767/4/3
f 770/4/3 768/4/3 769/4/3
f 771/6/3 770/6/3 769/6/3
f 772/6/3 770/6/3 771/6/3
f 773/4/3 772/4/3 771/4/3
f 774/4/3 772/4/3 773/4/3
f 775/4/3 772/4/3 774/4/3
f 776/4/3 772/4/3 775/4/3
f 777/5/3 776/5/3 775/5/3
f 778/5/3 776/5/3 777/5/3
f 779/5/3 776/5/3 778/5/3
f 783/4/3 781/4/3 780/4/3
f 784/4/3 781/4/3 783/4/3
f 786/4/3 783/4/3 782/4/3
f 787/4/3 783/4/3 786/4/3
f 788/4/3 786/4/3 785/4/3
f 789/4/3 786/4/3 788/4/3
f 792/4/3 791/4/3 790/4/3
f 793/4/3 791/4/3 792/4/3
f 796/5/3 795/5/3 794/5/3
f 797/5/3 795/5/3 796/5/3
f 804/4/3 799/4/3 798/4/3
f 805/4/3 799/4/3 804/4/3
f 806/1/3 801/1/3 800/1/3
f 807/1/3 801/1/3 806/1/3
f 808/2/3 802/2/3 801/2/3
f 808/1/3 801/1/3 807/1/3
f 809/2/3 802/2/3 808/2/3
f 810/1/3 803/1/3 802/1/3
f 810/2/3 802/2/3 809/2/3
f 811/1/3 803/1/3 810/1/3
f 812/1/3 806/1/3 800/1/3
f 813/3/3 807/3/3 806/3/3
f 813/1/3 806/1/3 812/1/3
f 814/1/3 809/1/3 808/1/3
f 814/3/3 807/3/3 813/3/3
f 814/1/3 808/1/3 807/1/3
f 815/1/3 809/1/3 814/1/3
f 816/2/3 811/2/3 810/2/3
f 816/1/3 809/1/3 815/1/3
f 816/2/3 810/2/3 809/2/3
f 817/2/3 811/2/3 816/2/3
f 818/6/3 805/6/3 804/6/3
f 819/6/3 805/6/3 818/6/3
f 820/3/3 813/3/3 812/3/3
f 820/3/3 815/3/3 814/3/3
f 820/3/3 814/3/3 813/3/3
f 821/1/3 817/1/3 816/1/3
f 821/3/3 815/3/3 820/3/3
f 821/1/3 816/1/3 815/1/3
f 822/4/3 819/4/3 818/4/3
f 823/4/3 819/4/3 822/4/3
f 824/3/3 820/3/3 812/3/3
f 825/1/3 821/1/3 820/1/3
f 825/3/3 820/3/3 824/3/3
f 826/2/3 811/2/3 817/2/3
f 826/1/3 821/1/3 825/1/3
f 826/1/3 817/1/3 821/1/3
f 827/2/3 811/2/3 826/2/3
f 828/5/3 823/5/3 822/5/3
f 829/5/3 823/5/3 828/5/3
f 830/4/3 829/4/3 828/4/3
f 831/4/3 829/4/3 830/4/3
f 832/5/3 831/5/3 830/5/3
f 833/5/3 831/5/3 832/5/3
f 834/5/3 831/5/3 833/5/3
f 837/4/3 836/4/3 835/4/3
f 838/4/3 836/4/3 837/4/3
f 841/4/3 840/4/3 839/4/3
f 842/4/3 840/4/3 841/4/3
f 845/5/3 844/5/3 843/5/3
f 846/5/3 844/5/3 845/5/3
f 851/1/3 850/1/3 849/1/3
f 852/1/3 848/1/3 847/1/3
f 853/1/3 848/1/3 852/1/3
f 854/1/3 850/1/3 851/1/3
f 855/1/3 850/1/3 854/1/3
f 856/3/3 853/3/3 852/3/3
f 857/3/3 853/3/3 856/3/3
f 862/2/3 855/2/3 854/2/3
f 863/1/3 850/1/3 855/1/3
f 863/2/3 855/2/3 862/2/3
f 864/1/3 857/1/3 856/1/3
f 864/1/3 858/1/3 857/1/3
f 865/2/3 859/2/3 858/2/3
f 865/1/3 858/1/3 864/1/3
f 865/2/3 860/2/3 859/2/3
f 866/1/3 862/1/3 861/1/3
f 866/2/3 860/2/3 865/2/3
f 866/1/3 861/1/3 860/1/3
f 866/1/3 863/1/3 862/1/3
f 867/1/3 850/1/3 863/1/3
f 867/1/3 863/1/3 866/1/3
f 868/1/3 864/1/3 856/1/3
f 869/2/3 865/2/3 864/2/3
f 869/1/3 864/1/3 868/1/3
f 870/1/3 866/1/3 865/1/3
f 870/2/3 865/2/3 869/2/3
f 871/2/3 867/2/3 866/2/3
f 871/1/3 866/1/3 870/1/3
f 872/1/3 850/1/3 867/1/3
f 872/2/3 867/2/3 871/2/3
f 873/1/3 850/1/3 872/1/3
f 874/1/3 850/1/3 873/1/3
f 875/1/3 850/1/3 874/1/3
f 878/5/3 877/5/3 876/5/3
f 879/5/3 877/5/3 878/5/3
f 882/4/3 881/4/3 880/4/3
f 883/4/3 881/4/3 882/4/3
f 889/2/3 885/2/3 884/2/3
f 890/2/3 885/2/3 889/2/3
f 891/1/3 886/1/3 885/1/3
f 891/2/3 885/2/3 890/2/3
f 892/1/3 886/1/3 891/1/3
f 893/2/3 887/2/3 886/2/3
f 893/1/3 886/1/3 892/1/3
f 894/2/3 887/2/3 893/2/3
f 895/1/3 888/1/3 887/1/3
f 895/2/3 887/2/3 894/2/3
f 896/1/3 888/1/3 895/1/3
f 899/4/3 898/4/3 897/4/3
f 900/4/3 898/4/3 899/4/3
f 901/5/3 900/5/3 899/5/3
f 902/5/3 900/5/3 901/5/3
f 903/5/3 900/5/3 902/5/3
f 904/4/3 903/4/3 902/4/3
f 905/4/3 903/4/3 904/4/3
f 910/1/3 907/1/3 906/1/3
f 911/1/3 907/1/3 910/1/3
f 912/1/3 907/1/3 911/1/3
f 913/2/3 908/2/3 907/2/3
f 913/1/3 907/1/3 912/1/3
f 914/1/3 909/1/3 908/1/3
f 914/2/3 908/2/3 913/2/3
f 915/1/3 909/1/3 914/1/3
f 920/4/3 917/4/3 916/4/3
f 921/4/3 917/4/3 920/4/3
f 923/1/3 919/1/3 918/1/3
f 924/1/3 919/1/3 923/1/3
f 925/4/3 922/4/3 921/4/3
f 926/3/3 924/3/3 923/3/3
f 927/4/3 922/4/3 925/4/3
f 928/4/3 922/4/3 927/4/3
f 929/3/3 926/3/3 923/3/3
f 930/3/3 926/3/3 929/3/3
f 931/5/3 928/5/3 927/5/3
f 932/5/3 928/5/3 931/5/3
f 933/1/3 930/1/3 929/1/3
f 936/1/3 933/1/3 929/1/3
f 937/1/3 933/1/3 936/1/3
f 941/6/3 935/6/3 934/6/3
f 942/6/3 935/6/3 941/6/3
f 943/1/3 940/1/3 939/1/3
f 943/1/3 938/1/3 937/1/3
f 943/1/3 939/1/3 938/1/3
f 944/1/3 940/1/3 943/1/3
f 945/1/3 940/1/3 944/1/3
f 946/1/3 940/1/3 945/1/3
f 947/1/3 940/1/3 946/1/3
f 948/1/3 945/1/3 944/1/3
f 949/2/3 946/2/3 945/2/3
f 949/1/3 945/1/3 948/1/3
f 950/1/3 947/1/3 946/1/3
f 950/2/3 946/2/3 949/2/3
f 951/1/3 947/1/3 950/1/3
f 956/1/3 953/1/3 952/1/3
f 957/2/3 954/2/3 953/2/3
f 957/1/3 953/1/3 956/1/3
f 958/1/3 955/1/3 954/1/3
f 958/2/3 954/2/3 957/2/3
f 959/1/3 955/1/3 958/1/3
f 962/6/3 961/6/3 960/6/3
f 963/6/3 961/6/3 962/6/3
f 966/4/3 965/4/3 964/4/3
f 967/4/3 965/4/3 966/4/3
f 969/5/3 967/5/3 966/5/3
f 970/5/3 967/5/3 969/5/3
f 971/4/3 969/4/3 968/4/3
f 972/4/3 969/4/3 971/4/3
f 975/4/3 974/4/3 973/4/3
f 976/4/3 974/4/3 975/4/3
f 979/1/3 978/1/3 977/1/3
f 980/1/3 978/1/3 979/1/3
f 983/6/3 982/6/3 981/6/3
f 984/6/3 982/6/3 983/6/3
f 986/4/3 985/4/3 984/4/3
f 987/4/3 985/4/3 986/4/3
f 990/4/3 989/4/3 988/4/3
f 991/4/3 989/4/3 990/4/3
f 994/4/3 993/4/3 992/4/3
f 995/4/3 994/4/3 992/4/3
f 996/4/3 994/4/3 995/4/3
f 997/5/3 996/5/3 995/5/3
f 998/5/3 997/5/3 995/5/3
f 999/5/3 997/5/3 998/5/3
f 1000/4/3 999/4/3 998/4/3
f 1001/4/3 999/4/3 1000/4/3
f 1004/4/3 1003/4/3 1002/4/3
f 1005/4/3 1003/4/3 1004/4/3
f 1006/5/3 1005/5/3 1004/5/3
f 1007/5/3 1005/5/3 1006/5/3
f 1008/4/3 1007/4/3 1006/4/3
f 1009/4/3 1007/4/3 1008/4/3
f 1010/5/3 1009/5/3 1008/5/3
f 1011/5/3 1009/5/3 1010/5/3
f 1012/4/3 1011/4/3 1010/4/3
f 1013/4/3 1011/4/3 1012/4/3
f 1014/4/4 1015/4/4 1016/4/4
f 1016/4/4 1015/4/4 1017/4/4
f 1016/5/4 1017/5/4 1018/5/4
f 1018/5/4 1017/5/4 1019/5/4
f 1018/4/4 1019/4/4 1020/4/4
f 1018/4/4 1020/4/4 1021/4/4
f 1021/4/4 1020/4/4 1022/4/4
f 1021/5/4 1022/5/4 1023/5/4
f 1023/5/4 1022/5/4 1024/5/4
f 1023/4/4 1024/4/4 1025/4/4
f 1025/4/4 1024/4/4 1026/4/4
f 1027/4/4 1028/4/4 1029/4/4
f 1027/4/4 1029/4/4 1030/4/4
f 1030/4/4 1029/4/4 1031/4/4
f 1030/5/4 1031/5/4 1032/5/4
f 1032/5/4 1031/5/4 1033/5/4
f 1032/4/4 1033/4/4 1034/4/4
f 1034/4/4 1033/4/4 1035/4/4
f 1036/6/4 1037/6/4 1038/6/4
f 1038/6/4 1037/6/4 1039/6/4
f 1039/4/4 1040/4/4 1041/4/4
f 1041/4/4 1040/4/4 1042/4/4
f 1043/4/4 1044/4/4 1045/4/4
f 1045/4/4 1044/4/4 1046/4/4
f 1047/4/4 1048/4/4 1049/4/4
f 1049/4/4 1048/4/4 1050/4/4
f 1050/4/4 1051/4/4 1052/4/4
f 1052/4/4 1051/4/4 1053/4/4
f 1054/4/4 1055/4/4 1056/4/4
f 1056/4/4 1055/4/4 1057/4/4
f 1058/4/4 1059/4/4 1060/4/4
f 1060/4/4 1059/4/4 1061/4/4
f 1062/4/4 1063/4/4 1064/4/4
f 1064/4/4 1063/4/4 1065/4/4
f 1066/1/4 1067/1/4 1073/1/4
f 1067/1/4 1068/1/4 1073/1/4
f 1073/1/4 1068/1/4 1074/1/4
f 1069/1/4 1070/1/4 1075/1/4
f 1070/2/4 1071/2/4 1076/2/4
f 1075/1/4 1070/1/4 1076/1/4
f 1071/1/4 1072/1/4 1077/1/4
f 1076/2/4 1071/2/4 1077/2/4
f 1077/1/4 1072/1/4 1078/1/4
f 1079/1/4 1080/1/4 1084/1/4
f 1080/2/4 1081/2/4 1085/2/4
f 1084/1/4 1080/1/4 1085/1/4
f 1081/1/4 1082/1/4 1086/1/4
f 1085/2/4 1081/2/4 1086/2/4
f 1086/1/4 1082/1/4 1087/1/4
f 1087/1/4 1082/1/4 1088/1/4
f 1084/2/4 1085/2/4 1090/2/4
f 1085/2/4 1086/2/4 1090/2/4
f 1090/2/4 1086/2/4 1091/2/4
f 1088/1/4 1089/1/4 1092/1/4
f 1087/1/4 1088/1/4 1092/1/4
f 1092/1/4 1089/1/4 1093/1/4
f 1083/1/4 1084/1/4 1095/1/4
f 1084/2/4 1090/2/4 1096/2/4
f 1095/1/4 1084/1/4 1096/1/4
f 1090/1/4 1091/1/4 1097/1/4
f 1096/2/4 1090/2/4 1097/2/4
f 1097/1/4 1091/1/4 1098/1/4
f 1092/2/4 1093/2/4 1099/2/4
f 1093/1/4 1089/1/4 1100/1/4
f 1099/2/4 1093/2/4 1100/2/4
f 1100/1/4 1089/1/4 1101/1/4
f 1094/3/4 1095/3/4 1102/3/4
f 1094/3/4 1102/3/4 1103/3/4
f 1094/3/4 1103/3/4 1106/3/4
f 1106/3/4 1103/3/4 1107/3/4
f 1104/4/4 1105/4/4 1108/4/4
f 1108/4/4 1105/4/4 1109/4/4
f 1106/1/4 1107/1/4 1112/1/4
f 1112/1/4 1107/1/4 1113/1/4
f 1110/4/4 1111/4/4 1114/4/4
f 1114/4/4 1111/4/4 1115/4/4
f 1116/2/4 1117/2/4 1122/2/4
f 1117/1/4 1118/1/4 1122/1/4
f 1118/1/4 1119/1/4 1122/1/4
f 1122/1/4 1119/1/4 1123/1/4
f 1120/1/4 1121/1/4 1124/1/4
f 1124/1/4 1121/1/4 1125/1/4
f 1116/2/4 1122/2/4 1126/2/4
f 1122/2/4 1123/2/4 1126/2/4
f 1123/1/4 1119/1/4 1127/1/4
f 1126/2/4 1123/2/4 1127/2/4
f 1127/1/4 1119/1/4 1128/1/4
f 1129/4/4 1130/4/4 1133/4/4
f 1133/4/4 1130/4/4 1134/4/4
f 1131/2/4 1132/2/4 1135/2/4
f 1135/2/4 1132/2/4 1136/2/4
f 1135/1/4 1136/1/4 1137/1/4
f 1137/1/4 1136/1/4 1138/1/4
f 1141/4/4 1142/4/4 1143/4/4
f 1143/4/4 1142/4/4 1144/4/4
f 1139/1/4 1140/1/4 1153/1/4
f 1145/1/4 1146/1/4 1154/1/4
f 1146/1/4 1147/1/4 1154/1/4
f 1147/2/4 1148/2/4 1155/2/4
f 1154/1/4 1147/1/4 1155/1/4
f 1148/1/4 1149/1/4 1156/1/4
f 1155/2/4 1148/2/4 1156/2/4
f 1149/1/4 1150/1/4 1156/1/4
f 1150/2/4 1151/2/4 1157/2/4
f 1156/1/4 1150/1/4 1157/1/4
f 1151/1/4 1152/1/4 1158/1/4
f 1157/2/4 1151/2/4 1158/2/4
f 1152/1/4 1153/1/4 1158/1/4
f 1153/1/4 1140/1/4 1159/1/4
f 1158/1/4 1153/1/4 1159/1/4
f 1160/6/4 1161/6/4 1162/6/4
f 1162/6/4 1161/6/4 1163/6/4
f 1164/4/4 1165/4/4 1166/4/4
f 1166/4/4 1165/4/4 1167/4/4
f 1168/6/4 1169/6/4 1170/6/4
f 1170/6/4 1169/6/4 1171/6/4
f 1172/2/4 1173/2/4 1175/2/4
f 1173/1/4 1174/1/4 1176/1/4
f 1175/2/4 1173/2/4 1176/2/4
f 1176/1/4 1174/1/4 1177/1/4
f 1177/1/4 1174/1/4 1178/1/4
f 1175/1/4 1176/1/4 1179/1/4
f 1176/1/4 1177/1/4 1179/1/4
f 1179/1/4 1177/1/4 1180/1/4
f 1178/1/4 1174/1/4 1181/1/4
f 1181/1/4 1174/1/4 1182/1/4
f 1179/3/4 1180/3/4 1183/3/4
f 1183/3/4 1180/3/4 1184/3/4
f 1183/1/4 1184/1/4 1185/1/4
f 1185/1/4 1184/1/4 1186/1/4
f 1186/1/4 1184/1/4 1187/1/4
f 1187/1/4 1184/1/4 1188/1/4
f 1185/2/4 1186/2/4 1189/2/4
f 1186/1/4 1187/1/4 1190/1/4
f 1189/2/4 1186/2/4 1190/2/4
f 1187/2/4 1188/2/4 1191/2/4
f 1190/1/4 1187/1/4 1191/1/4
f 1191/2/4 1188/2/4 1192/2/4
f 1181/2/4 1182/2/4 1193/2/4
f 1182/1/4 1174/1/4 1194/1/4
f 1193/2/4 1182/2/4 1194/2/4
f 1194/1/4 1174/1/4 1195/1/4
f 1196/4/4 1197/4/4 1198/4/4
f 1198/4/4 1197/4/4 1199/4/4
f 1200/4/4 1201/4/4 1202/4/4
f 1202/4/4 1201/4/4 1203/4/4
f 1204/5/4 1205/5/4 1206/5/4
f 1206/5/4 1205/5/4 1207/5/4
f 1208/6/4 1209/6/4 1210/6/4
f 1210/6/4 1209/6/4 1211/6/4
f 1214/1/4 1215/1/4 1216/1/4
f 1216/1/4 1215/1/4 1217/1/4
f 1212/4/4 1213/4/4 1218/4/4
f 1218/4/4 1213/4/4 1219/4/4
f 1216/3/4 1217/3/4 1220/3/4
f 1217/1/4 1215/1/4 1221/1/4
f 1220/3/4 1217/3/4 1221/3/4
f 1216/3/4 1220/3/4 1222/3/4
f 1220/1/4 1221/1/4 1223/1/4
f 1222/3/4 1220/3/4 1223/3/4
f 1218/6/4 1219/6/4 1224/6/4
f 1224/6/4 1219/6/4 1225/6/4
f 1224/4/4 1225/4/4 1226/4/4
f 1222/1/4 1223/1/4 1227/1/4
f 1221/1/4 1215/1/4 1228/1/4
f 1227/1/4 1223/1/4 1228/1/4
f 1223/1/4 1221/1/4 1228/1/4
f 1226/4/4 1225/4/4 1229/4/4
f 1229/4/4 1225/4/4 1230/4/4
f 1231/4/4 1232/4/4 1233/4/4
f 1233/4/4 1232/4/4 1234/4/4
f 1235/4/4 1236/4/4 1237/4/4
f 1237/4/4 1236/4/4 1238/4/4
f 1239/4/4 1240/4/4 1241/4/4
f 1241/4/4 1240/4/4 1242/4/4
f 1242/5/4 1243/5/4 1244/5/4
f 1244/5/4 1243/5/4 1245/5/4
f 1246/4/4 1247/4/4 1248/4/4
f 1248/4/4 1247/4/4 1249/4/4
f 1250/4/4 1251/4/4 1252/4/4
f 1252/4/4 1251/4/4 1253/4/4
f 1253/4/4 1251/4/4 1254/4/4
f 1253/6/4 1254/6/4 1255/6/4
f 1255/6/4 1254/6/4 1256/6/4
f 1255/4/4 1256/4/4 1257/4/4
f 1257/4/4 1256/4/4 1258/4/4
f 1257/5/4 1258/5/4 1259/5/4
f 1259/5/4 1258/5/4 1260/5/4
f 1261/5/4 1262/5/4 1263/5/4
f 1263/5/4 1262/5/4 1264/5/4
f 1265/5/4 1266/5/4 1268/5/4
f 1268/5/4 1266/5/4 1269/5/4
f 1267/4/4 1268/4/4 1270/4/4
f 1270/4/4 1268/4/4 1271/4/4
f 1272/4/4 1273/4/4 1274/4/4
f 1274/4/4 1273/4/4 1275/4/4
f 1275/4/4 1276/4/4 1277/4/4
f 1277/4/4 1276/4/4 1278/4/4
f 1278/4/4 1279/4/4 1280/4/4
f 1280/4/4 1279/4/4 1281/4/4
f 1282/4/4 1283/4/4 1284/4/4
f 1284/4/4 1283/4/4 1285/4/4
f 1285/4/4 1283/4/4 1286/4/4
f 1285/5/4 1286/5/4 1287/5/4
f 1287/5/4 1286/5/4 1288/5/4
f 1288/5/4 1286/5/4 1289/5/4
f 1288/4/4 1289/4/4 1290/4/4
f 1290/4/4 1289/4/4 1291/4/4
f 1291/4/4 1289/4/4 1292/4/4
f 1293/4/4 1294/4/4 1296/4/4
f 1296/4/4 1294/4/4 1297/4/4
f 1295/5/4 1296/5/4 1299/5/4
f 1299/5/4 1296/5/4 1300/5/4
f 1298/4/4 1299/4/4 1301/4/4
f 1301/4/4 1299/4/4 1302/4/4
f 1303/4/4 1304/4/4 1305/4/4
f 1305/4/4 1304/4/4 1306/4/4
f 1306/4/4 1307/4/4 1308/4/4
f 1308/4/4 1307/4/4 1309/4/4
f 1309/6/4 1310/6/4 1311/6/4
f 1311/6/4 1310/6/4 1312/6/4
f 1311/4/4 1312/4/4 1313/4/4
f 1313/4/4 1312/4/4 1314/4/4
f 1313/5/4 1314/5/4 1315/5/4
f 1315/5/4 1314/5/4 1316/5/4
f 1315/4/4 1316/4/4 1317/4/4
f 1317/4/4 1316/4/4 1318/4/4
f 1317/6/4 1318/6/4 1319/6/4
f 1319/6/4 1318/6/4 1320/6/4
f 1319/4/4 1320/4/4 1322/4/4
f 1322/4/4 1320/4/4 1323/4/4
f 1321/4/4 1322/4/4 1325/4/4
f 1325/4/4 1322/4/4 1326/4/4
f 1324/4/4 1325/4/4 1327/4/4
f 1327/4/4 1325/4/4 1328/4/4
f 1329/4/4 1330/4/4 1331/4/4
f 1329/4/4 1331/4/4 1333/4/4
f 1331/6/4 1332/6/4 1333/6/4
f 1333/6/4 1332/6/4 1334/6/4
f 1329/4/4 1333/4/4 1335/4/4
f 1333/4/4 1334/4/4 1335/4/4
f 1335/4/4 1334/4/4 1336/4/4
f 1329/4/4 1335/4/4 1337/4/4
f 1335/5/4 1336/5/4 1337/5/4
f 1337/5/4 1336/5/4 1338/5/4
f 1329/4/4 1337/4/4 1339/4/4
f 1337/4/4 1338/4/4 1339/4/4
f 1339/4/4 1338/4/4 1340/4/4
f 1339/5/4 1340/5/4 1341/5/4
f 1340/4/4 1338/4/4 1341/4/4
f 1341/4/4 1338/4/4 1342/4/4
f 1339/5/4 1341/5/4 1343/5/4
f 1341/6/4 1342/6/4 1343/6/4
f 1343/6/4 1342/6/4 1344/6/4
f 1339/5/4 1343/5/4 1345/5/4
f 1343/4/4 1344/4/4 1345/4/4
f 1345/4/4 1344/4/4 1346/4/4
f 1339/5/4 1345/5/4 1347/5/4
f 1347/5/4 1345/5/4 1348/5/4
f 1353/1/5 1350/1/5 1349/1/5
f 1353/3/5 1351/3/5 1350/3/5
f 1354/3/5 1351/3/5 1353/3/5
f 1355/1/5 1352/1/5 1351/1/5
f 1355/3/5 1351/3/5 1354/3/5
f 1356/1/5 1352/1/5 1355/1/5
f 1357/1/5 1354/1/5 1353/1/5
f 1357/1/5 1353/1/5 1349/1/5
f 1358/3/5 1356/3/5 1355/3/5
f 1358/1/5 1354/1/5 1357/1/5
f 1358/3/5 1355/3/5 1354/3/5
f 1359/3/5 1358/3/5 1357/3/5
f 1359/3/5 1356/3/5 1358/3/5
f 1360/3/5 1356/3/5 1359/3/5
f 1361/3/5 1359/3/5 1357/3/5
f 1362/1/5 1360/1/5 1359/1/5
f 1362/3/5 1359/3/5 1361/3/5
f 1363/1/5 1360/1/5 1362/1/5
f 1369/1/5 1365/1/5 1364/1/5
f 1370/3/5 1366/3/5 1365/3/5
f 1370/1/5 1365/1/5 1369/1/5
f 1371/3/5 1366/3/5 1370/3/5
f 1372/1/5 1367/1/5 1366/1/5
f 1372/3/5 1366/3/5 1371/3/5
f 1373/1/5 1367/1/5 1372/1/5
f 1375/2/5 1369/2/5 1368/2/5
f 1376/1/5 1371/1/5 1370/1/5
f 1376/1/5 1370/1/5 1369/1/5
f 1376/2/5 1369/2/5 1375/2/5
f 1377/1/5 1371/1/5 1376/1/5
f 1378/3/5 1372/3/5 1371/3/5
f 1378/1/5 1371/1/5 1377/1/5
f 1378/3/5 1373/3/5 1372/3/5
f 1379/3/5 1373/3/5 1378/3/5
f 1380/1/5 1367/1/5 1373/1/5
f 1380/3/5 1373/3/5 1379/3/5
f 1381/1/5 1367/1/5 1380/1/5
f 1383/1/5 1382/1/5 1381/1/5
f 1384/1/5 1375/1/5 1374/1/5
f 1384/1/5 1376/1/5 1375/1/5
f 1385/1/5 1376/1/5 1384/1/5
f 1386/1/5 1382/1/5 1383/1/5
f 1387/1/5 1382/1/5 1386/1/5
f 1388/3/5 1387/3/5 1386/3/5
f 1389/3/5 1387/3/5 1388/3/5
f 1390/3/5 1385/3/5 1384/3/5
f 1391/3/5 1385/3/5 1390/3/5
f 1392/1/5 1391/1/5 1390/1/5
f 1393/1/5 1391/1/5 1392/1/5
f 1397/1/5 1389/1/5 1388/1/5
f 1398/1/5 1397/1/5 1396/1/5
f 1399/1/5 1389/1/5 1397/1/5
f 1399/1/5 1397/1/5 1398/1/5
f 1400/1/5 1389/1/5 1399/1/5
f 1401/2/5 1394/2/5 1393/2/5
f 1402/1/5 1395/1/5 1394/1/5
f 1402/2/5 1394/2/5 1401/2/5
f 1403/3/5 1396/3/5 1395/3/5
f 1403/1/5 1395/1/5 1402/1/5
f 1404/1/5 1398/1/5 1396/1/5
f 1404/3/5 1396/3/5 1403/3/5
f 1405/2/5 1399/2/5 1398/2/5
f 1405/1/5 1398/1/5 1404/1/5
f 1406/2/5 1399/2/5 1405/2/5
f 1410/1/5 1408/1/5 1407/1/5
f 1411/3/5 1409/3/5 1408/3/5
f 1411/1/5 1408/1/5 1410/1/5
f 1412/3/5 1409/3/5 1411/3/5
f 1415/1/5 1414/1/5 1413/1/5
f 1416/1/5 1414/1/5 1415/1/5
f 1417/3/5 1416/3/5 1415/3/5
f 1418/3/5 1416/3/5 1417/3/5
f 1419/1/5 1418/1/5 1417/1/5
f 1420/1/5 1418/1/5 1419/1/5
f 1423/1/5 1422/1/5 1421/1/5
f 1424/1/5 1422/1/5 1423/1/5
f 1425/3/5 1424/3/5 1423/3/5
f 1426/3/5 1424/3/5 1425/3/5
f 1427/1/5 1426/1/5 1425/1/5
f 1428/1/5 1426/1/5 1427/1/5
f 1432/2/5 1430/2/5 1429/2/5
f 1433/1/5 1431/1/5 1430/1/5
f 1433/2/5 1430/2/5 1432/2/5
f 1434/1/5 1431/1/5 1433/1/5
f 1440/1/5 1436/1/5 1435/1/5
f 1441/3/5 1437/3/5 1436/3/5
f 1441/1/5 1436/1/5 1440/1/5
f 1442/1/5 1439/1/5 1438/1/5
f 1442/3/5 1437/3/5 1441/3/5
f 1442/1/5 1438/1/5 1437/1/5
f 1443/1/5 1439/1/5 1442/1/5
f 1446/1/5 1445/1/5 1444/1/5
f 1447/1/5 1445/1/5 1446/1/5
f 1448/3/5 1447/3/5 1446/3/5
f 1449/3/5 1447/3/5 1448/3/5
f 1451/1/5 1449/1/5 1448/1/5
f 1452/1/5 1449/1/5 1451/1/5
f 1453/2/5 1451/2/5 1450/2/5
f 1453/2/5 1452/2/5 1451/2/5
f 1454/2/5 1452/2/5 1453/2/5
f 1462/4/5 1456/4/5 1455/4/5
f 1463/5/5 1457/5/5 1456/5/5
f 1463/4/5 1456/4/5 1462/4/5
f 1464/4/5 1458/4/5 1457/4/5
f 1464/5/5 1457/5/5 1463/5/5
f 1465/4/5 1458/4/5 1464/4/5
f 1466/5/5 1459/5/5 1458/5/5
f 1466/4/5 1458/4/5 1465/4/5
f 1467/4/5 1460/4/5 1459/4/5
f 1467/5/5 1459/5/5 1466/5/5
f 1468/4/5 1460/4/5 1467/4/5
f 1469/4/5 1460/4/5 1468/4/5
f 1472/4/5 1462/4/5 1461/4/5
f 1472/4/5 1463/4/5 1462/4/5
f 1472/4/5 1464/4/5 1463/4/5
f 1473/4/5 1464/4/5 1472/4/5
f 1474/5/5 1465/5/5 1464/5/5
f 1474/4/5 1464/4/5 1473/4/5
f 1475/4/5 1466/4/5 1465/4/5
f 1475/5/5 1465/5/5 1474/5/5
f 1475/4/5 1467/4/5 1466/4/5
f 1476/5/5 1468/5/5 1467/5/5
f 1476/4/5 1467/4/5 1475/4/5
f 1477/4/5 1470/4/5 1469/4/5
f 1477/5/5 1468/5/5 1476/5/5
f 1477/4/5 1469/4/5 1468/4/5
f 1478/4/5 1470/4/5 1477/4/5
f 1479/4/5 1470/4/5 1478/4/5
f 1481/4/5 1480/4/5 1479/4/5
f 1481/4/5 1479/4/5 1478/4/5
f 1482/4/5 1480/4/5 1481/4/5
f 1483/4/5 1472/4/5 1471/4/5
f 1483/4/5 1473/4/5 1472/4/5
f 1484/4/5 1473/4/5 1483/4/5
f 1485/5/5 1482/5/5 1481/5/5
f 1486/5/5 1482/5/5 1485/5/5
f 1487/4/5 1483/4/5 1471/4/5
f 1488/5/5 1484/5/5 1483/5/5
f 1488/4/5 1483/4/5 1487/4/5
f 1489/5/5 1488/5/5 1487/5/5
f 1489/5/5 1484/5/5 1488/5/5
f 1490/5/5 1484/5/5 1489/5/5
f 1491/5/5 1482/5/5 1486/5/5
f 1491/4/5 1486/4/5 1485/4/5
f 1492/5/5 1482/5/5 1491/5/5
f 1493/4/5 1490/4/5 1489/4/5
f 1493/5/5 1489/5/5 1487/5/5
f 1494/4/5 1490/4/5 1493/4/5
f 1495/5/5 1493/5/5 1487/5/5
f 1495/5/5 1494/5/5 1493/5/5
f 1496/5/5 1494/5/5 1495/5/5
f 1497/4/5 1492/4/5 1491/4/5
f 1497/4/5 1491/4/5 1485/4/5
f 1498/4/5 1492/4/5 1497/4/5
f 1499/5/5 1494/5/5 1496/5/5
f 1499/4/5 1496/4/5 1495/4/5
f 1500/5/5 1494/5/5 1499/5/5
f 1503/5/5 1498/5/5 1497/5/5
f 1504/4/5 1492/4/5 1498/4/5
f 1504/5/5 1498/5/5 1503/5/5
f 1505/4/5 1499/4/5 1495/4/5
f 1505/4/5 1500/4/5 1499/4/5
f 1506/4/5 1500/4/5 1505/4/5
f 1507/1/5 1502/1/5 1501/1/5
f 1508/1/5 1502/1/5 1507/1/5
f 1509/5/5 1506/5/5 1505/5/5
f 1509/4/5 1505/4/5 1495/4/5
f 1510/5/5 1506/5/5 1509/5/5
f 1511/4/5 1509/4/5 1495/4/5
f 1511/4/5 1510/4/5 1509/4/5
f 1512/4/5 1510/4/5 1511/4/5
f 1513/4/5 1510/4/5 1512/4/5
f 1518/4/5 1504/4/5 1503/4/5
f 1519/4/5 1492/4/5 1504/4/5
f 1519/4/5 1504/4/5 1518/4/5
f 1520/4/5 1492/4/5 1519/4/5
f 1521/4/5 1513/4/5 1512/4/5
f 1521/4/5 1514/4/5 1513/4/5
f 1522/4/5 1514/4/5 1521/4/5
f 1523/5/5 1515/5/5 1514/5/5
f 1523/4/5 1514/4/5 1522/4/5
f 1524/4/5 1516/4/5 1515/4/5
f 1524/5/5 1515/5/5 1523/5/5
f 1525/4/5 1516/4/5 1524/4/5
f 1526/5/5 1517/5/5 1516/5/5
f 1526/4/5 1516/4/5 1525/4/5
f 1527/4/5 1518/4/5 1517/4/5
f 1527/5/5 1517/5/5 1526/5/5
f 1527/4/5 1519/4/5 1518/4/5
f 1528/4/5 1519/4/5 1527/4/5
f 1529/4/5 1519/4/5 1528/4/5
f 1530/4/5 1525/4/5 1524/4/5
f 1530/4/5 1523/4/5 1522/4/5
f 1530/4/5 1524/4/5 1523/4/5
f 1531/5/5 1526/5/5 1525/5/5
f 1531/4/5 1525/4/5 1530/4/5
f 1531/5/5 1528/5/5 1527/5/5
f 1531/5/5 1527/5/5 1526/5/5
f 1532/5/5 1528/5/5 1531/5/5
f 1540/4/5 1534/4/5 1533/4/5
f 1540/4/5 1535/4/5 1534/4/5
f 1540/4/5 1536/4/5 1535/4/5
f 1541/5/5 1537/5/5 1536/5/5
f 1541/4/5 1536/4/5 1540/4/5
f 1542/4/5 1539/4/5 1538/4/5
f 1542/5/5 1537/5/5 1541/5/5
f 1542/4/5 1538/4/5 1537/4/5
f 1543/4/5 1539/4/5 1542/4/5
f 1544/4/5 1539/4/5 1543/4/5
f 1545/4/5 1540/4/5 1533/4/5
f 1548/4/5 1544/4/5 1543/4/5
f 1549/4/5 1548/4/5 1543/4/5
f 1550/4/5 1548/4/5 1549/4/5
f 1551/4/5 1540/4/5 1545/4/5
f 1552/1/5 1547/1/5 1546/1/5
f 1553/1/5 1547/1/5 1552/1/5
f 1554/4/5 1540/4/5 1551/4/5
f 1555/5/5 1550/5/5 1549/5/5
f 1556/4/5 1540/4/5 1554/4/5
f 1557/5/5 1555/5/5 1549/5/5
f 1558/5/5 1555/5/5 1557/5/5
f 1559/4/5 1558/4/5 1557/4/5
f 1560/4/5 1540/4/5 1556/4/5
f 1561/4/5 1540/4/5 1560/4/5
f 1562/4/5 1540/4/5 1561/4/5
f 1563/5/5 1562/5/5 1561/5/5
f 1564/5/5 1562/5/5 1563/5/5
f 1565/4/5 1559/4/5 1557/4/5
f 1566/4/5 1559/4/5 1565/4/5
f 1567/4/5 1564/4/5 1563/4/5
f 1570/5/5 1566/5/5 1565/5/5
f 1571/5/5 1566/5/5 1570/5/5
f 1572/4/5 1567/4/5 1563/4/5
f 1572/4/5 1568/4/5 1567/4/5
f 1573/4/5 1568/4/5 1572/4/5
f 1574/5/5 1569/5/5 1568/5/5
f 1574/4/5 1568/4/5 1573/4/5
f 1575/5/5 1569/5/5 1574/5/5
f 1576/4/5 1571/4/5 1570/4/5
f 1576/5/5 1569/5/5 1575/5/5
f 1576/4/5 1570/4/5 1569/4/5
f 1577/4/5 1571/4/5 1576/4/5
f 1583/4/5 1579/4/5 1578/4/5
f 1584/4/5 1579/4/5 1583/4/5
f 1585/5/5 1580/5/5 1579/5/5
f 1585/4/5 1579/4/5 1584/4/5
f 1585/5/5 1581/5/5 1580/5/5
f 1586/4/5 1582/4/5 1581/4/5
f 1586/5/5 1581/5/5 1585/5/5
f 1587/5/5 1584/5/5 1583/5/5
f 1588/4/5 1585/4/5 1584/4/5
f 1588/5/5 1584/5/5 1587/5/5
f 1588/4/5 1586/4/5 1585/4/5
f 1589/4/5 1586/4/5 1588/4/5
f 1590/4/5 1586/4/5 1589/4/5
f 1591/4/5 1582/4/5 1586/4/5
f 1591/4/5 1586/4/5 1590/4/5
f 1592/4/5 1582/4/5 1591/4/5
f 1593/4/5 1588/4/5 1587/4/5
f 1593/4/5 1589/4/5 1588/4/5
f 1594/4/5 1589/4/5 1593/4/5
f 1595/5/5 1592/5/5 1591/5/5
f 1596/5/5 1587/5/5 1583/5/5
f 1596/4/5 1593/4/5 1587/4/5
f 1597/4/5 1593/4/5 1596/4/5
f 1598/4/5 1593/4/5 1597/4/5
f 1599/5/5 1595/5/5 1591/5/5
f 1599/4/5 1591/4/5 1590/4/5
f 1600/5/5 1595/5/5 1599/5/5
f 1601/5/5 1597/5/5 1596/5/5
f 1601/5/5 1596/5/5 1583/5/5
f 1602/5/5 1597/5/5 1601/5/5
f 1603/4/5 1600/4/5 1599/4/5
f 1604/4/5 1599/4/5 1590/4/5
f 1604/4/5 1603/4/5 1599/4/5
f 1605/4/5 1603/4/5 1604/4/5
f 1606/4/5 1602/4/5 1601/4/5
f 1608/4/5 1603/4/5 1605/4/5
f 1608/5/5 1605/5/5 1604/5/5
f 1609/4/5 1603/4/5 1608/4/5
f 1610/4/5 1607/4/5 1606/4/5
f 1610/4/5 1606/4/5 1601/4/5
f 1611/4/5 1607/4/5 1610/4/5
f 1612/4/5 1607/4/5 1611/4/5
f 1613/4/5 1604/4/5 1590/4/5
f 1614/5/5 1609/5/5 1608/5/5
f 1614/5/5 1608/5/5 1604/5/5
f 1614/4/5 1604/4/5 1613/4/5
f 1615/5/5 1609/5/5 1614/5/5
f 1616/5/5 1611/5/5 1610/5/5
f 1617/4/5 1612/4/5 1611/4/5
f 1617/5/5 1611/5/5 1616/5/5
f 1617/4/5 1613/4/5 1612/4/5
f 1617/4/5 1615/4/5 1614/4/5
f 1617/4/5 1614/4/5 1613/4/5
f 1618/4/5 1615/4/5 1617/4/5
f 1619/4/5 1615/4/5 1618/4/5
f 1620/5/5 1609/5/5 1615/5/5
f 1621/4/5 1617/4/5 1616/4/5
f 1621/4/5 1618/4/5 1617/4/5
f 1621/5/5 1619/5/5 1618/5/5
f 1622/4/5 1615/4/5 1619/4/5
f 1622/5/5 1619/5/5 1621/5/5
f 1623/4/5 1615/4/5 1622/4/5
f 1624/5/5 1620/5/5 1615/5/5
f 1624/4/5 1615/4/5 1623/4/5
f 1625/5/5 1620/5/5 1624/5/5
f 1626/4/5 1621/4/5 1616/4/5
f 1626/4/5 1622/4/5 1621/4/5
f 1627/5/5 1623/5/5 1622/5/5
f 1627/4/5 1622/4/5 1626/4/5
f 1628/5/5 1623/5/5 1627/5/5
f 1629/4/5 1625/4/5 1624/4/5
f 1629/5/5 1623/5/5 1628/5/5
f 1629/4/5 1624/4/5 1623/4/5
f 1630/4/5 1625/4/5 1629/4/5
f 1631/4/5 1625/4/5 1630/4/5
f 1632/1/6 1633/1/6 1635/1/6
f 1634/1/6 1635/1/6 1639/1/6
f 1635/1/6 1633/1/6 1640/1/6
f 1639/1/6 1635/1/6 1640/1/6
f 1636/2/6 1637/2/6 1641/2/6
f 1637/1/6 1638/1/6 1642/1/6
f 1641/2/6 1637/2/6 1642/2/6
f 1642/1/6 1638/1/6 1643/1/6
f 1644/1/6 1645/1/6 1647/1/6
f 1645/2/6 1646/2/6 1648/2/6
f 1647/1/6 1645/1/6 1648/1/6
f 1648/2/6 1646/2/6 1649/2/6
f 1649/2/6 1646/2/6 1650/2/6
f 1651/1/6 1652/1/6 1654/1/6
f 1652/1/6 1653/1/6 1654/1/6
f 1654/1/6 1653/1/6 1655/1/6
f 1656/1/6 1657/1/6 1658/1/6
f 1658/1/6 1657/1/6 1659/1/6
f 1660/4/6 1661/4/6 1665/4/6
f 1665/4/6 1661/4/6 1666/4/6
f 1662/4/6 1663/4/6 1667/4/6
f 1667/4/6 1663/4/6 1668/4/6
f 1664/4/6 1665/4/6 1671/4/6
f 1671/4/6 1665/4/6 1672/4/6
f 1668/4/6 1669/4/6 1673/4/6
f 1673/4/6 1669/4/6 1674/4/6
f 1670/4/6 1671/4/6 1676/4/6
f 1676/4/6 1671/4/6 1677/4/6
f 1674/4/6 1675/4/6 1678/4/6
f 1678/4/6 1675/4/6 1679/4/6
f 1680/1/6 1681/1/6 1682/1/6
f 1682/1/6 1681/1/6 1683/1/6
f 1684/1/6 1685/1/6 1686/1/6
f 1686/1/6 1685/1/6 1687/1/6
f 1688/4/6 1689/4/6 1692/4/6
f 1692/4/6 1689/4/6 1693/4/6
f 1690/4/6 1691/4/6 1696/4/6
f 1696/4/6 1691/4/6 1697/4/6
f 1693/4/6 1694/4/6 1698/4/6
f 1698/4/6 1694/4/6 1699/4/6
f 1695/4/6 1696/4/6 1702/4/6
f 1702/4/6 1696/4/6 1703/4/6
f 1699/4/6 1700/4/6 1704/4/6
f 1704/4/6 1700/4/6 1705/4/6
f 1701/5/6 1702/5/6 1706/5/6
f 1706/5/6 1702/5/6 1707/5/6
f 1708/4/6 1709/4/6 1715/4/6
f 1709/5/6 1710/5/6 1716/5/6
f 1715/4/6 1709/4/6 1716/4/6
f 1710/4/6 1711/4/6 1717/4/6
f 1716/5/6 1710/5/6 1717/5/6
f 1711/6/6 1712/6/6 1718/6/6
f 1717/4/6 1711/4/6 1718/4/6
f 1712/4/6 1713/4/6 1719/4/6
f 1718/6/6 1712/6/6 1719/6/6
f 1719/4/6 1713/4/6 1720/4/6
f 1720/4/6 1713/4/6 1721/4/6
f 1721/4/6 1713/4/6 1722/4/6
f 1722/4/6 1713/4/6 1723/4/6
f 1714/6/6 1715/6/6 1726/6/6
f 1726/6/6 1715/6/6 1727/6/6
f 1723/4/6 1724/4/6 1728/4/6
f 1728/4/6 1724/4/6 1729/4/6
f 1725/6/6 1726/6/6 1732/6/6
f 1732/6/6 1726/6/6 1733/6/6
f 1729/4/6 1730/4/6 1734/4/6
f 1734/4/6 1730/4/6 1735/4/6
f 1731/4/6 1732/4/6 1737/4/6
f 1735/4/6 1736/4/6 1738/4/6
f 1731/4/6 1737/4/6 1739/4/6
f 1731/4/6 1739/4/6 1740/4/6
f 1740/4/6 1739/4/6 1741/4/6
f 1738/4/6 1736/4/6 1742/4/6
f 1740/5/6 1741/5/6 1743/5/6
f 1743/5/6 1741/5/6 1744/5/6
f 1742/4/6 1736/4/6 1745/4/6
f 1745/4/6 1736/4/6 1746/4/6
f 1746/4/6 1736/4/6 1747/4/6
f 1746/5/6 1747/5/6 1748/5/6
f 1748/5/6 1747/5/6 1749/5/6
f 1743/4/6 1744/4/6 1750/4/6
f 1750/4/6 1744/4/6 1751/4/6
f 1748/4/6 1749/4/6 1752/4/6
f 1752/4/6 1749/4/6 1753/4/6
f 1752/6/6 1753/6/6 1754/6/6
f 1754/6/6 1753/6/6 1755/6/6
f 1750/6/6 1751/6/6 1756/6/6
f 1756/6/6 1751/6/6 1757/6/6
f 1754/4/6 1755/4/6 1758/4/6
f 1756/4/6 1757/4/6 1759/4/6
f 1758/4/6 1755/4/6 1760/4/6
f 1756/4/6 1759/4/6 1761/4/6
f 1761/4/6 1759/4/6 1762/4/6
f 1760/4/6 1755/4/6 1765/4/6
f 1765/4/6 1755/4/6 1766/4/6
f 1762/4/6 1763/4/6 1767/4/6
f 1767/4/6 1763/4/6 1768/4/6
f 1764/5/6 1765/5/6 1771/5/6
f 1771/5/6 1765/5/6 1772/5/6
f 1768/4/6 1769/4/6 1773/4/6
f 1773/4/6 1769/4/6 1774/4/6
f 1770/4/6 1771/4/6 1780/4/6
f 1780/4/6 1771/4/6 1781/4/6
f 1774/6/6 1775/6/6 1782/6/6
f 1775/4/6 1776/4/6 1783/4/6
f 1782/6/6 1775/6/6 1783/6/6
f 1776/5/6 1777/5/6 1784/5/6
f 1783/4/6 1776/4/6 1784/4/6
f 1777/4/6 1778/4/6 1785/4/6
f 1784/5/6 1777/5/6 1785/5/6
f 1778/6/6 1779/6/6 1786/6/6
f 1785/4/6 1778/4/6 1786/4/6
f 1779/4/6 1780/4/6 1787/4/6
f 1786/6/6 1779/6/6 1787/6/6
f 1787/4/6 1780/4/6 1788/4/6
f 1789/4/6 1790/4/6 1795/4/6
f 1795/4/6 1790/4/6 1796/4/6
f 1796/4/6 1790/4/6 1797/4/6
f 1797/4/6 1790/4/6 1798/4/6
f 1790/6/6 1791/6/6 1799/6/6
f 1798/4/6 1790/4/6 1799/4/6
f 1791/4/6 1792/4/6 1800/4/6
f 1799/6/6 1791/6/6 1800/6/6
f 1792/5/6 1793/5/6 1801/5/6
f 1800/4/6 1792/4/6 1801/4/6
f 1801/5/6 1793/5/6 1802/5/6
f 1794/6/6 1795/6/6 1805/6/6
f 1795/4/6 1796/4/6 1806/4/6
f 1805/6/6 1795/6/6 1806/6/6
f 1806/4/6 1796/4/6 1807/4/6
f 1802/4/6 1803/4/6 1808/4/6
f 1808/4/6 1803/4/6 1809/4/6
f 1804/6/6 1805/6/6 1811/6/6
f 1805/4/6 1806/4/6 1812/4/6
f 1811/6/6 1805/6/6 1812/6/6
f 1812/4/6 1806/4/6 1813/4/6
f 1811/4/6 1812/4/6 1814/4/6
f 1809/4/6 1810/4/6 1815/4/6
f 1815/4/6 1810/4/6 1816/4/6
f 1811/4/6 1814/4/6 1817/4/6
f 1817/4/6 1814/4/6 1818/4/6
f 1817/5/6 1818/5/6 1819/5/6
f 1815/6/6 1816/6/6 1820/6/6
f 1820/6/6 1816/6/6 1821/6/6
f 1817/5/6 1819/5/6 1822/5/6
f 1822/5/6 1819/5/6 1823/5/6
f 1820/4/6 1821/4/6 1824/4/6
f 1824/4/6 1821/4/6 1825/4/6
f 1824/5/6 1825/5/6 1826/5/6
f 1826/5/6 1825/5/6 1827/5/6
f 1827/5/6 1825/5/6 1828/5/6
f 1822/4/6 1823/4/6 1829/4/6
f 1829/4/6 1823/4/6 1830/4/6
f 1829/6/6 1830/6/6 1831/6/6
f 1829/6/6 1831/6/6 1832/6/6
f 1832/6/6 1831/6/6 1833/6/6
f 1827/6/6 1828/6/6 1834/6/6
f 1834/6/6 1828/6/6 1835/6/6
f 1832/4/6 1833/4/6 1836/4/6
f 1836/4/6 1833/4/6 1837/4/6
f 1834/4/6 1835/4/6 1840/4/6
f 1840/4/6 1835/4/6 1841/4/6
f 1837/5/6 1838/5/6 1842/5/6
f 1836/5/6 1837/5/6 1842/5/6
f 1842/5/6 1838/5/6 1843/5/6
f 1843/5/6 1838/5/6 1844/5/6
f 1840/5/6 1841/5/6 1847/5/6
f 1839/5/6 1840/5/6 1847/5/6
f 1847/5/6 1841/5/6 1848/5/6
f 1848/5/6 1841/5/6 1849/5/6
f 1844/4/6 1845/4/6 1850/4/6
f 1843/4/6 1844/4/6 1850/4/6
f 1850/4/6 1845/4/6 1851/4/6
f 1851/4/6 1845/4/6 1852/4/6
f 1847/4/6 1848/4/6 1858/4/6
f 1846/4/6 1847/4/6 1858/4/6
f 1858/4/6 1848/4/6 1859/4/6
f 1859/4/6 1848/4/6 1860/4/6
f 1851/6/6 1852/6/6 1861/6/6
f 1852/6/6 1853/6/6 1861/6/6
f 1853/4/6 1854/4/6 1862/4/6
f 1861/6/6 1853/6/6 1862/6/6
f 1854/4/6 1855/4/6 1862/4/6
f 1855/5/6 1856/5/6 1863/5/6
f 1862/4/6 1855/4/6 1863/4/6
f 1856/4/6 1857/4/6 1864/4/6
f 1863/5/6 1856/5/6 1864/5/6
f 1857/6/6 1858/6/6 1865/6/6
f 1864/4/6 1857/4/6 1865/4/6
f 1858/4/6 1859/4/6 1866/4/6
f 1865/6/6 1858/6/6 1866/6/6
f 1866/4/6 1859/4/6 1867/4/6
f 1868/4/6 1869/4/6 1875/4/6
f 1869/5/6 1870/5/6 1876/5/6
f 1875/4/6 1869/4/6 1876/4/6
f 1876/5/6 1870/5/6 1877/5/6
f 1877/5/6 1870/5/6 1878/5/6
f 1870/4/6 1871/4/6 1879/4/6
f 1878/5/6 1870/5/6 1879/5/6
f 1871/6/6 1872/6/6 1880/6/6
f 1879/4/6 1871/4/6 1880/4/6
f 1880/6/6 1872/6/6 1881/6/6
f 1872/5/6 1873/5/6 1882/5/6
f 1881/6/6 1872/6/6 1882/6/6
f 1882/5/6 1873/5/6 1883/5/6
f 1883/5/6 1873/5/6 1884/5/6
f 1874/4/6 1875/4/6 1887/4/6
f 1875/4/6 1876/4/6 1887/4/6
f 1887/4/6 1876/4/6 1888/4/6
f 1888/4/6 1876/4/6 1889/4/6
f 1884/4/6 1885/4/6 1890/4/6
f 1883/4/6 1884/4/6 1890/4/6
f 1890/4/6 1885/4/6 1891/4/6
f 1887/4/6 1888/4/6 1892/4/6
f 1886/4/6 1887/4/6 1892/4/6
f 1892/4/6 1888/4/6 1893/4/6
f 1893/4/6 1888/4/6 1894/4/6
f 1891/4/6 1885/4/6 1895/4/6
f 1895/4/6 1885/4/6 1896/4/6
f 1892/5/6 1893/5/6 1897/5/6
f 1897/5/6 1893/5/6 1898/5/6
f 1895/6/6 1896/6/6 1899/6/6
f 1899/6/6 1896/6/6 1900/6/6
f 1899/4/6 1900/4/6 1901/4/6
f 1901/4/6 1900/4/6 1902/4/6
f 1897/4/6 1898/4/6 1903/4/6
f 1901/5/6 1902/5/6 1904/5/6
f 1904/5/6 1902/5/6 1905/5/6
f 1897/4/6 1903/4/6 1906/4/6
f 1904/4/6 1905/4/6 1907/4/6
f 1897/4/6 1906/4/6 1908/4/6
f 1908/4/6 1906/4/6 1909/4/6
f 1908/5/6 1909/5/6 1910/5/6
f 1908/5/6 1910/5/6 1911/5/6
f 1907/4/6 1905/4/6 1914/4/6
f 1908/5/6 1911/5/6 1915/5/6
f 1911/4/6 1912/4/6 1916/4/6
f 1915/5/6 1911/5/6 1916/5/6
f 1916/4/6 1912/4/6 1917/4/6
f 1913/4/6 1914/4/6 1920/4/6
f 1914/4/6 1905/4/6 1921/4/6
f 1920/4/6 1914/4/6 1921/4/6
f 1921/4/6 1905/4/6 1922/4/6
f 1917/4/6 1918/4/6 1923/4/6
f 1916/4/6 1917/4/6 1923/4/6
f 1923/4/6 1918/4/6 1924/4/6
f 1924/4/6 1918/4/6 1925/4/6
f 1919/5/6 1920/5/6 1930/5/6
f 1920/5/6 1921/5/6 1930/5/6
f 1930/5/6 1921/5/6 1931/5/6
f 1931/5/6 1921/5/6 1932/5/6
f 1924/4/6 1925/4/6 1933/4/6
f 1925/4/6 1926/4/6 1933/4/6
f 1926/5/6 1927/5/6 1934/5/6
f 1933/4/6 1926/4/6 1934/4/6
f 1928/4/6 1929/4/6 1935/4/6
f 1934/5/6 1927/5/6 1935/5/6
f 1927/4/6 1928/4/6 1935/4/6
f 1930/4/6 1931/4/6 1935/4/6
f 1929/4/6 1930/4/6 1935/4/6
f 1935/4/6 1931/4/6 1936/4/6
f 1937/4/6 1938/4/6 1943/4/6
f 1943/4/6 1938/4/6 1944/4/6
f 1938/6/6 1939/6/6 1945/6/6
f 1944/4/6 1938/4/6 1945/4/6
f 1939/4/6 1940/4/6 1946/4/6
f 1945/6/6 1939/6/6 1946/6/6
f 1946/4/6 1940/4/6 1947/4/6
f 1947/4/6 1940/4/6 1948/4/6
f 1948/4/6 1940/4/6 1949/4/6
f 1940/5/6 1941/5/6 1950/5/6
f 1949/4/6 1940/4/6 1950/4/6
f 1950/5/6 1941/5/6 1951/5/6
f 1951/5/6 1941/5/6 1952/5/6
f 1943/5/6 1944/5/6 1955/5/6
f 1942/5/6 1943/5/6 1955/5/6
f 1955/5/6 1944/5/6 1956/5/6
f 1956/5/6 1944/5/6 1957/5/6
f 1951/5/6 1952/5/6 1958/5/6
f 1952/4/6 1953/4/6 1959/4/6
f 1958/5/6 1952/5/6 1959/5/6
f 1954/4/6 1955/4/6 1960/4/6
f 1955/4/6 1956/4/6 1960/4/6
f 1960/4/6 1956/4/6 1961/4/6
f 1954/4/6 1960/4/6 1962/4/6
f 1954/4/6 1962/4/6 1963/4/6
f 1963/4/6 1962/4/6 1964/4/6
f 1959/4/6 1953/4/6 1965/4/6
f 1965/4/6 1953/4/6 1966/4/6
f 1966/4/6 1953/4/6 1967/4/6
f 1963/6/6 1964/6/6 1968/6/6
f 1968/6/6 1964/6/6 1969/6/6
f 1968/4/6 1969/4/6 1970/4/6
f 1970/4/6 1969/4/6 1971/4/6
f 1966/5/6 1967/5/6 1972/5/6
f 1972/5/6 1967/5/6 1973/5/6
f 1972/4/6 1973/4/6 1974/4/6
f 1970/5/6 1971/5/6 1975/5/6
f 1975/5/6 1971/5/6 1976/5/6
f 1974/4/6 1973/4/6 1979/4/6
f 1975/4/6 1976/4/6 1980/4/6
f 1976/6/6 1977/6/6 1981/6/6
f 1980/4/6 1976/4/6 1981/4/6
f 1981/6/6 1977/6/6 1982/6/6
f 1978/4/6 1979/4/6 1985/4/6
f 1979/4/6 1973/4/6 1986/4/6
f 1985/4/6 1979/4/6 1986/4/6
f 1986/4/6 1973/4/6 1987/4/6
f 1982/6/6 1983/6/6 1988/6/6
f 1981/6/6 1982/6/6 1988/6/6
f 1988/6/6 1983/6/6 1989/6/6
f 1989/6/6 1983/6/6 1990/6/6
f 1984/4/6 1985/4/6 1994/4/6
f 1985/4/6 1986/4/6 1994/4/6
f 1994/4/6 1986/4/6 1995/4/6
f 1995/4/6 1986/4/6 1996/4/6
f 1989/4/6 1990/4/6 1997/4/6
f 1990/4/6 1991/4/6 1997/4/6
f 1992/6/6 1993/6/6 1998/6/6
f 1997/4/6 1991/4/6 1998/4/6
f 1991/6/6 1992/6/6 1998/6/6
f 1993/4/6 1994/4/6 1999/4/6
f 1998/6/6 1993/6/6 1999/6/6
f 1994/5/6 1995/5/6 2000/5/6
f 1999/4/6 1994/4/6 2000/4/6
f 2000/5/6 1995/5/6 2001/5/6
f 2002/4/6 2003/4/6 2010/4/6
f 2003/6/6 2004/6/6 2011/6/6
f 2010/4/6 2003/4/6 2011/4/6
f 2004/4/6 2005/4/6 2012/4/6
f 2011/6/6 2004/6/6 2012/6/6
f 2005/5/6 2006/5/6 2013/5/6
f 2006/4/6 2007/4/6 2014/4/6
f 2013/5/6 2006/5/6 2014/5/6
f 2007/5/6 2008/5/6 2015/5/6
f 2014/4/6 2007/4/6 2015/4/6
f 2015/5/6 2008/5/6 2016/5/6
f 2009/5/6 2010/5/6 2019/5/6
f 2010/4/6 2011/4/6 2020/4/6
f 2011/4/6 2012/4/6 2020/4/6
f 2019/5/6 2010/5/6 2020/5/6
f 2020/4/6 2012/4/6 2021/4/6
f 2012/4/6 2005/4/6 2022/4/6
f 2021/4/6 2012/4/6 2022/4/6
f 2005/5/6 2013/5/6 2023/5/6
f 2022/4/6 2005/4/6 2023/4/6
f 2013/4/6 2014/4/6 2024/4/6
f 2023/5/6 2013/5/6 2024/5/6
f 2014/4/6 2015/4/6 2024/4/6
f 2015/4/6 2016/4/6 2024/4/6
f 2024/4/6 2016/4/6 2025/4/6
f 2025/4/6 2016/4/6 2026/4/6
f 2018/4/6 2019/4/6 2027/4/6
f 2020/4/6 2021/4/6 2027/4/6
f 2019/4/6 2020/4/6 2027/4/6
f 2027/4/6 2021/4/6 2028/4/6
f 2028/4/6 2021/4/6 2029/4/6
f 2029/4/6 2021/4/6 2030/4/6
f 2025/6/6 2026/6/6 2031/6/6
f 2031/6/6 2026/6/6 2032/6/6
f 2026/4/6 2016/4/6 2033/4/6
f 2032/6/6 2026/6/6 2033/6/6
f 2016/5/6 2017/5/6 2034/5/6
f 2033/4/6 2016/4/6 2034/4/6
f 2032/6/6 2033/6/6 2035/6/6
f 2033/5/6 2034/5/6 2036/5/6
f 2035/6/6 2033/6/6 2036/6/6
f 2034/5/6 2017/5/6 2037/5/6
f 2036/5/6 2034/5/6 2037/5/6
f 2027/6/6 2028/6/6 2038/6/6
f 2028/4/6 2029/4/6 2039/4/6
f 2038/6/6 2028/6/6 2039/6/6
f 2036/4/6 2037/4/6 2041/4/6
f 2041/4/6 2037/4/6 2042/4/6
f 2039/4/6 2029/4/6 2043/4/6
f 2038/4/6 2039/4/6 2043/4/6
f 2042/4/6 2037/4/6 2045/4/6
f 2041/6/6 2042/6/6 2045/6/6
f 2040/6/6 2041/6/6 2045/6/6
f 2045/4/6 2037/4/6 2046/4/6
f 2040/6/6 2045/6/6 2048/6/6
f 2045/6/6 2046/6/6 2048/6/6
f 2043/4/6 2044/4/6 2049/4/6
f 2038/4/6 2043/4/6 2049/4/6
f 2049/4/6 2044/4/6 2050/4/6
f 2050/4/6 2044/4/6 2051/4/6
f 2051/4/6 2044/4/6 2052/4/6
f 2047/4/6 2048/4/6 2053/4/6
f 2048/6/6 2046/6/6 2054/6/6
f 2053/4/6 2048/4/6 2054/4/6
f 2054/6/6 2046/6/6 2055/6/6
f 2055/6/6 2046/6/6 2056/6/6
f 2050/6/6 2051/6/6 2057/6/6
f 2051/4/6 2052/4/6 2058/4/6
f 2057/6/6 2051/6/6 2058/6/6
f 2052/4/6 2053/4/6 2058/4/6
f 2053/4/6 2054/4/6 2058/4/6
f 2054/4/6 2055/4/6 2058/4/6
f 2058/4/6 2055/4/6 2059/4/6
f 2059/4/6 2055/4/6 2060/4/6
f 2060/4/6 2055/4/6 2061/4/6
f 2061/4/6 2055/4/6 2062/4/6
f 2058/4/6 2059/4/6 2063/4/6
f 2059/6/6 2060/6/6 2064/6/6
f 2063/4/6 2059/4/6 2064/4/6
f 2060/4/6 2061/4/6 2065/4/6
f 2064/6/6 2060/6/6 2065/6/6
f 2065/4/6 2061/4/6 2066/4/6
f 2067/4/6 2068/4/6 2072/4/6
f 2068/5/6 2069/5/6 2073/5/6
f 2072/4/6 2068/4/6 2073/4/6
f 2073/5/6 2069/5/6 2074/5/6
f 2069/4/6 2070/4/6 2075/4/6
f 2074/5/6 2069/5/6 2075/5/6
f 2075/4/6 2070/4/6 2076/4/6
f 2071/4/6 2072/4/6 2078/4/6
f 2078/4/6 2072/4/6 2079/4/6
f 2075/4/6 2076/4/6 2080/4/6
f 2076/6/6 2077/6/6 2081/6/6
f 2080/4/6 2076/4/6 2081/4/6
f 2081/6/6 2077/6/6 2082/6/6
f 2082/4/6 2083/4/6 2084/4/6
f 2081/4/6 2082/4/6 2084/4/6
f 2084/4/6 2083/4/6 2085/4/6
f 2071/4/6 2078/4/6 2086/4/6
f 2085/4/6 2083/4/6 2088/4/6
f 2071/4/6 2086/4/6 2089/4/6
f 2087/4/6 2088/4/6 2091/4/6
f 2088/4/6 2083/4/6 2091/4/6
f 2091/4/6 2083/4/6 2092/4/6
f 2089/4/6 2090/4/6 2093/4/6
f 2071/4/6 2089/4/6 2093/4/6
f 2093/4/6 2090/4/6 2094/4/6
f 2087/4/6 2091/4/6 2096/4/6
f 2094/4/6 2090/4/6 2097/4/6
f 2095/4/6 2096/4/6 2098/4/6
f 2096/4/6 2091/4/6 2099/4/6
f 2098/4/6 2096/4/6 2099/4/6
f 2099/4/6 2091/4/6 2100/4/6
f 2094/4/6 2097/4/6 2101/4/6
f 2097/4/6 2098/4/6 2101/4/6
f 2098/4/6 2099/4/6 2101/4/6
f 2101/4/6 2099/4/6 2102/4/6
f 2103/4/6 2104/4/6 2107/4/6
f 2107/4/6 2104/4/6 2108/4/6
f 2104/5/6 2105/5/6 2109/5/6
f 2108/4/6 2104/4/6 2109/4/6
f 2109/5/6 2105/5/6 2110/5/6
f 2107/6/6 2108/6/6 2112/6/6
f 2106/6/6 2107/6/6 2112/6/6
f 2112/6/6 2108/6/6 2113/6/6
f 2110/4/6 2111/4/6 2114/4/6
f 2106/6/6 2112/6/6 2116/6/6
f 2116/6/6 2112/6/6 2117/6/6
f 2114/4/6 2115/4/6 2119/4/6
f 2110/4/6 2114/4/6 2119/4/6
f 2119/4/6 2115/4/6 2120/4/6
f 2120/4/6 2115/4/6 2121/4/6
f 2117/4/6 2118/4/6 2122/4/6
f 2116/4/6 2117/4/6 2122/4/6
f 2122/4/6 2118/4/6 2123/4/6
f 2119/4/6 2120/4/6 2124/4/6
f 2123/4/6 2124/4/6 2125/4/6
f 2124/4/6 2120/4/6 2125/4/6
f 2125/4/6 2120/4/6 2126/4/6
f 2123/4/6 2125/4/6 2127/4/6
f 2127/4/6 2125/4/6 2128/4/6
f 2129/4/6 2130/4/6 2133/4/6
f 2130/5/6 2131/5/6 2134/5/6
f 2133/4/6 2130/4/6 2134/4/6
f 2132/6/6 2133/6/6 2135/6/6
f 2135/6/6 2133/6/6 2136/6/6
f 2134/5/6 2131/5/6 2137/5/6
f 2137/5/6 2131/5/6 2138/5/6
f 2136/4/6 2137/4/6 2139/4/6
f 2137/4/6 2138/4/6 2139/4/6
f 2139/4/6 2138/4/6 2140/4/6
f 2141/4/6 2142/4/6 2143/4/6
f 2143/4/6 2142/4/6 2144/4/6
