# MagicaVoxel @ Ephtracy

# group
o 

# material
mtllib VR Токарев зелье оранжевое.mtl
usemtl palette

# normals
vn -1 0 0
vn 1 0 0
vn 0 0 1
vn 0 0 -1
vn 0 -1 0
vn 0 1 0

# texcoords
vt 0.0917969 0.5
vt 0.255859 0.5
vt 0.310547 0.5
vt 0.341797 0.5
vt 0.373047 0.5

# verts
v -0.5 0.2 0.2
v -0.5 0.2 0.1
v -0.5 0.2 -0.1
v -0.5 0.2 -0.2
v -0.5 0.3 0.1
v -0.5 0.3 0
v -0.5 0.4 0.2
v -0.5 0.4 0.1
v -0.5 0.4 0
v -0.5 0.4 -0.1
v -0.5 0.5 0.1
v -0.5 0.5 0
v -0.5 0.5 -0.1
v -0.5 0.5 -0.2
v -0.5 0.6 0.2
v -0.5 0.6 0
v -0.5 0.6 -0.2
v -0.4 0.1 0.3
v -0.4 0.1 -0.3
v -0.4 0.2 0.2
v -0.4 0.2 0.1
v -0.4 0.2 -0.1
v -0.4 0.2 -0.2
v -0.4 0.2 -0.3
v -0.4 0.4 0.2
v -0.4 0.4 -0.2
v -0.4 0.4 -0.3
v -0.4 0.5 -0.2
v -0.4 0.6 0.2
v -0.4 0.6 0
v -0.4 0.6 -0.1
v -0.4 0.6 -0.2
v -0.4 0.6 -0.3
v -0.4 0.7 0.3
v -0.4 0.7 -0.1
v -0.4 0.7 -0.3
v -0.3 0 0.3
v -0.3 0 0.1
v -0.3 0 -0.1
v -0.3 0 -0.3
v -0.3 0.1 0.4
v -0.3 0.1 0.3
v -0.3 0.1 0.1
v -0.3 0.1 -0.1
v -0.3 0.1 -0.3
v -0.3 0.1 -0.4
v -0.3 0.2 0.4
v -0.3 0.2 0.3
v -0.3 0.2 -0.3
v -0.3 0.2 -0.4
v -0.3 0.3 0.4
v -0.3 0.3 0.3
v -0.3 0.4 0.4
v -0.3 0.4 0.3
v -0.3 0.4 -0.3
v -0.3 0.6 -0.3
v -0.3 0.7 0.4
v -0.3 0.7 0.3
v -0.3 0.7 0.2
v -0.3 0.7 0.1
v -0.3 0.7 -0.1
v -0.3 0.7 -0.2
v -0.3 0.7 -0.3
v -0.3 0.7 -0.4
v -0.3 0.8 0.3
v -0.3 0.8 0.2
v -0.3 0.8 0.1
v -0.3 0.8 -0.1
v -0.3 0.8 -0.2
v -0.3 0.8 -0.3
v -0.3 1.1 0.1
v -0.3 1.1 -0.1
v -0.3 1.2 0.1
v -0.3 1.2 -0.1
v -0.2 0.2 0.5
v -0.2 0.2 0.4
v -0.2 0.2 -0.4
v -0.2 0.2 -0.5
v -0.2 0.3 0.4
v -0.2 0.4 0.5
v -0.2 0.4 0.4
v -0.2 0.6 0.5
v -0.2 0.6 0.4
v -0.2 0.6 -0.4
v -0.2 0.6 -0.5
v -0.2 0.8 0.2
v -0.2 0.8 0.1
v -0.2 0.8 0
v -0.2 0.8 -0.1
v -0.2 0.8 -0.2
v -0.2 0.9 0.2
v -0.2 0.9 0.1
v -0.2 0.9 -0.1
v -0.2 0.9 -0.2
v -0.2 1.1 0.2
v -0.2 1.1 0.1
v -0.2 1.1 0
v -0.2 1.1 -0.1
v -0.2 1.1 -0.2
v -0.2 1.2 0.2
v -0.2 1.2 0.1
v -0.2 1.2 -0.1
v -0.2 1.2 -0.2
v -0.1 0.9 0.2
v -0.1 0.9 0.1
v -0.1 0.9 -0.1
v -0.1 0.9 -0.2
v -0.1 1 0.2
v -0.1 1 0.1
v -0.1 1 -0.1
v -0.1 1 -0.2
v -0.1 1.1 0.3
v -0.1 1.1 0.2
v -0.1 1.1 0.1
v -0.1 1.1 -0.1
v -0.1 1.1 -0.2
v -0.1 1.1 -0.3
v -0.1 1.2 0.3
v -0.1 1.2 0.2
v -0.1 1.2 -0.2
v -0.1 1.2 -0.3
v 0.1 0.9 0.2
v 0.1 0.9 0.1
v 0.1 0.9 -0.1
v 0.1 0.9 -0.2
v 0.1 1 0.2
v 0.1 1 0.1
v 0.1 1 -0.1
v 0.1 1 -0.2
v 0.1 1.1 0.3
v 0.1 1.1 0.2
v 0.1 1.1 0.1
v 0.1 1.1 -0.1
v 0.1 1.1 -0.2
v 0.1 1.1 -0.3
v 0.1 1.2 0.3
v 0.1 1.2 0.2
v 0.1 1.2 -0.2
v 0.1 1.2 -0.3
v 0.2 0.2 0.5
v 0.2 0.2 0.4
v 0.2 0.2 -0.4
v 0.2 0.2 -0.5
v 0.2 0.4 0.5
v 0.2 0.4 0.4
v 0.2 0.5 0.4
v 0.2 0.6 0.5
v 0.2 0.6 0.4
v 0.2 0.6 -0.4
v 0.2 0.6 -0.5
v 0.2 0.8 0.2
v 0.2 0.8 0
v 0.2 0.8 -0.1
v 0.2 0.8 -0.2
v 0.2 0.9 0.2
v 0.2 0.9 0.1
v 0.2 0.9 -0.1
v 0.2 0.9 -0.2
v 0.2 1 0.1
v 0.2 1 0
v 0.2 1.1 0.2
v 0.2 1.1 0.1
v 0.2 1.1 0
v 0.2 1.1 -0.1
v 0.2 1.1 -0.2
v 0.2 1.2 0.2
v 0.2 1.2 0.1
v 0.2 1.2 -0.1
v 0.2 1.2 -0.2
v 0.3 0 0.3
v 0.3 0 0.1
v 0.3 0 -0.1
v 0.3 0 -0.3
v 0.3 0.1 0.4
v 0.3 0.1 0.3
v 0.3 0.1 0.1
v 0.3 0.1 0
v 0.3 0.1 -0.1
v 0.3 0.1 -0.3
v 0.3 0.1 -0.4
v 0.3 0.2 0.3
v 0.3 0.2 -0.3
v 0.3 0.2 -0.4
v 0.3 0.3 -0.3
v 0.3 0.4 0.4
v 0.3 0.4 0.3
v 0.3 0.5 0.4
v 0.3 0.5 0.3
v 0.3 0.6 0.4
v 0.3 0.6 0.3
v 0.3 0.7 0.4
v 0.3 0.7 0.3
v 0.3 0.7 0.2
v 0.3 0.7 0
v 0.3 0.7 -0.1
v 0.3 0.7 -0.2
v 0.3 0.7 -0.3
v 0.3 0.7 -0.4
v 0.3 0.8 0.3
v 0.3 0.8 0.2
v 0.3 0.8 0
v 0.3 0.8 -0.1
v 0.3 0.8 -0.2
v 0.3 0.8 -0.3
v 0.3 1.1 0.1
v 0.3 1.1 -0.1
v 0.3 1.2 0.1
v 0.3 1.2 -0.1
v 0.4 0.1 0.3
v 0.4 0.1 0
v 0.4 0.1 -0.3
v 0.4 0.2 0.3
v 0.4 0.2 0.2
v 0.4 0.2 0
v 0.4 0.2 -0.2
v 0.4 0.3 -0.2
v 0.4 0.3 -0.3
v 0.4 0.4 -0.2
v 0.4 0.6 0.2
v 0.4 0.6 0
v 0.4 0.6 -0.1
v 0.4 0.6 -0.2
v 0.4 0.7 0.3
v 0.4 0.7 0.2
v 0.4 0.7 0
v 0.4 0.7 -0.1
v 0.4 0.7 -0.2
v 0.4 0.7 -0.3
v 0.5 0.2 0.2
v 0.5 0.2 -0.2
v 0.5 0.3 0.1
v 0.5 0.3 0
v 0.5 0.4 -0.1
v 0.5 0.4 -0.2
v 0.5 0.5 0.1
v 0.5 0.5 0
v 0.5 0.5 -0.1
v 0.5 0.6 0.2
v 0.5 0.6 0
v 0.5 0.6 -0.1
v 0.5 0.6 -0.2
v -0.2 0.2 0.5
v -0.2 0.4 0.5
v -0.2 0.6 0.5
v -0.1 0.2 0.5
v -0.1 0.3 0.5
v 0 0.2 0.5
v 0 0.3 0.5
v 0 0.4 0.5
v 0 0.5 0.5
v 0.1 0.2 0.5
v 0.1 0.4 0.5
v 0.1 0.5 0.5
v 0.1 0.6 0.5
v 0.2 0.2 0.5
v 0.2 0.4 0.5
v 0.2 0.6 0.5
v -0.3 0.1 0.4
v -0.3 0.2 0.4
v -0.3 0.3 0.4
v -0.3 0.4 0.4
v -0.3 0.7 0.4
v -0.2 0.2 0.4
v -0.2 0.3 0.4
v -0.2 0.4 0.4
v -0.2 0.6 0.4
v -0.2 0.7 0.4
v -0.1 0.1 0.4
v -0.1 0.2 0.4
v 0 0.1 0.4
v 0 0.2 0.4
v 0.1 0.2 0.4
v 0.1 0.6 0.4
v 0.2 0.2 0.4
v 0.2 0.4 0.4
v 0.2 0.5 0.4
v 0.2 0.6 0.4
v 0.2 0.7 0.4
v 0.3 0.1 0.4
v 0.3 0.4 0.4
v 0.3 0.5 0.4
v 0.3 0.6 0.4
v 0.3 0.7 0.4
v -0.4 0.1 0.3
v -0.4 0.7 0.3
v -0.3 0 0.3
v -0.3 0.1 0.3
v -0.3 0.2 0.3
v -0.3 0.3 0.3
v -0.3 0.4 0.3
v -0.3 0.7 0.3
v -0.3 0.8 0.3
v -0.2 0.7 0.3
v -0.1 0.1 0.3
v -0.1 0.7 0.3
v -0.1 0.8 0.3
v -0.1 1.1 0.3
v -0.1 1.2 0.3
v 0 0.1 0.3
v 0.1 0.7 0.3
v 0.1 0.8 0.3
v 0.1 1.1 0.3
v 0.1 1.2 0.3
v 0.2 0.7 0.3
v 0.3 0 0.3
v 0.3 0.1 0.3
v 0.3 0.2 0.3
v 0.3 0.4 0.3
v 0.3 0.5 0.3
v 0.3 0.6 0.3
v 0.3 0.7 0.3
v 0.3 0.8 0.3
v 0.4 0.1 0.3
v 0.4 0.2 0.3
v 0.4 0.7 0.3
v -0.5 0.2 0.2
v -0.5 0.4 0.2
v -0.5 0.6 0.2
v -0.4 0.2 0.2
v -0.4 0.4 0.2
v -0.4 0.6 0.2
v -0.2 0.8 0.2
v -0.2 0.9 0.2
v -0.2 1.1 0.2
v -0.2 1.2 0.2
v -0.1 0.8 0.2
v -0.1 0.9 0.2
v -0.1 1 0.2
v -0.1 1.1 0.2
v -0.1 1.2 0.2
v 0 1 0.2
v 0 1.1 0.2
v 0.1 0.8 0.2
v 0.1 0.9 0.2
v 0.1 1 0.2
v 0.1 1.1 0.2
v 0.1 1.2 0.2
v 0.2 0.8 0.2
v 0.2 0.9 0.2
v 0.2 1.1 0.2
v 0.2 1.2 0.2
v 0.4 0.2 0.2
v 0.4 0.6 0.2
v 0.5 0.2 0.2
v 0.5 0.6 0.2
v -0.3 1.1 0.1
v -0.3 1.2 0.1
v -0.2 0.9 0.1
v -0.2 1.1 0.1
v -0.2 1.2 0.1
v -0.1 0.9 0.1
v -0.1 1 0.1
v -0.1 1.1 0.1
v 0.1 0.9 0.1
v 0.1 1 0.1
v 0.1 1.1 0.1
v 0.2 0.9 0.1
v 0.2 1 0.1
v 0.2 1.1 0.1
v 0.2 1.2 0.1
v 0.3 1.1 0.1
v 0.3 1.2 0.1
v -0.3 1.1 -0.1
v -0.3 1.2 -0.1
v -0.2 0.9 -0.1
v -0.2 1.1 -0.1
v -0.2 1.2 -0.1
v -0.1 0.9 -0.1
v -0.1 1 -0.1
v -0.1 1.1 -0.1
v 0.1 0.9 -0.1
v 0.1 1 -0.1
v 0.1 1.1 -0.1
v 0.2 0.9 -0.1
v 0.2 1.1 -0.1
v 0.2 1.2 -0.1
v 0.3 1.1 -0.1
v 0.3 1.2 -0.1
v -0.5 0.2 -0.2
v -0.5 0.5 -0.2
v -0.5 0.6 -0.2
v -0.4 0.2 -0.2
v -0.4 0.4 -0.2
v -0.4 0.5 -0.2
v -0.4 0.6 -0.2
v -0.2 0.8 -0.2
v -0.2 0.9 -0.2
v -0.2 1.1 -0.2
v -0.2 1.2 -0.2
v -0.1 0.8 -0.2
v -0.1 0.9 -0.2
v -0.1 1 -0.2
v -0.1 1.1 -0.2
v -0.1 1.2 -0.2
v 0 0.8 -0.2
v 0 0.9 -0.2
v 0 1 -0.2
v 0 1.1 -0.2
v 0.1 0.9 -0.2
v 0.1 1 -0.2
v 0.1 1.1 -0.2
v 0.1 1.2 -0.2
v 0.2 0.8 -0.2
v 0.2 0.9 -0.2
v 0.2 1.1 -0.2
v 0.2 1.2 -0.2
v 0.4 0.2 -0.2
v 0.4 0.3 -0.2
v 0.4 0.4 -0.2
v 0.4 0.6 -0.2
v 0.5 0.2 -0.2
v 0.5 0.4 -0.2
v 0.5 0.6 -0.2
v -0.4 0.1 -0.3
v -0.4 0.2 -0.3
v -0.4 0.4 -0.3
v -0.4 0.6 -0.3
v -0.4 0.7 -0.3
v -0.3 0 -0.3
v -0.3 0.1 -0.3
v -0.3 0.2 -0.3
v -0.3 0.4 -0.3
v -0.3 0.6 -0.3
v -0.3 0.7 -0.3
v -0.3 0.8 -0.3
v -0.1 0.7 -0.3
v -0.1 0.8 -0.3
v -0.1 1.1 -0.3
v -0.1 1.2 -0.3
v 0 0.1 -0.3
v 0 0.7 -0.3
v 0 0.8 -0.3
v 0 1.1 -0.3
v 0 1.2 -0.3
v 0.1 1.1 -0.3
v 0.1 1.2 -0.3
v 0.2 0.7 -0.3
v 0.2 0.8 -0.3
v 0.3 0 -0.3
v 0.3 0.1 -0.3
v 0.3 0.2 -0.3
v 0.3 0.3 -0.3
v 0.3 0.7 -0.3
v 0.3 0.8 -0.3
v 0.4 0.1 -0.3
v 0.4 0.3 -0.3
v 0.4 0.7 -0.3
v -0.3 0.1 -0.4
v -0.3 0.2 -0.4
v -0.3 0.7 -0.4
v -0.2 0.2 -0.4
v -0.2 0.6 -0.4
v -0.1 0.2 -0.4
v 0 0.1 -0.4
v 0 0.2 -0.4
v 0 0.6 -0.4
v 0.1 0.2 -0.4
v 0.1 0.6 -0.4
v 0.2 0.2 -0.4
v 0.2 0.6 -0.4
v 0.2 0.7 -0.4
v 0.3 0.1 -0.4
v 0.3 0.2 -0.4
v 0.3 0.7 -0.4
v -0.2 0.2 -0.5
v -0.2 0.6 -0.5
v -0.1 0.2 -0.5
v -0.1 0.3 -0.5
v 0 0.3 -0.5
v 0 0.6 -0.5
v 0.1 0.2 -0.5
v 0.1 0.6 -0.5
v 0.2 0.2 -0.5
v 0.2 0.6 -0.5
v -0.3 0 0.3
v 0.3 0 0.3
v -0.2 0 0.2
v 0 0 0.2
v -0.3 0 0.1
v -0.2 0 0.1
v 0 0 0.1
v 0.3 0 0.1
v -0.2 0 0
v -0.1 0 0
v 0 0 0
v 0.1 0 0
v -0.3 0 -0.1
v -0.1 0 -0.1
v 0 0 -0.1
v 0.2 0 -0.1
v 0.3 0 -0.1
v -0.1 0 -0.2
v 0 0 -0.2
v 0.1 0 -0.2
v 0.2 0 -0.2
v -0.3 0 -0.3
v 0.3 0 -0.3
v -0.3 0.1 0.4
v -0.1 0.1 0.4
v 0 0.1 0.4
v 0.3 0.1 0.4
v -0.4 0.1 0.3
v -0.3 0.1 0.3
v -0.1 0.1 0.3
v 0 0.1 0.3
v 0.3 0.1 0.3
v 0.4 0.1 0.3
v -0.3 0.1 0.1
v 0.3 0.1 0.1
v 0.3 0.1 0
v 0.4 0.1 0
v -0.3 0.1 -0.1
v 0.3 0.1 -0.1
v -0.4 0.1 -0.3
v -0.3 0.1 -0.3
v 0 0.1 -0.3
v 0.3 0.1 -0.3
v 0.4 0.1 -0.3
v -0.3 0.1 -0.4
v 0 0.1 -0.4
v 0.3 0.1 -0.4
v -0.2 0.2 0.5
v -0.1 0.2 0.5
v 0 0.2 0.5
v 0.1 0.2 0.5
v 0.2 0.2 0.5
v -0.2 0.2 0.4
v -0.1 0.2 0.4
v 0 0.2 0.4
v 0.1 0.2 0.4
v 0.2 0.2 0.4
v -0.5 0.2 0.2
v -0.4 0.2 0.2
v 0.4 0.2 0.2
v 0.5 0.2 0.2
v -0.5 0.2 0.1
v -0.4 0.2 0.1
v 0.4 0.2 0
v -0.5 0.2 -0.1
v -0.4 0.2 -0.1
v -0.5 0.2 -0.2
v -0.4 0.2 -0.2
v 0.4 0.2 -0.2
v 0.5 0.2 -0.2
v -0.2 0.2 -0.4
v -0.1 0.2 -0.4
v 0 0.2 -0.4
v 0.1 0.2 -0.4
v 0.2 0.2 -0.4
v -0.2 0.2 -0.5
v -0.1 0.2 -0.5
v 0.1 0.2 -0.5
v 0.2 0.2 -0.5
v -0.1 1.1 0.3
v 0.1 1.1 0.3
v -0.2 1.1 0.2
v -0.1 1.1 0.2
v 0 1.1 0.2
v 0.1 1.1 0.2
v 0.2 1.1 0.2
v -0.3 1.1 0.1
v -0.2 1.1 0.1
v -0.1 1.1 0.1
v 0.1 1.1 0.1
v 0.2 1.1 0.1
v 0.3 1.1 0.1
v -0.2 1.1 0
v 0.2 1.1 0
v -0.3 1.1 -0.1
v -0.2 1.1 -0.1
v -0.1 1.1 -0.1
v 0.1 1.1 -0.1
v 0.2 1.1 -0.1
v 0.3 1.1 -0.1
v -0.2 1.1 -0.2
v -0.1 1.1 -0.2
v 0 1.1 -0.2
v 0.1 1.1 -0.2
v 0.2 1.1 -0.2
v -0.1 1.1 -0.3
v 0 1.1 -0.3
v 0.1 1.1 -0.3
v -0.2 0.6 0.5
v 0.1 0.6 0.5
v 0.2 0.6 0.5
v -0.2 0.6 0.4
v 0.1 0.6 0.4
v 0.2 0.6 0.4
v -0.5 0.6 0.2
v -0.4 0.6 0.2
v 0.4 0.6 0.2
v 0.5 0.6 0.2
v -0.5 0.6 0
v -0.4 0.6 0
v 0.4 0.6 0
v 0.5 0.6 0
v -0.4 0.6 -0.1
v 0.4 0.6 -0.1
v 0.5 0.6 -0.1
v -0.5 0.6 -0.2
v -0.4 0.6 -0.2
v 0.4 0.6 -0.2
v 0.5 0.6 -0.2
v -0.2 0.6 -0.4
v 0 0.6 -0.4
v 0.1 0.6 -0.4
v 0.2 0.6 -0.4
v -0.2 0.6 -0.5
v 0 0.6 -0.5
v 0.1 0.6 -0.5
v 0.2 0.6 -0.5
v -0.3 0.7 0.4
v -0.2 0.7 0.4
v 0.2 0.7 0.4
v 0.3 0.7 0.4
v -0.4 0.7 0.3
v -0.3 0.7 0.3
v -0.2 0.7 0.3
v -0.1 0.7 0.3
v 0.1 0.7 0.3
v 0.2 0.7 0.3
v 0.3 0.7 0.3
v 0.4 0.7 0.3
v -0.3 0.7 0.2
v 0.3 0.7 0.2
v 0.4 0.7 0.2
v -0.3 0.7 0.1
v 0.3 0.7 0
v 0.4 0.7 0
v -0.4 0.7 -0.1
v -0.3 0.7 -0.1
v 0.3 0.7 -0.1
v 0.4 0.7 -0.1
v -0.3 0.7 -0.2
v 0.3 0.7 -0.2
v 0.4 0.7 -0.2
v -0.4 0.7 -0.3
v -0.3 0.7 -0.3
v -0.1 0.7 -0.3
v 0 0.7 -0.3
v 0.2 0.7 -0.3
v 0.3 0.7 -0.3
v 0.4 0.7 -0.3
v -0.3 0.7 -0.4
v 0.2 0.7 -0.4
v 0.3 0.7 -0.4
v -0.3 0.8 0.3
v -0.1 0.8 0.3
v 0.1 0.8 0.3
v 0.3 0.8 0.3
v -0.3 0.8 0.2
v -0.2 0.8 0.2
v -0.1 0.8 0.2
v 0.1 0.8 0.2
v 0.2 0.8 0.2
v 0.3 0.8 0.2
v -0.3 0.8 0.1
v -0.2 0.8 0.1
v -0.2 0.8 0
v 0.2 0.8 0
v 0.3 0.8 0
v -0.3 0.8 -0.1
v -0.2 0.8 -0.1
v 0.2 0.8 -0.1
v 0.3 0.8 -0.1
v -0.3 0.8 -0.2
v -0.2 0.8 -0.2
v -0.1 0.8 -0.2
v 0 0.8 -0.2
v 0.2 0.8 -0.2
v 0.3 0.8 -0.2
v -0.3 0.8 -0.3
v -0.1 0.8 -0.3
v 0 0.8 -0.3
v 0.2 0.8 -0.3
v 0.3 0.8 -0.3
v -0.2 0.9 0.2
v -0.1 0.9 0.2
v 0.1 0.9 0.2
v 0.2 0.9 0.2
v -0.2 0.9 0.1
v -0.1 0.9 0.1
v 0.1 0.9 0.1
v 0.2 0.9 0.1
v -0.2 0.9 -0.1
v -0.1 0.9 -0.1
v 0.1 0.9 -0.1
v 0.2 0.9 -0.1
v -0.2 0.9 -0.2
v -0.1 0.9 -0.2
v 0.1 0.9 -0.2
v 0.2 0.9 -0.2
v -0.1 1.2 0.3
v 0.1 1.2 0.3
v -0.2 1.2 0.2
v -0.1 1.2 0.2
v 0 1.2 0.2
v 0.1 1.2 0.2
v 0.2 1.2 0.2
v -0.3 1.2 0.1
v -0.2 1.2 0.1
v -0.1 1.2 0.1
v 0.1 1.2 0.1
v 0.2 1.2 0.1
v 0.3 1.2 0.1
v 0 1.2 0
v 0.1 1.2 0
v -0.3 1.2 -0.1
v -0.2 1.2 -0.1
v -0.1 1.2 -0.1
v 0.1 1.2 -0.1
v 0.2 1.2 -0.1
v 0.3 1.2 -0.1
v -0.2 1.2 -0.2
v -0.1 1.2 -0.2
v 0 1.2 -0.2
v 0.1 1.2 -0.2
v 0.2 1.2 -0.2
v -0.1 1.2 -0.3
v 0 1.2 -0.3
v 0.1 1.2 -0.3

# faces
f 5/4/1 2/4/1 1/4/1
f 5/5/1 3/5/1 2/5/1
f 6/5/1 3/5/1 5/5/1
f 7/4/1 5/4/1 1/4/1
f 7/4/1 6/4/1 5/4/1
f 8/4/1 6/4/1 7/4/1
f 9/5/1 3/5/1 6/5/1
f 9/4/1 6/4/1 8/4/1
f 10/3/1 4/3/1 3/3/1
f 10/5/1 3/5/1 9/5/1
f 11/4/1 9/4/1 8/4/1
f 11/3/1 8/3/1 7/3/1
f 11/4/1 10/4/1 9/4/1
f 12/4/1 10/4/1 11/4/1
f 13/3/1 4/3/1 10/3/1
f 13/4/1 10/4/1 12/4/1
f 14/3/1 4/3/1 13/3/1
f 15/3/1 12/3/1 11/3/1
f 15/3/1 11/3/1 7/3/1
f 16/4/1 14/4/1 13/4/1
f 16/3/1 12/3/1 15/3/1
f 16/4/1 13/4/1 12/4/1
f 17/4/1 14/4/1 16/4/1
f 20/3/1 19/3/1 18/3/1
f 21/3/1 19/3/1 20/3/1
f 22/3/1 19/3/1 21/3/1
f 23/3/1 19/3/1 22/3/1
f 24/3/1 19/3/1 23/3/1
f 25/3/1 20/3/1 18/3/1
f 26/4/1 24/4/1 23/4/1
f 27/4/1 24/4/1 26/4/1
f 28/3/1 27/3/1 26/3/1
f 29/3/1 25/3/1 18/3/1
f 32/3/1 27/3/1 28/3/1
f 33/3/1 27/3/1 32/3/1
f 34/3/1 31/3/1 30/3/1
f 34/3/1 29/3/1 18/3/1
f 34/3/1 30/3/1 29/3/1
f 35/4/1 33/4/1 32/4/1
f 35/3/1 31/3/1 34/3/1
f 35/4/1 32/4/1 31/4/1
f 36/4/1 33/4/1 35/4/1
f 42/3/1 38/3/1 37/3/1
f 43/5/1 39/5/1 38/5/1
f 43/3/1 38/3/1 42/3/1
f 44/3/1 40/3/1 39/3/1
f 44/5/1 39/5/1 43/5/1
f 45/3/1 40/3/1 44/3/1
f 47/3/1 42/3/1 41/3/1
f 48/3/1 42/3/1 47/3/1
f 49/4/1 46/4/1 45/4/1
f 50/4/1 46/4/1 49/4/1
f 51/5/1 48/5/1 47/5/1
f 52/5/1 48/5/1 51/5/1
f 53/3/1 52/3/1 51/3/1
f 54/3/1 52/3/1 53/3/1
f 55/3/1 50/3/1 49/3/1
f 56/3/1 50/3/1 55/3/1
f 57/4/1 54/4/1 53/4/1
f 58/4/1 54/4/1 57/4/1
f 63/3/1 50/3/1 56/3/1
f 64/3/1 50/3/1 63/3/1
f 65/4/1 59/4/1 58/4/1
f 66/3/1 60/3/1 59/3/1
f 66/4/1 59/4/1 65/4/1
f 67/4/1 61/4/1 60/4/1
f 67/3/1 60/3/1 66/3/1
f 68/3/1 62/3/1 61/3/1
f 68/4/1 61/4/1 67/4/1
f 69/5/1 63/5/1 62/5/1
f 69/3/1 62/3/1 68/3/1
f 70/5/1 63/5/1 69/5/1
f 73/3/1 72/3/1 71/3/1
f 74/3/1 72/3/1 73/3/1
f 79/5/1 76/5/1 75/5/1
f 80/5/1 79/5/1 75/5/1
f 81/5/1 79/5/1 80/5/1
f 82/3/1 81/3/1 80/3/1
f 83/3/1 81/3/1 82/3/1
f 84/3/1 78/3/1 77/3/1
f 85/3/1 78/3/1 84/3/1
f 91/3/1 87/3/1 86/3/1
f 91/3/1 88/3/1 87/3/1
f 92/3/1 88/3/1 91/3/1
f 93/5/1 90/5/1 89/5/1
f 93/4/1 89/4/1 88/4/1
f 94/5/1 90/5/1 93/5/1
f 96/3/1 88/3/1 92/3/1
f 97/4/1 93/4/1 88/4/1
f 97/3/1 88/3/1 96/3/1
f 98/4/1 93/4/1 97/4/1
f 100/3/1 96/3/1 95/3/1
f 101/3/1 96/3/1 100/3/1
f 102/3/1 99/3/1 98/3/1
f 103/3/1 99/3/1 102/3/1
f 108/4/1 105/4/1 104/4/1
f 109/4/1 105/4/1 108/4/1
f 110/5/1 107/5/1 106/5/1
f 111/5/1 107/5/1 110/5/1
f 113/3/1 109/3/1 108/3/1
f 114/3/1 109/3/1 113/3/1
f 115/3/1 111/3/1 110/3/1
f 116/3/1 111/3/1 115/3/1
f 118/5/1 113/5/1 112/5/1
f 119/5/1 113/5/1 118/5/1
f 120/3/1 117/3/1 116/3/1
f 121/3/1 117/3/1 120/3/1
f 122/4/2 123/4/2 126/4/2
f 126/4/2 123/4/2 127/4/2
f 124/3/2 125/3/2 128/3/2
f 128/3/2 125/3/2 129/3/2
f 126/5/2 127/5/2 131/5/2
f 131/5/2 127/5/2 132/5/2
f 128/4/2 129/4/2 133/4/2
f 133/4/2 129/4/2 134/4/2
f 130/5/2 131/5/2 136/5/2
f 136/5/2 131/5/2 137/5/2
f 134/4/2 135/4/2 138/4/2
f 138/4/2 135/4/2 139/4/2
f 140/3/2 141/3/2 144/3/2
f 144/3/2 141/3/2 145/3/2
f 144/4/2 145/4/2 146/4/2
f 144/4/2 146/4/2 147/4/2
f 147/4/2 146/4/2 148/4/2
f 142/3/2 143/3/2 149/3/2
f 149/3/2 143/3/2 150/3/2
f 151/3/2 152/3/2 155/3/2
f 153/3/2 154/3/2 155/3/2
f 152/3/2 153/3/2 155/3/2
f 155/3/2 154/3/2 156/3/2
f 156/3/2 154/3/2 157/3/2
f 157/3/2 154/3/2 158/3/2
f 156/4/2 157/4/2 159/4/2
f 159/4/2 157/4/2 160/4/2
f 159/3/2 160/3/2 162/3/2
f 160/4/2 157/4/2 163/4/2
f 162/3/2 160/3/2 163/3/2
f 163/4/2 157/4/2 164/4/2
f 161/3/2 162/3/2 166/3/2
f 166/3/2 162/3/2 167/3/2
f 164/3/2 165/3/2 168/3/2
f 168/3/2 165/3/2 169/3/2
f 170/3/2 171/3/2 175/3/2
f 171/4/2 172/4/2 176/4/2
f 175/3/2 171/3/2 176/3/2
f 176/4/2 172/4/2 177/4/2
f 172/3/2 173/3/2 178/3/2
f 177/4/2 172/4/2 178/4/2
f 178/3/2 173/3/2 179/3/2
f 174/3/2 175/3/2 181/3/2
f 179/3/2 180/3/2 182/3/2
f 182/3/2 180/3/2 183/3/2
f 182/4/2 183/4/2 184/4/2
f 174/3/2 181/3/2 185/3/2
f 185/3/2 181/3/2 186/3/2
f 185/5/2 186/5/2 187/5/2
f 187/5/2 186/5/2 188/5/2
f 187/3/2 188/3/2 189/3/2
f 189/3/2 188/3/2 190/3/2
f 189/4/2 190/4/2 191/4/2
f 191/4/2 190/4/2 192/4/2
f 184/4/2 183/4/2 197/4/2
f 197/4/2 183/4/2 198/4/2
f 192/4/2 193/4/2 199/4/2
f 193/3/2 194/3/2 200/3/2
f 199/4/2 193/4/2 200/4/2
f 194/4/2 195/4/2 201/4/2
f 200/3/2 194/3/2 201/3/2
f 195/3/2 196/3/2 202/3/2
f 201/4/2 195/4/2 202/4/2
f 196/5/2 197/5/2 203/5/2
f 202/3/2 196/3/2 203/3/2
f 203/5/2 197/5/2 204/5/2
f 205/3/2 206/3/2 207/3/2
f 207/3/2 206/3/2 208/3/2
f 209/3/2 210/3/2 212/3/2
f 212/3/2 210/3/2 213/3/2
f 210/4/2 211/4/2 214/4/2
f 213/3/2 210/3/2 214/3/2
f 214/4/2 211/4/2 215/4/2
f 215/4/2 211/4/2 216/4/2
f 216/4/2 211/4/2 217/4/2
f 216/5/2 217/5/2 218/5/2
f 212/5/2 213/5/2 219/5/2
f 218/5/2 217/5/2 222/5/2
f 212/5/2 219/5/2 223/5/2
f 219/3/2 220/3/2 224/3/2
f 223/5/2 219/5/2 224/5/2
f 220/4/2 221/4/2 225/4/2
f 224/3/2 220/3/2 225/3/2
f 221/3/2 222/3/2 226/3/2
f 225/4/2 221/4/2 226/4/2
f 222/5/2 217/5/2 227/5/2
f 226/3/2 222/3/2 227/3/2
f 227/5/2 217/5/2 228/5/2
f 229/3/2 230/3/2 231/3/2
f 231/3/2 230/3/2 232/3/2
f 232/3/2 230/3/2 233/3/2
f 233/3/2 230/3/2 234/3/2
f 229/3/2 231/3/2 235/3/2
f 231/4/2 232/4/2 235/4/2
f 232/3/2 233/3/2 236/3/2
f 235/4/2 232/4/2 236/4/2
f 233/5/2 234/5/2 237/5/2
f 236/3/2 233/3/2 237/3/2
f 235/3/2 236/3/2 238/3/2
f 229/3/2 235/3/2 238/3/2
f 236/4/2 237/4/2 239/4/2
f 238/3/2 236/3/2 239/3/2
f 237/5/2 234/5/2 240/5/2
f 239/4/2 237/4/2 240/4/2
f 240/5/2 234/5/2 241/5/2
f 245/5/3 243/5/3 242/5/3
f 246/5/3 243/5/3 245/5/3
f 247/3/3 246/3/3 245/3/3
f 248/5/3 243/5/3 246/5/3
f 248/3/3 246/3/3 247/3/3
f 249/3/3 244/3/3 243/3/3
f 249/5/3 243/5/3 248/5/3
f 250/3/3 244/3/3 249/3/3
f 251/4/3 248/4/3 247/4/3
f 251/4/3 249/4/3 248/4/3
f 252/5/3 250/5/3 249/5/3
f 252/4/3 249/4/3 251/4/3
f 253/3/3 244/3/3 250/3/3
f 253/5/3 250/5/3 252/5/3
f 254/3/3 244/3/3 253/3/3
f 255/3/3 252/3/3 251/3/3
f 256/4/3 253/4/3 252/4/3
f 256/3/3 252/3/3 255/3/3
f 256/4/3 254/4/3 253/4/3
f 257/4/3 254/4/3 256/4/3
f 263/3/3 259/3/3 258/3/3
f 263/5/3 260/5/3 259/5/3
f 264/3/3 261/3/3 260/3/3
f 264/5/3 260/5/3 263/5/3
f 265/4/3 262/4/3 261/4/3
f 265/3/3 261/3/3 264/3/3
f 266/4/3 262/4/3 265/4/3
f 267/4/3 262/4/3 266/4/3
f 268/3/3 263/3/3 258/3/3
f 269/3/3 263/3/3 268/3/3
f 270/4/3 269/4/3 268/4/3
f 271/4/3 269/4/3 270/4/3
f 272/3/3 271/3/3 270/3/3
f 273/3/3 267/3/3 266/3/3
f 274/3/3 272/3/3 270/3/3
f 277/3/3 267/3/3 273/3/3
f 278/3/3 267/3/3 277/3/3
f 279/3/3 274/3/3 270/3/3
f 279/3/3 275/3/3 274/3/3
f 280/5/3 276/5/3 275/5/3
f 280/3/3 275/3/3 279/3/3
f 281/3/3 277/3/3 276/3/3
f 281/5/3 276/5/3 280/5/3
f 282/4/3 278/4/3 277/4/3
f 282/3/3 277/3/3 281/3/3
f 283/4/3 278/4/3 282/4/3
f 287/3/3 285/3/3 284/3/3
f 288/3/3 285/3/3 287/3/3
f 289/3/3 285/3/3 288/3/3
f 290/3/3 285/3/3 289/3/3
f 291/3/3 285/3/3 290/3/3
f 293/4/3 292/4/3 291/4/3
f 294/3/3 287/3/3 286/3/3
f 295/4/3 292/4/3 293/4/3
f 296/4/3 292/4/3 295/4/3
f 299/3/3 294/3/3 286/3/3
f 300/3/3 296/3/3 295/3/3
f 301/3/3 296/3/3 300/3/3
f 302/5/3 298/5/3 297/5/3
f 303/5/3 298/5/3 302/5/3
f 304/4/3 301/4/3 300/4/3
f 305/3/3 299/3/3 286/3/3
f 306/3/3 299/3/3 305/3/3
f 311/4/3 301/4/3 304/4/3
f 312/4/3 301/4/3 311/4/3
f 313/3/3 307/3/3 306/3/3
f 314/5/3 310/5/3 309/5/3
f 314/3/3 307/3/3 313/3/3
f 314/5/3 311/5/3 310/5/3
f 314/5/3 308/5/3 307/5/3
f 314/5/3 309/5/3 308/5/3
f 315/5/3 311/5/3 314/5/3
f 319/4/3 317/4/3 316/4/3
f 320/3/3 318/3/3 317/3/3
f 320/4/3 317/4/3 319/4/3
f 321/3/3 318/3/3 320/3/3
f 326/3/3 323/3/3 322/3/3
f 327/3/3 323/3/3 326/3/3
f 329/3/3 325/3/3 324/3/3
f 330/3/3 325/3/3 329/3/3
f 331/4/3 328/4/3 327/4/3
f 331/3/3 329/3/3 328/3/3
f 332/3/3 329/3/3 331/3/3
f 333/3/3 327/3/3 326/3/3
f 334/4/3 331/4/3 327/4/3
f 334/3/3 327/3/3 333/3/3
f 335/5/3 332/5/3 331/5/3
f 335/4/3 331/4/3 334/4/3
f 336/5/3 332/5/3 335/5/3
f 338/3/3 334/3/3 333/3/3
f 339/3/3 334/3/3 338/3/3
f 340/3/3 337/3/3 336/3/3
f 341/3/3 337/3/3 340/3/3
f 344/3/3 343/3/3 342/3/3
f 345/3/3 343/3/3 344/3/3
f 349/3/3 347/3/3 346/3/3
f 350/3/3 347/3/3 349/3/3
f 351/3/3 349/3/3 348/3/3
f 352/3/3 349/3/3 351/3/3
f 353/3/3 349/3/3 352/3/3
f 357/4/3 355/4/3 354/4/3
f 358/3/3 356/3/3 355/3/3
f 358/4/3 355/4/3 357/4/3
f 359/3/3 356/3/3 358/3/3
f 361/3/3 360/3/3 359/3/3
f 362/3/3 360/3/3 361/3/3
f 363/3/4 364/3/4 366/3/4
f 366/3/4 364/3/4 367/3/4
f 365/4/4 366/4/4 368/4/4
f 368/4/4 366/4/4 369/4/4
f 369/4/4 366/4/4 370/4/4
f 371/4/4 372/4/4 374/4/4
f 372/4/4 373/4/4 374/4/4
f 374/4/4 373/4/4 375/4/4
f 375/3/4 376/3/4 377/3/4
f 377/3/4 376/3/4 378/3/4
f 379/3/4 380/3/4 382/3/4
f 382/3/4 380/3/4 383/3/4
f 380/4/4 381/4/4 384/4/4
f 383/3/4 380/3/4 384/3/4
f 384/4/4 381/4/4 385/4/4
f 386/5/4 387/5/4 390/5/4
f 390/5/4 387/5/4 391/5/4
f 388/3/4 389/3/4 393/3/4
f 393/3/4 389/3/4 394/3/4
f 390/3/4 391/3/4 395/3/4
f 391/5/4 392/5/4 396/5/4
f 395/3/4 391/3/4 396/3/4
f 392/3/4 393/3/4 397/3/4
f 396/5/4 392/5/4 397/5/4
f 397/3/4 393/3/4 398/3/4
f 395/3/4 396/3/4 399/3/4
f 396/3/4 397/3/4 399/3/4
f 397/4/4 398/4/4 400/4/4
f 399/3/4 397/3/4 400/3/4
f 400/4/4 398/4/4 401/4/4
f 395/3/4 399/3/4 403/3/4
f 403/3/4 399/3/4 404/3/4
f 401/3/4 402/3/4 405/3/4
f 405/3/4 402/3/4 406/3/4
f 407/3/4 408/3/4 411/3/4
f 408/3/4 409/3/4 411/3/4
f 409/5/4 410/5/4 412/5/4
f 411/3/4 409/3/4 412/3/4
f 412/5/4 410/5/4 413/5/4
f 414/3/4 415/3/4 420/3/4
f 415/4/4 416/4/4 421/4/4
f 420/3/4 415/3/4 421/3/4
f 416/3/4 417/3/4 422/3/4
f 421/4/4 416/4/4 422/4/4
f 417/4/4 418/4/4 423/4/4
f 422/3/4 417/3/4 423/3/4
f 423/4/4 418/4/4 424/4/4
f 424/5/4 425/5/4 426/5/4
f 426/5/4 425/5/4 427/5/4
f 419/3/4 420/3/4 430/3/4
f 426/3/4 427/3/4 431/3/4
f 431/3/4 427/3/4 432/3/4
f 428/3/4 429/3/4 433/3/4
f 433/3/4 429/3/4 434/3/4
f 433/4/4 434/4/4 435/4/4
f 435/4/4 434/4/4 436/4/4
f 431/4/4 432/4/4 437/4/4
f 437/4/4 432/4/4 438/4/4
f 419/3/4 430/3/4 439/3/4
f 439/3/4 430/3/4 440/3/4
f 437/5/4 438/5/4 443/5/4
f 443/5/4 438/5/4 444/5/4
f 441/4/4 442/4/4 445/4/4
f 440/4/4 441/4/4 445/4/4
f 442/5/4 443/5/4 446/5/4
f 445/4/4 442/4/4 446/4/4
f 446/5/4 443/5/4 447/5/4
f 448/4/4 449/4/4 451/4/4
f 449/3/4 450/3/4 451/3/4
f 451/3/4 450/3/4 452/3/4
f 448/4/4 451/4/4 453/4/4
f 448/4/4 453/4/4 454/4/4
f 454/4/4 453/4/4 455/4/4
f 452/3/4 450/3/4 456/3/4
f 454/3/4 455/3/4 457/3/4
f 456/3/4 450/3/4 458/3/4
f 454/3/4 457/3/4 459/3/4
f 458/3/4 450/3/4 460/3/4
f 460/3/4 450/3/4 461/3/4
f 454/3/4 459/3/4 462/3/4
f 459/4/4 460/4/4 463/4/4
f 462/3/4 459/3/4 463/3/4
f 460/4/4 461/4/4 463/4/4
f 463/4/4 461/4/4 464/4/4
f 465/3/4 466/3/4 467/3/4
f 467/3/4 466/3/4 468/3/4
f 467/5/4 468/5/4 469/5/4
f 468/3/4 466/3/4 469/3/4
f 469/3/4 466/3/4 470/3/4
f 467/5/4 469/5/4 471/5/4
f 469/5/4 470/5/4 471/5/4
f 471/5/4 470/5/4 472/5/4
f 471/3/4 472/3/4 473/3/4
f 473/3/4 472/3/4 474/3/4
f 477/3/5 476/3/5 475/3/5
f 478/3/5 476/3/5 477/3/5
f 479/3/5 477/3/5 475/3/5
f 480/4/5 478/4/5 477/4/5
f 480/3/5 477/3/5 479/3/5
f 481/3/5 476/3/5 478/3/5
f 481/4/5 478/4/5 480/4/5
f 482/3/5 476/3/5 481/3/5
f 483/5/5 480/5/5 479/5/5
f 483/3/5 481/3/5 480/3/5
f 484/3/5 481/3/5 483/3/5
f 485/4/5 482/4/5 481/4/5
f 485/3/5 481/3/5 484/3/5
f 486/4/5 482/4/5 485/4/5
f 487/5/5 484/5/5 483/5/5
f 487/5/5 483/5/5 479/5/5
f 488/3/5 486/3/5 485/3/5
f 488/5/5 484/5/5 487/5/5
f 488/3/5 485/3/5 484/3/5
f 489/3/5 486/3/5 488/3/5
f 490/4/5 482/4/5 486/4/5
f 491/4/5 482/4/5 490/4/5
f 492/3/5 488/3/5 487/3/5
f 492/5/5 489/5/5 488/5/5
f 493/3/5 486/3/5 489/3/5
f 493/5/5 489/5/5 492/5/5
f 494/4/5 490/4/5 486/4/5
f 494/3/5 486/3/5 493/3/5
f 495/3/5 491/3/5 490/3/5
f 495/4/5 490/4/5 494/4/5
f 496/3/5 492/3/5 487/3/5
f 496/3/5 494/3/5 493/3/5
f 496/3/5 495/3/5 494/3/5
f 496/3/5 493/3/5 492/3/5
f 497/3/5 491/3/5 495/3/5
f 497/3/5 495/3/5 496/3/5
f 503/3/5 499/3/5 498/3/5
f 504/4/5 500/4/5 499/4/5
f 504/3/5 499/3/5 503/3/5
f 505/3/5 501/3/5 500/3/5
f 505/4/5 500/4/5 504/4/5
f 506/3/5 501/3/5 505/3/5
f 508/3/5 503/3/5 502/3/5
f 509/3/5 507/3/5 506/3/5
f 510/3/5 507/3/5 509/3/5
f 511/3/5 507/3/5 510/3/5
f 512/3/5 508/3/5 502/3/5
f 513/4/5 511/4/5 510/4/5
f 514/3/5 512/3/5 502/3/5
f 515/3/5 512/3/5 514/3/5
f 517/4/5 511/4/5 513/4/5
f 518/4/5 511/4/5 517/4/5
f 519/4/5 516/4/5 515/4/5
f 520/3/5 517/3/5 516/3/5
f 520/4/5 516/4/5 519/4/5
f 521/3/5 517/3/5 520/3/5
f 527/5/5 523/5/5 522/5/5
f 528/3/5 524/3/5 523/3/5
f 528/5/5 523/5/5 527/5/5
f 529/4/5 525/4/5 524/4/5
f 529/3/5 524/3/5 528/3/5
f 530/3/5 526/3/5 525/3/5
f 530/4/5 525/4/5 529/4/5
f 531/3/5 526/3/5 530/3/5
f 536/4/5 533/4/5 532/4/5
f 537/4/5 533/4/5 536/4/5
f 538/3/5 535/3/5 534/3/5
f 539/5/5 537/5/5 536/5/5
f 540/5/5 537/5/5 539/5/5
f 541/3/5 540/3/5 539/3/5
f 542/3/5 540/3/5 541/3/5
f 543/3/5 535/3/5 538/3/5
f 544/3/5 535/3/5 543/3/5
f 550/3/5 546/3/5 545/3/5
f 551/5/5 547/5/5 546/5/5
f 551/3/5 546/3/5 550/3/5
f 551/5/5 548/5/5 547/5/5
f 552/3/5 549/3/5 548/3/5
f 552/5/5 548/5/5 551/5/5
f 553/3/5 549/3/5 552/3/5
f 557/5/5 555/5/5 554/5/5
f 558/5/5 555/5/5 557/5/5
f 559/5/5 555/5/5 558/5/5
f 562/3/5 557/3/5 556/3/5
f 563/3/5 557/3/5 562/3/5
f 564/3/5 560/3/5 559/3/5
f 565/3/5 560/3/5 564/3/5
f 567/3/5 562/3/5 561/3/5
f 568/3/5 566/3/5 565/3/5
f 569/3/5 567/3/5 561/3/5
f 570/3/5 567/3/5 569/3/5
f 573/3/5 566/3/5 568/3/5
f 574/3/5 566/3/5 573/3/5
f 575/3/5 571/3/5 570/3/5
f 576/3/5 571/3/5 575/3/5
f 578/3/5 573/3/5 572/3/5
f 579/3/5 573/3/5 578/3/5
f 580/3/5 577/3/5 576/3/5
f 581/4/5 578/4/5 577/4/5
f 581/3/5 577/3/5 580/3/5
f 582/4/5 578/4/5 581/4/5
f 583/3/6 584/3/6 586/3/6
f 584/4/6 585/4/6 587/4/6
f 586/3/6 584/3/6 587/3/6
f 587/4/6 585/4/6 588/4/6
f 589/3/6 590/3/6 593/3/6
f 593/3/6 590/3/6 594/3/6
f 591/3/6 592/3/6 595/3/6
f 595/3/6 592/3/6 596/3/6
f 593/4/6 594/4/6 597/4/6
f 595/4/6 596/4/6 598/4/6
f 598/4/6 596/4/6 599/4/6
f 593/4/6 597/4/6 600/4/6
f 600/4/6 597/4/6 601/4/6
f 598/5/6 599/5/6 602/5/6
f 602/5/6 599/5/6 603/5/6
f 604/3/6 605/3/6 608/3/6
f 605/5/6 606/5/6 609/5/6
f 608/3/6 605/3/6 609/3/6
f 606/3/6 607/3/6 610/3/6
f 609/5/6 606/5/6 610/5/6
f 610/3/6 607/3/6 611/3/6
f 612/4/6 613/4/6 617/4/6
f 613/3/6 614/3/6 618/3/6
f 617/4/6 613/4/6 618/4/6
f 618/3/6 614/3/6 619/3/6
f 619/3/6 614/3/6 620/3/6
f 614/4/6 615/4/6 621/4/6
f 620/3/6 614/3/6 621/3/6
f 621/4/6 615/4/6 622/4/6
f 616/3/6 617/3/6 624/3/6
f 622/5/6 623/5/6 625/5/6
f 625/5/6 623/5/6 626/5/6
f 616/3/6 624/3/6 627/3/6
f 625/3/6 626/3/6 628/3/6
f 628/3/6 626/3/6 629/3/6
f 616/3/6 627/3/6 630/3/6
f 630/3/6 627/3/6 631/3/6
f 628/4/6 629/4/6 632/4/6
f 632/4/6 629/4/6 633/4/6
f 630/4/6 631/4/6 634/4/6
f 632/3/6 633/3/6 635/3/6
f 635/3/6 633/3/6 636/3/6
f 630/4/6 634/4/6 637/4/6
f 637/4/6 634/4/6 638/4/6
f 635/5/6 636/5/6 642/5/6
f 642/5/6 636/5/6 643/5/6
f 640/3/6 641/3/6 644/3/6
f 638/3/6 639/3/6 644/3/6
f 639/3/6 640/3/6 644/3/6
f 641/4/6 642/4/6 645/4/6
f 644/3/6 641/3/6 645/3/6
f 645/4/6 642/4/6 646/4/6
f 647/4/6 648/4/6 651/4/6
f 651/4/6 648/4/6 652/4/6
f 648/3/6 649/3/6 653/3/6
f 652/4/6 648/4/6 653/4/6
f 649/4/6 650/4/6 654/4/6
f 653/3/6 649/3/6 654/3/6
f 654/4/6 650/4/6 655/4/6
f 655/4/6 650/4/6 656/4/6
f 651/3/6 652/3/6 657/3/6
f 657/3/6 652/3/6 658/3/6
f 657/4/6 658/4/6 659/4/6
f 655/3/6 656/3/6 660/3/6
f 660/3/6 656/3/6 661/3/6
f 657/4/6 659/4/6 662/4/6
f 662/4/6 659/4/6 663/4/6
f 660/4/6 661/4/6 664/4/6
f 664/4/6 661/4/6 665/4/6
f 662/3/6 663/3/6 666/3/6
f 666/3/6 663/3/6 667/3/6
f 664/3/6 665/3/6 670/3/6
f 670/3/6 665/3/6 671/3/6
f 666/5/6 667/5/6 672/5/6
f 667/5/6 668/5/6 672/5/6
f 668/3/6 669/3/6 673/3/6
f 672/5/6 668/5/6 673/5/6
f 669/4/6 670/4/6 674/4/6
f 673/3/6 669/3/6 674/3/6
f 670/5/6 671/5/6 675/5/6
f 674/4/6 670/4/6 675/4/6
f 675/5/6 671/5/6 676/5/6
f 677/3/6 678/3/6 681/3/6
f 681/3/6 678/3/6 682/3/6
f 679/3/6 680/3/6 683/3/6
f 683/3/6 680/3/6 684/3/6
f 685/5/6 686/5/6 689/5/6
f 689/5/6 686/5/6 690/5/6
f 687/3/6 688/3/6 691/3/6
f 691/3/6 688/3/6 692/3/6
f 693/5/6 694/5/6 696/5/6
f 696/5/6 694/5/6 697/5/6
f 697/5/6 694/5/6 698/5/6
f 695/3/6 696/3/6 701/3/6
f 696/2/6 697/2/6 702/2/6
f 701/3/6 696/3/6 702/3/6
f 698/3/6 699/3/6 703/3/6
f 697/1/6 698/1/6 703/1/6
f 703/3/6 699/3/6 704/3/6
f 702/2/6 697/2/6 706/2/6
f 697/1/6 703/1/6 706/1/6
f 703/1/6 704/1/6 706/1/6
f 706/1/6 704/1/6 707/1/6
f 700/3/6 701/3/6 708/3/6
f 701/1/6 702/1/6 709/1/6
f 708/3/6 701/3/6 709/3/6
f 702/2/6 706/2/6 710/2/6
f 709/1/6 702/1/6 710/1/6
f 706/2/6 707/2/6 710/2/6
f 707/1/6 704/1/6 711/1/6
f 710/2/6 707/2/6 711/2/6
f 704/3/6 705/3/6 712/3/6
f 711/1/6 704/1/6 712/1/6
f 712/3/6 705/3/6 713/3/6
f 709/3/6 710/3/6 714/3/6
f 710/1/6 711/1/6 715/1/6
f 714/3/6 710/3/6 715/3/6
f 715/1/6 711/1/6 716/1/6
f 711/3/6 712/3/6 717/3/6
f 716/1/6 711/1/6 717/1/6
f 717/3/6 712/3/6 718/3/6
f 715/3/6 716/3/6 719/3/6
f 716/4/6 717/4/6 720/4/6
f 719/3/6 716/3/6 720/3/6
f 720/4/6 717/4/6 721/4/6
