# MagicaVoxel @ Ephtracy

# group
o 

# material
mtllib VR Токарев картина 2.mtl
usemtl palette

# normals
vn -1 0 0
vn 1 0 0
vn 0 0 1
vn 0 0 -1
vn 0 -1 0
vn 0 1 0

# texcoords
vt 0.208984 0.5
vt 0.232422 0.5
vt 0.349609 0.5
vt 0.369141 0.5
vt 0.373047 0.5
vt 0.486328 0.5
vt 0.513672 0.5
vt 0.525391 0.5
vt 0.537109 0.5
vt 0.724609 0.5
vt 0.728516 0.5
vt 0.744141 0.5
vt 0.755859 0.5
vt 0.841797 0.5
vt 0.853516 0.5
vt 0.958984 0.5
vt 0.962891 0.5
vt 0.966797 0.5
vt 0.982422 0.5
vt 0.986328 0.5
vt 0.994141 0.5

# verts
v -1.1 0.9 -1.8
v -1.1 0.9 -2
v -1.1 3.1 -1.8
v -1.1 3.1 -2
v 1.1 0.9 -1.8
v 1.1 0.9 -2
v 1.1 3.1 -1.8
v 1.1 3.1 -2
v -1.1 0.9 -1.8
v -1.1 3.1 -1.8
v -1 1 -1.8
v -1 3 -1.8
v -0.9 1.1 -1.8
v -0.9 1.4 -1.8
v -0.9 2.6 -1.8
v -0.9 2.7 -1.8
v -0.9 2.8 -1.8
v -0.8 1 -1.8
v -0.8 1.1 -1.8
v -0.8 1.3 -1.8
v -0.8 1.4 -1.8
v -0.8 2.1 -1.8
v -0.8 2.4 -1.8
v -0.8 2.5 -1.8
v -0.8 2.6 -1.8
v -0.8 2.7 -1.8
v -0.8 2.8 -1.8
v -0.8 2.9 -1.8
v -0.7 1 -1.8
v -0.7 1.1 -1.8
v -0.7 1.3 -1.8
v -0.7 1.4 -1.8
v -0.7 2.1 -1.8
v -0.7 2.4 -1.8
v -0.7 2.5 -1.8
v -0.7 2.6 -1.8
v -0.7 2.7 -1.8
v -0.7 2.8 -1.8
v -0.7 2.9 -1.8
v -0.6 1.1 -1.8
v -0.6 1.4 -1.8
v -0.6 2.4 -1.8
v -0.6 2.5 -1.8
v -0.6 2.6 -1.8
v -0.6 2.7 -1.8
v -0.6 2.8 -1.8
v -0.6 2.9 -1.8
v -0.5 1 -1.8
v -0.5 1.4 -1.8
v -0.5 1.5 -1.8
v -0.5 1.6 -1.8
v -0.5 2.6 -1.8
v -0.5 2.7 -1.8
v -0.5 2.8 -1.8
v -0.4 1.1 -1.8
v -0.4 1.2 -1.8
v -0.4 1.4 -1.8
v -0.4 1.5 -1.8
v -0.4 1.6 -1.8
v -0.4 1.7 -1.8
v -0.4 1.8 -1.8
v -0.4 1.9 -1.8
v -0.4 2.1 -1.8
v -0.4 2.2 -1.8
v -0.4 2.3 -1.8
v -0.3 1.1 -1.8
v -0.3 1.2 -1.8
v -0.3 1.3 -1.8
v -0.3 1.7 -1.8
v -0.3 1.8 -1.8
v -0.3 1.9 -1.8
v -0.3 2 -1.8
v -0.3 2.1 -1.8
v -0.3 2.2 -1.8
v -0.3 2.3 -1.8
v -0.3 2.4 -1.8
v -0.3 2.5 -1.8
v -0.3 2.8 -1.8
v -0.3 2.9 -1.8
v -0.2 1.2 -1.8
v -0.2 1.3 -1.8
v -0.2 1.4 -1.8
v -0.2 1.9 -1.8
v -0.2 2 -1.8
v -0.2 2.1 -1.8
v -0.2 2.4 -1.8
v -0.2 2.5 -1.8
v -0.2 2.7 -1.8
v -0.2 2.8 -1.8
v -0.2 2.9 -1.8
v -0.1 1 -1.8
v -0.1 1.3 -1.8
v -0.1 1.4 -1.8
v -0.1 1.7 -1.8
v -0.1 1.9 -1.8
v -0.1 2.1 -1.8
v -0.1 2.2 -1.8
v -0.1 2.3 -1.8
v -0.1 2.4 -1.8
v -0.1 2.5 -1.8
v -0.1 2.7 -1.8
v -0.1 2.8 -1.8
v -0.1 2.9 -1.8
v 0 1 -1.8
v 0 1.3 -1.8
v 0 1.4 -1.8
v 0 1.5 -1.8
v 0 1.6 -1.8
v 0 1.7 -1.8
v 0 1.9 -1.8
v 0 2 -1.8
v 0 2.1 -1.8
v 0 2.2 -1.8
v 0 2.3 -1.8
v 0 2.4 -1.8
v 0 2.5 -1.8
v 0 2.8 -1.8
v 0 2.9 -1.8
v 0.1 1 -1.8
v 0.1 1.3 -1.8
v 0.1 1.4 -1.8
v 0.1 1.5 -1.8
v 0.1 1.9 -1.8
v 0.1 2 -1.8
v 0.1 2.1 -1.8
v 0.2 1.1 -1.8
v 0.2 1.3 -1.8
v 0.2 1.4 -1.8
v 0.2 1.6 -1.8
v 0.2 1.7 -1.8
v 0.2 1.8 -1.8
v 0.2 1.9 -1.8
v 0.2 2.1 -1.8
v 0.2 2.3 -1.8
v 0.2 2.5 -1.8
v 0.2 2.8 -1.8
v 0.3 1 -1.8
v 0.3 1.1 -1.8
v 0.3 1.4 -1.8
v 0.3 1.5 -1.8
v 0.3 1.6 -1.8
v 0.3 1.7 -1.8
v 0.3 1.8 -1.8
v 0.3 1.9 -1.8
v 0.3 2 -1.8
v 0.3 2.1 -1.8
v 0.3 2.3 -1.8
v 0.3 2.4 -1.8
v 0.3 2.5 -1.8
v 0.3 2.7 -1.8
v 0.3 2.8 -1.8
v 0.4 1.3 -1.8
v 0.4 1.4 -1.8
v 0.4 1.5 -1.8
v 0.4 1.7 -1.8
v 0.4 1.8 -1.8
v 0.4 1.9 -1.8
v 0.4 2 -1.8
v 0.4 2.1 -1.8
v 0.4 2.6 -1.8
v 0.4 2.7 -1.8
v 0.5 1 -1.8
v 0.5 1.4 -1.8
v 0.5 1.5 -1.8
v 0.5 1.6 -1.8
v 0.5 1.7 -1.8
v 0.5 1.8 -1.8
v 0.5 1.9 -1.8
v 0.5 2 -1.8
v 0.5 2.1 -1.8
v 0.5 2.4 -1.8
v 0.5 2.5 -1.8
v 0.5 2.6 -1.8
v 0.5 2.8 -1.8
v 0.6 1.6 -1.8
v 0.6 1.7 -1.8
v 0.6 1.8 -1.8
v 0.6 2 -1.8
v 0.6 2.1 -1.8
v 0.6 2.2 -1.8
v 0.6 2.4 -1.8
v 0.6 2.5 -1.8
v 0.6 2.8 -1.8
v 0.7 2 -1.8
v 0.7 2.1 -1.8
v 0.7 2.2 -1.8
v 0.7 2.3 -1.8
v 0.7 2.4 -1.8
v 0.7 2.5 -1.8
v 0.7 2.6 -1.8
v 0.8 1.6 -1.8
v 0.8 1.7 -1.8
v 0.8 1.9 -1.8
v 0.8 2 -1.8
v 0.8 2.2 -1.8
v 0.8 2.3 -1.8
v 0.8 2.4 -1.8
v 0.9 1.8 -1.8
v 0.9 1.9 -1.8
v 0.9 2 -1.8
v 0.9 2.1 -1.8
v 0.9 2.2 -1.8
v 0.9 2.3 -1.8
v 0.9 2.6 -1.8
v 0.9 2.7 -1.8
v 1 1 -1.8
v 1 1.6 -1.8
v 1 1.7 -1.8
v 1 1.8 -1.8
v 1 1.9 -1.8
v 1 2 -1.8
v 1 2.1 -1.8
v 1 2.2 -1.8
v 1 2.3 -1.8
v 1 2.4 -1.8
v 1 2.7 -1.8
v 1 3 -1.8
v 1.1 0.9 -1.8
v 1.1 3.1 -1.8
v -1.1 0.9 -2
v -1.1 3.1 -2
v 1.1 0.9 -2
v 1.1 3.1 -2
v -1.1 0.9 -1.8
v 1.1 0.9 -1.8
v -1.1 0.9 -2
v 1.1 0.9 -2
v -1.1 3.1 -1.8
v 1.1 3.1 -1.8
v -1.1 3.1 -2
v 1.1 3.1 -2

# faces
f 3/4/1 2/4/1 1/4/1
f 4/4/1 2/4/1 3/4/1
f 5/4/2 6/4/2 7/4/2
f 7/4/2 6/4/2 8/4/2
f 11/4/3 10/4/3 9/4/3
f 12/4/3 10/4/3 11/4/3
f 13/9/3 12/9/3 11/9/3
f 14/9/3 12/9/3 13/9/3
f 15/9/3 12/9/3 14/9/3
f 16/9/3 12/9/3 15/9/3
f 17/9/3 12/9/3 16/9/3
f 18/4/3 11/4/3 9/4/3
f 18/9/3 13/9/3 11/9/3
f 19/1/3 14/1/3 13/1/3
f 19/9/3 13/9/3 18/9/3
f 20/1/3 14/1/3 19/1/3
f 21/9/3 15/9/3 14/9/3
f 21/1/3 14/1/3 20/1/3
f 22/9/3 15/9/3 21/9/3
f 23/9/3 15/9/3 22/9/3
f 24/9/3 15/9/3 23/9/3
f 25/16/3 16/16/3 15/16/3
f 25/9/3 15/9/3 24/9/3
f 26/14/3 17/14/3 16/14/3
f 26/16/3 16/16/3 25/16/3
f 27/9/3 12/9/3 17/9/3
f 27/14/3 17/14/3 26/14/3
f 28/9/3 12/9/3 27/9/3
f 29/4/3 18/4/3 9/4/3
f 29/1/3 19/1/3 18/1/3
f 30/2/3 20/2/3 19/2/3
f 30/1/3 19/1/3 29/1/3
f 31/1/3 21/1/3 20/1/3
f 31/2/3 20/2/3 30/2/3
f 32/5/3 22/5/3 21/5/3
f 32/1/3 21/1/3 31/1/3
f 33/9/3 23/9/3 22/9/3
f 33/5/3 22/5/3 32/5/3
f 34/18/3 24/18/3 23/18/3
f 34/9/3 23/9/3 33/9/3
f 35/17/3 25/17/3 24/17/3
f 35/18/3 24/18/3 34/18/3
f 36/14/3 26/14/3 25/14/3
f 36/17/3 25/17/3 35/17/3
f 36/14/3 27/14/3 26/14/3
f 37/14/3 27/14/3 36/14/3
f 38/16/3 28/16/3 27/16/3
f 38/14/3 27/14/3 37/14/3
f 39/9/3 12/9/3 28/9/3
f 39/16/3 28/16/3 38/16/3
f 40/9/3 30/9/3 29/9/3
f 40/1/3 31/1/3 30/1/3
f 40/1/3 32/1/3 31/1/3
f 41/9/3 34/9/3 33/9/3
f 41/1/3 32/1/3 40/1/3
f 41/9/3 33/9/3 32/9/3
f 42/17/3 35/17/3 34/17/3
f 42/9/3 34/9/3 41/9/3
f 43/18/3 36/18/3 35/18/3
f 43/17/3 35/17/3 42/17/3
f 44/14/3 37/14/3 36/14/3
f 44/18/3 36/18/3 43/18/3
f 45/15/3 38/15/3 37/15/3
f 45/14/3 37/14/3 44/14/3
f 45/15/3 39/15/3 38/15/3
f 46/15/3 39/15/3 45/15/3
f 47/9/3 12/9/3 39/9/3
f 47/15/3 39/15/3 46/15/3
f 48/9/3 41/9/3 40/9/3
f 48/9/3 40/9/3 29/9/3
f 48/9/3 44/9/3 43/9/3
f 48/4/3 29/4/3 9/4/3
f 48/9/3 42/9/3 41/9/3
f 48/9/3 43/9/3 42/9/3
f 49/9/3 44/9/3 48/9/3
f 50/9/3 44/9/3 49/9/3
f 51/9/3 44/9/3 50/9/3
f 52/15/3 45/15/3 44/15/3
f 52/9/3 44/9/3 51/9/3
f 53/16/3 46/16/3 45/16/3
f 53/15/3 45/15/3 52/15/3
f 54/9/3 47/9/3 46/9/3
f 54/16/3 46/16/3 53/16/3
f 55/19/3 49/19/3 48/19/3
f 56/19/3 49/19/3 55/19/3
f 57/9/3 50/9/3 49/9/3
f 57/19/3 49/19/3 56/19/3
f 58/19/3 51/19/3 50/19/3
f 58/9/3 50/9/3 57/9/3
f 59/9/3 53/9/3 52/9/3
f 59/19/3 51/19/3 58/19/3
f 59/9/3 52/9/3 51/9/3
f 59/9/3 54/9/3 53/9/3
f 60/9/3 54/9/3 59/9/3
f 61/9/3 54/9/3 60/9/3
f 62/9/3 54/9/3 61/9/3
f 63/9/3 54/9/3 62/9/3
f 64/9/3 54/9/3 63/9/3
f 65/9/3 54/9/3 64/9/3
f 66/19/3 55/19/3 48/19/3
f 66/20/3 56/20/3 55/20/3
f 67/19/3 58/19/3 57/19/3
f 67/20/3 56/20/3 66/20/3
f 67/19/3 57/19/3 56/19/3
f 68/19/3 58/19/3 67/19/3
f 69/9/3 60/9/3 59/9/3
f 69/10/3 61/10/3 60/10/3
f 70/12/3 62/12/3 61/12/3
f 70/10/3 61/10/3 69/10/3
f 71/9/3 63/9/3 62/9/3
f 71/12/3 62/12/3 70/12/3
f 72/9/3 63/9/3 71/9/3
f 73/10/3 64/10/3 63/10/3
f 73/9/3 63/9/3 72/9/3
f 74/12/3 65/12/3 64/12/3
f 74/10/3 64/10/3 73/10/3
f 75/9/3 54/9/3 65/9/3
f 75/12/3 65/12/3 74/12/3
f 76/9/3 54/9/3 75/9/3
f 77/9/3 54/9/3 76/9/3
f 78/9/3 47/9/3 54/9/3
f 78/9/3 54/9/3 77/9/3
f 79/9/3 12/9/3 47/9/3
f 79/9/3 47/9/3 78/9/3
f 80/20/3 68/20/3 67/20/3
f 80/19/3 67/19/3 66/19/3
f 81/19/3 58/19/3 68/19/3
f 81/20/3 68/20/3 80/20/3
f 82/19/3 58/19/3 81/19/3
f 83/12/3 72/12/3 71/12/3
f 83/9/3 70/9/3 69/9/3
f 83/9/3 71/9/3 70/9/3
f 84/10/3 73/10/3 72/10/3
f 84/12/3 72/12/3 83/12/3
f 85/9/3 74/9/3 73/9/3
f 85/10/3 73/10/3 84/10/3
f 85/9/3 75/9/3 74/9/3
f 85/9/3 76/9/3 75/9/3
f 86/17/3 77/17/3 76/17/3
f 86/9/3 76/9/3 85/9/3
f 87/9/3 78/9/3 77/9/3
f 87/17/3 77/17/3 86/17/3
f 88/9/3 78/9/3 87/9/3
f 89/16/3 79/16/3 78/16/3
f 89/9/3 78/9/3 88/9/3
f 90/9/3 12/9/3 79/9/3
f 90/16/3 79/16/3 89/16/3
f 91/19/3 66/19/3 48/19/3
f 91/4/3 48/4/3 9/4/3
f 91/19/3 80/19/3 66/19/3
f 91/19/3 81/19/3 80/19/3
f 92/20/3 82/20/3 81/20/3
f 92/19/3 81/19/3 91/19/3
f 93/19/3 58/19/3 82/19/3
f 93/20/3 82/20/3 92/20/3
f 94/9/3 86/9/3 85/9/3
f 94/9/3 84/9/3 83/9/3
f 94/9/3 85/9/3 84/9/3
f 94/9/3 83/9/3 69/9/3
f 94/9/3 87/9/3 86/9/3
f 94/9/3 69/9/3 59/9/3
f 95/9/3 87/9/3 94/9/3
f 96/9/3 87/9/3 95/9/3
f 97/9/3 87/9/3 96/9/3
f 98/9/3 87/9/3 97/9/3
f 99/9/3 87/9/3 98/9/3
f 100/17/3 88/17/3 87/17/3
f 100/9/3 87/9/3 99/9/3
f 101/16/3 89/16/3 88/16/3
f 101/17/3 88/17/3 100/17/3
f 102/9/3 90/9/3 89/9/3
f 102/16/3 89/16/3 101/16/3
f 103/9/3 12/9/3 90/9/3
f 103/9/3 90/9/3 102/9/3
f 104/20/3 92/20/3 91/20/3
f 104/4/3 91/4/3 9/4/3
f 105/19/3 93/19/3 92/19/3
f 105/20/3 92/20/3 104/20/3
f 106/19/3 58/19/3 93/19/3
f 106/19/3 93/19/3 105/19/3
f 107/20/3 59/20/3 58/20/3
f 107/19/3 58/19/3 106/19/3
f 108/9/3 94/9/3 59/9/3
f 108/20/3 59/20/3 107/20/3
f 109/10/3 95/10/3 94/10/3
f 109/9/3 94/9/3 108/9/3
f 110/9/3 96/9/3 95/9/3
f 110/10/3 95/10/3 109/10/3
f 111/9/3 96/9/3 110/9/3
f 112/12/3 97/12/3 96/12/3
f 112/9/3 96/9/3 111/9/3
f 113/10/3 98/10/3 97/10/3
f 113/12/3 97/12/3 112/12/3
f 114/9/3 99/9/3 98/9/3
f 114/10/3 98/10/3 113/10/3
f 115/16/3 100/16/3 99/16/3
f 115/9/3 99/9/3 114/9/3
f 116/9/3 102/9/3 101/9/3
f 116/16/3 100/16/3 115/16/3
f 116/9/3 101/9/3 100/9/3
f 117/16/3 103/16/3 102/16/3
f 117/9/3 102/9/3 116/9/3
f 118/9/3 12/9/3 103/9/3
f 118/16/3 103/16/3 117/16/3
f 119/19/3 105/19/3 104/19/3
f 119/4/3 104/4/3 9/4/3
f 120/20/3 106/20/3 105/20/3
f 120/19/3 105/19/3 119/19/3
f 121/19/3 107/19/3 106/19/3
f 121/20/3 106/20/3 120/20/3
f 121/19/3 108/19/3 107/19/3
f 122/19/3 108/19/3 121/19/3
f 123/9/3 110/9/3 109/9/3
f 123/9/3 109/9/3 108/9/3
f 123/10/3 111/10/3 110/10/3
f 124/12/3 112/12/3 111/12/3
f 124/10/3 111/10/3 123/10/3
f 125/9/3 115/9/3 114/9/3
f 125/12/3 112/12/3 124/12/3
f 125/9/3 117/9/3 116/9/3
f 125/9/3 118/9/3 117/9/3
f 125/9/3 113/9/3 112/9/3
f 125/9/3 116/9/3 115/9/3
f 125/9/3 114/9/3 113/9/3
f 126/20/3 120/20/3 119/20/3
f 127/19/3 121/19/3 120/19/3
f 127/20/3 120/20/3 126/20/3
f 128/20/3 122/20/3 121/20/3
f 128/19/3 121/19/3 127/19/3
f 129/9/3 124/9/3 123/9/3
f 129/19/3 108/19/3 122/19/3
f 129/9/3 123/9/3 108/9/3
f 129/9/3 125/9/3 124/9/3
f 130/9/3 125/9/3 129/9/3
f 131/9/3 125/9/3 130/9/3
f 132/9/3 125/9/3 131/9/3
f 133/9/3 118/9/3 125/9/3
f 133/9/3 125/9/3 132/9/3
f 134/9/3 118/9/3 133/9/3
f 135/9/3 118/9/3 134/9/3
f 136/9/3 118/9/3 135/9/3
f 137/20/3 126/20/3 119/20/3
f 137/4/3 119/4/3 9/4/3
f 138/19/3 127/19/3 126/19/3
f 138/20/3 126/20/3 137/20/3
f 139/20/3 122/20/3 128/20/3
f 139/20/3 128/20/3 127/20/3
f 140/19/3 129/19/3 122/19/3
f 140/20/3 122/20/3 139/20/3
f 141/5/3 130/5/3 129/5/3
f 141/19/3 129/19/3 140/19/3
f 142/12/3 131/12/3 130/12/3
f 142/5/3 130/5/3 141/5/3
f 143/10/3 132/10/3 131/10/3
f 143/12/3 131/12/3 142/12/3
f 144/9/3 133/9/3 132/9/3
f 144/10/3 132/10/3 143/10/3
f 145/9/3 133/9/3 144/9/3
f 146/12/3 134/12/3 133/12/3
f 146/9/3 133/9/3 145/9/3
f 147/9/3 135/9/3 134/9/3
f 147/12/3 134/12/3 146/12/3
f 148/9/3 135/9/3 147/9/3
f 149/18/3 136/18/3 135/18/3
f 149/9/3 135/9/3 148/9/3
f 150/18/3 136/18/3 149/18/3
f 151/9/3 118/9/3 136/9/3
f 151/18/3 136/18/3 150/18/3
f 152/19/3 127/19/3 138/19/3
f 152/19/3 138/19/3 137/19/3
f 152/20/3 139/20/3 127/20/3
f 153/19/3 140/19/3 139/19/3
f 153/20/3 139/20/3 152/20/3
f 153/19/3 141/19/3 140/19/3
f 154/19/3 141/19/3 153/19/3
f 155/9/3 142/9/3 141/9/3
f 155/5/3 143/5/3 142/5/3
f 156/9/3 144/9/3 143/9/3
f 156/5/3 143/5/3 155/5/3
f 157/10/3 145/10/3 144/10/3
f 157/9/3 144/9/3 156/9/3
f 158/12/3 146/12/3 145/12/3
f 158/10/3 145/10/3 157/10/3
f 159/9/3 148/9/3 147/9/3
f 159/12/3 146/12/3 158/12/3
f 159/9/3 147/9/3 146/9/3
f 160/13/3 150/13/3 149/13/3
f 161/11/3 151/11/3 150/11/3
f 161/13/3 150/13/3 160/13/3
f 162/4/3 137/4/3 9/4/3
f 162/19/3 152/19/3 137/19/3
f 162/19/3 153/19/3 152/19/3
f 163/9/3 154/9/3 153/9/3
f 163/19/3 153/19/3 162/19/3
f 164/19/3 141/19/3 154/19/3
f 164/9/3 154/9/3 163/9/3
f 165/9/3 156/9/3 155/9/3
f 165/19/3 141/19/3 164/19/3
f 165/9/3 155/9/3 141/9/3
f 166/9/3 156/9/3 165/9/3
f 167/5/3 157/5/3 156/5/3
f 167/9/3 156/9/3 166/9/3
f 168/9/3 158/9/3 157/9/3
f 168/5/3 157/5/3 167/5/3
f 168/9/3 159/9/3 158/9/3
f 169/9/3 159/9/3 168/9/3
f 170/9/3 148/9/3 159/9/3
f 170/9/3 159/9/3 169/9/3
f 171/18/3 149/18/3 148/18/3
f 171/9/3 148/9/3 170/9/3
f 172/13/3 160/13/3 149/13/3
f 172/18/3 149/18/3 171/18/3
f 173/11/3 161/11/3 160/11/3
f 173/13/3 160/13/3 172/13/3
f 174/9/3 118/9/3 151/9/3
f 174/11/3 161/11/3 173/11/3
f 174/11/3 151/11/3 161/11/3
f 175/9/3 163/9/3 162/9/3
f 175/9/3 165/9/3 164/9/3
f 175/9/3 164/9/3 163/9/3
f 175/9/3 166/9/3 165/9/3
f 176/3/3 167/3/3 166/3/3
f 176/9/3 166/9/3 175/9/3
f 177/9/3 169/9/3 168/9/3
f 177/3/3 167/3/3 176/3/3
f 177/9/3 168/9/3 167/9/3
f 178/3/3 170/3/3 169/3/3
f 178/9/3 169/9/3 177/9/3
f 179/9/3 171/9/3 170/9/3
f 179/3/3 170/3/3 178/3/3
f 179/9/3 172/9/3 171/9/3
f 180/9/3 172/9/3 179/9/3
f 181/9/3 172/9/3 180/9/3
f 182/18/3 173/18/3 172/18/3
f 182/9/3 172/9/3 181/9/3
f 182/18/3 174/18/3 173/18/3
f 183/9/3 118/9/3 174/9/3
f 183/18/3 174/18/3 182/18/3
f 184/9/3 178/9/3 177/9/3
f 184/9/3 177/9/3 176/9/3
f 184/9/3 179/9/3 178/9/3
f 185/3/3 180/3/3 179/3/3
f 185/9/3 179/9/3 184/9/3
f 186/9/3 181/9/3 180/9/3
f 186/3/3 180/3/3 185/3/3
f 187/9/3 181/9/3 186/9/3
f 188/8/3 182/8/3 181/8/3
f 188/9/3 181/9/3 187/9/3
f 189/9/3 183/9/3 182/9/3
f 189/8/3 182/8/3 188/8/3
f 190/9/3 183/9/3 189/9/3
f 191/3/3 176/3/3 175/3/3
f 191/9/3 175/9/3 162/9/3
f 192/9/3 184/9/3 176/9/3
f 192/3/3 176/3/3 191/3/3
f 193/9/3 184/9/3 192/9/3
f 194/7/3 185/7/3 184/7/3
f 194/9/3 184/9/3 193/9/3
f 195/21/3 187/21/3 186/21/3
f 195/3/3 186/3/3 185/3/3
f 196/3/3 188/3/3 187/3/3
f 196/21/3 187/21/3 195/21/3
f 197/8/3 190/8/3 189/8/3
f 197/3/3 188/3/3 196/3/3
f 197/8/3 189/8/3 188/8/3
f 198/9/3 193/9/3 192/9/3
f 199/3/3 194/3/3 193/3/3
f 199/9/3 193/9/3 198/9/3
f 200/7/3 185/7/3 194/7/3
f 200/3/3 194/3/3 199/3/3
f 201/3/3 195/3/3 185/3/3
f 201/7/3 185/7/3 200/7/3
f 202/16/3 196/16/3 195/16/3
f 202/3/3 195/3/3 201/3/3
f 203/6/3 197/6/3 196/6/3
f 203/16/3 196/16/3 202/16/3
f 204/8/3 190/8/3 197/8/3
f 204/9/3 183/9/3 190/9/3
f 205/9/3 183/9/3 204/9/3
f 206/4/3 162/4/3 9/4/3
f 206/9/3 191/9/3 162/9/3
f 207/6/3 192/6/3 191/6/3
f 207/9/3 191/9/3 206/9/3
f 208/9/3 198/9/3 192/9/3
f 208/6/3 192/6/3 207/6/3
f 209/6/3 199/6/3 198/6/3
f 209/9/3 198/9/3 208/9/3
f 210/9/3 200/9/3 199/9/3
f 210/6/3 199/6/3 209/6/3
f 211/3/3 201/3/3 200/3/3
f 211/9/3 200/9/3 210/9/3
f 212/7/3 202/7/3 201/7/3
f 212/3/3 201/3/3 211/3/3
f 213/3/3 203/3/3 202/3/3
f 213/7/3 202/7/3 212/7/3
f 214/6/3 197/6/3 203/6/3
f 214/3/3 203/3/3 213/3/3
f 215/8/3 205/8/3 204/8/3
f 215/6/3 197/6/3 214/6/3
f 215/8/3 204/8/3 197/8/3
f 216/9/3 183/9/3 205/9/3
f 216/8/3 205/8/3 215/8/3
f 217/9/3 12/9/3 118/9/3
f 217/9/3 183/9/3 216/9/3
f 217/4/3 10/4/3 12/4/3
f 217/9/3 118/9/3 183/9/3
f 218/4/3 216/4/3 215/4/3
f 218/4/3 211/4/3 210/4/3
f 218/4/3 217/4/3 216/4/3
f 218/4/3 207/4/3 206/4/3
f 218/4/3 214/4/3 213/4/3
f 218/4/3 209/4/3 208/4/3
f 218/4/3 208/4/3 207/4/3
f 218/4/3 210/4/3 209/4/3
f 218/4/3 206/4/3 9/4/3
f 218/4/3 215/4/3 214/4/3
f 218/4/3 212/4/3 211/4/3
f 218/4/3 213/4/3 212/4/3
f 219/4/3 10/4/3 217/4/3
f 219/4/3 217/4/3 218/4/3
f 220/4/4 221/4/4 222/4/4
f 222/4/4 221/4/4 223/4/4
f 226/4/5 225/4/5 224/4/5
f 227/4/5 225/4/5 226/4/5
f 228/4/6 229/4/6 230/4/6
f 230/4/6 229/4/6 231/4/6
