# MagicaVoxel @ Ephtracy

# group
o 

# material
mtllib VR Токарев вода.mtl
usemtl palette

# normals
vn -1 0 0
vn 1 0 0
vn 0 0 1
vn 0 0 -1
vn 0 -1 0
vn 0 1 0

# texcoords
vt 0.587891 0.5
vt 0.728516 0.5
vt 0.751953 0.5
vt 0.755859 0.5
vt 0.962891 0.5
vt 0.966797 0.5

# verts
v -0.6 0.3 0.3
v -0.6 0.3 -0.2
v -0.6 0.3 -0.3
v -0.6 0.4 0.2
v -0.6 0.4 0.0999999
v -0.6 0.7 -0.1
v -0.6 0.7 -0.2
v -0.6 0.8 0.3
v -0.6 0.8 0.2
v -0.6 0.8 0.0999999
v -0.6 0.8 -0.1
v -0.6 0.8 -0.3
v -0.5 0.2 0.4
v -0.5 0.2 -0.3
v -0.5 0.2 -0.4
v -0.5 0.3 0.3
v -0.5 0.3 -0.2
v -0.5 0.3 -0.3
v -0.5 0.3 -0.4
v -0.5 0.8 0.3
v -0.5 0.8 0.2
v -0.5 0.8 0.0999999
v -0.5 0.8 -0.1
v -0.5 0.8 -0.2
v -0.5 0.8 -0.3
v -0.5 0.9 0.4
v -0.5 0.9 0.3
v -0.5 0.9 0.2
v -0.5 0.9 0.0999999
v -0.5 0.9 -5.96046e-08
v -0.5 0.9 -0.1
v -0.5 1 0.4
v -0.5 1 0.2
v -0.5 1 -5.96046e-08
v -0.5 1 -0.2
v -0.5 1.1 -5.96046e-08
v -0.5 1.1 -0.1
v -0.5 1.2 -5.96046e-08
v -0.5 1.2 -0.1
v -0.5 1.2 -0.2
v -0.5 1.3 0.4
v -0.5 1.3 -5.96046e-08
v -0.5 1.3 -0.1
v -0.5 1.3 -0.2
v -0.5 1.3 -0.4
v -0.4 0.1 0.4
v -0.4 0.1 0.0999999
v -0.4 0.1 -0.4
v -0.4 0.2 0.5
v -0.4 0.2 0.4
v -0.4 0.2 0.0999999
v -0.4 0.2 -0.3
v -0.4 0.2 -0.4
v -0.4 0.2 -0.5
v -0.4 0.3 -0.4
v -0.4 0.3 -0.5
v -0.4 0.4 0.5
v -0.4 0.4 0.4
v -0.4 0.6 0.5
v -0.4 0.6 0.4
v -0.4 0.8 -0.4
v -0.4 0.8 -0.5
v -0.4 0.9 0.4
v -0.4 1 0.4
v -0.4 1 -0.4
v -0.4 1 -0.5
v -0.4 1.2 -0.4
v -0.4 1.2 -0.5
v -0.4 1.3 0.5
v -0.4 1.3 0.4
v -0.4 1.3 -5.96046e-08
v -0.4 1.3 -0.1
v -0.4 1.3 -0.2
v -0.4 1.3 -0.4
v -0.4 1.3 -0.5
v -0.4 1.4 0.4
v -0.4 1.4 -0.1
v -0.4 1.4 -0.2
v -0.4 1.4 -0.4
v -0.3 0.3 0.6
v -0.3 0.3 0.5
v -0.3 0.3 -0.5
v -0.3 0.3 -0.6
v -0.3 0.4 0.5
v -0.3 0.5 0.6
v -0.3 0.5 0.5
v -0.3 0.5 -0.5
v -0.3 0.5 -0.6
v -0.3 0.6 0.5
v -0.3 0.8 0.6
v -0.3 0.8 0.5
v -0.3 0.8 -0.5
v -0.3 0.8 -0.6
v -0.3 0.9 0.6
v -0.3 0.9 0.5
v -0.3 1.4 0.3
v -0.3 1.4 0.2
v -0.3 1.4 0.0999999
v -0.3 1.4 -0.1
v -0.3 1.4 -0.2
v -0.3 1.4 -0.3
v -0.3 1.5 0.3
v -0.3 1.5 0.2
v -0.3 1.5 0.0999999
v -0.3 1.5 -0.1
v -0.3 1.5 -0.2
v -0.3 1.5 -0.3
v -0.2 1.5 0.2
v -0.2 1.5 0.0999999
v -0.2 1.5 -0.1
v -0.2 1.5 -0.2
v -0.2 1.6 -5.96046e-08
v -0.2 1.6 -0.1
v -0.2 1.6 -0.2
v -0.2 1.7 0.2
v -0.2 1.7 0.0999999
v -0.2 1.7 -5.96046e-08
v -0.2 1.7 -0.1
v -0.2 1.7 -0.2
v -0.2 1.8 0.2
v -0.2 1.8 0.0999999
v -0.2 1.8 -5.96046e-08
v -0.2 1.8 -0.1
v -0.2 1.8 -0.2
v -0.2 1.9 0.2
v -0.2 1.9 0.0999999
v -0.2 1.9 -5.96046e-08
v -0.2 2 0.2
v -0.2 2 0.0999999
v -0.2 2 -5.96046e-08
v -0.2 2 -0.1
v -0.2 2 -0.2
v 0.2 1.5 0.2
v 0.2 1.5 0.0999999
v 0.2 1.5 -5.96046e-08
v 0.2 1.5 -0.1
v 0.2 1.5 -0.2
v 0.2 1.6 0.0999999
v 0.2 1.6 -5.96046e-08
v 0.2 1.8 0.0999999
v 0.2 1.8 -5.96046e-08
v 0.2 1.8 -0.1
v 0.2 1.8 -0.2
v 0.2 1.9 0.2
v 0.2 1.9 0.0999999
v 0.2 1.9 -5.96046e-08
v 0.2 1.9 -0.1
v 0.2 2 0.2
v 0.2 2 0.0999999
v 0.2 2 -0.1
v 0.2 2 -0.2
v 0.3 0.3 0.6
v 0.3 0.3 0.5
v 0.3 0.3 -0.5
v 0.3 0.3 -0.6
v 0.3 0.4 -0.5
v 0.3 0.4 -0.6
v 0.3 0.7 0.5
v 0.3 0.8 0.6
v 0.3 0.8 0.5
v 0.3 0.8 -0.5
v 0.3 0.8 -0.6
v 0.3 0.9 0.6
v 0.3 0.9 0.5
v 0.3 1.4 0.3
v 0.3 1.4 0.0999999
v 0.3 1.4 -5.96046e-08
v 0.3 1.4 -0.1
v 0.3 1.4 -0.2
v 0.3 1.4 -0.3
v 0.3 1.5 0.3
v 0.3 1.5 0.0999999
v 0.3 1.5 -5.96046e-08
v 0.3 1.5 -0.1
v 0.3 1.5 -0.2
v 0.3 1.5 -0.3
v 0.4 0.1 0.4
v 0.4 0.1 0.3
v 0.4 0.1 0.0999999
v 0.4 0.1 -0.1
v 0.4 0.1 -0.3
v 0.4 0.1 -0.4
v 0.4 0.2 0.5
v 0.4 0.2 0.4
v 0.4 0.2 0.3
v 0.4 0.2 0.2
v 0.4 0.2 0.0999999
v 0.4 0.2 -0.1
v 0.4 0.2 -0.2
v 0.4 0.2 -0.3
v 0.4 0.2 -0.4
v 0.4 0.2 -0.5
v 0.4 0.3 -0.4
v 0.4 0.4 -0.4
v 0.4 0.4 -0.5
v 0.4 0.5 -0.4
v 0.4 0.6 0.4
v 0.4 0.7 0.5
v 0.4 0.7 0.4
v 0.4 0.8 0.4
v 0.4 0.9 0.5
v 0.4 0.9 0.4
v 0.4 0.9 -0.4
v 0.4 0.9 -0.5
v 0.4 1.1 -0.4
v 0.4 1.1 -0.5
v 0.4 1.2 0.5
v 0.4 1.2 0.4
v 0.4 1.2 -0.4
v 0.4 1.2 -0.5
v 0.4 1.3 0.5
v 0.4 1.3 0.4
v 0.4 1.3 0.3
v 0.4 1.3 0.0999999
v 0.4 1.3 -5.96046e-08
v 0.4 1.3 -0.1
v 0.4 1.3 -0.4
v 0.4 1.3 -0.5
v 0.4 1.4 0.4
v 0.4 1.4 0.0999999
v 0.4 1.4 -0.1
v 0.4 1.4 -0.4
v 0.5 0.2 0.4
v 0.5 0.2 0.2
v 0.5 0.2 -0.2
v 0.5 0.2 -0.4
v 0.5 0.3 0.3
v 0.5 0.3 0.2
v 0.5 0.3 -0.2
v 0.5 0.3 -0.3
v 0.5 0.3 -0.4
v 0.5 0.4 0.3
v 0.5 0.5 -0.3
v 0.5 0.5 -0.4
v 0.5 0.6 0.4
v 0.5 0.6 0.3
v 0.5 0.8 0.4
v 0.5 0.8 0.3
v 0.5 0.8 -0.1
v 0.5 0.8 -0.2
v 0.5 0.8 -0.3
v 0.5 0.9 -0.1
v 0.5 0.9 -0.2
v 0.5 1 -0.2
v 0.5 1 -0.3
v 0.5 1.1 0.0999999
v 0.5 1.1 -0.1
v 0.5 1.1 -0.2
v 0.5 1.1 -0.3
v 0.5 1.1 -0.4
v 0.5 1.2 0.4
v 0.5 1.2 0.3
v 0.5 1.2 0.0999999
v 0.5 1.2 -5.96046e-08
v 0.5 1.2 -0.1
v 0.5 1.2 -0.2
v 0.5 1.2 -0.4
v 0.5 1.3 0.4
v 0.5 1.3 0.3
v 0.5 1.3 -5.96046e-08
v 0.5 1.3 -0.1
v 0.5 1.3 -0.4
v 0.6 0.3 0.3
v 0.6 0.3 -0.3
v 0.6 0.4 0.3
v 0.6 0.4 0.2
v 0.6 0.5 0.2
v 0.6 0.5 -5.96046e-08
v 0.6 0.6 0.3
v 0.6 0.6 -5.96046e-08
v 0.6 0.6 -0.1
v 0.6 0.7 -5.96046e-08
v 0.6 0.7 -0.1
v 0.6 0.7 -0.2
v 0.6 0.8 0.3
v 0.6 0.8 -0.1
v 0.6 0.8 -0.2
v 0.6 0.8 -0.3
v -0.3 0.3 0.6
v -0.3 0.5 0.6
v -0.3 0.8 0.6
v -0.3 0.9 0.6
v -0.2 0.5 0.6
v -0.2 0.7 0.6
v -0.2 0.8 0.6
v -0.2 0.9 0.6
v -0.0999999 0.7 0.6
v -0.0999999 0.9 0.6
v 5.96046e-08 0.3 0.6
v 5.96046e-08 0.6 0.6
v 0.1 0.3 0.6
v 0.1 0.6 0.6
v 0.1 0.8 0.6
v 0.1 0.9 0.6
v 0.3 0.3 0.6
v 0.3 0.8 0.6
v 0.3 0.9 0.6
v -0.4 0.2 0.5
v -0.4 0.4 0.5
v -0.4 0.6 0.5
v -0.4 1.3 0.5
v -0.3 0.3 0.5
v -0.3 0.4 0.5
v -0.3 0.5 0.5
v -0.3 0.6 0.5
v -0.3 0.8 0.5
v -0.3 0.9 0.5
v -0.2 0.2 0.5
v -0.2 0.3 0.5
v -0.2 0.9 0.5
v -0.2 1 0.5
v -0.2 1.2 0.5
v -0.2 1.3 0.5
v -0.0999999 0.2 0.5
v -0.0999999 0.3 0.5
v -0.0999999 0.9 0.5
v -0.0999999 1 0.5
v -0.0999999 1.2 0.5
v -0.0999999 1.3 0.5
v 5.96046e-08 0.3 0.5
v 5.96046e-08 1 0.5
v 5.96046e-08 1.1 0.5
v 5.96046e-08 1.2 0.5
v 5.96046e-08 1.3 0.5
v 0.1 0.3 0.5
v 0.1 0.9 0.5
v 0.1 1.1 0.5
v 0.1 1.2 0.5
v 0.2 1 0.5
v 0.2 1.1 0.5
v 0.2 1.2 0.5
v 0.2 1.3 0.5
v 0.3 0.3 0.5
v 0.3 0.7 0.5
v 0.3 0.8 0.5
v 0.3 0.9 0.5
v 0.3 1.1 0.5
v 0.3 1.2 0.5
v 0.4 0.2 0.5
v 0.4 0.7 0.5
v 0.4 0.9 0.5
v 0.4 1.2 0.5
v 0.4 1.3 0.5
v -0.5 0.2 0.4
v -0.5 0.9 0.4
v -0.5 1 0.4
v -0.5 1.3 0.4
v -0.4 0.1 0.4
v -0.4 0.2 0.4
v -0.4 0.4 0.4
v -0.4 0.6 0.4
v -0.4 0.9 0.4
v -0.4 1 0.4
v -0.4 1.3 0.4
v -0.4 1.4 0.4
v -0.2 0.1 0.4
v -0.2 0.2 0.4
v -0.2 1.3 0.4
v -0.0999999 0.2 0.4
v -0.0999999 1.3 0.4
v -0.0999999 1.4 0.4
v 5.96046e-08 1.3 0.4
v 5.96046e-08 1.4 0.4
v 0.2 1.3 0.4
v 0.4 0.1 0.4
v 0.4 0.2 0.4
v 0.4 0.6 0.4
v 0.4 0.7 0.4
v 0.4 0.8 0.4
v 0.4 0.9 0.4
v 0.4 1.2 0.4
v 0.4 1.3 0.4
v 0.4 1.4 0.4
v 0.5 0.2 0.4
v 0.5 0.6 0.4
v 0.5 0.8 0.4
v 0.5 1.2 0.4
v 0.5 1.3 0.4
v -0.6 0.3 0.3
v -0.6 0.8 0.3
v -0.5 0.3 0.3
v -0.5 0.8 0.3
v -0.3 1.4 0.3
v -0.3 1.5 0.3
v -0.0999999 1.4 0.3
v -0.0999999 1.5 0.3
v 5.96046e-08 1.4 0.3
v 0.2 1.4 0.3
v 0.2 1.5 0.3
v 0.3 1.4 0.3
v 0.3 1.5 0.3
v 0.5 0.3 0.3
v 0.5 0.4 0.3
v 0.5 0.6 0.3
v 0.5 0.8 0.3
v 0.6 0.3 0.3
v 0.6 0.4 0.3
v 0.6 0.6 0.3
v 0.6 0.8 0.3
v -0.2 1.5 0.2
v -0.2 1.7 0.2
v -0.2 1.8 0.2
v -0.2 1.9 0.2
v -0.2 2 0.2
v -0.0999999 1.5 0.2
v -0.0999999 1.6 0.2
v -0.0999999 1.7 0.2
v -0.0999999 1.8 0.2
v -0.0999999 1.9 0.2
v 5.96046e-08 1.5 0.2
v 5.96046e-08 1.6 0.2
v 5.96046e-08 1.7 0.2
v 5.96046e-08 1.8 0.2
v 5.96046e-08 1.9 0.2
v 5.96046e-08 2 0.2
v 0.1 1.6 0.2
v 0.1 1.7 0.2
v 0.1 1.8 0.2
v 0.1 1.9 0.2
v 0.1 2 0.2
v 0.2 1.5 0.2
v 0.2 1.9 0.2
v 0.2 2 0.2
v -0.2 1.5 -0.2
v -0.2 1.6 -0.2
v -0.2 1.7 -0.2
v -0.2 1.8 -0.2
v -0.2 2 -0.2
v -0.0999999 1.6 -0.2
v -0.0999999 1.7 -0.2
v -0.0999999 1.8 -0.2
v -0.0999999 2 -0.2
v 5.96046e-08 1.5 -0.2
v 5.96046e-08 1.6 -0.2
v 5.96046e-08 1.7 -0.2
v 5.96046e-08 2 -0.2
v 0.1 1.5 -0.2
v 0.1 1.7 -0.2
v 0.1 1.8 -0.2
v 0.1 2 -0.2
v 0.2 1.5 -0.2
v 0.2 1.8 -0.2
v 0.2 2 -0.2
v -0.6 0.3 -0.3
v -0.6 0.8 -0.3
v -0.5 0.3 -0.3
v -0.5 0.8 -0.3
v -0.3 1.4 -0.3
v -0.3 1.5 -0.3
v 5.96046e-08 1.4 -0.3
v 5.96046e-08 1.5 -0.3
v 0.1 1.4 -0.3
v 0.2 1.4 -0.3
v 0.3 1.4 -0.3
v 0.3 1.5 -0.3
v 0.5 0.3 -0.3
v 0.5 0.5 -0.3
v 0.5 0.8 -0.3
v 0.6 0.3 -0.3
v 0.6 0.8 -0.3
v -0.5 0.2 -0.4
v -0.5 0.3 -0.4
v -0.5 1.3 -0.4
v -0.4 0.1 -0.4
v -0.4 0.2 -0.4
v -0.4 0.3 -0.4
v -0.4 0.8 -0.4
v -0.4 1 -0.4
v -0.4 1.2 -0.4
v -0.4 1.3 -0.4
v -0.4 1.4 -0.4
v -0.3 1.3 -0.4
v 5.96046e-08 0.2 -0.4
v 5.96046e-08 1.3 -0.4
v 5.96046e-08 1.4 -0.4
v 0.1 1.3 -0.4
v 0.1 1.4 -0.4
v 0.2 1.3 -0.4
v 0.2 1.4 -0.4
v 0.4 0.1 -0.4
v 0.4 0.2 -0.4
v 0.4 0.3 -0.4
v 0.4 0.4 -0.4
v 0.4 0.5 -0.4
v 0.4 0.9 -0.4
v 0.4 1.1 -0.4
v 0.4 1.2 -0.4
v 0.4 1.3 -0.4
v 0.4 1.4 -0.4
v 0.5 0.2 -0.4
v 0.5 0.3 -0.4
v 0.5 0.5 -0.4
v 0.5 1.1 -0.4
v 0.5 1.2 -0.4
v 0.5 1.3 -0.4
v -0.4 0.2 -0.5
v -0.4 0.3 -0.5
v -0.4 0.8 -0.5
v -0.4 1 -0.5
v -0.4 1.2 -0.5
v -0.4 1.3 -0.5
v -0.3 0.3 -0.5
v -0.3 0.5 -0.5
v -0.3 0.8 -0.5
v -0.3 0.9 -0.5
v -0.3 1 -0.5
v -0.3 1.1 -0.5
v -0.3 1.2 -0.5
v -0.3 1.3 -0.5
v -0.2 0.8 -0.5
v -0.2 0.9 -0.5
v -0.2 1 -0.5
v -0.2 1.1 -0.5
v -0.0999999 0.8 -0.5
v -0.0999999 1 -0.5
v -0.0999999 1.1 -0.5
v -0.0999999 1.2 -0.5
v 5.96046e-08 0.2 -0.5
v 5.96046e-08 0.3 -0.5
v 5.96046e-08 0.8 -0.5
v 5.96046e-08 1.1 -0.5
v 5.96046e-08 1.2 -0.5
v 5.96046e-08 1.3 -0.5
v 0.1 0.3 -0.5
v 0.1 1.2 -0.5
v 0.1 1.3 -0.5
v 0.2 1.2 -0.5
v 0.2 1.3 -0.5
v 0.3 0.3 -0.5
v 0.3 0.4 -0.5
v 0.3 0.8 -0.5
v 0.3 0.9 -0.5
v 0.3 1.1 -0.5
v 0.3 1.2 -0.5
v 0.4 0.2 -0.5
v 0.4 0.4 -0.5
v 0.4 0.9 -0.5
v 0.4 1.1 -0.5
v 0.4 1.2 -0.5
v 0.4 1.3 -0.5
v -0.3 0.3 -0.6
v -0.3 0.5 -0.6
v -0.3 0.8 -0.6
v -0.2 0.5 -0.6
v -0.2 0.8 -0.6
v 0.1 0.3 -0.6
v 0.1 0.7 -0.6
v 0.2 0.4 -0.6
v 0.2 0.7 -0.6
v 0.3 0.3 -0.6
v 0.3 0.4 -0.6
v 0.3 0.8 -0.6
v -0.4 0.1 0.4
v -0.2 0.1 0.4
v 0.4 0.1 0.4
v -0.3 0.1 0.3
v -0.2 0.1 0.3
v 0.3 0.1 0.3
v 0.4 0.1 0.3
v -0.3 0.1 0.2
v -0.2 0.1 0.2
v -0.4 0.1 0.0999999
v -0.3 0.1 0.0999999
v -0.2 0.1 0.0999999
v -0.0999999 0.1 0.0999999
v 0.3 0.1 0.0999999
v 0.4 0.1 0.0999999
v -0.3 0.1 -5.96046e-08
v -0.0999999 0.1 -5.96046e-08
v 0.1 0.1 -5.96046e-08
v -0.0999999 0.1 -0.1
v 0.1 0.1 -0.1
v 0.3 0.1 -0.1
v 0.4 0.1 -0.1
v 0.2 0.1 -0.2
v 0.3 0.1 -0.2
v 0.2 0.1 -0.3
v 0.4 0.1 -0.3
v -0.4 0.1 -0.4
v 0.4 0.1 -0.4
v -0.4 0.2 0.5
v -0.2 0.2 0.5
v -0.0999999 0.2 0.5
v 0.4 0.2 0.5
v -0.5 0.2 0.4
v -0.4 0.2 0.4
v -0.2 0.2 0.4
v -0.0999999 0.2 0.4
v 0.4 0.2 0.4
v 0.5 0.2 0.4
v 0.4 0.2 0.3
v 0.4 0.2 0.2
v 0.5 0.2 0.2
v -0.4 0.2 0.0999999
v 0.4 0.2 0.0999999
v 0.4 0.2 -0.1
v 0.4 0.2 -0.2
v 0.5 0.2 -0.2
v -0.5 0.2 -0.3
v -0.4 0.2 -0.3
v 0.4 0.2 -0.3
v -0.5 0.2 -0.4
v -0.4 0.2 -0.4
v 5.96046e-08 0.2 -0.4
v 0.4 0.2 -0.4
v 0.5 0.2 -0.4
v -0.4 0.2 -0.5
v 5.96046e-08 0.2 -0.5
v 0.4 0.2 -0.5
v -0.3 0.3 0.6
v 5.96046e-08 0.3 0.6
v 0.1 0.3 0.6
v 0.3 0.3 0.6
v -0.3 0.3 0.5
v -0.2 0.3 0.5
v -0.0999999 0.3 0.5
v 5.96046e-08 0.3 0.5
v 0.1 0.3 0.5
v 0.3 0.3 0.5
v -0.6 0.3 0.3
v -0.5 0.3 0.3
v 0.5 0.3 0.3
v 0.6 0.3 0.3
v 0.5 0.3 0.2
v -0.6 0.3 -0.2
v -0.5 0.3 -0.2
v 0.5 0.3 -0.2
v -0.6 0.3 -0.3
v -0.5 0.3 -0.3
v 0.5 0.3 -0.3
v 0.6 0.3 -0.3
v -0.3 0.3 -0.5
v 5.96046e-08 0.3 -0.5
v 0.1 0.3 -0.5
v 0.3 0.3 -0.5
v -0.3 0.3 -0.6
v 0.1 0.3 -0.6
v 0.3 0.3 -0.6
v -0.6 0.8 0.3
v -0.5 0.8 0.3
v 0.5 0.8 0.3
v 0.6 0.8 0.3
v -0.6 0.8 0.2
v -0.5 0.8 0.2
v -0.6 0.8 0.0999999
v -0.5 0.8 0.0999999
v -0.6 0.8 -0.1
v -0.5 0.8 -0.1
v 0.5 0.8 -0.1
v 0.6 0.8 -0.1
v -0.5 0.8 -0.2
v 0.5 0.8 -0.2
v 0.6 0.8 -0.2
v -0.6 0.8 -0.3
v -0.5 0.8 -0.3
v 0.5 0.8 -0.3
v 0.6 0.8 -0.3
v -0.3 0.8 -0.5
v -0.2 0.8 -0.5
v -0.0999999 0.8 -0.5
v 5.96046e-08 0.8 -0.5
v 0.3 0.8 -0.5
v -0.3 0.8 -0.6
v -0.2 0.8 -0.6
v 0.3 0.8 -0.6
v -0.3 0.9 0.6
v -0.2 0.9 0.6
v -0.0999999 0.9 0.6
v 0.1 0.9 0.6
v 0.3 0.9 0.6
v -0.3 0.9 0.5
v -0.2 0.9 0.5
v -0.0999999 0.9 0.5
v 0.1 0.9 0.5
v 0.3 0.9 0.5
v -0.4 1.3 0.5
v -0.2 1.3 0.5
v -0.0999999 1.3 0.5
v 5.96046e-08 1.3 0.5
v 0.2 1.3 0.5
v 0.4 1.3 0.5
v -0.5 1.3 0.4
v -0.4 1.3 0.4
v -0.2 1.3 0.4
v -0.0999999 1.3 0.4
v 5.96046e-08 1.3 0.4
v 0.2 1.3 0.4
v 0.4 1.3 0.4
v 0.5 1.3 0.4
v 0.4 1.3 0.3
v 0.5 1.3 0.3
v 0.4 1.3 0.0999999
v -0.5 1.3 -5.96046e-08
v -0.4 1.3 -5.96046e-08
v 0.4 1.3 -5.96046e-08
v 0.5 1.3 -5.96046e-08
v -0.5 1.3 -0.1
v -0.4 1.3 -0.1
v 0.4 1.3 -0.1
v 0.5 1.3 -0.1
v -0.5 1.3 -0.2
v -0.4 1.3 -0.2
v -0.5 1.3 -0.4
v -0.4 1.3 -0.4
v -0.3 1.3 -0.4
v 5.96046e-08 1.3 -0.4
v 0.1 1.3 -0.4
v 0.2 1.3 -0.4
v 0.4 1.3 -0.4
v 0.5 1.3 -0.4
v -0.4 1.3 -0.5
v -0.3 1.3 -0.5
v 5.96046e-08 1.3 -0.5
v 0.1 1.3 -0.5
v 0.2 1.3 -0.5
v 0.4 1.3 -0.5
v -0.4 1.4 0.4
v -0.0999999 1.4 0.4
v 5.96046e-08 1.4 0.4
v 0.4 1.4 0.4
v -0.3 1.4 0.3
v -0.0999999 1.4 0.3
v 5.96046e-08 1.4 0.3
v 0.2 1.4 0.3
v 0.3 1.4 0.3
v -0.3 1.4 0.2
v -0.3 1.4 0.0999999
v 0.3 1.4 0.0999999
v 0.4 1.4 0.0999999
v 0.3 1.4 -5.96046e-08
v -0.4 1.4 -0.1
v -0.3 1.4 -0.1
v 0.3 1.4 -0.1
v 0.4 1.4 -0.1
v -0.4 1.4 -0.2
v -0.3 1.4 -0.2
v 0.3 1.4 -0.2
v -0.3 1.4 -0.3
v 5.96046e-08 1.4 -0.3
v 0.1 1.4 -0.3
v 0.2 1.4 -0.3
v 0.3 1.4 -0.3
v -0.4 1.4 -0.4
v 5.96046e-08 1.4 -0.4
v 0.1 1.4 -0.4
v 0.2 1.4 -0.4
v 0.4 1.4 -0.4
v -0.3 1.5 0.3
v -0.0999999 1.5 0.3
v 0.2 1.5 0.3
v 0.3 1.5 0.3
v -0.3 1.5 0.2
v -0.2 1.5 0.2
v -0.0999999 1.5 0.2
v 5.96046e-08 1.5 0.2
v 0.2 1.5 0.2
v -0.3 1.5 0.0999999
v -0.2 1.5 0.0999999
v 0.2 1.5 0.0999999
v 0.3 1.5 0.0999999
v 0.2 1.5 -5.96046e-08
v 0.3 1.5 -5.96046e-08
v -0.3 1.5 -0.1
v -0.2 1.5 -0.1
v 0.2 1.5 -0.1
v 0.3 1.5 -0.1
v -0.3 1.5 -0.2
v -0.2 1.5 -0.2
v 5.96046e-08 1.5 -0.2
v 0.1 1.5 -0.2
v 0.2 1.5 -0.2
v 0.3 1.5 -0.2
v -0.3 1.5 -0.3
v 5.96046e-08 1.5 -0.3
v 0.3 1.5 -0.3
v -0.2 2 0.2
v 5.96046e-08 2 0.2
v 0.1 2 0.2
v 0.2 2 0.2
v -0.2 2 0.0999999
v 5.96046e-08 2 0.0999999
v 0.1 2 0.0999999
v 0.2 2 0.0999999
v -0.2 2 -5.96046e-08
v -0.0999999 2 -5.96046e-08
v 5.96046e-08 2 -5.96046e-08
v 0.1 2 -5.96046e-08
v -0.2 2 -0.1
v -0.0999999 2 -0.1
v 5.96046e-08 2 -0.1
v 0.1 2 -0.1
v 0.2 2 -0.1
v -0.2 2 -0.2
v -0.0999999 2 -0.2
v 5.96046e-08 2 -0.2
v 0.1 2 -0.2
v 0.2 2 -0.2

# faces
f 4/5/1 2/5/1 1/5/1
f 5/5/1 2/5/1 4/5/1
f 6/5/1 2/5/1 5/5/1
f 7/6/1 3/6/1 2/6/1
f 7/5/1 2/5/1 6/5/1
f 8/5/1 4/5/1 1/5/1
f 9/6/1 5/6/1 4/6/1
f 9/5/1 4/5/1 8/5/1
f 10/5/1 6/5/1 5/5/1
f 10/6/1 5/6/1 9/6/1
f 11/6/1 7/6/1 6/6/1
f 11/5/1 6/5/1 10/5/1
f 12/6/1 3/6/1 7/6/1
f 12/6/1 7/6/1 11/6/1
f 16/5/1 14/5/1 13/5/1
f 17/5/1 14/5/1 16/5/1
f 18/6/1 15/6/1 14/6/1
f 18/5/1 14/5/1 17/5/1
f 19/6/1 15/6/1 18/6/1
f 20/5/1 16/5/1 13/5/1
f 25/5/1 19/5/1 18/5/1
f 26/5/1 20/5/1 13/5/1
f 27/6/1 21/6/1 20/6/1
f 27/5/1 20/5/1 26/5/1
f 27/6/1 22/6/1 21/6/1
f 28/6/1 22/6/1 27/6/1
f 29/5/1 23/5/1 22/5/1
f 29/6/1 22/6/1 28/6/1
f 30/5/1 23/5/1 29/5/1
f 31/6/1 24/6/1 23/6/1
f 31/5/1 23/5/1 30/5/1
f 32/6/1 28/6/1 27/6/1
f 32/6/1 27/6/1 26/6/1
f 33/5/1 30/5/1 29/5/1
f 33/6/1 28/6/1 32/6/1
f 33/5/1 29/5/1 28/5/1
f 34/6/1 31/6/1 30/6/1
f 34/5/1 30/5/1 33/5/1
f 35/5/1 25/5/1 24/5/1
f 35/6/1 31/6/1 34/6/1
f 35/6/1 24/6/1 31/6/1
f 36/5/1 34/5/1 33/5/1
f 36/5/1 33/5/1 32/5/1
f 36/5/1 35/5/1 34/5/1
f 37/5/1 35/5/1 36/5/1
f 38/5/1 36/5/1 32/5/1
f 38/1/1 37/1/1 36/1/1
f 39/5/1 35/5/1 37/5/1
f 39/1/1 37/1/1 38/1/1
f 40/5/1 25/5/1 35/5/1
f 40/5/1 35/5/1 39/5/1
f 41/5/1 38/5/1 32/5/1
f 42/3/1 39/3/1 38/3/1
f 42/5/1 38/5/1 41/5/1
f 43/1/1 40/1/1 39/1/1
f 43/3/1 39/3/1 42/3/1
f 44/5/1 25/5/1 40/5/1
f 44/1/1 40/1/1 43/1/1
f 45/5/1 19/5/1 25/5/1
f 45/5/1 25/5/1 44/5/1
f 50/6/1 47/6/1 46/6/1
f 51/5/1 48/5/1 47/5/1
f 51/6/1 47/6/1 50/6/1
f 52/5/1 48/5/1 51/5/1
f 53/5/1 48/5/1 52/5/1
f 55/6/1 54/6/1 53/6/1
f 56/6/1 54/6/1 55/6/1
f 57/5/1 50/5/1 49/5/1
f 58/5/1 50/5/1 57/5/1
f 59/6/1 58/6/1 57/6/1
f 60/6/1 58/6/1 59/6/1
f 61/5/1 56/5/1 55/5/1
f 62/5/1 56/5/1 61/5/1
f 63/5/1 60/5/1 59/5/1
f 64/5/1 63/5/1 59/5/1
f 65/6/1 62/6/1 61/6/1
f 66/6/1 62/6/1 65/6/1
f 67/5/1 66/5/1 65/5/1
f 68/5/1 66/5/1 67/5/1
f 69/5/1 64/5/1 59/5/1
f 70/5/1 64/5/1 69/5/1
f 74/6/1 68/6/1 67/6/1
f 75/6/1 68/6/1 74/6/1
f 76/5/1 71/5/1 70/5/1
f 76/5/1 72/5/1 71/5/1
f 77/1/1 73/1/1 72/1/1
f 77/5/1 72/5/1 76/5/1
f 78/5/1 74/5/1 73/5/1
f 78/1/1 73/1/1 77/1/1
f 79/5/1 74/5/1 78/5/1
f 84/5/1 81/5/1 80/5/1
f 85/5/1 84/5/1 80/5/1
f 86/5/1 84/5/1 85/5/1
f 87/5/1 83/5/1 82/5/1
f 88/5/1 83/5/1 87/5/1
f 89/6/1 86/6/1 85/6/1
f 90/6/1 89/6/1 85/6/1
f 91/6/1 89/6/1 90/6/1
f 92/6/1 88/6/1 87/6/1
f 93/6/1 88/6/1 92/6/1
f 94/5/1 91/5/1 90/5/1
f 95/5/1 91/5/1 94/5/1
f 102/5/1 97/5/1 96/5/1
f 103/1/1 98/1/1 97/1/1
f 103/5/1 97/5/1 102/5/1
f 104/5/1 99/5/1 98/5/1
f 104/1/1 98/1/1 103/1/1
f 105/3/1 100/3/1 99/3/1
f 105/5/1 99/5/1 104/5/1
f 106/1/1 101/1/1 100/1/1
f 106/3/1 100/3/1 105/3/1
f 107/1/1 101/1/1 106/1/1
f 112/5/1 110/5/1 109/5/1
f 113/1/1 111/1/1 110/1/1
f 113/5/1 110/5/1 112/5/1
f 114/1/1 111/1/1 113/1/1
f 115/1/1 109/1/1 108/1/1
f 116/5/1 112/5/1 109/5/1
f 116/1/1 109/1/1 115/1/1
f 117/1/1 113/1/1 112/1/1
f 117/5/1 112/5/1 116/5/1
f 118/3/1 114/3/1 113/3/1
f 118/1/1 113/1/1 117/1/1
f 119/3/1 114/3/1 118/3/1
f 120/3/1 116/3/1 115/3/1
f 121/4/1 117/4/1 116/4/1
f 121/3/1 116/3/1 120/3/1
f 121/4/1 118/4/1 117/4/1
f 122/4/1 118/4/1 121/4/1
f 123/1/1 119/1/1 118/1/1
f 123/4/1 118/4/1 122/4/1
f 124/1/1 119/1/1 123/1/1
f 125/2/1 121/2/1 120/2/1
f 126/1/1 122/1/1 121/1/1
f 126/2/1 121/2/1 125/2/1
f 127/5/1 123/5/1 122/5/1
f 127/1/1 122/1/1 126/1/1
f 128/3/1 126/3/1 125/3/1
f 129/2/1 127/2/1 126/2/1
f 129/3/1 126/3/1 128/3/1
f 130/5/1 123/5/1 127/5/1
f 130/2/1 127/2/1 129/2/1
f 131/4/1 124/4/1 123/4/1
f 131/5/1 123/5/1 130/5/1
f 132/4/1 124/4/1 131/4/1
f 133/3/2 134/3/2 138/3/2
f 134/1/2 135/1/2 138/1/2
f 135/5/2 136/5/2 139/5/2
f 138/1/2 135/1/2 139/1/2
f 133/3/2 138/3/2 140/3/2
f 138/5/2 139/5/2 140/5/2
f 139/5/2 136/5/2 141/5/2
f 140/5/2 139/5/2 141/5/2
f 136/1/2 137/1/2 142/1/2
f 141/5/2 136/5/2 142/5/2
f 142/1/2 137/1/2 143/1/2
f 133/3/2 140/3/2 144/3/2
f 140/1/2 141/1/2 145/1/2
f 144/3/2 140/3/2 145/3/2
f 141/5/2 142/5/2 146/5/2
f 145/1/2 141/1/2 146/1/2
f 142/5/2 143/5/2 146/5/2
f 146/5/2 143/5/2 147/5/2
f 144/5/2 145/5/2 148/5/2
f 145/3/2 146/3/2 149/3/2
f 148/5/2 145/5/2 149/5/2
f 146/3/2 147/3/2 149/3/2
f 147/5/2 143/5/2 150/5/2
f 149/3/2 147/3/2 150/3/2
f 150/5/2 143/5/2 151/5/2
f 154/6/2 155/6/2 156/6/2
f 156/6/2 155/6/2 157/6/2
f 152/5/2 153/5/2 158/5/2
f 152/5/2 158/5/2 159/5/2
f 159/5/2 158/5/2 160/5/2
f 156/5/2 157/5/2 161/5/2
f 161/5/2 157/5/2 162/5/2
f 159/6/2 160/6/2 163/6/2
f 163/6/2 160/6/2 164/6/2
f 165/5/2 166/5/2 171/5/2
f 166/1/2 167/1/2 172/1/2
f 171/5/2 166/5/2 172/5/2
f 167/5/2 168/5/2 173/5/2
f 172/1/2 167/1/2 173/1/2
f 168/1/2 169/1/2 174/1/2
f 173/5/2 168/5/2 174/5/2
f 169/4/2 170/4/2 175/4/2
f 174/1/2 169/1/2 175/1/2
f 175/4/2 170/4/2 176/4/2
f 177/5/2 178/5/2 184/5/2
f 178/6/2 179/6/2 185/6/2
f 184/5/2 178/5/2 185/5/2
f 185/6/2 179/6/2 186/6/2
f 179/5/2 180/5/2 187/5/2
f 186/6/2 179/6/2 187/6/2
f 180/6/2 181/6/2 188/6/2
f 187/5/2 180/5/2 188/5/2
f 188/6/2 181/6/2 189/6/2
f 181/5/2 182/5/2 190/5/2
f 189/6/2 181/6/2 190/6/2
f 190/5/2 182/5/2 191/5/2
f 191/5/2 192/5/2 193/5/2
f 193/5/2 192/5/2 194/5/2
f 194/5/2 192/5/2 195/5/2
f 194/6/2 195/6/2 196/6/2
f 183/5/2 184/5/2 197/5/2
f 183/5/2 197/5/2 198/5/2
f 198/5/2 197/5/2 199/5/2
f 198/6/2 199/6/2 200/6/2
f 198/6/2 200/6/2 201/6/2
f 201/6/2 200/6/2 202/6/2
f 196/6/2 195/6/2 203/6/2
f 203/6/2 195/6/2 204/6/2
f 203/5/2 204/5/2 205/5/2
f 205/5/2 204/5/2 206/5/2
f 201/5/2 202/5/2 207/5/2
f 207/5/2 202/5/2 208/5/2
f 205/6/2 206/6/2 209/6/2
f 209/6/2 206/6/2 210/6/2
f 207/6/2 208/6/2 211/6/2
f 211/6/2 208/6/2 212/6/2
f 209/5/2 210/5/2 217/5/2
f 217/5/2 210/5/2 218/5/2
f 212/5/2 213/5/2 219/5/2
f 213/5/2 214/5/2 219/5/2
f 215/1/2 216/1/2 220/1/2
f 219/5/2 214/5/2 220/5/2
f 214/1/2 215/1/2 220/1/2
f 216/5/2 217/5/2 221/5/2
f 220/1/2 216/1/2 221/1/2
f 221/5/2 217/5/2 222/5/2
f 223/5/2 224/5/2 227/5/2
f 224/6/2 225/6/2 228/6/2
f 227/5/2 224/5/2 228/5/2
f 225/5/2 226/5/2 229/5/2
f 228/6/2 225/6/2 229/6/2
f 229/5/2 226/5/2 230/5/2
f 230/5/2 226/5/2 231/5/2
f 223/5/2 227/5/2 232/5/2
f 230/6/2 231/6/2 233/6/2
f 233/6/2 231/6/2 234/6/2
f 223/5/2 232/5/2 235/5/2
f 235/5/2 232/5/2 236/5/2
f 235/6/2 236/6/2 237/6/2
f 237/6/2 236/6/2 238/6/2
f 233/5/2 234/5/2 241/5/2
f 239/5/2 240/5/2 242/5/2
f 240/5/2 241/5/2 242/5/2
f 237/5/2 238/5/2 242/5/2
f 238/5/2 239/5/2 242/5/2
f 242/5/2 241/5/2 243/5/2
f 242/6/2 243/6/2 244/6/2
f 243/5/2 241/5/2 244/5/2
f 241/5/2 234/5/2 245/5/2
f 244/5/2 241/5/2 245/5/2
f 237/5/2 242/5/2 246/5/2
f 242/6/2 244/6/2 247/6/2
f 246/5/2 242/5/2 247/5/2
f 244/6/2 245/6/2 247/6/2
f 247/6/2 245/6/2 248/6/2
f 245/5/2 234/5/2 249/5/2
f 248/6/2 245/6/2 249/6/2
f 249/5/2 234/5/2 250/5/2
f 237/5/2 246/5/2 251/5/2
f 251/5/2 246/5/2 252/5/2
f 246/1/2 247/1/2 253/1/2
f 252/5/2 246/5/2 253/5/2
f 253/1/2 247/1/2 254/1/2
f 247/5/2 248/5/2 255/5/2
f 254/1/2 247/1/2 255/1/2
f 248/6/2 249/6/2 256/6/2
f 255/5/2 248/5/2 256/5/2
f 249/6/2 250/6/2 256/6/2
f 256/6/2 250/6/2 257/6/2
f 251/6/2 252/6/2 258/6/2
f 253/5/2 254/5/2 259/5/2
f 258/6/2 252/6/2 259/6/2
f 252/5/2 253/5/2 259/5/2
f 254/3/2 255/3/2 260/3/2
f 259/5/2 254/5/2 260/5/2
f 256/5/2 257/5/2 261/5/2
f 260/3/2 255/3/2 261/3/2
f 255/5/2 256/5/2 261/5/2
f 261/5/2 257/5/2 262/5/2
f 263/5/2 264/5/2 265/5/2
f 265/5/2 264/5/2 266/5/2
f 265/6/2 266/6/2 267/6/2
f 266/5/2 264/5/2 267/5/2
f 267/5/2 264/5/2 268/5/2
f 265/6/2 267/6/2 269/6/2
f 267/6/2 268/6/2 269/6/2
f 268/5/2 264/5/2 270/5/2
f 269/6/2 268/6/2 270/6/2
f 270/5/2 264/5/2 271/5/2
f 269/5/2 270/5/2 272/5/2
f 270/6/2 271/6/2 272/6/2
f 271/5/2 264/5/2 273/5/2
f 272/6/2 271/6/2 273/6/2
f 273/5/2 264/5/2 274/5/2
f 269/5/2 272/5/2 275/5/2
f 272/5/2 273/5/2 275/5/2
f 273/6/2 274/6/2 276/6/2
f 275/5/2 273/5/2 276/5/2
f 274/5/2 264/5/2 277/5/2
f 276/6/2 274/6/2 277/6/2
f 277/5/2 264/5/2 278/5/2
f 283/5/3 280/5/3 279/5/3
f 283/6/3 281/6/3 280/6/3
f 284/6/3 281/6/3 283/6/3
f 285/5/3 282/5/3 281/5/3
f 285/6/3 281/6/3 284/6/3
f 286/5/3 282/5/3 285/5/3
f 287/5/3 284/5/3 283/5/3
f 287/6/3 285/6/3 284/6/3
f 287/6/3 286/6/3 285/6/3
f 288/6/3 286/6/3 287/6/3
f 289/5/3 283/5/3 279/5/3
f 289/5/3 287/5/3 283/5/3
f 289/5/3 288/5/3 287/5/3
f 290/5/3 288/5/3 289/5/3
f 291/6/3 290/6/3 289/6/3
f 292/5/3 288/5/3 290/5/3
f 292/6/3 290/6/3 291/6/3
f 293/5/3 288/5/3 292/5/3
f 294/5/3 288/5/3 293/5/3
f 295/5/3 292/5/3 291/5/3
f 295/5/3 293/5/3 292/5/3
f 296/6/3 294/6/3 293/6/3
f 296/5/3 293/5/3 295/5/3
f 297/6/3 294/6/3 296/6/3
f 302/5/3 299/5/3 298/5/3
f 303/6/3 300/6/3 299/6/3
f 303/5/3 299/5/3 302/5/3
f 304/6/3 300/6/3 303/6/3
f 305/5/3 301/5/3 300/5/3
f 305/6/3 300/6/3 304/6/3
f 306/5/3 301/5/3 305/5/3
f 307/5/3 301/5/3 306/5/3
f 308/5/3 302/5/3 298/5/3
f 309/5/3 302/5/3 308/5/3
f 310/5/3 301/5/3 307/5/3
f 311/5/3 301/5/3 310/5/3
f 312/5/3 301/5/3 311/5/3
f 313/5/3 301/5/3 312/5/3
f 314/6/3 309/6/3 308/6/3
f 315/6/3 309/6/3 314/6/3
f 316/5/3 311/5/3 310/5/3
f 317/1/3 312/1/3 311/1/3
f 317/5/3 311/5/3 316/5/3
f 318/3/3 313/3/3 312/3/3
f 318/1/3 312/1/3 317/1/3
f 319/3/3 313/3/3 318/3/3
f 320/5/3 315/5/3 314/5/3
f 321/5/3 317/5/3 316/5/3
f 321/5/3 318/5/3 317/5/3
f 322/5/3 318/5/3 321/5/3
f 323/1/3 319/1/3 318/1/3
f 323/5/3 318/5/3 322/5/3
f 324/1/3 319/1/3 323/1/3
f 325/5/3 320/5/3 314/5/3
f 326/5/3 321/5/3 316/5/3
f 327/6/3 322/6/3 321/6/3
f 327/5/3 323/5/3 322/5/3
f 327/5/3 324/5/3 323/5/3
f 328/5/3 324/5/3 327/5/3
f 329/5/3 321/5/3 326/5/3
f 329/6/3 327/6/3 321/6/3
f 329/6/3 328/6/3 327/6/3
f 330/6/3 328/6/3 329/6/3
f 331/5/3 324/5/3 328/5/3
f 331/6/3 328/6/3 330/6/3
f 332/5/3 324/5/3 331/5/3
f 333/5/3 325/5/3 314/5/3
f 336/5/3 330/5/3 329/5/3
f 336/5/3 329/5/3 326/5/3
f 337/6/3 331/6/3 330/6/3
f 337/6/3 332/6/3 331/6/3
f 337/5/3 330/5/3 336/5/3
f 338/6/3 332/6/3 337/6/3
f 339/5/3 334/5/3 333/5/3
f 339/5/3 333/5/3 314/5/3
f 340/6/3 335/6/3 334/6/3
f 340/5/3 334/5/3 339/5/3
f 340/6/3 336/6/3 335/6/3
f 341/5/3 337/5/3 336/5/3
f 341/6/3 336/6/3 340/6/3
f 341/5/3 338/5/3 337/5/3
f 342/6/3 332/6/3 338/6/3
f 342/5/3 338/5/3 341/5/3
f 343/6/3 332/6/3 342/6/3
f 349/5/3 345/5/3 344/5/3
f 350/5/3 345/5/3 349/5/3
f 351/5/3 345/5/3 350/5/3
f 352/6/3 346/6/3 345/6/3
f 352/5/3 345/5/3 351/5/3
f 353/5/3 347/5/3 346/5/3
f 353/6/3 346/6/3 352/6/3
f 354/5/3 347/5/3 353/5/3
f 356/6/3 349/6/3 348/6/3
f 357/6/3 349/6/3 356/6/3
f 358/5/3 355/5/3 354/5/3
f 359/5/3 357/5/3 356/5/3
f 360/5/3 355/5/3 358/5/3
f 361/5/3 355/5/3 360/5/3
f 362/3/3 361/3/3 360/3/3
f 363/3/3 361/3/3 362/3/3
f 364/5/3 363/5/3 362/5/3
f 365/5/3 359/5/3 356/5/3
f 366/5/3 359/5/3 365/5/3
f 372/5/3 363/5/3 364/5/3
f 373/5/3 363/5/3 372/5/3
f 374/5/3 367/5/3 366/5/3
f 375/6/3 368/6/3 367/6/3
f 375/5/3 367/5/3 374/5/3
f 375/6/3 369/6/3 368/6/3
f 376/5/3 371/5/3 370/5/3
f 376/6/3 369/6/3 375/6/3
f 376/5/3 370/5/3 369/5/3
f 377/6/3 372/6/3 371/6/3
f 377/5/3 371/5/3 376/5/3
f 378/6/3 372/6/3 377/6/3
f 381/5/3 380/5/3 379/5/3
f 382/5/3 380/5/3 381/5/3
f 385/5/3 384/5/3 383/5/3
f 386/5/3 384/5/3 385/5/3
f 387/1/3 386/1/3 385/1/3
f 388/1/3 386/1/3 387/1/3
f 389/1/3 386/1/3 388/1/3
f 390/5/3 389/5/3 388/5/3
f 391/5/3 389/5/3 390/5/3
f 396/5/3 393/5/3 392/5/3
f 397/6/3 394/6/3 393/6/3
f 397/5/3 393/5/3 396/5/3
f 398/5/3 395/5/3 394/5/3
f 398/6/3 394/6/3 397/6/3
f 399/5/3 395/5/3 398/5/3
f 405/1/3 401/1/3 400/1/3
f 406/1/3 401/1/3 405/1/3
f 407/3/3 402/3/3 401/3/3
f 407/1/3 401/1/3 406/1/3
f 408/2/3 403/2/3 402/2/3
f 408/3/3 402/3/3 407/3/3
f 409/3/3 404/3/3 403/3/3
f 409/2/3 403/2/3 408/2/3
f 410/5/3 406/5/3 405/5/3
f 411/1/3 408/1/3 407/1/3
f 411/5/3 406/5/3 410/5/3
f 411/1/3 407/1/3 406/1/3
f 411/1/3 409/1/3 408/1/3
f 412/1/3 409/1/3 411/1/3
f 413/1/3 409/1/3 412/1/3
f 414/3/3 404/3/3 409/3/3
f 414/1/3 409/1/3 413/1/3
f 415/3/3 404/3/3 414/3/3
f 416/3/3 411/3/3 410/3/3
f 416/1/3 412/1/3 411/1/3
f 417/5/3 413/5/3 412/5/3
f 417/1/3 412/1/3 416/1/3
f 418/1/3 414/1/3 413/1/3
f 418/5/3 413/5/3 417/5/3
f 419/2/3 415/2/3 414/2/3
f 419/1/3 414/1/3 418/1/3
f 420/2/3 415/2/3 419/2/3
f 421/3/3 416/3/3 410/3/3
f 421/3/3 418/3/3 417/3/3
f 421/3/3 417/3/3 416/3/3
f 421/3/3 419/3/3 418/3/3
f 422/5/3 420/5/3 419/5/3
f 422/3/3 419/3/3 421/3/3
f 423/5/3 420/5/3 422/5/3
f 424/1/4 425/1/4 429/1/4
f 425/3/4 426/3/4 429/3/4
f 426/1/4 427/1/4 430/1/4
f 429/3/4 426/3/4 430/3/4
f 427/4/4 428/4/4 431/4/4
f 430/1/4 427/1/4 431/1/4
f 431/4/4 428/4/4 432/4/4
f 424/1/4 429/1/4 433/1/4
f 429/5/4 430/5/4 434/5/4
f 433/1/4 429/1/4 434/1/4
f 430/5/4 431/5/4 434/5/4
f 431/5/4 432/5/4 434/5/4
f 434/5/4 432/5/4 435/5/4
f 435/5/4 432/5/4 436/5/4
f 433/5/4 434/5/4 437/5/4
f 434/5/4 435/5/4 437/5/4
f 435/1/4 436/1/4 438/1/4
f 437/5/4 435/5/4 438/5/4
f 438/1/4 436/1/4 439/1/4
f 439/1/4 436/1/4 440/1/4
f 437/1/4 438/1/4 441/1/4
f 438/1/4 439/1/4 441/1/4
f 439/5/4 440/5/4 442/5/4
f 441/1/4 439/1/4 442/1/4
f 442/5/4 440/5/4 443/5/4
f 444/6/4 445/6/4 446/6/4
f 446/6/4 445/6/4 447/6/4
f 448/1/4 449/1/4 450/1/4
f 450/1/4 449/1/4 451/1/4
f 450/4/4 451/4/4 452/4/4
f 452/4/4 451/4/4 453/4/4
f 453/4/4 451/4/4 454/4/4
f 454/4/4 451/4/4 455/4/4
f 456/5/4 457/5/4 459/5/4
f 457/5/4 458/5/4 459/5/4
f 459/5/4 458/5/4 460/5/4
f 461/6/4 462/6/4 465/6/4
f 462/5/4 463/5/4 466/5/4
f 465/6/4 462/6/4 466/6/4
f 466/5/4 463/5/4 467/5/4
f 467/5/4 463/5/4 468/5/4
f 468/5/4 463/5/4 469/5/4
f 469/5/4 463/5/4 470/5/4
f 470/5/4 471/5/4 472/5/4
f 464/5/4 465/5/4 473/5/4
f 472/5/4 471/5/4 474/5/4
f 474/5/4 471/5/4 475/5/4
f 474/1/4 475/1/4 476/1/4
f 476/1/4 475/1/4 477/1/4
f 476/3/4 477/3/4 478/3/4
f 478/3/4 477/3/4 479/3/4
f 464/5/4 473/5/4 480/5/4
f 480/5/4 473/5/4 481/5/4
f 478/5/4 479/5/4 488/5/4
f 488/5/4 479/5/4 489/5/4
f 481/5/4 482/5/4 490/5/4
f 482/6/4 483/6/4 491/6/4
f 490/5/4 482/5/4 491/5/4
f 483/6/4 484/6/4 491/6/4
f 484/5/4 485/5/4 492/5/4
f 491/6/4 484/6/4 492/6/4
f 485/5/4 486/5/4 492/5/4
f 486/6/4 487/6/4 493/6/4
f 492/5/4 486/5/4 493/5/4
f 487/5/4 488/5/4 494/5/4
f 493/6/4 487/6/4 494/6/4
f 494/5/4 488/5/4 495/5/4
f 496/6/4 497/6/4 502/6/4
f 497/5/4 498/5/4 502/5/4
f 502/5/4 498/5/4 503/5/4
f 498/6/4 499/6/4 504/6/4
f 503/5/4 498/5/4 504/5/4
f 504/6/4 499/6/4 505/6/4
f 499/5/4 500/5/4 506/5/4
f 505/6/4 499/6/4 506/6/4
f 506/5/4 500/5/4 507/5/4
f 500/6/4 501/6/4 508/6/4
f 507/5/4 500/5/4 508/5/4
f 508/6/4 501/6/4 509/6/4
f 504/6/4 505/6/4 510/6/4
f 506/5/4 507/5/4 511/5/4
f 510/6/4 505/6/4 511/6/4
f 505/5/4 506/5/4 511/5/4
f 511/5/4 507/5/4 512/5/4
f 507/6/4 508/6/4 513/6/4
f 512/5/4 507/5/4 513/5/4
f 511/5/4 512/5/4 514/5/4
f 510/5/4 511/5/4 514/5/4
f 512/6/4 513/6/4 515/6/4
f 514/5/4 512/5/4 515/5/4
f 513/6/4 508/6/4 516/6/4
f 515/6/4 513/6/4 516/6/4
f 508/5/4 509/5/4 517/5/4
f 516/6/4 508/6/4 517/6/4
f 496/6/4 502/6/4 518/6/4
f 518/6/4 502/6/4 519/6/4
f 515/6/4 516/6/4 520/6/4
f 514/6/4 515/6/4 520/6/4
f 516/5/4 517/5/4 521/5/4
f 520/6/4 516/6/4 521/6/4
f 517/5/4 509/5/4 522/5/4
f 521/5/4 517/5/4 522/5/4
f 522/5/4 509/5/4 523/5/4
f 518/5/4 519/5/4 524/5/4
f 520/5/4 521/5/4 525/5/4
f 521/5/4 522/5/4 525/5/4
f 522/3/4 523/3/4 525/3/4
f 525/3/4 523/3/4 526/3/4
f 520/5/4 525/5/4 527/5/4
f 525/1/4 526/1/4 527/1/4
f 527/1/4 526/1/4 528/1/4
f 518/5/4 524/5/4 529/5/4
f 520/5/4 527/5/4 531/5/4
f 527/5/4 528/5/4 531/5/4
f 531/5/4 528/5/4 532/5/4
f 532/5/4 528/5/4 533/5/4
f 533/5/4 528/5/4 534/5/4
f 529/5/4 530/5/4 535/5/4
f 518/5/4 529/5/4 535/5/4
f 530/6/4 531/6/4 536/6/4
f 535/5/4 530/5/4 536/5/4
f 531/6/4 532/6/4 536/6/4
f 532/5/4 533/5/4 537/5/4
f 536/6/4 532/6/4 537/6/4
f 533/6/4 534/6/4 538/6/4
f 537/5/4 533/5/4 538/5/4
f 534/5/4 528/5/4 539/5/4
f 538/6/4 534/6/4 539/6/4
f 539/5/4 528/5/4 540/5/4
f 541/5/4 542/5/4 544/5/4
f 542/6/4 543/6/4 544/6/4
f 544/6/4 543/6/4 545/6/4
f 541/5/4 544/5/4 546/5/4
f 544/5/4 545/5/4 546/5/4
f 546/5/4 545/5/4 547/5/4
f 546/6/4 547/6/4 548/6/4
f 547/5/4 545/5/4 549/5/4
f 548/6/4 547/6/4 549/6/4
f 546/6/4 548/6/4 550/6/4
f 548/5/4 549/5/4 551/5/4
f 550/6/4 548/6/4 551/6/4
f 549/5/4 545/5/4 552/5/4
f 551/5/4 549/5/4 552/5/4
f 556/6/5 554/6/5 553/6/5
f 557/5/5 555/5/5 554/5/5
f 557/6/5 554/6/5 556/6/5
f 558/5/5 555/5/5 557/5/5
f 559/5/5 555/5/5 558/5/5
f 560/6/5 556/6/5 553/6/5
f 560/5/5 557/5/5 556/5/5
f 560/5/5 558/5/5 557/5/5
f 561/5/5 558/5/5 560/5/5
f 562/6/5 560/6/5 553/6/5
f 562/6/5 561/6/5 560/6/5
f 563/6/5 561/6/5 562/6/5
f 564/5/5 558/5/5 561/5/5
f 564/6/5 561/6/5 563/6/5
f 565/5/5 558/5/5 564/5/5
f 566/6/5 559/6/5 558/6/5
f 566/5/5 558/5/5 565/5/5
f 567/6/5 559/6/5 566/6/5
f 568/6/5 565/6/5 564/6/5
f 568/5/5 563/5/5 562/5/5
f 568/6/5 564/6/5 563/6/5
f 569/5/5 567/5/5 566/5/5
f 569/6/5 565/6/5 568/6/5
f 569/5/5 566/5/5 565/5/5
f 570/5/5 567/5/5 569/5/5
f 571/5/5 569/5/5 568/5/5
f 571/6/5 570/6/5 569/6/5
f 572/5/5 567/5/5 570/5/5
f 572/6/5 570/6/5 571/6/5
f 573/5/5 567/5/5 572/5/5
f 574/5/5 567/5/5 573/5/5
f 575/5/5 572/5/5 571/5/5
f 575/5/5 573/5/5 572/5/5
f 576/6/5 574/6/5 573/6/5
f 576/5/5 573/5/5 575/5/5
f 577/5/5 575/5/5 571/5/5
f 577/6/5 576/6/5 575/6/5
f 578/6/5 574/6/5 576/6/5
f 578/6/5 576/6/5 577/6/5
f 579/5/5 568/5/5 562/5/5
f 579/5/5 571/5/5 568/5/5
f 579/5/5 578/5/5 577/5/5
f 579/5/5 577/5/5 571/5/5
f 580/5/5 578/5/5 579/5/5
f 586/5/5 582/5/5 581/5/5
f 587/6/5 583/6/5 582/6/5
f 587/5/5 582/5/5 586/5/5
f 588/5/5 584/5/5 583/5/5
f 588/6/5 583/6/5 587/6/5
f 589/5/5 584/5/5 588/5/5
f 591/5/5 590/5/5 589/5/5
f 592/5/5 590/5/5 591/5/5
f 593/5/5 590/5/5 592/5/5
f 594/5/5 586/5/5 585/5/5
f 595/6/5 593/6/5 592/6/5
f 596/6/5 593/6/5 595/6/5
f 597/6/5 593/6/5 596/6/5
f 598/6/5 593/6/5 597/6/5
f 599/5/5 594/5/5 585/5/5
f 600/5/5 594/5/5 599/5/5
f 601/5/5 598/5/5 597/5/5
f 602/6/5 600/6/5 599/6/5
f 603/6/5 600/6/5 602/6/5
f 605/5/5 598/5/5 601/5/5
f 606/5/5 598/5/5 605/5/5
f 607/6/5 604/6/5 603/6/5
f 608/5/5 605/5/5 604/5/5
f 608/6/5 604/6/5 607/6/5
f 609/5/5 605/5/5 608/5/5
f 614/5/5 611/5/5 610/5/5
f 615/5/5 611/5/5 614/5/5
f 616/5/5 611/5/5 615/5/5
f 617/6/5 612/6/5 611/6/5
f 617/5/5 611/5/5 616/5/5
f 618/5/5 613/5/5 612/5/5
f 618/6/5 612/6/5 617/6/5
f 619/5/5 613/5/5 618/5/5
f 624/5/5 623/5/5 622/5/5
f 625/5/5 621/5/5 620/5/5
f 626/5/5 621/5/5 625/5/5
f 627/5/5 623/5/5 624/5/5
f 628/6/5 626/6/5 625/6/5
f 629/6/5 626/6/5 628/6/5
f 630/5/5 623/5/5 627/5/5
f 631/5/5 623/5/5 630/5/5
f 636/5/5 633/5/5 632/5/5
f 636/5/5 634/5/5 633/5/5
f 637/6/5 635/6/5 634/6/5
f 637/5/5 634/5/5 636/5/5
f 638/6/5 635/6/5 637/6/5
f 639/5/6 640/5/6 643/5/6
f 643/5/6 640/5/6 644/5/6
f 643/6/6 644/6/6 645/6/6
f 645/6/6 644/6/6 646/6/6
f 645/5/6 646/5/6 647/5/6
f 647/5/6 646/5/6 648/5/6
f 641/5/6 642/5/6 649/5/6
f 649/5/6 642/5/6 650/5/6
f 647/6/6 648/6/6 651/6/6
f 649/6/6 650/6/6 652/6/6
f 652/6/6 650/6/6 653/6/6
f 647/6/6 651/6/6 654/6/6
f 654/6/6 651/6/6 655/6/6
f 652/5/6 653/5/6 656/5/6
f 656/5/6 653/5/6 657/5/6
f 658/6/6 659/6/6 663/6/6
f 661/5/6 662/5/6 664/5/6
f 663/6/6 659/6/6 664/6/6
f 659/5/6 660/5/6 664/5/6
f 660/5/6 661/5/6 664/5/6
f 664/5/6 662/5/6 665/5/6
f 666/5/6 667/5/6 671/5/6
f 667/6/6 668/6/6 672/6/6
f 671/5/6 667/5/6 672/5/6
f 668/5/6 669/5/6 673/5/6
f 672/6/6 668/6/6 673/6/6
f 669/6/6 670/6/6 674/6/6
f 673/5/6 669/5/6 674/5/6
f 674/6/6 670/6/6 675/6/6
f 676/5/6 677/5/6 683/5/6
f 677/3/6 678/3/6 684/3/6
f 683/5/6 677/5/6 684/5/6
f 678/1/6 679/1/6 685/1/6
f 684/3/6 678/3/6 685/3/6
f 679/5/6 680/5/6 686/5/6
f 685/1/6 679/1/6 686/1/6
f 680/6/6 681/6/6 687/6/6
f 686/5/6 680/5/6 687/5/6
f 687/6/6 681/6/6 688/6/6
f 688/6/6 689/6/6 690/6/6
f 690/6/6 689/6/6 691/6/6
f 690/5/6 691/5/6 692/5/6
f 682/5/6 683/5/6 693/5/6
f 693/5/6 683/5/6 694/5/6
f 692/5/6 691/5/6 695/5/6
f 695/5/6 691/5/6 696/5/6
f 693/3/6 694/3/6 697/3/6
f 697/3/6 694/3/6 698/3/6
f 695/3/6 696/3/6 699/3/6
f 699/3/6 696/3/6 700/3/6
f 697/1/6 698/1/6 701/1/6
f 701/1/6 698/1/6 702/1/6
f 701/5/6 702/5/6 703/5/6
f 703/5/6 702/5/6 704/5/6
f 699/5/6 700/5/6 709/5/6
f 709/5/6 700/5/6 710/5/6
f 704/6/6 705/6/6 711/6/6
f 705/5/6 706/5/6 712/5/6
f 711/6/6 705/6/6 712/6/6
f 706/3/6 707/3/6 713/3/6
f 712/5/6 706/5/6 713/5/6
f 707/1/6 708/1/6 714/1/6
f 713/3/6 707/3/6 714/3/6
f 708/5/6 709/5/6 715/5/6
f 714/1/6 708/1/6 715/1/6
f 715/5/6 709/5/6 716/5/6
f 717/5/6 718/5/6 721/5/6
f 718/3/6 719/3/6 722/3/6
f 721/5/6 718/5/6 722/5/6
f 719/5/6 720/5/6 723/5/6
f 722/3/6 719/3/6 723/3/6
f 723/5/6 720/5/6 724/5/6
f 724/5/6 720/5/6 725/5/6
f 717/5/6 721/5/6 726/5/6
f 717/5/6 726/5/6 727/5/6
f 725/5/6 720/5/6 728/5/6
f 728/5/6 720/5/6 729/5/6
f 728/1/6 729/1/6 730/1/6
f 717/5/6 727/5/6 731/5/6
f 731/5/6 727/5/6 732/5/6
f 730/1/6 729/1/6 733/1/6
f 733/1/6 729/1/6 734/1/6
f 731/1/6 732/1/6 735/1/6
f 735/1/6 732/1/6 736/1/6
f 733/5/6 734/5/6 737/5/6
f 735/5/6 736/5/6 738/5/6
f 737/5/6 734/5/6 742/5/6
f 735/5/6 738/5/6 743/5/6
f 738/5/6 739/5/6 743/5/6
f 739/1/6 740/1/6 744/1/6
f 743/5/6 739/5/6 744/5/6
f 740/3/6 741/3/6 745/3/6
f 744/1/6 740/1/6 745/1/6
f 741/5/6 742/5/6 746/5/6
f 745/3/6 741/3/6 746/3/6
f 742/5/6 734/5/6 747/5/6
f 746/5/6 742/5/6 747/5/6
f 748/5/6 749/5/6 752/5/6
f 752/5/6 749/5/6 753/5/6
f 749/1/6 750/1/6 754/1/6
f 753/5/6 749/5/6 754/5/6
f 754/1/6 750/1/6 755/1/6
f 750/5/6 751/5/6 756/5/6
f 755/1/6 750/1/6 756/1/6
f 752/1/6 753/1/6 757/1/6
f 757/1/6 753/1/6 758/1/6
f 756/5/6 751/5/6 759/5/6
f 759/5/6 751/5/6 760/5/6
f 759/1/6 760/1/6 761/1/6
f 761/1/6 760/1/6 762/1/6
f 757/5/6 758/5/6 763/5/6
f 763/5/6 758/5/6 764/5/6
f 761/5/6 762/5/6 765/5/6
f 765/5/6 762/5/6 766/5/6
f 763/3/6 764/3/6 767/3/6
f 767/3/6 764/3/6 768/3/6
f 765/1/6 766/1/6 771/1/6
f 771/1/6 766/1/6 772/1/6
f 767/1/6 768/1/6 773/1/6
f 768/1/6 769/1/6 773/1/6
f 769/4/6 770/4/6 774/4/6
f 773/1/6 769/1/6 774/1/6
f 771/4/6 772/4/6 774/4/6
f 770/4/6 771/4/6 774/4/6
f 774/4/6 772/4/6 775/4/6
f 776/3/6 777/3/6 780/3/6
f 777/2/6 778/2/6 781/2/6
f 780/3/6 777/3/6 781/3/6
f 778/5/6 779/5/6 782/5/6
f 781/2/6 778/2/6 782/2/6
f 782/5/6 779/5/6 783/5/6
f 780/2/6 781/2/6 784/2/6
f 781/2/6 782/2/6 784/2/6
f 784/2/6 782/2/6 785/2/6
f 785/2/6 782/2/6 786/2/6
f 782/3/6 783/3/6 787/3/6
f 786/2/6 782/2/6 787/2/6
f 784/5/6 785/5/6 788/5/6
f 785/1/6 786/1/6 789/1/6
f 788/5/6 785/5/6 789/5/6
f 786/3/6 787/3/6 790/3/6
f 789/1/6 786/1/6 790/1/6
f 787/3/6 783/3/6 791/3/6
f 790/3/6 787/3/6 791/3/6
f 791/3/6 783/3/6 792/3/6
f 788/4/6 789/4/6 793/4/6
f 789/5/6 790/5/6 794/5/6
f 793/4/6 789/4/6 794/4/6
f 790/1/6 791/1/6 795/1/6
f 794/5/6 790/5/6 795/5/6
f 791/5/6 792/5/6 796/5/6
f 795/1/6 791/1/6 796/1/6
f 796/5/6 792/5/6 797/5/6
