# MagicaVoxel @ Ephtracy

# group
o 

# material
mtllib VR Токарев кнопка ресета.mtl
usemtl palette

# normals
vn -1 0 0
vn 1 0 0
vn 0 0 1
vn 0 0 -1
vn 0 -1 0
vn 0 1 0

# texcoords
vt 0.919922 0.5
vt 0.927734 0.5
vt 0.978516 0.5
vt 0.982422 0.5

# verts
v -0.8 1.2 -1.4
v -0.8 1.2 -1.5
v -0.8 1.2 -1.6
v -0.8 1.2 -2
v -0.8 1.3 -1.5
v -0.8 1.3 -1.6
v -0.8 1.3 -1.7
v -0.8 1.4 -1.4
v -0.8 1.4 -1.5
v -0.8 1.4 -1.6
v -0.8 1.4 -1.7
v -0.8 1.4 -1.8
v -0.8 1.6 -1.7
v -0.8 1.6 -1.8
v -0.8 1.6 -1.9
v -0.8 1.7 -1.8
v -0.8 1.7 -1.9
v -0.8 1.7 -2
v -0.8 1.9 -1.4
v -0.8 1.9 -1.5
v -0.8 1.9 -1.6
v -0.8 1.9 -1.7
v -0.8 1.9 -1.8
v -0.8 1.9 -1.9
v -0.8 1.9 -2
v -0.8 2 -1.5
v -0.8 2 -1.6
v -0.8 2.1 -1.6
v -0.8 2.1 -1.7
v -0.8 2.1 -1.8
v -0.8 2.3 -1.5
v -0.8 2.3 -1.6
v -0.8 2.3 -1.7
v -0.8 2.5 -1.4
v -0.8 2.5 -1.5
v -0.8 2.5 -1.6
v -0.8 2.7 -1.4
v -0.8 2.7 -1.5
v -0.8 2.8 -1.4
v -0.8 2.8 -2
v -0.5 1.5 -1
v -0.5 1.5 -1.1
v -0.5 1.5 -1.4
v -0.5 1.7 -1
v -0.5 1.7 -1.1
v -0.5 1.7 -1.2
v -0.5 1.7 -1.3
v -0.5 1.9 -1.1
v -0.5 1.9 -1.2
v -0.5 2 -1.2
v -0.5 2 -1.3
v -0.5 2.1 -1.1
v -0.5 2.1 -1.2
v -0.5 2.2 -1.2
v -0.5 2.2 -1.3
v -0.5 2.4 -1.1
v -0.5 2.4 -1.2
v -0.5 2.5 -1
v -0.5 2.5 -1.1
v -0.5 2.5 -1.3
v -0.5 2.5 -1.4
v 0.5 1.5 -1
v 0.5 1.5 -1.2
v 0.5 1.5 -1.4
v 0.5 1.6 -1
v 0.5 1.6 -1.1
v 0.5 1.8 -1.1
v 0.5 1.8 -1.2
v 0.5 1.8 -1.3
v 0.5 2 -1.2
v 0.5 2 -1.3
v 0.5 2.3 -1
v 0.5 2.3 -1.2
v 0.5 2.4 -1
v 0.5 2.4 -1.1
v 0.5 2.5 -1
v 0.5 2.5 -1.1
v 0.5 2.5 -1.2
v 0.5 2.5 -1.4
v 0.8 1.2 -1.4
v 0.8 1.2 -1.6
v 0.8 1.2 -1.7
v 0.8 1.2 -2
v 0.8 1.5 -1.6
v 0.8 1.5 -1.7
v 0.8 1.5 -1.8
v 0.8 1.8 -1.4
v 0.8 1.8 -1.5
v 0.8 1.9 -1.7
v 0.8 1.9 -1.8
v 0.8 2.5 -1.4
v 0.8 2.5 -1.5
v 0.8 2.5 -1.8
v 0.8 2.5 -1.9
v 0.8 2.8 -1.4
v 0.8 2.8 -1.8
v 0.8 2.8 -1.9
v 0.8 2.8 -2
v -0.5 1.5 -1
v -0.5 1.7 -1
v -0.5 2.5 -1
v -0.4 1.6 -1
v -0.4 1.7 -1
v -0.4 1.8 -1
v -0.4 2.1 -1
v -0.3 1.8 -1
v -0.3 2 -1
v -0.3 2.3 -1
v -0.3 2.4 -1
v -0.2 1.5 -1
v -0.2 1.6 -1
v -0.2 2 -1
v -0.2 2.1 -1
v -0.2 2.2 -1
v -0.2 2.4 -1
v -0.2 2.5 -1
v -0.1 1.7 -1
v -0.1 1.8 -1
v -0.1 2.3 -1
v -0.1 2.4 -1
v 5.96046e-08 1.5 -1
v 5.96046e-08 1.6 -1
v 5.96046e-08 2.1 -1
v 5.96046e-08 2.2 -1
v 0.1 2 -1
v 0.1 2.2 -1
v 0.2 1.5 -1
v 0.2 1.6 -1
v 0.2 1.7 -1
v 0.2 1.8 -1
v 0.2 1.9 -1
v 0.2 2 -1
v 0.2 2.1 -1
v 0.2 2.2 -1
v 0.2 2.3 -1
v 0.2 2.4 -1
v 0.2 2.5 -1
v 0.3 1.9 -1
v 0.3 2 -1
v 0.3 2.1 -1
v 0.3 2.2 -1
v 0.3 2.3 -1
v 0.3 2.4 -1
v 0.4 1.5 -1
v 0.4 1.6 -1
v 0.4 1.8 -1
v 0.4 2 -1
v 0.4 2.2 -1
v 0.4 2.3 -1
v 0.5 1.5 -1
v 0.5 1.6 -1
v 0.5 2.3 -1
v 0.5 2.4 -1
v 0.5 2.5 -1
v -0.8 1.2 -1.4
v -0.8 1.4 -1.4
v -0.8 1.9 -1.4
v -0.8 2.5 -1.4
v -0.8 2.7 -1.4
v -0.8 2.8 -1.4
v -0.7 1.4 -1.4
v -0.7 1.9 -1.4
v -0.7 2.5 -1.4
v -0.7 2.6 -1.4
v -0.7 2.7 -1.4
v -0.7 2.8 -1.4
v -0.6 2.6 -1.4
v -0.6 2.7 -1.4
v -0.5 1.5 -1.4
v -0.5 2.5 -1.4
v -0.2 1.3 -1.4
v -0.2 1.4 -1.4
v -0.2 2.7 -1.4
v -0.2 2.8 -1.4
v -0.1 1.2 -1.4
v -0.1 1.3 -1.4
v 5.96046e-08 1.3 -1.4
v 5.96046e-08 1.4 -1.4
v 0.1 1.2 -1.4
v 0.1 1.3 -1.4
v 0.1 1.5 -1.4
v 0.2 1.5 -1.4
v 0.4 2.7 -1.4
v 0.4 2.8 -1.4
v 0.5 1.5 -1.4
v 0.5 2.5 -1.4
v 0.5 2.6 -1.4
v 0.5 2.7 -1.4
v 0.5 2.8 -1.4
v 0.6 1.5 -1.4
v 0.6 1.8 -1.4
v 0.6 2.5 -1.4
v 0.6 2.6 -1.4
v 0.7 1.5 -1.4
v 0.7 1.8 -1.4
v 0.7 2.5 -1.4
v 0.7 2.7 -1.4
v 0.8 1.2 -1.4
v 0.8 1.8 -1.4
v 0.8 2.5 -1.4
v 0.8 2.8 -1.4
v -0.8 1.2 -2
v -0.8 1.7 -2
v -0.8 1.9 -2
v -0.8 2.8 -2
v -0.7 1.7 -2
v -0.7 1.9 -2
v -0.6 2.4 -2
v -0.6 2.7 -2
v -0.5 1.4 -2
v -0.5 1.6 -2
v -0.5 2.5 -2
v -0.5 2.7 -2
v -0.4 1.5 -2
v -0.4 1.6 -2
v -0.4 2.3 -2
v -0.4 2.4 -2
v -0.4 2.5 -2
v -0.3 1.3 -2
v -0.3 1.4 -2
v -0.3 1.5 -2
v -0.3 2.2 -2
v -0.3 2.3 -2
v -0.3 2.4 -2
v -0.2 2.1 -2
v -0.2 2.2 -2
v -0.2 2.3 -2
v -0.1 1.2 -2
v -0.1 1.3 -2
v -0.1 1.4 -2
v -0.1 1.9 -2
v -0.1 2.1 -2
v -0.1 2.2 -2
v -0.1 2.7 -2
v -0.1 2.8 -2
v 5.96046e-08 1.8 -2
v 5.96046e-08 1.9 -2
v 5.96046e-08 2 -2
v 5.96046e-08 2.1 -2
v 0.1 1.7 -2
v 0.1 1.8 -2
v 0.1 1.9 -2
v 0.1 2 -2
v 0.2 1.3 -2
v 0.2 1.4 -2
v 0.2 1.8 -2
v 0.2 1.9 -2
v 0.3 1.2 -2
v 0.3 1.3 -2
v 0.3 1.7 -2
v 0.3 1.8 -2
v 0.3 2.7 -2
v 0.3 2.8 -2
v 0.4 1.3 -2
v 0.4 1.4 -2
v 0.4 2.5 -2
v 0.5 1.4 -2
v 0.5 2.5 -2
v 0.8 1.2 -2
v 0.8 2.8 -2
v -0.8 1.2 -1.4
v -0.1 1.2 -1.4
v 0.1 1.2 -1.4
v 0.8 1.2 -1.4
v -0.8 1.2 -1.5
v -0.5 1.2 -1.5
v -0.1 1.2 -1.5
v 0.1 1.2 -1.5
v 0.2 1.2 -1.5
v -0.8 1.2 -1.6
v -0.5 1.2 -1.6
v -0.2 1.2 -1.6
v 0.7 1.2 -1.6
v 0.8 1.2 -1.6
v -0.5 1.2 -1.7
v -0.2 1.2 -1.7
v 5.96046e-08 1.2 -1.7
v 0.1 1.2 -1.7
v 0.2 1.2 -1.7
v 0.4 1.2 -1.7
v 0.7 1.2 -1.7
v 0.8 1.2 -1.7
v -0.2 1.2 -1.8
v 5.96046e-08 1.2 -1.8
v 0.3 1.2 -1.8
v 0.4 1.2 -1.8
v 0.5 1.2 -1.8
v 0.7 1.2 -1.8
v -0.1 1.2 -1.9
v 0.3 1.2 -1.9
v 0.5 1.2 -1.9
v -0.8 1.2 -2
v -0.1 1.2 -2
v 0.3 1.2 -2
v 0.8 1.2 -2
v -0.5 1.5 -1
v -0.2 1.5 -1
v 5.96046e-08 1.5 -1
v 0.2 1.5 -1
v 0.4 1.5 -1
v 0.5 1.5 -1
v -0.5 1.5 -1.1
v -0.3 1.5 -1.1
v -0.2 1.5 -1.1
v 5.96046e-08 1.5 -1.1
v 0.1 1.5 -1.1
v 0.3 1.5 -1.1
v 0.4 1.5 -1.1
v -0.3 1.5 -1.2
v 5.96046e-08 1.5 -1.2
v 0.3 1.5 -1.2
v 0.5 1.5 -1.2
v -0.5 1.5 -1.4
v 0.1 1.5 -1.4
v 0.2 1.5 -1.4
v 0.5 1.5 -1.4
v -0.5 2.5 -1
v -0.2 2.5 -1
v 0.2 2.5 -1
v 0.5 2.5 -1
v -0.5 2.5 -1.1
v -0.3 2.5 -1.1
v -0.2 2.5 -1.1
v -0.1 2.5 -1.1
v 5.96046e-08 2.5 -1.1
v 0.1 2.5 -1.1
v 0.2 2.5 -1.1
v 0.5 2.5 -1.1
v -0.4 2.5 -1.2
v -0.3 2.5 -1.2
v -0.1 2.5 -1.2
v 5.96046e-08 2.5 -1.2
v 0.1 2.5 -1.2
v 0.5 2.5 -1.2
v -0.5 2.5 -1.3
v -0.4 2.5 -1.3
v -0.5 2.5 -1.4
v 0.5 2.5 -1.4
v -0.8 2.8 -1.4
v -0.7 2.8 -1.4
v -0.2 2.8 -1.4
v 0.4 2.8 -1.4
v 0.5 2.8 -1.4
v 0.8 2.8 -1.4
v -0.7 2.8 -1.5
v -0.2 2.8 -1.5
v 0.1 2.8 -1.5
v 0.4 2.8 -1.5
v 0.5 2.8 -1.5
v -0.2 2.8 -1.6
v 0.1 2.8 -1.6
v 0.3 2.8 -1.8
v 0.8 2.8 -1.8
v -0.1 2.8 -1.9
v 0.3 2.8 -1.9
v 0.8 2.8 -1.9
v -0.8 2.8 -2
v -0.1 2.8 -2
v 0.3 2.8 -2
v 0.8 2.8 -2

# faces
f 5/3/1 2/3/1 1/3/1
f 5/4/1 3/4/1 2/4/1
f 6/3/1 4/3/1 3/3/1
f 6/4/1 3/4/1 5/4/1
f 7/3/1 4/3/1 6/3/1
f 8/3/1 5/3/1 1/3/1
f 8/3/1 6/3/1 5/3/1
f 9/3/1 6/3/1 8/3/1
f 10/4/1 7/4/1 6/4/1
f 10/3/1 6/3/1 9/3/1
f 11/3/1 4/3/1 7/3/1
f 11/4/1 7/4/1 10/4/1
f 12/3/1 4/3/1 11/3/1
f 13/3/1 10/3/1 9/3/1
f 13/3/1 11/3/1 10/3/1
f 13/4/1 12/4/1 11/4/1
f 14/3/1 4/3/1 12/3/1
f 14/4/1 12/4/1 13/4/1
f 15/3/1 4/3/1 14/3/1
f 16/3/1 14/3/1 13/3/1
f 16/4/1 15/4/1 14/4/1
f 17/3/1 4/3/1 15/3/1
f 17/4/1 15/4/1 16/4/1
f 18/3/1 4/3/1 17/3/1
f 19/4/1 9/4/1 8/4/1
f 20/3/1 13/3/1 9/3/1
f 20/4/1 9/4/1 19/4/1
f 20/3/1 16/3/1 13/3/1
f 20/3/1 17/3/1 16/3/1
f 21/3/1 17/3/1 20/3/1
f 22/3/1 17/3/1 21/3/1
f 23/3/1 17/3/1 22/3/1
f 24/4/1 18/4/1 17/4/1
f 24/3/1 17/3/1 23/3/1
f 25/4/1 18/4/1 24/4/1
f 26/3/1 20/3/1 19/3/1
f 26/4/1 21/4/1 20/4/1
f 27/3/1 22/3/1 21/3/1
f 27/4/1 21/4/1 26/4/1
f 28/3/1 27/3/1 26/3/1
f 28/3/1 22/3/1 27/3/1
f 29/4/1 23/4/1 22/4/1
f 29/3/1 22/3/1 28/3/1
f 30/3/1 25/3/1 24/3/1
f 30/4/1 23/4/1 29/4/1
f 30/3/1 24/3/1 23/3/1
f 31/3/1 28/3/1 26/3/1
f 31/3/1 26/3/1 19/3/1
f 32/4/1 29/4/1 28/4/1
f 32/3/1 28/3/1 31/3/1
f 33/3/1 30/3/1 29/3/1
f 33/4/1 29/4/1 32/4/1
f 34/3/1 31/3/1 19/3/1
f 35/4/1 32/4/1 31/4/1
f 35/3/1 31/3/1 34/3/1
f 36/3/1 33/3/1 32/3/1
f 36/4/1 32/4/1 35/4/1
f 37/4/1 35/4/1 34/4/1
f 38/3/1 36/3/1 35/3/1
f 38/4/1 35/4/1 37/4/1
f 39/3/1 38/3/1 37/3/1
f 40/3/1 25/3/1 30/3/1
f 40/3/1 38/3/1 39/3/1
f 40/3/1 30/3/1 33/3/1
f 40/3/1 36/3/1 38/3/1
f 40/3/1 33/3/1 36/3/1
f 44/2/1 42/2/1 41/2/1
f 45/1/1 43/1/1 42/1/1
f 45/2/1 42/2/1 44/2/1
f 46/1/1 43/1/1 45/1/1
f 47/1/1 43/1/1 46/1/1
f 48/1/1 45/1/1 44/1/1
f 48/1/1 46/1/1 45/1/1
f 49/2/1 47/2/1 46/2/1
f 49/1/1 46/1/1 48/1/1
f 50/2/1 49/2/1 48/2/1
f 50/2/1 47/2/1 49/2/1
f 51/1/1 43/1/1 47/1/1
f 51/2/1 47/2/1 50/2/1
f 52/2/1 50/2/1 48/2/1
f 52/1/1 48/1/1 44/1/1
f 53/1/1 51/1/1 50/1/1
f 53/2/1 50/2/1 52/2/1
f 54/1/1 53/1/1 52/1/1
f 54/1/1 51/1/1 53/1/1
f 55/1/1 43/1/1 51/1/1
f 55/1/1 51/1/1 54/1/1
f 56/1/1 54/1/1 52/1/1
f 56/1/1 52/1/1 44/1/1
f 57/2/1 55/2/1 54/2/1
f 57/1/1 54/1/1 56/1/1
f 58/1/1 56/1/1 44/1/1
f 59/2/1 57/2/1 56/2/1
f 59/1/1 56/1/1 58/1/1
f 60/1/1 43/1/1 55/1/1
f 60/2/1 57/2/1 59/2/1
f 60/2/1 55/2/1 57/2/1
f 61/1/1 43/1/1 60/1/1
f 62/2/2 63/2/2 65/2/2
f 65/2/2 63/2/2 66/2/2
f 65/1/2 66/1/2 67/1/2
f 66/2/2 63/2/2 67/2/2
f 63/1/2 64/1/2 68/1/2
f 67/2/2 63/2/2 68/2/2
f 68/1/2 64/1/2 69/1/2
f 67/1/2 68/1/2 70/1/2
f 68/2/2 69/2/2 70/2/2
f 69/1/2 64/1/2 71/1/2
f 70/2/2 69/2/2 71/2/2
f 65/1/2 67/1/2 72/1/2
f 67/1/2 70/1/2 72/1/2
f 70/1/2 71/1/2 72/1/2
f 72/1/2 71/1/2 73/1/2
f 72/2/2 73/2/2 74/2/2
f 74/2/2 73/2/2 75/2/2
f 74/1/2 75/1/2 76/1/2
f 75/2/2 73/2/2 77/2/2
f 76/1/2 75/1/2 77/1/2
f 73/1/2 71/1/2 78/1/2
f 77/2/2 73/2/2 78/2/2
f 71/1/2 64/1/2 79/1/2
f 78/1/2 71/1/2 79/1/2
f 80/3/2 81/3/2 84/3/2
f 81/4/2 82/4/2 84/4/2
f 82/3/2 83/3/2 85/3/2
f 84/4/2 82/4/2 85/4/2
f 85/3/2 83/3/2 86/3/2
f 80/3/2 84/3/2 87/3/2
f 84/3/2 85/3/2 87/3/2
f 87/3/2 85/3/2 88/3/2
f 85/4/2 86/4/2 89/4/2
f 88/3/2 85/3/2 89/3/2
f 86/3/2 83/3/2 90/3/2
f 89/4/2 86/4/2 90/4/2
f 87/4/2 88/4/2 91/4/2
f 88/3/2 89/3/2 92/3/2
f 91/4/2 88/4/2 92/4/2
f 89/3/2 90/3/2 92/3/2
f 90/3/2 83/3/2 93/3/2
f 92/3/2 90/3/2 93/3/2
f 93/3/2 83/3/2 94/3/2
f 91/3/2 92/3/2 95/3/2
f 92/3/2 93/3/2 95/3/2
f 93/4/2 94/4/2 96/4/2
f 95/3/2 93/3/2 96/3/2
f 94/3/2 83/3/2 97/3/2
f 96/4/2 94/4/2 97/4/2
f 97/3/2 83/3/2 98/3/2
f 102/2/3 100/2/3 99/2/3
f 103/1/3 101/1/3 100/1/3
f 103/2/3 100/2/3 102/2/3
f 104/1/3 101/1/3 103/1/3
f 105/1/3 101/1/3 104/1/3
f 106/1/3 103/1/3 102/1/3
f 106/1/3 104/1/3 103/1/3
f 106/2/3 105/2/3 104/2/3
f 107/2/3 105/2/3 106/2/3
f 108/1/3 101/1/3 105/1/3
f 109/1/3 101/1/3 108/1/3
f 110/2/3 102/2/3 99/2/3
f 111/1/3 106/1/3 102/1/3
f 111/2/3 102/2/3 110/2/3
f 111/1/3 107/1/3 106/1/3
f 112/2/3 105/2/3 107/2/3
f 112/1/3 107/1/3 111/1/3
f 113/1/3 108/1/3 105/1/3
f 113/2/3 105/2/3 112/2/3
f 114/1/3 108/1/3 113/1/3
f 115/1/3 101/1/3 109/1/3
f 115/2/3 109/2/3 108/2/3
f 116/1/3 101/1/3 115/1/3
f 117/1/3 111/1/3 110/1/3
f 117/1/3 112/1/3 111/1/3
f 117/1/3 113/1/3 112/1/3
f 118/1/3 113/1/3 117/1/3
f 119/1/3 108/1/3 114/1/3
f 119/2/3 116/2/3 115/2/3
f 119/2/3 115/2/3 108/2/3
f 120/2/3 116/2/3 119/2/3
f 121/1/3 117/1/3 110/1/3
f 122/1/3 117/1/3 121/1/3
f 123/1/3 113/1/3 118/1/3
f 123/2/3 114/2/3 113/2/3
f 124/1/3 119/1/3 114/1/3
f 124/2/3 114/2/3 123/2/3
f 124/1/3 120/1/3 119/1/3
f 125/1/3 123/1/3 118/1/3
f 125/1/3 124/1/3 123/1/3
f 126/1/3 120/1/3 124/1/3
f 126/1/3 124/1/3 125/1/3
f 127/2/3 122/2/3 121/2/3
f 128/1/3 117/1/3 122/1/3
f 128/2/3 122/2/3 127/2/3
f 129/2/3 118/2/3 117/2/3
f 129/1/3 117/1/3 128/1/3
f 130/1/3 125/1/3 118/1/3
f 130/2/3 118/2/3 129/2/3
f 131/1/3 125/1/3 130/1/3
f 132/2/3 126/2/3 125/2/3
f 132/1/3 125/1/3 131/1/3
f 133/2/3 126/2/3 132/2/3
f 134/1/3 120/1/3 126/1/3
f 134/2/3 126/2/3 133/2/3
f 135/1/3 120/1/3 134/1/3
f 136/2/3 116/2/3 120/2/3
f 136/1/3 120/1/3 135/1/3
f 137/2/3 116/2/3 136/2/3
f 138/1/3 133/1/3 132/1/3
f 138/2/3 131/2/3 130/2/3
f 138/1/3 132/1/3 131/1/3
f 139/1/3 133/1/3 138/1/3
f 140/2/3 135/2/3 134/2/3
f 140/1/3 133/1/3 139/1/3
f 140/2/3 134/2/3 133/2/3
f 141/2/3 135/2/3 140/2/3
f 142/1/3 137/1/3 136/1/3
f 142/2/3 135/2/3 141/2/3
f 142/1/3 136/1/3 135/1/3
f 143/1/3 137/1/3 142/1/3
f 144/1/3 128/1/3 127/1/3
f 144/1/3 129/1/3 128/1/3
f 144/1/3 130/1/3 129/1/3
f 145/1/3 130/1/3 144/1/3
f 146/2/3 139/2/3 138/2/3
f 146/1/3 130/1/3 145/1/3
f 146/2/3 138/2/3 130/2/3
f 147/1/3 141/1/3 140/1/3
f 147/2/3 139/2/3 146/2/3
f 147/1/3 140/1/3 139/1/3
f 148/2/3 143/2/3 142/2/3
f 148/1/3 141/1/3 147/1/3
f 148/2/3 142/2/3 141/2/3
f 149/2/3 143/2/3 148/2/3
f 150/2/3 145/2/3 144/2/3
f 151/1/3 147/1/3 146/1/3
f 151/2/3 145/2/3 150/2/3
f 151/1/3 146/1/3 145/1/3
f 151/1/3 149/1/3 148/1/3
f 151/1/3 148/1/3 147/1/3
f 152/2/3 143/2/3 149/2/3
f 152/1/3 149/1/3 151/1/3
f 153/1/3 137/1/3 143/1/3
f 153/2/3 143/2/3 152/2/3
f 154/1/3 137/1/3 153/1/3
f 161/3/3 156/3/3 155/3/3
f 161/4/3 157/4/3 156/4/3
f 162/3/3 158/3/3 157/3/3
f 162/4/3 157/4/3 161/4/3
f 163/4/3 159/4/3 158/4/3
f 163/3/3 158/3/3 162/3/3
f 164/4/3 159/4/3 163/4/3
f 165/3/3 160/3/3 159/3/3
f 165/4/3 159/4/3 164/4/3
f 166/3/3 160/3/3 165/3/3
f 167/3/3 164/3/3 163/3/3
f 167/3/3 162/3/3 161/3/3
f 167/4/3 166/4/3 165/4/3
f 167/4/3 165/4/3 164/4/3
f 167/3/3 163/3/3 162/3/3
f 168/4/3 166/4/3 167/4/3
f 169/3/3 167/3/3 161/3/3
f 169/3/3 168/3/3 167/3/3
f 170/3/3 168/3/3 169/3/3
f 171/3/3 161/3/3 155/3/3
f 171/3/3 169/3/3 161/3/3
f 172/3/3 169/3/3 171/3/3
f 173/3/3 168/3/3 170/3/3
f 173/4/3 166/4/3 168/4/3
f 174/4/3 166/4/3 173/4/3
f 175/3/3 171/3/3 155/3/3
f 176/4/3 172/4/3 171/4/3
f 176/3/3 171/3/3 175/3/3
f 177/4/3 176/4/3 175/4/3
f 177/4/3 172/4/3 176/4/3
f 178/3/3 169/3/3 172/3/3
f 178/4/3 172/4/3 177/4/3
f 179/4/3 177/4/3 175/4/3
f 180/3/3 178/3/3 177/3/3
f 180/4/3 177/4/3 179/4/3
f 181/3/3 169/3/3 178/3/3
f 181/3/3 178/3/3 180/3/3
f 182/3/3 180/3/3 179/3/3
f 182/3/3 181/3/3 180/3/3
f 183/3/3 173/3/3 170/3/3
f 183/3/3 174/3/3 173/3/3
f 184/3/3 174/3/3 183/3/3
f 185/3/3 182/3/3 179/3/3
f 186/3/3 183/3/3 170/3/3
f 187/3/3 183/3/3 186/3/3
f 188/4/3 184/4/3 183/4/3
f 188/3/3 183/3/3 187/3/3
f 189/4/3 184/4/3 188/4/3
f 190/3/3 185/3/3 179/3/3
f 190/3/3 187/3/3 186/3/3
f 190/3/3 186/3/3 185/3/3
f 191/3/3 187/3/3 190/3/3
f 192/3/3 187/3/3 191/3/3
f 193/4/3 188/4/3 187/4/3
f 193/3/3 187/3/3 192/3/3
f 194/3/3 190/3/3 179/3/3
f 194/4/3 191/4/3 190/4/3
f 195/3/3 192/3/3 191/3/3
f 195/4/3 191/4/3 194/4/3
f 196/4/3 193/4/3 192/4/3
f 196/3/3 192/3/3 195/3/3
f 197/3/3 189/3/3 188/3/3
f 197/4/3 193/4/3 196/4/3
f 197/4/3 188/4/3 193/4/3
f 198/3/3 194/3/3 179/3/3
f 198/3/3 195/3/3 194/3/3
f 199/4/3 196/4/3 195/4/3
f 199/3/3 195/3/3 198/3/3
f 200/3/3 197/3/3 196/3/3
f 200/4/3 196/4/3 199/4/3
f 201/3/3 189/3/3 197/3/3
f 201/3/3 197/3/3 200/3/3
f 202/3/4 203/3/4 206/3/4
f 203/4/4 204/4/4 206/4/4
f 204/3/4 205/3/4 207/3/4
f 206/4/4 204/4/4 207/4/4
f 206/3/4 207/3/4 208/3/4
f 207/3/4 205/3/4 208/3/4
f 208/3/4 205/3/4 209/3/4
f 202/3/4 206/3/4 210/3/4
f 206/3/4 208/3/4 210/3/4
f 210/3/4 208/3/4 211/3/4
f 208/4/4 209/4/4 212/4/4
f 209/3/4 205/3/4 213/3/4
f 212/4/4 209/4/4 213/4/4
f 210/4/4 211/4/4 214/4/4
f 211/3/4 208/3/4 215/3/4
f 214/4/4 211/4/4 215/4/4
f 215/3/4 208/3/4 216/3/4
f 208/4/4 212/4/4 217/4/4
f 216/3/4 208/3/4 217/3/4
f 212/3/4 213/3/4 218/3/4
f 217/4/4 212/4/4 218/4/4
f 202/3/4 210/3/4 219/3/4
f 210/4/4 214/4/4 220/4/4
f 219/3/4 210/3/4 220/3/4
f 215/3/4 216/3/4 221/3/4
f 220/4/4 214/4/4 221/4/4
f 214/3/4 215/3/4 221/3/4
f 221/3/4 216/3/4 222/3/4
f 216/4/4 217/4/4 223/4/4
f 222/3/4 216/3/4 223/3/4
f 217/3/4 218/3/4 224/3/4
f 223/4/4 217/4/4 224/4/4
f 221/3/4 222/3/4 225/3/4
f 220/3/4 221/3/4 225/3/4
f 222/4/4 223/4/4 226/4/4
f 225/3/4 222/3/4 226/3/4
f 223/3/4 224/3/4 227/3/4
f 226/4/4 223/4/4 227/4/4
f 202/3/4 219/3/4 228/3/4
f 219/4/4 220/4/4 229/4/4
f 228/3/4 219/3/4 229/3/4
f 220/3/4 225/3/4 230/3/4
f 229/4/4 220/4/4 230/4/4
f 230/3/4 225/3/4 231/3/4
f 225/4/4 226/4/4 232/4/4
f 231/3/4 225/3/4 232/3/4
f 226/3/4 227/3/4 233/3/4
f 232/4/4 226/4/4 233/4/4
f 227/3/4 224/3/4 234/3/4
f 233/3/4 227/3/4 234/3/4
f 218/3/4 213/3/4 234/3/4
f 213/3/4 205/3/4 234/3/4
f 224/3/4 218/3/4 234/3/4
f 234/3/4 205/3/4 235/3/4
f 229/3/4 230/3/4 236/3/4
f 230/3/4 231/3/4 236/3/4
f 231/4/4 232/4/4 237/4/4
f 236/3/4 231/3/4 237/3/4
f 237/4/4 232/4/4 238/4/4
f 232/3/4 233/3/4 239/3/4
f 238/4/4 232/4/4 239/4/4
f 233/3/4 234/3/4 239/3/4
f 229/3/4 236/3/4 240/3/4
f 237/4/4 238/4/4 241/4/4
f 240/3/4 236/3/4 241/3/4
f 236/4/4 237/4/4 241/4/4
f 241/4/4 238/4/4 242/4/4
f 238/3/4 239/3/4 243/3/4
f 242/4/4 238/4/4 243/4/4
f 229/3/4 240/3/4 244/3/4
f 228/4/4 229/4/4 244/4/4
f 244/3/4 240/3/4 245/3/4
f 241/4/4 242/4/4 246/4/4
f 240/4/4 241/4/4 246/4/4
f 242/3/4 243/3/4 247/3/4
f 246/4/4 242/4/4 247/4/4
f 244/4/4 245/4/4 248/4/4
f 228/4/4 244/4/4 248/4/4
f 248/4/4 245/4/4 249/4/4
f 240/4/4 246/4/4 250/4/4
f 245/3/4 240/3/4 250/3/4
f 246/3/4 247/3/4 251/3/4
f 250/4/4 246/4/4 251/4/4
f 243/3/4 239/3/4 252/3/4
f 251/3/4 247/3/4 252/3/4
f 239/3/4 234/3/4 252/3/4
f 234/4/4 235/4/4 252/4/4
f 247/3/4 243/3/4 252/3/4
f 252/4/4 235/4/4 253/4/4
f 249/4/4 245/4/4 254/4/4
f 248/3/4 249/3/4 254/3/4
f 250/3/4 251/3/4 255/3/4
f 254/4/4 245/4/4 255/4/4
f 245/3/4 250/3/4 255/3/4
f 251/3/4 252/3/4 255/3/4
f 252/3/4 253/3/4 255/3/4
f 255/3/4 253/3/4 256/3/4
f 254/3/4 255/3/4 257/3/4
f 255/4/4 256/4/4 257/4/4
f 256/3/4 253/3/4 258/3/4
f 257/4/4 256/4/4 258/4/4
f 248/3/4 254/3/4 259/3/4
f 254/3/4 257/3/4 259/3/4
f 257/3/4 258/3/4 259/3/4
f 258/3/4 253/3/4 260/3/4
f 259/3/4 258/3/4 260/3/4
f 265/3/5 262/3/5 261/3/5
f 266/3/5 262/3/5 265/3/5
f 267/4/5 263/4/5 262/4/5
f 267/3/5 262/3/5 266/3/5
f 268/3/5 264/3/5 263/3/5
f 268/4/5 263/4/5 267/4/5
f 269/3/5 264/3/5 268/3/5
f 270/4/5 266/4/5 265/4/5
f 271/3/5 267/3/5 266/3/5
f 271/4/5 266/4/5 270/4/5
f 271/3/5 268/3/5 267/3/5
f 272/3/5 268/3/5 271/3/5
f 273/3/5 264/3/5 269/3/5
f 274/3/5 264/3/5 273/3/5
f 275/3/5 271/3/5 270/3/5
f 275/4/5 272/4/5 271/4/5
f 276/3/5 268/3/5 272/3/5
f 276/4/5 272/4/5 275/4/5
f 277/3/5 268/3/5 276/3/5
f 278/4/5 269/4/5 268/4/5
f 278/3/5 268/3/5 277/3/5
f 279/3/5 273/3/5 269/3/5
f 279/4/5 269/4/5 278/4/5
f 280/3/5 273/3/5 279/3/5
f 281/4/5 274/4/5 273/4/5
f 281/3/5 273/3/5 280/3/5
f 282/4/5 274/4/5 281/4/5
f 283/4/5 277/4/5 276/4/5
f 283/3/5 276/3/5 275/3/5
f 284/3/5 280/3/5 279/3/5
f 284/4/5 277/4/5 283/4/5
f 284/3/5 278/3/5 277/3/5
f 284/3/5 279/3/5 278/3/5
f 285/3/5 280/3/5 284/3/5
f 286/4/5 281/4/5 280/4/5
f 286/3/5 280/3/5 285/3/5
f 287/4/5 281/4/5 286/4/5
f 288/3/5 282/3/5 281/3/5
f 288/4/5 281/4/5 287/4/5
f 289/3/5 285/3/5 284/3/5
f 289/3/5 284/3/5 283/3/5
f 290/4/5 287/4/5 286/4/5
f 290/3/5 285/3/5 289/3/5
f 290/4/5 286/4/5 285/4/5
f 291/3/5 288/3/5 287/3/5
f 291/4/5 287/4/5 290/4/5
f 292/3/5 275/3/5 270/3/5
f 292/3/5 283/3/5 275/3/5
f 292/3/5 289/3/5 283/3/5
f 293/4/5 290/4/5 289/4/5
f 293/3/5 289/3/5 292/3/5
f 294/3/5 291/3/5 290/3/5
f 294/4/5 290/4/5 293/4/5
f 295/3/5 288/3/5 291/3/5
f 295/3/5 291/3/5 294/3/5
f 295/3/5 282/3/5 288/3/5
f 302/2/5 297/2/5 296/2/5
f 303/2/5 297/2/5 302/2/5
f 304/1/5 298/1/5 297/1/5
f 304/2/5 297/2/5 303/2/5
f 305/2/5 299/2/5 298/2/5
f 305/1/5 298/1/5 304/1/5
f 306/2/5 299/2/5 305/2/5
f 307/1/5 300/1/5 299/1/5
f 308/2/5 301/2/5 300/2/5
f 308/1/5 300/1/5 307/1/5
f 309/1/5 303/1/5 302/1/5
f 309/2/5 304/2/5 303/2/5
f 309/2/5 305/2/5 304/2/5
f 310/1/5 306/1/5 305/1/5
f 310/2/5 305/2/5 309/2/5
f 311/1/5 307/1/5 299/1/5
f 311/2/5 308/2/5 307/2/5
f 312/2/5 301/2/5 308/2/5
f 312/2/5 308/2/5 311/2/5
f 313/1/5 310/1/5 309/1/5
f 313/1/5 309/1/5 302/1/5
f 314/1/5 306/1/5 310/1/5
f 314/1/5 310/1/5 313/1/5
f 314/2/5 299/2/5 306/2/5
f 315/1/5 311/1/5 299/1/5
f 315/2/5 299/2/5 314/2/5
f 315/1/5 312/1/5 311/1/5
f 316/1/5 312/1/5 315/1/5
f 317/1/6 318/1/6 321/1/6
f 321/1/6 318/1/6 322/1/6
f 318/2/6 319/2/6 323/2/6
f 322/1/6 318/1/6 323/1/6
f 323/2/6 319/2/6 324/2/6
f 324/2/6 319/2/6 325/2/6
f 325/2/6 319/2/6 326/2/6
f 319/1/6 320/1/6 327/1/6
f 326/2/6 319/2/6 327/2/6
f 327/1/6 320/1/6 328/1/6
f 321/2/6 322/2/6 329/2/6
f 322/1/6 323/1/6 330/1/6
f 329/2/6 322/2/6 330/2/6
f 323/1/6 324/1/6 330/1/6
f 324/2/6 325/2/6 331/2/6
f 330/1/6 324/1/6 331/1/6
f 325/1/6 326/1/6 332/1/6
f 331/2/6 325/2/6 332/2/6
f 327/2/6 328/2/6 333/2/6
f 332/1/6 326/1/6 333/1/6
f 326/2/6 327/2/6 333/2/6
f 333/2/6 328/2/6 334/2/6
f 321/2/6 329/2/6 335/2/6
f 330/1/6 331/1/6 336/1/6
f 335/2/6 329/2/6 336/2/6
f 331/1/6 332/1/6 336/1/6
f 333/1/6 334/1/6 336/1/6
f 332/1/6 333/1/6 336/1/6
f 329/1/6 330/1/6 336/1/6
f 335/1/6 336/1/6 337/1/6
f 336/1/6 334/1/6 338/1/6
f 337/1/6 336/1/6 338/1/6
f 339/3/6 340/3/6 345/3/6
f 340/4/6 341/4/6 345/4/6
f 341/3/6 342/3/6 346/3/6
f 345/4/6 341/4/6 346/4/6
f 346/3/6 342/3/6 347/3/6
f 342/4/6 343/4/6 348/4/6
f 347/3/6 342/3/6 348/3/6
f 343/3/6 344/3/6 349/3/6
f 348/4/6 343/4/6 349/4/6
f 346/4/6 347/4/6 350/4/6
f 345/3/6 346/3/6 350/3/6
f 347/3/6 348/3/6 351/3/6
f 350/4/6 347/4/6 351/4/6
f 348/3/6 349/3/6 351/3/6
f 350/3/6 351/3/6 352/3/6
f 351/3/6 349/3/6 352/3/6
f 349/3/6 344/3/6 353/3/6
f 352/3/6 349/3/6 353/3/6
f 350/3/6 352/3/6 354/3/6
f 352/4/6 353/4/6 355/4/6
f 354/3/6 352/3/6 355/3/6
f 355/4/6 353/4/6 356/4/6
f 345/3/6 350/3/6 357/3/6
f 339/3/6 345/3/6 357/3/6
f 350/3/6 354/3/6 357/3/6
f 354/4/6 355/4/6 358/4/6
f 357/3/6 354/3/6 358/3/6
f 355/3/6 356/3/6 359/3/6
f 358/4/6 355/4/6 359/4/6
f 359/3/6 356/3/6 360/3/6
