# MagicaVoxel @ Ephtracy

# group
o 

# material
mtllib VR Токарев дерево.mtl
usemtl palette

# normals
vn -1 0 0
vn 1 0 0
vn 0 0 1
vn 0 0 -1
vn 0 -1 0
vn 0 1 0

# texcoords
vt 0.865234 0.5
vt 0.869141 0.5
vt 0.896484 0.5
vt 0.900391 0.5
vt 0.962891 0.5
vt 0.966797 0.5

# verts
v -0.6 0.1 0.6
v -0.6 0.1 -0.6
v -0.6 0.2 0.6
v -0.6 0.2 0.5
v -0.6 0.2 -0.2
v -0.6 0.2 -0.5
v -0.6 0.3 0.5
v -0.6 0.3 0.4
v -0.6 0.3 -5.96046e-08
v -0.6 0.3 -0.2
v -0.6 0.3 -0.3
v -0.6 0.3 -0.5
v -0.6 0.4 0.4
v -0.6 0.4 0.3
v -0.6 0.4 -0.1
v -0.6 0.4 -0.3
v -0.6 0.5 0.4
v -0.6 0.5 0.3
v -0.6 0.5 0.2
v -0.6 0.5 -5.96046e-08
v -0.6 0.5 -0.1
v -0.6 0.5 -0.3
v -0.6 0.5 -0.5
v -0.6 0.6 0.6
v -0.6 0.6 0.5
v -0.6 0.6 0.2
v -0.6 0.6 -5.96046e-08
v -0.6 0.6 -0.2
v -0.6 0.6 -0.3
v -0.6 0.6 -0.4
v -0.6 0.6 -0.5
v -0.6 0.7 0.3
v -0.6 0.7 0.0999999
v -0.6 0.7 -0.1
v -0.6 0.7 -0.2
v -0.6 0.7 -0.4
v -0.6 0.7 -0.5
v -0.6 0.7 -0.6
v -0.6 0.8 0.5
v -0.6 0.8 0.4
v -0.6 0.8 0.0999999
v -0.6 0.8 -5.96046e-08
v -0.6 0.8 -0.1
v -0.6 0.9 -5.96046e-08
v -0.6 0.9 -0.2
v -0.6 0.9 -0.5
v -0.6 0.9 -0.6
v -0.6 1 0.4
v -0.6 1 0.2
v -0.6 1.1 0.6
v -0.6 1.1 0.4
v -0.6 1.1 0.2
v -0.6 1.1 -0.6
v -0.2 1.5 0.0999999
v -0.2 1.5 -0.1
v -0.2 1.6 0.0999999
v -0.2 1.6 -0.1
v -0.2 1.7 0.0999999
v -0.2 1.7 -0.1
v -0.2 1.8 0.0999999
v -0.2 1.8 -0.1
v -0.2 1.9 0.0999999
v -0.2 1.9 -0.1
v -0.2 2 0.0999999
v -0.2 2 -0.1
v -0.2 2.1 0.0999999
v -0.2 2.1 -0.1
v -0.2 2.2 0.0999999
v -0.2 2.2 -0.1
v -0.2 2.3 0.0999999
v -0.2 2.3 -0.1
v -0.2 2.4 0.0999999
v -0.2 2.4 -0.1
v -0.0999999 0.9 0.0999999
v -0.0999999 0.9 -0.1
v -0.0999999 1.3 -5.96046e-08
v -0.0999999 1.3 -0.1
v -0.0999999 1.4 -5.96046e-08
v -0.0999999 1.4 -0.1
v -0.0999999 1.5 0.2
v -0.0999999 1.5 0.0999999
v -0.0999999 1.5 -0.1
v -0.0999999 1.5 -0.2
v -0.0999999 1.6 0.2
v -0.0999999 1.6 0.0999999
v -0.0999999 1.6 -5.96046e-08
v -0.0999999 1.6 -0.1
v -0.0999999 1.6 -0.2
v -0.0999999 1.7 0.2
v -0.0999999 1.7 0.0999999
v -0.0999999 1.7 -5.96046e-08
v -0.0999999 1.7 -0.1
v -0.0999999 1.7 -0.2
v -0.0999999 1.8 0.2
v -0.0999999 1.8 0.0999999
v -0.0999999 1.8 -5.96046e-08
v -0.0999999 1.8 -0.1
v -0.0999999 1.8 -0.2
v -0.0999999 1.9 0.2
v -0.0999999 1.9 0.0999999
v -0.0999999 1.9 -5.96046e-08
v -0.0999999 1.9 -0.1
v -0.0999999 1.9 -0.2
v -0.0999999 2 0.2
v -0.0999999 2 0.0999999
v -0.0999999 2 -0.1
v -0.0999999 2 -0.2
v -0.0999999 2.1 0.2
v -0.0999999 2.1 0.0999999
v -0.0999999 2.1 -0.1
v -0.0999999 2.1 -0.2
v -0.0999999 2.2 0.2
v -0.0999999 2.2 0.0999999
v -0.0999999 2.2 -5.96046e-08
v -0.0999999 2.2 -0.1
v -0.0999999 2.2 -0.2
v -0.0999999 2.3 0.2
v -0.0999999 2.3 0.0999999
v -0.0999999 2.3 -5.96046e-08
v -0.0999999 2.3 -0.1
v -0.0999999 2.3 -0.2
v -0.0999999 2.4 0.2
v -0.0999999 2.4 0.0999999
v -0.0999999 2.4 -5.96046e-08
v -0.0999999 2.4 -0.1
v -0.0999999 2.4 -0.2
v -0.0999999 2.5 0.0999999
v -0.0999999 2.5 -5.96046e-08
v -0.0999999 2.5 -0.1
v 0.5 0.9 0.5
v 0.5 0.9 0.0999999
v 0.5 0.9 -5.96046e-08
v 0.5 0.9 -0.2
v 0.5 0.9 -0.4
v 0.5 0.9 -0.5
v 0.5 1 0.5
v 0.5 1 -5.96046e-08
v 0.5 1 -0.2
v 0.5 1 -0.4
v 0.5 1 -0.5
v 0.5 1.1 0.5
v 0.5 1.1 0.0999999
v 0.5 1.1 -0.2
v 0.5 1.1 -0.5
v -0.5 0.9 0.5
v -0.5 0.9 -0.5
v -0.5 1 0.4
v -0.5 1 0.2
v -0.5 1.1 0.5
v -0.5 1.1 0.4
v -0.5 1.1 0.2
v -0.5 1.1 -0.5
v 0.1 0.9 0.0999999
v 0.1 0.9 -0.1
v 0.1 1 0.0999999
v 0.1 1 -5.96046e-08
v 0.1 1.1 -5.96046e-08
v 0.1 1.1 -0.1
v 0.1 1.3 0.0999999
v 0.1 1.3 -5.96046e-08
v 0.1 1.4 -5.96046e-08
v 0.1 1.4 -0.1
v 0.1 1.5 0.2
v 0.1 1.5 0.0999999
v 0.1 1.5 -0.1
v 0.1 1.5 -0.2
v 0.1 1.6 0.2
v 0.1 1.6 0.0999999
v 0.1 1.6 -5.96046e-08
v 0.1 1.6 -0.1
v 0.1 1.6 -0.2
v 0.1 1.7 0.2
v 0.1 1.7 0.0999999
v 0.1 1.7 -5.96046e-08
v 0.1 1.7 -0.1
v 0.1 1.7 -0.2
v 0.1 1.8 0.2
v 0.1 1.8 0.0999999
v 0.1 1.8 -0.1
v 0.1 1.8 -0.2
v 0.1 1.9 0.2
v 0.1 1.9 0.0999999
v 0.1 1.9 -0.1
v 0.1 1.9 -0.2
v 0.1 2 0.2
v 0.1 2 0.0999999
v 0.1 2 -0.1
v 0.1 2 -0.2
v 0.1 2.1 0.2
v 0.1 2.1 0.0999999
v 0.1 2.1 -0.1
v 0.1 2.1 -0.2
v 0.1 2.2 0.2
v 0.1 2.2 0.0999999
v 0.1 2.2 -0.1
v 0.1 2.2 -0.2
v 0.1 2.3 0.2
v 0.1 2.3 0.0999999
v 0.1 2.3 -0.1
v 0.1 2.3 -0.2
v 0.1 2.4 0.2
v 0.1 2.4 0.0999999
v 0.1 2.4 -0.1
v 0.1 2.4 -0.2
v 0.1 2.5 0.0999999
v 0.1 2.5 -0.1
v 0.2 1.5 0.0999999
v 0.2 1.5 -0.1
v 0.2 1.6 0.0999999
v 0.2 1.6 -0.1
v 0.2 1.7 0.0999999
v 0.2 1.7 -0.1
v 0.2 1.8 0.0999999
v 0.2 1.8 -0.1
v 0.2 1.9 0.0999999
v 0.2 1.9 -0.1
v 0.2 2 0.0999999
v 0.2 2 -0.1
v 0.2 2.1 0.0999999
v 0.2 2.1 -0.1
v 0.2 2.2 0.0999999
v 0.2 2.2 -0.1
v 0.2 2.3 0.0999999
v 0.2 2.3 -0.1
v 0.2 2.4 0.0999999
v 0.2 2.4 -0.1
v 0.6 0.1 0.6
v 0.6 0.1 -0.6
v 0.6 0.2 0.3
v 0.6 0.2 0.0999999
v 0.6 0.3 0.4
v 0.6 0.3 0.3
v 0.6 0.3 0.2
v 0.6 0.3 0.0999999
v 0.6 0.3 -0.5
v 0.6 0.3 -0.6
v 0.6 0.4 0.4
v 0.6 0.4 0.2
v 0.6 0.4 -0.2
v 0.6 0.4 -0.4
v 0.6 0.4 -0.5
v 0.6 0.4 -0.6
v 0.6 0.5 0.6
v 0.6 0.5 0.5
v 0.6 0.5 -0.3
v 0.6 0.5 -0.4
v 0.6 0.6 0.5
v 0.6 0.6 0.4
v 0.6 0.6 -0.1
v 0.6 0.6 -0.2
v 0.6 0.6 -0.3
v 0.6 0.7 0.6
v 0.6 0.7 0.5
v 0.6 0.7 0.4
v 0.6 0.7 0.3
v 0.6 0.7 -5.96046e-08
v 0.6 0.7 -0.1
v 0.6 0.8 0.6
v 0.6 0.8 0.5
v 0.6 0.8 0.4
v 0.6 0.8 0.0999999
v 0.6 0.8 -5.96046e-08
v 0.6 0.8 -0.1
v 0.6 0.8 -0.2
v 0.6 0.8 -0.5
v 0.6 0.8 -0.6
v 0.6 0.9 0.4
v 0.6 0.9 0.3
v 0.6 0.9 -5.96046e-08
v 0.6 0.9 -0.1
v 0.6 0.9 -0.2
v 0.6 0.9 -0.4
v 0.6 0.9 -0.5
v 0.6 0.9 -0.6
v 0.6 1 0.6
v 0.6 1 0.5
v 0.6 1 -5.96046e-08
v 0.6 1 -0.2
v 0.6 1 -0.4
v 0.6 1.1 0.6
v 0.6 1.1 0.0999999
v 0.6 1.1 -0.2
v 0.6 1.1 -0.6
v -0.6 0.1 0.6
v -0.6 0.2 0.6
v -0.6 0.6 0.6
v -0.6 1.1 0.6
v -0.5 0.2 0.6
v -0.5 0.6 0.6
v -0.4 0.9 0.6
v -0.4 1.1 0.6
v -0.3 0.6 0.6
v -0.3 0.9 0.6
v -0.3 1 0.6
v -0.3 1.1 0.6
v -0.2 0.4 0.6
v -0.2 0.6 0.6
v -0.2 0.7 0.6
v -0.2 1 0.6
v -0.0999999 0.4 0.6
v -0.0999999 0.7 0.6
v -0.0999999 0.8 0.6
v 0.1 0.6 0.6
v 0.1 0.7 0.6
v 0.1 0.9 0.6
v 0.1 1.1 0.6
v 0.2 0.7 0.6
v 0.2 0.8 0.6
v 0.2 0.9 0.6
v 0.2 1.1 0.6
v 0.3 0.5 0.6
v 0.3 0.6 0.6
v 0.4 0.4 0.6
v 0.4 0.5 0.6
v 0.4 0.6 0.6
v 0.4 0.7 0.6
v 0.4 0.9 0.6
v 0.4 1 0.6
v 0.5 0.4 0.6
v 0.5 0.5 0.6
v 0.5 0.6 0.6
v 0.5 0.7 0.6
v 0.5 0.8 0.6
v 0.5 0.9 0.6
v 0.6 0.1 0.6
v 0.6 0.5 0.6
v 0.6 0.7 0.6
v 0.6 0.8 0.6
v 0.6 1 0.6
v 0.6 1.1 0.6
v -0.0999999 1.5 0.2
v -0.0999999 1.6 0.2
v -0.0999999 1.7 0.2
v -0.0999999 1.8 0.2
v -0.0999999 1.9 0.2
v -0.0999999 2 0.2
v -0.0999999 2.1 0.2
v -0.0999999 2.2 0.2
v -0.0999999 2.3 0.2
v -0.0999999 2.4 0.2
v 0.1 1.5 0.2
v 0.1 1.6 0.2
v 0.1 1.7 0.2
v 0.1 1.8 0.2
v 0.1 1.9 0.2
v 0.1 2 0.2
v 0.1 2.1 0.2
v 0.1 2.2 0.2
v 0.1 2.3 0.2
v 0.1 2.4 0.2
v -0.2 1.5 0.0999999
v -0.2 1.6 0.0999999
v -0.2 1.7 0.0999999
v -0.2 1.8 0.0999999
v -0.2 1.9 0.0999999
v -0.2 2 0.0999999
v -0.2 2.1 0.0999999
v -0.2 2.2 0.0999999
v -0.2 2.3 0.0999999
v -0.2 2.4 0.0999999
v -0.0999999 0.9 0.0999999
v -0.0999999 1.5 0.0999999
v -0.0999999 1.6 0.0999999
v -0.0999999 1.7 0.0999999
v -0.0999999 1.8 0.0999999
v -0.0999999 1.9 0.0999999
v -0.0999999 2 0.0999999
v -0.0999999 2.1 0.0999999
v -0.0999999 2.2 0.0999999
v -0.0999999 2.3 0.0999999
v -0.0999999 2.4 0.0999999
v -0.0999999 2.5 0.0999999
v 5.96046e-08 1 0.0999999
v 5.96046e-08 1.3 0.0999999
v 5.96046e-08 1.6 0.0999999
v 5.96046e-08 1.7 0.0999999
v 0.1 0.9 0.0999999
v 0.1 1 0.0999999
v 0.1 1.3 0.0999999
v 0.1 1.5 0.0999999
v 0.1 1.6 0.0999999
v 0.1 1.7 0.0999999
v 0.1 1.8 0.0999999
v 0.1 1.9 0.0999999
v 0.1 2 0.0999999
v 0.1 2.1 0.0999999
v 0.1 2.2 0.0999999
v 0.1 2.3 0.0999999
v 0.1 2.4 0.0999999
v 0.1 2.5 0.0999999
v 0.2 1.5 0.0999999
v 0.2 1.6 0.0999999
v 0.2 1.7 0.0999999
v 0.2 1.8 0.0999999
v 0.2 1.9 0.0999999
v 0.2 2 0.0999999
v 0.2 2.1 0.0999999
v 0.2 2.2 0.0999999
v 0.2 2.3 0.0999999
v 0.2 2.4 0.0999999
v -0.5 0.9 -0.5
v -0.5 1.1 -0.5
v -0.2 1 -0.5
v -0.2 1.1 -0.5
v -0.0999999 0.9 -0.5
v -0.0999999 1 -0.5
v 5.96046e-08 1 -0.5
v 5.96046e-08 1.1 -0.5
v 0.1 0.9 -0.5
v 0.1 1 -0.5
v 0.3 0.9 -0.5
v 0.3 1.1 -0.5
v 0.4 1 -0.5
v 0.4 1.1 -0.5
v 0.5 0.9 -0.5
v 0.5 1 -0.5
v 0.5 1.1 -0.5
v -0.5 0.9 0.5
v -0.5 1.1 0.5
v -0.4 0.9 0.5
v -0.4 1.1 0.5
v -0.3 1 0.5
v -0.3 1.1 0.5
v -0.2 0.9 0.5
v -0.2 1 0.5
v 0.1 0.9 0.5
v 0.1 1.1 0.5
v 0.2 0.9 0.5
v 0.2 1.1 0.5
v 0.4 0.9 0.5
v 0.4 1 0.5
v 0.5 0.9 0.5
v 0.5 1 0.5
v 0.5 1.1 0.5
v -0.2 1.5 -0.1
v -0.2 1.6 -0.1
v -0.2 1.7 -0.1
v -0.2 1.8 -0.1
v -0.2 1.9 -0.1
v -0.2 2 -0.1
v -0.2 2.1 -0.1
v -0.2 2.2 -0.1
v -0.2 2.3 -0.1
v -0.2 2.4 -0.1
v -0.0999999 0.9 -0.1
v -0.0999999 1.3 -0.1
v -0.0999999 1.4 -0.1
v -0.0999999 1.5 -0.1
v -0.0999999 1.6 -0.1
v -0.0999999 1.7 -0.1
v -0.0999999 1.8 -0.1
v -0.0999999 1.9 -0.1
v -0.0999999 2 -0.1
v -0.0999999 2.1 -0.1
v -0.0999999 2.2 -0.1
v -0.0999999 2.3 -0.1
v -0.0999999 2.4 -0.1
v -0.0999999 2.5 -0.1
v 5.96046e-08 1.1 -0.1
v 5.96046e-08 1.3 -0.1
v 5.96046e-08 1.6 -0.1
v 5.96046e-08 1.7 -0.1
v 5.96046e-08 1.8 -0.1
v 5.96046e-08 1.9 -0.1
v 5.96046e-08 2.2 -0.1
v 5.96046e-08 2.3 -0.1
v 5.96046e-08 2.4 -0.1
v 5.96046e-08 2.5 -0.1
v 0.1 0.9 -0.1
v 0.1 1.1 -0.1
v 0.1 1.4 -0.1
v 0.1 1.5 -0.1
v 0.1 1.6 -0.1
v 0.1 1.7 -0.1
v 0.1 1.8 -0.1
v 0.1 1.9 -0.1
v 0.1 2 -0.1
v 0.1 2.1 -0.1
v 0.1 2.2 -0.1
v 0.1 2.3 -0.1
v 0.1 2.4 -0.1
v 0.1 2.5 -0.1
v 0.2 1.5 -0.1
v 0.2 1.6 -0.1
v 0.2 1.7 -0.1
v 0.2 1.8 -0.1
v 0.2 1.9 -0.1
v 0.2 2 -0.1
v 0.2 2.1 -0.1
v 0.2 2.2 -0.1
v 0.2 2.3 -0.1
v 0.2 2.4 -0.1
v -0.0999999 1.5 -0.2
v -0.0999999 1.6 -0.2
v -0.0999999 1.7 -0.2
v -0.0999999 1.8 -0.2
v -0.0999999 1.9 -0.2
v -0.0999999 2 -0.2
v -0.0999999 2.1 -0.2
v -0.0999999 2.2 -0.2
v -0.0999999 2.3 -0.2
v -0.0999999 2.4 -0.2
v 0.1 1.5 -0.2
v 0.1 1.6 -0.2
v 0.1 1.7 -0.2
v 0.1 1.8 -0.2
v 0.1 1.9 -0.2
v 0.1 2 -0.2
v 0.1 2.1 -0.2
v 0.1 2.2 -0.2
v 0.1 2.3 -0.2
v 0.1 2.4 -0.2
v -0.6 0.1 -0.6
v -0.6 0.7 -0.6
v -0.6 0.9 -0.6
v -0.6 1.1 -0.6
v -0.5 0.7 -0.6
v -0.5 0.9 -0.6
v -0.4 0.4 -0.6
v -0.4 0.5 -0.6
v -0.3 0.5 -0.6
v -0.3 0.6 -0.6
v -0.2 0.4 -0.6
v -0.2 0.6 -0.6
v -0.2 0.7 -0.6
v -0.2 1 -0.6
v -0.2 1.1 -0.6
v -0.0999999 0.6 -0.6
v -0.0999999 0.7 -0.6
v -0.0999999 1 -0.6
v 5.96046e-08 0.7 -0.6
v 5.96046e-08 0.9 -0.6
v 5.96046e-08 1 -0.6
v 5.96046e-08 1.1 -0.6
v 0.1 0.3 -0.6
v 0.1 0.4 -0.6
v 0.1 0.9 -0.6
v 0.1 1 -0.6
v 0.2 0.7 -0.6
v 0.2 0.8 -0.6
v 0.3 0.6 -0.6
v 0.3 0.7 -0.6
v 0.3 0.9 -0.6
v 0.3 1.1 -0.6
v 0.4 0.5 -0.6
v 0.4 0.6 -0.6
v 0.4 0.7 -0.6
v 0.4 0.8 -0.6
v 0.4 0.9 -0.6
v 0.4 1 -0.6
v 0.4 1.1 -0.6
v 0.5 0.5 -0.6
v 0.5 0.7 -0.6
v 0.5 0.9 -0.6
v 0.5 1 -0.6
v 0.6 0.1 -0.6
v 0.6 0.3 -0.6
v 0.6 0.4 -0.6
v 0.6 0.8 -0.6
v 0.6 0.9 -0.6
v 0.6 1.1 -0.6
v -0.6 0.1 0.6
v 0.6 0.1 0.6
v -0.6 0.1 -0.6
v 0.6 0.1 -0.6
v -0.0999999 1.5 0.2
v 0.1 1.5 0.2
v -0.2 1.5 0.0999999
v -0.0999999 1.5 0.0999999
v 0.1 1.5 0.0999999
v 0.2 1.5 0.0999999
v -0.2 1.5 -0.1
v -0.0999999 1.5 -0.1
v 0.1 1.5 -0.1
v 0.2 1.5 -0.1
v -0.0999999 1.5 -0.2
v 0.1 1.5 -0.2
v -0.0999999 1.7 0.2
v 0.1 1.7 0.2
v -0.2 1.7 0.0999999
v -0.0999999 1.7 0.0999999
v 5.96046e-08 1.7 0.0999999
v 0.1 1.7 0.0999999
v 0.2 1.7 0.0999999
v -0.0999999 1.7 -5.96046e-08
v 0.1 1.7 -5.96046e-08
v -0.2 1.7 -0.1
v -0.0999999 1.7 -0.1
v 5.96046e-08 1.7 -0.1
v 0.1 1.7 -0.1
v 0.2 1.7 -0.1
v -0.0999999 1.7 -0.2
v 0.1 1.7 -0.2
v -0.0999999 1.9 0.2
v 0.1 1.9 0.2
v -0.2 1.9 0.0999999
v -0.0999999 1.9 0.0999999
v 0.1 1.9 0.0999999
v 0.2 1.9 0.0999999
v -0.0999999 1.9 -5.96046e-08
v -0.2 1.9 -0.1
v -0.0999999 1.9 -0.1
v 5.96046e-08 1.9 -0.1
v 0.1 1.9 -0.1
v 0.2 1.9 -0.1
v -0.0999999 1.9 -0.2
v 0.1 1.9 -0.2
v -0.0999999 2.1 0.2
v 0.1 2.1 0.2
v -0.2 2.1 0.0999999
v -0.0999999 2.1 0.0999999
v 0.1 2.1 0.0999999
v 0.2 2.1 0.0999999
v -0.2 2.1 -0.1
v -0.0999999 2.1 -0.1
v 0.1 2.1 -0.1
v 0.2 2.1 -0.1
v -0.0999999 2.1 -0.2
v 0.1 2.1 -0.2
v -0.0999999 2.3 0.2
v 0.1 2.3 0.2
v -0.2 2.3 0.0999999
v -0.0999999 2.3 0.0999999
v 0.1 2.3 0.0999999
v 0.2 2.3 0.0999999
v -0.0999999 2.3 -5.96046e-08
v -0.2 2.3 -0.1
v -0.0999999 2.3 -0.1
v 5.96046e-08 2.3 -0.1
v 0.1 2.3 -0.1
v 0.2 2.3 -0.1
v -0.0999999 2.3 -0.2
v 0.1 2.3 -0.2
v -0.5 0.9 0.5
v -0.4 0.9 0.5
v -0.2 0.9 0.5
v 0.1 0.9 0.5
v 0.2 0.9 0.5
v 0.4 0.9 0.5
v 0.5 0.9 0.5
v 0.1 0.9 0.4
v 0.3 0.9 0.4
v -0.3 0.9 0.3
v -0.0999999 0.9 0.3
v 0.1 0.9 0.3
v 0.2 0.9 0.3
v 0.3 0.9 0.3
v 0.4 0.9 0.3
v -0.3 0.9 0.2
v -0.2 0.9 0.2
v 0.2 0.9 0.2
v 0.3 0.9 0.2
v -0.4 0.9 0.0999999
v -0.3 0.9 0.0999999
v -0.2 0.9 0.0999999
v -0.0999999 0.9 0.0999999
v 0.1 0.9 0.0999999
v 0.3 0.9 0.0999999
v 0.4 0.9 0.0999999
v 0.5 0.9 0.0999999
v -0.3 0.9 -5.96046e-08
v -0.2 0.9 -5.96046e-08
v 0.5 0.9 -5.96046e-08
v -0.4 0.9 -0.1
v -0.3 0.9 -0.1
v -0.0999999 0.9 -0.1
v 0.1 0.9 -0.1
v 0.2 0.9 -0.1
v 0.3 0.9 -0.1
v -0.2 0.9 -0.2
v -0.0999999 0.9 -0.2
v 0.5 0.9 -0.2
v -0.3 0.9 -0.3
v -0.2 0.9 -0.3
v 5.96046e-08 0.9 -0.3
v 0.2 0.9 -0.3
v 0.3 0.9 -0.3
v -0.2 0.9 -0.4
v -0.0999999 0.9 -0.4
v 5.96046e-08 0.9 -0.4
v 0.2 0.9 -0.4
v 0.5 0.9 -0.4
v -0.5 0.9 -0.5
v -0.0999999 0.9 -0.5
v 0.1 0.9 -0.5
v 0.3 0.9 -0.5
v 0.5 0.9 -0.5
v -0.6 1.1 0.6
v -0.4 1.1 0.6
v -0.3 1.1 0.6
v 0.1 1.1 0.6
v 0.2 1.1 0.6
v 0.6 1.1 0.6
v -0.5 1.1 0.5
v -0.4 1.1 0.5
v -0.3 1.1 0.5
v 0.1 1.1 0.5
v 0.2 1.1 0.5
v 0.5 1.1 0.5
v -0.6 1.1 0.4
v -0.5 1.1 0.4
v -0.6 1.1 0.2
v -0.5 1.1 0.2
v 0.5 1.1 0.0999999
v 0.6 1.1 0.0999999
v 0.5 1.1 -0.2
v 0.6 1.1 -0.2
v -0.5 1.1 -0.5
v -0.2 1.1 -0.5
v 5.96046e-08 1.1 -0.5
v 0.3 1.1 -0.5
v 0.4 1.1 -0.5
v 0.5 1.1 -0.5
v -0.6 1.1 -0.6
v -0.2 1.1 -0.6
v 5.96046e-08 1.1 -0.6
v 0.3 1.1 -0.6
v 0.4 1.1 -0.6
v 0.6 1.1 -0.6
v -0.0999999 1.6 0.2
v 0.1 1.6 0.2
v -0.2 1.6 0.0999999
v -0.0999999 1.6 0.0999999
v 5.96046e-08 1.6 0.0999999
v 0.1 1.6 0.0999999
v 0.2 1.6 0.0999999
v -0.0999999 1.6 -5.96046e-08
v 0.1 1.6 -5.96046e-08
v -0.2 1.6 -0.1
v -0.0999999 1.6 -0.1
v 5.96046e-08 1.6 -0.1
v 0.1 1.6 -0.1
v 0.2 1.6 -0.1
v -0.0999999 1.6 -0.2
v 0.1 1.6 -0.2
v -0.0999999 1.8 0.2
v 0.1 1.8 0.2
v -0.2 1.8 0.0999999
v -0.0999999 1.8 0.0999999
v 0.1 1.8 0.0999999
v 0.2 1.8 0.0999999
v -0.0999999 1.8 -5.96046e-08
v -0.2 1.8 -0.1
v -0.0999999 1.8 -0.1
v 5.96046e-08 1.8 -0.1
v 0.1 1.8 -0.1
v 0.2 1.8 -0.1
v -0.0999999 1.8 -0.2
v 0.1 1.8 -0.2
v -0.0999999 2 0.2
v 0.1 2 0.2
v -0.2 2 0.0999999
v -0.0999999 2 0.0999999
v 0.1 2 0.0999999
v 0.2 2 0.0999999
v -0.2 2 -0.1
v -0.0999999 2 -0.1
v 0.1 2 -0.1
v 0.2 2 -0.1
v -0.0999999 2 -0.2
v 0.1 2 -0.2
v -0.0999999 2.2 0.2
v 0.1 2.2 0.2
v -0.2 2.2 0.0999999
v -0.0999999 2.2 0.0999999
v 0.1 2.2 0.0999999
v 0.2 2.2 0.0999999
v -0.0999999 2.2 -5.96046e-08
v -0.2 2.2 -0.1
v -0.0999999 2.2 -0.1
v 5.96046e-08 2.2 -0.1
v 0.1 2.2 -0.1
v 0.2 2.2 -0.1
v -0.0999999 2.2 -0.2
v 0.1 2.2 -0.2
v -0.0999999 2.4 0.2
v 0.1 2.4 0.2
v -0.2 2.4 0.0999999
v -0.0999999 2.4 0.0999999
v 0.1 2.4 0.0999999
v 0.2 2.4 0.0999999
v -0.0999999 2.4 -5.96046e-08
v -0.2 2.4 -0.1
v -0.0999999 2.4 -0.1
v 5.96046e-08 2.4 -0.1
v 0.1 2.4 -0.1
v 0.2 2.4 -0.1
v -0.0999999 2.4 -0.2
v 0.1 2.4 -0.2
v -0.0999999 2.5 0.0999999
v 0.1 2.5 0.0999999
v -0.0999999 2.5 -5.96046e-08
v 5.96046e-08 2.5 -5.96046e-08
v -0.0999999 2.5 -0.1
v 5.96046e-08 2.5 -0.1
v 0.1 2.5 -0.1

# faces
f 3/5/1 2/5/1 1/5/1
f 4/5/1 2/5/1 3/5/1
f 5/5/1 2/5/1 4/5/1
f 6/5/1 2/5/1 5/5/1
f 7/6/1 4/6/1 3/6/1
f 7/5/1 5/5/1 4/5/1
f 8/5/1 5/5/1 7/5/1
f 9/5/1 5/5/1 8/5/1
f 10/6/1 6/6/1 5/6/1
f 10/5/1 5/5/1 9/5/1
f 11/6/1 6/6/1 10/6/1
f 12/5/1 2/5/1 6/5/1
f 12/6/1 6/6/1 11/6/1
f 13/5/1 9/5/1 8/5/1
f 13/6/1 8/6/1 7/6/1
f 14/5/1 9/5/1 13/5/1
f 15/6/1 11/6/1 10/6/1
f 15/6/1 10/6/1 9/6/1
f 16/5/1 12/5/1 11/5/1
f 16/6/1 11/6/1 15/6/1
f 17/6/1 14/6/1 13/6/1
f 17/6/1 13/6/1 7/6/1
f 18/5/1 9/5/1 14/5/1
f 18/6/1 14/6/1 17/6/1
f 19/5/1 9/5/1 18/5/1
f 20/6/1 15/6/1 9/6/1
f 20/5/1 9/5/1 19/5/1
f 21/5/1 16/5/1 15/5/1
f 21/6/1 15/6/1 20/6/1
f 22/5/1 12/5/1 16/5/1
f 22/5/1 16/5/1 21/5/1
f 23/5/1 2/5/1 12/5/1
f 23/5/1 12/5/1 22/5/1
f 24/6/1 17/6/1 7/6/1
f 24/6/1 7/6/1 3/6/1
f 25/6/1 17/6/1 24/6/1
f 26/5/1 22/5/1 21/5/1
f 26/6/1 19/6/1 18/6/1
f 26/5/1 21/5/1 20/5/1
f 26/5/1 20/5/1 19/5/1
f 27/5/1 22/5/1 26/5/1
f 28/5/1 22/5/1 27/5/1
f 29/6/1 23/6/1 22/6/1
f 29/5/1 22/5/1 28/5/1
f 30/6/1 23/6/1 29/6/1
f 31/5/1 2/5/1 23/5/1
f 31/6/1 23/6/1 30/6/1
f 32/5/1 18/5/1 17/5/1
f 32/6/1 26/6/1 18/6/1
f 32/6/1 27/6/1 26/6/1
f 33/6/1 27/6/1 32/6/1
f 34/5/1 28/5/1 27/5/1
f 35/6/1 30/6/1 29/6/1
f 35/5/1 28/5/1 34/5/1
f 35/6/1 29/6/1 28/6/1
f 36/5/1 31/5/1 30/5/1
f 36/6/1 30/6/1 35/6/1
f 37/5/1 2/5/1 31/5/1
f 37/5/1 31/5/1 36/5/1
f 38/5/1 2/5/1 37/5/1
f 39/6/1 17/6/1 25/6/1
f 39/5/1 25/5/1 24/5/1
f 40/5/1 33/5/1 32/5/1
f 40/6/1 17/6/1 39/6/1
f 40/5/1 32/5/1 17/5/1
f 41/6/1 27/6/1 33/6/1
f 41/5/1 33/5/1 40/5/1
f 42/5/1 34/5/1 27/5/1
f 42/6/1 27/6/1 41/6/1
f 43/6/1 35/6/1 34/6/1
f 43/5/1 34/5/1 42/5/1
f 44/5/1 41/5/1 40/5/1
f 44/5/1 40/5/1 39/5/1
f 44/6/1 43/6/1 42/6/1
f 44/5/1 42/5/1 41/5/1
f 45/6/1 35/6/1 43/6/1
f 45/6/1 43/6/1 44/6/1
f 45/5/1 37/5/1 36/5/1
f 45/5/1 36/5/1 35/5/1
f 46/6/1 38/6/1 37/6/1
f 46/5/1 37/5/1 45/5/1
f 47/6/1 38/6/1 46/6/1
f 48/5/1 44/5/1 39/5/1
f 48/5/1 45/5/1 44/5/1
f 48/5/1 47/5/1 46/5/1
f 48/5/1 46/5/1 45/5/1
f 49/5/1 47/5/1 48/5/1
f 50/5/1 39/5/1 24/5/1
f 50/5/1 48/5/1 39/5/1
f 51/6/1 49/6/1 48/6/1
f 51/5/1 48/5/1 50/5/1
f 52/5/1 47/5/1 49/5/1
f 52/6/1 49/6/1 51/6/1
f 53/5/1 47/5/1 52/5/1
f 56/3/1 55/3/1 54/3/1
f 57/3/1 55/3/1 56/3/1
f 60/3/1 59/3/1 58/3/1
f 61/3/1 59/3/1 60/3/1
f 64/3/1 63/3/1 62/3/1
f 65/3/1 63/3/1 64/3/1
f 68/3/1 67/3/1 66/3/1
f 69/3/1 67/3/1 68/3/1
f 72/3/1 71/3/1 70/3/1
f 73/3/1 71/3/1 72/3/1
f 76/2/1 75/2/1 74/2/1
f 77/2/1 75/2/1 76/2/1
f 78/2/1 76/2/1 74/2/1
f 78/1/1 77/1/1 76/1/1
f 79/1/1 77/1/1 78/1/1
f 81/2/1 78/2/1 74/2/1
f 81/2/1 79/2/1 78/2/1
f 82/2/1 79/2/1 81/2/1
f 84/3/1 81/3/1 80/3/1
f 85/3/1 81/3/1 84/3/1
f 87/3/1 83/3/1 82/3/1
f 88/3/1 83/3/1 87/3/1
f 90/2/1 86/2/1 85/2/1
f 91/1/1 87/1/1 86/1/1
f 91/2/1 86/2/1 90/2/1
f 92/1/1 87/1/1 91/1/1
f 94/3/1 90/3/1 89/3/1
f 95/3/1 90/3/1 94/3/1
f 97/3/1 93/3/1 92/3/1
f 98/3/1 93/3/1 97/3/1
f 100/2/1 96/2/1 95/2/1
f 101/1/1 97/1/1 96/1/1
f 101/2/1 96/2/1 100/2/1
f 102/1/1 97/1/1 101/1/1
f 104/3/1 100/3/1 99/3/1
f 105/3/1 100/3/1 104/3/1
f 106/3/1 103/3/1 102/3/1
f 107/3/1 103/3/1 106/3/1
f 109/2/1 106/2/1 105/2/1
f 110/2/1 106/2/1 109/2/1
f 112/3/1 109/3/1 108/3/1
f 113/3/1 109/3/1 112/3/1
f 115/3/1 111/3/1 110/3/1
f 116/3/1 111/3/1 115/3/1
f 118/2/1 114/2/1 113/2/1
f 119/1/1 115/1/1 114/1/1
f 119/2/1 114/2/1 118/2/1
f 120/1/1 115/1/1 119/1/1
f 122/3/1 118/3/1 117/3/1
f 123/3/1 118/3/1 122/3/1
f 125/3/1 121/3/1 120/3/1
f 126/3/1 121/3/1 125/3/1
f 127/2/1 124/2/1 123/2/1
f 128/1/1 125/1/1 124/1/1
f 128/2/1 124/2/1 127/2/1
f 129/1/1 125/1/1 128/1/1
f 136/5/1 131/5/1 130/5/1
f 137/6/1 132/6/1 131/6/1
f 137/5/1 133/5/1 132/5/1
f 138/6/1 134/6/1 133/6/1
f 138/5/1 133/5/1 137/5/1
f 139/5/1 135/5/1 134/5/1
f 139/6/1 134/6/1 138/6/1
f 140/5/1 135/5/1 139/5/1
f 141/5/1 131/5/1 136/5/1
f 142/6/1 138/6/1 137/6/1
f 142/5/1 131/5/1 141/5/1
f 142/6/1 137/6/1 131/6/1
f 143/5/1 140/5/1 139/5/1
f 143/6/1 138/6/1 142/6/1
f 143/5/1 139/5/1 138/5/1
f 144/5/1 140/5/1 143/5/1
f 145/5/2 146/5/2 147/5/2
f 147/5/2 146/5/2 148/5/2
f 145/5/2 147/5/2 149/5/2
f 147/6/2 148/6/2 150/6/2
f 149/5/2 147/5/2 150/5/2
f 148/5/2 146/5/2 151/5/2
f 150/6/2 148/6/2 151/6/2
f 151/5/2 146/5/2 152/5/2
f 153/2/2 154/2/2 155/2/2
f 155/2/2 154/2/2 156/2/2
f 155/1/2 156/1/2 157/1/2
f 156/2/2 154/2/2 157/2/2
f 157/2/2 154/2/2 158/2/2
f 155/1/2 157/1/2 159/1/2
f 157/1/2 158/1/2 159/1/2
f 159/1/2 158/1/2 160/1/2
f 159/2/2 160/2/2 161/2/2
f 160/1/2 158/1/2 161/1/2
f 161/1/2 158/1/2 162/1/2
f 159/2/2 161/2/2 164/2/2
f 161/2/2 162/2/2 164/2/2
f 164/2/2 162/2/2 165/2/2
f 163/3/2 164/3/2 167/3/2
f 167/3/2 164/3/2 168/3/2
f 165/3/2 166/3/2 170/3/2
f 170/3/2 166/3/2 171/3/2
f 168/1/2 169/1/2 173/1/2
f 169/2/2 170/2/2 174/2/2
f 173/1/2 169/1/2 174/1/2
f 174/2/2 170/2/2 175/2/2
f 172/3/2 173/3/2 177/3/2
f 177/3/2 173/3/2 178/3/2
f 175/3/2 176/3/2 179/3/2
f 179/3/2 176/3/2 180/3/2
f 178/2/2 179/2/2 182/2/2
f 182/2/2 179/2/2 183/2/2
f 181/3/2 182/3/2 185/3/2
f 185/3/2 182/3/2 186/3/2
f 183/3/2 184/3/2 187/3/2
f 187/3/2 184/3/2 188/3/2
f 186/2/2 187/2/2 190/2/2
f 190/2/2 187/2/2 191/2/2
f 189/3/2 190/3/2 193/3/2
f 193/3/2 190/3/2 194/3/2
f 191/3/2 192/3/2 195/3/2
f 195/3/2 192/3/2 196/3/2
f 194/2/2 195/2/2 198/2/2
f 198/2/2 195/2/2 199/2/2
f 197/3/2 198/3/2 201/3/2
f 201/3/2 198/3/2 202/3/2
f 199/3/2 200/3/2 203/3/2
f 203/3/2 200/3/2 204/3/2
f 202/2/2 203/2/2 205/2/2
f 205/2/2 203/2/2 206/2/2
f 207/3/2 208/3/2 209/3/2
f 209/3/2 208/3/2 210/3/2
f 211/3/2 212/3/2 213/3/2
f 213/3/2 212/3/2 214/3/2
f 215/3/2 216/3/2 217/3/2
f 217/3/2 216/3/2 218/3/2
f 219/3/2 220/3/2 221/3/2
f 221/3/2 220/3/2 222/3/2
f 223/3/2 224/3/2 225/3/2
f 225/3/2 224/3/2 226/3/2
f 227/5/2 228/5/2 229/5/2
f 229/5/2 228/5/2 230/5/2
f 227/5/2 229/5/2 231/5/2
f 229/6/2 230/6/2 232/6/2
f 231/5/2 229/5/2 232/5/2
f 232/6/2 230/6/2 233/6/2
f 230/5/2 228/5/2 234/5/2
f 233/6/2 230/6/2 234/6/2
f 234/5/2 228/5/2 235/5/2
f 235/5/2 228/5/2 236/5/2
f 232/6/2 233/6/2 237/6/2
f 227/5/2 231/5/2 237/5/2
f 231/6/2 232/6/2 237/6/2
f 234/5/2 235/5/2 238/5/2
f 237/6/2 233/6/2 238/6/2
f 233/5/2 234/5/2 238/5/2
f 238/5/2 235/5/2 239/5/2
f 239/5/2 235/5/2 240/5/2
f 235/6/2 236/6/2 241/6/2
f 240/5/2 235/5/2 241/5/2
f 241/6/2 236/6/2 242/6/2
f 227/5/2 237/5/2 243/5/2
f 237/5/2 238/5/2 243/5/2
f 238/5/2 239/5/2 243/5/2
f 243/5/2 239/5/2 244/5/2
f 239/6/2 240/6/2 245/6/2
f 241/5/2 242/5/2 246/5/2
f 245/6/2 240/6/2 246/6/2
f 240/5/2 241/5/2 246/5/2
f 244/5/2 239/5/2 247/5/2
f 243/6/2 244/6/2 247/6/2
f 247/5/2 239/5/2 248/5/2
f 248/5/2 239/5/2 249/5/2
f 239/6/2 245/6/2 250/6/2
f 249/5/2 239/5/2 250/5/2
f 245/5/2 246/5/2 251/5/2
f 250/6/2 245/6/2 251/6/2
f 243/6/2 247/6/2 252/6/2
f 247/6/2 248/6/2 252/6/2
f 252/6/2 248/6/2 253/6/2
f 248/5/2 249/5/2 254/5/2
f 253/6/2 248/6/2 254/6/2
f 254/5/2 249/5/2 255/5/2
f 255/5/2 249/5/2 256/5/2
f 249/6/2 250/6/2 257/6/2
f 256/5/2 249/5/2 257/5/2
f 252/5/2 253/5/2 258/5/2
f 253/6/2 254/6/2 259/6/2
f 258/5/2 253/5/2 259/5/2
f 254/6/2 255/6/2 259/6/2
f 259/6/2 255/6/2 260/6/2
f 255/5/2 256/5/2 261/5/2
f 256/6/2 257/6/2 262/6/2
f 261/5/2 256/5/2 262/5/2
f 257/6/2 250/6/2 263/6/2
f 262/6/2 257/6/2 263/6/2
f 250/5/2 251/5/2 264/5/2
f 263/6/2 250/6/2 264/6/2
f 246/5/2 242/5/2 265/5/2
f 264/5/2 251/5/2 265/5/2
f 251/5/2 246/5/2 265/5/2
f 265/5/2 242/5/2 266/5/2
f 260/6/2 255/6/2 267/6/2
f 259/5/2 260/5/2 267/5/2
f 255/5/2 261/5/2 268/5/2
f 267/6/2 255/6/2 268/6/2
f 261/6/2 262/6/2 269/6/2
f 262/6/2 263/6/2 269/6/2
f 263/5/2 264/5/2 270/5/2
f 269/6/2 263/6/2 270/6/2
f 264/5/2 265/5/2 270/5/2
f 270/5/2 265/5/2 271/5/2
f 271/5/2 265/5/2 272/5/2
f 265/6/2 266/6/2 273/6/2
f 272/5/2 265/5/2 273/5/2
f 273/6/2 266/6/2 274/6/2
f 258/6/2 259/6/2 275/6/2
f 267/5/2 268/5/2 276/5/2
f 275/6/2 259/6/2 276/6/2
f 259/5/2 267/5/2 276/5/2
f 261/6/2 269/6/2 277/6/2
f 269/5/2 270/5/2 277/5/2
f 270/5/2 271/5/2 277/5/2
f 271/6/2 272/6/2 278/6/2
f 277/5/2 271/5/2 278/5/2
f 273/5/2 274/5/2 279/5/2
f 278/6/2 272/6/2 279/6/2
f 272/5/2 273/5/2 279/5/2
f 275/5/2 276/5/2 280/5/2
f 276/5/2 268/5/2 281/5/2
f 280/5/2 276/5/2 281/5/2
f 268/5/2 261/5/2 281/5/2
f 261/6/2 277/6/2 281/6/2
f 277/6/2 278/6/2 281/6/2
f 278/5/2 279/5/2 282/5/2
f 281/6/2 278/6/2 282/6/2
f 279/5/2 274/5/2 283/5/2
f 282/5/2 279/5/2 283/5/2
f 288/5/3 285/5/3 284/5/3
f 288/6/3 286/6/3 285/6/3
f 289/5/3 287/5/3 286/5/3
f 289/6/3 286/6/3 288/6/3
f 290/5/3 289/5/3 288/5/3
f 290/5/3 287/5/3 289/5/3
f 291/5/3 287/5/3 290/5/3
f 292/5/3 290/5/3 288/5/3
f 293/6/3 291/6/3 290/6/3
f 293/5/3 290/5/3 292/5/3
f 294/6/3 291/6/3 293/6/3
f 295/6/3 291/6/3 294/6/3
f 296/5/3 292/5/3 288/5/3
f 297/6/3 293/6/3 292/6/3
f 297/5/3 292/5/3 296/5/3
f 297/6/3 294/6/3 293/6/3
f 298/6/3 294/6/3 297/6/3
f 299/5/3 295/5/3 294/5/3
f 299/6/3 294/6/3 298/6/3
f 300/5/3 296/5/3 288/5/3
f 300/6/3 298/6/3 297/6/3
f 300/6/3 297/6/3 296/6/3
f 301/5/3 299/5/3 298/5/3
f 301/6/3 298/6/3 300/6/3
f 302/5/3 299/5/3 301/5/3
f 303/5/3 301/5/3 300/5/3
f 304/6/3 302/6/3 301/6/3
f 304/5/3 301/5/3 303/5/3
f 305/5/3 299/5/3 302/5/3
f 306/5/3 295/5/3 299/5/3
f 306/5/3 299/5/3 305/5/3
f 307/6/3 302/6/3 304/6/3
f 307/6/3 304/6/3 303/6/3
f 308/5/3 305/5/3 302/5/3
f 308/6/3 302/6/3 307/6/3
f 309/6/3 306/6/3 305/6/3
f 309/5/3 305/5/3 308/5/3
f 310/6/3 306/6/3 309/6/3
f 311/5/3 303/5/3 300/5/3
f 312/6/3 307/6/3 303/6/3
f 312/5/3 303/5/3 311/5/3
f 313/5/3 311/5/3 300/5/3
f 313/5/3 300/5/3 288/5/3
f 314/6/3 312/6/3 311/6/3
f 314/5/3 311/5/3 313/5/3
f 315/6/3 307/6/3 312/6/3
f 315/6/3 312/6/3 314/6/3
f 316/5/3 308/5/3 307/5/3
f 316/6/3 307/6/3 315/6/3
f 316/5/3 309/5/3 308/5/3
f 316/5/3 310/5/3 309/5/3
f 317/5/3 310/5/3 316/5/3
f 318/5/3 310/5/3 317/5/3
f 319/6/3 314/6/3 313/6/3
f 319/5/3 313/5/3 288/5/3
f 319/6/3 315/6/3 314/6/3
f 320/6/3 315/6/3 319/6/3
f 321/5/3 317/5/3 316/5/3
f 321/6/3 315/6/3 320/6/3
f 321/5/3 316/5/3 315/5/3
f 322/5/3 317/5/3 321/5/3
f 323/5/3 317/5/3 322/5/3
f 324/6/3 318/6/3 317/6/3
f 324/5/3 317/5/3 323/5/3
f 325/5/3 288/5/3 284/5/3
f 325/5/3 320/5/3 319/5/3
f 325/5/3 319/5/3 288/5/3
f 326/6/3 322/6/3 321/6/3
f 326/5/3 320/5/3 325/5/3
f 326/6/3 321/6/3 320/6/3
f 327/5/3 323/5/3 322/5/3
f 327/6/3 322/6/3 326/6/3
f 328/6/3 324/6/3 323/6/3
f 328/5/3 323/5/3 327/5/3
f 329/6/3 318/6/3 324/6/3
f 329/6/3 324/6/3 328/6/3
f 329/5/3 310/5/3 318/5/3
f 330/5/3 310/5/3 329/5/3
f 341/3/3 332/3/3 331/3/3
f 342/3/3 332/3/3 341/3/3
f 343/3/3 334/3/3 333/3/3
f 344/3/3 334/3/3 343/3/3
f 345/3/3 336/3/3 335/3/3
f 346/3/3 336/3/3 345/3/3
f 347/3/3 338/3/3 337/3/3
f 348/3/3 338/3/3 347/3/3
f 349/3/3 340/3/3 339/3/3
f 350/3/3 340/3/3 349/3/3
f 362/3/3 352/3/3 351/3/3
f 363/3/3 352/3/3 362/3/3
f 364/3/3 354/3/3 353/3/3
f 365/3/3 354/3/3 364/3/3
f 366/3/3 356/3/3 355/3/3
f 367/3/3 356/3/3 366/3/3
f 368/3/3 358/3/3 357/3/3
f 369/3/3 358/3/3 368/3/3
f 370/3/3 360/3/3 359/3/3
f 371/3/3 360/3/3 370/3/3
f 373/2/3 362/2/3 361/2/3
f 374/2/3 362/2/3 373/2/3
f 375/2/3 364/2/3 363/2/3
f 376/2/3 364/2/3 375/2/3
f 377/2/3 373/2/3 361/2/3
f 378/1/3 374/1/3 373/1/3
f 378/2/3 373/2/3 377/2/3
f 379/2/3 362/2/3 374/2/3
f 379/1/3 374/1/3 378/1/3
f 380/2/3 362/2/3 379/2/3
f 381/1/3 376/1/3 375/1/3
f 382/1/3 376/1/3 381/1/3
f 383/2/3 366/2/3 365/2/3
f 384/2/3 366/2/3 383/2/3
f 385/2/3 368/2/3 367/2/3
f 386/2/3 368/2/3 385/2/3
f 387/2/3 370/2/3 369/2/3
f 388/2/3 370/2/3 387/2/3
f 389/2/3 372/2/3 371/2/3
f 390/2/3 372/2/3 389/2/3
f 391/3/3 381/3/3 380/3/3
f 392/3/3 381/3/3 391/3/3
f 393/3/3 383/3/3 382/3/3
f 394/3/3 383/3/3 393/3/3
f 395/3/3 385/3/3 384/3/3
f 396/3/3 385/3/3 395/3/3
f 397/3/3 387/3/3 386/3/3
f 398/3/3 387/3/3 397/3/3
f 399/3/3 389/3/3 388/3/3
f 400/3/3 389/3/3 399/3/3
f 403/5/3 402/5/3 401/5/3
f 404/5/3 402/5/3 403/5/3
f 405/5/3 403/5/3 401/5/3
f 406/6/3 404/6/3 403/6/3
f 406/5/3 403/5/3 405/5/3
f 407/6/3 406/6/3 405/6/3
f 407/6/3 404/6/3 406/6/3
f 408/6/3 404/6/3 407/6/3
f 409/6/3 407/6/3 405/6/3
f 410/5/3 408/5/3 407/5/3
f 410/6/3 407/6/3 409/6/3
f 411/5/3 410/5/3 409/5/3
f 412/5/3 408/5/3 410/5/3
f 412/5/3 410/5/3 411/5/3
f 413/6/3 412/6/3 411/6/3
f 414/6/3 412/6/3 413/6/3
f 415/6/3 413/6/3 411/6/3
f 416/5/3 414/5/3 413/5/3
f 416/6/3 413/6/3 415/6/3
f 417/5/3 414/5/3 416/5/3
f 418/5/4 419/5/4 420/5/4
f 420/5/4 419/5/4 421/5/4
f 420/6/4 421/6/4 422/6/4
f 422/6/4 421/6/4 423/6/4
f 420/6/4 422/6/4 424/6/4
f 422/5/4 423/5/4 425/5/4
f 424/6/4 422/6/4 425/6/4
f 424/5/4 425/5/4 426/5/4
f 425/5/4 423/5/4 427/5/4
f 426/5/4 425/5/4 427/5/4
f 426/6/4 427/6/4 428/6/4
f 428/6/4 427/6/4 429/6/4
f 428/5/4 429/5/4 430/5/4
f 430/5/4 429/5/4 431/5/4
f 430/6/4 431/6/4 432/6/4
f 431/5/4 429/5/4 433/5/4
f 432/6/4 431/6/4 433/6/4
f 433/5/4 429/5/4 434/5/4
f 435/3/4 436/3/4 448/3/4
f 448/3/4 436/3/4 449/3/4
f 437/3/4 438/3/4 450/3/4
f 450/3/4 438/3/4 451/3/4
f 439/3/4 440/3/4 452/3/4
f 452/3/4 440/3/4 453/3/4
f 441/3/4 442/3/4 454/3/4
f 454/3/4 442/3/4 455/3/4
f 443/3/4 444/3/4 456/3/4
f 456/3/4 444/3/4 457/3/4
f 445/2/4 446/2/4 459/2/4
f 446/1/4 447/1/4 460/1/4
f 459/2/4 446/2/4 460/2/4
f 449/1/4 450/1/4 461/1/4
f 461/1/4 450/1/4 462/1/4
f 451/1/4 452/1/4 463/1/4
f 463/1/4 452/1/4 464/1/4
f 455/1/4 456/1/4 465/1/4
f 465/1/4 456/1/4 466/1/4
f 457/1/4 458/1/4 467/1/4
f 467/1/4 458/1/4 468/1/4
f 445/2/4 459/2/4 469/2/4
f 459/1/4 460/1/4 470/1/4
f 469/2/4 459/2/4 470/2/4
f 447/2/4 448/2/4 471/2/4
f 470/1/4 460/1/4 471/1/4
f 460/1/4 447/1/4 471/1/4
f 471/2/4 448/2/4 472/2/4
f 461/2/4 462/2/4 473/2/4
f 473/2/4 462/2/4 474/2/4
f 463/2/4 464/2/4 475/2/4
f 475/2/4 464/2/4 476/2/4
f 453/2/4 454/2/4 477/2/4
f 477/2/4 454/2/4 478/2/4
f 465/2/4 466/2/4 479/2/4
f 479/2/4 466/2/4 480/2/4
f 467/2/4 468/2/4 481/2/4
f 481/2/4 468/2/4 482/2/4
f 472/3/4 473/3/4 483/3/4
f 483/3/4 473/3/4 484/3/4
f 474/3/4 475/3/4 485/3/4
f 485/3/4 475/3/4 486/3/4
f 476/3/4 477/3/4 487/3/4
f 487/3/4 477/3/4 488/3/4
f 478/3/4 479/3/4 489/3/4
f 489/3/4 479/3/4 490/3/4
f 480/3/4 481/3/4 491/3/4
f 491/3/4 481/3/4 492/3/4
f 493/3/4 494/3/4 503/3/4
f 503/3/4 494/3/4 504/3/4
f 495/3/4 496/3/4 505/3/4
f 505/3/4 496/3/4 506/3/4
f 497/3/4 498/3/4 507/3/4
f 507/3/4 498/3/4 508/3/4
f 499/3/4 500/3/4 509/3/4
f 509/3/4 500/3/4 510/3/4
f 501/3/4 502/3/4 511/3/4
f 511/3/4 502/3/4 512/3/4
f 513/5/4 514/5/4 517/5/4
f 514/6/4 515/6/4 517/6/4
f 515/5/4 516/5/4 518/5/4
f 517/6/4 515/6/4 518/6/4
f 513/5/4 517/5/4 519/5/4
f 517/5/4 518/5/4 519/5/4
f 519/5/4 518/5/4 520/5/4
f 519/6/4 520/6/4 521/6/4
f 520/5/4 518/5/4 521/5/4
f 521/5/4 518/5/4 522/5/4
f 513/5/4 519/5/4 523/5/4
f 519/6/4 521/6/4 523/6/4
f 521/6/4 522/6/4 523/6/4
f 522/5/4 518/5/4 524/5/4
f 523/6/4 522/6/4 524/6/4
f 524/5/4 518/5/4 525/5/4
f 518/5/4 516/5/4 526/5/4
f 525/5/4 518/5/4 526/5/4
f 526/5/4 516/5/4 527/5/4
f 524/6/4 525/6/4 528/6/4
f 523/5/4 524/5/4 528/5/4
f 525/5/4 526/5/4 529/5/4
f 528/6/4 525/6/4 529/6/4
f 526/6/4 527/6/4 530/6/4
f 529/5/4 526/5/4 530/5/4
f 528/5/4 529/5/4 531/5/4
f 529/6/4 530/6/4 531/6/4
f 531/6/4 530/6/4 532/6/4
f 530/6/4 527/6/4 533/6/4
f 532/6/4 530/6/4 533/6/4
f 533/6/4 527/6/4 534/6/4
f 513/5/4 523/5/4 535/5/4
f 531/5/4 532/5/4 535/5/4
f 523/5/4 528/5/4 535/5/4
f 528/5/4 531/5/4 535/5/4
f 535/5/4 532/5/4 536/5/4
f 532/6/4 533/6/4 537/6/4
f 536/5/4 532/5/4 537/5/4
f 533/5/4 534/5/4 538/5/4
f 537/6/4 533/6/4 538/6/4
f 536/5/4 537/5/4 539/5/4
f 537/5/4 538/5/4 539/5/4
f 539/5/4 538/5/4 540/5/4
f 536/5/4 539/5/4 541/5/4
f 539/6/4 540/6/4 542/6/4
f 541/5/4 539/5/4 542/5/4
f 540/5/4 538/5/4 543/5/4
f 538/5/4 534/5/4 544/5/4
f 543/5/4 538/5/4 544/5/4
f 536/5/4 541/5/4 545/5/4
f 541/6/4 542/6/4 546/6/4
f 545/5/4 541/5/4 546/5/4
f 542/6/4 540/6/4 547/6/4
f 546/6/4 542/6/4 547/6/4
f 540/5/4 543/5/4 548/5/4
f 547/6/4 540/6/4 548/6/4
f 543/6/4 544/6/4 549/6/4
f 548/5/4 543/5/4 549/5/4
f 549/6/4 544/6/4 550/6/4
f 550/6/4 544/6/4 551/6/4
f 546/6/4 547/6/4 552/6/4
f 545/6/4 546/6/4 552/6/4
f 536/5/4 545/5/4 552/5/4
f 547/5/4 548/5/4 553/5/4
f 552/6/4 547/6/4 553/6/4
f 549/6/4 550/6/4 554/6/4
f 548/6/4 549/6/4 554/6/4
f 550/5/4 551/5/4 555/5/4
f 554/6/4 550/6/4 555/6/4
f 513/5/4 535/5/4 556/5/4
f 535/6/4 536/6/4 557/6/4
f 556/5/4 535/5/4 557/5/4
f 536/5/4 552/5/4 558/5/4
f 557/6/4 536/6/4 558/6/4
f 552/5/4 553/5/4 558/5/4
f 548/6/4 554/6/4 559/6/4
f 558/5/4 553/5/4 559/5/4
f 553/5/4 548/5/4 559/5/4
f 554/5/4 555/5/4 560/5/4
f 559/6/4 554/6/4 560/6/4
f 555/5/4 551/5/4 561/5/4
f 560/5/4 555/5/4 561/5/4
f 564/5/5 563/5/5 562/5/5
f 565/5/5 563/5/5 564/5/5
f 569/3/5 567/3/5 566/3/5
f 570/3/5 567/3/5 569/3/5
f 572/3/5 569/3/5 568/3/5
f 573/3/5 569/3/5 572/3/5
f 574/3/5 571/3/5 570/3/5
f 575/3/5 571/3/5 574/3/5
f 576/3/5 574/3/5 573/3/5
f 577/3/5 574/3/5 576/3/5
f 581/3/5 579/3/5 578/3/5
f 582/3/5 579/3/5 581/3/5
f 583/3/5 579/3/5 582/3/5
f 585/3/5 581/3/5 580/3/5
f 586/3/5 584/3/5 583/3/5
f 587/3/5 585/3/5 580/3/5
f 588/3/5 585/3/5 587/3/5
f 590/3/5 584/3/5 586/3/5
f 591/3/5 584/3/5 590/3/5
f 592/3/5 589/3/5 588/3/5
f 592/3/5 590/3/5 589/3/5
f 593/3/5 590/3/5 592/3/5
f 597/3/5 595/3/5 594/3/5
f 598/3/5 595/3/5 597/3/5
f 600/3/5 597/3/5 596/3/5
f 601/3/5 600/3/5 596/3/5
f 602/3/5 600/3/5 601/3/5
f 604/3/5 599/3/5 598/3/5
f 605/3/5 599/3/5 604/3/5
f 606/3/5 603/3/5 602/3/5
f 606/3/5 604/3/5 603/3/5
f 607/3/5 604/3/5 606/3/5
f 611/3/5 609/3/5 608/3/5
f 612/3/5 609/3/5 611/3/5
f 614/3/5 611/3/5 610/3/5
f 615/3/5 611/3/5 614/3/5
f 616/3/5 613/3/5 612/3/5
f 617/3/5 613/3/5 616/3/5
f 618/3/5 616/3/5 615/3/5
f 619/3/5 616/3/5 618/3/5
f 623/3/5 621/3/5 620/3/5
f 624/3/5 621/3/5 623/3/5
f 626/3/5 623/3/5 622/3/5
f 627/3/5 626/3/5 622/3/5
f 628/3/5 626/3/5 627/3/5
f 630/3/5 625/3/5 624/3/5
f 631/3/5 625/3/5 630/3/5
f 632/3/5 629/3/5 628/3/5
f 632/3/5 630/3/5 629/3/5
f 633/3/5 630/3/5 632/3/5
f 634/4/6 635/4/6 641/4/6
f 639/4/6 640/4/6 641/4/6
f 638/4/6 639/4/6 641/4/6
f 637/4/6 638/4/6 641/4/6
f 636/4/6 637/4/6 641/4/6
f 635/4/6 636/4/6 641/4/6
f 641/4/6 640/4/6 642/4/6
f 634/4/6 641/4/6 643/4/6
f 643/4/6 641/4/6 644/4/6
f 641/3/6 642/3/6 645/3/6
f 644/4/6 641/4/6 645/4/6
f 645/3/6 642/3/6 646/3/6
f 642/4/6 640/4/6 647/4/6
f 646/3/6 642/3/6 647/3/6
f 647/4/6 640/4/6 648/4/6
f 643/3/6 644/3/6 649/3/6
f 634/4/6 643/4/6 649/4/6
f 649/3/6 644/3/6 650/3/6
f 645/4/6 646/4/6 651/4/6
f 647/3/6 648/3/6 651/3/6
f 644/4/6 645/4/6 651/4/6
f 646/3/6 647/3/6 651/3/6
f 651/3/6 648/3/6 652/3/6
f 649/4/6 650/4/6 653/4/6
f 634/4/6 649/4/6 653/4/6
f 653/4/6 650/4/6 654/4/6
f 650/3/6 644/3/6 655/3/6
f 654/4/6 650/4/6 655/4/6
f 651/4/6 652/4/6 656/4/6
f 655/3/6 644/3/6 656/3/6
f 644/4/6 651/4/6 656/4/6
f 656/4/6 652/4/6 657/4/6
f 652/3/6 648/3/6 658/3/6
f 657/4/6 652/4/6 658/4/6
f 648/4/6 640/4/6 659/4/6
f 658/3/6 648/3/6 659/3/6
f 659/4/6 640/4/6 660/4/6
f 653/3/6 654/3/6 661/3/6
f 654/4/6 655/4/6 661/4/6
f 655/4/6 656/4/6 661/4/6
f 661/4/6 656/4/6 662/4/6
f 657/4/6 658/4/6 663/4/6
f 659/4/6 660/4/6 663/4/6
f 658/4/6 659/4/6 663/4/6
f 661/3/6 662/3/6 664/3/6
f 653/3/6 661/3/6 664/3/6
f 634/4/6 653/4/6 664/4/6
f 664/3/6 662/3/6 665/3/6
f 662/4/6 656/4/6 666/4/6
f 657/4/6 663/4/6 667/4/6
f 667/4/6 663/4/6 668/4/6
f 668/4/6 663/4/6 669/4/6
f 665/3/6 662/3/6 670/3/6
f 662/4/6 666/4/6 670/4/6
f 666/4/6 667/4/6 670/4/6
f 667/4/6 668/4/6 670/4/6
f 670/4/6 668/4/6 671/4/6
f 669/4/6 663/4/6 672/4/6
f 664/4/6 665/4/6 673/4/6
f 665/3/6 670/3/6 673/3/6
f 670/3/6 671/3/6 673/3/6
f 673/3/6 671/3/6 674/3/6
f 671/4/6 668/4/6 675/4/6
f 668/3/6 669/3/6 676/3/6
f 675/4/6 668/4/6 676/4/6
f 669/4/6 672/4/6 677/4/6
f 676/3/6 669/3/6 677/3/6
f 674/3/6 671/3/6 678/3/6
f 673/4/6 674/4/6 678/4/6
f 671/4/6 675/4/6 679/4/6
f 678/3/6 671/3/6 679/3/6
f 675/3/6 676/3/6 680/3/6
f 679/4/6 675/4/6 680/4/6
f 676/4/6 677/4/6 681/4/6
f 680/3/6 676/3/6 681/3/6
f 677/4/6 672/4/6 682/4/6
f 681/4/6 677/4/6 682/4/6
f 680/4/6 681/4/6 683/4/6
f 673/4/6 678/4/6 683/4/6
f 681/4/6 682/4/6 683/4/6
f 679/4/6 680/4/6 683/4/6
f 664/4/6 673/4/6 683/4/6
f 678/4/6 679/4/6 683/4/6
f 634/4/6 664/4/6 683/4/6
f 683/4/6 682/4/6 684/4/6
f 684/4/6 682/4/6 685/4/6
f 685/4/6 682/4/6 686/4/6
f 686/4/6 682/4/6 687/4/6
f 688/5/6 689/5/6 694/5/6
f 689/6/6 690/6/6 695/6/6
f 694/5/6 689/5/6 695/5/6
f 690/5/6 691/5/6 696/5/6
f 695/6/6 690/6/6 696/6/6
f 691/6/6 692/6/6 697/6/6
f 696/5/6 691/5/6 697/5/6
f 692/5/6 693/5/6 698/5/6
f 697/6/6 692/6/6 698/6/6
f 698/5/6 693/5/6 699/5/6
f 688/5/6 694/5/6 700/5/6
f 700/5/6 694/5/6 701/5/6
f 700/6/6 701/6/6 702/6/6
f 702/6/6 701/6/6 703/6/6
f 699/5/6 693/5/6 704/5/6
f 704/5/6 693/5/6 705/5/6
f 704/6/6 705/6/6 706/6/6
f 706/6/6 705/6/6 707/6/6
f 702/5/6 703/5/6 708/5/6
f 706/5/6 707/5/6 713/5/6
f 702/5/6 708/5/6 714/5/6
f 708/5/6 709/5/6 714/5/6
f 709/6/6 710/6/6 715/6/6
f 714/5/6 709/5/6 715/5/6
f 710/5/6 711/5/6 716/5/6
f 715/6/6 710/6/6 716/6/6
f 711/6/6 712/6/6 717/6/6
f 716/5/6 711/5/6 717/5/6
f 712/5/6 713/5/6 718/5/6
f 717/6/6 712/6/6 718/6/6
f 713/5/6 707/5/6 719/5/6
f 718/5/6 713/5/6 719/5/6
f 720/3/6 721/3/6 723/3/6
f 723/3/6 721/3/6 724/3/6
f 724/3/6 721/3/6 725/3/6
f 722/3/6 723/3/6 727/3/6
f 725/3/6 726/3/6 728/3/6
f 722/3/6 727/3/6 729/3/6
f 729/3/6 727/3/6 730/3/6
f 728/3/6 726/3/6 732/3/6
f 732/3/6 726/3/6 733/3/6
f 730/3/6 731/3/6 734/3/6
f 731/3/6 732/3/6 734/3/6
f 734/3/6 732/3/6 735/3/6
f 736/3/6 737/3/6 739/3/6
f 739/3/6 737/3/6 740/3/6
f 738/3/6 739/3/6 742/3/6
f 738/3/6 742/3/6 743/3/6
f 743/3/6 742/3/6 744/3/6
f 740/3/6 741/3/6 746/3/6
f 746/3/6 741/3/6 747/3/6
f 744/3/6 745/3/6 748/3/6
f 745/3/6 746/3/6 748/3/6
f 748/3/6 746/3/6 749/3/6
f 750/3/6 751/3/6 753/3/6
f 753/3/6 751/3/6 754/3/6
f 752/3/6 753/3/6 756/3/6
f 756/3/6 753/3/6 757/3/6
f 754/3/6 755/3/6 758/3/6
f 758/3/6 755/3/6 759/3/6
f 757/3/6 758/3/6 760/3/6
f 760/3/6 758/3/6 761/3/6
f 762/3/6 763/3/6 765/3/6
f 765/3/6 763/3/6 766/3/6
f 764/3/6 765/3/6 768/3/6
f 764/3/6 768/3/6 769/3/6
f 769/3/6 768/3/6 770/3/6
f 766/3/6 767/3/6 772/3/6
f 772/3/6 767/3/6 773/3/6
f 770/3/6 771/3/6 774/3/6
f 771/3/6 772/3/6 774/3/6
f 774/3/6 772/3/6 775/3/6
f 776/3/6 777/3/6 779/3/6
f 779/3/6 777/3/6 780/3/6
f 778/3/6 779/3/6 782/3/6
f 778/3/6 782/3/6 783/3/6
f 783/3/6 782/3/6 784/3/6
f 780/3/6 781/3/6 786/3/6
f 786/3/6 781/3/6 787/3/6
f 784/3/6 785/3/6 788/3/6
f 785/3/6 786/3/6 788/3/6
f 788/3/6 786/3/6 789/3/6
f 790/2/6 791/2/6 792/2/6
f 792/2/6 791/2/6 793/2/6
f 792/1/6 793/1/6 794/1/6
f 793/2/6 791/2/6 795/2/6
f 794/1/6 793/1/6 795/1/6
f 795/2/6 791/2/6 796/2/6
