# MagicaVoxel @ Ephtracy

# group
o 

# material
mtllib VR Токарев зелье фиолетовое.mtl
usemtl palette

# normals
vn -1 0 0
vn 1 0 0
vn 0 0 1
vn 0 0 -1
vn 0 -1 0
vn 0 1 0

# texcoords
vt 0.306641 0.5
vt 0.310547 0.5
vt 0.400391 0.5
vt 0.408203 0.5

# verts
v -0.5 0.2 0.2
v -0.5 0.2 0.1
v -0.5 0.2 -0.2
v -0.5 0.3 0.1
v -0.5 0.3 0
v -0.5 0.4 0.2
v -0.5 0.4 0.1
v -0.5 0.4 0
v -0.5 0.4 -0.1
v -0.5 0.5 0.1
v -0.5 0.5 0
v -0.5 0.5 -0.1
v -0.5 0.5 -0.2
v -0.5 0.6 0.2
v -0.5 0.6 0
v -0.5 0.6 -0.2
v -0.4 0.1 0.3
v -0.4 0.1 -0.3
v -0.4 0.2 0.2
v -0.4 0.2 0.1
v -0.4 0.2 -0.2
v -0.4 0.2 -0.3
v -0.4 0.4 0.2
v -0.4 0.4 -0.2
v -0.4 0.4 -0.3
v -0.4 0.5 -0.2
v -0.4 0.6 0.2
v -0.4 0.6 0
v -0.4 0.6 -0.1
v -0.4 0.6 -0.2
v -0.4 0.6 -0.3
v -0.4 0.7 0.3
v -0.4 0.7 -0.1
v -0.4 0.7 -0.3
v -0.3 0 0.3
v -0.3 0 -0.3
v -0.3 0.1 0.4
v -0.3 0.1 0.3
v -0.3 0.1 -0.3
v -0.3 0.1 -0.4
v -0.3 0.2 -0.3
v -0.3 0.2 -0.4
v -0.3 0.4 0.4
v -0.3 0.4 0.3
v -0.3 0.4 -0.3
v -0.3 0.6 -0.3
v -0.3 0.7 0.4
v -0.3 0.7 0.3
v -0.3 0.7 0.2
v -0.3 0.7 0.1
v -0.3 0.7 -0.1
v -0.3 0.7 -0.3
v -0.3 0.7 -0.4
v -0.3 0.8 0.3
v -0.3 0.8 0.2
v -0.3 0.8 0.1
v -0.3 0.8 -0.1
v -0.3 0.8 -0.3
v -0.3 1.1 0.1
v -0.3 1.1 -0.1
v -0.3 1.2 0.1
v -0.3 1.2 -0.1
v -0.2 0.2 0.5
v -0.2 0.2 0.4
v -0.2 0.2 -0.4
v -0.2 0.2 -0.5
v -0.2 0.4 0.4
v -0.2 0.6 0.5
v -0.2 0.6 0.4
v -0.2 0.6 -0.4
v -0.2 0.6 -0.5
v -0.2 0.8 0.2
v -0.2 0.8 0.1
v -0.2 0.8 0
v -0.2 0.8 -0.1
v -0.2 0.8 -0.2
v -0.2 0.9 0.2
v -0.2 0.9 0.1
v -0.2 0.9 -0.1
v -0.2 0.9 -0.2
v -0.2 1.1 0.2
v -0.2 1.1 0.1
v -0.2 1.1 0
v -0.2 1.1 -0.1
v -0.2 1.1 -0.2
v -0.2 1.2 0.2
v -0.2 1.2 0.1
v -0.2 1.2 -0.1
v -0.2 1.2 -0.2
v -0.1 0.9 0.2
v -0.1 0.9 0.1
v -0.1 0.9 -0.1
v -0.1 0.9 -0.2
v -0.1 1 0.2
v -0.1 1 0.1
v -0.1 1.1 0.3
v -0.1 1.1 0.2
v -0.1 1.1 0.1
v -0.1 1.1 -0.1
v -0.1 1.1 -0.2
v -0.1 1.1 -0.3
v -0.1 1.2 0.3
v -0.1 1.2 0.2
v -0.1 1.2 -0.2
v -0.1 1.2 -0.3
v 0.1 0.9 0.2
v 0.1 0.9 0.1
v 0.1 0.9 -0.1
v 0.1 0.9 -0.2
v 0.1 1 0.2
v 0.1 1 0.1
v 0.1 1 -0.1
v 0.1 1 -0.2
v 0.1 1.1 0.3
v 0.1 1.1 0.2
v 0.1 1.1 0.1
v 0.1 1.1 -0.1
v 0.1 1.1 -0.2
v 0.1 1.1 -0.3
v 0.1 1.2 0.3
v 0.1 1.2 0.2
v 0.1 1.2 -0.2
v 0.1 1.2 -0.3
v 0.2 0.2 0.5
v 0.2 0.2 0.4
v 0.2 0.2 -0.4
v 0.2 0.2 -0.5
v 0.2 0.4 0.5
v 0.2 0.4 0.4
v 0.2 0.6 0.5
v 0.2 0.6 0.4
v 0.2 0.6 -0.4
v 0.2 0.6 -0.5
v 0.2 0.8 0.2
v 0.2 0.8 0
v 0.2 0.8 -0.1
v 0.2 0.8 -0.2
v 0.2 0.9 0.2
v 0.2 0.9 0.1
v 0.2 0.9 -0.1
v 0.2 0.9 -0.2
v 0.2 1 0.1
v 0.2 1 0
v 0.2 1.1 0.2
v 0.2 1.1 0.1
v 0.2 1.1 0
v 0.2 1.1 -0.1
v 0.2 1.1 -0.2
v 0.2 1.2 0.2
v 0.2 1.2 0.1
v 0.2 1.2 -0.1
v 0.2 1.2 -0.2
v 0.3 0 0.3
v 0.3 0 0.1
v 0.3 0 -0.1
v 0.3 0 -0.3
v 0.3 0.1 0.4
v 0.3 0.1 0.3
v 0.3 0.1 0.1
v 0.3 0.1 0
v 0.3 0.1 -0.1
v 0.3 0.1 -0.3
v 0.3 0.1 -0.4
v 0.3 0.2 -0.3
v 0.3 0.2 -0.4
v 0.3 0.3 -0.3
v 0.3 0.6 0.4
v 0.3 0.6 0.3
v 0.3 0.7 0.4
v 0.3 0.7 0.3
v 0.3 0.7 0.2
v 0.3 0.7 0
v 0.3 0.7 -0.1
v 0.3 0.7 -0.3
v 0.3 0.7 -0.4
v 0.3 0.8 0.3
v 0.3 0.8 0.2
v 0.3 0.8 0
v 0.3 0.8 -0.1
v 0.3 0.8 -0.3
v 0.3 1.1 0.1
v 0.3 1.1 -0.1
v 0.3 1.2 0.1
v 0.3 1.2 -0.1
v 0.4 0.1 0.3
v 0.4 0.1 0
v 0.4 0.1 -0.3
v 0.4 0.2 0.2
v 0.4 0.2 0
v 0.4 0.2 -0.2
v 0.4 0.3 -0.2
v 0.4 0.3 -0.3
v 0.4 0.6 0.2
v 0.4 0.6 0
v 0.4 0.6 -0.1
v 0.4 0.6 -0.2
v 0.4 0.7 0.3
v 0.4 0.7 0
v 0.4 0.7 -0.1
v 0.4 0.7 -0.3
v 0.5 0.2 0.2
v 0.5 0.2 -0.2
v 0.5 0.3 0.1
v 0.5 0.3 0
v 0.5 0.5 0.1
v 0.5 0.5 0
v 0.5 0.5 -0.1
v 0.5 0.6 0.2
v 0.5 0.6 0
v 0.5 0.6 -0.1
v 0.5 0.6 -0.2
v -0.2 0.2 0.5
v -0.2 0.6 0.5
v 0 0.2 0.5
v 0 0.4 0.5
v 0.1 0.2 0.5
v 0.1 0.4 0.5
v 0.1 0.6 0.5
v 0.2 0.2 0.5
v 0.2 0.4 0.5
v 0.2 0.6 0.5
v -0.3 0.1 0.4
v -0.3 0.4 0.4
v -0.3 0.7 0.4
v -0.2 0.2 0.4
v -0.2 0.4 0.4
v -0.2 0.6 0.4
v -0.2 0.7 0.4
v -0.1 0.1 0.4
v -0.1 0.2 0.4
v 0 0.1 0.4
v 0 0.2 0.4
v 0.1 0.2 0.4
v 0.1 0.6 0.4
v 0.2 0.2 0.4
v 0.2 0.4 0.4
v 0.2 0.6 0.4
v 0.2 0.7 0.4
v 0.3 0.1 0.4
v 0.3 0.6 0.4
v 0.3 0.7 0.4
v -0.4 0.1 0.3
v -0.4 0.7 0.3
v -0.3 0 0.3
v -0.3 0.1 0.3
v -0.3 0.4 0.3
v -0.3 0.7 0.3
v -0.3 0.8 0.3
v -0.2 0.7 0.3
v -0.1 0.1 0.3
v -0.1 0.7 0.3
v -0.1 0.8 0.3
v -0.1 1.1 0.3
v -0.1 1.2 0.3
v 0 0.1 0.3
v 0.1 0.7 0.3
v 0.1 0.8 0.3
v 0.1 1.1 0.3
v 0.1 1.2 0.3
v 0.2 0.7 0.3
v 0.3 0 0.3
v 0.3 0.1 0.3
v 0.3 0.6 0.3
v 0.3 0.7 0.3
v 0.3 0.8 0.3
v 0.4 0.1 0.3
v 0.4 0.7 0.3
v -0.5 0.2 0.2
v -0.5 0.4 0.2
v -0.5 0.6 0.2
v -0.4 0.2 0.2
v -0.4 0.4 0.2
v -0.4 0.6 0.2
v -0.2 0.8 0.2
v -0.2 0.9 0.2
v -0.2 1.1 0.2
v -0.2 1.2 0.2
v -0.1 0.8 0.2
v -0.1 0.9 0.2
v -0.1 1 0.2
v -0.1 1.1 0.2
v -0.1 1.2 0.2
v 0.1 0.8 0.2
v 0.1 0.9 0.2
v 0.1 1 0.2
v 0.1 1.1 0.2
v 0.1 1.2 0.2
v 0.2 0.8 0.2
v 0.2 0.9 0.2
v 0.2 1.1 0.2
v 0.2 1.2 0.2
v 0.4 0.2 0.2
v 0.4 0.6 0.2
v 0.5 0.2 0.2
v 0.5 0.6 0.2
v -0.3 1.1 0.1
v -0.3 1.2 0.1
v -0.2 0.9 0.1
v -0.2 1.1 0.1
v -0.2 1.2 0.1
v -0.1 0.9 0.1
v -0.1 1 0.1
v -0.1 1.1 0.1
v 0.1 0.9 0.1
v 0.1 1 0.1
v 0.1 1.1 0.1
v 0.2 0.9 0.1
v 0.2 1 0.1
v 0.2 1.1 0.1
v 0.2 1.2 0.1
v 0.3 1.1 0.1
v 0.3 1.2 0.1
v -0.3 1.1 -0.1
v -0.3 1.2 -0.1
v -0.2 0.9 -0.1
v -0.2 1.1 -0.1
v -0.2 1.2 -0.1
v -0.1 0.9 -0.1
v -0.1 1.1 -0.1
v 0.1 0.9 -0.1
v 0.1 1 -0.1
v 0.1 1.1 -0.1
v 0.2 0.9 -0.1
v 0.2 1.1 -0.1
v 0.2 1.2 -0.1
v 0.3 1.1 -0.1
v 0.3 1.2 -0.1
v -0.5 0.2 -0.2
v -0.5 0.5 -0.2
v -0.5 0.6 -0.2
v -0.4 0.2 -0.2
v -0.4 0.4 -0.2
v -0.4 0.5 -0.2
v -0.4 0.6 -0.2
v -0.2 0.8 -0.2
v -0.2 0.9 -0.2
v -0.2 1.1 -0.2
v -0.2 1.2 -0.2
v -0.1 0.9 -0.2
v -0.1 1.1 -0.2
v -0.1 1.2 -0.2
v 0 0.8 -0.2
v 0 1 -0.2
v 0 1.1 -0.2
v 0.1 0.9 -0.2
v 0.1 1 -0.2
v 0.1 1.1 -0.2
v 0.1 1.2 -0.2
v 0.2 0.8 -0.2
v 0.2 0.9 -0.2
v 0.2 1.1 -0.2
v 0.2 1.2 -0.2
v 0.4 0.2 -0.2
v 0.4 0.3 -0.2
v 0.4 0.6 -0.2
v 0.5 0.2 -0.2
v 0.5 0.6 -0.2
v -0.4 0.1 -0.3
v -0.4 0.2 -0.3
v -0.4 0.4 -0.3
v -0.4 0.6 -0.3
v -0.4 0.7 -0.3
v -0.3 0 -0.3
v -0.3 0.1 -0.3
v -0.3 0.2 -0.3
v -0.3 0.4 -0.3
v -0.3 0.6 -0.3
v -0.3 0.7 -0.3
v -0.3 0.8 -0.3
v -0.1 1.1 -0.3
v -0.1 1.2 -0.3
v 0 0.1 -0.3
v 0 0.7 -0.3
v 0 0.8 -0.3
v 0 1.1 -0.3
v 0 1.2 -0.3
v 0.1 1.1 -0.3
v 0.1 1.2 -0.3
v 0.2 0.7 -0.3
v 0.2 0.8 -0.3
v 0.3 0 -0.3
v 0.3 0.1 -0.3
v 0.3 0.2 -0.3
v 0.3 0.3 -0.3
v 0.3 0.7 -0.3
v 0.3 0.8 -0.3
v 0.4 0.1 -0.3
v 0.4 0.3 -0.3
v 0.4 0.7 -0.3
v -0.3 0.1 -0.4
v -0.3 0.2 -0.4
v -0.3 0.7 -0.4
v -0.2 0.2 -0.4
v -0.2 0.6 -0.4
v 0 0.1 -0.4
v 0 0.2 -0.4
v 0.2 0.2 -0.4
v 0.2 0.6 -0.4
v 0.2 0.7 -0.4
v 0.3 0.1 -0.4
v 0.3 0.2 -0.4
v 0.3 0.7 -0.4
v -0.2 0.2 -0.5
v -0.2 0.6 -0.5
v 0.2 0.2 -0.5
v 0.2 0.6 -0.5
v -0.3 0 0.3
v 0.3 0 0.3
v -0.2 0 0.2
v 0 0 0.2
v -0.2 0 0.1
v 0 0 0.1
v 0.3 0 0.1
v 0 0 0
v 0.1 0 0
v 0.2 0 -0.1
v 0.3 0 -0.1
v 0.1 0 -0.2
v 0.2 0 -0.2
v -0.3 0 -0.3
v 0.3 0 -0.3
v -0.3 0.1 0.4
v -0.1 0.1 0.4
v 0 0.1 0.4
v 0.3 0.1 0.4
v -0.4 0.1 0.3
v -0.3 0.1 0.3
v -0.1 0.1 0.3
v 0 0.1 0.3
v 0.3 0.1 0.3
v 0.4 0.1 0.3
v 0.3 0.1 0.1
v 0.3 0.1 0
v 0.4 0.1 0
v 0.3 0.1 -0.1
v -0.4 0.1 -0.3
v -0.3 0.1 -0.3
v 0 0.1 -0.3
v 0.3 0.1 -0.3
v 0.4 0.1 -0.3
v -0.3 0.1 -0.4
v 0 0.1 -0.4
v 0.3 0.1 -0.4
v -0.2 0.2 0.5
v 0 0.2 0.5
v 0.1 0.2 0.5
v 0.2 0.2 0.5
v -0.2 0.2 0.4
v -0.1 0.2 0.4
v 0 0.2 0.4
v 0.1 0.2 0.4
v 0.2 0.2 0.4
v -0.5 0.2 0.2
v -0.4 0.2 0.2
v 0.4 0.2 0.2
v 0.5 0.2 0.2
v -0.5 0.2 0.1
v -0.4 0.2 0.1
v 0.4 0.2 0
v -0.5 0.2 -0.2
v -0.4 0.2 -0.2
v 0.4 0.2 -0.2
v 0.5 0.2 -0.2
v -0.2 0.2 -0.4
v 0 0.2 -0.4
v 0.2 0.2 -0.4
v -0.2 0.2 -0.5
v 0.2 0.2 -0.5
v -0.1 1.1 0.3
v 0.1 1.1 0.3
v -0.2 1.1 0.2
v -0.1 1.1 0.2
v 0.1 1.1 0.2
v 0.2 1.1 0.2
v -0.3 1.1 0.1
v -0.2 1.1 0.1
v -0.1 1.1 0.1
v 0.1 1.1 0.1
v 0.2 1.1 0.1
v 0.3 1.1 0.1
v -0.2 1.1 0
v 0.2 1.1 0
v -0.3 1.1 -0.1
v -0.2 1.1 -0.1
v -0.1 1.1 -0.1
v 0.1 1.1 -0.1
v 0.2 1.1 -0.1
v 0.3 1.1 -0.1
v -0.2 1.1 -0.2
v -0.1 1.1 -0.2
v 0 1.1 -0.2
v 0.1 1.1 -0.2
v 0.2 1.1 -0.2
v -0.1 1.1 -0.3
v 0 1.1 -0.3
v 0.1 1.1 -0.3
v -0.2 0.6 0.5
v 0.1 0.6 0.5
v 0.2 0.6 0.5
v -0.2 0.6 0.4
v 0.1 0.6 0.4
v 0.2 0.6 0.4
v -0.5 0.6 0.2
v -0.4 0.6 0.2
v 0.4 0.6 0.2
v 0.5 0.6 0.2
v -0.5 0.6 0
v -0.4 0.6 0
v 0.4 0.6 0
v 0.5 0.6 0
v -0.4 0.6 -0.1
v 0.4 0.6 -0.1
v 0.5 0.6 -0.1
v -0.5 0.6 -0.2
v -0.4 0.6 -0.2
v 0.4 0.6 -0.2
v 0.5 0.6 -0.2
v -0.2 0.6 -0.4
v 0.2 0.6 -0.4
v -0.2 0.6 -0.5
v 0.2 0.6 -0.5
v -0.3 0.7 0.4
v -0.2 0.7 0.4
v 0.2 0.7 0.4
v 0.3 0.7 0.4
v -0.4 0.7 0.3
v -0.3 0.7 0.3
v -0.2 0.7 0.3
v -0.1 0.7 0.3
v 0.1 0.7 0.3
v 0.2 0.7 0.3
v 0.3 0.7 0.3
v 0.4 0.7 0.3
v -0.3 0.7 0.2
v 0.3 0.7 0.2
v -0.3 0.7 0.1
v 0.3 0.7 0
v 0.4 0.7 0
v -0.4 0.7 -0.1
v -0.3 0.7 -0.1
v 0.3 0.7 -0.1
v 0.4 0.7 -0.1
v -0.4 0.7 -0.3
v -0.3 0.7 -0.3
v 0 0.7 -0.3
v 0.2 0.7 -0.3
v 0.3 0.7 -0.3
v 0.4 0.7 -0.3
v -0.3 0.7 -0.4
v 0.2 0.7 -0.4
v 0.3 0.7 -0.4
v -0.3 0.8 0.3
v -0.1 0.8 0.3
v 0.1 0.8 0.3
v 0.3 0.8 0.3
v -0.3 0.8 0.2
v -0.2 0.8 0.2
v -0.1 0.8 0.2
v 0.1 0.8 0.2
v 0.2 0.8 0.2
v 0.3 0.8 0.2
v -0.3 0.8 0.1
v -0.2 0.8 0.1
v -0.2 0.8 0
v 0.2 0.8 0
v 0.3 0.8 0
v -0.3 0.8 -0.1
v -0.2 0.8 -0.1
v 0.2 0.8 -0.1
v 0.3 0.8 -0.1
v -0.2 0.8 -0.2
v 0 0.8 -0.2
v 0.2 0.8 -0.2
v -0.3 0.8 -0.3
v 0 0.8 -0.3
v 0.2 0.8 -0.3
v 0.3 0.8 -0.3
v -0.2 0.9 0.2
v -0.1 0.9 0.2
v 0.1 0.9 0.2
v 0.2 0.9 0.2
v -0.2 0.9 0.1
v -0.1 0.9 0.1
v 0.1 0.9 0.1
v 0.2 0.9 0.1
v -0.2 0.9 -0.1
v -0.1 0.9 -0.1
v 0.1 0.9 -0.1
v 0.2 0.9 -0.1
v -0.2 0.9 -0.2
v -0.1 0.9 -0.2
v 0.1 0.9 -0.2
v 0.2 0.9 -0.2
v -0.1 1.2 0.3
v 0.1 1.2 0.3
v -0.2 1.2 0.2
v -0.1 1.2 0.2
v 0 1.2 0.2
v 0.1 1.2 0.2
v 0.2 1.2 0.2
v -0.3 1.2 0.1
v -0.2 1.2 0.1
v -0.1 1.2 0.1
v 0.1 1.2 0.1
v 0.2 1.2 0.1
v 0.3 1.2 0.1
v 0 1.2 0
v 0.1 1.2 0
v -0.3 1.2 -0.1
v -0.2 1.2 -0.1
v -0.1 1.2 -0.1
v 0.1 1.2 -0.1
v 0.2 1.2 -0.1
v 0.3 1.2 -0.1
v -0.2 1.2 -0.2
v -0.1 1.2 -0.2
v 0 1.2 -0.2
v 0.1 1.2 -0.2
v 0.2 1.2 -0.2
v -0.1 1.2 -0.3
v 0 1.2 -0.3
v 0.1 1.2 -0.3

# faces
f 4/1/1 2/1/1 1/1/1
f 4/2/1 3/2/1 2/2/1
f 5/2/1 3/2/1 4/2/1
f 6/1/1 4/1/1 1/1/1
f 6/1/1 5/1/1 4/1/1
f 7/1/1 5/1/1 6/1/1
f 8/2/1 3/2/1 5/2/1
f 8/1/1 5/1/1 7/1/1
f 9/2/1 3/2/1 8/2/1
f 10/2/1 7/2/1 6/2/1
f 10/1/1 8/1/1 7/1/1
f 10/1/1 9/1/1 8/1/1
f 11/1/1 9/1/1 10/1/1
f 12/2/1 3/2/1 9/2/1
f 12/1/1 9/1/1 11/1/1
f 13/2/1 3/2/1 12/2/1
f 14/2/1 11/2/1 10/2/1
f 14/2/1 10/2/1 6/2/1
f 15/1/1 13/1/1 12/1/1
f 15/2/1 11/2/1 14/2/1
f 15/1/1 12/1/1 11/1/1
f 16/1/1 13/1/1 15/1/1
f 19/2/1 18/2/1 17/2/1
f 20/2/1 18/2/1 19/2/1
f 21/2/1 18/2/1 20/2/1
f 22/2/1 18/2/1 21/2/1
f 23/2/1 19/2/1 17/2/1
f 24/1/1 22/1/1 21/1/1
f 25/1/1 22/1/1 24/1/1
f 26/2/1 25/2/1 24/2/1
f 27/2/1 23/2/1 17/2/1
f 30/2/1 25/2/1 26/2/1
f 31/2/1 25/2/1 30/2/1
f 32/2/1 29/2/1 28/2/1
f 32/2/1 27/2/1 17/2/1
f 32/2/1 28/2/1 27/2/1
f 33/1/1 31/1/1 30/1/1
f 33/2/1 29/2/1 32/2/1
f 33/1/1 30/1/1 29/1/1
f 34/1/1 31/1/1 33/1/1
f 38/2/1 36/2/1 35/2/1
f 39/2/1 36/2/1 38/2/1
f 41/1/1 40/1/1 39/1/1
f 42/1/1 40/1/1 41/1/1
f 43/2/1 38/2/1 37/2/1
f 44/2/1 38/2/1 43/2/1
f 45/2/1 42/2/1 41/2/1
f 46/2/1 42/2/1 45/2/1
f 47/1/1 44/1/1 43/1/1
f 48/1/1 44/1/1 47/1/1
f 52/2/1 42/2/1 46/2/1
f 53/2/1 42/2/1 52/2/1
f 54/1/1 49/1/1 48/1/1
f 55/2/1 50/2/1 49/2/1
f 55/1/1 49/1/1 54/1/1
f 56/1/1 51/1/1 50/1/1
f 56/2/1 50/2/1 55/2/1
f 57/2/1 52/2/1 51/2/1
f 57/1/1 51/1/1 56/1/1
f 58/2/1 52/2/1 57/2/1
f 61/2/1 60/2/1 59/2/1
f 62/2/1 60/2/1 61/2/1
f 67/2/1 64/2/1 63/2/1
f 68/2/1 67/2/1 63/2/1
f 69/2/1 67/2/1 68/2/1
f 70/2/1 66/2/1 65/2/1
f 71/2/1 66/2/1 70/2/1
f 77/2/1 73/2/1 72/2/1
f 77/2/1 74/2/1 73/2/1
f 78/2/1 74/2/1 77/2/1
f 79/2/1 76/2/1 75/2/1
f 79/1/1 75/1/1 74/1/1
f 80/2/1 76/2/1 79/2/1
f 82/2/1 74/2/1 78/2/1
f 83/1/1 79/1/1 74/1/1
f 83/2/1 74/2/1 82/2/1
f 84/1/1 79/1/1 83/1/1
f 86/2/1 82/2/1 81/2/1
f 87/2/1 82/2/1 86/2/1
f 88/2/1 85/2/1 84/2/1
f 89/2/1 85/2/1 88/2/1
f 94/1/1 91/1/1 90/1/1
f 95/1/1 91/1/1 94/1/1
f 97/2/1 95/2/1 94/2/1
f 98/2/1 95/2/1 97/2/1
f 99/2/1 93/2/1 92/2/1
f 100/2/1 93/2/1 99/2/1
f 102/2/1 97/2/1 96/2/1
f 103/2/1 97/2/1 102/2/1
f 104/2/1 101/2/1 100/2/1
f 105/2/1 101/2/1 104/2/1
f 106/1/2 107/1/2 110/1/2
f 110/1/2 107/1/2 111/1/2
f 108/2/2 109/2/2 112/2/2
f 112/2/2 109/2/2 113/2/2
f 110/2/2 111/2/2 115/2/2
f 115/2/2 111/2/2 116/2/2
f 112/1/2 113/1/2 117/1/2
f 117/1/2 113/1/2 118/1/2
f 114/2/2 115/2/2 120/2/2
f 120/2/2 115/2/2 121/2/2
f 118/1/2 119/1/2 122/1/2
f 122/1/2 119/1/2 123/1/2
f 124/2/2 125/2/2 128/2/2
f 128/2/2 125/2/2 129/2/2
f 128/1/2 129/1/2 130/1/2
f 130/1/2 129/1/2 131/1/2
f 126/2/2 127/2/2 132/2/2
f 132/2/2 127/2/2 133/2/2
f 134/2/2 135/2/2 138/2/2
f 136/2/2 137/2/2 138/2/2
f 135/2/2 136/2/2 138/2/2
f 138/2/2 137/2/2 139/2/2
f 139/2/2 137/2/2 140/2/2
f 140/2/2 137/2/2 141/2/2
f 139/1/2 140/1/2 142/1/2
f 142/1/2 140/1/2 143/1/2
f 142/2/2 143/2/2 145/2/2
f 143/1/2 140/1/2 146/1/2
f 145/2/2 143/2/2 146/2/2
f 146/1/2 140/1/2 147/1/2
f 144/2/2 145/2/2 149/2/2
f 149/2/2 145/2/2 150/2/2
f 147/2/2 148/2/2 151/2/2
f 151/2/2 148/2/2 152/2/2
f 153/2/2 154/2/2 158/2/2
f 154/1/2 155/1/2 159/1/2
f 158/2/2 154/2/2 159/2/2
f 159/1/2 155/1/2 160/1/2
f 155/2/2 156/2/2 161/2/2
f 160/1/2 155/1/2 161/1/2
f 161/2/2 156/2/2 162/2/2
f 162/2/2 163/2/2 164/2/2
f 164/2/2 163/2/2 165/2/2
f 164/1/2 165/1/2 166/1/2
f 157/2/2 158/2/2 167/2/2
f 167/2/2 158/2/2 168/2/2
f 167/1/2 168/1/2 169/1/2
f 169/1/2 168/1/2 170/1/2
f 166/1/2 165/1/2 174/1/2
f 174/1/2 165/1/2 175/1/2
f 170/1/2 171/1/2 176/1/2
f 171/2/2 172/2/2 177/2/2
f 176/1/2 171/1/2 177/1/2
f 172/1/2 173/1/2 178/1/2
f 177/2/2 172/2/2 178/2/2
f 173/2/2 174/2/2 179/2/2
f 178/1/2 173/1/2 179/1/2
f 179/2/2 174/2/2 180/2/2
f 181/2/2 182/2/2 183/2/2
f 183/2/2 182/2/2 184/2/2
f 185/2/2 186/2/2 188/2/2
f 186/1/2 187/1/2 189/1/2
f 188/2/2 186/2/2 189/2/2
f 189/1/2 187/1/2 190/1/2
f 190/1/2 187/1/2 191/1/2
f 191/1/2 187/1/2 192/1/2
f 185/2/2 188/2/2 193/2/2
f 191/2/2 192/2/2 196/2/2
f 185/2/2 193/2/2 197/2/2
f 193/2/2 194/2/2 197/2/2
f 194/1/2 195/1/2 198/1/2
f 197/2/2 194/2/2 198/2/2
f 195/2/2 196/2/2 199/2/2
f 198/1/2 195/1/2 199/1/2
f 196/2/2 192/2/2 200/2/2
f 199/2/2 196/2/2 200/2/2
f 201/2/2 202/2/2 203/2/2
f 203/2/2 202/2/2 204/2/2
f 201/2/2 203/2/2 205/2/2
f 203/1/2 204/1/2 205/1/2
f 204/2/2 202/2/2 206/2/2
f 205/1/2 204/1/2 206/1/2
f 206/2/2 202/2/2 207/2/2
f 201/2/2 205/2/2 208/2/2
f 205/2/2 206/2/2 208/2/2
f 206/1/2 207/1/2 209/1/2
f 208/2/2 206/2/2 209/2/2
f 207/2/2 202/2/2 210/2/2
f 209/1/2 207/1/2 210/1/2
f 210/2/2 202/2/2 211/2/2
f 214/2/3 213/2/3 212/2/3
f 215/2/3 213/2/3 214/2/3
f 216/1/3 215/1/3 214/1/3
f 217/2/3 213/2/3 215/2/3
f 217/1/3 215/1/3 216/1/3
f 218/2/3 213/2/3 217/2/3
f 219/2/3 217/2/3 216/2/3
f 220/1/3 218/1/3 217/1/3
f 220/2/3 217/2/3 219/2/3
f 221/1/3 218/1/3 220/1/3
f 225/2/3 223/2/3 222/2/3
f 226/1/3 224/1/3 223/1/3
f 226/2/3 223/2/3 225/2/3
f 227/1/3 224/1/3 226/1/3
f 228/1/3 224/1/3 227/1/3
f 229/2/3 225/2/3 222/2/3
f 230/2/3 225/2/3 229/2/3
f 231/1/3 230/1/3 229/1/3
f 232/1/3 230/1/3 231/1/3
f 233/2/3 232/2/3 231/2/3
f 234/2/3 228/2/3 227/2/3
f 235/2/3 233/2/3 231/2/3
f 237/2/3 228/2/3 234/2/3
f 238/2/3 228/2/3 237/2/3
f 239/2/3 236/2/3 235/2/3
f 239/2/3 235/2/3 231/2/3
f 239/2/3 237/2/3 236/2/3
f 240/1/3 238/1/3 237/1/3
f 240/2/3 237/2/3 239/2/3
f 241/1/3 238/1/3 240/1/3
f 245/2/3 243/2/3 242/2/3
f 246/2/3 243/2/3 245/2/3
f 247/2/3 243/2/3 246/2/3
f 249/1/3 248/1/3 247/1/3
f 250/2/3 245/2/3 244/2/3
f 251/1/3 248/1/3 249/1/3
f 252/1/3 248/1/3 251/1/3
f 255/2/3 250/2/3 244/2/3
f 256/2/3 252/2/3 251/2/3
f 257/2/3 252/2/3 256/2/3
f 258/2/3 254/2/3 253/2/3
f 259/2/3 254/2/3 258/2/3
f 260/1/3 257/1/3 256/1/3
f 261/2/3 255/2/3 244/2/3
f 262/2/3 255/2/3 261/2/3
f 264/1/3 257/1/3 260/1/3
f 265/1/3 257/1/3 264/1/3
f 266/2/3 263/2/3 262/2/3
f 266/2/3 264/2/3 263/2/3
f 267/2/3 264/2/3 266/2/3
f 271/1/3 269/1/3 268/1/3
f 272/2/3 270/2/3 269/2/3
f 272/1/3 269/1/3 271/1/3
f 273/2/3 270/2/3 272/2/3
f 278/2/3 275/2/3 274/2/3
f 279/2/3 275/2/3 278/2/3
f 281/2/3 277/2/3 276/2/3
f 282/2/3 277/2/3 281/2/3
f 283/2/3 279/2/3 278/2/3
f 284/1/3 280/1/3 279/1/3
f 284/2/3 279/2/3 283/2/3
f 285/2/3 281/2/3 280/2/3
f 285/1/3 280/1/3 284/1/3
f 286/2/3 281/2/3 285/2/3
f 288/2/3 284/2/3 283/2/3
f 289/2/3 284/2/3 288/2/3
f 290/2/3 287/2/3 286/2/3
f 291/2/3 287/2/3 290/2/3
f 294/2/3 293/2/3 292/2/3
f 295/2/3 293/2/3 294/2/3
f 299/2/3 297/2/3 296/2/3
f 300/2/3 297/2/3 299/2/3
f 301/2/3 299/2/3 298/2/3
f 302/2/3 299/2/3 301/2/3
f 303/2/3 299/2/3 302/2/3
f 307/1/3 305/1/3 304/1/3
f 308/2/3 306/2/3 305/2/3
f 308/1/3 305/1/3 307/1/3
f 309/2/3 306/2/3 308/2/3
f 311/2/3 310/2/3 309/2/3
f 312/2/3 310/2/3 311/2/3
f 313/2/4 314/2/4 316/2/4
f 316/2/4 314/2/4 317/2/4
f 315/1/4 316/1/4 318/1/4
f 318/1/4 316/1/4 319/1/4
f 320/1/4 321/1/4 323/1/4
f 321/1/4 322/1/4 323/1/4
f 323/1/4 322/1/4 324/1/4
f 324/2/4 325/2/4 326/2/4
f 326/2/4 325/2/4 327/2/4
f 328/2/4 329/2/4 331/2/4
f 331/2/4 329/2/4 332/2/4
f 329/1/4 330/1/4 333/1/4
f 332/2/4 329/2/4 333/2/4
f 333/1/4 330/1/4 334/1/4
f 335/2/4 336/2/4 339/2/4
f 337/2/4 338/2/4 340/2/4
f 340/2/4 338/2/4 341/2/4
f 335/2/4 339/2/4 342/2/4
f 339/2/4 340/2/4 342/2/4
f 342/2/4 340/2/4 343/2/4
f 343/2/4 340/2/4 344/2/4
f 342/2/4 343/2/4 345/2/4
f 343/1/4 344/1/4 346/1/4
f 345/2/4 343/2/4 346/2/4
f 346/1/4 344/1/4 347/1/4
f 342/2/4 345/2/4 349/2/4
f 349/2/4 345/2/4 350/2/4
f 347/2/4 348/2/4 351/2/4
f 351/2/4 348/2/4 352/2/4
f 353/2/4 354/2/4 356/2/4
f 354/2/4 355/2/4 356/2/4
f 356/2/4 355/2/4 357/2/4
f 358/2/4 359/2/4 364/2/4
f 359/1/4 360/1/4 365/1/4
f 364/2/4 359/2/4 365/2/4
f 360/2/4 361/2/4 366/2/4
f 365/1/4 360/1/4 366/1/4
f 361/1/4 362/1/4 367/1/4
f 366/2/4 361/2/4 367/2/4
f 367/1/4 362/1/4 368/1/4
f 363/2/4 364/2/4 372/2/4
f 368/2/4 369/2/4 373/2/4
f 373/2/4 369/2/4 374/2/4
f 370/2/4 371/2/4 375/2/4
f 375/2/4 371/2/4 376/2/4
f 375/1/4 376/1/4 377/1/4
f 377/1/4 376/1/4 378/1/4
f 373/1/4 374/1/4 379/1/4
f 379/1/4 374/1/4 380/1/4
f 363/2/4 372/2/4 381/2/4
f 381/2/4 372/2/4 382/2/4
f 379/2/4 380/2/4 385/2/4
f 385/2/4 380/2/4 386/2/4
f 383/1/4 384/1/4 387/1/4
f 382/1/4 383/1/4 387/1/4
f 384/2/4 385/2/4 388/2/4
f 387/1/4 384/1/4 388/1/4
f 388/2/4 385/2/4 389/2/4
f 390/1/4 391/1/4 393/1/4
f 391/2/4 392/2/4 393/2/4
f 393/2/4 392/2/4 394/2/4
f 390/1/4 393/1/4 395/1/4
f 395/1/4 393/1/4 396/1/4
f 395/2/4 396/2/4 397/2/4
f 394/2/4 392/2/4 398/2/4
f 398/2/4 392/2/4 399/2/4
f 395/2/4 397/2/4 400/2/4
f 397/1/4 398/1/4 401/1/4
f 400/2/4 397/2/4 401/2/4
f 398/1/4 399/1/4 401/1/4
f 401/1/4 399/1/4 402/1/4
f 403/2/4 404/2/4 405/2/4
f 405/2/4 404/2/4 406/2/4
f 409/2/5 408/2/5 407/2/5
f 410/2/5 408/2/5 409/2/5
f 411/2/5 409/2/5 407/2/5
f 411/1/5 410/1/5 409/1/5
f 412/2/5 408/2/5 410/2/5
f 412/1/5 410/1/5 411/1/5
f 413/2/5 408/2/5 412/2/5
f 414/2/5 412/2/5 411/2/5
f 414/1/5 413/1/5 412/1/5
f 415/1/5 413/1/5 414/1/5
f 416/1/5 413/1/5 415/1/5
f 417/1/5 413/1/5 416/1/5
f 418/2/5 415/2/5 414/2/5
f 418/1/5 416/1/5 415/1/5
f 419/2/5 417/2/5 416/2/5
f 419/1/5 416/1/5 418/1/5
f 420/2/5 411/2/5 407/2/5
f 420/2/5 414/2/5 411/2/5
f 420/2/5 419/2/5 418/2/5
f 420/2/5 418/2/5 414/2/5
f 421/2/5 417/2/5 419/2/5
f 421/2/5 419/2/5 420/2/5
f 427/2/5 423/2/5 422/2/5
f 428/1/5 424/1/5 423/1/5
f 428/2/5 423/2/5 427/2/5
f 429/2/5 425/2/5 424/2/5
f 429/1/5 424/1/5 428/1/5
f 430/2/5 425/2/5 429/2/5
f 432/2/5 431/2/5 430/2/5
f 433/2/5 431/2/5 432/2/5
f 434/2/5 431/2/5 433/2/5
f 435/1/5 434/1/5 433/1/5
f 436/2/5 427/2/5 426/2/5
f 437/2/5 427/2/5 436/2/5
f 439/1/5 434/1/5 435/1/5
f 440/1/5 434/1/5 439/1/5
f 441/1/5 438/1/5 437/1/5
f 442/2/5 439/2/5 438/2/5
f 442/1/5 438/1/5 441/1/5
f 443/2/5 439/2/5 442/2/5
f 448/2/5 445/2/5 444/2/5
f 449/2/5 445/2/5 448/2/5
f 450/1/5 446/1/5 445/1/5
f 450/2/5 445/2/5 449/2/5
f 451/2/5 447/2/5 446/2/5
f 451/1/5 446/1/5 450/1/5
f 452/2/5 447/2/5 451/2/5
f 457/1/5 454/1/5 453/1/5
f 458/1/5 454/1/5 457/1/5
f 459/2/5 456/2/5 455/2/5
f 460/2/5 458/2/5 457/2/5
f 461/2/5 458/2/5 460/2/5
f 462/2/5 456/2/5 459/2/5
f 463/2/5 456/2/5 462/2/5
f 467/2/5 465/2/5 464/2/5
f 467/2/5 466/2/5 465/2/5
f 468/2/5 466/2/5 467/2/5
f 472/2/5 470/2/5 469/2/5
f 473/2/5 470/2/5 472/2/5
f 476/2/5 472/2/5 471/2/5
f 477/2/5 472/2/5 476/2/5
f 478/2/5 474/2/5 473/2/5
f 479/2/5 474/2/5 478/2/5
f 481/2/5 476/2/5 475/2/5
f 482/2/5 480/2/5 479/2/5
f 483/2/5 481/2/5 475/2/5
f 484/2/5 481/2/5 483/2/5
f 487/2/5 480/2/5 482/2/5
f 488/2/5 480/2/5 487/2/5
f 489/2/5 485/2/5 484/2/5
f 490/2/5 485/2/5 489/2/5
f 492/2/5 487/2/5 486/2/5
f 493/2/5 487/2/5 492/2/5
f 494/2/5 491/2/5 490/2/5
f 495/1/5 492/1/5 491/1/5
f 495/2/5 491/2/5 494/2/5
f 496/1/5 492/1/5 495/1/5
f 497/2/6 498/2/6 500/2/6
f 498/1/6 499/1/6 501/1/6
f 500/2/6 498/2/6 501/2/6
f 501/1/6 499/1/6 502/1/6
f 503/2/6 504/2/6 507/2/6
f 507/2/6 504/2/6 508/2/6
f 505/2/6 506/2/6 509/2/6
f 509/2/6 506/2/6 510/2/6
f 507/1/6 508/1/6 511/1/6
f 509/1/6 510/1/6 512/1/6
f 512/1/6 510/1/6 513/1/6
f 507/1/6 511/1/6 514/1/6
f 514/1/6 511/1/6 515/1/6
f 512/2/6 513/2/6 516/2/6
f 516/2/6 513/2/6 517/2/6
f 518/2/6 519/2/6 520/2/6
f 520/2/6 519/2/6 521/2/6
f 522/1/6 523/1/6 527/1/6
f 523/2/6 524/2/6 528/2/6
f 527/1/6 523/1/6 528/1/6
f 528/2/6 524/2/6 529/2/6
f 529/2/6 524/2/6 530/2/6
f 524/1/6 525/1/6 531/1/6
f 530/2/6 524/2/6 531/2/6
f 531/1/6 525/1/6 532/1/6
f 526/2/6 527/2/6 534/2/6
f 532/2/6 533/2/6 535/2/6
f 526/2/6 534/2/6 536/2/6
f 535/2/6 533/2/6 537/2/6
f 537/2/6 533/2/6 538/2/6
f 526/2/6 536/2/6 539/2/6
f 539/2/6 536/2/6 540/2/6
f 537/1/6 538/1/6 541/1/6
f 541/1/6 538/1/6 542/1/6
f 539/1/6 540/1/6 543/1/6
f 543/1/6 540/1/6 544/1/6
f 541/2/6 542/2/6 547/2/6
f 547/2/6 542/2/6 548/2/6
f 545/2/6 546/2/6 549/2/6
f 544/2/6 545/2/6 549/2/6
f 546/1/6 547/1/6 550/1/6
f 549/2/6 546/2/6 550/2/6
f 550/1/6 547/1/6 551/1/6
f 552/1/6 553/1/6 556/1/6
f 556/1/6 553/1/6 557/1/6
f 553/2/6 554/2/6 558/2/6
f 557/1/6 553/1/6 558/1/6
f 554/1/6 555/1/6 559/1/6
f 558/2/6 554/2/6 559/2/6
f 559/1/6 555/1/6 560/1/6
f 560/1/6 555/1/6 561/1/6
f 556/2/6 557/2/6 562/2/6
f 562/2/6 557/2/6 563/2/6
f 562/1/6 563/1/6 564/1/6
f 560/2/6 561/2/6 565/2/6
f 565/2/6 561/2/6 566/2/6
f 562/1/6 564/1/6 567/1/6
f 567/1/6 564/1/6 568/1/6
f 565/1/6 566/1/6 569/1/6
f 569/1/6 566/1/6 570/1/6
f 567/2/6 568/2/6 571/2/6
f 569/2/6 570/2/6 573/2/6
f 571/2/6 572/2/6 574/2/6
f 567/2/6 571/2/6 574/2/6
f 572/1/6 573/1/6 575/1/6
f 574/2/6 572/2/6 575/2/6
f 573/2/6 570/2/6 576/2/6
f 575/1/6 573/1/6 576/1/6
f 576/2/6 570/2/6 577/2/6
f 578/2/6 579/2/6 582/2/6
f 582/2/6 579/2/6 583/2/6
f 580/2/6 581/2/6 584/2/6
f 584/2/6 581/2/6 585/2/6
f 586/2/6 587/2/6 590/2/6
f 590/2/6 587/2/6 591/2/6
f 588/2/6 589/2/6 592/2/6
f 592/2/6 589/2/6 593/2/6
f 594/2/6 595/2/6 597/2/6
f 597/2/6 595/2/6 598/2/6
f 598/2/6 595/2/6 599/2/6
f 596/2/6 597/2/6 602/2/6
f 597/4/6 598/4/6 603/4/6
f 602/2/6 597/2/6 603/2/6
f 599/2/6 600/2/6 604/2/6
f 598/3/6 599/3/6 604/3/6
f 604/2/6 600/2/6 605/2/6
f 603/4/6 598/4/6 607/4/6
f 598/3/6 604/3/6 607/3/6
f 604/3/6 605/3/6 607/3/6
f 607/3/6 605/3/6 608/3/6
f 601/2/6 602/2/6 609/2/6
f 602/3/6 603/3/6 610/3/6
f 609/2/6 602/2/6 610/2/6
f 603/4/6 607/4/6 611/4/6
f 610/3/6 603/3/6 611/3/6
f 607/4/6 608/4/6 611/4/6
f 608/3/6 605/3/6 612/3/6
f 611/4/6 608/4/6 612/4/6
f 605/2/6 606/2/6 613/2/6
f 612/3/6 605/3/6 613/3/6
f 613/2/6 606/2/6 614/2/6
f 610/2/6 611/2/6 615/2/6
f 611/3/6 612/3/6 616/3/6
f 615/2/6 611/2/6 616/2/6
f 616/3/6 612/3/6 617/3/6
f 612/2/6 613/2/6 618/2/6
f 617/3/6 612/3/6 618/3/6
f 618/2/6 613/2/6 619/2/6
f 616/2/6 617/2/6 620/2/6
f 617/1/6 618/1/6 621/1/6
f 620/2/6 617/2/6 621/2/6
f 621/1/6 618/1/6 622/1/6
