# MagicaVoxel @ Ephtracy

# group
o 

# material
mtllib VR Токарев кость.mtl
usemtl palette

# normals
vn -1 0 0
vn 1 0 0
vn 0 0 1
vn 0 0 -1
vn 0 -1 0
vn 0 1 0

# texcoords
vt 0.00195312 0.5
vt 0.962891 0.5

# verts
v -1.4 0.1 0.3
v -1.4 0.1 0.1
v -1.4 0.1 -0.1
v -1.4 0.1 -0.3
v -1.4 0.2 0.4
v -1.4 0.2 0.3
v -1.4 0.2 -0.2
v -1.4 0.2 -0.3
v -1.4 0.2 -0.4
v -1.4 0.3 0.2
v -1.4 0.3 0.1
v -1.4 0.3 -0.1
v -1.4 0.3 -0.2
v -1.4 0.3 -0.4
v -1.4 0.4 -0.1
v -1.4 0.4 -0.2
v -1.4 0.5 0.4
v -1.4 0.5 0.3
v -1.4 0.5 -0.3
v -1.4 0.5 -0.4
v -1.4 0.6 0.3
v -1.4 0.6 0.2
v -1.4 0.6 0.1
v -1.4 0.6 -0.1
v -1.4 0.6 -0.3
v -1.3 0.1 0.4
v -1.3 0.1 0.3
v -1.3 0.1 0.1
v -1.3 0.1 -0.1
v -1.3 0.1 -0.3
v -1.3 0.1 -0.4
v -1.3 0.2 0.5
v -1.3 0.2 0.4
v -1.3 0.2 0.3
v -1.3 0.2 -0.3
v -1.3 0.2 -0.4
v -1.3 0.2 -0.5
v -1.3 0.3 0.5
v -1.3 0.3 0.4
v -1.3 0.3 0.1
v -1.3 0.3 -0.1
v -1.3 0.3 -0.4
v -1.3 0.3 -0.5
v -1.3 0.4 0.1
v -1.3 0.4 -0.1
v -1.3 0.5 0.5
v -1.3 0.5 0.4
v -1.3 0.5 0.3
v -1.3 0.5 -0.3
v -1.3 0.5 -0.4
v -1.3 0.5 -0.5
v -1.3 0.6 0.4
v -1.3 0.6 0.3
v -1.3 0.6 0.1
v -1.3 0.6 -0.1
v -1.3 0.6 -0.3
v -1.3 0.6 -0.4
v -1.2 0.1 0.5
v -1.2 0.1 0.4
v -1.2 0.1 -0.4
v -1.2 0.1 -0.5
v -1.2 0.2 0.5
v -1.2 0.2 0.4
v -1.2 0.2 -0.4
v -1.2 0.2 -0.5
v -1.2 0.5 0.5
v -1.2 0.5 0.4
v -1.2 0.5 -0.4
v -1.2 0.5 -0.5
v -1.2 0.6 0.5
v -1.2 0.6 0.4
v -1.2 0.6 -0.4
v -1.2 0.6 -0.5
v 0.9 0.1 0.2
v 0.9 0.1 0.1
v 0.9 0.1 -0.1
v 0.9 0.1 -0.2
v 0.9 0.2 0.3
v 0.9 0.2 0.2
v 0.9 0.2 0.1
v 0.9 0.2 -0.1
v 0.9 0.2 -0.2
v 0.9 0.2 -0.3
v 0.9 0.3 -0.2
v 0.9 0.3 -0.3
v 0.9 0.4 0.3
v 0.9 0.4 0.2
v 0.9 0.4 -0.2
v 0.9 0.5 0.3
v 0.9 0.5 0.2
v 0.9 0.5 0.1
v 0.9 0.5 -0.1
v 0.9 0.5 -0.2
v 0.9 0.6 0.2
v 0.9 0.6 0.1
v 0.9 0.6 -0.1
v 0.9 0.6 -0.3
v 1 0.1 0.4
v 1 0.1 0.2
v 1 0.1 -0.2
v 1 0.1 -0.3
v 1 0.1 -0.4
v 1 0.2 0.5
v 1 0.2 0.4
v 1 0.2 0.3
v 1 0.2 0.2
v 1 0.2 -0.2
v 1 0.2 -0.3
v 1 0.2 -0.4
v 1 0.2 -0.5
v 1 0.3 -0.3
v 1 0.3 -0.4
v 1 0.3 -0.5
v 1 0.4 0.3
v 1 0.4 -0.4
v 1 0.4 -0.5
v 1 0.5 0.5
v 1 0.5 0.4
v 1 0.5 0.3
v 1 0.5 0.2
v 1 0.5 -0.4
v 1 0.5 -0.5
v 1 0.6 0.4
v 1 0.6 0.2
v 1 0.6 -0.3
v 1 0.6 -0.4
v 1.1 0.1 0.5
v 1.1 0.1 0.4
v 1.1 0.1 -0.4
v 1.1 0.1 -0.5
v 1.1 0.2 0.5
v 1.1 0.2 0.4
v 1.1 0.2 -0.4
v 1.1 0.2 -0.5
v 1.1 0.5 0.5
v 1.1 0.5 0.4
v 1.1 0.5 -0.4
v 1.1 0.5 -0.5
v 1.1 0.6 0.5
v 1.1 0.6 0.4
v 1.1 0.6 -0.4
v 1.1 0.6 -0.5
v -1.1 0.1 0.5
v -1.1 0.1 0.4
v -1.1 0.1 -0.4
v -1.1 0.1 -0.5
v -1.1 0.2 0.5
v -1.1 0.2 0.4
v -1.1 0.2 -0.4
v -1.1 0.2 -0.5
v -1.1 0.5 0.5
v -1.1 0.5 0.4
v -1.1 0.5 -0.4
v -1.1 0.5 -0.5
v -1.1 0.6 0.5
v -1.1 0.6 0.4
v -1.1 0.6 -0.4
v -1.1 0.6 -0.5
v -1 0.1 0.4
v -1 0.1 0.2
v -1 0.1 -0.2
v -1 0.1 -0.4
v -1 0.2 0.5
v -1 0.2 0.4
v -1 0.2 0.3
v -1 0.2 0.2
v -1 0.2 -0.2
v -1 0.2 -0.3
v -1 0.2 -0.4
v -1 0.2 -0.5
v -1 0.4 0.5
v -1 0.4 0.4
v -1 0.4 0.3
v -1 0.4 -0.3
v -1 0.5 0.5
v -1 0.5 0.4
v -1 0.5 0.3
v -1 0.5 0.2
v -1 0.5 -0.2
v -1 0.5 -0.3
v -1 0.5 -0.4
v -1 0.5 -0.5
v -1 0.6 0.4
v -1 0.6 0.2
v -1 0.6 -0.2
v -1 0.6 -0.3
v -1 0.6 -0.4
v -0.9 0.1 0.2
v -0.9 0.1 0.1
v -0.9 0.1 -0.1
v -0.9 0.1 -0.2
v -0.9 0.2 0.3
v -0.9 0.2 0.2
v -0.9 0.2 0.1
v -0.9 0.2 -0.1
v -0.9 0.2 -0.2
v -0.9 0.2 -0.3
v -0.9 0.3 0.2
v -0.9 0.3 -0.2
v -0.9 0.4 0.3
v -0.9 0.4 0.2
v -0.9 0.4 -0.2
v -0.9 0.4 -0.3
v -0.9 0.5 0.3
v -0.9 0.5 0.2
v -0.9 0.5 0.1
v -0.9 0.5 -0.1
v -0.9 0.5 -0.2
v -0.9 0.5 -0.3
v -0.9 0.6 0.2
v -0.9 0.6 0.1
v -0.9 0.6 -0.1
v -0.9 0.6 -0.2
v 1.2 0.1 0.5
v 1.2 0.1 0.4
v 1.2 0.1 -0.4
v 1.2 0.1 -0.5
v 1.2 0.2 0.5
v 1.2 0.2 0.4
v 1.2 0.2 -0.4
v 1.2 0.2 -0.5
v 1.2 0.5 0.5
v 1.2 0.5 0.4
v 1.2 0.5 -0.4
v 1.2 0.5 -0.5
v 1.2 0.6 0.5
v 1.2 0.6 0.4
v 1.2 0.6 -0.4
v 1.2 0.6 -0.5
v 1.3 0.1 0.4
v 1.3 0.1 0.3
v 1.3 0.1 0.1
v 1.3 0.1 0
v 1.3 0.1 -0.1
v 1.3 0.1 -0.3
v 1.3 0.1 -0.4
v 1.3 0.2 0.5
v 1.3 0.2 0.4
v 1.3 0.2 0.3
v 1.3 0.2 0
v 1.3 0.2 -0.1
v 1.3 0.2 -0.3
v 1.3 0.2 -0.4
v 1.3 0.2 -0.5
v 1.3 0.3 0.4
v 1.3 0.3 0.1
v 1.3 0.3 0
v 1.3 0.3 -0.1
v 1.3 0.4 0.5
v 1.3 0.4 0.4
v 1.3 0.4 0.1
v 1.3 0.4 0
v 1.3 0.4 -0.1
v 1.3 0.4 -0.4
v 1.3 0.4 -0.5
v 1.3 0.5 0.5
v 1.3 0.5 0.4
v 1.3 0.5 0.3
v 1.3 0.5 0.1
v 1.3 0.5 -0.1
v 1.3 0.5 -0.3
v 1.3 0.5 -0.4
v 1.3 0.5 -0.5
v 1.3 0.6 0.4
v 1.3 0.6 0.3
v 1.3 0.6 0.1
v 1.3 0.6 -0.1
v 1.3 0.6 -0.3
v 1.3 0.6 -0.4
v 1.4 0.1 0.3
v 1.4 0.1 0.1
v 1.4 0.1 -0.1
v 1.4 0.1 -0.2
v 1.4 0.1 -0.3
v 1.4 0.2 0.4
v 1.4 0.2 0.3
v 1.4 0.2 -0.2
v 1.4 0.2 -0.3
v 1.4 0.2 -0.4
v 1.4 0.3 0.4
v 1.4 0.3 0.3
v 1.4 0.3 -0.1
v 1.4 0.3 -0.2
v 1.4 0.4 0.3
v 1.4 0.4 0.1
v 1.4 0.4 -0.2
v 1.4 0.4 -0.4
v 1.4 0.5 0.4
v 1.4 0.5 0.3
v 1.4 0.5 0.1
v 1.4 0.5 -0.1
v 1.4 0.5 -0.3
v 1.4 0.5 -0.4
v 1.4 0.6 0.3
v 1.4 0.6 0.1
v 1.4 0.6 -0.1
v 1.4 0.6 -0.3
v -1.3 0.2 0.5
v -1.3 0.3 0.5
v -1.3 0.5 0.5
v -1.2 0.1 0.5
v -1.2 0.2 0.5
v -1.2 0.3 0.5
v -1.2 0.5 0.5
v -1.2 0.6 0.5
v -1.1 0.1 0.5
v -1.1 0.2 0.5
v -1.1 0.4 0.5
v -1.1 0.5 0.5
v -1.1 0.6 0.5
v -1 0.2 0.5
v -1 0.4 0.5
v -1 0.5 0.5
v 1 0.2 0.5
v 1 0.5 0.5
v 1.1 0.1 0.5
v 1.1 0.2 0.5
v 1.1 0.5 0.5
v 1.1 0.6 0.5
v 1.2 0.1 0.5
v 1.2 0.2 0.5
v 1.2 0.4 0.5
v 1.2 0.5 0.5
v 1.2 0.6 0.5
v 1.3 0.2 0.5
v 1.3 0.4 0.5
v 1.3 0.5 0.5
v -1.4 0.2 0.4
v -1.4 0.5 0.4
v -1.3 0.1 0.4
v -1.3 0.2 0.4
v -1.3 0.3 0.4
v -1.3 0.5 0.4
v -1.3 0.6 0.4
v -1.2 0.1 0.4
v -1.2 0.2 0.4
v -1.2 0.5 0.4
v -1.2 0.6 0.4
v -1.1 0.1 0.4
v -1.1 0.2 0.4
v -1.1 0.5 0.4
v -1.1 0.6 0.4
v -1 0.1 0.4
v -1 0.2 0.4
v -1 0.5 0.4
v -1 0.6 0.4
v 1 0.1 0.4
v 1 0.2 0.4
v 1 0.5 0.4
v 1 0.6 0.4
v 1.1 0.1 0.4
v 1.1 0.2 0.4
v 1.1 0.5 0.4
v 1.1 0.6 0.4
v 1.2 0.1 0.4
v 1.2 0.2 0.4
v 1.2 0.5 0.4
v 1.2 0.6 0.4
v 1.3 0.1 0.4
v 1.3 0.2 0.4
v 1.3 0.3 0.4
v 1.3 0.4 0.4
v 1.3 0.5 0.4
v 1.3 0.6 0.4
v 1.4 0.2 0.4
v 1.4 0.3 0.4
v 1.4 0.5 0.4
v -1.4 0.1 0.3
v -1.4 0.2 0.3
v -1.4 0.5 0.3
v -1.4 0.6 0.3
v -1.3 0.1 0.3
v -1.3 0.2 0.3
v -1.3 0.5 0.3
v -1.3 0.6 0.3
v -1 0.2 0.3
v -1 0.4 0.3
v -1 0.5 0.3
v -0.9 0.2 0.3
v -0.9 0.4 0.3
v -0.9 0.5 0.3
v 0.9 0.2 0.3
v 0.9 0.4 0.3
v 0.9 0.5 0.3
v 1 0.2 0.3
v 1 0.4 0.3
v 1 0.5 0.3
v 1.3 0.1 0.3
v 1.3 0.2 0.3
v 1.3 0.5 0.3
v 1.3 0.6 0.3
v 1.4 0.1 0.3
v 1.4 0.2 0.3
v 1.4 0.5 0.3
v 1.4 0.6 0.3
v -1 0.1 0.2
v -1 0.2 0.2
v -1 0.5 0.2
v -1 0.6 0.2
v -0.9 0.1 0.2
v -0.9 0.2 0.2
v -0.9 0.3 0.2
v -0.9 0.4 0.2
v -0.9 0.5 0.2
v -0.9 0.6 0.2
v -0.7 0.2 0.2
v -0.7 0.3 0.2
v -0.7 0.4 0.2
v -0.5 0.3 0.2
v -0.5 0.4 0.2
v -0.5 0.5 0.2
v -0.1 0.4 0.2
v -0.1 0.5 0.2
v 0.1 0.4 0.2
v 0.1 0.5 0.2
v 0.3 0.2 0.2
v 0.3 0.3 0.2
v 0.3 0.4 0.2
v 0.3 0.5 0.2
v 0.4 0.2 0.2
v 0.4 0.3 0.2
v 0.4 0.4 0.2
v 0.5 0.4 0.2
v 0.5 0.5 0.2
v 0.6 0.3 0.2
v 0.6 0.4 0.2
v 0.9 0.1 0.2
v 0.9 0.2 0.2
v 0.9 0.4 0.2
v 0.9 0.5 0.2
v 0.9 0.6 0.2
v 1 0.1 0.2
v 1 0.2 0.2
v 1 0.5 0.2
v 1 0.6 0.2
v -0.9 0.1 0.1
v -0.9 0.2 0.1
v -0.9 0.5 0.1
v -0.9 0.6 0.1
v -0.7 0.1 0.1
v -0.7 0.2 0.1
v -0.5 0.5 0.1
v -0.1 0.5 0.1
v -0.1 0.6 0.1
v 0.1 0.5 0.1
v 0.1 0.6 0.1
v 0.2 0.5 0.1
v 0.2 0.6 0.1
v 0.3 0.1 0.1
v 0.3 0.2 0.1
v 0.3 0.5 0.1
v 0.4 0.1 0.1
v 0.4 0.2 0.1
v 0.4 0.5 0.1
v 0.4 0.6 0.1
v 0.5 0.5 0.1
v 0.6 0.5 0.1
v 0.6 0.6 0.1
v 0.9 0.1 0.1
v 0.9 0.2 0.1
v 0.9 0.5 0.1
v 0.9 0.6 0.1
v -1.4 0.1 -0.1
v -1.4 0.3 -0.1
v -1.4 0.4 -0.1
v -1.4 0.6 -0.1
v -1.3 0.1 -0.1
v -1.3 0.3 -0.1
v -1.3 0.4 -0.1
v -1.3 0.6 -0.1
v 1.3 0.1 -0.1
v 1.3 0.2 -0.1
v 1.3 0.3 -0.1
v 1.3 0.4 -0.1
v 1.3 0.5 -0.1
v 1.3 0.6 -0.1
v 1.4 0.1 -0.1
v 1.4 0.3 -0.1
v 1.4 0.5 -0.1
v 1.4 0.6 -0.1
v -1.4 0.1 0.1
v -1.4 0.3 0.1
v -1.4 0.6 0.1
v -1.3 0.1 0.1
v -1.3 0.3 0.1
v -1.3 0.4 0.1
v -1.3 0.6 0.1
v 1.3 0.1 0.1
v 1.3 0.3 0.1
v 1.3 0.4 0.1
v 1.3 0.5 0.1
v 1.3 0.6 0.1
v 1.4 0.1 0.1
v 1.4 0.4 0.1
v 1.4 0.5 0.1
v 1.4 0.6 0.1
v -0.9 0.1 -0.1
v -0.9 0.2 -0.1
v -0.9 0.5 -0.1
v -0.9 0.6 -0.1
v -0.8 0.1 -0.1
v -0.8 0.2 -0.1
v -0.6 0.2 -0.1
v -0.6 0.5 -0.1
v -0.6 0.6 -0.1
v -0.4 0.2 -0.1
v -0.3 0.1 -0.1
v -0.3 0.2 -0.1
v -0.1 0.2 -0.1
v -0.1 0.5 -0.1
v 0 0.5 -0.1
v 0 0.6 -0.1
v 0.1 0.5 -0.1
v 0.2 0.1 -0.1
v 0.2 0.2 -0.1
v 0.4 0.2 -0.1
v 0.4 0.5 -0.1
v 0.4 0.6 -0.1
v 0.5 0.1 -0.1
v 0.5 0.2 -0.1
v 0.5 0.5 -0.1
v 0.5 0.6 -0.1
v 0.6 0.2 -0.1
v 0.7 0.1 -0.1
v 0.7 0.2 -0.1
v 0.7 0.5 -0.1
v 0.8 0.2 -0.1
v 0.9 0.1 -0.1
v 0.9 0.2 -0.1
v 0.9 0.5 -0.1
v 0.9 0.6 -0.1
v -1 0.1 -0.2
v -1 0.2 -0.2
v -1 0.5 -0.2
v -1 0.6 -0.2
v -0.9 0.1 -0.2
v -0.9 0.2 -0.2
v -0.9 0.3 -0.2
v -0.9 0.4 -0.2
v -0.9 0.5 -0.2
v -0.9 0.6 -0.2
v -0.8 0.2 -0.2
v -0.8 0.3 -0.2
v -0.8 0.4 -0.2
v -0.7 0.3 -0.2
v -0.7 0.4 -0.2
v -0.6 0.2 -0.2
v -0.6 0.3 -0.2
v -0.5 0.3 -0.2
v -0.5 0.4 -0.2
v -0.4 0.2 -0.2
v -0.4 0.3 -0.2
v -0.1 0.2 -0.2
v -0.1 0.3 -0.2
v -0.1 0.4 -0.2
v -0.1 0.5 -0.2
v 0.1 0.4 -0.2
v 0.1 0.5 -0.2
v 0.2 0.2 -0.2
v 0.2 0.4 -0.2
v 0.4 0.2 -0.2
v 0.4 0.3 -0.2
v 0.6 0.2 -0.2
v 0.6 0.3 -0.2
v 0.7 0.4 -0.2
v 0.7 0.5 -0.2
v 0.8 0.2 -0.2
v 0.8 0.4 -0.2
v 0.9 0.1 -0.2
v 0.9 0.2 -0.2
v 0.9 0.3 -0.2
v 0.9 0.4 -0.2
v 0.9 0.5 -0.2
v 1 0.1 -0.2
v 1 0.2 -0.2
v -1.4 0.1 -0.3
v -1.4 0.2 -0.3
v -1.4 0.5 -0.3
v -1.4 0.6 -0.3
v -1.3 0.1 -0.3
v -1.3 0.2 -0.3
v -1.3 0.5 -0.3
v -1.3 0.6 -0.3
v -1 0.2 -0.3
v -1 0.4 -0.3
v -1 0.5 -0.3
v -0.9 0.2 -0.3
v -0.9 0.4 -0.3
v -0.9 0.5 -0.3
v 0.9 0.2 -0.3
v 0.9 0.3 -0.3
v 0.9 0.6 -0.3
v 1 0.2 -0.3
v 1 0.3 -0.3
v 1 0.6 -0.3
v 1.3 0.1 -0.3
v 1.3 0.2 -0.3
v 1.3 0.5 -0.3
v 1.3 0.6 -0.3
v 1.4 0.1 -0.3
v 1.4 0.2 -0.3
v 1.4 0.5 -0.3
v 1.4 0.6 -0.3
v -1.4 0.2 -0.4
v -1.4 0.3 -0.4
v -1.4 0.5 -0.4
v -1.3 0.1 -0.4
v -1.3 0.2 -0.4
v -1.3 0.3 -0.4
v -1.3 0.5 -0.4
v -1.3 0.6 -0.4
v -1.2 0.1 -0.4
v -1.2 0.2 -0.4
v -1.2 0.5 -0.4
v -1.2 0.6 -0.4
v -1.1 0.1 -0.4
v -1.1 0.2 -0.4
v -1.1 0.5 -0.4
v -1.1 0.6 -0.4
v -1 0.1 -0.4
v -1 0.2 -0.4
v -1 0.5 -0.4
v -1 0.6 -0.4
v 1 0.1 -0.4
v 1 0.2 -0.4
v 1 0.5 -0.4
v 1 0.6 -0.4
v 1.1 0.1 -0.4
v 1.1 0.2 -0.4
v 1.1 0.5 -0.4
v 1.1 0.6 -0.4
v 1.2 0.1 -0.4
v 1.2 0.2 -0.4
v 1.2 0.5 -0.4
v 1.2 0.6 -0.4
v 1.3 0.1 -0.4
v 1.3 0.2 -0.4
v 1.3 0.4 -0.4
v 1.3 0.5 -0.4
v 1.3 0.6 -0.4
v 1.4 0.2 -0.4
v 1.4 0.4 -0.4
v 1.4 0.5 -0.4
v -1.3 0.2 -0.5
v -1.3 0.3 -0.5
v -1.3 0.5 -0.5
v -1.2 0.1 -0.5
v -1.2 0.2 -0.5
v -1.2 0.3 -0.5
v -1.2 0.4 -0.5
v -1.2 0.5 -0.5
v -1.2 0.6 -0.5
v -1.1 0.1 -0.5
v -1.1 0.2 -0.5
v -1.1 0.3 -0.5
v -1.1 0.4 -0.5
v -1.1 0.5 -0.5
v -1.1 0.6 -0.5
v -1 0.2 -0.5
v -1 0.5 -0.5
v 1 0.2 -0.5
v 1 0.3 -0.5
v 1 0.4 -0.5
v 1 0.5 -0.5
v 1.1 0.1 -0.5
v 1.1 0.2 -0.5
v 1.1 0.5 -0.5
v 1.1 0.6 -0.5
v 1.2 0.1 -0.5
v 1.2 0.2 -0.5
v 1.2 0.3 -0.5
v 1.2 0.4 -0.5
v 1.2 0.5 -0.5
v 1.2 0.6 -0.5
v 1.3 0.2 -0.5
v 1.3 0.4 -0.5
v 1.3 0.5 -0.5
v -1.2 0.1 0.5
v -1.1 0.1 0.5
v 1.1 0.1 0.5
v 1.2 0.1 0.5
v -1.3 0.1 0.4
v -1.2 0.1 0.4
v -1.1 0.1 0.4
v -1 0.1 0.4
v 1 0.1 0.4
v 1.1 0.1 0.4
v 1.2 0.1 0.4
v 1.3 0.1 0.4
v -1.4 0.1 0.3
v -1.3 0.1 0.3
v 1.3 0.1 0.3
v 1.4 0.1 0.3
v -1.2 0.1 0.2
v -1.1 0.1 0.2
v -1 0.1 0.2
v -0.9 0.1 0.2
v 0.9 0.1 0.2
v 1 0.1 0.2
v -1.4 0.1 0.1
v -1.3 0.1 0.1
v -1.2 0.1 0.1
v -1.1 0.1 0.1
v -0.9 0.1 0.1
v -0.7 0.1 0.1
v 0.3 0.1 0.1
v 0.4 0.1 0.1
v 0.9 0.1 0.1
v 1.2 0.1 0.1
v 1.3 0.1 0.1
v 1.4 0.1 0.1
v -1.1 0.1 0
v -0.9 0.1 0
v -0.8 0.1 0
v -0.7 0.1 0
v -0.3 0.1 0
v 0.2 0.1 0
v 0.3 0.1 0
v 0.4 0.1 0
v 0.5 0.1 0
v 0.7 0.1 0
v 1.2 0.1 0
v 1.3 0.1 0
v -1.4 0.1 -0.1
v -1.3 0.1 -0.1
v -1.2 0.1 -0.1
v -1 0.1 -0.1
v -0.9 0.1 -0.1
v -0.8 0.1 -0.1
v -0.3 0.1 -0.1
v 0.2 0.1 -0.1
v 0.5 0.1 -0.1
v 0.7 0.1 -0.1
v 0.9 0.1 -0.1
v 1.3 0.1 -0.1
v 1.4 0.1 -0.1
v -1.1 0.1 -0.2
v -1 0.1 -0.2
v -0.9 0.1 -0.2
v 0.9 0.1 -0.2
v 1 0.1 -0.2
v 1.2 0.1 -0.2
v 1.3 0.1 -0.2
v 1.4 0.1 -0.2
v -1.4 0.1 -0.3
v -1.3 0.1 -0.3
v -1.2 0.1 -0.3
v 1 0.1 -0.3
v 1.2 0.1 -0.3
v 1.3 0.1 -0.3
v 1.4 0.1 -0.3
v -1.3 0.1 -0.4
v -1.2 0.1 -0.4
v -1.1 0.1 -0.4
v -1 0.1 -0.4
v 1 0.1 -0.4
v 1.1 0.1 -0.4
v 1.2 0.1 -0.4
v 1.3 0.1 -0.4
v -1.2 0.1 -0.5
v -1.1 0.1 -0.5
v 1.1 0.1 -0.5
v 1.2 0.1 -0.5
v -1.3 0.2 0.5
v -1.2 0.2 0.5
v -1.1 0.2 0.5
v -1 0.2 0.5
v 1 0.2 0.5
v 1.1 0.2 0.5
v 1.2 0.2 0.5
v 1.3 0.2 0.5
v -1.4 0.2 0.4
v -1.3 0.2 0.4
v -1.2 0.2 0.4
v -1.1 0.2 0.4
v -1 0.2 0.4
v 1 0.2 0.4
v 1.1 0.2 0.4
v 1.2 0.2 0.4
v 1.3 0.2 0.4
v 1.4 0.2 0.4
v -1.4 0.2 0.3
v -1.3 0.2 0.3
v -1 0.2 0.3
v -0.9 0.2 0.3
v 0.9 0.2 0.3
v 1 0.2 0.3
v 1.3 0.2 0.3
v 1.4 0.2 0.3
v -1 0.2 0.2
v -0.9 0.2 0.2
v -0.7 0.2 0.2
v 0.3 0.2 0.2
v 0.4 0.2 0.2
v 0.9 0.2 0.2
v 1 0.2 0.2
v -0.9 0.2 0.1
v -0.7 0.2 0.1
v 0.3 0.2 0.1
v 0.4 0.2 0.1
v 0.9 0.2 0.1
v -0.9 0.2 -0.1
v -0.8 0.2 -0.1
v -0.6 0.2 -0.1
v -0.4 0.2 -0.1
v -0.3 0.2 -0.1
v -0.1 0.2 -0.1
v 0.2 0.2 -0.1
v 0.4 0.2 -0.1
v 0.5 0.2 -0.1
v 0.6 0.2 -0.1
v 0.7 0.2 -0.1
v 0.8 0.2 -0.1
v 0.9 0.2 -0.1
v -1 0.2 -0.2
v -0.9 0.2 -0.2
v -0.8 0.2 -0.2
v -0.6 0.2 -0.2
v -0.4 0.2 -0.2
v -0.1 0.2 -0.2
v 0.2 0.2 -0.2
v 0.4 0.2 -0.2
v 0.6 0.2 -0.2
v 0.8 0.2 -0.2
v 0.9 0.2 -0.2
v 1 0.2 -0.2
v -1.4 0.2 -0.3
v -1.3 0.2 -0.3
v -1 0.2 -0.3
v -0.9 0.2 -0.3
v 0.9 0.2 -0.3
v 1 0.2 -0.3
v 1.3 0.2 -0.3
v 1.4 0.2 -0.3
v -1.4 0.2 -0.4
v -1.3 0.2 -0.4
v -1.2 0.2 -0.4
v -1.1 0.2 -0.4
v -1 0.2 -0.4
v 1 0.2 -0.4
v 1.1 0.2 -0.4
v 1.2 0.2 -0.4
v 1.3 0.2 -0.4
v 1.4 0.2 -0.4
v -1.3 0.2 -0.5
v -1.2 0.2 -0.5
v -1.1 0.2 -0.5
v -1 0.2 -0.5
v 1 0.2 -0.5
v 1.1 0.2 -0.5
v 1.2 0.2 -0.5
v 1.3 0.2 -0.5
v -1.3 0.5 0.5
v -1.2 0.5 0.5
v -1.1 0.5 0.5
v -1 0.5 0.5
v 1 0.5 0.5
v 1.1 0.5 0.5
v 1.2 0.5 0.5
v 1.3 0.5 0.5
v -1.4 0.5 0.4
v -1.3 0.5 0.4
v -1.2 0.5 0.4
v -1.1 0.5 0.4
v -1 0.5 0.4
v 1 0.5 0.4
v 1.1 0.5 0.4
v 1.2 0.5 0.4
v 1.3 0.5 0.4
v 1.4 0.5 0.4
v -1.4 0.5 0.3
v -1.3 0.5 0.3
v -1 0.5 0.3
v -0.9 0.5 0.3
v 0.9 0.5 0.3
v 1 0.5 0.3
v 1.3 0.5 0.3
v 1.4 0.5 0.3
v -1 0.5 0.2
v -0.9 0.5 0.2
v -0.5 0.5 0.2
v -0.1 0.5 0.2
v 0.1 0.5 0.2
v 0.3 0.5 0.2
v 0.5 0.5 0.2
v 0.9 0.5 0.2
v 1 0.5 0.2
v -0.9 0.5 0.1
v -0.5 0.5 0.1
v -0.1 0.5 0.1
v 0.1 0.5 0.1
v 0.2 0.5 0.1
v 0.3 0.5 0.1
v 0.4 0.5 0.1
v 0.5 0.5 0.1
v 0.6 0.5 0.1
v 0.9 0.5 0.1
v -0.9 0.5 -0.1
v -0.6 0.5 -0.1
v -0.1 0.5 -0.1
v 0 0.5 -0.1
v 0.1 0.5 -0.1
v 0.4 0.5 -0.1
v 0.5 0.5 -0.1
v 0.7 0.5 -0.1
v 0.9 0.5 -0.1
v -1 0.5 -0.2
v -0.9 0.5 -0.2
v -0.1 0.5 -0.2
v 0.1 0.5 -0.2
v 0.7 0.5 -0.2
v 0.9 0.5 -0.2
v -1.4 0.5 -0.3
v -1.3 0.5 -0.3
v -1 0.5 -0.3
v -0.9 0.5 -0.3
v 1.3 0.5 -0.3
v 1.4 0.5 -0.3
v -1.4 0.5 -0.4
v -1.3 0.5 -0.4
v -1.2 0.5 -0.4
v -1.1 0.5 -0.4
v -1 0.5 -0.4
v 1 0.5 -0.4
v 1.1 0.5 -0.4
v 1.2 0.5 -0.4
v 1.3 0.5 -0.4
v 1.4 0.5 -0.4
v -1.3 0.5 -0.5
v -1.2 0.5 -0.5
v -1.1 0.5 -0.5
v -1 0.5 -0.5
v 1 0.5 -0.5
v 1.1 0.5 -0.5
v 1.2 0.5 -0.5
v 1.3 0.5 -0.5
v -1.2 0.6 0.5
v -1.1 0.6 0.5
v 1.1 0.6 0.5
v 1.2 0.6 0.5
v -1.3 0.6 0.4
v -1.2 0.6 0.4
v -1.1 0.6 0.4
v -1 0.6 0.4
v 1 0.6 0.4
v 1.1 0.6 0.4
v 1.2 0.6 0.4
v 1.3 0.6 0.4
v -1.4 0.6 0.3
v -1.3 0.6 0.3
v 1.3 0.6 0.3
v 1.4 0.6 0.3
v -1.4 0.6 0.2
v -1.2 0.6 0.2
v -1 0.6 0.2
v -0.9 0.6 0.2
v 0.9 0.6 0.2
v 1 0.6 0.2
v -1.4 0.6 0.1
v -1.3 0.6 0.1
v -1.2 0.6 0.1
v -1 0.6 0.1
v -0.9 0.6 0.1
v -0.1 0.6 0.1
v 0.1 0.6 0.1
v 0.2 0.6 0.1
v 0.4 0.6 0.1
v 0.6 0.6 0.1
v 0.9 0.6 0.1
v 1 0.6 0.1
v 1.3 0.6 0.1
v 1.4 0.6 0.1
v -0.6 0.6 0
v -0.1 0.6 0
v 0 0.6 0
v 0.1 0.6 0
v 0.2 0.6 0
v 0.4 0.6 0
v 0.5 0.6 0
v 0.6 0.6 0
v 1 0.6 0
v 1.2 0.6 0
v -1.4 0.6 -0.1
v -1.3 0.6 -0.1
v -1.1 0.6 -0.1
v -0.9 0.6 -0.1
v -0.6 0.6 -0.1
v 0 0.6 -0.1
v 0.4 0.6 -0.1
v 0.5 0.6 -0.1
v 0.9 0.6 -0.1
v 1 0.6 -0.1
v 1.2 0.6 -0.1
v 1.3 0.6 -0.1
v 1.4 0.6 -0.1
v -1.2 0.6 -0.2
v -1.1 0.6 -0.2
v -1 0.6 -0.2
v -0.9 0.6 -0.2
v 1.2 0.6 -0.2
v 1.3 0.6 -0.2
v -1.4 0.6 -0.3
v -1.3 0.6 -0.3
v -1.1 0.6 -0.3
v -1 0.6 -0.3
v 0.9 0.6 -0.3
v 1 0.6 -0.3
v 1.3 0.6 -0.3
v 1.4 0.6 -0.3
v -1.3 0.6 -0.4
v -1.2 0.6 -0.4
v -1.1 0.6 -0.4
v -1 0.6 -0.4
v 1 0.6 -0.4
v 1.1 0.6 -0.4
v 1.2 0.6 -0.4
v 1.3 0.6 -0.4
v -1.2 0.6 -0.5
v -1.1 0.6 -0.5
v 1.1 0.6 -0.5
v 1.2 0.6 -0.5

# faces
f 6/1/1 2/1/1 1/1/1
f 7/1/1 4/1/1 3/1/1
f 8/1/1 4/1/1 7/1/1
f 10/1/1 6/1/1 5/1/1
f 10/1/1 2/1/1 6/1/1
f 11/1/1 2/1/1 10/1/1
f 12/1/1 7/1/1 3/1/1
f 13/2/1 9/2/1 8/2/1
f 13/1/1 7/1/1 12/1/1
f 13/2/1 8/2/1 7/2/1
f 14/2/1 9/2/1 13/2/1
f 15/2/1 13/2/1 12/2/1
f 16/1/1 14/1/1 13/1/1
f 16/2/1 13/2/1 15/2/1
f 17/1/1 10/1/1 5/1/1
f 18/1/1 10/1/1 17/1/1
f 19/1/1 14/1/1 16/1/1
f 19/1/1 16/1/1 15/1/1
f 20/1/1 14/1/1 19/1/1
f 21/1/1 10/1/1 18/1/1
f 22/2/1 11/2/1 10/2/1
f 22/1/1 10/1/1 21/1/1
f 23/2/1 11/2/1 22/2/1
f 24/1/1 19/1/1 15/1/1
f 25/1/1 19/1/1 24/1/1
f 33/1/1 27/1/1 26/1/1
f 34/1/1 27/1/1 33/1/1
f 35/2/1 31/2/1 30/2/1
f 36/2/1 31/2/1 35/2/1
f 38/2/1 33/2/1 32/2/1
f 39/2/1 33/2/1 38/2/1
f 40/1/1 29/1/1 28/1/1
f 41/1/1 29/1/1 40/1/1
f 42/2/1 37/2/1 36/2/1
f 43/2/1 37/2/1 42/2/1
f 44/2/1 41/2/1 40/2/1
f 45/2/1 41/2/1 44/2/1
f 46/1/1 39/1/1 38/1/1
f 47/1/1 39/1/1 46/1/1
f 50/1/1 43/1/1 42/1/1
f 51/1/1 43/1/1 50/1/1
f 52/1/1 48/1/1 47/1/1
f 53/1/1 48/1/1 52/1/1
f 54/1/1 45/1/1 44/1/1
f 55/1/1 45/1/1 54/1/1
f 56/1/1 50/1/1 49/1/1
f 57/1/1 50/1/1 56/1/1
f 62/1/1 59/1/1 58/1/1
f 63/1/1 59/1/1 62/1/1
f 64/1/1 61/1/1 60/1/1
f 65/1/1 61/1/1 64/1/1
f 70/1/1 67/1/1 66/1/1
f 71/1/1 67/1/1 70/1/1
f 72/1/1 69/1/1 68/1/1
f 73/1/1 69/1/1 72/1/1
f 79/1/1 75/1/1 74/1/1
f 80/1/1 75/1/1 79/1/1
f 81/1/1 77/1/1 76/1/1
f 82/1/1 77/1/1 81/1/1
f 84/2/1 83/2/1 82/2/1
f 85/2/1 83/2/1 84/2/1
f 86/1/1 79/1/1 78/1/1
f 87/1/1 79/1/1 86/1/1
f 88/1/1 85/1/1 84/1/1
f 89/2/1 87/2/1 86/2/1
f 90/2/1 87/2/1 89/2/1
f 93/1/1 85/1/1 88/1/1
f 94/1/1 91/1/1 90/1/1
f 95/1/1 91/1/1 94/1/1
f 96/1/1 93/1/1 92/1/1
f 97/1/1 85/1/1 93/1/1
f 97/1/1 93/1/1 96/1/1
f 104/1/1 99/1/1 98/1/1
f 105/1/1 99/1/1 104/1/1
f 106/1/1 99/1/1 105/1/1
f 107/2/1 101/2/1 100/2/1
f 108/1/1 102/1/1 101/1/1
f 108/2/1 101/2/1 107/2/1
f 109/1/1 102/1/1 108/1/1
f 111/1/1 110/1/1 109/1/1
f 111/1/1 109/1/1 108/1/1
f 112/1/1 110/1/1 111/1/1
f 113/1/1 110/1/1 112/1/1
f 114/1/1 105/1/1 104/1/1
f 114/1/1 104/1/1 103/1/1
f 115/2/1 113/2/1 112/2/1
f 115/1/1 112/1/1 111/1/1
f 116/2/1 113/2/1 115/2/1
f 117/1/1 114/1/1 103/1/1
f 118/1/1 114/1/1 117/1/1
f 119/1/1 114/1/1 118/1/1
f 121/1/1 115/1/1 111/1/1
f 121/1/1 116/1/1 115/1/1
f 122/1/1 116/1/1 121/1/1
f 123/1/1 120/1/1 119/1/1
f 123/1/1 119/1/1 118/1/1
f 124/1/1 120/1/1 123/1/1
f 125/1/1 121/1/1 111/1/1
f 126/1/1 121/1/1 125/1/1
f 131/2/1 128/2/1 127/2/1
f 132/2/1 128/2/1 131/2/1
f 133/1/1 130/1/1 129/1/1
f 134/1/1 130/1/1 133/1/1
f 139/1/1 136/1/1 135/1/1
f 140/1/1 136/1/1 139/1/1
f 141/1/1 138/1/1 137/1/1
f 142/1/1 138/1/1 141/1/1
f 143/1/2 144/1/2 147/1/2
f 147/1/2 144/1/2 148/1/2
f 145/1/2 146/1/2 149/1/2
f 149/1/2 146/1/2 150/1/2
f 151/1/2 152/1/2 155/1/2
f 155/1/2 152/1/2 156/1/2
f 153/1/2 154/1/2 157/1/2
f 157/1/2 154/1/2 158/1/2
f 159/1/2 160/1/2 164/1/2
f 164/1/2 160/1/2 165/1/2
f 165/1/2 160/1/2 166/1/2
f 161/1/2 162/1/2 167/1/2
f 167/1/2 162/1/2 168/1/2
f 168/1/2 162/1/2 169/1/2
f 163/1/2 164/1/2 171/1/2
f 164/1/2 165/1/2 171/1/2
f 171/1/2 165/1/2 172/1/2
f 172/1/2 165/1/2 173/1/2
f 169/1/2 170/1/2 174/1/2
f 168/1/2 169/1/2 174/1/2
f 171/2/2 172/2/2 175/2/2
f 172/1/2 173/1/2 176/1/2
f 175/2/2 172/2/2 176/2/2
f 176/1/2 173/1/2 177/1/2
f 174/1/2 170/1/2 180/1/2
f 180/1/2 170/1/2 181/1/2
f 181/1/2 170/1/2 182/1/2
f 177/2/2 178/2/2 183/2/2
f 176/2/2 177/2/2 183/2/2
f 183/2/2 178/2/2 184/2/2
f 179/1/2 180/1/2 185/1/2
f 180/2/2 181/2/2 186/2/2
f 185/1/2 180/1/2 186/1/2
f 186/2/2 181/2/2 187/2/2
f 188/1/2 189/1/2 193/1/2
f 193/1/2 189/1/2 194/1/2
f 190/1/2 191/1/2 195/1/2
f 195/1/2 191/1/2 196/1/2
f 192/2/2 193/2/2 198/2/2
f 196/1/2 197/1/2 199/1/2
f 192/2/2 198/2/2 200/2/2
f 200/2/2 198/2/2 201/2/2
f 199/1/2 197/1/2 202/1/2
f 202/1/2 197/1/2 203/1/2
f 200/1/2 201/1/2 204/1/2
f 204/1/2 201/1/2 205/1/2
f 202/2/2 203/2/2 208/2/2
f 208/2/2 203/2/2 209/2/2
f 205/1/2 206/1/2 210/1/2
f 210/1/2 206/1/2 211/1/2
f 207/1/2 208/1/2 212/1/2
f 212/1/2 208/1/2 213/1/2
f 214/2/2 215/2/2 218/2/2
f 218/2/2 215/2/2 219/2/2
f 216/1/2 217/1/2 220/1/2
f 220/1/2 217/1/2 221/1/2
f 222/1/2 223/1/2 226/1/2
f 226/1/2 223/1/2 227/1/2
f 224/1/2 225/1/2 228/1/2
f 228/1/2 225/1/2 229/1/2
f 230/1/2 231/1/2 238/1/2
f 238/1/2 231/1/2 239/1/2
f 232/2/2 233/2/2 240/2/2
f 233/1/2 234/1/2 240/1/2
f 240/1/2 234/1/2 241/1/2
f 235/2/2 236/2/2 242/2/2
f 242/2/2 236/2/2 243/2/2
f 237/2/2 238/2/2 245/2/2
f 240/2/2 241/2/2 246/2/2
f 232/2/2 240/2/2 246/2/2
f 246/2/2 241/2/2 247/2/2
f 247/2/2 241/2/2 248/2/2
f 237/2/2 245/2/2 249/2/2
f 249/2/2 245/2/2 250/2/2
f 246/1/2 247/1/2 251/1/2
f 247/2/2 248/2/2 252/2/2
f 251/1/2 247/1/2 252/1/2
f 252/2/2 248/2/2 253/2/2
f 243/1/2 244/1/2 254/1/2
f 254/1/2 244/1/2 255/1/2
f 249/1/2 250/1/2 256/1/2
f 256/1/2 250/1/2 257/1/2
f 252/1/2 253/1/2 259/1/2
f 251/1/2 252/1/2 259/1/2
f 259/1/2 253/1/2 260/1/2
f 254/2/2 255/2/2 262/2/2
f 262/2/2 255/2/2 263/2/2
f 257/1/2 258/1/2 264/1/2
f 264/1/2 258/1/2 265/1/2
f 259/1/2 260/1/2 266/1/2
f 266/1/2 260/1/2 267/1/2
f 261/1/2 262/1/2 268/1/2
f 268/1/2 262/1/2 269/1/2
f 270/1/2 271/1/2 276/1/2
f 273/2/2 274/2/2 277/2/2
f 272/1/2 273/1/2 277/1/2
f 277/2/2 274/2/2 278/2/2
f 275/1/2 276/1/2 280/1/2
f 276/1/2 271/1/2 281/1/2
f 280/1/2 276/1/2 281/1/2
f 278/1/2 279/1/2 282/1/2
f 272/1/2 277/1/2 282/1/2
f 277/1/2 278/1/2 282/1/2
f 282/1/2 279/1/2 283/1/2
f 281/1/2 271/1/2 284/1/2
f 280/2/2 281/2/2 284/2/2
f 284/1/2 271/1/2 285/1/2
f 283/1/2 279/1/2 286/1/2
f 282/2/2 283/2/2 286/2/2
f 286/1/2 279/1/2 287/1/2
f 284/2/2 285/2/2 288/2/2
f 280/2/2 284/2/2 288/2/2
f 288/2/2 285/2/2 289/2/2
f 289/2/2 285/2/2 290/2/2
f 286/2/2 287/2/2 291/2/2
f 282/2/2 286/2/2 291/2/2
f 291/2/2 287/2/2 292/2/2
f 292/2/2 287/2/2 293/2/2
f 289/1/2 290/1/2 294/1/2
f 294/1/2 290/1/2 295/1/2
f 291/1/2 292/1/2 296/1/2
f 296/1/2 292/1/2 297/1/2
f 302/2/3 299/2/3 298/2/3
f 303/1/3 300/1/3 299/1/3
f 303/2/3 299/2/3 302/2/3
f 304/1/3 300/1/3 303/1/3
f 306/1/3 302/1/3 301/1/3
f 307/2/3 303/2/3 302/2/3
f 307/1/3 302/1/3 306/1/3
f 307/2/3 304/2/3 303/2/3
f 308/2/3 304/2/3 307/2/3
f 309/1/3 305/1/3 304/1/3
f 309/2/3 304/2/3 308/2/3
f 310/1/3 305/1/3 309/1/3
f 311/1/3 308/1/3 307/1/3
f 312/2/3 309/2/3 308/2/3
f 312/1/3 308/1/3 311/1/3
f 313/2/3 309/2/3 312/2/3
f 317/1/3 315/1/3 314/1/3
f 318/1/3 315/1/3 317/1/3
f 320/2/3 317/2/3 316/2/3
f 321/1/3 318/1/3 317/1/3
f 321/2/3 317/2/3 320/2/3
f 321/1/3 319/1/3 318/1/3
f 322/1/3 319/1/3 321/1/3
f 323/1/3 319/1/3 322/1/3
f 324/1/3 319/1/3 323/1/3
f 325/2/3 322/2/3 321/2/3
f 326/1/3 323/1/3 322/1/3
f 326/2/3 322/2/3 325/2/3
f 327/1/3 323/1/3 326/1/3
f 331/1/3 329/1/3 328/1/3
f 332/1/3 329/1/3 331/1/3
f 333/1/3 329/1/3 332/1/3
f 335/1/3 331/1/3 330/1/3
f 336/1/3 331/1/3 335/1/3
f 337/1/3 334/1/3 333/1/3
f 338/1/3 334/1/3 337/1/3
f 343/1/3 340/1/3 339/1/3
f 344/1/3 340/1/3 343/1/3
f 345/2/3 342/2/3 341/2/3
f 346/2/3 342/2/3 345/2/3
f 351/1/3 348/1/3 347/1/3
f 352/1/3 348/1/3 351/1/3
f 353/1/3 350/1/3 349/1/3
f 354/1/3 350/1/3 353/1/3
f 359/1/3 356/1/3 355/1/3
f 360/1/3 356/1/3 359/1/3
f 363/1/3 358/1/3 357/1/3
f 364/1/3 358/1/3 363/1/3
f 365/1/3 361/1/3 360/1/3
f 366/2/3 362/2/3 361/2/3
f 366/1/3 361/1/3 365/1/3
f 366/2/3 363/2/3 362/2/3
f 367/2/3 363/2/3 366/2/3
f 372/1/3 369/1/3 368/1/3
f 373/1/3 369/1/3 372/1/3
f 374/1/3 371/1/3 370/1/3
f 375/1/3 371/1/3 374/1/3
f 379/2/3 377/2/3 376/2/3
f 380/1/3 378/1/3 377/1/3
f 380/2/3 377/2/3 379/2/3
f 381/1/3 378/1/3 380/1/3
f 385/1/3 383/1/3 382/1/3
f 386/2/3 384/2/3 383/2/3
f 386/1/3 383/1/3 385/1/3
f 387/2/3 384/2/3 386/2/3
f 392/1/3 389/1/3 388/1/3
f 393/1/3 389/1/3 392/1/3
f 394/1/3 391/1/3 390/1/3
f 395/1/3 391/1/3 394/1/3
f 400/1/3 397/1/3 396/1/3
f 401/1/3 397/1/3 400/1/3
f 404/1/3 399/1/3 398/1/3
f 405/1/3 399/1/3 404/1/3
f 406/2/3 402/2/3 401/2/3
f 407/1/3 403/1/3 402/1/3
f 407/2/3 402/2/3 406/2/3
f 407/1/3 404/1/3 403/1/3
f 408/1/3 404/1/3 407/1/3
f 409/1/3 407/1/3 406/1/3
f 409/2/3 408/2/3 407/2/3
f 410/1/3 404/1/3 408/1/3
f 410/2/3 408/2/3 409/2/3
f 411/1/3 404/1/3 410/1/3
f 412/1/3 410/1/3 409/1/3
f 412/2/3 411/2/3 410/2/3
f 413/2/3 411/2/3 412/2/3
f 414/1/3 412/1/3 409/1/3
f 414/1/3 413/1/3 412/1/3
f 415/1/3 413/1/3 414/1/3
f 416/1/3 409/1/3 406/1/3
f 416/1/3 414/1/3 409/1/3
f 417/1/3 414/1/3 416/1/3
f 418/2/3 415/2/3 414/2/3
f 418/1/3 414/1/3 417/1/3
f 419/2/3 415/2/3 418/2/3
f 420/2/3 417/2/3 416/2/3
f 421/1/3 418/1/3 417/1/3
f 421/2/3 417/2/3 420/2/3
f 421/1/3 419/1/3 418/1/3
f 422/1/3 419/1/3 421/1/3
f 423/2/3 422/2/3 421/2/3
f 423/1/3 419/1/3 422/1/3
f 424/1/3 419/1/3 423/1/3
f 425/1/3 421/1/3 420/1/3
f 425/2/3 423/2/3 421/2/3
f 425/2/3 424/2/3 423/2/3
f 426/2/3 424/2/3 425/2/3
f 428/1/3 425/1/3 420/1/3
f 428/1/3 426/1/3 425/1/3
f 429/2/3 424/2/3 426/2/3
f 429/1/3 426/1/3 428/1/3
f 430/2/3 424/2/3 429/2/3
f 432/1/3 428/1/3 427/1/3
f 433/1/3 428/1/3 432/1/3
f 434/1/3 431/1/3 430/1/3
f 435/1/3 431/1/3 434/1/3
f 440/2/3 437/2/3 436/2/3
f 441/2/3 437/2/3 440/2/3
f 442/1/3 439/1/3 438/1/3
f 443/1/3 439/1/3 442/1/3
f 444/1/3 439/1/3 443/1/3
f 445/2/3 444/2/3 443/2/3
f 446/2/3 444/2/3 445/2/3
f 447/1/3 446/1/3 445/1/3
f 448/1/3 446/1/3 447/1/3
f 449/1/3 441/1/3 440/1/3
f 450/1/3 441/1/3 449/1/3
f 451/2/3 448/2/3 447/2/3
f 452/2/3 450/2/3 449/2/3
f 453/2/3 450/2/3 452/2/3
f 454/2/3 448/2/3 451/2/3
f 455/2/3 448/2/3 454/2/3
f 456/1/3 455/1/3 454/1/3
f 457/1/3 455/1/3 456/1/3
f 458/1/3 455/1/3 457/1/3
f 459/1/3 453/1/3 452/1/3
f 460/1/3 453/1/3 459/1/3
f 461/2/3 458/2/3 457/2/3
f 462/2/3 458/2/3 461/2/3
f 467/1/3 464/1/3 463/1/3
f 468/2/3 465/2/3 464/2/3
f 468/1/3 464/1/3 467/1/3
f 469/1/3 466/1/3 465/1/3
f 469/2/3 465/2/3 468/2/3
f 470/1/3 466/1/3 469/1/3
f 477/1/3 472/1/3 471/1/3
f 477/1/3 473/1/3 472/1/3
f 478/2/3 475/2/3 474/2/3
f 478/1/3 473/1/3 477/1/3
f 478/2/3 474/2/3 473/2/3
f 479/1/3 476/1/3 475/1/3
f 479/2/3 475/2/3 478/2/3
f 480/1/3 476/1/3 479/1/3
f 481/1/4 482/1/4 484/1/4
f 482/2/4 483/2/4 485/2/4
f 484/1/4 482/1/4 485/1/4
f 485/2/4 483/2/4 486/2/4
f 486/2/4 483/2/4 487/2/4
f 488/1/4 489/1/4 493/1/4
f 489/1/4 490/1/4 493/1/4
f 490/2/4 491/2/4 494/2/4
f 493/1/4 490/1/4 494/1/4
f 491/1/4 492/1/4 495/1/4
f 494/2/4 491/2/4 495/2/4
f 495/1/4 492/1/4 496/1/4
f 497/2/4 498/2/4 501/2/4
f 501/2/4 498/2/4 502/2/4
f 501/1/4 502/1/4 503/1/4
f 499/1/4 500/1/4 504/1/4
f 504/1/4 500/1/4 505/1/4
f 501/1/4 503/1/4 506/1/4
f 501/1/4 506/1/4 507/1/4
f 507/1/4 506/1/4 508/1/4
f 507/2/4 508/2/4 509/2/4
f 504/2/4 505/2/4 510/2/4
f 510/2/4 505/2/4 511/2/4
f 511/2/4 505/2/4 512/2/4
f 511/1/4 512/1/4 513/1/4
f 507/2/4 509/2/4 514/2/4
f 514/2/4 509/2/4 515/2/4
f 514/1/4 515/1/4 516/1/4
f 513/1/4 512/1/4 517/1/4
f 517/1/4 512/1/4 518/1/4
f 514/1/4 516/1/4 519/1/4
f 519/1/4 516/1/4 520/1/4
f 517/2/4 518/2/4 521/2/4
f 521/2/4 518/2/4 522/2/4
f 519/2/4 520/2/4 523/2/4
f 519/2/4 523/2/4 524/2/4
f 524/2/4 523/2/4 525/2/4
f 521/1/4 522/1/4 526/1/4
f 524/1/4 525/1/4 527/1/4
f 524/1/4 527/1/4 528/1/4
f 528/1/4 527/1/4 529/1/4
f 526/1/4 522/1/4 530/1/4
f 530/1/4 522/1/4 531/1/4
f 532/1/4 533/1/4 536/1/4
f 536/1/4 533/1/4 537/1/4
f 534/1/4 535/1/4 540/1/4
f 540/1/4 535/1/4 541/1/4
f 537/1/4 538/1/4 542/1/4
f 538/2/4 539/2/4 543/2/4
f 542/1/4 538/1/4 543/1/4
f 539/1/4 540/1/4 544/1/4
f 543/2/4 539/2/4 544/2/4
f 542/2/4 543/2/4 545/2/4
f 543/1/4 544/1/4 545/1/4
f 544/1/4 540/1/4 546/1/4
f 545/1/4 544/1/4 546/1/4
f 542/2/4 545/2/4 547/2/4
f 545/2/4 546/2/4 547/2/4
f 547/2/4 546/2/4 548/2/4
f 547/1/4 548/1/4 549/1/4
f 548/2/4 546/2/4 549/2/4
f 546/1/4 540/1/4 550/1/4
f 549/2/4 546/2/4 550/2/4
f 547/1/4 549/1/4 551/1/4
f 549/1/4 550/1/4 551/1/4
f 551/1/4 550/1/4 552/1/4
f 551/2/4 552/2/4 553/2/4
f 552/1/4 550/1/4 554/1/4
f 553/2/4 552/2/4 554/2/4
f 550/1/4 540/1/4 555/1/4
f 554/1/4 550/1/4 555/1/4
f 555/1/4 540/1/4 556/1/4
f 553/1/4 554/1/4 557/1/4
f 554/1/4 555/1/4 557/1/4
f 555/2/4 556/2/4 557/2/4
f 557/2/4 556/2/4 558/2/4
f 553/1/4 557/1/4 559/1/4
f 557/1/4 558/1/4 559/1/4
f 559/1/4 558/1/4 560/1/4
f 559/2/4 560/2/4 561/2/4
f 561/2/4 560/2/4 562/2/4
f 561/1/4 562/1/4 563/1/4
f 562/2/4 560/2/4 564/2/4
f 563/1/4 562/1/4 564/1/4
f 560/1/4 558/1/4 565/1/4
f 564/2/4 560/2/4 565/2/4
f 563/2/4 564/2/4 565/2/4
f 565/1/4 558/1/4 566/1/4
f 563/2/4 565/2/4 567/2/4
f 565/2/4 566/2/4 567/2/4
f 567/2/4 566/2/4 568/2/4
f 567/1/4 568/1/4 570/1/4
f 570/1/4 568/1/4 571/1/4
f 568/2/4 566/2/4 572/2/4
f 571/1/4 568/1/4 572/1/4
f 572/2/4 566/2/4 573/2/4
f 569/1/4 570/1/4 574/1/4
f 574/1/4 570/1/4 575/1/4
f 576/1/4 577/1/4 580/1/4
f 580/1/4 577/1/4 581/1/4
f 578/1/4 579/1/4 582/1/4
f 582/1/4 579/1/4 583/1/4
f 584/1/4 585/1/4 587/1/4
f 585/2/4 586/2/4 588/2/4
f 587/1/4 585/1/4 588/1/4
f 588/2/4 586/2/4 589/2/4
f 590/2/4 591/2/4 593/2/4
f 591/1/4 592/1/4 594/1/4
f 593/2/4 591/2/4 594/2/4
f 594/1/4 592/1/4 595/1/4
f 596/2/4 597/2/4 600/2/4
f 600/2/4 597/2/4 601/2/4
f 598/1/4 599/1/4 602/1/4
f 602/1/4 599/1/4 603/1/4
f 604/2/4 605/2/4 608/2/4
f 605/1/4 606/1/4 609/1/4
f 608/2/4 605/2/4 609/2/4
f 609/1/4 606/1/4 610/1/4
f 607/2/4 608/2/4 612/2/4
f 612/2/4 608/2/4 613/2/4
f 610/1/4 611/1/4 614/1/4
f 614/1/4 611/1/4 615/1/4
f 616/1/4 617/1/4 620/1/4
f 620/1/4 617/1/4 621/1/4
f 618/2/4 619/2/4 622/2/4
f 622/2/4 619/2/4 623/2/4
f 624/1/4 625/1/4 628/1/4
f 628/1/4 625/1/4 629/1/4
f 626/1/4 627/1/4 630/1/4
f 630/1/4 627/1/4 631/1/4
f 632/2/4 633/2/4 636/2/4
f 636/2/4 633/2/4 637/2/4
f 634/1/4 635/1/4 639/1/4
f 639/1/4 635/1/4 640/1/4
f 637/1/4 638/1/4 641/1/4
f 638/2/4 639/2/4 642/2/4
f 641/1/4 638/1/4 642/1/4
f 642/2/4 639/2/4 643/2/4
f 644/2/4 645/2/4 648/2/4
f 645/1/4 646/1/4 649/1/4
f 648/2/4 645/2/4 649/2/4
f 649/1/4 646/1/4 650/1/4
f 650/1/4 646/1/4 651/1/4
f 647/1/4 648/1/4 653/1/4
f 648/1/4 649/1/4 653/1/4
f 653/1/4 649/1/4 654/1/4
f 649/2/4 650/2/4 655/2/4
f 654/1/4 649/1/4 655/1/4
f 651/1/4 652/1/4 656/1/4
f 655/2/4 650/2/4 656/2/4
f 650/1/4 651/1/4 656/1/4
f 656/1/4 652/1/4 657/1/4
f 657/1/4 652/1/4 658/1/4
f 654/1/4 655/1/4 659/1/4
f 656/1/4 657/1/4 659/1/4
f 655/1/4 656/1/4 659/1/4
f 659/1/4 657/1/4 660/1/4
f 661/1/4 662/1/4 666/1/4
f 663/1/4 664/1/4 667/1/4
f 665/1/4 666/1/4 669/1/4
f 666/1/4 662/1/4 670/1/4
f 669/1/4 666/1/4 670/1/4
f 662/2/4 663/2/4 671/2/4
f 670/1/4 662/1/4 671/1/4
f 663/1/4 667/1/4 672/1/4
f 671/2/4 663/2/4 672/2/4
f 667/1/4 668/1/4 672/1/4
f 672/1/4 668/1/4 673/1/4
f 673/1/4 668/1/4 674/1/4
f 670/1/4 671/1/4 675/1/4
f 671/1/4 672/1/4 675/1/4
f 672/2/4 673/2/4 676/2/4
f 675/1/4 672/1/4 676/1/4
f 676/2/4 673/2/4 677/2/4
f 683/1/5 679/1/5 678/1/5
f 684/1/5 679/1/5 683/1/5
f 687/2/5 681/2/5 680/2/5
f 688/2/5 681/2/5 687/2/5
f 691/1/5 685/1/5 684/1/5
f 691/1/5 683/1/5 682/1/5
f 691/1/5 684/1/5 683/1/5
f 692/1/5 689/1/5 688/1/5
f 692/1/5 688/1/5 687/1/5
f 692/1/5 687/1/5 686/1/5
f 694/1/5 691/1/5 690/1/5
f 694/1/5 685/1/5 691/1/5
f 695/1/5 685/1/5 694/1/5
f 696/1/5 685/1/5 695/1/5
f 699/1/5 693/1/5 692/1/5
f 699/1/5 692/1/5 686/1/5
f 700/1/5 694/1/5 690/1/5
f 701/1/5 694/1/5 700/1/5
f 702/2/5 695/2/5 694/2/5
f 702/1/5 694/1/5 701/1/5
f 703/1/5 697/1/5 696/1/5
f 703/2/5 695/2/5 702/2/5
f 703/1/5 696/1/5 695/1/5
f 704/1/5 697/1/5 703/1/5
f 708/1/5 699/1/5 698/1/5
f 709/1/5 693/1/5 699/1/5
f 709/1/5 699/1/5 708/1/5
f 710/1/5 693/1/5 709/1/5
f 711/1/5 693/1/5 710/1/5
f 712/1/5 702/1/5 701/1/5
f 712/1/5 703/1/5 702/1/5
f 712/2/5 704/2/5 703/2/5
f 712/2/5 705/2/5 704/2/5
f 713/2/5 705/2/5 712/2/5
f 714/2/5 705/2/5 713/2/5
f 715/1/5 706/1/5 705/1/5
f 715/2/5 705/2/5 714/2/5
f 716/1/5 706/1/5 715/1/5
f 717/1/5 706/1/5 716/1/5
f 718/2/5 707/2/5 706/2/5
f 718/1/5 706/1/5 717/1/5
f 719/1/5 708/1/5 707/1/5
f 719/2/5 707/2/5 718/2/5
f 719/1/5 709/1/5 708/1/5
f 720/1/5 709/1/5 719/1/5
f 721/1/5 709/1/5 720/1/5
f 722/2/5 710/2/5 709/2/5
f 722/1/5 709/1/5 721/1/5
f 723/2/5 710/2/5 722/2/5
f 725/1/5 712/1/5 701/1/5
f 725/1/5 713/1/5 712/1/5
f 726/1/5 713/1/5 725/1/5
f 727/1/5 713/1/5 726/1/5
f 728/2/5 714/2/5 713/2/5
f 728/1/5 713/1/5 727/1/5
f 729/1/5 716/1/5 715/1/5
f 729/2/5 714/2/5 728/2/5
f 729/1/5 715/1/5 714/1/5
f 730/2/5 717/2/5 716/2/5
f 730/1/5 716/1/5 729/1/5
f 731/1/5 718/1/5 717/1/5
f 731/2/5 717/2/5 730/2/5
f 731/1/5 719/1/5 718/1/5
f 731/1/5 720/1/5 719/1/5
f 732/2/5 721/2/5 720/2/5
f 732/1/5 720/1/5 731/1/5
f 733/1/5 723/1/5 722/1/5
f 733/2/5 721/2/5 732/2/5
f 733/1/5 722/1/5 721/1/5
f 734/1/5 723/1/5 733/1/5
f 735/1/5 723/1/5 734/1/5
f 737/2/5 727/2/5 726/2/5
f 738/1/5 728/1/5 727/1/5
f 738/2/5 727/2/5 737/2/5
f 739/1/5 728/1/5 738/1/5
f 740/1/5 736/1/5 735/1/5
f 740/1/5 735/1/5 734/1/5
f 741/1/5 736/1/5 740/1/5
f 742/1/5 736/1/5 741/1/5
f 743/1/5 736/1/5 742/1/5
f 744/1/5 736/1/5 743/1/5
f 745/1/5 725/1/5 724/1/5
f 745/1/5 726/1/5 725/1/5
f 746/1/5 726/1/5 745/1/5
f 747/2/5 737/2/5 726/2/5
f 747/1/5 726/1/5 746/1/5
f 748/2/5 742/2/5 741/2/5
f 749/1/5 743/1/5 742/1/5
f 749/2/5 742/2/5 748/2/5
f 750/2/5 744/2/5 743/2/5
f 750/1/5 743/1/5 749/1/5
f 751/2/5 744/2/5 750/2/5
f 752/2/5 747/2/5 746/2/5
f 753/2/5 737/2/5 747/2/5
f 753/2/5 747/2/5 752/2/5
f 754/1/5 738/1/5 737/1/5
f 754/2/5 737/2/5 753/2/5
f 755/1/5 738/1/5 754/1/5
f 756/1/5 749/1/5 748/1/5
f 757/1/5 749/1/5 756/1/5
f 758/2/5 750/2/5 749/2/5
f 758/1/5 749/1/5 757/1/5
f 759/2/5 750/2/5 758/2/5
f 760/1/5 754/1/5 753/1/5
f 761/1/5 754/1/5 760/1/5
f 762/1/5 758/1/5 757/1/5
f 763/1/5 758/1/5 762/1/5
f 773/2/5 765/2/5 764/2/5
f 774/2/5 765/2/5 773/2/5
f 775/1/5 767/1/5 766/1/5
f 776/1/5 767/1/5 775/1/5
f 777/1/5 769/1/5 768/1/5
f 778/1/5 769/1/5 777/1/5
f 779/2/5 771/2/5 770/2/5
f 780/2/5 771/2/5 779/2/5
f 782/1/5 773/1/5 772/1/5
f 783/1/5 773/1/5 782/1/5
f 788/1/5 781/1/5 780/1/5
f 789/1/5 781/1/5 788/1/5
f 790/2/5 785/2/5 784/2/5
f 791/2/5 785/2/5 790/2/5
f 795/1/5 787/1/5 786/1/5
f 796/1/5 787/1/5 795/1/5
f 797/2/5 792/2/5 791/2/5
f 798/1/5 793/1/5 792/1/5
f 798/2/5 792/2/5 797/2/5
f 799/2/5 794/2/5 793/2/5
f 799/1/5 793/1/5 798/1/5
f 800/1/5 795/1/5 794/1/5
f 800/2/5 794/2/5 799/2/5
f 801/1/5 795/1/5 800/1/5
f 816/1/5 803/1/5 802/1/5
f 817/2/5 804/2/5 803/2/5
f 817/1/5 803/1/5 816/1/5
f 818/1/5 805/1/5 804/1/5
f 818/2/5 804/2/5 817/2/5
f 819/2/5 806/2/5 805/2/5
f 819/1/5 805/1/5 818/1/5
f 819/2/5 807/2/5 806/2/5
f 820/1/5 808/1/5 807/1/5
f 820/2/5 807/2/5 819/2/5
f 821/2/5 809/2/5 808/2/5
f 821/1/5 808/1/5 820/1/5
f 822/1/5 810/1/5 809/1/5
f 822/2/5 809/2/5 821/2/5
f 822/1/5 811/1/5 810/1/5
f 823/2/5 813/2/5 812/2/5
f 823/1/5 811/1/5 822/1/5
f 823/2/5 812/2/5 811/2/5
f 824/1/5 814/1/5 813/1/5
f 824/2/5 813/2/5 823/2/5
f 825/1/5 814/1/5 824/1/5
f 829/1/5 816/1/5 815/1/5
f 830/1/5 816/1/5 829/1/5
f 831/2/5 826/2/5 825/2/5
f 832/2/5 826/2/5 831/2/5
f 835/2/5 828/2/5 827/2/5
f 836/2/5 828/2/5 835/2/5
f 843/1/5 834/1/5 833/1/5
f 844/1/5 834/1/5 843/1/5
f 845/2/5 837/2/5 836/2/5
f 846/2/5 837/2/5 845/2/5
f 847/1/5 839/1/5 838/1/5
f 848/1/5 839/1/5 847/1/5
f 849/1/5 841/1/5 840/1/5
f 850/1/5 841/1/5 849/1/5
f 851/1/5 843/1/5 842/1/5
f 852/1/5 843/1/5 851/1/5
f 853/1/6 854/1/6 862/1/6
f 862/1/6 854/1/6 863/1/6
f 855/2/6 856/2/6 864/2/6
f 864/2/6 856/2/6 865/2/6
f 857/1/6 858/1/6 866/1/6
f 866/1/6 858/1/6 867/1/6
f 859/1/6 860/1/6 868/1/6
f 868/1/6 860/1/6 869/1/6
f 861/1/6 862/1/6 871/1/6
f 871/1/6 862/1/6 872/1/6
f 869/2/6 870/2/6 877/2/6
f 877/2/6 870/2/6 878/2/6
f 873/1/6 874/1/6 879/1/6
f 879/1/6 874/1/6 880/1/6
f 875/2/6 876/2/6 886/2/6
f 886/2/6 876/2/6 887/2/6
f 880/1/6 881/1/6 888/1/6
f 881/2/6 882/2/6 889/2/6
f 888/1/6 881/1/6 889/1/6
f 882/1/6 883/1/6 890/1/6
f 889/2/6 882/2/6 890/2/6
f 883/2/6 884/2/6 891/2/6
f 890/1/6 883/1/6 891/1/6
f 891/2/6 884/2/6 892/2/6
f 884/1/6 885/1/6 893/1/6
f 892/2/6 884/2/6 893/2/6
f 893/1/6 885/1/6 894/1/6
f 885/2/6 886/2/6 895/2/6
f 894/1/6 885/1/6 895/1/6
f 895/2/6 886/2/6 896/2/6
f 896/2/6 886/2/6 897/2/6
f 898/1/6 899/1/6 908/1/6
f 899/1/6 900/1/6 908/1/6
f 900/2/6 901/2/6 909/2/6
f 901/2/6 902/2/6 909/2/6
f 908/1/6 900/1/6 909/1/6
f 904/1/6 905/1/6 910/1/6
f 909/2/6 902/2/6 910/2/6
f 902/1/6 903/1/6 910/1/6
f 903/1/6 904/1/6 910/1/6
f 905/2/6 906/2/6 911/2/6
f 910/1/6 905/1/6 911/1/6
f 911/2/6 906/2/6 912/2/6
f 907/2/6 908/2/6 915/2/6
f 915/2/6 908/2/6 916/2/6
f 913/1/6 914/1/6 919/1/6
f 919/1/6 914/1/6 920/1/6
f 917/2/6 918/2/6 927/2/6
f 927/2/6 918/2/6 928/2/6
f 920/1/6 921/1/6 929/1/6
f 929/1/6 921/1/6 930/1/6
f 922/1/6 923/1/6 931/1/6
f 931/1/6 923/1/6 932/1/6
f 924/1/6 925/1/6 933/1/6
f 933/1/6 925/1/6 934/1/6
f 926/2/6 927/2/6 935/2/6
f 935/2/6 927/2/6 936/2/6
f 937/1/6 938/1/6 942/1/6
f 942/1/6 938/1/6 943/1/6
f 939/1/6 940/1/6 946/1/6
f 946/1/6 940/1/6 947/1/6
f 941/1/6 942/1/6 950/1/6
f 942/1/6 943/1/6 950/1/6
f 947/1/6 948/1/6 951/1/6
f 946/1/6 947/1/6 951/1/6
f 945/1/6 946/1/6 951/1/6
f 949/1/6 950/1/6 953/1/6
f 950/1/6 943/1/6 954/1/6
f 953/1/6 950/1/6 954/1/6
f 943/2/6 944/2/6 955/2/6
f 951/1/6 952/1/6 958/1/6
f 945/1/6 951/1/6 958/1/6
f 953/2/6 954/2/6 959/2/6
f 959/2/6 954/2/6 960/2/6
f 954/1/6 943/1/6 961/1/6
f 960/2/6 954/2/6 961/2/6
f 955/1/6 956/1/6 962/1/6
f 943/2/6 955/2/6 962/2/6
f 962/1/6 956/1/6 963/1/6
f 957/1/6 958/1/6 969/1/6
f 958/1/6 952/1/6 970/1/6
f 969/1/6 958/1/6 970/1/6
f 970/1/6 952/1/6 971/1/6
f 971/1/6 952/1/6 972/1/6
f 963/1/6 964/1/6 973/1/6
f 964/2/6 965/2/6 974/2/6
f 973/1/6 964/1/6 974/1/6
f 974/2/6 965/2/6 975/2/6
f 965/1/6 966/1/6 976/1/6
f 975/2/6 965/2/6 976/2/6
f 966/2/6 967/2/6 977/2/6
f 976/1/6 966/1/6 977/1/6
f 967/1/6 968/1/6 978/1/6
f 977/2/6 967/2/6 978/2/6
f 978/1/6 968/1/6 979/1/6
f 968/2/6 969/2/6 980/2/6
f 979/1/6 968/1/6 980/1/6
f 969/2/6 970/2/6 980/2/6
f 970/1/6 971/1/6 981/1/6
f 980/2/6 970/2/6 981/2/6
f 981/1/6 971/1/6 982/1/6
f 960/1/6 961/1/6 984/1/6
f 961/1/6 943/1/6 985/1/6
f 943/2/6 962/2/6 985/2/6
f 984/1/6 961/1/6 985/1/6
f 962/2/6 963/2/6 985/2/6
f 963/1/6 973/1/6 986/1/6
f 985/2/6 963/2/6 986/2/6
f 974/2/6 975/2/6 987/2/6
f 986/1/6 973/1/6 987/1/6
f 973/2/6 974/2/6 987/2/6
f 976/1/6 977/1/6 988/1/6
f 987/2/6 975/2/6 988/2/6
f 975/1/6 976/1/6 988/1/6
f 977/1/6 978/1/6 988/1/6
f 978/2/6 979/2/6 989/2/6
f 988/1/6 978/1/6 989/1/6
f 979/1/6 980/1/6 990/1/6
f 989/2/6 979/2/6 990/2/6
f 980/1/6 981/1/6 990/1/6
f 990/1/6 981/1/6 991/1/6
f 981/2/6 982/2/6 992/2/6
f 991/1/6 981/1/6 992/1/6
f 982/1/6 971/1/6 993/1/6
f 992/2/6 982/2/6 993/2/6
f 993/1/6 971/1/6 994/1/6
f 983/1/6 984/1/6 996/1/6
f 985/1/6 986/1/6 996/1/6
f 984/1/6 985/1/6 996/1/6
f 996/1/6 986/1/6 997/1/6
f 997/1/6 986/1/6 998/1/6
f 998/1/6 986/1/6 999/1/6
f 991/1/6 992/1/6 1000/1/6
f 993/2/6 994/2/6 1000/2/6
f 992/1/6 993/1/6 1000/1/6
f 994/1/6 995/1/6 1001/1/6
f 1000/2/6 994/2/6 1001/2/6
f 983/1/6 996/1/6 1002/1/6
f 1002/1/6 996/1/6 1003/1/6
f 997/1/6 998/1/6 1004/1/6
f 996/2/6 997/2/6 1004/2/6
f 1004/1/6 998/1/6 1005/1/6
f 991/1/6 1000/1/6 1006/1/6
f 1000/1/6 1001/1/6 1006/1/6
f 1006/1/6 1001/1/6 1007/1/6
f 1001/1/6 995/1/6 1008/1/6
f 1007/1/6 1001/1/6 1008/1/6
f 1008/1/6 995/1/6 1009/1/6
f 1003/1/6 996/1/6 1010/1/6
f 1004/2/6 1005/2/6 1011/2/6
f 1010/1/6 996/1/6 1011/1/6
f 996/2/6 1004/2/6 1011/2/6
f 1011/2/6 1005/2/6 1012/2/6
f 1012/2/6 1005/2/6 1013/2/6
f 1007/1/6 1008/1/6 1014/1/6
f 1014/1/6 1008/1/6 1015/1/6
f 1015/1/6 1008/1/6 1016/1/6
f 1016/1/6 1008/1/6 1017/1/6
f 1011/1/6 1012/1/6 1018/1/6
f 1018/1/6 1012/1/6 1019/1/6
f 1015/1/6 1016/1/6 1020/1/6
f 1020/1/6 1016/1/6 1021/1/6
