# MagicaVoxel @ Ephtracy

# group
o 

# material
mtllib VR Токарев картина 4.mtl
usemtl palette

# normals
vn -1 0 0
vn 1 0 0
vn 0 0 1
vn 0 0 -1
vn 0 -1 0
vn 0 1 0

# texcoords
vt 0.0332031 0.5
vt 0.0371094 0.5
vt 0.373047 0.5
vt 0.380859 0.5
vt 0.396484 0.5
vt 0.400391 0.5
vt 0.404297 0.5
vt 0.529297 0.5
vt 0.537109 0.5

# verts
v -1.1 0.9 -1.8
v -1.1 0.9 -2
v -1.1 3.1 -1.8
v -1.1 3.1 -2
v 1.1 0.9 -1.8
v 1.1 0.9 -2
v 1.1 3.1 -1.8
v 1.1 3.1 -2
v -1.1 0.9 -1.8
v -1.1 3.1 -1.8
v -1 1 -1.8
v -1 1.1 -1.8
v -1 1.3 -1.8
v -1 1.6 -1.8
v -1 1.8 -1.8
v -1 2 -1.8
v -1 2.1 -1.8
v -1 2.4 -1.8
v -1 2.5 -1.8
v -1 3 -1.8
v -0.9 1.1 -1.8
v -0.9 1.2 -1.8
v -0.9 1.3 -1.8
v -0.9 1.4 -1.8
v -0.9 1.7 -1.8
v -0.9 1.8 -1.8
v -0.9 2.7 -1.8
v -0.9 3 -1.8
v -0.8 1.2 -1.8
v -0.8 1.3 -1.8
v -0.8 1.6 -1.8
v -0.8 1.7 -1.8
v -0.8 2.3 -1.8
v -0.8 2.4 -1.8
v -0.8 2.8 -1.8
v -0.8 3 -1.8
v -0.7 1.3 -1.8
v -0.7 1.4 -1.8
v -0.7 1.5 -1.8
v -0.7 1.6 -1.8
v -0.7 1.8 -1.8
v -0.7 2 -1.8
v -0.7 2.1 -1.8
v -0.7 2.3 -1.8
v -0.7 2.5 -1.8
v -0.7 2.6 -1.8
v -0.7 2.7 -1.8
v -0.7 2.8 -1.8
v -0.6 1.6 -1.8
v -0.6 1.8 -1.8
v -0.6 2.1 -1.8
v -0.6 2.3 -1.8
v -0.6 2.4 -1.8
v -0.6 2.5 -1.8
v -0.5 1.1 -1.8
v -0.5 1.2 -1.8
v -0.5 1.5 -1.8
v -0.5 1.6 -1.8
v -0.5 1.8 -1.8
v -0.5 1.9 -1.8
v -0.5 2 -1.8
v -0.5 2.1 -1.8
v -0.5 2.2 -1.8
v -0.5 2.3 -1.8
v -0.5 2.5 -1.8
v -0.5 2.6 -1.8
v -0.4 1.2 -1.8
v -0.4 1.3 -1.8
v -0.4 2.7 -1.8
v -0.4 2.9 -1.8
v -0.3 1.1 -1.8
v -0.3 1.2 -1.8
v -0.3 1.3 -1.8
v -0.3 1.4 -1.8
v -0.3 1.9 -1.8
v -0.3 2 -1.8
v -0.3 2.1 -1.8
v -0.3 2.2 -1.8
v -0.3 2.5 -1.8
v -0.3 2.6 -1.8
v -0.3 2.7 -1.8
v -0.3 2.9 -1.8
v -0.2 1.2 -1.8
v -0.2 1.3 -1.8
v -0.2 2.1 -1.8
v -0.2 2.2 -1.8
v -0.2 2.3 -1.8
v -0.2 2.4 -1.8
v -0.1 1 -1.8
v -0.1 1.1 -1.8
v -0.1 1.3 -1.8
v -0.1 1.4 -1.8
v -0.1 1.5 -1.8
v -0.1 1.6 -1.8
v -0.1 1.7 -1.8
v -0.1 1.8 -1.8
v -0.1 1.9 -1.8
v -0.1 2 -1.8
v -0.1 2.1 -1.8
v -0.1 2.2 -1.8
v -0.1 2.3 -1.8
v -0.1 2.4 -1.8
v -0.1 2.5 -1.8
v -0.1 2.6 -1.8
v -0.1 2.8 -1.8
v 0 1 -1.8
v 0 1.1 -1.8
v 0 1.3 -1.8
v 0 1.7 -1.8
v 0 2.1 -1.8
v 0 2.6 -1.8
v 0 2.7 -1.8
v 0 2.8 -1.8
v 0 2.9 -1.8
v 0.1 1.1 -1.8
v 0.1 1.2 -1.8
v 0.1 1.4 -1.8
v 0.1 1.5 -1.8
v 0.1 1.6 -1.8
v 0.1 1.8 -1.8
v 0.1 1.9 -1.8
v 0.1 2 -1.8
v 0.1 2.1 -1.8
v 0.1 2.2 -1.8
v 0.1 2.3 -1.8
v 0.1 2.4 -1.8
v 0.1 2.5 -1.8
v 0.1 2.6 -1.8
v 0.1 2.7 -1.8
v 0.1 2.8 -1.8
v 0.2 1.2 -1.8
v 0.2 1.3 -1.8
v 0.2 1.7 -1.8
v 0.2 1.8 -1.8
v 0.2 2.1 -1.8
v 0.2 2.2 -1.8
v 0.2 2.8 -1.8
v 0.2 2.9 -1.8
v 0.3 1.1 -1.8
v 0.3 1.3 -1.8
v 0.3 1.5 -1.8
v 0.3 1.6 -1.8
v 0.3 1.7 -1.8
v 0.3 1.8 -1.8
v 0.3 1.9 -1.8
v 0.3 2 -1.8
v 0.3 2.1 -1.8
v 0.3 2.2 -1.8
v 0.3 2.3 -1.8
v 0.3 2.4 -1.8
v 0.3 2.5 -1.8
v 0.3 2.6 -1.8
v 0.3 2.7 -1.8
v 0.3 2.9 -1.8
v 0.4 1.1 -1.8
v 0.4 1.2 -1.8
v 0.4 1.3 -1.8
v 0.4 1.4 -1.8
v 0.4 1.9 -1.8
v 0.4 2 -1.8
v 0.4 2.3 -1.8
v 0.4 2.4 -1.8
v 0.4 2.7 -1.8
v 0.4 2.8 -1.8
v 0.4 2.9 -1.8
v 0.4 3 -1.8
v 0.5 1.2 -1.8
v 0.5 1.4 -1.8
v 0.5 1.8 -1.8
v 0.5 1.9 -1.8
v 0.5 2 -1.8
v 0.5 2.1 -1.8
v 0.5 2.2 -1.8
v 0.5 2.3 -1.8
v 0.5 2.8 -1.8
v 0.5 3 -1.8
v 0.6 1.5 -1.8
v 0.6 1.6 -1.8
v 0.6 1.7 -1.8
v 0.6 2.2 -1.8
v 0.6 2.5 -1.8
v 0.6 2.6 -1.8
v 0.6 2.7 -1.8
v 0.6 2.8 -1.8
v 0.7 1.2 -1.8
v 0.7 1.5 -1.8
v 0.7 1.7 -1.8
v 0.7 1.8 -1.8
v 0.7 2.2 -1.8
v 0.7 2.5 -1.8
v 0.7 2.6 -1.8
v 0.7 2.8 -1.8
v 0.7 2.9 -1.8
v 0.8 1 -1.8
v 0.8 1.2 -1.8
v 0.8 1.3 -1.8
v 0.8 1.5 -1.8
v 0.8 2.1 -1.8
v 0.8 2.2 -1.8
v 0.8 2.4 -1.8
v 0.8 2.5 -1.8
v 0.8 2.7 -1.8
v 0.8 2.8 -1.8
v 0.8 2.9 -1.8
v 0.8 3 -1.8
v 0.9 1.1 -1.8
v 0.9 1.3 -1.8
v 0.9 1.6 -1.8
v 0.9 1.7 -1.8
v 0.9 2 -1.8
v 0.9 2.1 -1.8
v 0.9 2.5 -1.8
v 0.9 2.6 -1.8
v 0.9 2.8 -1.8
v 0.9 2.9 -1.8
v 1 1 -1.8
v 1 1.1 -1.8
v 1 1.6 -1.8
v 1 1.8 -1.8
v 1 2 -1.8
v 1 2.2 -1.8
v 1 2.4 -1.8
v 1 2.5 -1.8
v 1 2.9 -1.8
v 1 3 -1.8
v 1.1 0.9 -1.8
v 1.1 3.1 -1.8
v -1.1 0.9 -2
v -1.1 3.1 -2
v 1.1 0.9 -2
v 1.1 3.1 -2
v -1.1 0.9 -1.8
v 1.1 0.9 -1.8
v -1.1 0.9 -2
v 1.1 0.9 -2
v -1.1 3.1 -1.8
v 1.1 3.1 -1.8
v -1.1 3.1 -2
v 1.1 3.1 -2

# faces
f 3/3/1 2/3/1 1/3/1
f 4/3/1 2/3/1 3/3/1
f 5/3/2 6/3/2 7/3/2
f 7/3/2 6/3/2 8/3/2
f 11/3/3 10/3/3 9/3/3
f 12/3/3 10/3/3 11/3/3
f 13/3/3 10/3/3 12/3/3
f 14/3/3 10/3/3 13/3/3
f 15/3/3 10/3/3 14/3/3
f 16/3/3 10/3/3 15/3/3
f 17/3/3 10/3/3 16/3/3
f 18/3/3 10/3/3 17/3/3
f 19/3/3 10/3/3 18/3/3
f 20/3/3 10/3/3 19/3/3
f 21/9/3 12/9/3 11/9/3
f 21/6/3 13/6/3 12/6/3
f 22/6/3 13/6/3 21/6/3
f 23/9/3 14/9/3 13/9/3
f 23/6/3 13/6/3 22/6/3
f 24/9/3 14/9/3 23/9/3
f 25/6/3 15/6/3 14/6/3
f 26/9/3 16/9/3 15/9/3
f 26/6/3 15/6/3 25/6/3
f 27/9/3 20/9/3 19/9/3
f 28/3/3 10/3/3 20/3/3
f 28/9/3 20/9/3 27/9/3
f 29/9/3 22/9/3 21/9/3
f 29/6/3 23/6/3 22/6/3
f 29/6/3 24/6/3 23/6/3
f 30/6/3 24/6/3 29/6/3
f 31/9/3 14/9/3 24/9/3
f 31/6/3 25/6/3 14/6/3
f 32/9/3 26/9/3 25/9/3
f 32/6/3 25/6/3 31/6/3
f 33/9/3 18/9/3 17/9/3
f 34/6/3 19/6/3 18/6/3
f 34/9/3 18/9/3 33/9/3
f 35/6/3 28/6/3 27/6/3
f 36/3/3 10/3/3 28/3/3
f 36/6/3 28/6/3 35/6/3
f 37/6/3 24/6/3 30/6/3
f 37/9/3 30/9/3 29/9/3
f 38/9/3 31/9/3 24/9/3
f 38/6/3 24/6/3 37/6/3
f 38/9/3 32/9/3 31/9/3
f 39/9/3 32/9/3 38/9/3
f 40/9/3 32/9/3 39/9/3
f 41/9/3 16/9/3 26/9/3
f 41/9/3 32/9/3 40/9/3
f 41/9/3 26/9/3 32/9/3
f 42/6/3 17/6/3 16/6/3
f 42/9/3 16/9/3 41/9/3
f 43/9/3 33/9/3 17/9/3
f 43/6/3 17/6/3 42/6/3
f 44/6/3 34/6/3 33/6/3
f 44/9/3 33/9/3 43/9/3
f 45/9/3 27/9/3 19/9/3
f 45/6/3 34/6/3 44/6/3
f 45/6/3 19/6/3 34/6/3
f 46/9/3 27/9/3 45/9/3
f 47/6/3 35/6/3 27/6/3
f 47/9/3 27/9/3 46/9/3
f 48/9/3 36/9/3 35/9/3
f 48/6/3 35/6/3 47/6/3
f 49/7/3 40/7/3 39/7/3
f 49/4/3 41/4/3 40/4/3
f 50/7/3 42/7/3 41/7/3
f 50/4/3 41/4/3 49/4/3
f 50/7/3 43/7/3 42/7/3
f 51/8/3 44/8/3 43/8/3
f 51/7/3 43/7/3 50/7/3
f 52/7/3 46/7/3 45/7/3
f 52/8/3 44/8/3 51/8/3
f 52/7/3 45/7/3 44/7/3
f 53/7/3 46/7/3 52/7/3
f 54/7/3 46/7/3 53/7/3
f 55/9/3 39/9/3 38/9/3
f 55/9/3 21/9/3 11/9/3
f 55/9/3 38/9/3 37/9/3
f 55/9/3 37/9/3 29/9/3
f 55/9/3 29/9/3 21/9/3
f 56/9/3 39/9/3 55/9/3
f 57/7/3 49/7/3 39/7/3
f 57/9/3 39/9/3 56/9/3
f 58/1/3 50/1/3 49/1/3
f 58/7/3 49/7/3 57/7/3
f 58/1/3 51/1/3 50/1/3
f 58/1/3 52/1/3 51/1/3
f 59/1/3 52/1/3 58/1/3
f 60/1/3 52/1/3 59/1/3
f 61/1/3 52/1/3 60/1/3
f 62/1/3 52/1/3 61/1/3
f 63/1/3 52/1/3 62/1/3
f 64/2/3 53/2/3 52/2/3
f 64/1/3 52/1/3 63/1/3
f 65/7/3 46/7/3 54/7/3
f 65/1/3 54/1/3 53/1/3
f 66/9/3 47/9/3 46/9/3
f 66/7/3 46/7/3 65/7/3
f 66/9/3 48/9/3 47/9/3
f 67/9/3 57/9/3 56/9/3
f 67/6/3 56/6/3 55/6/3
f 68/9/3 57/9/3 67/9/3
f 69/9/3 48/9/3 66/9/3
f 70/9/3 36/9/3 48/9/3
f 70/9/3 48/9/3 69/9/3
f 71/9/3 55/9/3 11/9/3
f 71/6/3 67/6/3 55/6/3
f 71/6/3 68/6/3 67/6/3
f 72/6/3 68/6/3 71/6/3
f 73/9/3 57/9/3 68/9/3
f 73/6/3 68/6/3 72/6/3
f 74/9/3 57/9/3 73/9/3
f 75/5/3 60/5/3 59/5/3
f 75/2/3 61/2/3 60/2/3
f 76/5/3 62/5/3 61/5/3
f 76/2/3 61/2/3 75/2/3
f 77/1/3 63/1/3 62/1/3
f 77/5/3 62/5/3 76/5/3
f 78/5/3 64/5/3 63/5/3
f 78/1/3 63/1/3 77/1/3
f 79/1/3 65/1/3 53/1/3
f 79/8/3 66/8/3 65/8/3
f 80/9/3 69/9/3 66/9/3
f 80/8/3 66/8/3 79/8/3
f 81/6/3 70/6/3 69/6/3
f 81/9/3 69/9/3 80/9/3
f 82/9/3 36/9/3 70/9/3
f 82/6/3 70/6/3 81/6/3
f 83/9/3 72/9/3 71/9/3
f 83/6/3 74/6/3 73/6/3
f 83/6/3 73/6/3 72/6/3
f 84/6/3 74/6/3 83/6/3
f 85/2/3 78/2/3 77/2/3
f 85/5/3 77/5/3 76/5/3
f 86/5/3 64/5/3 78/5/3
f 86/2/3 78/2/3 85/2/3
f 87/2/3 53/2/3 64/2/3
f 87/5/3 64/5/3 86/5/3
f 88/1/3 79/1/3 53/1/3
f 88/2/3 53/2/3 87/2/3
f 89/3/3 11/3/3 9/3/3
f 89/9/3 84/9/3 83/9/3
f 89/9/3 71/9/3 11/9/3
f 89/9/3 83/9/3 71/9/3
f 90/9/3 84/9/3 89/9/3
f 91/6/3 74/6/3 84/6/3
f 91/9/3 84/9/3 90/9/3
f 92/9/3 57/9/3 74/9/3
f 92/6/3 74/6/3 91/6/3
f 93/8/3 58/8/3 57/8/3
f 93/9/3 57/9/3 92/9/3
f 94/1/3 59/1/3 58/1/3
f 94/8/3 58/8/3 93/8/3
f 95/1/3 59/1/3 94/1/3
f 96/5/3 75/5/3 59/5/3
f 96/1/3 59/1/3 95/1/3
f 97/1/3 76/1/3 75/1/3
f 97/5/3 75/5/3 96/5/3
f 98/5/3 85/5/3 76/5/3
f 98/1/3 76/1/3 97/1/3
f 99/1/3 86/1/3 85/1/3
f 99/5/3 85/5/3 98/5/3
f 100/5/3 87/5/3 86/5/3
f 100/1/3 86/1/3 99/1/3
f 101/1/3 88/1/3 87/1/3
f 101/5/3 87/5/3 100/5/3
f 102/1/3 79/1/3 88/1/3
f 102/1/3 88/1/3 101/1/3
f 103/7/3 80/7/3 79/7/3
f 103/1/3 79/1/3 102/1/3
f 104/9/3 81/9/3 80/9/3
f 104/7/3 80/7/3 103/7/3
f 104/9/3 82/9/3 81/9/3
f 105/9/3 82/9/3 104/9/3
f 106/6/3 90/6/3 89/6/3
f 106/3/3 89/3/3 9/3/3
f 107/9/3 92/9/3 91/9/3
f 107/6/3 90/6/3 106/6/3
f 107/9/3 91/9/3 90/9/3
f 108/9/3 92/9/3 107/9/3
f 109/2/3 99/2/3 98/2/3
f 109/2/3 97/2/3 96/2/3
f 109/1/3 95/1/3 94/1/3
f 109/2/3 98/2/3 97/2/3
f 109/2/3 100/2/3 99/2/3
f 109/2/3 96/2/3 95/2/3
f 109/1/3 94/1/3 93/1/3
f 110/2/3 100/2/3 109/2/3
f 111/6/3 105/6/3 104/6/3
f 111/9/3 104/9/3 103/9/3
f 112/6/3 105/6/3 111/6/3
f 113/9/3 82/9/3 105/9/3
f 113/6/3 105/6/3 112/6/3
f 114/9/3 36/9/3 82/9/3
f 114/9/3 82/9/3 113/9/3
f 115/6/3 108/6/3 107/6/3
f 115/9/3 107/9/3 106/9/3
f 116/6/3 108/6/3 115/6/3
f 117/9/3 92/9/3 108/9/3
f 117/7/3 93/7/3 92/7/3
f 118/1/3 110/1/3 109/1/3
f 118/7/3 93/7/3 117/7/3
f 118/1/3 109/1/3 93/1/3
f 119/1/3 110/1/3 118/1/3
f 120/1/3 110/1/3 119/1/3
f 121/1/3 110/1/3 120/1/3
f 122/1/3 110/1/3 121/1/3
f 123/2/3 100/2/3 110/2/3
f 123/1/3 110/1/3 122/1/3
f 124/1/3 101/1/3 100/1/3
f 124/2/3 100/2/3 123/2/3
f 124/1/3 102/1/3 101/1/3
f 125/1/3 102/1/3 124/1/3
f 126/7/3 103/7/3 102/7/3
f 126/1/3 102/1/3 125/1/3
f 127/9/3 112/9/3 111/9/3
f 127/7/3 103/7/3 126/7/3
f 127/9/3 111/9/3 103/9/3
f 128/9/3 112/9/3 127/9/3
f 129/6/3 113/6/3 112/6/3
f 129/9/3 112/9/3 128/9/3
f 129/6/3 114/6/3 113/6/3
f 130/6/3 114/6/3 129/6/3
f 131/6/3 108/6/3 116/6/3
f 131/9/3 116/9/3 115/9/3
f 132/9/3 117/9/3 108/9/3
f 132/6/3 108/6/3 131/6/3
f 132/9/3 118/9/3 117/9/3
f 133/1/3 120/1/3 119/1/3
f 134/5/3 121/5/3 120/5/3
f 134/1/3 120/1/3 133/1/3
f 135/5/3 123/5/3 122/5/3
f 135/1/3 124/1/3 123/1/3
f 136/5/3 125/5/3 124/5/3
f 136/1/3 124/1/3 135/1/3
f 137/6/3 114/6/3 130/6/3
f 137/9/3 130/9/3 129/9/3
f 137/9/3 129/9/3 128/9/3
f 138/9/3 36/9/3 114/9/3
f 138/6/3 114/6/3 137/6/3
f 139/9/3 131/9/3 115/9/3
f 139/9/3 115/9/3 106/9/3
f 139/9/3 132/9/3 131/9/3
f 140/9/3 118/9/3 132/9/3
f 140/9/3 132/9/3 139/9/3
f 141/7/3 119/7/3 118/7/3
f 141/9/3 118/9/3 140/9/3
f 142/1/3 133/1/3 119/1/3
f 142/7/3 119/7/3 141/7/3
f 143/2/3 134/2/3 133/2/3
f 143/1/3 133/1/3 142/1/3
f 144/5/3 121/5/3 134/5/3
f 144/2/3 134/2/3 143/2/3
f 145/1/3 122/1/3 121/1/3
f 145/5/3 121/5/3 144/5/3
f 146/5/3 135/5/3 122/5/3
f 146/1/3 122/1/3 145/1/3
f 147/2/3 136/2/3 135/2/3
f 147/5/3 135/5/3 146/5/3
f 148/5/3 125/5/3 136/5/3
f 148/2/3 136/2/3 147/2/3
f 149/1/3 127/1/3 126/1/3
f 149/5/3 125/5/3 148/5/3
f 149/1/3 126/1/3 125/1/3
f 150/1/3 127/1/3 149/1/3
f 151/7/3 128/7/3 127/7/3
f 151/1/3 127/1/3 150/1/3
f 152/9/3 137/9/3 128/9/3
f 152/7/3 128/7/3 151/7/3
f 152/9/3 138/9/3 137/9/3
f 153/9/3 138/9/3 152/9/3
f 154/9/3 36/9/3 138/9/3
f 154/9/3 138/9/3 153/9/3
f 155/6/3 140/6/3 139/6/3
f 155/9/3 139/9/3 106/9/3
f 156/6/3 140/6/3 155/6/3
f 157/9/3 141/9/3 140/9/3
f 157/6/3 140/6/3 156/6/3
f 158/9/3 141/9/3 157/9/3
f 159/5/3 145/5/3 144/5/3
f 159/2/3 146/2/3 145/2/3
f 160/5/3 147/5/3 146/5/3
f 160/2/3 146/2/3 159/2/3
f 161/2/3 150/2/3 149/2/3
f 161/5/3 149/5/3 148/5/3
f 162/1/3 151/1/3 150/1/3
f 162/2/3 150/2/3 161/2/3
f 163/9/3 153/9/3 152/9/3
f 163/6/3 154/6/3 153/6/3
f 164/6/3 154/6/3 163/6/3
f 165/9/3 36/9/3 154/9/3
f 165/6/3 154/6/3 164/6/3
f 166/3/3 10/3/3 36/3/3
f 166/9/3 36/9/3 165/9/3
f 167/9/3 156/9/3 155/9/3
f 167/6/3 158/6/3 157/6/3
f 167/6/3 157/6/3 156/6/3
f 168/9/3 141/9/3 158/9/3
f 168/6/3 158/6/3 167/6/3
f 169/1/3 143/1/3 142/1/3
f 169/5/3 159/5/3 144/5/3
f 169/1/3 144/1/3 143/1/3
f 170/1/3 160/1/3 159/1/3
f 170/5/3 159/5/3 169/5/3
f 171/5/3 147/5/3 160/5/3
f 171/1/3 160/1/3 170/1/3
f 172/1/3 148/1/3 147/1/3
f 172/5/3 147/5/3 171/5/3
f 173/5/3 161/5/3 148/5/3
f 173/1/3 148/1/3 172/1/3
f 174/1/3 162/1/3 161/1/3
f 174/5/3 161/5/3 173/5/3
f 175/6/3 165/6/3 164/6/3
f 175/9/3 164/9/3 163/9/3
f 175/6/3 166/6/3 165/6/3
f 176/3/3 10/3/3 166/3/3
f 176/6/3 166/6/3 175/6/3
f 177/9/3 141/9/3 168/9/3
f 177/9/3 168/9/3 167/9/3
f 177/8/3 142/8/3 141/8/3
f 178/1/3 170/1/3 169/1/3
f 178/8/3 142/8/3 177/8/3
f 178/1/3 172/1/3 171/1/3
f 178/1/3 173/1/3 172/1/3
f 178/1/3 171/1/3 170/1/3
f 178/1/3 169/1/3 142/1/3
f 178/1/3 174/1/3 173/1/3
f 179/1/3 174/1/3 178/1/3
f 180/1/3 174/1/3 179/1/3
f 181/1/3 162/1/3 174/1/3
f 181/1/3 174/1/3 180/1/3
f 181/8/3 152/8/3 151/8/3
f 181/1/3 151/1/3 162/1/3
f 182/9/3 176/9/3 175/9/3
f 182/8/3 152/8/3 181/8/3
f 182/9/3 163/9/3 152/9/3
f 182/9/3 175/9/3 163/9/3
f 183/9/3 176/9/3 182/9/3
f 184/9/3 176/9/3 183/9/3
f 185/9/3 177/9/3 167/9/3
f 185/9/3 167/9/3 155/9/3
f 186/7/3 179/7/3 178/7/3
f 186/9/3 177/9/3 185/9/3
f 186/7/3 178/7/3 177/7/3
f 187/8/3 180/8/3 179/8/3
f 187/7/3 179/7/3 186/7/3
f 188/8/3 180/8/3 187/8/3
f 189/7/3 181/7/3 180/7/3
f 189/8/3 180/8/3 188/8/3
f 189/7/3 182/7/3 181/7/3
f 190/7/3 182/7/3 189/7/3
f 191/9/3 183/9/3 182/9/3
f 191/7/3 182/7/3 190/7/3
f 192/9/3 176/9/3 184/9/3
f 192/6/3 184/6/3 183/6/3
f 193/9/3 176/9/3 192/9/3
f 194/9/3 185/9/3 155/9/3
f 194/9/3 155/9/3 106/9/3
f 194/3/3 106/3/3 9/3/3
f 195/6/3 186/6/3 185/6/3
f 195/9/3 185/9/3 194/9/3
f 196/6/3 186/6/3 195/6/3
f 197/9/3 187/9/3 186/9/3
f 197/6/3 186/6/3 196/6/3
f 198/9/3 190/9/3 189/9/3
f 198/9/3 189/9/3 188/9/3
f 199/9/3 190/9/3 198/9/3
f 200/9/3 190/9/3 199/9/3
f 201/6/3 191/6/3 190/6/3
f 201/9/3 190/9/3 200/9/3
f 202/9/3 183/9/3 191/9/3
f 202/6/3 193/6/3 192/6/3
f 202/6/3 192/6/3 183/6/3
f 203/6/3 193/6/3 202/6/3
f 204/9/3 176/9/3 193/9/3
f 204/6/3 193/6/3 203/6/3
f 205/3/3 10/3/3 176/3/3
f 205/9/3 176/9/3 204/9/3
f 206/6/3 196/6/3 195/6/3
f 206/6/3 195/6/3 194/6/3
f 207/9/3 197/9/3 196/9/3
f 207/6/3 196/6/3 206/6/3
f 208/9/3 187/9/3 197/9/3
f 208/9/3 197/9/3 207/9/3
f 209/6/3 188/6/3 187/6/3
f 209/9/3 187/9/3 208/9/3
f 210/9/3 198/9/3 188/9/3
f 211/6/3 199/6/3 198/6/3
f 211/9/3 198/9/3 210/9/3
f 212/6/3 191/6/3 201/6/3
f 212/6/3 201/6/3 200/6/3
f 213/9/3 203/9/3 202/9/3
f 213/6/3 191/6/3 212/6/3
f 213/9/3 202/9/3 191/9/3
f 214/6/3 204/6/3 203/6/3
f 214/9/3 203/9/3 213/9/3
f 214/6/3 205/6/3 204/6/3
f 215/6/3 205/6/3 214/6/3
f 216/3/3 194/3/3 9/3/3
f 216/6/3 206/6/3 194/6/3
f 217/9/3 208/9/3 207/9/3
f 217/6/3 206/6/3 216/6/3
f 217/9/3 207/9/3 206/9/3
f 218/6/3 209/6/3 208/6/3
f 218/9/3 208/9/3 217/9/3
f 219/9/3 210/9/3 188/9/3
f 219/6/3 209/6/3 218/6/3
f 219/6/3 188/6/3 209/6/3
f 220/6/3 211/6/3 210/6/3
f 220/9/3 210/9/3 219/9/3
f 221/6/3 199/6/3 211/6/3
f 221/6/3 211/6/3 220/6/3
f 221/9/3 200/9/3 199/9/3
f 222/6/3 212/6/3 200/6/3
f 222/9/3 200/9/3 221/9/3
f 223/9/3 213/9/3 212/9/3
f 223/6/3 212/6/3 222/6/3
f 223/9/3 214/9/3 213/9/3
f 223/9/3 215/9/3 214/9/3
f 224/6/3 205/6/3 215/6/3
f 224/9/3 215/9/3 223/9/3
f 225/3/3 10/3/3 205/3/3
f 225/6/3 205/6/3 224/6/3
f 226/3/3 222/3/3 221/3/3
f 226/3/3 220/3/3 219/3/3
f 226/3/3 225/3/3 224/3/3
f 226/3/3 218/3/3 217/3/3
f 226/3/3 224/3/3 223/3/3
f 226/3/3 219/3/3 218/3/3
f 226/3/3 221/3/3 220/3/3
f 226/3/3 223/3/3 222/3/3
f 226/3/3 217/3/3 216/3/3
f 226/3/3 216/3/3 9/3/3
f 227/3/3 10/3/3 225/3/3
f 227/3/3 225/3/3 226/3/3
f 228/3/4 229/3/4 230/3/4
f 230/3/4 229/3/4 231/3/4
f 234/3/5 233/3/5 232/3/5
f 235/3/5 233/3/5 234/3/5
f 236/3/6 237/3/6 238/3/6
f 238/3/6 237/3/6 239/3/6
