# MagicaVoxel @ Ephtracy

# group
o 

# material
mtllib VR Токарев клюшка.mtl
usemtl palette

# normals
vn -1 0 0
vn 1 0 0
vn 0 0 1
vn 0 0 -1
vn 0 -1 0
vn 0 1 0

# texcoords
vt 0.970703 0.5
vt 0.974609 0.5
vt 0.978516 0.5
vt 0.982422 0.5
vt 0.986328 0.5
vt 0.990234 0.5

# verts
v -0.7 3 0.0999999
v -0.7 3 -5.96046e-08
v -0.7 3 -0.1
v -0.7 3.1 0.2
v -0.7 3.1 0.0999999
v -0.7 3.1 -5.96046e-08
v -0.7 3.1 -0.1
v -0.7 3.1 -0.2
v -0.7 3.2 -0.1
v -0.7 3.2 -0.2
v -0.7 3.5 -5.96046e-08
v -0.7 3.5 -0.1
v -0.7 4 0.0999999
v -0.7 4 -5.96046e-08
v -0.7 4 -0.1
v -0.7 4.6 0.0999999
v -0.7 4.6 -5.96046e-08
v -0.7 4.9 0.2
v -0.7 4.9 0.0999999
v -0.7 4.9 -5.96046e-08
v -0.7 4.9 -0.1
v -0.7 4.9 -0.2
v -0.7 5 0.0999999
v -0.7 5 -5.96046e-08
v -0.7 5 -0.1
v -0.6 0.2 0.0999999
v -0.6 0.2 -0.1
v -0.6 0.3 0.0999999
v -0.6 0.3 -0.1
v -0.6 0.7 0.0999999
v -0.6 0.7 -5.96046e-08
v -0.6 1 0.0999999
v -0.6 1 -5.96046e-08
v -0.6 1 -0.1
v -0.6 1.6 0.0999999
v -0.6 1.6 -5.96046e-08
v -0.6 2.1 -5.96046e-08
v -0.6 2.1 -0.1
v -0.6 2.3 0.0999999
v -0.6 2.3 -5.96046e-08
v -0.6 2.4 0.0999999
v -0.6 2.4 -5.96046e-08
v -0.6 2.5 0.0999999
v -0.6 2.5 -5.96046e-08
v -0.6 3 0.2
v -0.6 3 0.0999999
v -0.6 3 -5.96046e-08
v -0.6 3 -0.1
v -0.6 3 -0.2
v -0.6 3.1 0.2
v -0.6 3.1 0.0999999
v -0.6 3.1 -0.1
v -0.6 3.1 -0.2
v -0.6 4.9 0.2
v -0.6 4.9 0.0999999
v -0.6 4.9 -0.1
v -0.6 4.9 -0.2
v -0.6 5 0.2
v -0.6 5 0.0999999
v -0.6 5 -5.96046e-08
v -0.6 5 -0.1
v -0.6 5 -0.2
v -0.6 5.1 0.0999999
v -0.6 5.1 -5.96046e-08
v -0.6 5.1 -0.1
v -0.5 0.1 0.0999999
v -0.5 0.1 -0.1
v -0.5 0.2 0.0999999
v -0.5 0.2 -0.1
v -0.4 0 0.0999999
v -0.4 0 -0.1
v -0.4 0.1 0.0999999
v -0.4 0.1 -0.1
v -0.4 0.2 0.2
v -0.4 0.2 0.0999999
v -0.4 0.2 -0.1
v -0.4 0.2 -0.2
v -0.4 0.3 0.2
v -0.4 0.3 0.0999999
v -0.4 0.3 -0.1
v -0.4 0.3 -0.2
v -0.3 0.1 0.2
v -0.3 0.1 0.0999999
v -0.3 0.1 -0.1
v -0.3 0.1 -0.2
v -0.3 0.2 0.2
v -0.3 0.2 0.0999999
v -0.3 0.2 -0.1
v -0.3 0.2 -0.2
v -0.3 0.3 0.2
v -0.3 0.3 0.0999999
v -0.3 0.3 -0.1
v -0.3 0.3 -0.2
v -0.3 0.4 0.2
v -0.3 0.4 0.0999999
v -0.3 0.4 -0.1
v -0.3 0.4 -0.2
v -0.4 0.5 0.0999999
v -0.4 0.5 -5.96046e-08
v -0.4 0.5 -0.1
v -0.4 0.9 0.0999999
v -0.4 0.9 -5.96046e-08
v -0.4 1.4 -5.96046e-08
v -0.4 1.4 -0.1
v -0.4 1.5 0.0999999
v -0.4 1.5 -0.1
v -0.4 2 -5.96046e-08
v -0.4 2 -0.1
v -0.4 2.1 -5.96046e-08
v -0.4 2.1 -0.1
v -0.4 2.2 0.0999999
v -0.4 2.2 -5.96046e-08
v -0.4 2.4 0.0999999
v -0.4 2.4 -5.96046e-08
v -0.4 2.5 0.0999999
v -0.4 2.5 -0.1
v -0.4 2.7 -5.96046e-08
v -0.4 2.7 -0.1
v -0.4 2.8 0.0999999
v -0.4 2.8 -5.96046e-08
v -0.4 3 0.2
v -0.4 3 0.0999999
v -0.4 3 -5.96046e-08
v -0.4 3 -0.1
v -0.4 3 -0.2
v -0.4 3.1 0.2
v -0.4 3.1 0.0999999
v -0.4 3.1 -0.1
v -0.4 3.1 -0.2
v -0.4 4.9 0.2
v -0.4 4.9 0.0999999
v -0.4 4.9 -0.1
v -0.4 4.9 -0.2
v -0.4 5 0.2
v -0.4 5 0.0999999
v -0.4 5 -0.1
v -0.4 5 -0.2
v -0.4 5.1 0.0999999
v -0.4 5.1 -0.1
v -0.3 3 0.0999999
v -0.3 3 -5.96046e-08
v -0.3 3 -0.1
v -0.3 3.1 0.2
v -0.3 3.1 0.0999999
v -0.3 3.1 -5.96046e-08
v -0.3 3.1 -0.1
v -0.3 3.1 -0.2
v -0.3 3.2 0.0999999
v -0.3 3.2 -0.1
v -0.3 3.3 0.0999999
v -0.3 3.3 -0.1
v -0.3 3.4 0.0999999
v -0.3 3.4 -5.96046e-08
v -0.3 3.9 0.0999999
v -0.3 3.9 -5.96046e-08
v -0.3 3.9 -0.1
v -0.3 4.3 -5.96046e-08
v -0.3 4.3 -0.1
v -0.3 4.3 -0.2
v -0.3 4.6 -0.1
v -0.3 4.6 -0.2
v -0.3 4.9 0.2
v -0.3 4.9 0.0999999
v -0.3 4.9 -0.1
v -0.3 4.9 -0.2
v -0.3 5 0.0999999
v -0.3 5 -0.1
v 0.3 0.1 0.2
v 0.3 0.1 0.0999999
v 0.3 0.1 -0.1
v 0.3 0.1 -0.2
v 0.3 0.2 0.2
v 0.3 0.2 0.0999999
v 0.3 0.2 -0.1
v 0.3 0.2 -0.2
v 0.3 0.3 0.2
v 0.3 0.3 0.0999999
v 0.3 0.3 -0.1
v 0.3 0.3 -0.2
v 0.3 0.4 0.2
v 0.3 0.4 0.0999999
v 0.3 0.4 -0.1
v 0.3 0.4 -0.2
v 0.4 0 0.0999999
v 0.4 0 -5.96046e-08
v 0.4 0 -0.1
v 0.4 0.1 0.0999999
v 0.4 0.1 -5.96046e-08
v 0.4 0.1 -0.1
v 0.4 0.2 0.2
v 0.4 0.2 0.0999999
v 0.4 0.2 -0.1
v 0.4 0.2 -0.2
v 0.4 0.3 0.2
v 0.4 0.3 0.0999999
v 0.4 0.3 -0.1
v 0.4 0.3 -0.2
v 0.4 0.4 0.0999999
v 0.4 0.4 -5.96046e-08
v 0.4 0.4 -0.1
v 0.4 0.5 0.0999999
v 0.4 0.5 -5.96046e-08
v 0.4 0.5 -0.1
v 0.5 0.1 0.0999999
v 0.5 0.1 -5.96046e-08
v 0.5 0.1 -0.1
v 0.5 0.2 0.0999999
v 0.5 0.2 -5.96046e-08
v 0.5 0.2 -0.1
v 0.5 0.3 0.0999999
v 0.5 0.3 -5.96046e-08
v 0.5 0.3 -0.1
v 0.5 0.4 0.0999999
v 0.5 0.4 -0.1
v 0.6 0.2 0.0999999
v 0.6 0.2 -5.96046e-08
v 0.6 0.2 -0.1
v 0.6 0.3 0.0999999
v 0.6 0.3 -5.96046e-08
v 0.6 0.3 -0.1
v -0.7 3.1 0.2
v -0.7 4.9 0.2
v -0.6 3 0.2
v -0.6 3.1 0.2
v -0.6 3.2 0.2
v -0.6 3.3 0.2
v -0.6 3.4 0.2
v -0.6 3.5 0.2
v -0.6 3.6 0.2
v -0.6 3.7 0.2
v -0.6 3.8 0.2
v -0.6 3.9 0.2
v -0.6 4 0.2
v -0.6 4.1 0.2
v -0.6 4.2 0.2
v -0.6 4.3 0.2
v -0.6 4.4 0.2
v -0.6 4.5 0.2
v -0.6 4.6 0.2
v -0.6 4.7 0.2
v -0.6 4.8 0.2
v -0.6 4.9 0.2
v -0.6 5 0.2
v -0.4 0.2 0.2
v -0.4 0.3 0.2
v -0.4 3 0.2
v -0.4 3.1 0.2
v -0.4 3.2 0.2
v -0.4 3.3 0.2
v -0.4 3.4 0.2
v -0.4 3.5 0.2
v -0.4 3.6 0.2
v -0.4 3.7 0.2
v -0.4 3.8 0.2
v -0.4 3.9 0.2
v -0.4 4 0.2
v -0.4 4.1 0.2
v -0.4 4.2 0.2
v -0.4 4.3 0.2
v -0.4 4.4 0.2
v -0.4 4.5 0.2
v -0.4 4.6 0.2
v -0.4 4.7 0.2
v -0.4 4.8 0.2
v -0.4 4.9 0.2
v -0.4 5 0.2
v -0.3 0.1 0.2
v -0.3 0.2 0.2
v -0.3 0.3 0.2
v -0.3 0.4 0.2
v -0.3 3.1 0.2
v -0.3 4.9 0.2
v -0.2 0.3 0.2
v -0.2 0.4 0.2
v -0.1 0.2 0.2
v -0.1 0.3 0.2
v 5.96046e-08 0.3 0.2
v 5.96046e-08 0.4 0.2
v 0.1 0.2 0.2
v 0.1 0.3 0.2
v 0.2 0.3 0.2
v 0.2 0.4 0.2
v 0.3 0.1 0.2
v 0.3 0.2 0.2
v 0.3 0.3 0.2
v 0.3 0.4 0.2
v 0.4 0.2 0.2
v 0.4 0.3 0.2
v -0.7 3 0.0999999
v -0.7 3.1 0.0999999
v -0.7 4.9 0.0999999
v -0.7 5 0.0999999
v -0.6 0.2 0.0999999
v -0.6 0.3 0.0999999
v -0.6 0.7 0.0999999
v -0.6 1 0.0999999
v -0.6 1.6 0.0999999
v -0.6 2.3 0.0999999
v -0.6 2.4 0.0999999
v -0.6 2.5 0.0999999
v -0.6 3 0.0999999
v -0.6 3.1 0.0999999
v -0.6 4.9 0.0999999
v -0.6 5 0.0999999
v -0.6 5.1 0.0999999
v -0.5 0.1 0.0999999
v -0.5 0.2 0.0999999
v -0.5 0.3 0.0999999
v -0.5 0.4 0.0999999
v -0.5 0.7 0.0999999
v -0.5 0.9 0.0999999
v -0.5 1 0.0999999
v -0.5 1.5 0.0999999
v -0.5 1.6 0.0999999
v -0.5 2.2 0.0999999
v -0.5 2.3 0.0999999
v -0.5 2.4 0.0999999
v -0.5 2.5 0.0999999
v -0.5 2.8 0.0999999
v -0.5 5 0.0999999
v -0.5 5.1 0.0999999
v -0.4 0 0.0999999
v -0.4 0.1 0.0999999
v -0.4 0.2 0.0999999
v -0.4 0.3 0.0999999
v -0.4 0.4 0.0999999
v -0.4 0.5 0.0999999
v -0.4 0.9 0.0999999
v -0.4 1.5 0.0999999
v -0.4 2.2 0.0999999
v -0.4 2.4 0.0999999
v -0.4 2.5 0.0999999
v -0.4 2.8 0.0999999
v -0.4 3 0.0999999
v -0.4 3.1 0.0999999
v -0.4 4.9 0.0999999
v -0.4 5 0.0999999
v -0.4 5.1 0.0999999
v -0.3 0.1 0.0999999
v -0.3 0.2 0.0999999
v -0.3 0.3 0.0999999
v -0.3 0.4 0.0999999
v -0.3 3 0.0999999
v -0.3 3.1 0.0999999
v -0.3 4.9 0.0999999
v -0.3 5 0.0999999
v -0.2 0 0.0999999
v -0.2 0.1 0.0999999
v -0.2 0.4 0.0999999
v 5.96046e-08 0.4 0.0999999
v 0.1 0.4 0.0999999
v 0.1 0.5 0.0999999
v 0.2 0.4 0.0999999
v 0.3 0.1 0.0999999
v 0.3 0.2 0.0999999
v 0.3 0.3 0.0999999
v 0.3 0.4 0.0999999
v 0.4 0 0.0999999
v 0.4 0.1 0.0999999
v 0.4 0.2 0.0999999
v 0.4 0.3 0.0999999
v 0.4 0.4 0.0999999
v 0.4 0.5 0.0999999
v 0.5 0.1 0.0999999
v 0.5 0.2 0.0999999
v 0.5 0.3 0.0999999
v 0.5 0.4 0.0999999
v 0.6 0.2 0.0999999
v 0.6 0.3 0.0999999
v -0.7 3 -0.1
v -0.7 3.1 -0.1
v -0.7 4.9 -0.1
v -0.7 5 -0.1
v -0.6 0.2 -0.1
v -0.6 0.3 -0.1
v -0.6 1 -0.1
v -0.6 2.1 -0.1
v -0.6 3 -0.1
v -0.6 3.1 -0.1
v -0.6 4.9 -0.1
v -0.6 5 -0.1
v -0.6 5.1 -0.1
v -0.5 0.1 -0.1
v -0.5 0.2 -0.1
v -0.5 0.3 -0.1
v -0.5 0.4 -0.1
v -0.5 0.5 -0.1
v -0.5 1 -0.1
v -0.5 1.4 -0.1
v -0.5 1.5 -0.1
v -0.5 2 -0.1
v -0.5 2.5 -0.1
v -0.5 2.7 -0.1
v -0.4 0 -0.1
v -0.4 0.1 -0.1
v -0.4 0.2 -0.1
v -0.4 0.3 -0.1
v -0.4 0.4 -0.1
v -0.4 0.5 -0.1
v -0.4 1.4 -0.1
v -0.4 1.5 -0.1
v -0.4 2 -0.1
v -0.4 2.1 -0.1
v -0.4 2.5 -0.1
v -0.4 2.7 -0.1
v -0.4 3 -0.1
v -0.4 3.1 -0.1
v -0.4 4.9 -0.1
v -0.4 5 -0.1
v -0.4 5.1 -0.1
v -0.3 0.1 -0.1
v -0.3 0.2 -0.1
v -0.3 0.3 -0.1
v -0.3 0.4 -0.1
v -0.3 0.5 -0.1
v -0.3 3 -0.1
v -0.3 3.1 -0.1
v -0.3 4.9 -0.1
v -0.3 5 -0.1
v -0.2 0.4 -0.1
v 5.96046e-08 0.1 -0.1
v 0.1 0.1 -0.1
v 0.1 0.4 -0.1
v 0.1 0.5 -0.1
v 0.2 0.1 -0.1
v 0.3 0.1 -0.1
v 0.3 0.2 -0.1
v 0.3 0.3 -0.1
v 0.3 0.4 -0.1
v 0.3 0.5 -0.1
v 0.4 0 -0.1
v 0.4 0.1 -0.1
v 0.4 0.2 -0.1
v 0.4 0.3 -0.1
v 0.4 0.4 -0.1
v 0.4 0.5 -0.1
v 0.5 0.1 -0.1
v 0.5 0.2 -0.1
v 0.5 0.3 -0.1
v 0.5 0.4 -0.1
v 0.6 0.2 -0.1
v 0.6 0.3 -0.1
v -0.7 3.1 -0.2
v -0.7 3.2 -0.2
v -0.7 4.9 -0.2
v -0.6 3 -0.2
v -0.6 3.1 -0.2
v -0.6 3.2 -0.2
v -0.6 3.3 -0.2
v -0.6 3.4 -0.2
v -0.6 3.5 -0.2
v -0.6 3.6 -0.2
v -0.6 3.7 -0.2
v -0.6 3.8 -0.2
v -0.6 3.9 -0.2
v -0.6 4 -0.2
v -0.6 4.1 -0.2
v -0.6 4.2 -0.2
v -0.6 4.3 -0.2
v -0.6 4.4 -0.2
v -0.6 4.5 -0.2
v -0.6 4.6 -0.2
v -0.6 4.7 -0.2
v -0.6 4.9 -0.2
v -0.6 5 -0.2
v -0.4 0.2 -0.2
v -0.4 0.3 -0.2
v -0.4 3 -0.2
v -0.4 3.1 -0.2
v -0.4 3.2 -0.2
v -0.4 3.3 -0.2
v -0.4 3.4 -0.2
v -0.4 3.5 -0.2
v -0.4 3.6 -0.2
v -0.4 3.7 -0.2
v -0.4 3.8 -0.2
v -0.4 3.9 -0.2
v -0.4 4 -0.2
v -0.4 4.1 -0.2
v -0.4 4.2 -0.2
v -0.4 4.3 -0.2
v -0.4 4.4 -0.2
v -0.4 4.5 -0.2
v -0.4 4.6 -0.2
v -0.4 4.7 -0.2
v -0.4 4.9 -0.2
v -0.4 5 -0.2
v -0.3 0.1 -0.2
v -0.3 0.2 -0.2
v -0.3 0.3 -0.2
v -0.3 0.4 -0.2
v -0.3 3.1 -0.2
v -0.3 4.3 -0.2
v -0.3 4.6 -0.2
v -0.3 4.9 -0.2
v -0.2 0.2 -0.2
v -0.2 0.3 -0.2
v -0.2 0.4 -0.2
v 5.96046e-08 0.1 -0.2
v 5.96046e-08 0.2 -0.2
v 5.96046e-08 0.3 -0.2
v 0.1 0.1 -0.2
v 0.1 0.2 -0.2
v 0.1 0.3 -0.2
v 0.1 0.4 -0.2
v 0.2 0.1 -0.2
v 0.2 0.3 -0.2
v 0.3 0.1 -0.2
v 0.3 0.2 -0.2
v 0.3 0.3 -0.2
v 0.3 0.4 -0.2
v 0.4 0.2 -0.2
v 0.4 0.3 -0.2
v -0.4 0 0.0999999
v -0.2 0 0.0999999
v 0.4 0 0.0999999
v -0.2 0 -5.96046e-08
v 0.4 0 -5.96046e-08
v -0.4 0 -0.1
v 0.4 0 -0.1
v -0.3 0.1 0.2
v 0.3 0.1 0.2
v -0.5 0.1 0.0999999
v -0.4 0.1 0.0999999
v -0.3 0.1 0.0999999
v -0.2 0.1 0.0999999
v 0.3 0.1 0.0999999
v 0.4 0.1 0.0999999
v 0.5 0.1 0.0999999
v 0.4 0.1 -5.96046e-08
v 0.5 0.1 -5.96046e-08
v -0.5 0.1 -0.1
v -0.4 0.1 -0.1
v -0.3 0.1 -0.1
v 5.96046e-08 0.1 -0.1
v 0.1 0.1 -0.1
v 0.2 0.1 -0.1
v 0.3 0.1 -0.1
v 0.4 0.1 -0.1
v 0.5 0.1 -0.1
v -0.3 0.1 -0.2
v 5.96046e-08 0.1 -0.2
v 0.1 0.1 -0.2
v 0.2 0.1 -0.2
v 0.3 0.1 -0.2
v -0.4 0.2 0.2
v -0.3 0.2 0.2
v 0.3 0.2 0.2
v 0.4 0.2 0.2
v -0.6 0.2 0.0999999
v -0.5 0.2 0.0999999
v -0.4 0.2 0.0999999
v -0.3 0.2 0.0999999
v 0.3 0.2 0.0999999
v 0.4 0.2 0.0999999
v 0.5 0.2 0.0999999
v 0.6 0.2 0.0999999
v 0.5 0.2 -5.96046e-08
v 0.6 0.2 -5.96046e-08
v -0.6 0.2 -0.1
v -0.5 0.2 -0.1
v -0.4 0.2 -0.1
v -0.3 0.2 -0.1
v 0.3 0.2 -0.1
v 0.4 0.2 -0.1
v 0.5 0.2 -0.1
v 0.6 0.2 -0.1
v -0.4 0.2 -0.2
v -0.3 0.2 -0.2
v 0.3 0.2 -0.2
v 0.4 0.2 -0.2
v -0.6 3 0.2
v -0.4 3 0.2
v -0.7 3 0.0999999
v -0.6 3 0.0999999
v -0.4 3 0.0999999
v -0.3 3 0.0999999
v -0.7 3 -5.96046e-08
v -0.6 3 -5.96046e-08
v -0.4 3 -5.96046e-08
v -0.3 3 -5.96046e-08
v -0.7 3 -0.1
v -0.6 3 -0.1
v -0.4 3 -0.1
v -0.3 3 -0.1
v -0.6 3 -0.2
v -0.4 3 -0.2
v -0.7 3.1 0.2
v -0.6 3.1 0.2
v -0.4 3.1 0.2
v -0.3 3.1 0.2
v -0.7 3.1 0.0999999
v -0.6 3.1 0.0999999
v -0.4 3.1 0.0999999
v -0.3 3.1 0.0999999
v -0.7 3.1 -0.1
v -0.6 3.1 -0.1
v -0.4 3.1 -0.1
v -0.3 3.1 -0.1
v -0.7 3.1 -0.2
v -0.6 3.1 -0.2
v -0.4 3.1 -0.2
v -0.3 3.1 -0.2
v -0.4 0.3 0.2
v -0.3 0.3 0.2
v 0.3 0.3 0.2
v 0.4 0.3 0.2
v -0.4 0.3 0.0999999
v -0.3 0.3 0.0999999
v 0.3 0.3 0.0999999
v 0.4 0.3 0.0999999
v 0.5 0.3 0.0999999
v 0.6 0.3 0.0999999
v 0.5 0.3 -5.96046e-08
v 0.6 0.3 -5.96046e-08
v -0.4 0.3 -0.1
v -0.3 0.3 -0.1
v 0.3 0.3 -0.1
v 0.4 0.3 -0.1
v 0.5 0.3 -0.1
v 0.6 0.3 -0.1
v -0.4 0.3 -0.2
v -0.3 0.3 -0.2
v 0.3 0.3 -0.2
v 0.4 0.3 -0.2
v -0.3 0.4 0.2
v -0.2 0.4 0.2
v 5.96046e-08 0.4 0.2
v 0.2 0.4 0.2
v 0.3 0.4 0.2
v -0.3 0.4 0.0999999
v -0.2 0.4 0.0999999
v 5.96046e-08 0.4 0.0999999
v 0.1 0.4 0.0999999
v 0.2 0.4 0.0999999
v 0.3 0.4 0.0999999
v 0.4 0.4 0.0999999
v 0.5 0.4 0.0999999
v 0.4 0.4 -5.96046e-08
v -0.3 0.4 -0.1
v -0.2 0.4 -0.1
v 0.1 0.4 -0.1
v 0.3 0.4 -0.1
v 0.4 0.4 -0.1
v 0.5 0.4 -0.1
v -0.3 0.4 -0.2
v -0.2 0.4 -0.2
v 0.1 0.4 -0.2
v 0.3 0.4 -0.2
v -0.4 0.5 0.0999999
v 0.1 0.5 0.0999999
v 0.4 0.5 0.0999999
v -0.4 0.5 -5.96046e-08
v -0.3 0.5 -5.96046e-08
v 0.3 0.5 -5.96046e-08
v 0.4 0.5 -5.96046e-08
v -0.4 0.5 -0.1
v -0.3 0.5 -0.1
v 0.1 0.5 -0.1
v 0.3 0.5 -0.1
v 0.4 0.5 -0.1
v -0.7 4.9 0.2
v -0.6 4.9 0.2
v -0.4 4.9 0.2
v -0.3 4.9 0.2
v -0.7 4.9 0.0999999
v -0.6 4.9 0.0999999
v -0.4 4.9 0.0999999
v -0.3 4.9 0.0999999
v -0.7 4.9 -0.1
v -0.6 4.9 -0.1
v -0.4 4.9 -0.1
v -0.3 4.9 -0.1
v -0.7 4.9 -0.2
v -0.6 4.9 -0.2
v -0.4 4.9 -0.2
v -0.3 4.9 -0.2
v -0.6 5 0.2
v -0.4 5 0.2
v -0.7 5 0.0999999
v -0.6 5 0.0999999
v -0.5 5 0.0999999
v -0.4 5 0.0999999
v -0.3 5 0.0999999
v -0.7 5 -5.96046e-08
v -0.6 5 -5.96046e-08
v -0.7 5 -0.1
v -0.6 5 -0.1
v -0.4 5 -0.1
v -0.3 5 -0.1
v -0.6 5 -0.2
v -0.4 5 -0.2
v -0.6 5.1 0.0999999
v -0.5 5.1 0.0999999
v -0.4 5.1 0.0999999
v -0.6 5.1 -5.96046e-08
v -0.5 5.1 -5.96046e-08
v -0.6 5.1 -0.1
v -0.4 5.1 -0.1

# faces
f 5/6/1 2/6/1 1/6/1
f 6/5/1 3/5/1 2/5/1
f 6/6/1 2/6/1 5/6/1
f 7/5/1 3/5/1 6/5/1
f 9/6/1 5/6/1 4/6/1
f 9/5/1 8/5/1 7/5/1
f 9/6/1 7/6/1 6/6/1
f 9/6/1 6/6/1 5/6/1
f 10/5/1 8/5/1 9/5/1
f 11/6/1 9/6/1 4/6/1
f 11/6/1 10/6/1 9/6/1
f 12/6/1 10/6/1 11/6/1
f 13/6/1 11/6/1 4/6/1
f 14/5/1 12/5/1 11/5/1
f 14/6/1 11/6/1 13/6/1
f 15/6/1 10/6/1 12/6/1
f 15/5/1 12/5/1 14/5/1
f 16/5/1 14/5/1 13/5/1
f 16/6/1 13/6/1 4/6/1
f 17/6/1 15/6/1 14/6/1
f 17/5/1 14/5/1 16/5/1
f 18/6/1 16/6/1 4/6/1
f 18/6/1 17/6/1 16/6/1
f 19/6/1 17/6/1 18/6/1
f 20/6/1 15/6/1 17/6/1
f 20/6/1 17/6/1 19/6/1
f 21/6/1 10/6/1 15/6/1
f 21/6/1 15/6/1 20/6/1
f 22/6/1 10/6/1 21/6/1
f 23/6/1 20/6/1 19/6/1
f 24/5/1 21/5/1 20/5/1
f 24/6/1 20/6/1 23/6/1
f 25/5/1 21/5/1 24/5/1
f 28/3/1 27/3/1 26/3/1
f 29/3/1 27/3/1 28/3/1
f 30/2/1 29/2/1 28/2/1
f 31/2/1 29/2/1 30/2/1
f 32/3/1 31/3/1 30/3/1
f 33/2/1 29/2/1 31/2/1
f 33/3/1 31/3/1 32/3/1
f 34/2/1 29/2/1 33/2/1
f 35/2/1 33/2/1 32/2/1
f 36/3/1 34/3/1 33/3/1
f 36/2/1 33/2/1 35/2/1
f 37/3/1 36/3/1 35/3/1
f 37/3/1 34/3/1 36/3/1
f 38/3/1 34/3/1 37/3/1
f 39/3/1 37/3/1 35/3/1
f 40/2/1 38/2/1 37/2/1
f 40/3/1 37/3/1 39/3/1
f 41/2/1 40/2/1 39/2/1
f 42/2/1 38/2/1 40/2/1
f 42/2/1 40/2/1 41/2/1
f 43/3/1 42/3/1 41/3/1
f 44/2/1 38/2/1 42/2/1
f 44/3/1 42/3/1 43/3/1
f 46/2/1 44/2/1 43/2/1
f 47/2/1 38/2/1 44/2/1
f 47/2/1 44/2/1 46/2/1
f 48/2/1 38/2/1 47/2/1
f 50/6/1 46/6/1 45/6/1
f 51/6/1 46/6/1 50/6/1
f 52/5/1 49/5/1 48/5/1
f 53/5/1 49/5/1 52/5/1
f 58/6/1 55/6/1 54/6/1
f 59/6/1 55/6/1 58/6/1
f 61/6/1 57/6/1 56/6/1
f 62/6/1 57/6/1 61/6/1
f 63/6/1 60/6/1 59/6/1
f 64/5/1 61/5/1 60/5/1
f 64/6/1 60/6/1 63/6/1
f 65/5/1 61/5/1 64/5/1
f 68/4/1 67/4/1 66/4/1
f 69/4/1 67/4/1 68/4/1
f 72/3/1 71/3/1 70/3/1
f 73/3/1 71/3/1 72/3/1
f 78/4/1 75/4/1 74/4/1
f 79/4/1 75/4/1 78/4/1
f 80/3/1 77/3/1 76/3/1
f 81/3/1 77/3/1 80/3/1
f 86/3/1 83/3/1 82/3/1
f 87/3/1 83/3/1 86/3/1
f 88/3/1 85/3/1 84/3/1
f 89/3/1 85/3/1 88/3/1
f 94/4/1 91/4/1 90/4/1
f 95/4/1 91/4/1 94/4/1
f 96/4/1 93/4/1 92/4/1
f 97/4/1 93/4/1 96/4/1
f 98/2/2 99/2/2 101/2/2
f 99/2/2 100/2/2 101/2/2
f 101/2/2 100/2/2 102/2/2
f 101/3/2 102/3/2 103/3/2
f 102/2/2 100/2/2 103/2/2
f 103/2/2 100/2/2 104/2/2
f 101/3/2 103/3/2 105/3/2
f 103/3/2 104/3/2 105/3/2
f 105/3/2 104/3/2 106/3/2
f 105/2/2 106/2/2 107/2/2
f 107/2/2 106/2/2 108/2/2
f 105/2/2 107/2/2 109/2/2
f 107/3/2 108/3/2 109/3/2
f 109/3/2 108/3/2 110/3/2
f 105/2/2 109/2/2 111/2/2
f 109/2/2 110/2/2 111/2/2
f 111/2/2 110/2/2 112/2/2
f 111/3/2 112/3/2 113/3/2
f 112/2/2 110/2/2 114/2/2
f 113/3/2 112/3/2 114/3/2
f 113/2/2 114/2/2 115/2/2
f 114/2/2 110/2/2 116/2/2
f 115/2/2 114/2/2 116/2/2
f 115/3/2 116/3/2 117/3/2
f 117/3/2 116/3/2 118/3/2
f 115/3/2 117/3/2 119/3/2
f 117/2/2 118/2/2 120/2/2
f 119/3/2 117/3/2 120/3/2
f 119/2/2 120/2/2 122/2/2
f 120/2/2 118/2/2 123/2/2
f 122/2/2 120/2/2 123/2/2
f 123/2/2 118/2/2 124/2/2
f 121/6/2 122/6/2 126/6/2
f 126/6/2 122/6/2 127/6/2
f 124/5/2 125/5/2 128/5/2
f 128/5/2 125/5/2 129/5/2
f 130/6/2 131/6/2 134/6/2
f 134/6/2 131/6/2 135/6/2
f 132/6/2 133/6/2 136/6/2
f 136/6/2 133/6/2 137/6/2
f 135/5/2 136/5/2 138/5/2
f 138/5/2 136/5/2 139/5/2
f 140/6/2 141/6/2 144/6/2
f 141/5/2 142/5/2 145/5/2
f 144/6/2 141/6/2 145/6/2
f 145/5/2 142/5/2 146/5/2
f 143/6/2 144/6/2 148/6/2
f 146/6/2 147/6/2 148/6/2
f 145/6/2 146/6/2 148/6/2
f 144/6/2 145/6/2 148/6/2
f 148/6/2 147/6/2 149/6/2
f 143/6/2 148/6/2 150/6/2
f 148/5/2 149/5/2 150/5/2
f 149/6/2 147/6/2 151/6/2
f 150/5/2 149/5/2 151/5/2
f 143/6/2 150/6/2 152/6/2
f 150/6/2 151/6/2 152/6/2
f 152/6/2 151/6/2 153/6/2
f 143/6/2 152/6/2 154/6/2
f 152/5/2 153/5/2 154/5/2
f 153/6/2 151/6/2 155/6/2
f 154/5/2 153/5/2 155/5/2
f 151/6/2 147/6/2 156/6/2
f 155/6/2 151/6/2 156/6/2
f 154/6/2 155/6/2 157/6/2
f 155/5/2 156/5/2 157/5/2
f 156/6/2 147/6/2 158/6/2
f 157/5/2 156/5/2 158/5/2
f 158/6/2 147/6/2 159/6/2
f 157/6/2 158/6/2 160/6/2
f 158/5/2 159/5/2 160/5/2
f 160/5/2 159/5/2 161/5/2
f 154/6/2 157/6/2 162/6/2
f 143/6/2 154/6/2 162/6/2
f 160/6/2 161/6/2 162/6/2
f 157/6/2 160/6/2 162/6/2
f 162/6/2 161/6/2 163/6/2
f 163/6/2 161/6/2 164/6/2
f 164/6/2 161/6/2 165/6/2
f 163/6/2 164/6/2 166/6/2
f 166/6/2 164/6/2 167/6/2
f 168/3/2 169/3/2 172/3/2
f 172/3/2 169/3/2 173/3/2
f 170/4/2 171/4/2 174/4/2
f 174/4/2 171/4/2 175/4/2
f 176/3/2 177/3/2 180/3/2
f 180/3/2 177/3/2 181/3/2
f 178/4/2 179/4/2 182/4/2
f 182/4/2 179/4/2 183/4/2
f 184/4/2 185/4/2 187/4/2
f 185/3/2 186/3/2 188/3/2
f 187/4/2 185/4/2 188/4/2
f 188/3/2 186/3/2 189/3/2
f 190/4/2 191/4/2 194/4/2
f 194/4/2 191/4/2 195/4/2
f 192/3/2 193/3/2 196/3/2
f 196/3/2 193/3/2 197/3/2
f 198/4/2 199/4/2 201/4/2
f 199/3/2 200/3/2 202/3/2
f 201/4/2 199/4/2 202/4/2
f 202/3/2 200/3/2 203/3/2
f 204/4/2 205/4/2 207/4/2
f 205/3/2 206/3/2 208/3/2
f 207/4/2 205/4/2 208/4/2
f 208/3/2 206/3/2 209/3/2
f 210/3/2 211/3/2 213/3/2
f 211/3/2 212/3/2 213/3/2
f 213/3/2 212/3/2 214/3/2
f 215/4/2 216/4/2 218/4/2
f 216/3/2 217/3/2 219/3/2
f 218/4/2 216/4/2 219/4/2
f 219/3/2 217/3/2 220/3/2
f 224/6/3 222/6/3 221/6/3
f 225/6/3 222/6/3 224/6/3
f 226/6/3 222/6/3 225/6/3
f 227/6/3 222/6/3 226/6/3
f 228/6/3 222/6/3 227/6/3
f 229/6/3 222/6/3 228/6/3
f 230/6/3 222/6/3 229/6/3
f 231/6/3 222/6/3 230/6/3
f 232/6/3 222/6/3 231/6/3
f 233/6/3 222/6/3 232/6/3
f 234/6/3 222/6/3 233/6/3
f 235/6/3 222/6/3 234/6/3
f 236/6/3 222/6/3 235/6/3
f 237/6/3 222/6/3 236/6/3
f 238/6/3 222/6/3 237/6/3
f 239/6/3 222/6/3 238/6/3
f 240/6/3 222/6/3 239/6/3
f 241/6/3 222/6/3 240/6/3
f 242/6/3 222/6/3 241/6/3
f 246/6/3 224/6/3 223/6/3
f 247/1/3 225/1/3 224/1/3
f 247/6/3 224/6/3 246/6/3
f 248/6/3 226/6/3 225/6/3
f 248/1/3 225/1/3 247/1/3
f 249/1/3 227/1/3 226/1/3
f 249/6/3 226/6/3 248/6/3
f 250/6/3 228/6/3 227/6/3
f 250/1/3 227/1/3 249/1/3
f 251/1/3 229/1/3 228/1/3
f 251/6/3 228/6/3 250/6/3
f 252/6/3 230/6/3 229/6/3
f 252/1/3 229/1/3 251/1/3
f 253/1/3 231/1/3 230/1/3
f 253/6/3 230/6/3 252/6/3
f 254/6/3 232/6/3 231/6/3
f 254/1/3 231/1/3 253/1/3
f 255/1/3 233/1/3 232/1/3
f 255/6/3 232/6/3 254/6/3
f 256/6/3 234/6/3 233/6/3
f 256/1/3 233/1/3 255/1/3
f 257/1/3 235/1/3 234/1/3
f 257/6/3 234/6/3 256/6/3
f 258/6/3 236/6/3 235/6/3
f 258/1/3 235/1/3 257/1/3
f 259/1/3 237/1/3 236/1/3
f 259/6/3 236/6/3 258/6/3
f 260/6/3 238/6/3 237/6/3
f 260/1/3 237/1/3 259/1/3
f 261/1/3 239/1/3 238/1/3
f 261/6/3 238/6/3 260/6/3
f 262/6/3 240/6/3 239/6/3
f 262/1/3 239/1/3 261/1/3
f 263/1/3 241/1/3 240/1/3
f 263/6/3 240/6/3 262/6/3
f 264/6/3 242/6/3 241/6/3
f 264/1/3 241/1/3 263/1/3
f 264/6/3 243/6/3 242/6/3
f 265/6/3 243/6/3 264/6/3
f 266/6/3 243/6/3 265/6/3
f 268/4/3 245/4/3 244/4/3
f 269/4/3 245/4/3 268/4/3
f 271/6/3 265/6/3 264/6/3
f 271/6/3 248/6/3 247/6/3
f 271/6/3 249/6/3 248/6/3
f 271/6/3 250/6/3 249/6/3
f 271/6/3 251/6/3 250/6/3
f 271/6/3 264/6/3 263/6/3
f 271/6/3 263/6/3 262/6/3
f 271/6/3 262/6/3 261/6/3
f 271/6/3 261/6/3 260/6/3
f 271/6/3 260/6/3 259/6/3
f 271/6/3 259/6/3 258/6/3
f 271/6/3 258/6/3 257/6/3
f 271/6/3 257/6/3 256/6/3
f 271/6/3 256/6/3 255/6/3
f 271/6/3 255/6/3 254/6/3
f 271/6/3 254/6/3 253/6/3
f 271/6/3 253/6/3 252/6/3
f 271/6/3 252/6/3 251/6/3
f 272/6/3 265/6/3 271/6/3
f 273/4/3 270/4/3 269/4/3
f 273/3/3 269/3/3 268/3/3
f 273/3/3 268/3/3 267/3/3
f 274/4/3 270/4/3 273/4/3
f 275/3/3 273/3/3 267/3/3
f 275/3/3 274/3/3 273/3/3
f 276/3/3 274/3/3 275/3/3
f 277/4/3 276/4/3 275/4/3
f 277/3/3 274/3/3 276/3/3
f 278/3/3 274/3/3 277/3/3
f 279/3/3 275/3/3 267/3/3
f 279/4/3 277/4/3 275/4/3
f 279/4/3 278/4/3 277/4/3
f 280/4/3 278/4/3 279/4/3
f 281/3/3 280/3/3 279/3/3
f 281/4/3 278/4/3 280/4/3
f 282/4/3 278/4/3 281/4/3
f 283/3/3 279/3/3 267/3/3
f 283/3/3 281/3/3 279/3/3
f 283/3/3 282/3/3 281/3/3
f 284/3/3 282/3/3 283/3/3
f 285/3/3 282/3/3 284/3/3
f 286/3/3 282/3/3 285/3/3
f 287/4/3 285/4/3 284/4/3
f 288/4/3 285/4/3 287/4/3
f 301/6/3 290/6/3 289/6/3
f 302/6/3 290/6/3 301/6/3
f 303/6/3 292/6/3 291/6/3
f 304/6/3 292/6/3 303/6/3
f 307/3/3 294/3/3 293/3/3
f 308/2/3 295/2/3 294/2/3
f 308/3/3 294/3/3 307/3/3
f 309/2/3 295/2/3 308/2/3
f 310/3/3 296/3/3 295/3/3
f 310/2/3 295/2/3 309/2/3
f 311/3/3 296/3/3 310/3/3
f 312/2/3 297/2/3 296/2/3
f 312/3/3 296/3/3 311/3/3
f 313/2/3 297/2/3 312/2/3
f 314/3/3 298/3/3 297/3/3
f 314/2/3 297/2/3 313/2/3
f 315/3/3 298/3/3 314/3/3
f 316/2/3 299/2/3 298/2/3
f 316/3/3 298/3/3 315/3/3
f 317/3/3 300/3/3 299/3/3
f 317/2/3 299/2/3 316/2/3
f 318/2/3 301/2/3 300/2/3
f 318/3/3 300/3/3 317/3/3
f 319/2/3 301/2/3 318/2/3
f 320/6/3 305/6/3 304/6/3
f 321/6/3 305/6/3 320/6/3
f 323/4/3 307/4/3 306/4/3
f 324/3/3 309/3/3 308/3/3
f 324/3/3 308/3/3 307/3/3
f 324/4/3 307/4/3 323/4/3
f 325/3/3 309/3/3 324/3/3
f 326/2/3 311/2/3 310/2/3
f 326/3/3 309/3/3 325/3/3
f 326/2/3 310/2/3 309/2/3
f 327/2/3 311/2/3 326/2/3
f 328/3/3 313/3/3 312/3/3
f 328/2/3 311/2/3 327/2/3
f 328/3/3 312/3/3 311/3/3
f 329/2/3 315/2/3 314/2/3
f 329/3/3 313/3/3 328/3/3
f 329/2/3 314/2/3 313/2/3
f 330/3/3 316/3/3 315/3/3
f 330/2/3 315/2/3 329/2/3
f 330/3/3 317/3/3 316/3/3
f 331/2/3 318/2/3 317/2/3
f 331/3/3 317/3/3 330/3/3
f 332/3/3 319/3/3 318/3/3
f 332/2/3 318/2/3 331/2/3
f 333/2/3 301/2/3 319/2/3
f 333/3/3 319/3/3 332/3/3
f 334/2/3 301/2/3 333/2/3
f 337/5/3 321/5/3 320/5/3
f 338/5/3 321/5/3 337/5/3
f 339/3/3 323/3/3 322/3/3
f 339/4/3 324/4/3 323/4/3
f 340/4/3 324/4/3 339/4/3
f 341/3/3 327/3/3 326/3/3
f 341/3/3 326/3/3 325/3/3
f 342/3/3 327/3/3 341/3/3
f 343/6/3 335/6/3 334/6/3
f 344/6/3 335/6/3 343/6/3
f 345/6/3 337/6/3 336/6/3
f 346/6/3 337/6/3 345/6/3
f 347/3/3 339/3/3 322/3/3
f 348/3/3 339/3/3 347/3/3
f 349/3/3 327/3/3 342/3/3
f 350/3/3 327/3/3 349/3/3
f 351/3/3 327/3/3 350/3/3
f 352/3/3 327/3/3 351/3/3
f 353/4/3 352/4/3 351/4/3
f 354/4/3 348/4/3 347/4/3
f 357/4/3 352/4/3 353/4/3
f 358/4/3 355/4/3 354/4/3
f 358/4/3 354/4/3 347/4/3
f 359/4/3 355/4/3 358/4/3
f 360/4/3 355/4/3 359/4/3
f 361/3/3 357/3/3 356/3/3
f 362/4/3 352/4/3 357/4/3
f 362/3/3 357/3/3 361/3/3
f 363/4/3 352/4/3 362/4/3
f 364/4/3 360/4/3 359/4/3
f 364/4/3 361/4/3 360/4/3
f 365/4/3 361/4/3 364/4/3
f 366/3/3 362/3/3 361/3/3
f 366/4/3 361/4/3 365/4/3
f 367/3/3 362/3/3 366/3/3
f 368/4/3 366/4/3 365/4/3
f 369/4/3 366/4/3 368/4/3
f 370/5/4 371/5/4 378/5/4
f 378/5/4 371/5/4 379/5/4
f 372/5/4 373/5/4 380/5/4
f 380/5/4 373/5/4 381/5/4
f 374/3/4 375/3/4 384/3/4
f 375/2/4 376/2/4 385/2/4
f 384/3/4 375/3/4 385/3/4
f 385/2/4 376/2/4 386/2/4
f 386/2/4 376/2/4 387/2/4
f 376/3/4 377/3/4 388/3/4
f 387/2/4 376/2/4 388/2/4
f 388/3/4 377/3/4 389/3/4
f 389/3/4 377/3/4 390/3/4
f 390/3/4 377/3/4 391/3/4
f 377/2/4 378/2/4 392/2/4
f 392/2/4 378/2/4 393/2/4
f 383/4/4 384/4/4 395/4/4
f 384/3/4 385/3/4 396/3/4
f 385/3/4 386/3/4 396/3/4
f 395/4/4 384/4/4 396/4/4
f 396/3/4 386/3/4 397/3/4
f 386/4/4 387/4/4 398/4/4
f 397/3/4 386/3/4 398/3/4
f 387/2/4 388/2/4 399/2/4
f 398/4/4 387/4/4 399/4/4
f 388/2/4 389/2/4 399/2/4
f 389/3/4 390/3/4 400/3/4
f 399/2/4 389/2/4 400/2/4
f 390/2/4 391/2/4 401/2/4
f 400/3/4 390/3/4 401/3/4
f 391/3/4 377/3/4 402/3/4
f 401/2/4 391/2/4 402/2/4
f 377/2/4 392/2/4 403/2/4
f 402/3/4 377/3/4 403/3/4
f 392/3/4 393/3/4 404/3/4
f 403/2/4 392/2/4 404/2/4
f 393/2/4 378/2/4 405/2/4
f 404/3/4 393/3/4 405/3/4
f 405/2/4 378/2/4 406/2/4
f 381/5/4 382/5/4 409/5/4
f 409/5/4 382/5/4 410/5/4
f 394/3/4 395/3/4 411/3/4
f 395/3/4 396/3/4 411/3/4
f 411/3/4 396/3/4 412/3/4
f 398/4/4 399/4/4 413/4/4
f 397/4/4 398/4/4 413/4/4
f 413/4/4 399/4/4 414/4/4
f 414/4/4 399/4/4 415/4/4
f 406/5/4 407/5/4 416/5/4
f 416/5/4 407/5/4 417/5/4
f 408/6/4 409/6/4 418/6/4
f 418/6/4 409/6/4 419/6/4
f 414/3/4 415/3/4 420/3/4
f 394/3/4 411/3/4 421/3/4
f 394/3/4 421/3/4 422/3/4
f 420/3/4 415/3/4 423/3/4
f 423/3/4 415/3/4 424/3/4
f 394/3/4 422/3/4 425/3/4
f 394/3/4 425/3/4 426/3/4
f 423/4/4 424/4/4 429/4/4
f 429/4/4 424/4/4 430/4/4
f 426/3/4 427/3/4 431/3/4
f 394/3/4 426/3/4 431/3/4
f 431/3/4 427/3/4 432/3/4
f 432/3/4 427/3/4 433/3/4
f 429/3/4 430/3/4 434/3/4
f 428/3/4 429/3/4 434/3/4
f 434/3/4 430/3/4 435/3/4
f 435/3/4 430/3/4 436/3/4
f 432/3/4 433/3/4 437/3/4
f 434/3/4 435/3/4 437/3/4
f 433/3/4 434/3/4 437/3/4
f 437/3/4 435/3/4 438/3/4
f 438/3/4 435/3/4 439/3/4
f 439/3/4 435/3/4 440/3/4
f 438/3/4 439/3/4 441/3/4
f 441/3/4 439/3/4 442/3/4
f 443/5/4 444/5/4 447/5/4
f 444/6/4 445/6/4 448/6/4
f 447/5/4 444/5/4 448/5/4
f 448/6/4 445/6/4 449/6/4
f 449/6/4 445/6/4 450/6/4
f 450/6/4 445/6/4 451/6/4
f 451/6/4 445/6/4 452/6/4
f 452/6/4 445/6/4 453/6/4
f 453/6/4 445/6/4 454/6/4
f 454/6/4 445/6/4 455/6/4
f 455/6/4 445/6/4 456/6/4
f 456/6/4 445/6/4 457/6/4
f 457/6/4 445/6/4 458/6/4
f 458/6/4 445/6/4 459/6/4
f 459/6/4 445/6/4 460/6/4
f 460/6/4 445/6/4 461/6/4
f 461/6/4 445/6/4 462/6/4
f 462/6/4 445/6/4 463/6/4
f 463/6/4 445/6/4 464/6/4
f 446/5/4 447/5/4 468/5/4
f 447/6/4 448/6/4 469/6/4
f 468/5/4 447/5/4 469/5/4
f 448/1/4 449/1/4 470/1/4
f 469/6/4 448/6/4 470/6/4
f 449/6/4 450/6/4 471/6/4
f 470/1/4 449/1/4 471/1/4
f 450/1/4 451/1/4 472/1/4
f 471/6/4 450/6/4 472/6/4
f 451/6/4 452/6/4 473/6/4
f 472/1/4 451/1/4 473/1/4
f 452/1/4 453/1/4 474/1/4
f 473/6/4 452/6/4 474/6/4
f 453/6/4 454/6/4 475/6/4
f 474/1/4 453/1/4 475/1/4
f 454/1/4 455/1/4 476/1/4
f 475/6/4 454/6/4 476/6/4
f 455/6/4 456/6/4 477/6/4
f 476/1/4 455/1/4 477/1/4
f 456/1/4 457/1/4 478/1/4
f 477/6/4 456/6/4 478/6/4
f 457/6/4 458/6/4 479/6/4
f 478/1/4 457/1/4 479/1/4
f 458/1/4 459/1/4 480/1/4
f 479/6/4 458/6/4 480/6/4
f 459/6/4 460/6/4 481/6/4
f 480/1/4 459/1/4 481/1/4
f 460/1/4 461/1/4 482/1/4
f 481/6/4 460/6/4 482/6/4
f 461/6/4 462/6/4 483/6/4
f 482/1/4 461/1/4 483/1/4
f 462/1/4 463/1/4 484/1/4
f 483/6/4 462/6/4 484/6/4
f 463/6/4 464/6/4 485/6/4
f 484/1/4 463/1/4 485/1/4
f 464/6/4 465/6/4 485/6/4
f 485/6/4 465/6/4 486/6/4
f 486/6/4 465/6/4 487/6/4
f 466/3/4 467/3/4 489/3/4
f 489/3/4 467/3/4 490/3/4
f 469/6/4 470/6/4 492/6/4
f 470/6/4 471/6/4 492/6/4
f 471/6/4 472/6/4 492/6/4
f 472/6/4 473/6/4 492/6/4
f 473/6/4 474/6/4 492/6/4
f 474/6/4 475/6/4 492/6/4
f 475/6/4 476/6/4 492/6/4
f 476/6/4 477/6/4 492/6/4
f 477/6/4 478/6/4 492/6/4
f 480/6/4 481/6/4 492/6/4
f 479/6/4 480/6/4 492/6/4
f 478/6/4 479/6/4 492/6/4
f 483/5/4 484/5/4 493/5/4
f 492/6/4 481/6/4 493/6/4
f 482/5/4 483/5/4 493/5/4
f 481/5/4 482/5/4 493/5/4
f 485/6/4 486/6/4 494/6/4
f 493/5/4 484/5/4 494/5/4
f 484/6/4 485/6/4 494/6/4
f 494/6/4 486/6/4 495/6/4
f 489/3/4 490/3/4 496/3/4
f 488/3/4 489/3/4 496/3/4
f 490/4/4 491/4/4 497/4/4
f 496/3/4 490/3/4 497/3/4
f 497/4/4 491/4/4 498/4/4
f 488/3/4 496/3/4 499/3/4
f 496/4/4 497/4/4 500/4/4
f 499/3/4 496/3/4 500/3/4
f 497/3/4 498/3/4 501/3/4
f 500/4/4 497/4/4 501/4/4
f 499/4/4 500/4/4 502/4/4
f 500/3/4 501/3/4 503/3/4
f 502/4/4 500/4/4 503/4/4
f 501/3/4 498/3/4 504/3/4
f 503/3/4 501/3/4 504/3/4
f 504/3/4 498/3/4 505/3/4
f 502/3/4 503/3/4 506/3/4
f 503/3/4 504/3/4 506/3/4
f 504/4/4 505/4/4 507/4/4
f 506/3/4 504/3/4 507/3/4
f 506/4/4 507/4/4 508/4/4
f 508/4/4 507/4/4 509/4/4
f 507/4/4 505/4/4 510/4/4
f 509/4/4 507/4/4 510/4/4
f 510/4/4 505/4/4 511/4/4
f 509/3/4 510/3/4 512/3/4
f 512/3/4 510/3/4 513/3/4
f 517/3/5 515/3/5 514/3/5
f 517/4/5 516/4/5 515/4/5
f 518/4/5 516/4/5 517/4/5
f 519/3/5 517/3/5 514/3/5
f 519/3/5 518/3/5 517/3/5
f 520/3/5 518/3/5 519/3/5
f 525/3/5 522/3/5 521/3/5
f 526/3/5 522/3/5 525/3/5
f 527/3/5 522/3/5 526/3/5
f 530/4/5 529/4/5 528/4/5
f 531/4/5 529/4/5 530/4/5
f 532/4/5 524/4/5 523/4/5
f 533/4/5 524/4/5 532/4/5
f 539/3/5 531/3/5 530/3/5
f 540/3/5 531/3/5 539/3/5
f 541/3/5 535/3/5 534/3/5
f 542/4/5 536/4/5 535/4/5
f 542/3/5 535/3/5 541/3/5
f 543/3/5 537/3/5 536/3/5
f 543/4/5 536/4/5 542/4/5
f 544/4/5 538/4/5 537/4/5
f 544/3/5 537/3/5 543/3/5
f 545/4/5 538/4/5 544/4/5
f 552/4/5 547/4/5 546/4/5
f 553/4/5 547/4/5 552/4/5
f 554/4/5 549/4/5 548/4/5
f 555/4/5 549/4/5 554/4/5
f 558/4/5 557/4/5 556/4/5
f 559/4/5 557/4/5 558/4/5
f 560/3/5 551/3/5 550/3/5
f 561/3/5 551/3/5 560/3/5
f 566/3/5 559/3/5 558/3/5
f 567/3/5 559/3/5 566/3/5
f 568/3/5 563/3/5 562/3/5
f 569/3/5 563/3/5 568/3/5
f 570/3/5 565/3/5 564/3/5
f 571/3/5 565/3/5 570/3/5
f 575/6/5 573/6/5 572/6/5
f 576/6/5 573/6/5 575/6/5
f 578/6/5 575/6/5 574/6/5
f 579/6/5 575/6/5 578/6/5
f 580/6/5 577/6/5 576/6/5
f 581/6/5 577/6/5 580/6/5
f 582/5/5 579/5/5 578/5/5
f 583/5/5 579/5/5 582/5/5
f 584/5/5 581/5/5 580/5/5
f 585/5/5 581/5/5 584/5/5
f 586/5/5 584/5/5 583/5/5
f 587/5/5 584/5/5 586/5/5
f 592/6/5 589/6/5 588/6/5
f 593/6/5 589/6/5 592/6/5
f 594/6/5 591/6/5 590/6/5
f 595/6/5 591/6/5 594/6/5
f 600/5/5 597/5/5 596/5/5
f 601/5/5 597/5/5 600/5/5
f 602/6/5 599/6/5 598/6/5
f 603/6/5 599/6/5 602/6/5
f 604/4/6 605/4/6 608/4/6
f 608/4/6 605/4/6 609/4/6
f 606/4/6 607/4/6 610/4/6
f 610/4/6 607/4/6 611/4/6
f 612/4/6 613/4/6 614/4/6
f 614/4/6 613/4/6 615/4/6
f 614/3/6 615/3/6 620/3/6
f 620/3/6 615/3/6 621/3/6
f 616/3/6 617/3/6 622/3/6
f 622/3/6 617/3/6 623/3/6
f 618/3/6 619/3/6 624/3/6
f 624/3/6 619/3/6 625/3/6
f 626/4/6 627/4/6 631/4/6
f 627/3/6 628/3/6 632/3/6
f 631/4/6 627/4/6 632/4/6
f 628/4/6 629/4/6 633/4/6
f 632/3/6 628/3/6 633/3/6
f 633/4/6 629/4/6 634/4/6
f 629/3/6 630/3/6 635/3/6
f 634/4/6 629/4/6 635/4/6
f 635/3/6 630/3/6 636/3/6
f 637/3/6 638/3/6 639/3/6
f 639/3/6 638/3/6 644/3/6
f 644/3/6 638/3/6 645/3/6
f 640/4/6 641/4/6 646/4/6
f 641/3/6 642/3/6 647/3/6
f 646/4/6 641/4/6 647/4/6
f 642/4/6 643/4/6 648/4/6
f 647/3/6 642/3/6 648/3/6
f 648/4/6 643/4/6 649/4/6
f 650/3/6 651/3/6 653/3/6
f 653/3/6 651/3/6 654/3/6
f 651/4/6 652/4/6 655/4/6
f 655/4/6 652/4/6 656/4/6
f 653/4/6 654/4/6 657/4/6
f 654/3/6 651/3/6 658/3/6
f 657/4/6 654/4/6 658/4/6
f 651/4/6 655/4/6 659/4/6
f 658/3/6 651/3/6 659/3/6
f 655/3/6 656/3/6 660/3/6
f 659/4/6 655/4/6 660/4/6
f 660/3/6 656/3/6 661/3/6
f 662/6/6 663/6/6 666/6/6
f 666/6/6 663/6/6 667/6/6
f 664/6/6 665/6/6 668/6/6
f 668/6/6 665/6/6 669/6/6
f 670/6/6 671/6/6 674/6/6
f 674/6/6 671/6/6 675/6/6
f 672/6/6 673/6/6 676/6/6
f 676/6/6 673/6/6 677/6/6
f 678/6/6 679/6/6 681/6/6
f 681/6/6 679/6/6 682/6/6
f 682/6/6 679/6/6 683/6/6
f 680/6/6 681/6/6 685/6/6
f 685/6/6 681/6/6 686/6/6
f 685/5/6 686/5/6 687/5/6
f 687/5/6 686/5/6 688/5/6
f 683/6/6 684/6/6 689/6/6
f 689/6/6 684/6/6 690/6/6
f 688/6/6 689/6/6 691/6/6
f 691/6/6 689/6/6 692/6/6
f 693/6/6 694/6/6 696/6/6
f 694/5/6 695/5/6 697/5/6
f 696/6/6 694/6/6 697/6/6
f 696/5/6 697/5/6 698/5/6
f 697/5/6 695/5/6 699/5/6
f 698/5/6 697/5/6 699/5/6
