# MagicaVoxel @ Ephtracy

# group
o 

# material
mtllib моделька тун тун тун тун тун тун тун тун тун тун тун сахура.mtl
usemtl palette

# normals
vn -1 0 0
vn 1 0 0
vn 0 0 1
vn 0 0 -1
vn 0 -1 0
vn 0 1 0

# texcoords
vt 0.00195312 0.5
vt 0.232422 0.5
vt 0.373047 0.5
vt 0.994141 0.5

# verts
v -1.5 1 1.6
v -1.5 1 0.4
v -1.5 1.2 1.6
v -1.5 1.2 0.4
v -1.4 0.9 1.6
v -1.4 0.9 0.4
v -1.4 1 1.7
v -1.4 1 1.6
v -1.4 1 0.4
v -1.4 1 -1.19209e-07
v -1.4 1 -0.3
v -1.4 1 -0.6
v -1.4 1.2 1.7
v -1.4 1.2 1.6
v -1.4 1.2 0.4
v -1.4 1.2 -1.19209e-07
v -1.4 1.2 -0.3
v -1.4 1.2 -0.6
v -1.4 1.3 1.6
v -1.4 1.3 0.4
v -1.4 1.8 -1.19209e-07
v -1.4 1.8 -0.3
v -0.9 1.1 -0.1
v -0.9 1.1 -0.2
v -0.9 1.5 -0.1
v -0.9 1.5 -0.2
v -0.8 0 0.4
v -0.8 0 -0.3
v -0.8 0.1 0.4
v -0.8 0.1 0.3
v -0.8 0.2 0.3
v -0.8 0.2 0.0999999
v -0.8 0.3 0.0999999
v -0.8 0.3 -1.19209e-07
v -0.8 1.1 -0.1
v -0.8 1.1 -0.2
v -0.8 1.5 -0.1
v -0.8 1.5 -0.2
v -0.8 1.6 -1.19209e-07
v -0.8 1.6 -0.3
v -0.8 1.8 -1.19209e-07
v -0.8 1.8 -0.3
v -0.8 2.5 -1.19209e-07
v -0.8 2.5 -0.3
v -0.7 1 0.0999999
v -0.7 1 -1.19209e-07
v -0.7 1.1 -0.3
v -0.7 1.1 -0.4
v -0.7 1.4 -0.3
v -0.7 1.4 -0.4
v -0.7 1.5 0.0999999
v -0.7 1.5 -1.19209e-07
v -0.6 1 -0.3
v -0.6 1 -0.4
v -0.6 1.1 -0.3
v -0.6 1.1 -0.4
v -0.6 1.4 -0.3
v -0.6 1.4 -0.4
v -0.6 1.5 -0.3
v -0.6 1.5 -0.4
v 0.1 1.1 -0.3
v 0.1 1.1 -0.4
v 0.1 1.4 -0.3
v 0.1 1.4 -0.4
v 0.2 1 -0.3
v 0.2 1 -0.4
v 0.2 1.1 -0.3
v 0.2 1.1 -0.4
v 0.2 1.4 -0.3
v 0.2 1.4 -0.4
v 0.2 1.5 -0.3
v 0.2 1.5 -0.4
v 0.5 0 0.4
v 0.5 0 -0.3
v 0.5 0.1 0.4
v 0.5 0.1 0.3
v 0.5 0.2 0.3
v 0.5 0.2 0.0999999
v 0.5 0.3 0.0999999
v 0.5 0.3 -1.19209e-07
v 0.5 0.9 -1.19209e-07
v 0.5 0.9 -0.3
v 1.2 1 -1.19209e-07
v 1.2 1 -0.3
v 1.2 1.6 -1.19209e-07
v 1.2 1.6 -0.3
v -1.2 0.9 1.6
v -1.2 0.9 0.4
v -1.2 1 1.7
v -1.2 1 1.6
v -1.2 1 0.4
v -1.2 1 -1.19209e-07
v -1.2 1 -0.3
v -1.2 1 -0.6
v -1.2 1.2 1.7
v -1.2 1.2 1.6
v -1.2 1.2 0.4
v -1.2 1.2 -1.19209e-07
v -1.2 1.2 -0.3
v -1.2 1.2 -0.6
v -1.2 1.3 1.6
v -1.2 1.3 0.4
v -1.2 1.6 -1.19209e-07
v -1.2 1.6 -0.3
v -1.1 1 1.6
v -1.1 1 0.4
v -1.1 1.2 1.6
v -1.1 1.2 0.4
v -0.5 0 0.4
v -0.5 0 -0.3
v -0.5 0.1 0.4
v -0.5 0.1 0.3
v -0.5 0.2 0.3
v -0.5 0.2 0.0999999
v -0.5 0.3 0.0999999
v -0.5 0.3 -1.19209e-07
v -0.5 0.9 -1.19209e-07
v -0.5 0.9 -0.3
v -0.2 1 -0.3
v -0.2 1 -0.4
v -0.2 1.1 -0.3
v -0.2 1.1 -0.4
v -0.2 1.4 -0.3
v -0.2 1.4 -0.4
v -0.2 1.5 -0.3
v -0.2 1.5 -0.4
v -0.1 1.1 -0.3
v -0.1 1.1 -0.4
v -0.1 1.4 -0.3
v -0.1 1.4 -0.4
v 0.6 1 -0.3
v 0.6 1 -0.4
v 0.6 1.1 -0.3
v 0.6 1.1 -0.4
v 0.6 1.4 -0.3
v 0.6 1.4 -0.4
v 0.6 1.5 -0.3
v 0.6 1.5 -0.4
v 0.7 1 0.0999999
v 0.7 1 -1.19209e-07
v 0.7 1.1 -0.3
v 0.7 1.1 -0.4
v 0.7 1.4 -0.3
v 0.7 1.4 -0.4
v 0.7 1.5 0.0999999
v 0.7 1.5 -1.19209e-07
v 0.8 0 0.4
v 0.8 0 -0.3
v 0.8 0.1 0.4
v 0.8 0.1 0.3
v 0.8 0.2 0.3
v 0.8 0.2 0.0999999
v 0.8 0.3 0.0999999
v 0.8 0.3 -1.19209e-07
v 0.8 1.1 -0.1
v 0.8 1.1 -0.2
v 0.8 1.5 -0.1
v 0.8 1.5 -0.2
v 0.8 1.6 -1.19209e-07
v 0.8 1.6 -0.3
v 0.8 1.8 -1.19209e-07
v 0.8 1.8 -0.3
v 0.8 2.5 -1.19209e-07
v 0.8 2.5 -0.3
v 0.9 1.1 -0.1
v 0.9 1.1 -0.2
v 0.9 1.5 -0.1
v 0.9 1.5 -0.2
v 1.4 1 -1.19209e-07
v 1.4 1 -0.3
v 1.4 1.8 -1.19209e-07
v 1.4 1.8 -0.3
v -1.4 1 1.7
v -1.4 1.2 1.7
v -1.2 1 1.7
v -1.2 1.2 1.7
v -1.5 1 1.6
v -1.5 1.2 1.6
v -1.4 0.9 1.6
v -1.4 1 1.6
v -1.4 1.2 1.6
v -1.4 1.3 1.6
v -1.2 0.9 1.6
v -1.2 1 1.6
v -1.2 1.2 1.6
v -1.2 1.3 1.6
v -1.1 1 1.6
v -1.1 1.2 1.6
v -0.8 0 0.4
v -0.8 0.1 0.4
v -0.5 0 0.4
v -0.5 0.1 0.4
v 0.5 0 0.4
v 0.5 0.1 0.4
v 0.8 0 0.4
v 0.8 0.1 0.4
v -0.8 0.1 0.3
v -0.8 0.2 0.3
v -0.5 0.1 0.3
v -0.5 0.2 0.3
v 0.5 0.1 0.3
v 0.5 0.2 0.3
v 0.8 0.1 0.3
v 0.8 0.2 0.3
v -0.8 0.2 0.0999999
v -0.8 0.3 0.0999999
v -0.7 1 0.0999999
v -0.7 1.5 0.0999999
v -0.5 0.2 0.0999999
v -0.5 0.3 0.0999999
v 0.5 0.2 0.0999999
v 0.5 0.3 0.0999999
v 0.7 1 0.0999999
v 0.7 1.5 0.0999999
v 0.8 0.2 0.0999999
v 0.8 0.3 0.0999999
v -1.4 1.2 -1.19209e-07
v -1.4 1.8 -1.19209e-07
v -1.2 1.2 -1.19209e-07
v -1.2 1.6 -1.19209e-07
v -0.8 0.3 -1.19209e-07
v -0.8 1.6 -1.19209e-07
v -0.8 1.8 -1.19209e-07
v -0.8 2.5 -1.19209e-07
v -0.7 1 -1.19209e-07
v -0.7 1.5 -1.19209e-07
v -0.6 2.1 -1.19209e-07
v -0.6 2.3 -1.19209e-07
v -0.5 0.3 -1.19209e-07
v -0.5 0.9 -1.19209e-07
v -0.5 2.1 -1.19209e-07
v -0.5 2.3 -1.19209e-07
v -0.3 1.7 -1.19209e-07
v -0.3 1.8 -1.19209e-07
v -0.3 2.1 -1.19209e-07
v -0.3 2.3 -1.19209e-07
v -0.2 2.1 -1.19209e-07
v -0.2 2.3 -1.19209e-07
v 0.2 2.1 -1.19209e-07
v 0.2 2.3 -1.19209e-07
v 0.3 2.1 -1.19209e-07
v 0.3 2.3 -1.19209e-07
v 0.4 1.7 -1.19209e-07
v 0.4 1.8 -1.19209e-07
v 0.4 1.9 -1.19209e-07
v 0.5 0.3 -1.19209e-07
v 0.5 0.9 -1.19209e-07
v 0.5 1.8 -1.19209e-07
v 0.5 1.9 -1.19209e-07
v 0.5 2.1 -1.19209e-07
v 0.5 2.3 -1.19209e-07
v 0.6 2.1 -1.19209e-07
v 0.6 2.3 -1.19209e-07
v 0.7 1 -1.19209e-07
v 0.7 1.5 -1.19209e-07
v 0.8 0.3 -1.19209e-07
v 0.8 1.6 -1.19209e-07
v 0.8 1.8 -1.19209e-07
v 0.8 2.5 -1.19209e-07
v 1.2 1 -1.19209e-07
v 1.2 1.6 -1.19209e-07
v 1.4 1 -1.19209e-07
v 1.4 1.8 -1.19209e-07
v -0.9 1.1 -0.1
v -0.9 1.5 -0.1
v -0.8 1.1 -0.1
v -0.8 1.5 -0.1
v 0.8 1.1 -0.1
v 0.8 1.5 -0.1
v 0.9 1.1 -0.1
v 0.9 1.5 -0.1
v -1.5 1 0.4
v -1.5 1.2 0.4
v -1.4 0.9 0.4
v -1.4 1 0.4
v -1.4 1.2 0.4
v -1.4 1.3 0.4
v -1.2 0.9 0.4
v -1.2 1 0.4
v -1.2 1.2 0.4
v -1.2 1.3 0.4
v -1.1 1 0.4
v -1.1 1.2 0.4
v -0.9 1.1 -0.2
v -0.9 1.5 -0.2
v -0.8 1.1 -0.2
v -0.8 1.5 -0.2
v 0.8 1.1 -0.2
v 0.8 1.5 -0.2
v 0.9 1.1 -0.2
v 0.9 1.5 -0.2
v -1.4 1.2 -0.3
v -1.4 1.8 -0.3
v -1.2 1.2 -0.3
v -1.2 1.6 -0.3
v -0.8 0 -0.3
v -0.8 1.6 -0.3
v -0.8 1.8 -0.3
v -0.8 2.5 -0.3
v -0.7 1.1 -0.3
v -0.7 1.4 -0.3
v -0.6 1 -0.3
v -0.6 1.1 -0.3
v -0.6 1.4 -0.3
v -0.6 1.5 -0.3
v -0.5 0 -0.3
v -0.5 0.9 -0.3
v -0.2 1 -0.3
v -0.2 1.1 -0.3
v -0.2 1.4 -0.3
v -0.2 1.5 -0.3
v -0.1 1.1 -0.3
v -0.1 1.4 -0.3
v 0.1 1.1 -0.3
v 0.1 1.4 -0.3
v 0.2 1 -0.3
v 0.2 1.1 -0.3
v 0.2 1.4 -0.3
v 0.2 1.5 -0.3
v 0.5 0 -0.3
v 0.5 0.9 -0.3
v 0.6 1 -0.3
v 0.6 1.1 -0.3
v 0.6 1.4 -0.3
v 0.6 1.5 -0.3
v 0.7 1.1 -0.3
v 0.7 1.4 -0.3
v 0.8 0 -0.3
v 0.8 1.6 -0.3
v 0.8 1.8 -0.3
v 0.8 2.5 -0.3
v 1.2 1 -0.3
v 1.2 1.6 -0.3
v 1.4 1 -0.3
v 1.4 1.8 -0.3
v -0.7 1.1 -0.4
v -0.7 1.4 -0.4
v -0.6 1 -0.4
v -0.6 1.1 -0.4
v -0.6 1.4 -0.4
v -0.6 1.5 -0.4
v -0.2 1 -0.4
v -0.2 1.1 -0.4
v -0.2 1.4 -0.4
v -0.2 1.5 -0.4
v -0.1 1.1 -0.4
v -0.1 1.4 -0.4
v 0.1 1.1 -0.4
v 0.1 1.4 -0.4
v 0.2 1 -0.4
v 0.2 1.1 -0.4
v 0.2 1.4 -0.4
v 0.2 1.5 -0.4
v 0.6 1 -0.4
v 0.6 1.1 -0.4
v 0.6 1.4 -0.4
v 0.6 1.5 -0.4
v 0.7 1.1 -0.4
v 0.7 1.4 -0.4
v -1.4 1 -0.6
v -1.4 1.2 -0.6
v -1.2 1 -0.6
v -1.2 1.2 -0.6
v -0.8 0 0.4
v -0.5 0 0.4
v 0.5 0 0.4
v 0.8 0 0.4
v -0.8 0 -0.3
v -0.5 0 -0.3
v 0.5 0 -0.3
v 0.8 0 -0.3
v -1.4 0.9 1.6
v -1.2 0.9 1.6
v -1.4 0.9 0.4
v -1.2 0.9 0.4
v -0.5 0.9 -1.19209e-07
v 0.5 0.9 -1.19209e-07
v -0.5 0.9 -0.3
v 0.5 0.9 -0.3
v -1.4 1 1.7
v -1.2 1 1.7
v -1.5 1 1.6
v -1.4 1 1.6
v -1.2 1 1.6
v -1.1 1 1.6
v -1.5 1 0.4
v -1.4 1 0.4
v -1.2 1 0.4
v -1.1 1 0.4
v -0.7 1 0.0999999
v 0.7 1 0.0999999
v -1.4 1 -1.19209e-07
v -1.2 1 -1.19209e-07
v -0.7 1 -1.19209e-07
v 0.7 1 -1.19209e-07
v 1.2 1 -1.19209e-07
v 1.4 1 -1.19209e-07
v -1.4 1 -0.3
v -1.2 1 -0.3
v -0.6 1 -0.3
v -0.2 1 -0.3
v 0.2 1 -0.3
v 0.6 1 -0.3
v 1.2 1 -0.3
v 1.4 1 -0.3
v -0.6 1 -0.4
v -0.2 1 -0.4
v 0.2 1 -0.4
v 0.6 1 -0.4
v -1.4 1 -0.6
v -1.2 1 -0.6
v -0.9 1.1 -0.1
v -0.8 1.1 -0.1
v 0.8 1.1 -0.1
v 0.9 1.1 -0.1
v -0.9 1.1 -0.2
v -0.8 1.1 -0.2
v 0.8 1.1 -0.2
v 0.9 1.1 -0.2
v -0.7 1.1 -0.3
v -0.6 1.1 -0.3
v -0.2 1.1 -0.3
v -0.1 1.1 -0.3
v 0.1 1.1 -0.3
v 0.2 1.1 -0.3
v 0.6 1.1 -0.3
v 0.7 1.1 -0.3
v -0.7 1.1 -0.4
v -0.6 1.1 -0.4
v -0.2 1.1 -0.4
v -0.1 1.1 -0.4
v 0.1 1.1 -0.4
v 0.2 1.1 -0.4
v 0.6 1.1 -0.4
v 0.7 1.1 -0.4
v -1.2 1.6 -1.19209e-07
v -0.8 1.6 -1.19209e-07
v 0.8 1.6 -1.19209e-07
v 1.2 1.6 -1.19209e-07
v -1.2 1.6 -0.3
v -0.8 1.6 -0.3
v 0.8 1.6 -0.3
v 1.2 1.6 -0.3
v -0.8 0.1 0.4
v -0.5 0.1 0.4
v 0.5 0.1 0.4
v 0.8 0.1 0.4
v -0.8 0.1 0.3
v -0.5 0.1 0.3
v 0.5 0.1 0.3
v 0.8 0.1 0.3
v -0.8 0.2 0.3
v -0.5 0.2 0.3
v 0.5 0.2 0.3
v 0.8 0.2 0.3
v -0.8 0.2 0.0999999
v -0.5 0.2 0.0999999
v 0.5 0.2 0.0999999
v 0.8 0.2 0.0999999
v -0.8 0.3 0.0999999
v -0.5 0.3 0.0999999
v 0.5 0.3 0.0999999
v 0.8 0.3 0.0999999
v -0.8 0.3 -1.19209e-07
v -0.5 0.3 -1.19209e-07
v 0.5 0.3 -1.19209e-07
v 0.8 0.3 -1.19209e-07
v -1.4 1.2 1.7
v -1.2 1.2 1.7
v -1.5 1.2 1.6
v -1.4 1.2 1.6
v -1.2 1.2 1.6
v -1.1 1.2 1.6
v -1.5 1.2 0.4
v -1.4 1.2 0.4
v -1.2 1.2 0.4
v -1.1 1.2 0.4
v -1.4 1.2 -1.19209e-07
v -1.2 1.2 -1.19209e-07
v -1.4 1.2 -0.3
v -1.2 1.2 -0.3
v -1.4 1.2 -0.6
v -1.2 1.2 -0.6
v -1.4 1.3 1.6
v -1.2 1.3 1.6
v -1.4 1.3 0.4
v -1.2 1.3 0.4
v -0.7 1.4 -0.3
v -0.6 1.4 -0.3
v -0.2 1.4 -0.3
v -0.1 1.4 -0.3
v 0.1 1.4 -0.3
v 0.2 1.4 -0.3
v 0.6 1.4 -0.3
v 0.7 1.4 -0.3
v -0.7 1.4 -0.4
v -0.6 1.4 -0.4
v -0.2 1.4 -0.4
v -0.1 1.4 -0.4
v 0.1 1.4 -0.4
v 0.2 1.4 -0.4
v 0.6 1.4 -0.4
v 0.7 1.4 -0.4
v -0.7 1.5 0.0999999
v 0.7 1.5 0.0999999
v -0.7 1.5 -1.19209e-07
v 0.7 1.5 -1.19209e-07
v -0.9 1.5 -0.1
v -0.8 1.5 -0.1
v 0.8 1.5 -0.1
v 0.9 1.5 -0.1
v -0.9 1.5 -0.2
v -0.8 1.5 -0.2
v 0.8 1.5 -0.2
v 0.9 1.5 -0.2
v -0.6 1.5 -0.3
v -0.2 1.5 -0.3
v 0.2 1.5 -0.3
v 0.6 1.5 -0.3
v -0.6 1.5 -0.4
v -0.2 1.5 -0.4
v 0.2 1.5 -0.4
v 0.6 1.5 -0.4
v -1.4 1.8 -1.19209e-07
v -0.8 1.8 -1.19209e-07
v 0.8 1.8 -1.19209e-07
v 1.4 1.8 -1.19209e-07
v -1.4 1.8 -0.3
v -0.8 1.8 -0.3
v 0.8 1.8 -0.3
v 1.4 1.8 -0.3
v -0.8 2.5 -1.19209e-07
v 0.8 2.5 -1.19209e-07
v -0.8 2.5 -0.3
v 0.8 2.5 -0.3

# faces
f 3/2/1 2/2/1 1/2/1
f 4/2/1 2/2/1 3/2/1
f 8/2/1 6/2/1 5/2/1
f 9/2/1 6/2/1 8/2/1
f 13/2/1 8/2/1 7/2/1
f 14/2/1 8/2/1 13/2/1
f 15/2/1 10/2/1 9/2/1
f 16/3/1 11/3/1 10/3/1
f 16/2/1 10/2/1 15/2/1
f 17/2/1 12/2/1 11/2/1
f 17/3/1 11/3/1 16/3/1
f 18/2/1 12/2/1 17/2/1
f 19/2/1 15/2/1 14/2/1
f 20/2/1 15/2/1 19/2/1
f 21/3/1 17/3/1 16/3/1
f 22/3/1 17/3/1 21/3/1
f 25/3/1 24/3/1 23/3/1
f 26/3/1 24/3/1 25/3/1
f 29/3/1 28/3/1 27/3/1
f 30/3/1 28/3/1 29/3/1
f 31/3/1 28/3/1 30/3/1
f 32/3/1 28/3/1 31/3/1
f 33/3/1 28/3/1 32/3/1
f 34/3/1 28/3/1 33/3/1
f 35/3/1 28/3/1 34/3/1
f 36/3/1 28/3/1 35/3/1
f 37/3/1 35/3/1 34/3/1
f 38/3/1 28/3/1 36/3/1
f 39/3/1 37/3/1 34/3/1
f 39/3/1 38/3/1 37/3/1
f 40/3/1 28/3/1 38/3/1
f 40/3/1 38/3/1 39/3/1
f 43/3/1 42/3/1 41/3/1
f 44/3/1 42/3/1 43/3/1
f 49/3/1 48/3/1 47/3/1
f 50/3/1 48/3/1 49/3/1
f 51/3/1 46/3/1 45/3/1
f 52/3/1 46/3/1 51/3/1
f 55/3/1 54/3/1 53/3/1
f 56/3/1 54/3/1 55/3/1
f 59/3/1 58/3/1 57/3/1
f 60/3/1 58/3/1 59/3/1
f 63/3/1 62/3/1 61/3/1
f 64/3/1 62/3/1 63/3/1
f 67/3/1 66/3/1 65/3/1
f 68/3/1 66/3/1 67/3/1
f 71/3/1 70/3/1 69/3/1
f 72/3/1 70/3/1 71/3/1
f 75/3/1 74/3/1 73/3/1
f 76/3/1 74/3/1 75/3/1
f 77/3/1 74/3/1 76/3/1
f 78/3/1 74/3/1 77/3/1
f 79/3/1 74/3/1 78/3/1
f 80/3/1 74/3/1 79/3/1
f 81/3/1 74/3/1 80/3/1
f 82/3/1 74/3/1 81/3/1
f 85/3/1 84/3/1 83/3/1
f 86/3/1 84/3/1 85/3/1
f 87/2/2 88/2/2 90/2/2
f 90/2/2 88/2/2 91/2/2
f 89/2/2 90/2/2 95/2/2
f 95/2/2 90/2/2 96/2/2
f 91/2/2 92/2/2 97/2/2
f 92/3/2 93/3/2 98/3/2
f 97/2/2 92/2/2 98/2/2
f 93/2/2 94/2/2 99/2/2
f 98/3/2 93/3/2 99/3/2
f 99/2/2 94/2/2 100/2/2
f 96/2/2 97/2/2 101/2/2
f 101/2/2 97/2/2 102/2/2
f 98/3/2 99/3/2 103/3/2
f 103/3/2 99/3/2 104/3/2
f 105/2/2 106/2/2 107/2/2
f 107/2/2 106/2/2 108/2/2
f 109/3/2 110/3/2 111/3/2
f 111/3/2 110/3/2 112/3/2
f 112/3/2 110/3/2 113/3/2
f 113/3/2 110/3/2 114/3/2
f 114/3/2 110/3/2 115/3/2
f 115/3/2 110/3/2 116/3/2
f 116/3/2 110/3/2 117/3/2
f 117/3/2 110/3/2 118/3/2
f 119/3/2 120/3/2 121/3/2
f 121/3/2 120/3/2 122/3/2
f 123/3/2 124/3/2 125/3/2
f 125/3/2 124/3/2 126/3/2
f 127/3/2 128/3/2 129/3/2
f 129/3/2 128/3/2 130/3/2
f 131/3/2 132/3/2 133/3/2
f 133/3/2 132/3/2 134/3/2
f 135/3/2 136/3/2 137/3/2
f 137/3/2 136/3/2 138/3/2
f 141/3/2 142/3/2 143/3/2
f 143/3/2 142/3/2 144/3/2
f 139/3/2 140/3/2 145/3/2
f 145/3/2 140/3/2 146/3/2
f 147/3/2 148/3/2 149/3/2
f 149/3/2 148/3/2 150/3/2
f 150/3/2 148/3/2 151/3/2
f 151/3/2 148/3/2 152/3/2
f 152/3/2 148/3/2 153/3/2
f 153/3/2 148/3/2 154/3/2
f 154/3/2 148/3/2 155/3/2
f 155/3/2 148/3/2 156/3/2
f 154/3/2 155/3/2 157/3/2
f 156/3/2 148/3/2 158/3/2
f 154/3/2 157/3/2 159/3/2
f 157/3/2 158/3/2 159/3/2
f 158/3/2 148/3/2 160/3/2
f 159/3/2 158/3/2 160/3/2
f 161/3/2 162/3/2 163/3/2
f 163/3/2 162/3/2 164/3/2
f 165/3/2 166/3/2 167/3/2
f 167/3/2 166/3/2 168/3/2
f 169/3/2 170/3/2 171/3/2
f 171/3/2 170/3/2 172/3/2
f 175/2/3 174/2/3 173/2/3
f 176/2/3 174/2/3 175/2/3
f 180/2/3 178/2/3 177/2/3
f 181/2/3 178/2/3 180/2/3
f 183/2/3 180/2/3 179/2/3
f 184/2/3 180/2/3 183/2/3
f 185/2/3 182/2/3 181/2/3
f 186/2/3 182/2/3 185/2/3
f 187/2/3 185/2/3 184/2/3
f 188/2/3 185/2/3 187/2/3
f 191/3/3 190/3/3 189/3/3
f 192/3/3 190/3/3 191/3/3
f 195/3/3 194/3/3 193/3/3
f 196/3/3 194/3/3 195/3/3
f 199/3/3 198/3/3 197/3/3
f 200/3/3 198/3/3 199/3/3
f 203/3/3 202/3/3 201/3/3
f 204/3/3 202/3/3 203/3/3
f 209/3/3 206/3/3 205/3/3
f 210/3/3 206/3/3 209/3/3
f 213/3/3 208/3/3 207/3/3
f 214/3/3 208/3/3 213/3/3
f 215/3/3 212/3/3 211/3/3
f 216/3/3 212/3/3 215/3/3
f 219/3/3 218/3/3 217/3/3
f 220/3/3 218/3/3 219/3/3
f 222/3/3 218/3/3 220/3/3
f 223/3/3 218/3/3 222/3/3
f 225/3/3 222/3/3 221/3/3
f 225/3/3 224/3/3 223/3/3
f 225/3/3 223/3/3 222/3/3
f 226/3/3 224/3/3 225/3/3
f 227/3/3 224/3/3 226/3/3
f 228/3/3 224/3/3 227/3/3
f 229/3/3 225/3/3 221/3/3
f 230/3/3 225/3/3 229/3/3
f 231/3/3 227/3/3 226/3/3
f 231/1/3 228/1/3 227/1/3
f 232/3/3 224/3/3 228/3/3
f 232/1/3 228/1/3 231/1/3
f 233/3/3 231/3/3 226/3/3
f 234/3/3 231/3/3 233/3/3
f 235/4/3 232/4/3 231/4/3
f 235/3/3 231/3/3 234/3/3
f 236/3/3 224/3/3 232/3/3
f 236/4/3 232/4/3 235/4/3
f 237/3/3 235/3/3 234/3/3
f 237/1/3 236/1/3 235/1/3
f 238/3/3 224/3/3 236/3/3
f 238/1/3 236/1/3 237/1/3
f 239/3/3 237/3/3 234/3/3
f 239/3/3 238/3/3 237/3/3
f 240/3/3 224/3/3 238/3/3
f 240/3/3 238/3/3 239/3/3
f 241/3/3 239/3/3 234/3/3
f 241/1/3 240/1/3 239/1/3
f 242/3/3 224/3/3 240/3/3
f 242/1/3 240/1/3 241/1/3
f 243/4/3 234/4/3 233/4/3
f 243/3/3 233/3/3 226/3/3
f 244/3/3 241/3/3 234/3/3
f 244/4/3 234/4/3 243/4/3
f 245/3/3 241/3/3 244/3/3
f 247/3/3 225/3/3 230/3/3
f 248/3/3 244/3/3 243/3/3
f 248/4/3 245/4/3 244/4/3
f 249/3/3 241/3/3 245/3/3
f 249/4/3 245/4/3 248/4/3
f 250/4/3 242/4/3 241/4/3
f 250/3/3 241/3/3 249/3/3
f 251/3/3 224/3/3 242/3/3
f 251/4/3 242/4/3 250/4/3
f 252/3/3 250/3/3 249/3/3
f 252/3/3 249/3/3 248/3/3
f 252/1/3 251/1/3 250/1/3
f 253/3/3 224/3/3 251/3/3
f 253/1/3 251/1/3 252/1/3
f 254/3/3 247/3/3 246/3/3
f 254/3/3 225/3/3 247/3/3
f 255/3/3 243/3/3 226/3/3
f 255/3/3 248/3/3 243/3/3
f 255/3/3 253/3/3 252/3/3
f 255/3/3 252/3/3 248/3/3
f 256/3/3 254/3/3 246/3/3
f 256/3/3 255/3/3 254/3/3
f 257/3/3 253/3/3 255/3/3
f 257/3/3 255/3/3 256/3/3
f 258/3/3 253/3/3 257/3/3
f 259/3/3 224/3/3 253/3/3
f 259/3/3 253/3/3 258/3/3
f 261/3/3 258/3/3 257/3/3
f 262/3/3 261/3/3 260/3/3
f 263/3/3 258/3/3 261/3/3
f 263/3/3 261/3/3 262/3/3
f 266/3/3 265/3/3 264/3/3
f 267/3/3 265/3/3 266/3/3
f 270/3/3 269/3/3 268/3/3
f 271/3/3 269/3/3 270/3/3
f 272/2/4 273/2/4 275/2/4
f 275/2/4 273/2/4 276/2/4
f 274/2/4 275/2/4 278/2/4
f 278/2/4 275/2/4 279/2/4
f 276/2/4 277/2/4 280/2/4
f 280/2/4 277/2/4 281/2/4
f 279/2/4 280/2/4 282/2/4
f 282/2/4 280/2/4 283/2/4
f 284/3/4 285/3/4 286/3/4
f 286/3/4 285/3/4 287/3/4
f 288/3/4 289/3/4 290/3/4
f 290/3/4 289/3/4 291/3/4
f 292/3/4 293/3/4 294/3/4
f 294/3/4 293/3/4 295/3/4
f 295/3/4 293/3/4 297/3/4
f 297/3/4 293/3/4 298/3/4
f 296/3/4 297/3/4 300/3/4
f 298/3/4 299/3/4 300/3/4
f 297/3/4 298/3/4 300/3/4
f 300/3/4 299/3/4 301/3/4
f 296/3/4 300/3/4 302/3/4
f 302/3/4 300/3/4 303/3/4
f 301/3/4 299/3/4 304/3/4
f 304/3/4 299/3/4 305/3/4
f 296/3/4 302/3/4 306/3/4
f 306/3/4 302/3/4 307/3/4
f 307/3/4 302/3/4 308/3/4
f 305/3/4 299/3/4 311/3/4
f 308/3/4 309/3/4 312/3/4
f 310/3/4 311/3/4 313/3/4
f 308/3/4 312/3/4 314/3/4
f 312/3/4 313/3/4 314/3/4
f 313/3/4 311/3/4 315/3/4
f 314/3/4 313/3/4 315/3/4
f 308/3/4 314/3/4 316/3/4
f 307/3/4 308/3/4 316/3/4
f 316/3/4 314/3/4 317/3/4
f 315/3/4 311/3/4 318/3/4
f 311/3/4 299/3/4 319/3/4
f 318/3/4 311/3/4 319/3/4
f 307/3/4 316/3/4 321/3/4
f 321/3/4 316/3/4 322/3/4
f 320/3/4 321/3/4 322/3/4
f 319/3/4 299/3/4 325/3/4
f 322/3/4 323/3/4 326/3/4
f 324/3/4 325/3/4 327/3/4
f 322/3/4 326/3/4 328/3/4
f 326/3/4 327/3/4 328/3/4
f 320/3/4 322/3/4 328/3/4
f 327/3/4 325/3/4 329/3/4
f 328/3/4 327/3/4 329/3/4
f 325/3/4 299/3/4 329/3/4
f 329/3/4 299/3/4 330/3/4
f 330/3/4 299/3/4 331/3/4
f 329/3/4 330/3/4 333/3/4
f 332/3/4 333/3/4 334/3/4
f 333/3/4 330/3/4 335/3/4
f 334/3/4 333/3/4 335/3/4
f 336/3/4 337/3/4 339/3/4
f 339/3/4 337/3/4 340/3/4
f 338/3/4 339/3/4 342/3/4
f 340/3/4 341/3/4 342/3/4
f 339/3/4 340/3/4 342/3/4
f 342/3/4 341/3/4 343/3/4
f 343/3/4 341/3/4 344/3/4
f 344/3/4 341/3/4 345/3/4
f 343/3/4 344/3/4 346/3/4
f 346/3/4 344/3/4 347/3/4
f 348/3/4 349/3/4 351/3/4
f 351/3/4 349/3/4 352/3/4
f 351/3/4 352/3/4 354/3/4
f 352/3/4 353/3/4 354/3/4
f 350/3/4 351/3/4 354/3/4
f 354/3/4 353/3/4 355/3/4
f 355/3/4 353/3/4 356/3/4
f 356/3/4 353/3/4 357/3/4
f 355/3/4 356/3/4 358/3/4
f 358/3/4 356/3/4 359/3/4
f 360/2/4 361/2/4 362/2/4
f 362/2/4 361/2/4 363/2/4
f 368/3/5 365/3/5 364/3/5
f 369/3/5 365/3/5 368/3/5
f 370/3/5 367/3/5 366/3/5
f 371/3/5 367/3/5 370/3/5
f 374/2/5 373/2/5 372/2/5
f 375/2/5 373/2/5 374/2/5
f 378/3/5 377/3/5 376/3/5
f 379/3/5 377/3/5 378/3/5
f 383/2/5 381/2/5 380/2/5
f 384/2/5 381/2/5 383/2/5
f 386/2/5 383/2/5 382/2/5
f 387/2/5 383/2/5 386/2/5
f 388/2/5 385/2/5 384/2/5
f 389/2/5 385/2/5 388/2/5
f 392/2/5 388/2/5 387/2/5
f 393/2/5 388/2/5 392/2/5
f 394/3/5 391/3/5 390/3/5
f 395/3/5 391/3/5 394/3/5
f 398/3/5 393/3/5 392/3/5
f 399/3/5 393/3/5 398/3/5
f 404/3/5 397/3/5 396/3/5
f 405/3/5 397/3/5 404/3/5
f 406/3/5 401/3/5 400/3/5
f 407/3/5 401/3/5 406/3/5
f 408/3/5 403/3/5 402/3/5
f 409/3/5 403/3/5 408/3/5
f 410/2/5 399/2/5 398/2/5
f 411/2/5 399/2/5 410/2/5
f 416/3/5 413/3/5 412/3/5
f 417/3/5 413/3/5 416/3/5
f 418/3/5 415/3/5 414/3/5
f 419/3/5 415/3/5 418/3/5
f 428/3/5 421/3/5 420/3/5
f 429/3/5 421/3/5 428/3/5
f 430/3/5 423/3/5 422/3/5
f 431/3/5 423/3/5 430/3/5
f 432/3/5 425/3/5 424/3/5
f 433/3/5 425/3/5 432/3/5
f 434/3/5 427/3/5 426/3/5
f 435/3/5 427/3/5 434/3/5
f 440/3/5 437/3/5 436/3/5
f 441/3/5 437/3/5 440/3/5
f 442/3/5 439/3/5 438/3/5
f 443/3/5 439/3/5 442/3/5
f 444/3/6 445/3/6 448/3/6
f 448/3/6 445/3/6 449/3/6
f 446/3/6 447/3/6 450/3/6
f 450/3/6 447/3/6 451/3/6
f 452/3/6 453/3/6 456/3/6
f 456/3/6 453/3/6 457/3/6
f 454/3/6 455/3/6 458/3/6
f 458/3/6 455/3/6 459/3/6
f 460/3/6 461/3/6 464/3/6
f 464/3/6 461/3/6 465/3/6
f 462/3/6 463/3/6 466/3/6
f 466/3/6 463/3/6 467/3/6
f 468/2/6 469/2/6 471/2/6
f 471/2/6 469/2/6 472/2/6
f 470/2/6 471/2/6 474/2/6
f 474/2/6 471/2/6 475/2/6
f 472/2/6 473/2/6 476/2/6
f 476/2/6 473/2/6 477/2/6
f 475/2/6 476/2/6 478/2/6
f 478/2/6 476/2/6 479/2/6
f 480/2/6 481/2/6 482/2/6
f 482/2/6 481/2/6 483/2/6
f 484/2/6 485/2/6 486/2/6
f 486/2/6 485/2/6 487/2/6
f 488/3/6 489/3/6 496/3/6
f 496/3/6 489/3/6 497/3/6
f 490/3/6 491/3/6 498/3/6
f 498/3/6 491/3/6 499/3/6
f 492/3/6 493/3/6 500/3/6
f 500/3/6 493/3/6 501/3/6
f 494/3/6 495/3/6 502/3/6
f 502/3/6 495/3/6 503/3/6
f 504/3/6 505/3/6 506/3/6
f 506/3/6 505/3/6 507/3/6
f 508/3/6 509/3/6 512/3/6
f 512/3/6 509/3/6 513/3/6
f 510/3/6 511/3/6 514/3/6
f 514/3/6 511/3/6 515/3/6
f 516/3/6 517/3/6 520/3/6
f 520/3/6 517/3/6 521/3/6
f 518/3/6 519/3/6 522/3/6
f 522/3/6 519/3/6 523/3/6
f 524/3/6 525/3/6 528/3/6
f 528/3/6 525/3/6 529/3/6
f 526/3/6 527/3/6 530/3/6
f 530/3/6 527/3/6 531/3/6
f 532/3/6 533/3/6 534/3/6
f 534/3/6 533/3/6 535/3/6
